<?xml version="1.0" encoding="utf-8"?>
<!-- Generator: Adobe Illustrator 19.0.0, SVG Export Plug-In . SVG Version: 6.00 Build 0)  -->
<svg version="1.1" id="Layer_1" xmlns="http://www.w3.org/2000/svg" xmlns:xlink="http://www.w3.org/1999/xlink" x="0px" y="0px"
	 viewBox="-429 231 100 100" style="enable-background:new -429 231 100 100;" xml:space="preserve">
<style type="text/css">
	.st0{fill:#FFFFFF;}
</style>
<g id="Layer_1_1_">
</g>
<g id="Layer_2">
</g>
<g id="Iconography_Board">
</g>
<g>
	<g>
		<path class="st0" d="M-384.2,310c-0.7,0.6-1.4,1.1-2.3,1.5c-0.9,0.5-1.8,0.8-2.8,1.1c-1,0.3-2,0.5-3.1,0.7
			c-1.1,0.2-2.1,0.3-3.1,0.3c-2.3,0-4.4-0.4-6.3-1.2s-3.6-1.9-5-3.4c-1.4-1.5-2.5-3.2-3.3-5.3c-0.8-2.1-1.2-4.4-1.2-7
			c0-2,0.2-3.9,0.7-5.7s1.2-3.3,2.1-4.7c0.9-1.4,1.9-2.6,3.1-3.7c1.2-1.1,2.5-2,3.9-2.7c1.4-0.7,2.9-1.3,4.4-1.6
			c1.6-0.4,3.1-0.6,4.7-0.6c0.5,0,1.1,0,1.8,0.1c0.7,0,1.4,0.1,2.2,0.2c0.8,0.1,1.5,0.2,2.3,0.4c0.8,0.2,1.6,0.3,2.3,0.5l-1.3,6.1
			l-0.4,0.2c-1.3-0.7-2.5-1.1-3.7-1.4c-1.2-0.3-2.2-0.4-3.2-0.4c-1.5,0-2.8,0.3-4,0.8c-1.2,0.5-2.2,1.3-3.1,2.3
			c-0.8,1-1.5,2.2-2,3.7c-0.5,1.5-0.7,3.1-0.7,4.9c0,1.9,0.3,3.6,0.8,5.1c0.5,1.5,1.2,2.8,2.2,3.9c1,1.1,2.1,1.9,3.5,2.4
			c1.4,0.6,2.9,0.9,4.7,0.9c0.7,0,1.4,0,2-0.1c0.6-0.1,1.2-0.2,1.8-0.4c0.6-0.2,1.1-0.3,1.6-0.5s1-0.4,1.4-0.6V310z"/>
		<path class="st0" d="M-350.3,311.1c-2.2,0.8-4.2,1.5-6.2,1.9c-2,0.4-4,0.6-6,0.6c-3,0-5.5-0.4-7.7-1.2c-2.2-0.8-3.9-1.9-5.3-3.4
			c-1.4-1.4-2.4-3.2-3.1-5.2c-0.7-2-1-4.2-1-6.7c0-2.2,0.2-4.1,0.7-6c0.5-1.8,1.2-3.4,2.1-4.9c0.9-1.4,1.9-2.7,3.1-3.8
			c1.2-1.1,2.5-2,4-2.7c1.4-0.7,2.9-1.3,4.5-1.6c1.6-0.4,3.2-0.5,4.9-0.5c0.5,0,1.2,0,1.9,0.1c0.7,0,1.5,0.1,2.3,0.2
			c0.8,0.1,1.6,0.2,2.4,0.4c0.8,0.2,1.6,0.3,2.3,0.5l-1.3,6.1l-0.4,0.2c-0.6-0.3-1.3-0.6-2-0.8c-0.7-0.2-1.3-0.4-1.9-0.5
			c-0.6-0.1-1.2-0.2-1.8-0.3c-0.6-0.1-1.1-0.1-1.6-0.1c-1.5,0-2.9,0.3-4.1,0.8c-1.2,0.5-2.3,1.3-3.1,2.3c-0.9,1-1.5,2.3-2,3.8
			c-0.5,1.5-0.7,3.2-0.7,5.1c0,1.8,0.2,3.5,0.6,5c0.4,1.5,1,2.8,1.8,3.9c0.8,1.1,1.7,2,2.8,2.6c1.1,0.6,2.4,0.9,3.8,0.9
			c0.2,0,0.5,0,0.7,0c0.3,0,0.6,0,0.9-0.1c0.3,0,0.6-0.1,0.8-0.1c0.3,0,0.5-0.1,0.6-0.2v-12.1h7.9V311.1z"/>
	</g>
	<path class="st0" d="M-367.6,267.7c7.1,0.3,14.1,1,20.4,2c5.9,1.1,11.8,2.7,17.3,4.4c0.3,0.1,0.6,0.2,0.8,0.3
		c-7.7-12.2-21.4-24.6-34.8-28.7c-0.1,2.5-0.1,5.1-0.2,7.7c-4-0.6-8.3-0.8-12.7-0.6c-27.9,1.3-51.2,13.5-52.1,33.3
		c-0.5,12.2,7.8,23.4,20.8,30.5c-8.4-5.8-13.3-13.2-13-21.1C-420.4,278.6-404.2,265.9-367.6,267.7z"/>
</g>
</svg>
