<?xml version="1.0" encoding="utf-8"?>
<!-- Generator: Adobe Illustrator 19.0.0, SVG Export Plug-In . SVG Version: 6.00 Build 0)  -->
<svg version="1.1" id="Layer_1" xmlns="http://www.w3.org/2000/svg" xmlns:xlink="http://www.w3.org/1999/xlink" x="0px" y="0px"
	 viewBox="-390 246.2 177.6 68.8" style="enable-background:new -390 246.2 177.6 68.8;" xml:space="preserve">
<style type="text/css">
	.st0{fill:url(#SVGID_1_);}
	.st1{fill:url(#SVGID_2_);}
	.st2{fill:url(#SVGID_3_);}
	.st3{fill:url(#SVGID_4_);}
	.st4{fill:url(#SVGID_5_);}
	.st5{fill:url(#SVGID_6_);}
	.st6{enable-background:new    ;}
	.st7{fill:#2F0945;}
</style>
<g>
	<g>
		<g>
			
				<linearGradient id="SVGID_1_" gradientUnits="userSpaceOnUse" x1="-359.9664" y1="285.3383" x2="-359.9664" y2="250.8018" gradientTransform="matrix(1 0 0 -1 0 562.4)">
				<stop  offset="0" style="stop-color:#8747D1"/>
				<stop  offset="0.1105" style="stop-color:#7A43C3"/>
				<stop  offset="1" style="stop-color:#182057"/>
			</linearGradient>
			<path class="st0" d="M-347,308c-0.6,0.6-1.4,1.1-2.3,1.5s-1.8,0.8-2.7,1.1c-1,0.3-2,0.5-3,0.7s-2,0.2-3,0.2
				c-2.2,0-4.3-0.4-6.1-1.2c-1.9-0.8-3.5-1.9-4.8-3.3c-1.4-1.4-2.5-3.2-3.2-5.1c-0.8-2-1.2-4.3-1.2-6.7c0-2,0.2-3.8,0.7-5.4
				c0.5-1.7,1.1-3.2,2-4.6s1.9-2.6,3-3.6c1.2-1,2.4-1.9,3.8-2.6c1.4-0.7,2.8-1.2,4.3-1.6s3-0.5,4.6-0.5c0.5,0,1.1,0,1.7,0.1
				c0.6,0.1,1.4,0.1,2.1,0.2c0.7,0.1,1.5,0.2,2.3,0.4c0.8,0.1,1.5,0.3,2.2,0.5l-1.3,5.8l-0.4,0.2c-1.2-0.6-2.4-1.1-3.6-1.3
				c-1.1-0.2-2.2-0.4-3.1-0.4c-1.4,0-2.7,0.3-3.9,0.8c-1.2,0.5-2.1,1.3-3,2.3c-0.8,1-1.5,2.2-1.9,3.6s-0.7,3-0.7,4.8
				s0.2,3.5,0.7,4.9s1.2,2.7,2.1,3.8c0.9,1,2.1,1.8,3.4,2.4c1.3,0.6,2.8,0.8,4.5,0.8c0.7,0,1.4,0,2-0.1c0.6-0.1,1.2-0.2,1.7-0.4
				c0.5-0.2,1.1-0.3,1.5-0.5c0.4-0.2,0.9-0.4,1.4-0.6v3.9H-347z"/>
			
				<linearGradient id="SVGID_2_" gradientUnits="userSpaceOnUse" x1="-328.5966" y1="285.325" x2="-328.5966" y2="250.7885" gradientTransform="matrix(1 0 0 -1 0 562.4)">
				<stop  offset="0" style="stop-color:#8747D1"/>
				<stop  offset="0.1105" style="stop-color:#7A43C3"/>
				<stop  offset="1" style="stop-color:#182057"/>
			</linearGradient>
			<path class="st1" d="M-314.5,309.2c-2.1,0.8-4.1,1.4-5.9,1.8s-3.9,0.6-5.7,0.6c-2.9,0-5.3-0.4-7.4-1.2s-3.8-1.9-5.1-3.3
				c-1.4-1.4-2.4-3.1-3-4.9c-0.7-2-1-4.1-1-6.4c0-2.1,0.2-4,0.7-5.7c0.5-1.8,1.1-3.3,2-4.7c0.9-1.4,1.9-2.6,3-3.7
				c1.2-1.1,2.5-1.9,3.8-2.6c1.4-0.7,2.9-1.2,4.4-1.6c1.6-0.3,3.1-0.5,4.7-0.5c0.5,0,1.1,0,1.8,0.1c0.7,0,1.5,0.1,2.2,0.2
				c0.8,0.1,1.6,0.2,2.4,0.4c0.8,0.1,1.6,0.3,2.3,0.5l-1.2,5.9l-0.4,0.2c-0.6-0.3-1.3-0.6-1.9-0.8c-0.6-0.2-1.3-0.4-1.9-0.5
				c-0.6-0.1-1.2-0.2-1.8-0.3c-0.6-0.1-1.1-0.1-1.5-0.1c-1.5,0-2.8,0.3-4,0.8s-2.2,1.3-3,2.3c-0.8,1-1.5,2.2-1.9,3.7
				c-0.4,1.5-0.7,3.1-0.7,4.9c0,1.8,0.2,3.4,0.6,4.8s1,2.7,1.8,3.8c0.8,1.1,1.7,1.9,2.8,2.5c1.1,0.6,2.3,0.9,3.7,0.9
				c0.2,0,0.4,0,0.7,0s0.6,0,0.8-0.1c0.3,0,0.6-0.1,0.8-0.1c0.3,0,0.5-0.1,0.6-0.2v-11.9h7.6C-314.5,294.1-314.5,309.2-314.5,309.2z
				"/>
		</g>
		
			<linearGradient id="SVGID_3_" gradientUnits="userSpaceOnUse" x1="-342.0164" y1="316.2" x2="-342.0164" y2="248.1167" gradientTransform="matrix(1 0 0 -1 0 562.4)">
			<stop  offset="0" style="stop-color:#8747D1"/>
			<stop  offset="0.1105" style="stop-color:#7A43C3"/>
			<stop  offset="1" style="stop-color:#182057"/>
		</linearGradient>
		<path class="st2" d="M-331,267.4c6.8,0.3,13.6,1,19.6,1.9c5.7,1.1,11.3,2.6,16.6,4.3c0.3,0.1,0.5,0.2,0.8,0.3
			c-7.3-11.7-20.6-23.7-33.5-27.6c-0.1,2.4-0.1,4.8-0.2,7.3c-3.9-0.6-7.9-0.8-12.2-0.6c-26.8,1.3-49.3,13.1-50.1,32
			c-0.5,11.8,7.4,22.6,20,29.4c-8.1-5.6-12.9-12.8-12.5-20.3C-381.9,278-366.3,265.7-331,267.4z"/>
	</g>
	<g>
		<g>
			
				<linearGradient id="SVGID_4_" gradientUnits="userSpaceOnUse" x1="-347.751" y1="284.8112" x2="-366.1133" y2="253.0068" gradientTransform="matrix(1 0 0 -1 0 562.4)">
				<stop  offset="0" style="stop-color:#FF6759"/>
				<stop  offset="0.132" style="stop-color:#DE5A4E;stop-opacity:0.868"/>
				<stop  offset="0.3112" style="stop-color:#B94B41;stop-opacity:0.6888"/>
				<stop  offset="0.49" style="stop-color:#9B3F37;stop-opacity:0.51"/>
				<stop  offset="0.6658" style="stop-color:#863730;stop-opacity:0.3342"/>
				<stop  offset="0.8375" style="stop-color:#79322B;stop-opacity:0.1625"/>
				<stop  offset="1" style="stop-color:#75302A;stop-opacity:0"/>
			</linearGradient>
			<path class="st3" d="M-347,308c-0.6,0.6-1.4,1.1-2.3,1.5s-1.8,0.8-2.7,1.1c-1,0.3-2,0.5-3,0.7s-2,0.2-3,0.2
				c-2.2,0-4.3-0.4-6.1-1.2c-1.9-0.8-3.5-1.9-4.8-3.3c-1.4-1.4-2.5-3.2-3.2-5.1c-0.8-2-1.2-4.3-1.2-6.7c0-2,0.2-3.8,0.7-5.4
				c0.5-1.7,1.1-3.2,2-4.6s1.9-2.6,3-3.6c1.2-1,2.4-1.9,3.8-2.6c1.4-0.7,2.8-1.2,4.3-1.6s3-0.5,4.6-0.5c0.5,0,1.1,0,1.7,0.1
				c0.6,0.1,1.4,0.1,2.1,0.2c0.7,0.1,1.5,0.2,2.3,0.4c0.8,0.1,1.5,0.3,2.2,0.5l-1.3,5.8l-0.4,0.2c-1.2-0.6-2.4-1.1-3.6-1.3
				c-1.1-0.2-2.2-0.4-3.1-0.4c-1.4,0-2.7,0.3-3.9,0.8c-1.2,0.5-2.1,1.3-3,2.3c-0.8,1-1.5,2.2-1.9,3.6s-0.7,3-0.7,4.8
				s0.2,3.5,0.7,4.9s1.2,2.7,2.1,3.8c0.9,1,2.1,1.8,3.4,2.4c1.3,0.6,2.8,0.8,4.5,0.8c0.7,0,1.4,0,2-0.1c0.6-0.1,1.2-0.2,1.7-0.4
				c0.5-0.2,1.1-0.3,1.5-0.5c0.4-0.2,0.9-0.4,1.4-0.6v3.9H-347z"/>
			
				<linearGradient id="SVGID_5_" gradientUnits="userSpaceOnUse" x1="-316.0582" y1="284.5066" x2="-334.6559" y2="252.2943" gradientTransform="matrix(1 0 0 -1 0 562.4)">
				<stop  offset="0" style="stop-color:#FF6759"/>
				<stop  offset="0.132" style="stop-color:#DE5A4E;stop-opacity:0.868"/>
				<stop  offset="0.3112" style="stop-color:#B94B41;stop-opacity:0.6888"/>
				<stop  offset="0.49" style="stop-color:#9B3F37;stop-opacity:0.51"/>
				<stop  offset="0.6658" style="stop-color:#863730;stop-opacity:0.3342"/>
				<stop  offset="0.8375" style="stop-color:#79322B;stop-opacity:0.1625"/>
				<stop  offset="1" style="stop-color:#75302A;stop-opacity:0"/>
			</linearGradient>
			<path class="st4" d="M-314.5,309.2c-2.1,0.8-4.1,1.4-5.9,1.8s-3.9,0.6-5.7,0.6c-2.9,0-5.3-0.4-7.4-1.2s-3.8-1.9-5.1-3.3
				c-1.4-1.4-2.4-3.1-3-4.9c-0.7-2-1-4.1-1-6.4c0-2.1,0.2-4,0.7-5.7c0.5-1.8,1.1-3.3,2-4.7c0.9-1.4,1.9-2.6,3-3.7
				c1.2-1.1,2.5-1.9,3.8-2.6c1.4-0.7,2.9-1.2,4.4-1.6c1.6-0.3,3.1-0.5,4.7-0.5c0.5,0,1.1,0,1.8,0.1c0.7,0,1.5,0.1,2.2,0.2
				c0.8,0.1,1.6,0.2,2.4,0.4c0.8,0.1,1.6,0.3,2.3,0.5l-1.2,5.9l-0.4,0.2c-0.6-0.3-1.3-0.6-1.9-0.8c-0.6-0.2-1.3-0.4-1.9-0.5
				c-0.6-0.1-1.2-0.2-1.8-0.3c-0.6-0.1-1.1-0.1-1.5-0.1c-1.5,0-2.8,0.3-4,0.8s-2.2,1.3-3,2.3c-0.8,1-1.5,2.2-1.9,3.7
				c-0.4,1.5-0.7,3.1-0.7,4.9c0,1.8,0.2,3.4,0.6,4.8s1,2.7,1.8,3.8c0.8,1.1,1.7,1.9,2.8,2.5c1.1,0.6,2.3,0.9,3.7,0.9
				c0.2,0,0.4,0,0.7,0s0.6,0,0.8-0.1c0.3,0,0.6-0.1,0.8-0.1c0.3,0,0.5-0.1,0.6-0.2v-11.9h7.6C-314.5,294.1-314.5,309.2-314.5,309.2z
				"/>
		</g>
		
			<linearGradient id="SVGID_6_" gradientUnits="userSpaceOnUse" x1="-324.6632" y1="315.7776" x2="-365.307" y2="245.3803" gradientTransform="matrix(1 0 0 -1 0 562.4)">
			<stop  offset="0" style="stop-color:#FF6759"/>
			<stop  offset="0.132" style="stop-color:#DE5A4E;stop-opacity:0.868"/>
			<stop  offset="0.3112" style="stop-color:#B94B41;stop-opacity:0.6888"/>
			<stop  offset="0.49" style="stop-color:#9B3F37;stop-opacity:0.51"/>
			<stop  offset="0.6658" style="stop-color:#863730;stop-opacity:0.3342"/>
			<stop  offset="0.8375" style="stop-color:#79322B;stop-opacity:0.1625"/>
			<stop  offset="1" style="stop-color:#75302A;stop-opacity:0"/>
		</linearGradient>
		<path class="st5" d="M-331,267.4c6.8,0.3,13.6,1,19.6,1.9c5.7,1.1,11.3,2.6,16.6,4.3c0.3,0.1,0.5,0.2,0.8,0.3
			c-7.3-11.7-20.6-23.7-33.5-27.6c-0.1,2.4-0.1,4.8-0.2,7.3c-3.9-0.6-7.9-0.8-12.2-0.6c-26.8,1.3-49.3,13.1-50.1,32
			c-0.5,11.8,7.4,22.6,20,29.4c-8.1-5.6-12.9-12.8-12.5-20.3C-381.9,278-366.3,265.7-331,267.4z"/>
	</g>
</g>
<g class="st6">
	<path class="st7" d="M-296.7,308.7c-0.2,0.2-0.5,0.3-0.7,0.5c-0.3,0.1-0.5,0.2-0.8,0.3c-0.3,0.1-0.6,0.1-0.9,0.2
		c-0.3,0-0.5,0.1-0.8,0.1c-0.6,0-1.2-0.1-1.8-0.3s-1-0.5-1.4-0.9s-0.7-0.9-0.9-1.4c-0.2-0.6-0.3-1.2-0.3-1.9c0-0.5,0.1-1,0.2-1.5
		s0.3-0.9,0.6-1.3c0.2-0.4,0.5-0.7,0.9-1c0.3-0.3,0.7-0.5,1.1-0.7s0.8-0.3,1.2-0.4s0.9-0.2,1.3-0.2c0.1,0,0.3,0,0.5,0
		c0.2,0,0.4,0,0.6,0.1c0.2,0,0.4,0.1,0.7,0.1c0.2,0,0.5,0.1,0.7,0.2l-0.3,1.4l-0.1,0.1c-0.4-0.2-0.8-0.3-1.2-0.4
		c-0.4-0.1-0.7-0.1-1-0.1c-0.5,0-0.9,0.1-1.3,0.3s-0.7,0.4-1,0.7c-0.3,0.3-0.5,0.7-0.6,1.1s-0.2,0.9-0.2,1.4c0,0.5,0.1,1,0.2,1.4
		c0.2,0.4,0.4,0.8,0.7,1.1s0.6,0.6,1.1,0.8s0.9,0.3,1.4,0.3c0.4,0,0.8,0,1.1-0.1c0.4-0.1,0.8-0.2,1.2-0.5V308.7z"/>
	<path class="st7" d="M-295,299.3h1.9v10.3h-1.9V299.3z"/>
	<path class="st7" d="M-290.1,301.6c-0.2,0-0.3,0-0.4-0.1c-0.1-0.1-0.2-0.1-0.3-0.2c-0.1-0.1-0.2-0.2-0.2-0.3
		c-0.1-0.1-0.1-0.2-0.1-0.4c0-0.1,0-0.3,0.1-0.4s0.1-0.2,0.2-0.3s0.2-0.2,0.4-0.2c0.1-0.1,0.3-0.1,0.5-0.1s0.3,0,0.4,0.1
		c0.1,0.1,0.2,0.1,0.3,0.2c0.1,0.1,0.2,0.2,0.2,0.3c0.1,0.1,0.1,0.3,0.1,0.4c0,0.1,0,0.3-0.1,0.4s-0.1,0.2-0.2,0.3s-0.2,0.2-0.4,0.2
		C-289.8,301.5-290,301.6-290.1,301.6z M-291.1,302.8h1.9v6.8h-1.9V302.8z"/>
	<path class="st7" d="M-287.1,302.8h1.6l0.2,1.1c0.1-0.1,0.3-0.3,0.5-0.4s0.4-0.3,0.6-0.4c0.2-0.1,0.4-0.2,0.6-0.3
		c0.2-0.1,0.5-0.1,0.7-0.1c0.2,0,0.4,0,0.6,0.1s0.4,0.2,0.5,0.3c0.2,0.1,0.3,0.3,0.4,0.4c0.1,0.2,0.2,0.3,0.3,0.5
		c0.2-0.1,0.3-0.3,0.5-0.4c0.2-0.2,0.4-0.3,0.6-0.4s0.4-0.2,0.7-0.3c0.2-0.1,0.5-0.1,0.7-0.1c0.3,0,0.6,0.1,0.9,0.2
		c0.3,0.1,0.5,0.3,0.7,0.5c0.2,0.2,0.3,0.5,0.4,0.8s0.1,0.6,0.1,0.9v4.5h-1.9v-4.3c0-0.2,0-0.4-0.1-0.5c-0.1-0.2-0.1-0.3-0.2-0.4
		c-0.1-0.1-0.2-0.2-0.3-0.3c-0.1-0.1-0.3-0.1-0.4-0.1c-0.1,0-0.3,0-0.4,0.1c-0.1,0-0.2,0.1-0.4,0.2c-0.1,0.1-0.2,0.1-0.3,0.2
		s-0.2,0.2-0.4,0.3c0,0.1,0,0.2,0,0.3v4.5h-1.9v-4.3c0-0.2,0-0.4-0.1-0.5c-0.1-0.2-0.1-0.3-0.2-0.4c-0.1-0.1-0.2-0.2-0.3-0.3
		c-0.1-0.1-0.3-0.1-0.4-0.1c-0.1,0-0.3,0-0.4,0.1c-0.1,0-0.2,0.1-0.3,0.2c-0.1,0.1-0.2,0.1-0.3,0.2c-0.1,0.1-0.2,0.2-0.3,0.3v4.8
		h-1.9V302.8z"/>
	<path class="st7" d="M-270.8,308.6c-0.1,0.1-0.3,0.2-0.4,0.3s-0.3,0.3-0.5,0.4c-0.2,0.1-0.4,0.2-0.6,0.3c-0.2,0.1-0.5,0.1-0.7,0.1
		c-0.3,0-0.5-0.1-0.7-0.2s-0.4-0.2-0.6-0.4c-0.2-0.2-0.3-0.4-0.4-0.6c-0.1-0.2-0.1-0.5-0.1-0.7c0-0.3,0.1-0.6,0.2-0.9
		c0.1-0.3,0.3-0.5,0.6-0.7c0.3-0.2,0.7-0.4,1.1-0.5s1-0.2,1.7-0.2h0.4V305c0-0.4-0.1-0.6-0.3-0.8c-0.2-0.2-0.5-0.3-0.9-0.3
		c-0.2,0-0.3,0-0.5,0.1s-0.3,0.1-0.5,0.2c-0.2,0.1-0.3,0.1-0.5,0.2c-0.2,0.1-0.3,0.2-0.5,0.3l-0.1-0.1l-0.3-1.2
		c0.5-0.3,1-0.4,1.5-0.5c0.5-0.1,0.9-0.2,1.3-0.2c0.4,0,0.8,0,1.1,0.1c0.3,0.1,0.6,0.2,0.9,0.4c0.2,0.2,0.4,0.4,0.6,0.7
		c0.1,0.3,0.2,0.6,0.2,1v2.9c0,0.1,0,0.1,0,0.2c0,0.1,0,0.1,0.1,0.2s0.1,0.1,0.1,0.2c0.1,0,0.1,0.1,0.2,0.1c0.1,0,0.1,0,0.2,0
		c0.1,0,0.1,0,0.2-0.1v0.9c-0.3,0.2-0.5,0.3-0.8,0.4s-0.5,0.2-0.7,0.2c-0.2,0-0.3,0-0.4-0.1s-0.2-0.1-0.3-0.2
		c-0.1-0.1-0.2-0.2-0.3-0.4C-270.6,308.9-270.7,308.7-270.8,308.6z M-270.8,306.2h-0.3c-0.4,0-0.7,0-1,0.1c-0.2,0.1-0.4,0.1-0.6,0.2
		s-0.2,0.2-0.3,0.4c-0.1,0.1-0.1,0.3-0.1,0.4c0,0.2,0,0.3,0.1,0.4s0.1,0.2,0.2,0.3s0.2,0.1,0.3,0.2c0.1,0,0.2,0.1,0.4,0.1
		c0.2,0,0.4,0,0.6-0.1c0.2-0.1,0.4-0.2,0.7-0.5V306.2z"/>
	<path class="st7" d="M-266.3,304h-1.4l0.1-0.8c0.2-0.1,0.4-0.1,0.6-0.2s0.3-0.1,0.4-0.2c0.1-0.1,0.2-0.2,0.3-0.3s0.2-0.2,0.3-0.3
		c0.1-0.1,0.2-0.3,0.2-0.5c0.1-0.2,0.2-0.4,0.3-0.6h0.9v1.7h2.4l-0.3,1.2h-2v3.2c0,0.4,0.1,0.7,0.3,0.9c0.2,0.2,0.5,0.3,0.9,0.3
		c0.2,0,0.4,0,0.5,0c0.2,0,0.3-0.1,0.5-0.1v0.9c-0.3,0.2-0.7,0.4-1,0.5c-0.4,0.1-0.7,0.2-1.1,0.2c-0.4,0-0.7,0-0.9-0.2
		s-0.5-0.2-0.7-0.4c-0.2-0.2-0.3-0.4-0.4-0.7s-0.1-0.6-0.1-0.9V304z"/>
	<path class="st7" d="M-254.9,308.9c-0.2,0.1-0.4,0.3-0.7,0.4c-0.2,0.1-0.5,0.2-0.7,0.2s-0.5,0.1-0.7,0.1c-0.2,0-0.5,0-0.7,0
		c-0.5,0-1-0.1-1.4-0.2c-0.4-0.1-0.8-0.4-1.1-0.6c-0.3-0.3-0.5-0.6-0.7-1c-0.2-0.4-0.3-0.9-0.3-1.4c0-0.6,0.1-1.1,0.3-1.6
		c0.2-0.5,0.5-0.9,0.8-1.2c0.3-0.3,0.7-0.6,1.2-0.7s0.9-0.3,1.4-0.3c0.4,0,0.8,0.1,1.1,0.2s0.6,0.3,0.9,0.6s0.4,0.6,0.6,0.9
		c0.1,0.4,0.2,0.8,0.2,1.3c0,0.1,0,0.3,0,0.4c0,0.1,0,0.3-0.1,0.4h-4.4c0,0.3,0.1,0.6,0.2,0.8c0.1,0.2,0.3,0.4,0.5,0.6
		c0.2,0.2,0.5,0.3,0.7,0.4c0.3,0.1,0.6,0.1,1,0.1c0.1,0,0.2,0,0.4,0c0.1,0,0.3,0,0.5,0s0.3-0.1,0.5-0.1c0.2,0,0.3-0.1,0.5-0.2V308.9
		z M-256.3,305.7c0-0.3,0-0.6-0.1-0.8c-0.1-0.2-0.2-0.4-0.3-0.6c-0.1-0.1-0.3-0.3-0.4-0.3c-0.2-0.1-0.3-0.1-0.5-0.1
		c-0.2,0-0.4,0-0.6,0.1c-0.2,0.1-0.3,0.2-0.5,0.4c-0.1,0.2-0.2,0.3-0.3,0.6c-0.1,0.2-0.1,0.5-0.1,0.7H-256.3z"/>
	<path class="st7" d="M-242.3,309.1c-0.6,0.2-1.2,0.4-1.7,0.5c-0.5,0.1-1.1,0.1-1.6,0.1c-0.8,0-1.5-0.1-2.1-0.3
		c-0.6-0.2-1.1-0.5-1.5-0.9c-0.4-0.4-0.7-0.9-0.9-1.4s-0.3-1.2-0.3-1.8c0-0.6,0.1-1.1,0.2-1.5c0.1-0.5,0.3-0.9,0.6-1.3
		s0.5-0.7,0.9-1c0.3-0.3,0.7-0.5,1.1-0.7s0.8-0.3,1.3-0.4s0.9-0.2,1.4-0.2c0.2,0,0.3,0,0.5,0s0.4,0,0.6,0.1c0.2,0,0.4,0.1,0.7,0.1
		s0.5,0.1,0.7,0.2l-0.3,1.4l-0.1,0.1c-0.4-0.2-0.8-0.3-1.2-0.4c-0.4-0.1-0.7-0.1-1-0.1c-0.5,0-0.9,0.1-1.3,0.3s-0.7,0.4-1,0.7
		c-0.3,0.3-0.5,0.7-0.7,1.1c-0.2,0.4-0.2,0.9-0.2,1.4c0,0.5,0.1,1,0.2,1.4c0.1,0.4,0.3,0.8,0.6,1.1c0.3,0.3,0.6,0.6,1,0.8
		s0.8,0.3,1.3,0.3c0.2,0,0.4,0,0.6,0c0.2,0,0.5-0.1,0.7-0.1V305h1.7V309.1z"/>
	<path class="st7" d="M-240.2,302.8h1.9v4.3c0,0.2,0,0.4,0.1,0.5s0.1,0.3,0.2,0.4c0.1,0.1,0.2,0.2,0.3,0.3c0.1,0.1,0.3,0.1,0.4,0.1
		c0.1,0,0.3,0,0.4-0.1c0.1,0,0.2-0.1,0.4-0.2c0.1-0.1,0.2-0.2,0.3-0.2s0.2-0.2,0.3-0.3v-4.8h1.9v6.8h-1.6l-0.3-1.1
		c-0.2,0.1-0.3,0.3-0.5,0.4c-0.2,0.1-0.4,0.3-0.6,0.4c-0.2,0.1-0.4,0.2-0.6,0.3s-0.4,0.1-0.7,0.1c-0.3,0-0.5-0.1-0.8-0.2
		c-0.3-0.1-0.5-0.3-0.7-0.5c-0.2-0.2-0.3-0.4-0.5-0.7c-0.1-0.3-0.2-0.6-0.2-1V302.8z"/>
	<path class="st7" d="M-230.9,301.6c-0.2,0-0.3,0-0.4-0.1c-0.1-0.1-0.2-0.1-0.3-0.2c-0.1-0.1-0.2-0.2-0.2-0.3
		c-0.1-0.1-0.1-0.2-0.1-0.4c0-0.1,0-0.3,0.1-0.4s0.1-0.2,0.2-0.3s0.2-0.2,0.4-0.2c0.1-0.1,0.3-0.1,0.5-0.1s0.3,0,0.4,0.1
		c0.1,0.1,0.2,0.1,0.3,0.2c0.1,0.1,0.2,0.2,0.2,0.3c0.1,0.1,0.1,0.3,0.1,0.4c0,0.1,0,0.3-0.1,0.4s-0.1,0.2-0.2,0.3s-0.2,0.2-0.4,0.2
		C-230.6,301.5-230.8,301.6-230.9,301.6z M-231.9,302.8h1.9v6.8h-1.9V302.8z"/>
	<path class="st7" d="M-223.4,299.3h1.9v10.3h-1.6l-0.2-1.1c-0.2,0.1-0.3,0.3-0.5,0.4c-0.2,0.1-0.4,0.3-0.6,0.4
		c-0.2,0.1-0.4,0.2-0.6,0.3c-0.2,0.1-0.5,0.1-0.7,0.1c-0.4,0-0.8-0.1-1.1-0.3c-0.3-0.2-0.6-0.4-0.8-0.7c-0.2-0.3-0.4-0.6-0.5-1
		c-0.1-0.4-0.2-0.8-0.2-1.2c0-0.5,0.1-1,0.3-1.5c0.2-0.5,0.5-0.9,0.8-1.2c0.3-0.3,0.8-0.6,1.2-0.8s1-0.3,1.5-0.3c0.2,0,0.4,0,0.7,0
		c0.2,0,0.4,0.1,0.5,0.1V299.3z M-223.4,304.1c-0.2-0.1-0.5-0.2-0.6-0.2c-0.2,0-0.3,0-0.5,0c-0.3,0-0.6,0.1-0.8,0.2
		s-0.4,0.3-0.6,0.5c-0.2,0.2-0.3,0.5-0.4,0.7s-0.1,0.6-0.1,0.9c0,0.3,0,0.6,0.1,0.8c0.1,0.3,0.2,0.5,0.3,0.7
		c0.1,0.2,0.3,0.3,0.5,0.4c0.2,0.1,0.4,0.2,0.6,0.2c0.3,0,0.5-0.1,0.8-0.2c0.3-0.1,0.5-0.3,0.7-0.6V304.1z"/>
	<path class="st7" d="M-213.7,308.9c-0.2,0.1-0.4,0.3-0.7,0.4c-0.2,0.1-0.5,0.2-0.7,0.2s-0.5,0.1-0.7,0.1c-0.2,0-0.5,0-0.7,0
		c-0.5,0-1-0.1-1.4-0.2c-0.4-0.1-0.8-0.4-1.1-0.6c-0.3-0.3-0.5-0.6-0.7-1c-0.2-0.4-0.3-0.9-0.3-1.4c0-0.6,0.1-1.1,0.3-1.6
		c0.2-0.5,0.5-0.9,0.8-1.2c0.3-0.3,0.7-0.6,1.2-0.7s0.9-0.3,1.4-0.3c0.4,0,0.8,0.1,1.1,0.2s0.6,0.3,0.9,0.6s0.4,0.6,0.6,0.9
		c0.1,0.4,0.2,0.8,0.2,1.3c0,0.1,0,0.3,0,0.4c0,0.1,0,0.3-0.1,0.4h-4.4c0,0.3,0.1,0.6,0.2,0.8c0.1,0.2,0.3,0.4,0.5,0.6
		c0.2,0.2,0.5,0.3,0.7,0.4c0.3,0.1,0.6,0.1,1,0.1c0.1,0,0.2,0,0.4,0c0.1,0,0.3,0,0.5,0s0.3-0.1,0.5-0.1c0.2,0,0.3-0.1,0.5-0.2V308.9
		z M-215.1,305.7c0-0.3,0-0.6-0.1-0.8c-0.1-0.2-0.2-0.4-0.3-0.6c-0.1-0.1-0.3-0.3-0.4-0.3c-0.2-0.1-0.3-0.1-0.5-0.1
		c-0.2,0-0.4,0-0.6,0.1c-0.2,0.1-0.3,0.2-0.5,0.4c-0.1,0.2-0.2,0.3-0.3,0.6c-0.1,0.2-0.1,0.5-0.1,0.7H-215.1z"/>
</g>
</svg>
