<?xml version="1.0" encoding="utf-8"?>
<!-- Generator: Adobe Illustrator 19.0.0, SVG Export Plug-In . SVG Version: 6.00 Build 0)  -->
<svg version="1.1" id="Layer_1" xmlns="http://www.w3.org/2000/svg" xmlns:xlink="http://www.w3.org/1999/xlink" x="0px" y="0px"
	 viewBox="0 0 100 100" style="enable-background:new 0 0 100 100;" xml:space="preserve">
<style type="text/css">
	.st0{fill:#FFFFFF;}
</style>
<g id="Layer_1_1_">
</g>
<g id="Layer_2">
</g>
<g id="Iconography_Board">
</g>
<g>
	<g>
		<path class="st0" d="M44.8,78.9c-0.7,0.6-1.4,1.1-2.3,1.5c-0.9,0.5-1.8,0.8-2.8,1.1c-1,0.3-2,0.5-3.1,0.7s-2.1,0.3-3.1,0.3
			c-2.3,0-4.4-0.4-6.3-1.2c-1.9-0.8-3.6-1.9-5-3.4s-2.5-3.2-3.3-5.3s-1.2-4.4-1.2-7c0-2,0.2-3.9,0.7-5.7s1.2-3.3,2.1-4.7
			s1.9-2.6,3.1-3.7s2.5-2,3.9-2.7s2.9-1.3,4.4-1.6c1.6-0.4,3.1-0.6,4.7-0.6c0.5,0,1.1,0,1.8,0.1c0.7,0,1.4,0.1,2.2,0.2
			s1.5,0.2,2.3,0.4s1.6,0.3,2.3,0.5l-1.3,6.1L43.5,54c-1.3-0.7-2.5-1.1-3.7-1.4s-2.2-0.4-3.2-0.4c-1.5,0-2.8,0.3-4,0.8
			s-2.2,1.3-3.1,2.3c-0.8,1-1.5,2.2-2,3.7s-0.7,3.1-0.7,4.9c0,1.9,0.3,3.6,0.8,5.1s1.2,2.8,2.2,3.9c1,1.1,2.1,1.9,3.5,2.4
			c1.4,0.6,2.9,0.9,4.7,0.9c0.7,0,1.4,0,2-0.1c0.6-0.1,1.2-0.2,1.8-0.4c0.6-0.2,1.1-0.3,1.6-0.5s1-0.4,1.4-0.6L44.8,78.9L44.8,78.9z
			"/>
		<path class="st0" d="M78.7,80.1c-2.2,0.8-4.2,1.5-6.2,1.9c-2,0.4-4,0.6-6,0.6c-3,0-5.5-0.4-7.7-1.2c-2.2-0.8-3.9-1.9-5.3-3.4
			c-1.4-1.4-2.4-3.2-3.1-5.2s-1-4.2-1-6.7c0-2.2,0.2-4.1,0.7-6c0.5-1.8,1.2-3.4,2.1-4.9c0.9-1.4,1.9-2.7,3.1-3.8
			c1.2-1.1,2.5-2,4-2.7c1.4-0.7,2.9-1.3,4.5-1.6c1.6-0.4,3.2-0.5,4.9-0.5c0.5,0,1.2,0,1.9,0.1c0.7,0,1.5,0.1,2.3,0.2
			s1.6,0.2,2.4,0.4s1.6,0.3,2.3,0.5l-1.3,6.1l-0.4,0.2c-0.6-0.3-1.3-0.6-2-0.8s-1.3-0.4-1.9-0.5s-1.2-0.2-1.8-0.3
			c-0.6-0.1-1.1-0.1-1.6-0.1c-1.5,0-2.9,0.3-4.1,0.8s-2.3,1.3-3.1,2.3c-0.9,1-1.5,2.3-2,3.8s-0.7,3.2-0.7,5.1c0,1.8,0.2,3.5,0.6,5
			c0.4,1.5,1,2.8,1.8,3.9c0.8,1.1,1.7,2,2.8,2.6c1.1,0.6,2.4,0.9,3.8,0.9c0.2,0,0.5,0,0.7,0c0.3,0,0.6,0,0.9-0.1
			c0.3,0,0.6-0.1,0.8-0.1c0.3,0,0.5-0.1,0.6-0.2V64.3h7.9L78.7,80.1L78.7,80.1z"/>
	</g>
	<path class="st0" d="M61.4,36.6c7.1,0.3,14.1,1,20.4,2c5.9,1.1,11.8,2.7,17.3,4.4c0.3,0.1,0.6,0.2,0.8,0.3
		C92.2,31,78.5,18.6,65.1,14.5C65,17,65,19.6,64.9,22.3c-4-0.6-8.3-0.8-12.7-0.6C24.3,22.9,1,35.1,0.1,55
		c-0.5,12.2,7.8,23.4,20.8,30.5c-8.4-5.8-13.3-13.2-13-21.1C8.6,47.5,24.8,34.8,61.4,36.6z"/>
</g>
</svg>
