<svg xmlns="http://www.w3.org/2000/svg" xmlns:xlink="http://www.w3.org/1999/xlink" viewBox="0 0 71.83 190"><defs><style>.cls-1{fill:url(#linear-gradient);}.cls-2{fill:url(#linear-gradient-2);}.cls-3{fill:#fff;}</style><linearGradient id="linear-gradient" x1="36.61" y1="19.36" x2="36.61" gradientUnits="userSpaceOnUse"><stop offset="0" stop-color="#243082"/><stop offset="0.17" stop-color="#493785"/><stop offset="0.45" stop-color="#82428a"/><stop offset="0.69" stop-color="#ac4a8e"/><stop offset="0.89" stop-color="#c64f90"/><stop offset="1" stop-color="#cf5191"/></linearGradient><linearGradient id="linear-gradient-2" x1="35.91" y1="190" x2="35.91" y2="21.46" xlink:href="#linear-gradient"/></defs><title>bottle</title><g id="Layer_2" data-name="Layer 2"><g id="Layer_2-2" data-name="Layer 2"><path class="cls-1" d="M50.63,19.36h-28a3,3,0,0,1-3-3V5.25A5.26,5.26,0,0,1,24.84,0H48.39a5.26,5.26,0,0,1,5.25,5.25v11.1A3,3,0,0,1,50.63,19.36Z"/><path class="cls-2" d="M71.79,169.74l-5.06-61.83h-.4a18.81,18.81,0,0,0,3.4-10.66v-44A16.46,16.46,0,0,0,70,50.53C70,41.16,62,33.08,50.61,29.36v-7.9H22.15v7.9C10.72,33.08,2.8,41.16,2.8,50.53A16.46,16.46,0,0,0,3,53.25v44a18.81,18.81,0,0,0,3.4,10.66H6.11L0,169.86H0c0,.12,0,.25,0,.38v8.82c0,6,6,10.94,13.42,10.94h45c7.39,0,13.43-4.92,13.43-10.94v-8.82A4,4,0,0,0,71.79,169.74Z"/><path class="cls-3" d="M18.18,68l-2.62-1.69,9.22-1,3.28,8.58L25.47,72.2c-2.53,4.11-4.85,8.91-3.38,13.49-4.27-3.63-6.67-6.41-6.67-9.78C15.42,73.49,17,70.21,18.18,68Zm6.93,9.6c-1.3,1.59-1.71,4.93-1.29,7a2,2,0,0,0,2,1.59h8.43V77.61Zm18.28,8.84v3.11l-5.75-7.27L43.39,75V78c4.82,0,9.9-.57,13-4.23-.82,5.54-1.93,9-4.79,10.82C49.55,85.9,45.89,86.29,43.39,86.45ZM48,75.5c2,.27,5.09-1.14,6.59-2.57a2,2,0,0,0,.31-2.5l-4.43-7.16-7.26,4.5Zm-1.6-19.74,2.75-1.47-3.58,8.56-9.09-1.31,2.7-1.47c-2.35-4.21-5.4-8.58-10.12-9.53a24.54,24.54,0,0,1,8.09-1.95C40.92,48.59,43.14,50.74,46.35,55.76ZM34.59,57.12c-.75-1.92-3.47-3.9-5.44-4.52a2,2,0,0,0-2.34.93L22.7,60.89l7.45,4.17Z"/></g></g></svg>