<svg xmlns="http://www.w3.org/2000/svg" xmlns:xlink="http://www.w3.org/1999/xlink" viewBox="0 0 236.92 175.05"><defs><style>.cls-1,.cls-10,.cls-19,.cls-4{fill:none;}.cls-2{fill:#4d66c1;stroke-width:0.04px;}.cls-10,.cls-11,.cls-2,.cls-3,.cls-5,.cls-6,.cls-9{stroke:#fff;}.cls-10,.cls-11,.cls-13,.cls-14,.cls-15,.cls-16,.cls-17,.cls-18,.cls-19,.cls-2,.cls-3,.cls-4,.cls-5,.cls-6,.cls-9{stroke-miterlimit:10;}.cls-3{fill:#27c1b2;}.cls-3,.cls-5,.cls-6{stroke-width:0.08px;}.cls-4{stroke:red;stroke-width:0.18px;}.cls-5{fill:#5ae2d1;}.cls-6{fill:#222e7d;}.cls-7{clip-path:url(#clip-path);}.cls-8{fill:#b3b3b3;}.cls-9{stroke-width:0.35px;}.cls-10{stroke-width:0.29px;}.cls-11{stroke-width:0.56px;}.cls-12,.cls-13,.cls-16{fill:#fff;}.cls-13,.cls-16{stroke:#ccc;}.cls-13{stroke-width:0.51px;}.cls-14,.cls-17{stroke:#666;}.cls-14{stroke-width:0.42px;}.cls-15,.cls-18,.cls-19{stroke:#000;}.cls-15{stroke-width:0.51px;}.cls-16{stroke-width:0.48px;}.cls-17{stroke-width:0.28px;}.cls-18,.cls-19{stroke-width:0.51px;}.cls-20{fill:#1a1a1a;}</style><clipPath id="clip-path" transform="translate(-2.23)"><path class="cls-1" d="M95,62.4c0,20.41-21.28,26-47.52,26S0,82.81,0,62.4C0,46.84,21.28,34.24,47.52,34.24S95,46.84,95,62.4Z"/></clipPath></defs><title>carbon-pollution</title><g id="Layer_2" data-name="Layer 2"><g id="Layer_2-2" data-name="Layer 2"><path class="cls-2" d="M124.7,54.51a1.44,1.44,0,0,0,.09.33,9.68,9.68,0,0,1,.7,5.37c-.24,3.23-.29,6.47-.6,9.69-.48,5-.51,10-.52,15a122.34,122.34,0,0,0,.5,14.7c.18,1.52.11,3.06.23,4.59.21,2.55.49,5.09.73,7.63s.4,4.88.68,7.31c.22,1.9.55,3.8.85,5.69a26.21,26.21,0,0,0,.71,4,12.32,12.32,0,0,1,.42,3.75,9.86,9.86,0,0,1-2.89,7.22.82.82,0,0,0,0,.8,10.47,10.47,0,0,1,2.11,3.66,7.86,7.86,0,0,0,1.57,2,12.35,12.35,0,0,1,2.29,4.58c.76,2.55.36,5.13.44,7.7a6,6,0,0,0,3,5.19,7,7,0,0,0,3.76.86c2.45.09,4.92-.23,7.33.29a5.55,5.55,0,0,1,3.75,2.41,1.24,1.24,0,0,0,1.2.61c3.82,0,7.63,0,11.44.05a5.7,5.7,0,0,1,5,2.39,6.31,6.31,0,0,1,.88,4,.64.64,0,0,1-.68.65H73.79c-.48,0-1,0-1.45,0s-.85-.16-.87-.69c-.07-2,.3-4,2.12-5.22a6.78,6.78,0,0,1,3.94-1.17q5.66,0,11.31,0a1.27,1.27,0,0,0,1.18-.67,5.13,5.13,0,0,1,4.14-2.39c2.68-.18,5.38-.22,8.06-.32a6.24,6.24,0,0,0,5.66-6.14c0-1.4,0-2.81,0-4.21a11.37,11.37,0,0,1,1.14-5.4,19.1,19.1,0,0,1,2.1-3.14,8.67,8.67,0,0,0,1.43-2.38,10,10,0,0,1,1.54-2.4c.47-.66.4-.67-.07-1.3a18.15,18.15,0,0,1-2-3.2,11.24,11.24,0,0,1-.51-6.76c.2-1.2.65-2.35.85-3.54q.57-3.39,1-6.8c.26-2.23.43-4.47.63-6.71.28-3.23.58-6.45.83-9.68.13-1.62.11-3.25.27-4.85.64-6.19.36-12.4.36-18.59,0-2.67-.3-5.33-.44-8-.09-1.68-.11-3.37-.23-5-.16-2.51-.42-5-.56-7.53a6.47,6.47,0,0,1,.62-3.51.93.93,0,0,0-.3-1.35,9.46,9.46,0,0,1-3.42-4.53,3.6,3.6,0,0,0-.75-1.13,3.28,3.28,0,0,1-.85-2.2V43.8c0-.52-.19-.75-.76-.83a80,80,0,0,0-13.58-.24c-2.28.07-4.56.46-6.84.75-1.73.23-3.45.5-5.17.81-1.3.24-2.58.59-3.87.89s-2.55.55-3.81.86c-1.52.38-3,.79-4.54,1.23-.79.23-1.54.57-2.32.82s-1.34.39-2,.54c-2,.42-4,.88-6,1.19-2.48.38-5,.63-7.47.92-.81.09-1.59,1.2-1.26,1.9.64,1.36,1.35,2.68,2,4,.49,1,.86,2.1,1.35,3.12.72,1.52,1.53,3,2.25,4.51s1.33,3.09,2,4.62c.89,1.94,1.81,3.87,2.72,5.8q2,4.19,3.92,8.36c.88,1.87,1.77,3.74,2.64,5.62l3.89,8.37,3.47,7.47c1,2.11,2,4.21,3,6.32,1.14,2.42,2.3,4.84,3.44,7.26,1,2.24,2.07,4.48,3.11,6.72,1.19,2.56,2.39,5.13,3.6,7.69.42.9.84,1.81,1.31,2.7a1,1,0,0,0,.64.45,3.79,3.79,0,0,1,3.13,4,3.87,3.87,0,0,1-1.63,3.26,4.08,4.08,0,0,1-2.47.73,3,3,0,0,0-1.73.45,53,53,0,0,1-8.67,4.14c-1.7.62-3.37,1.32-5.09,1.84-2.11.64-4.26,1.13-6.4,1.67-1.22.3-2.45.61-3.69.85s-2.53.45-3.81.62-2.65.3-4,.4c-1.81.13-3.63.28-5.44.28-3.61,0-7.23,0-10.83-.2-2.13-.11-4.24-.56-6.36-.85-.32,0-.66,0-1-.07-1.53-.31-3.06-.61-4.58-1-1.86-.44-3.72-.94-5.58-1.44-1.3-.35-2.6-.7-3.87-1.13-1.07-.37-2.1-.83-3.14-1.28-1.74-.75-3.49-1.48-5.21-2.3C9.92,145.18,9,144.54,8,144a4.44,4.44,0,0,0-1.09-.33A17.39,17.39,0,0,1,4.2,143a3.42,3.42,0,0,1-1.79-2.4,3.78,3.78,0,0,1,1.27-4.07,15.53,15.53,0,0,1,1.79-.86,1.68,1.68,0,0,0,.77-.63c1.52-3.19,3-6.4,4.49-9.61,1.24-2.68,2.46-5.37,3.72-8s2.53-5.32,3.79-8c.89-1.89,1.77-3.8,2.66-5.7,1-2.13,2-4.25,3-6.38S26,92.92,27,90.71l3.74-8,3.08-6.57c1.2-2.56,2.41-5.11,3.61-7.68s2.28-4.9,3.41-7.36c1.29-2.77,2.57-5.54,3.87-8.31.25-.52.12-.79-.3-1.15a5.83,5.83,0,0,1-.55-8.47,5.77,5.77,0,0,1,6.86-1.36,7,7,0,0,1,1.75,1.34,1.7,1.7,0,0,0,1.56.63c2-.34,3.92-.62,5.86-1a45.71,45.71,0,0,0,4.62-1.12c1.64-.51,3.22-1.19,4.83-1.79,1-.38,2.05-.75,3.08-1.11,2.18-.76,4.35-1.53,6.54-2.27.91-.31,1.84-.54,2.76-.8s2-.6,2.93-.84,2.26-.46,3.38-.71c1.43-.32,2.84-.7,4.27-1s2.85-.42,4.27-.63a66.15,66.15,0,0,1,11.76-.83c.21,0,.43,0,.65,0,.38,0,.54-.21.53-.59,0-.63,0-1.27,0-1.9a2.39,2.39,0,0,1,.54-1.84,12,12,0,0,0,1.56-2.79,9.41,9.41,0,0,1,4.17-4.22,4.65,4.65,0,0,0,1-.83,1,1,0,0,0-.21-1.51,6.93,6.93,0,0,1-2.2-2.37,5.81,5.81,0,0,1-.64-4.87,9.08,9.08,0,0,1,2.1-3.32,11.58,11.58,0,0,0,2.71-4.36A18.36,18.36,0,0,0,119,1.28c0-.11,0-.24.06-.32.27-.33.51-.84.84-.92.58-.13.86.45.9.91.25,3,2,5.1,3.9,7.23a5.83,5.83,0,0,1,1.4,6,6.5,6.5,0,0,1-2.58,3.58,1.34,1.34,0,0,0,.12,2.28c.46.3.93.59,1.4.87A9.55,9.55,0,0,1,128.87,26a2.45,2.45,0,0,0,.52.8A2.84,2.84,0,0,1,130.3,29c0,.59,0,1.18,0,1.78,0,.82.09.94.93.95,1.51,0,3-.06,4.53.05,2.33.17,4.65.42,7,.72,2,.26,4,.57,6,1,1.69.32,3.35.78,5,1.16,1,.24,2.08.4,3.1.68,1.26.34,2.5.74,3.73,1.14,1.87.61,3.73,1.21,5.58,1.86,1.32.47,2.6,1,3.91,1.5,1.53.56,3.07,1.13,4.62,1.63s2.9.89,4.38,1.25,3.15.7,4.74,1a10.82,10.82,0,0,0,2.41.16,1.68,1.68,0,0,0,1-.59A5.37,5.37,0,0,1,191,41.29a5.76,5.76,0,0,1,6.47,6.23,5.28,5.28,0,0,1-2.26,4.22.7.7,0,0,0-.2,1q1.35,2.73,2.66,5.48c1,2.16,2,4.34,3.06,6.51s2,4.22,3,6.34c.85,1.84,1.68,3.7,2.53,5.54,1.19,2.57,2.4,5.14,3.61,7.71,1,2.17,2.05,4.33,3.06,6.51s2,4.44,3,6.65c.86,1.83,1.76,3.64,2.64,5.47.76,1.57,1.52,3.13,2.25,4.71s1.45,3.23,2.19,4.83c1.18,2.55,2.38,5.1,3.57,7.64,1,2,1.87,4,2.83,6,1.14,2.43,2.32,4.84,3.47,7.26.25.53.41,1.1.7,1.61a1.33,1.33,0,0,0,.77.66,4.08,4.08,0,0,1,3.2,3.84,4.13,4.13,0,0,1-4.16,4.13,3.78,3.78,0,0,0-1.62.38c-1.54.77-3,1.67-4.56,2.42-1.33.65-2.71,1.2-4.1,1.73-1.65.65-3.31,1.27-5,1.82-1.45.47-2.94.83-4.42,1.23-1.19.32-2.39.67-3.6.92s-2.53.42-3.8.61c-1.79.26-3.57.58-5.37.74-2.31.21-4.63.38-6.95.39-3.39,0-6.79,0-10.18-.2-2.1-.12-4.19-.54-6.29-.82-.32-.05-.66,0-1-.1-1.48-.3-3-.6-4.45-.94-1.68-.37-3.36-.75-5-1.2-1.34-.36-2.67-.78-4-1.25-1.68-.6-3.33-1.28-5-1.92a38.88,38.88,0,0,1-6.62-3.29,3.4,3.4,0,0,0-1.85-.53,4,4,0,0,1-2.32-7.43c.43-.24.95-.3,1.39-.52a1.45,1.45,0,0,0,.6-.6c.64-1.27,1.23-2.56,1.84-3.84,1.29-2.74,2.6-5.48,3.88-8.23,1.09-2.33,2.13-4.68,3.23-7s2.24-4.63,3.33-7c.9-1.91,1.74-3.86,2.64-5.78,1.12-2.43,2.28-4.86,3.42-7.28s2.34-4.93,3.49-7.4c1.08-2.31,2.11-4.64,3.18-7,1.16-2.49,2.34-5,3.51-7.45s2.25-4.68,3.35-7c1.4-3,2.76-6,4.15-9,.58-1.24,1.21-2.46,1.8-3.7.25-.51.5-1,.7-1.54a1.52,1.52,0,0,0-1.48-2.17c-1.31-.08-2.61-.22-3.91-.41q-3.6-.54-7.18-1.19c-.74-.13-1.47-.37-2.21-.57-1-.29-2-.58-3-.89-1.16-.35-2.31-.78-3.49-1.09-2-.51-3.94-.94-5.91-1.41-1.17-.27-2.32-.59-3.49-.82s-2.53-.47-3.8-.63c-2.69-.35-5.37-.79-8.07-.92-3.63-.18-7.27-.13-10.91-.13a28.89,28.89,0,0,0-3.07.26c-.79.09-.93.28-.93,1.06a23.4,23.4,0,0,1,0,2.37,2.77,2.77,0,0,1-.48,1.58,10.65,10.65,0,0,0-1.72,3,9.58,9.58,0,0,1-3.1,3.41Zm-76.43-.15c-1,2-2,4-2.86,5.88s-1.84,4-2.76,6-1.74,3.7-2.6,5.56-1.75,3.9-2.66,5.84c-1.11,2.34-2.29,4.64-3.39,7-1.51,3.2-3,6.42-4.45,9.63-.69,1.48-1.44,2.93-2.14,4.41-1.45,3.1-2.88,6.22-4.32,9.33-.92,2-1.84,4-2.77,5.92-.6,1.31-1.2,2.62-1.81,3.93s-1.2,2.52-1.79,3.78-1.15,2.45-1.72,3.67l-2.29,4.92-1.23,2.58c-.34.71-.69,1.4-1,2.12-.21.48,0,.76.43.76l6.17,0H76c3.2,0,6.39.05,9.59.07.65,0,.86-.44.55-1.08-1.17-2.39-2.34-4.78-3.47-7.18s-2.21-4.8-3.33-7.19c-.85-1.8-1.75-3.56-2.59-5.36-1.12-2.39-2.19-4.8-3.3-7.19-1.25-2.66-2.53-5.31-3.78-8-1.07-2.29-2.09-4.6-3.16-6.9s-2.24-4.67-3.33-7c-.92-2-1.78-3.94-2.69-5.89-1.29-2.74-2.61-5.46-3.9-8.2C55.43,69.17,54.24,66.59,53,64Q51,59.6,48.89,55.18A5.88,5.88,0,0,0,48.27,54.36Zm143.26-.11a9,9,0,0,0-.61.91c-.34.68-.63,1.39-.95,2.07-1.28,2.72-2.57,5.44-3.84,8.16-.69,1.5-1.34,3-2,4.53-1.34,2.86-2.72,5.7-4.07,8.55-.37.77-.69,1.56-1.05,2.33l-3.31,7c-.95,2-1.87,4.08-2.83,6.12s-2,4.08-2.91,6.13c-.48,1-.89,2.08-1.37,3.11s-1.16,2.29-1.7,3.45-.91,2.08-1.39,3.11c-1.1,2.32-2.22,4.63-3.31,7-.92,2-1.81,3.92-2.73,5.88-1,2.15-2,4.3-3,6.45-.89,1.86-1.79,3.72-2.67,5.6a1.08,1.08,0,0,0-.08.83c.11.17.52.16.81.2a4.61,4.61,0,0,0,.52,0l17.88,0h45.95l9.93,0c.66,0,.79-.18.57-.8,0-.14-.13-.27-.19-.41-.84-1.75-1.68-3.5-2.5-5.26-1.1-2.37-2.18-4.75-3.29-7.12-.91-1.93-1.87-3.85-2.78-5.78-1.17-2.48-2.3-5-3.46-7.47q-2-4.35-4.09-8.69c-1-2.09-2-4.19-2.93-6.28l-3.85-8.25c-.82-1.77-1.62-3.56-2.45-5.33-.92-1.94-1.88-3.85-2.78-5.79-1.14-2.42-2.22-4.87-3.35-7.29-1.41-3.05-2.85-6.08-4.27-9.12Z" transform="translate(-2.23)"/><path class="cls-3" d="M85.15,81.7h-75l7.1,51.58h.1c1.18,6.43,15.5,11.48,29.52,11.48,14.29,0,28.78-5.24,29.58-11.84h0Z" transform="translate(-2.23)"/><ellipse class="cls-4" cx="45.41" cy="79.33" rx="37.51" ry="9.11"/><ellipse class="cls-5" cx="45.41" cy="79.97" rx="39.65" ry="10.94"/><ellipse class="cls-6" cx="44.96" cy="79.33" rx="37.06" ry="9.11"/><g class="cls-7"><ellipse class="cls-8" cx="59.6" cy="51.91" rx="4.81" ry="4.77"/><path class="cls-8" d="M76.33,71.55c3.27-1.53,5.33-3.77,5.33-6.26,0-4.62-7.08-8.37-15.82-8.37a27,27,0,0,0-8.25,1.23,10.19,10.19,0,0,0-9.39-5.61,10.29,10.29,0,0,0-9.11,5.07,19.25,19.25,0,0,0-5.15-.69c-7.16,0-13,3.75-13,8.37A6.07,6.07,0,0,0,22.4,69.1c-6,2.73-9.73,6.44-9.73,10.54,0,8.36,15.45,15.14,34.5,15.14S81.66,88,81.66,79.64C81.66,76.66,79.7,73.89,76.33,71.55Z" transform="translate(-2.23)"/><ellipse class="cls-8" cx="43.33" cy="42.62" rx="1.92" ry="1.87"/><ellipse class="cls-8" cx="29.03" cy="52.61" rx="4.01" ry="3.92"/><ellipse class="cls-8" cx="40.71" cy="49.95" rx="2.11" ry="1.63"/></g><path class="cls-9" d="M42.26,126.23,37,115.82a5.58,5.58,0,0,1-.28-4.42l3.42-9.51a5.6,5.6,0,0,1,5.27-3.7h6.51a5.59,5.59,0,0,1,5.26,3.68l3.29,9a5.57,5.57,0,0,1-.18,4.26l-5,10.87a5.59,5.59,0,0,1-5.08,3.25H47.26A5.61,5.61,0,0,1,42.26,126.23Z" transform="translate(-2.23)"/><rect class="cls-9" x="28.66" y="116.83" width="7.35" height="14.67" transform="translate(-57.24 30.18) rotate(-28.3)"/><polygon class="cls-9" points="36.49 124.11 37.35 123.64 34.12 117.64 33.26 118.11 32 115.76 31.13 116.22 37.56 128.15 38.42 127.68 36.49 124.11"/><path class="cls-9" d="M24.64,120.15a18.26,18.26,0,0,0,1.54,6c1.55,3.58,3.8,6.24,5.68,7Z" transform="translate(-2.23)"/><rect class="cls-9" x="61.19" y="116.8" width="7.35" height="14.67" transform="translate(73.89 263.74) rotate(-157.02)"/><polygon class="cls-9" points="56.26 124.67 55.36 124.29 58.02 118.01 58.92 118.39 59.97 115.94 60.87 116.32 55.58 128.79 54.68 128.41 56.26 124.67"/><path class="cls-9" d="M72.15,119.42a18.15,18.15,0,0,1-1,6.12c-1.21,3.71-3.21,6.57-5,7.46Z" transform="translate(-2.23)"/><circle class="cls-10" cx="46.44" cy="121.48" r="5.9"/><circle class="cls-10" cx="46.44" cy="121.48" r="3.98"/><circle class="cls-10" cx="46.44" cy="121.63" r="1.92"/><line class="cls-10" x1="46.49" y1="117.35" x2="46.49" y2="121.48"/><line class="cls-10" x1="49.88" y1="123.69" x2="46.64" y2="121.33"/><line class="cls-10" x1="43.39" y1="123.99" x2="46.34" y2="121.33"/><path class="cls-11" d="M46.66,105.56a8.07,8.07,0,0,1-7.37,8.26c-2.74.39-3.54-3.46-3.54-5.9a5.52,5.52,0,0,1,5.3-5C43.82,102.91,46.66,103.12,46.66,105.56Z" transform="translate(-2.23)"/><path class="cls-12" d="M45.18,106a5.89,5.89,0,0,1-5.38,6c-2,.28-2.58-2.52-2.58-4.31a4,4,0,0,1,3.87-3.65C43.11,104.09,45.18,104.24,45.18,106Z" transform="translate(-2.23)"/><path class="cls-11" d="M50.19,105.56a8.07,8.07,0,0,0,7.37,8.26c2.75.39,3.54-3.46,3.54-5.9a5.52,5.52,0,0,0-5.3-5C53,102.91,50.19,103.12,50.19,105.56Z" transform="translate(-2.23)"/><path class="cls-12" d="M51.67,106a5.89,5.89,0,0,0,5.38,6c2,.28,2.58-2.52,2.58-4.31a4,4,0,0,0-3.88-3.65C53.73,104.09,51.67,104.24,51.67,106Z" transform="translate(-2.23)"/><path class="cls-13" d="M182.93,66.51l32-3.78s23.93,6.91,23.93,40.89c0,16.67,1.43,32.44-13.74,32.87s-56.18.35-57.25-1.11,4.47-24.67,1-26.24C164.27,107,174,66.9,182.93,66.51Z" transform="translate(-2.23)"/><path class="cls-14" d="M220.25,57.46s11.08,5.85,13.19,16.59,2.35,28.47-4,33.35-28.31,13.46-29.36,13.95-1.59-8.78,1.05-10.73S216,97,215.5,92.1s-5.8-26.84-4.75-28.79S220.25,57.46,220.25,57.46Z" transform="translate(-2.23)"/><path class="cls-15" d="M188.85,40s-2.33-4.41-4.08-5.29-7,.88-6.43,3.52S182,43.58,182,43.58,187.69,40,188.85,40Z" transform="translate(-2.23)"/><path d="M171.18,106.35s6.9,12.85,6.9,18.22-1.1,9.1-4.79,10.57-14.78,2-14.78,2-1.58-12.69-1.58-14.64S169.06,106.84,171.18,106.35Z" transform="translate(-2.23)"/><path class="cls-14" d="M178,63.8c-4.75,1-11,9.79-13.73,13.66a44.26,44.26,0,0,0-7.2,18.13c-.53,3.42,9.43,23.81,10.48,25.76s6.29-7,6.29-8.59c0-4.29-3.72-9.08-4.19-12.88-.27-2.22-.43-3.44.87-5.29l19.61-27.86Z" transform="translate(-2.23)"/><path d="M212.07,73.8s-1.34-2.8-3.69-2.44c-4,.62-9,4.33-10.56,6.08A22.9,22.9,0,0,0,195.19,81s-1.95-4.75-3-5.82-2.84-1.49-5.07-1.08c-2.64.49-5.68,5-5.68,5L178.83,64l10.61,4a19.09,19.09,0,0,0,12.66.28L215.24,64Z" transform="translate(-2.23)"/><path class="cls-16" d="M222.12,59.42s-14,10.72-24.92,10.72a34.16,34.16,0,0,1-18.94-6.06c-.94-8.59,1.91-19.95,5.77-22.95,7.45-5.79,15.33-5.13,21.14-3.16C214.24,41,222.12,59.42,222.12,59.42Z" transform="translate(-2.23)"/><path d="M227.36,110.62c5.14-1.06,7.32,2,9.43,8.58,1.11,3.44,1.45,17.48-9,18.29-6.47.51-18.85.7-27.33.77a8,8,0,0,1-7.92-9h0a8.07,8.07,0,0,1,4.63-6.45C203.72,119.78,222.12,111.69,227.36,110.62Z" transform="translate(-2.23)"/><path class="cls-17" d="M192.77,122.35s5.28-2.93,7.92-.49,1.58,11.71,0,14.64-6.34,3.42-8.45,2.93S188,124.3,192.77,122.35Z" transform="translate(-2.23)"/><path class="cls-17" d="M151.11,118.94s14.21-1,18.47,2.92c2.64,2.44,3.16,3.91,3.16,6.84s-1.58,6.83-6.86,7.8-14.8,1.44-15.67.31C147.51,133.29,143.91,121.21,151.11,118.94Z" transform="translate(-2.23)"/><path class="cls-18" d="M203.74,39.1s6.42,5,7.56,4.17,2.28-1.73,2.42-3.19-2.06-5.28-3.61-6.73c-1.19-1.11-3.11-2.37-4.73-.46C204,34.57,203.74,39.1,203.74,39.1Z" transform="translate(-2.23)"/><path d="M187.49,56.09h4.22s1.58.49,1.58,1-2.63,2.43-3.16,2.92-3.7-1-3.7-2A3.35,3.35,0,0,1,187.49,56.09Z" transform="translate(-2.23)"/><path class="cls-19" d="M189.6,60c-.53,3.91,3.86,3.55,9.5,1.95" transform="translate(-2.23)"/><path class="cls-19" d="M189.6,61.46a2.38,2.38,0,0,1-3.69,1" transform="translate(-2.23)"/><path class="cls-20" d="M195.67,50c0-1,2.11-3.9,4.22-2.93s2.64,2.44,3.17,4.39,1.05,2.44,1.05,3.42-1.58,2.44-3.16,2.44a3.3,3.3,0,0,1-3.17-2.44C197.25,53.41,195.67,50.48,195.67,50Z" transform="translate(-2.23)"/><path class="cls-20" d="M189.1,49.9c.15-1-.84-4-2.43-3.28s-1.64,2.18-2.29,4.07S182.76,53,182.61,54a2.62,2.62,0,0,0,1.78,2.69c1.08.15,2-2.19,2.53-3.59S189,50.38,189.1,49.9Z" transform="translate(-2.23)"/><ellipse cx="186.7" cy="50.48" rx="1.48" ry="1.04" transform="translate(57.32 196.21) rotate(-64.02)"/><ellipse cx="198.04" cy="50.48" rx="1.31" ry="1.47" transform="translate(-7.13 74.67) rotate(-21.1)"/></g></g></svg>