<svg xmlns="http://www.w3.org/2000/svg" xmlns:xlink="http://www.w3.org/1999/xlink" viewBox="0 0 128.45 124.55"><defs><style>.cls-1{fill:#684389;}.cls-2{font-size:6.56px;}.cls-12,.cls-2,.cls-4{fill:#222e7d;}.cls-17,.cls-2{font-family:MyriadPro-Bold, MyriadPro Bold;font-weight:700;}.cls-3{letter-spacing:-0.08em;}.cls-5{fill:#9b83ba;}.cls-11,.cls-6{fill:#e6e6e6;}.cls-10,.cls-11,.cls-6,.cls-7,.cls-8,.cls-9{stroke:#b3b3b3;}.cls-10,.cls-11,.cls-12,.cls-13,.cls-6,.cls-7,.cls-8,.cls-9{stroke-miterlimit:10;}.cls-6,.cls-7,.cls-8{stroke-width:0.57px;}.cls-10,.cls-14,.cls-7,.cls-9{fill:#fff;}.cls-8{fill:#b3b3b3;}.cls-11,.cls-9{stroke-width:0.51px;}.cls-10{stroke-width:0.48px;}.cls-12{stroke:#fff;stroke-width:0.32px;}.cls-13,.cls-16{fill:#90f0f8;}.cls-13{stroke:#2e3192;stroke-width:0.47px;}.cls-15{fill:url(#linear-gradient);}.cls-17{font-size:5.63px;letter-spacing:-0.08em;}.cls-18{letter-spacing:0em;}</style><linearGradient id="linear-gradient" x1="64.93" y1="104.86" x2="64.93" y2="86.11" gradientUnits="userSpaceOnUse"><stop offset="0" stop-color="#243082"/><stop offset="0.16" stop-color="#393484"/><stop offset="0.48" stop-color="#6f3e89"/><stop offset="0.95" stop-color="#c54f90"/><stop offset="1" stop-color="#cf5191"/></linearGradient></defs><title>papers</title><g id="Layer_2" data-name="Layer 2"><g id="Layer_2-2" data-name="Layer 2"><polygon class="cls-1" points="123.53 64.78 5.86 64.78 30.7 36.15 101.5 35.95 123.53 64.78"/><text class="cls-2" transform="translate(55.76 80.84)"><tspan class="cls-3">P</tspan><tspan x="2.94" y="0">APER</tspan></text><polygon class="cls-4" points="92.82 64.78 39.38 64.78 30.47 36.18 101.73 36.18 92.82 64.78"/><polygon class="cls-5" points="128.45 67.59 0 67.59 28.6 34.77 103.37 34.54 128.45 67.59"/><path class="cls-6" d="M113,71.16c-44.57,21.82-64.08,20-102.06.31l15-8.6c28.56,13.51,47.73,12.57,77-.62Z"/><path class="cls-7" d="M115.74,66.25c-44.57,21.82-64.08,20-102.06.3l15-8.6c28.56,13.51,47.73,12.57,77-.62Z"/><path class="cls-8" d="M110.26,60.1c-44.56,21.82-64.08,20-102.06.31l15-8.61c28.56,13.51,47.73,12.57,77-.61Z"/><path class="cls-7" d="M117.11,53C72.54,74.85,53,73,15.05,53.34l15-8.61c28.56,13.52,47.73,12.58,77-.61Z"/><path class="cls-6" d="M111.63,47.5c-44.56,21.82-64.08,20-102.06.31l15-8.61c28.56,13.51,47.73,12.57,77-.61Z"/><path class="cls-9" d="M104.78,42.58c-36,21.82-51.78,20-82.47.31l12.15-8.6C57.54,47.8,73,46.86,96.69,33.67Z"/><path class="cls-10" d="M98.76,37.36c-31.83,21.82-45.77,20-72.88.31l10.73-8.61c20.4,13.51,34.09,12.57,55-.61Z"/><path class="cls-8" d="M113.8,43c-44.57,21.82-64.09,20-102.06.31l15-8.6c28.56,13.51,47.74,12.57,77-.62Z"/><path class="cls-6" d="M116.54,38.12c-44.57,21.82-64.09,20-102.06.3l15-8.6c28.56,13.51,47.74,12.57,77-.61Z"/><path class="cls-7" d="M111.06,32C66.49,53.79,47,52,9,32.28l15-8.61c28.56,13.52,47.74,12.58,77-.61Z"/><path class="cls-8" d="M117.91,24.9c-44.57,21.82-64.09,20-102.06.31l15-8.6c28.56,13.51,47.74,12.57,77-.62Z"/><path class="cls-7" d="M112.43,19.37c-44.57,21.82-64.09,20-102.06.31l15-8.61c28.56,13.52,47.74,12.58,77-.61Z"/><path class="cls-11" d="M105.58,14.45c-36,21.82-51.79,20-82.47.31l12.14-8.6c23.09,13.51,38.58,12.57,62.23-.62Z"/><path class="cls-10" d="M99.55,9.23c-31.83,21.82-45.76,20-72.88.31L37.4.93c20.4,13.51,34.09,12.57,55-.61Z"/><polygon class="cls-12" points="112.98 121.74 16.88 121.74 5.16 71.34 124.7 71.34 112.98 121.74"/><rect class="cls-13" x="96.57" y="119.16" width="4.69" height="5.16"/><rect class="cls-13" x="28.6" y="118.22" width="4.69" height="5.16"/><path class="cls-14" d="M49.69,71.81H80.17a0,0,0,0,1,0,0v24a13.32,13.32,0,0,1-13.32,13.32H63A13.32,13.32,0,0,1,49.69,95.76v-24a0,0,0,0,1,0,0Z"/><path class="cls-15" d="M56.82,95l-1.2-.77,4.21-.49,1.51,3.93-1.19-.75C59,98.8,57.93,101,58.61,103.09c-2-1.66-3.06-2.93-3.06-4.47A9.14,9.14,0,0,1,56.82,95ZM60,99.39a4.4,4.4,0,0,0-.59,3.18.91.91,0,0,0,.89.73h3.86V99.39Zm8.36,4v1.42l-2.63-3.33,2.63-3.34v1.4c2.21,0,4.53-.26,6-1.94-.38,2.54-.89,4.14-2.2,4.95A9.24,9.24,0,0,1,68.35,103.44Zm2.09-5a4.46,4.46,0,0,0,3-1.18.9.9,0,0,0,.15-1.14l-2-3.28-3.32,2.06Zm-.73-9L71,88.72l-1.63,3.92L65.17,92l1.23-.67c-1.07-1.93-2.47-3.93-4.63-4.36a11.15,11.15,0,0,1,3.7-.9C67.22,86.11,68.24,87.1,69.71,89.39ZM64.32,90A4.41,4.41,0,0,0,61.83,88a.91.91,0,0,0-1.07.43l-1.88,3.36,3.41,1.91Z"/><polygon class="cls-16" points="127.52 71.34 0.94 71.34 0 67.59 128.45 67.59 127.52 71.34"/><text class="cls-17" transform="translate(56.82 80.66)">P<tspan class="cls-18" x="2.52" y="0">APER</tspan></text></g></g></svg>