<svg xmlns="http://www.w3.org/2000/svg" xmlns:xlink="http://www.w3.org/1999/xlink" viewBox="0 0 54.53 160.4"><defs><style>.cls-1,.cls-2{stroke:#fff;stroke-miterlimit:10;}.cls-1{stroke-width:0.86px;fill:url(#linear-gradient);}.cls-2{stroke-width:0.93px;fill:url(#linear-gradient-2);}</style><linearGradient id="linear-gradient" x1="27.26" y1="29.59" x2="27.26" y2="0.43" gradientUnits="userSpaceOnUse"><stop offset="0" stop-color="#243082"/><stop offset="0.16" stop-color="#393484"/><stop offset="0.48" stop-color="#6f3e89"/><stop offset="0.95" stop-color="#c54f90"/><stop offset="1" stop-color="#cf5191"/></linearGradient><linearGradient id="linear-gradient-2" x1="27.26" y1="159.93" x2="27.26" y2="35.44" xlink:href="#linear-gradient"/></defs><title>person</title><g id="Layer_2" data-name="Layer 2"><g id="Layer_2-2" data-name="Layer 2"><circle class="cls-1" cx="27.26" cy="15.01" r="14.58"/><path class="cls-2" d="M42.56,35.44H12A11.54,11.54,0,0,0,.46,47V87.88a15.92,15.92,0,0,0,12.11,15.39v47.15a9.54,9.54,0,0,0,9.51,9.51H32.45A9.54,9.54,0,0,0,42,150.42V103.27a15.92,15.92,0,0,0,12.1-15.39V47A11.54,11.54,0,0,0,42.56,35.44Z"/></g></g></svg>