<svg xmlns="http://www.w3.org/2000/svg" xmlns:xlink="http://www.w3.org/1999/xlink" viewBox="0 0 181.83 187.17"><defs><style>.cls-1{fill:#3d2051;}.cls-11,.cls-2,.cls-3,.cls-9{stroke:#fff;}.cls-11,.cls-2,.cls-3,.cls-7,.cls-9{stroke-miterlimit:10;}.cls-11,.cls-2,.cls-7,.cls-9{stroke-width:0.43px;}.cls-2{fill:url(#linear-gradient);}.cls-3,.cls-5{fill:#4d66c1;}.cls-3{stroke-width:0.03px;}.cls-4{fill:#92cce0;}.cls-6,.cls-7{fill:#fff;}.cls-7{stroke:#000;}.cls-8{fill:url(#linear-gradient-2);}.cls-9{fill:url(#linear-gradient-3);}.cls-10{fill:url(#linear-gradient-4);}.cls-11{fill:url(#linear-gradient-5);}.cls-12{fill:url(#linear-gradient-6);}</style><linearGradient id="linear-gradient" x1="85.25" y1="0.21" x2="85.25" y2="42.19" gradientUnits="userSpaceOnUse"><stop offset="0" stop-color="#243082"/><stop offset="0.16" stop-color="#393484"/><stop offset="0.48" stop-color="#6f3e89"/><stop offset="0.95" stop-color="#c54f90"/><stop offset="1" stop-color="#cf5191"/></linearGradient><linearGradient id="linear-gradient-2" x1="85.46" y1="6.42" x2="85.46" y2="41.12" gradientUnits="userSpaceOnUse"><stop offset="0" stop-color="#67deff"/><stop offset="0.19" stop-color="#5ec9ef"/><stop offset="0.57" stop-color="#4893c5"/><stop offset="1" stop-color="#2d5191"/></linearGradient><linearGradient id="linear-gradient-3" x1="104.98" y1="64.54" x2="104.98" y2="106.52" xlink:href="#linear-gradient"/><linearGradient id="linear-gradient-4" x1="105.2" y1="70.75" x2="105.2" y2="105.45" xlink:href="#linear-gradient-2"/><linearGradient id="linear-gradient-5" x1="131.5" y1="128.87" x2="131.5" y2="170.84" xlink:href="#linear-gradient"/><linearGradient id="linear-gradient-6" x1="131.71" y1="146.61" x2="131.71" y2="168.77" xlink:href="#linear-gradient-2"/></defs><title>trucks</title><g id="Layer_2" data-name="Layer 2"><g id="Layer_2-2" data-name="Layer 2"><polygon class="cls-1" points="30.86 47.76 39.42 48.19 41.99 44.76 43.28 46.47 63.84 46.47 65.55 44.33 71.55 44.76 73.26 46.9 110.52 43.9 107.09 34.48 38.99 33.19 32.57 27.2 24 33.19 30.86 47.76"/><rect class="cls-2" x="35.14" y="0.21" width="100.23" height="41.97"/><path class="cls-3" d="M11.58,45A16.7,16.7,0,0,1,27,34.4a16.25,16.25,0,0,1,6.83,1.5c-.08-4.93-.41-24.31-.41-26.62,0-2.64-1.71-2.2-3.42-2.64s-15.85.88-19.7.88S0,29.55,0,29.55L1.3,41.45,3.87,41v4Z"/><path class="cls-4" d="M6.87,26.34V21.2s2.57-9,6-11.13c1.3-.82,16.7-.86,16.7-.86V20.34S21.43,25.48,6.87,26.34Z"/><circle class="cls-5" cx="24" cy="48.19" r="9.88"/><path class="cls-6" d="M24,38.76a9.43,9.43,0,1,1-9.42,9.43A9.42,9.42,0,0,1,24,38.76m0-.91A10.34,10.34,0,1,0,34.33,48.19,10.35,10.35,0,0,0,24,37.85Z"/><circle class="cls-7" cx="24" cy="48.19" r="4.71"/><circle class="cls-5" cx="104.52" cy="48.19" r="9.88"/><path class="cls-6" d="M104.52,38.76a9.43,9.43,0,1,1-9.42,9.43,9.43,9.43,0,0,1,9.42-9.43m0-.91a10.34,10.34,0,1,0,10.34,10.34,10.35,10.35,0,0,0-10.34-10.34Z"/><circle class="cls-7" cx="104.52" cy="48.19" r="4.71"/><path class="cls-6" d="M133.55,1.93H37V40.48H96.52a10.38,10.38,0,0,1,15.79,0h21.24Z"/><path class="cls-7" d="M26.14,29.34h5.14V28a.8.8,0,0,0-.8-.81H27.9a1.53,1.53,0,0,0-.86.26l-.56.37a.77.77,0,0,0-.34.63Z"/><path class="cls-8" d="M122.22,8.39a10.17,10.17,0,0,0-1.21-.2,10.29,10.29,0,0,0-1.12-.43q-.57-.18-1.14-.33a23.22,23.22,0,0,0-11.08-.07,12.27,12.27,0,0,1-6.11-.11,23.3,23.3,0,0,0-6.15-.83,22.7,22.7,0,0,0-5.47.66,13.67,13.67,0,0,1-6.36,0,23.06,23.06,0,0,0-13.11.64,10.78,10.78,0,0,1-1.55.42H65.08a9.58,9.58,0,0,1-1.28-.32,22.31,22.31,0,0,0-7.29-1.09c-.44,0-.88,0-1.31,0s-.86.08-1.28.13C48.31,8.35,43,9.21,37.29,8.35a49.65,49.65,0,0,1-.22,5.81v27H96a10.38,10.38,0,0,1,16.8,0h20.82V13.89a39.48,39.48,0,0,0,.22-5.11C129.9,9.21,125.93,10.07,122.22,8.39Z"/><polygon class="cls-1" points="50.59 112.08 59.15 112.51 61.72 109.09 63.01 110.8 83.57 110.8 85.28 108.66 91.28 109.09 92.99 111.23 130.25 108.23 126.83 98.81 58.73 97.52 52.3 91.53 43.73 97.52 50.59 112.08"/><rect class="cls-9" x="54.87" y="64.54" width="100.23" height="41.97"/><path class="cls-3" d="M31.31,109.3A16.7,16.7,0,0,1,46.73,98.73a16.33,16.33,0,0,1,6.84,1.5c-.09-4.93-.41-24.31-.41-26.62,0-2.64-1.72-2.2-3.43-2.64s-15.85.88-19.7.88-10.28,22-10.28,22L21,105.78l2.57-.44v4Z"/><path class="cls-4" d="M26.6,90.67V85.53s2.57-9,6-11.14c1.31-.82,16.7-.85,16.7-.85V84.67S41.16,89.81,26.6,90.67Z"/><circle class="cls-5" cx="43.73" cy="112.51" r="9.88"/><path class="cls-6" d="M43.73,103.09a9.43,9.43,0,1,1-9.42,9.42,9.43,9.43,0,0,1,9.42-9.42m0-.91a10.34,10.34,0,1,0,10.34,10.33,10.35,10.35,0,0,0-10.34-10.33Z"/><circle class="cls-7" cx="43.73" cy="112.51" r="4.71"/><circle class="cls-5" cx="124.26" cy="112.51" r="9.88"/><path class="cls-6" d="M124.26,103.09a9.43,9.43,0,1,1-9.43,9.42,9.42,9.42,0,0,1,9.43-9.42m0-.91a10.34,10.34,0,1,0,10.33,10.33,10.35,10.35,0,0,0-10.33-10.33Z"/><circle class="cls-7" cx="124.26" cy="112.51" r="4.71"/><path class="cls-6" d="M153.28,66.26H56.69V104.8h59.57a10.37,10.37,0,0,1,15.78,0h21.24Z"/><path class="cls-7" d="M45.88,93.67H51V92.33a.8.8,0,0,0-.8-.8H47.63a1.53,1.53,0,0,0-.86.26l-.56.37a.76.76,0,0,0-.33.63Z"/><path class="cls-10" d="M142,72.72c-.4-.09-.81-.16-1.21-.21a11.65,11.65,0,0,0-1.12-.42q-.56-.18-1.14-.33a23.19,23.19,0,0,0-11.07-.07,12.31,12.31,0,0,1-6.12-.11,23.1,23.1,0,0,0-11.62-.17,13.67,13.67,0,0,1-6.36,0,23.06,23.06,0,0,0-13.11.64,10.44,10.44,0,0,1-1.55.42H84.81c-.43-.09-.86-.19-1.28-.32a22.26,22.26,0,0,0-7.29-1.09c-.44,0-.88,0-1.31,0s-.86.08-1.28.13C68,72.68,62.75,73.54,57,72.68a49.73,49.73,0,0,1-.22,5.81v27h59a10.37,10.37,0,0,1,16.8,0h20.83V78.22a39.56,39.56,0,0,0,.22-5.11C149.63,73.54,145.66,74.39,142,72.72Z"/><polygon class="cls-1" points="77.1 176.41 85.67 176.84 88.24 173.41 89.52 175.13 110.08 175.13 111.8 172.99 117.79 173.41 119.51 175.56 156.77 172.56 153.34 163.13 85.24 161.85 78.82 155.85 70.25 161.85 77.1 176.41"/><rect class="cls-11" x="81.39" y="128.87" width="100.23" height="41.97"/><path class="cls-3" d="M57.83,173.63a16.7,16.7,0,0,1,15.42-10.58,16.29,16.29,0,0,1,6.83,1.51c-.08-4.93-.41-24.31-.41-26.62,0-2.64-1.71-2.2-3.42-2.64s-15.85.88-19.71.88-10.28,22-10.28,22l1.29,11.89,2.57-.44v4Z"/><path class="cls-4" d="M53.12,155v-5.14s2.57-9,6-11.14c1.31-.82,16.71-.86,16.71-.86V149S67.68,154.14,53.12,155Z"/><path class="cls-5" d="M70.25,186.72a9.88,9.88,0,1,1,9.88-9.88A9.89,9.89,0,0,1,70.25,186.72Z"/><path class="cls-6" d="M70.25,167.42a9.42,9.42,0,1,1-9.42,9.42,9.42,9.42,0,0,1,9.42-9.42m0-.91a10.33,10.33,0,1,0,10.33,10.33,10.34,10.34,0,0,0-10.33-10.33Z"/><circle class="cls-7" cx="70.25" cy="176.84" r="4.71"/><circle class="cls-5" cx="150.77" cy="176.84" r="9.88"/><path class="cls-6" d="M150.77,167.42a9.42,9.42,0,1,1-9.42,9.42,9.43,9.43,0,0,1,9.42-9.42m0-.91a10.33,10.33,0,1,0,10.34,10.33,10.34,10.34,0,0,0-10.34-10.33Z"/><circle class="cls-7" cx="150.77" cy="176.84" r="4.71"/><path class="cls-6" d="M179.79,130.58H83.2v38.55h59.57a10.38,10.38,0,0,1,15.79,0h21.23Z"/><path class="cls-7" d="M72.39,158h5.14v-1.34a.81.81,0,0,0-.81-.81H74.15a1.58,1.58,0,0,0-.87.26l-.55.37a.78.78,0,0,0-.34.64Z"/><path class="cls-12" d="M168.47,147.86c-.41-.05-.81-.1-1.21-.13s-.75-.19-1.12-.27-.76-.15-1.14-.21a35.37,35.37,0,0,0-4.82-.44,36.3,36.3,0,0,0-6.26.39,19,19,0,0,1-6.12-.06,34.49,34.49,0,0,0-6.14-.53,35.84,35.84,0,0,0-5.48.41,20.55,20.55,0,0,1-6.36,0,35.61,35.61,0,0,0-5.47-.41,34.27,34.27,0,0,0-7.64.83,15.46,15.46,0,0,1-1.54.26h-3.84c-.44,0-.87-.11-1.29-.2a34.5,34.5,0,0,0-7.29-.7l-1.3,0c-.43,0-.86,0-1.29.08a63,63,0,0,1-16.63.92,21.3,21.3,0,0,1-.21,3.71c0,.19,0,.38,0,.58v16.64h58.95a14.37,14.37,0,0,1,8.76-3.51c3.45,0,6.16,1.86,8,3.51h20.82V151.38a16.25,16.25,0,0,0,.22-3.27C176.14,148.39,172.17,148.93,168.47,147.86Z"/></g></g></svg>