<svg xmlns="http://www.w3.org/2000/svg" xmlns:xlink="http://www.w3.org/1999/xlink" viewBox="0 0 261.69 135.96"><defs><style>.cls-1{stroke:#fff;stroke-miterlimit:10;fill:url(#linear-gradient);}</style><linearGradient id="linear-gradient" x1="158.02" y1="64.87" x2="76.29" y2="146.6" gradientUnits="userSpaceOnUse"><stop offset="0" stop-color="#87e9cd"/><stop offset="0.65" stop-color="#9079c2"/><stop offset="1" stop-color="#9540bd"/></linearGradient></defs><title>battery-half</title><g id="Layer_2" data-name="Layer 2"><g id="Layer_2-2" data-name="Layer 2"><path d="M6.31.72a6.64,6.64,0,0,1,2.58.46,6.84,6.84,0,0,1,1.9,1.11A5,5,0,0,1,12,3.71a3.23,3.23,0,0,1,.43,1.35.44.44,0,0,1-.15.38.55.55,0,0,1-.38.15h-1a.82.82,0,0,1-.42-.09,1,1,0,0,1-.33-.44,4.8,4.8,0,0,0-.39-.61A3.7,3.7,0,0,0,9,3.73a4.68,4.68,0,0,0-1.14-.6,4.4,4.4,0,0,0-1.56-.25A4.88,4.88,0,0,0,5,3a3.69,3.69,0,0,0-1.09.46,2.49,2.49,0,0,0-.77.78,2.1,2.1,0,0,0-.29,1.1,1.87,1.87,0,0,0,.28,1A2.44,2.44,0,0,0,4,7.21a8,8,0,0,0,1.55.64C6.22,8,7,8.26,7.87,8.5a14.49,14.49,0,0,1,2.32.79,6.15,6.15,0,0,1,1.55,1,3.22,3.22,0,0,1,.87,1.25,4.51,4.51,0,0,1-.19,3.57,4.62,4.62,0,0,1-1.31,1.55,6.23,6.23,0,0,1-2,1A9.08,9.08,0,0,1,6.43,18a7.87,7.87,0,0,1-2.57-.41,7.07,7.07,0,0,1-2-1.05A5.59,5.59,0,0,1,.52,15.1,3.18,3.18,0,0,1,0,13.54a.51.51,0,0,1,.16-.38A.5.5,0,0,1,.53,13h1a.93.93,0,0,1,.42.09.9.9,0,0,1,.33.44,3.53,3.53,0,0,0,.44.73,3.6,3.6,0,0,0,.8.74,5,5,0,0,0,1.23.59,5.41,5.41,0,0,0,1.7.24A6.43,6.43,0,0,0,8,15.65a4.7,4.7,0,0,0,1.33-.55,2.92,2.92,0,0,0,.91-.87,1.93,1.93,0,0,0,.34-1.13A1.54,1.54,0,0,0,10.22,12a3.38,3.38,0,0,0-1.1-.81,10.56,10.56,0,0,0-1.76-.66q-1-.3-2.37-.63a9.39,9.39,0,0,1-2-.76,5.32,5.32,0,0,1-1.37-1A3.45,3.45,0,0,1,.83,6.89,4.92,4.92,0,0,1,.6,5.38,4.34,4.34,0,0,1,2,2.16a5.28,5.28,0,0,1,1.77-1A7.11,7.11,0,0,1,6.31.72Z"/><path d="M14.83,14.62a3.47,3.47,0,0,1,.39-1.68,3.63,3.63,0,0,1,1-1.23,5.67,5.67,0,0,1,1.57-.81,11.35,11.35,0,0,1,1.91-.48l3.39-.56V9.55a2.14,2.14,0,0,0-.81-1.83,3.18,3.18,0,0,0-2-.62,2.72,2.72,0,0,0-1.6.39,3.79,3.79,0,0,0-.92.91.73.73,0,0,1-.31.26,1.19,1.19,0,0,1-.46.08h-.72a.67.67,0,0,1-.47-.2.55.55,0,0,1-.18-.45A2.29,2.29,0,0,1,16.09,7a3.81,3.81,0,0,1,1-1,6,6,0,0,1,1.46-.7A5.43,5.43,0,0,1,20.33,5a6.12,6.12,0,0,1,2,.31,4.44,4.44,0,0,1,1.59.91,4.19,4.19,0,0,1,1,1.49,5.19,5.19,0,0,1,.37,2v7.32a.65.65,0,0,1-.65.65h-.89a.61.61,0,0,1-.45-.19.62.62,0,0,1-.19-.46v-1a2.23,2.23,0,0,1-.68.8,4.54,4.54,0,0,1-1,.59,6.34,6.34,0,0,1-1.22.36A6.48,6.48,0,0,1,19,18a5.49,5.49,0,0,1-1.72-.26A4.36,4.36,0,0,1,16,17,3.12,3.12,0,0,1,15.13,16,3.06,3.06,0,0,1,14.83,14.62Zm4.42,1.32a4.48,4.48,0,0,0,1.58-.27,3.73,3.73,0,0,0,1.24-.73,3.08,3.08,0,0,0,.79-1.12,3.7,3.7,0,0,0,.28-1.44v-.6l-2.84.46a7,7,0,0,0-2.4.77A1.56,1.56,0,0,0,17,14.38a1.23,1.23,0,0,0,.12.52,1.48,1.48,0,0,0,.38.51,1.86,1.86,0,0,0,.68.38A3.15,3.15,0,0,0,19.25,15.94Z"/><path d="M33,17.76a.59.59,0,0,1-.48-.19,1.45,1.45,0,0,1-.27-.41L27.46,6a.38.38,0,0,1,0-.16A.58.58,0,0,1,28,5.28h.89a.7.7,0,0,1,.54.19,1.22,1.22,0,0,1,.25.39l3.72,8.71,3.72-8.71a1.37,1.37,0,0,1,.24-.39.55.55,0,0,1,.45-.19h1a.58.58,0,0,1,.41.17.56.56,0,0,1,.16.41.39.39,0,0,1,0,.16L34.58,17.16a1.61,1.61,0,0,1-.25.41.56.56,0,0,1-.47.19Z"/><path d="M40.87,10.32a6.38,6.38,0,0,1,.53-2.06,5.77,5.77,0,0,1,1.13-1.68A4.88,4.88,0,0,1,44.2,5.45,5.56,5.56,0,0,1,46.37,5a6,6,0,0,1,2.31.42,4.75,4.75,0,0,1,1.74,1.21,5.51,5.51,0,0,1,1.11,1.92,7.94,7.94,0,0,1,.38,2.52v.65a.62.62,0,0,1-.19.46.66.66,0,0,1-.46.19H43v.14a3.21,3.21,0,0,0,3.36,3.39,4.1,4.1,0,0,0,2-.38,4.2,4.2,0,0,0,1.07-.82,1.4,1.4,0,0,1,.33-.27,1,1,0,0,1,.43-.07h.72a.68.68,0,0,1,.48.19.47.47,0,0,1,.17.46,2.53,2.53,0,0,1-.41.95,3.54,3.54,0,0,1-1,1,6,6,0,0,1-1.58.74,7.36,7.36,0,0,1-2.22.3,5.34,5.34,0,0,1-2.16-.42,5.14,5.14,0,0,1-1.67-1.15A5.91,5.91,0,0,1,41.4,14.7a6.91,6.91,0,0,1-.53-2.17A10.21,10.21,0,0,1,40.87,10.32Zm2.14.07h6.74v-.07A3.08,3.08,0,0,0,48.83,8a3.46,3.46,0,0,0-2.46-.88,3.66,3.66,0,0,0-1.3.23A3.15,3.15,0,0,0,44,8a2.86,2.86,0,0,0-.72,1A3.36,3.36,0,0,0,43,10.32Z"/><path d="M62.16,13.39a3,3,0,0,0,1.37,1.79,4.5,4.5,0,0,0,2.44.66,4.79,4.79,0,0,0,1.49-.22A3.42,3.42,0,0,0,68.67,15a3,3,0,0,0,.82-1.1,3.62,3.62,0,0,0,.3-1.52,3.62,3.62,0,0,0-.3-1.52,3,3,0,0,0-.82-1.1,3.42,3.42,0,0,0-1.21-.64A4.79,4.79,0,0,0,66,8.88a4.39,4.39,0,0,0-1.45.2,4.61,4.61,0,0,0-.89.44L63,10a1.05,1.05,0,0,1-.63.2H61.15a.51.51,0,0,1-.37-.15.51.51,0,0,1-.16-.38l.72-8a.63.63,0,0,1,.2-.46A.58.58,0,0,1,62,1h8.47a.62.62,0,0,1,.46.19.62.62,0,0,1,.19.46v.86a.65.65,0,0,1-.65.65h-7l-.39,4.15a6.64,6.64,0,0,1,1.12-.37A7.27,7.27,0,0,1,66,6.72a7.4,7.4,0,0,1,2.37.38,5.74,5.74,0,0,1,1.94,1.12A5.31,5.31,0,0,1,71.59,10a5.56,5.56,0,0,1,.48,2.36,5.56,5.56,0,0,1-.48,2.36,5.31,5.31,0,0,1-1.31,1.78,5.74,5.74,0,0,1-1.94,1.12A7.4,7.4,0,0,1,66,18a7.56,7.56,0,0,1-2.29-.34,6.61,6.61,0,0,1-1.92-.94,5,5,0,0,1-1.33-1.47,3.78,3.78,0,0,1-.53-1.86.55.55,0,0,1,.53-.53h1.11a.63.63,0,0,1,.37.14A.68.68,0,0,1,62.16,13.39Z"/><path d="M86.85,7.34c0,.72,0,1.4,0,2s0,1.31,0,2a9,9,0,0,1-.39,2.6,5.88,5.88,0,0,1-1.12,2.1,5,5,0,0,1-1.88,1.4,7.68,7.68,0,0,1-5.45,0,5,5,0,0,1-1.88-1.4A5.88,5.88,0,0,1,75,14a9,9,0,0,1-.39-2.6c0-.72,0-1.4,0-2s0-1.31,0-2A9.13,9.13,0,0,1,75,4.74a5.88,5.88,0,0,1,1.12-2.1A5.13,5.13,0,0,1,78,1.24a7.4,7.4,0,0,1,5.45,0,5.13,5.13,0,0,1,1.88,1.4,5.88,5.88,0,0,1,1.12,2.1A9.13,9.13,0,0,1,86.85,7.34Zm-10,4.06a5.06,5.06,0,0,0,1,3.36,4.29,4.29,0,0,0,5.69,0,5.06,5.06,0,0,0,1-3.36c0-.72,0-1.4,0-2s0-1.31,0-2a5.11,5.11,0,0,0-1-3.37,4.26,4.26,0,0,0-5.69,0,5.11,5.11,0,0,0-1,3.37c0,.72,0,1.4,0,2S76.85,10.68,76.87,11.4Z"/><path d="M92.93.84a3.33,3.33,0,0,1,2.57,1,3.74,3.74,0,0,1,.93,2.39q0,.33,0,.57v.89c0,.14,0,.32,0,.53a3.66,3.66,0,0,1-.93,2.37,4,4,0,0,1-5.14,0,3.62,3.62,0,0,1-.94-2.37c0-.21,0-.39,0-.53s0-.29,0-.43,0-.3,0-.46,0-.35,0-.57a3.69,3.69,0,0,1,.94-2.39A3.3,3.3,0,0,1,92.93.84Zm9.69.58a1.39,1.39,0,0,1,.35-.34.93.93,0,0,1,.52-.12h.91a.64.64,0,0,1,.42.13.45.45,0,0,1,.15.35.3.3,0,0,1,0,.12.61.61,0,0,1-.07.14L93,17.3a1.39,1.39,0,0,1-.35.34.92.92,0,0,1-.51.12h-.91a.6.6,0,0,1-.42-.13.43.43,0,0,1-.16-.35.74.74,0,0,1,0-.12.39.39,0,0,1,.08-.14Zm-8,2.83a2.12,2.12,0,0,0-.43-1.18,1.45,1.45,0,0,0-1.22-.5,1.47,1.47,0,0,0-1.23.5,2.2,2.2,0,0,0-.43,1.18c0,.21,0,.38,0,.51s0,.27,0,.39,0,.25,0,.39,0,.33,0,.56a2.13,2.13,0,0,0,.43,1.16,1.47,1.47,0,0,0,1.23.49,1.45,1.45,0,0,0,1.22-.49,2.06,2.06,0,0,0,.43-1.16c0-.23,0-.41,0-.56V4.76Q94.61,4.56,94.58,4.25Zm8.31,5a3.33,3.33,0,0,1,2.57.95,3.74,3.74,0,0,1,.93,2.39q0,.33,0,.57V14c0,.14,0,.32,0,.53a3.66,3.66,0,0,1-.93,2.37,4,4,0,0,1-5.14,0,3.62,3.62,0,0,1-.94-2.37c0-.21,0-.39,0-.53s0-.29,0-.43,0-.3,0-.46,0-.35,0-.57a3.69,3.69,0,0,1,.94-2.39A3.3,3.3,0,0,1,102.89,9.24Zm1.65,3.41a2.12,2.12,0,0,0-.43-1.18,1.45,1.45,0,0,0-1.22-.5,1.47,1.47,0,0,0-1.23.5,2.2,2.2,0,0,0-.43,1.18c0,.21,0,.38,0,.51s0,.27,0,.39,0,.25,0,.39,0,.33,0,.56a2.13,2.13,0,0,0,.43,1.16,1.47,1.47,0,0,0,1.23.49,1.45,1.45,0,0,0,1.22-.49,2.06,2.06,0,0,0,.43-1.16c0-.23,0-.41,0-.56v-.78Q104.57,13,104.54,12.65Z"/><path d="M120.24,5a6.13,6.13,0,0,1,2.3.4,5,5,0,0,1,2.87,2.78,7.19,7.19,0,0,1,.52,2.17c0,.15,0,.32,0,.52v1.25c0,.2,0,.36,0,.49a7.66,7.66,0,0,1-.53,2.18,4.83,4.83,0,0,1-1.13,1.68,5,5,0,0,1-1.73,1.09,6.84,6.84,0,0,1-4.61,0,5,5,0,0,1-2.86-2.77,6.77,6.77,0,0,1-.52-2.18c0-.13,0-.29,0-.49s0-.41,0-.63,0-.42,0-.62,0-.37,0-.52a6.9,6.9,0,0,1,.52-2.17,5,5,0,0,1,2.86-2.78A6.18,6.18,0,0,1,120.24,5Zm3.5,7.49a9.23,9.23,0,0,0,.05-1,9.93,9.93,0,0,0-.05-1,5.15,5.15,0,0,0-.31-1.34,3.13,3.13,0,0,0-.67-1.08,2.93,2.93,0,0,0-1.06-.72,3.62,3.62,0,0,0-1.46-.27,3.71,3.71,0,0,0-1.47.27,3,3,0,0,0-1,.72,3.13,3.13,0,0,0-.67,1.08,5.15,5.15,0,0,0-.32,1.34,10.2,10.2,0,0,0,0,1,9.53,9.53,0,0,0,0,1,5.15,5.15,0,0,0,.32,1.34,3.13,3.13,0,0,0,.67,1.08,3,3,0,0,0,1,.72,3.71,3.71,0,0,0,1.47.27,3.62,3.62,0,0,0,1.46-.27,2.93,2.93,0,0,0,1.06-.72,3.13,3.13,0,0,0,.67-1.08A5.15,5.15,0,0,0,123.74,12.53Z"/><path d="M132.29,5.28h3a.65.65,0,0,1,.65.65V6.7a.61.61,0,0,1-.19.45.62.62,0,0,1-.46.19h-3v9.77a.63.63,0,0,1-.2.46.6.6,0,0,1-.45.19h-.89a.62.62,0,0,1-.46-.19.66.66,0,0,1-.19-.46V7.34h-2a.62.62,0,0,1-.46-.19.61.61,0,0,1-.19-.45V5.93a.65.65,0,0,1,.65-.65h2V4.08A4.36,4.36,0,0,1,131,1a3.92,3.92,0,0,1,3-1h1.51a.62.62,0,0,1,.46.19.62.62,0,0,1,.19.46v.77a.61.61,0,0,1-.19.45.62.62,0,0,1-.46.19H134.3a3,3,0,0,0-1,.16,1.34,1.34,0,0,0-.61.44,1.88,1.88,0,0,0-.3.69,3.84,3.84,0,0,0-.08.85Z"/><path d="M146.21,13.56a3.84,3.84,0,0,0,.08.85,1.88,1.88,0,0,0,.3.69,1.34,1.34,0,0,0,.61.44,3,3,0,0,0,1,.16h1.27a.62.62,0,0,1,.46.19.61.61,0,0,1,.19.45v.77a.65.65,0,0,1-.65.65H148a3.79,3.79,0,0,1-3-1.08,4.6,4.6,0,0,1-.94-3.12V7.34h-1.77a.62.62,0,0,1-.46-.19.61.61,0,0,1-.19-.45V5.93a.65.65,0,0,1,.65-.65H144V1.37a.66.66,0,0,1,.19-.46.62.62,0,0,1,.46-.19h.89a.6.6,0,0,1,.45.19.63.63,0,0,1,.2.46V5.28h3a.65.65,0,0,1,.65.65V6.7a.61.61,0,0,1-.19.45.62.62,0,0,1-.46.19h-3Z"/><path d="M163.63,17.11a.65.65,0,0,1-.65.65h-.89a.61.61,0,0,1-.45-.19.62.62,0,0,1-.19-.46V10.78A3.8,3.8,0,0,0,160.56,8a3.29,3.29,0,0,0-2.47-.92,3.33,3.33,0,0,0-2.44.92,3.68,3.68,0,0,0-.92,2.76v6.33a.63.63,0,0,1-.2.46.6.6,0,0,1-.45.19h-.89a.62.62,0,0,1-.46-.19.66.66,0,0,1-.19-.46V1.37a.66.66,0,0,1,.19-.46.62.62,0,0,1,.46-.19h.89a.6.6,0,0,1,.45.19.63.63,0,0,1,.2.46v5.3a4.31,4.31,0,0,1,1.35-1.11A4.68,4.68,0,0,1,158.45,5a5.65,5.65,0,0,1,2.08.37,4.73,4.73,0,0,1,1.65,1.06,4.84,4.84,0,0,1,1.07,1.69,6.41,6.41,0,0,1,.38,2.26Z"/><path d="M166.53,10.32a6.38,6.38,0,0,1,.53-2.06,6,6,0,0,1,1.13-1.68,4.88,4.88,0,0,1,1.67-1.13A5.59,5.59,0,0,1,172,5a6.07,6.07,0,0,1,2.32.42,4.75,4.75,0,0,1,1.74,1.21,5.49,5.49,0,0,1,1.1,1.92,7.67,7.67,0,0,1,.38,2.52v.65a.62.62,0,0,1-.19.46.65.65,0,0,1-.45.19h-8.26v.14A3.22,3.22,0,0,0,172,15.94a4.1,4.1,0,0,0,2-.38,4,4,0,0,0,1.07-.82,1.63,1.63,0,0,1,.33-.27,1,1,0,0,1,.44-.07h.72a.72.72,0,0,1,.48.19.46.46,0,0,1,.16.46,2.49,2.49,0,0,1-.4.95,3.74,3.74,0,0,1-1,1,6,6,0,0,1-1.58.74A7.36,7.36,0,0,1,172,18a5.34,5.34,0,0,1-2.16-.42,5.14,5.14,0,0,1-1.67-1.15,5.91,5.91,0,0,1-1.14-1.73,6.91,6.91,0,0,1-.53-2.17A10.21,10.21,0,0,1,166.53,10.32Zm2.14.07h6.74v-.07A3,3,0,0,0,174.49,8,3.46,3.46,0,0,0,172,7.1a3.7,3.7,0,0,0-1.3.23,3.15,3.15,0,0,0-1,.65A2.86,2.86,0,0,0,169,9a3.54,3.54,0,0,0-.29,1.32Z"/><path d="M185.76,10.32a6.13,6.13,0,0,1,.53-2.06,5.74,5.74,0,0,1,1.12-1.68,5,5,0,0,1,1.67-1.13A5.59,5.59,0,0,1,191.25,5a6,6,0,0,1,2.32.42,4.75,4.75,0,0,1,1.74,1.21,5.34,5.34,0,0,1,1.1,1.92,7.66,7.66,0,0,1,.39,2.52v.65a.65.65,0,0,1-.65.65h-8.26v.14a3.43,3.43,0,0,0,1,2.51,3.36,3.36,0,0,0,2.36.88,4.1,4.1,0,0,0,2-.38,4,4,0,0,0,1.07-.82,1.41,1.41,0,0,1,.34-.27,1,1,0,0,1,.43-.07h.72a.68.68,0,0,1,.48.19.49.49,0,0,1,.17.46A2.7,2.7,0,0,1,196,16a3.69,3.69,0,0,1-1,1,6,6,0,0,1-1.59.74,7.36,7.36,0,0,1-2.22.3,5.34,5.34,0,0,1-2.16-.42,5.1,5.1,0,0,1-1.66-1.15,5.54,5.54,0,0,1-1.14-1.73,6.65,6.65,0,0,1-.53-2.17A10.21,10.21,0,0,1,185.76,10.32Zm2.13.07h6.75v-.07A3.05,3.05,0,0,0,193.71,8a3.43,3.43,0,0,0-2.46-.88,3.65,3.65,0,0,0-1.29.23A3.29,3.29,0,0,0,188.9,8a3.14,3.14,0,0,0-.72,1,3.75,3.75,0,0,0-.29,1.32Z"/><path d="M210.79,17.11a.65.65,0,0,1-.65.65h-.89a.6.6,0,0,1-.45-.19.62.62,0,0,1-.19-.46V10.78A3.8,3.8,0,0,0,207.72,8a3.74,3.74,0,0,0-4.91,0,3.68,3.68,0,0,0-.92,2.76v6.33a.63.63,0,0,1-.2.46.6.6,0,0,1-.45.19h-.89a.65.65,0,0,1-.65-.65V5.93a.65.65,0,0,1,.65-.65h.89a.6.6,0,0,1,.45.19.63.63,0,0,1,.2.46v.74a4.31,4.31,0,0,1,1.35-1.11A4.68,4.68,0,0,1,205.61,5a5.65,5.65,0,0,1,2.08.37,4.73,4.73,0,0,1,1.65,1.06,4.84,4.84,0,0,1,1.07,1.69,6.41,6.41,0,0,1,.38,2.26Z"/><path d="M213.69,10.32a6.38,6.38,0,0,1,.53-2.06,6,6,0,0,1,1.13-1.68A4.88,4.88,0,0,1,217,5.45,5.59,5.59,0,0,1,219.19,5a6.07,6.07,0,0,1,2.32.42,4.75,4.75,0,0,1,1.74,1.21,5.49,5.49,0,0,1,1.1,1.92,7.67,7.67,0,0,1,.38,2.52v.65a.62.62,0,0,1-.19.46.65.65,0,0,1-.45.19h-8.26v.14a3.22,3.22,0,0,0,3.36,3.39,4.1,4.1,0,0,0,2-.38,4,4,0,0,0,1.07-.82,1.63,1.63,0,0,1,.33-.27,1,1,0,0,1,.44-.07h.72a.72.72,0,0,1,.48.19.46.46,0,0,1,.16.46,2.49,2.49,0,0,1-.4.95,3.74,3.74,0,0,1-1,1,6,6,0,0,1-1.58.74,7.36,7.36,0,0,1-2.22.3,5.34,5.34,0,0,1-2.16-.42,5.14,5.14,0,0,1-1.67-1.15,5.91,5.91,0,0,1-1.14-1.73,6.91,6.91,0,0,1-.53-2.17A10.21,10.21,0,0,1,213.69,10.32Zm2.14.07h6.74v-.07A3,3,0,0,0,221.65,8a3.46,3.46,0,0,0-2.46-.88,3.7,3.7,0,0,0-1.3.23,3.15,3.15,0,0,0-1,.65,2.86,2.86,0,0,0-.72,1,3.54,3.54,0,0,0-.29,1.32Z"/><path d="M234,5.28a.65.65,0,0,1,.65.65V6.7a.61.61,0,0,1-.19.45.62.62,0,0,1-.46.19h-1.39a2.44,2.44,0,0,0-2.76,2.76v7a.65.65,0,0,1-.65.65h-.88a.65.65,0,0,1-.65-.65V5.93a.65.65,0,0,1,.65-.65h.88a.65.65,0,0,1,.65.65v.74a2.94,2.94,0,0,1,1.15-1,3.84,3.84,0,0,1,1.75-.34Z"/><path d="M235.82,10.73a7.35,7.35,0,0,1,.51-2.38,5.4,5.4,0,0,1,1.15-1.79,5,5,0,0,1,1.69-1.12,5.42,5.42,0,0,1,2.1-.4,4.69,4.69,0,0,1,2.38.52A4.51,4.51,0,0,1,245,6.67V5.93a.65.65,0,0,1,.65-.65h.89a.61.61,0,0,1,.45.19.62.62,0,0,1,.19.46V17.59a5.49,5.49,0,0,1-1.41,4A5.62,5.62,0,0,1,241.51,23a7.71,7.71,0,0,1-2.46-.35,5.52,5.52,0,0,1-1.68-.87,3.73,3.73,0,0,1-1-1.14,2.84,2.84,0,0,1-.34-1.2.51.51,0,0,1,.18-.45.64.64,0,0,1,.47-.19h.72a.72.72,0,0,1,.44.13,1.39,1.39,0,0,1,.35.51c.05.1.12.23.22.39a2,2,0,0,0,.51.5,3.09,3.09,0,0,0,.91.43,4.79,4.79,0,0,0,1.43.18,6.92,6.92,0,0,0,1.48-.16,3.17,3.17,0,0,0,1.18-.52,2.31,2.31,0,0,0,.78-1,3.37,3.37,0,0,0,.28-1.46V16.37a4.27,4.27,0,0,1-1.37,1.14,4.8,4.8,0,0,1-2.35.49,5.42,5.42,0,0,1-2.1-.4,5,5,0,0,1-1.69-1.12,5.4,5.4,0,0,1-1.15-1.79,7.35,7.35,0,0,1-.51-2.38c0-.24,0-.5,0-.79S235.8,11,235.82,10.73Zm9.17-.07A3.74,3.74,0,0,0,244,8a3.36,3.36,0,0,0-2.46-.93,3.21,3.21,0,0,0-2.5,1,4.39,4.39,0,0,0-1,2.74c0,.45,0,.89,0,1.34a4.39,4.39,0,0,0,1,2.74,3.21,3.21,0,0,0,2.5,1A3.36,3.36,0,0,0,244,15a3.77,3.77,0,0,0,1-2.62c0-.24,0-.52,0-.86S245,10.9,245,10.66Z"/><path d="M254.44,21.74a1.14,1.14,0,0,1-.23.39.59.59,0,0,1-.46.19h-1a.54.54,0,0,1-.4-.17.53.53,0,0,1-.17-.41.7.7,0,0,1,0-.16l2.31-5L249.76,6a.7.7,0,0,1,0-.16.58.58,0,0,1,.58-.58h1a.59.59,0,0,1,.46.19,1.37,1.37,0,0,1,.24.39L255.69,14l3.75-8.16a1,1,0,0,1,.24-.39.55.55,0,0,1,.45-.19h1a.54.54,0,0,1,.4.17.53.53,0,0,1,.17.41.7.7,0,0,1,0,.16Z"/><path d="M10,31.54a.65.65,0,0,1-.64.64H8A.62.62,0,0,1,7.57,32a.65.65,0,0,1-.19-.45V30.17a.66.66,0,0,1,.19-.46A.62.62,0,0,1,8,29.52H9.4a.61.61,0,0,1,.45.19.62.62,0,0,1,.19.46ZM9.81,45.91a.63.63,0,0,1-.2.46.6.6,0,0,1-.45.19H8.27a.65.65,0,0,1-.65-.65V34.73a.65.65,0,0,1,.65-.65h.89a.6.6,0,0,1,.45.19.63.63,0,0,1,.2.46Z"/><path d="M16.67,42.36a4.54,4.54,0,0,0,.08.85,1.88,1.88,0,0,0,.3.69,1.37,1.37,0,0,0,.62.44,2.87,2.87,0,0,0,1,.16H20a.6.6,0,0,1,.45.19.62.62,0,0,1,.2.45v.77a.63.63,0,0,1-.2.46.6.6,0,0,1-.45.19H18.45a3.82,3.82,0,0,1-3-1.08,4.65,4.65,0,0,1-.93-3.12V36.14H12.71a.62.62,0,0,1-.46-.19.65.65,0,0,1-.19-.45v-.77a.66.66,0,0,1,.19-.46.62.62,0,0,1,.46-.19h1.78V30.17a.62.62,0,0,1,.19-.46.61.61,0,0,1,.45-.19H16a.65.65,0,0,1,.65.65v3.91h3a.61.61,0,0,1,.45.19.63.63,0,0,1,.2.46v.77a.62.62,0,0,1-.2.45.61.61,0,0,1-.45.19h-3Z"/><path d="M40,42.67l2.69-8a1.15,1.15,0,0,1,.27-.39.74.74,0,0,1,.55-.19h.79a.58.58,0,0,1,.58.58.68.68,0,0,1,0,.19l-3.67,11a1.55,1.55,0,0,1-.25.48.57.57,0,0,1-.47.19h-.74a.56.56,0,0,1-.47-.2,2.43,2.43,0,0,1-.28-.47l-2.85-8-2.86,8a2.43,2.43,0,0,1-.28.47.56.56,0,0,1-.46.2h-.75a.57.57,0,0,1-.47-.19,1.8,1.8,0,0,1-.25-.48l-3.67-11a.65.65,0,0,1,0-.19.56.56,0,0,1,.16-.41.58.58,0,0,1,.41-.17h.79a.76.76,0,0,1,.56.19,1.26,1.26,0,0,1,.26.39l2.69,8,2.88-8a1.33,1.33,0,0,1,.23-.39.6.6,0,0,1,.51-.19h.53a.64.64,0,0,1,.52.19,1.59,1.59,0,0,1,.23.39Z"/><path d="M52.36,33.84a6.13,6.13,0,0,1,2.3.4A5,5,0,0,1,57.53,37,6.9,6.9,0,0,1,58,39.19a3.94,3.94,0,0,1,0,.52V41a3.28,3.28,0,0,1,0,.49,7.66,7.66,0,0,1-.52,2.18,5,5,0,0,1-1.13,1.68,5,5,0,0,1-1.73,1.09,6.84,6.84,0,0,1-4.61,0,5,5,0,0,1-1.73-1.09,5,5,0,0,1-1.14-1.68,6.77,6.77,0,0,1-.51-2.18c0-.13,0-.29,0-.49s0-.41,0-.63,0-.42,0-.62,0-.37,0-.52A6.9,6.9,0,0,1,47.18,37a5,5,0,0,1,2.87-2.78A6.15,6.15,0,0,1,52.36,33.84Zm3.5,7.49a9.23,9.23,0,0,0,0-1,9.93,9.93,0,0,0,0-1A5.15,5.15,0,0,0,55.55,38a3.29,3.29,0,0,0-.67-1.08,2.93,2.93,0,0,0-1.06-.72,3.66,3.66,0,0,0-1.46-.27,3.71,3.71,0,0,0-1.47.27,2.89,2.89,0,0,0-1,.72A3.15,3.15,0,0,0,49.16,38a5.15,5.15,0,0,0-.31,1.34,9.93,9.93,0,0,0-.05,1,9.23,9.23,0,0,0,.05,1,5.15,5.15,0,0,0,.31,1.34,3.15,3.15,0,0,0,.68,1.08,2.89,2.89,0,0,0,1,.72,3.71,3.71,0,0,0,1.47.27,3.66,3.66,0,0,0,1.46-.27,2.93,2.93,0,0,0,1.06-.72,3.29,3.29,0,0,0,.67-1.08A5.15,5.15,0,0,0,55.86,41.33Z"/><path d="M61,34.73a.63.63,0,0,1,.2-.46.58.58,0,0,1,.45-.19h.89a.6.6,0,0,1,.45.19.63.63,0,0,1,.2.46v6.33A3.93,3.93,0,0,0,64,43.82a3.56,3.56,0,0,0,4.78,0,3.84,3.84,0,0,0,.87-2.76V34.73a.65.65,0,0,1,.65-.65h.88a.65.65,0,0,1,.65.65V45.91a.65.65,0,0,1-.65.65h-.88a.65.65,0,0,1-.65-.65v-.74a4.7,4.7,0,0,1-1.3,1.11,4.33,4.33,0,0,1-2.3.52A5.56,5.56,0,0,1,64,46.43a4.52,4.52,0,0,1-1.6-1.06,4.47,4.47,0,0,1-1-1.68A6.63,6.63,0,0,1,61,41.42Z"/><path d="M77.6,45.91a.62.62,0,0,1-.19.46.61.61,0,0,1-.45.19h-.89a.65.65,0,0,1-.65-.65V30.17a.65.65,0,0,1,.65-.65H77a.61.61,0,0,1,.45.19.62.62,0,0,1,.19.46Z"/><path d="M86.05,33.84a4.67,4.67,0,0,1,2.38.52,4.38,4.38,0,0,1,1.34,1.11v-5.3a.66.66,0,0,1,.19-.46.62.62,0,0,1,.46-.19h.89a.6.6,0,0,1,.45.19.63.63,0,0,1,.2.46V45.91a.63.63,0,0,1-.2.46.6.6,0,0,1-.45.19h-.89a.62.62,0,0,1-.46-.19.66.66,0,0,1-.19-.46v-.74a4.17,4.17,0,0,1-1.37,1.14,4.8,4.8,0,0,1-2.35.49,5.42,5.42,0,0,1-2.1-.4,4.77,4.77,0,0,1-1.69-1.14,5.51,5.51,0,0,1-1.15-1.8,7.23,7.23,0,0,1-.51-2.37c0-.24,0-.5,0-.78s0-.54,0-.78a7.35,7.35,0,0,1,.51-2.38,5.57,5.57,0,0,1,1.15-1.79A5,5,0,0,1,84,34.24,5.42,5.42,0,0,1,86.05,33.84Zm3.72,7.51c0-.24,0-.55,0-1s0-.7,0-.94a3.74,3.74,0,0,0-1-2.63,3.36,3.36,0,0,0-2.46-.93,3.19,3.19,0,0,0-2.49,1,4.28,4.28,0,0,0-1,2.74c0,.45,0,.89,0,1.34a4.28,4.28,0,0,0,1,2.74,3.19,3.19,0,0,0,2.49,1,3.42,3.42,0,0,0,2.45-.92A3.47,3.47,0,0,0,89.77,41.35Z"/><path d="M104.17,42.36a3.82,3.82,0,0,0,.09.85,1.6,1.6,0,0,0,.3.69,1.29,1.29,0,0,0,.61.44,2.87,2.87,0,0,0,1,.16h1.27a.62.62,0,0,1,.46.19.65.65,0,0,1,.19.45v.77a.66.66,0,0,1-.19.46.62.62,0,0,1-.46.19H106a3.83,3.83,0,0,1-3-1.08,4.65,4.65,0,0,1-.93-3.12V36.14h-1.78a.6.6,0,0,1-.45-.19.62.62,0,0,1-.2-.45v-.77a.63.63,0,0,1,.2-.46.6.6,0,0,1,.45-.19H102V30.17a.65.65,0,0,1,.65-.65h.88a.65.65,0,0,1,.65.65v3.91h3a.62.62,0,0,1,.46.19.66.66,0,0,1,.19.46v.77a.65.65,0,0,1-.19.45.62.62,0,0,1-.46.19h-3Z"/><path d="M109.62,43.42a3.59,3.59,0,0,1,.38-1.68,3.78,3.78,0,0,1,1.06-1.23,5.67,5.67,0,0,1,1.57-.81,11.35,11.35,0,0,1,1.91-.48l3.38-.56v-.31a2.13,2.13,0,0,0-.8-1.83,3.2,3.2,0,0,0-2-.62,2.72,2.72,0,0,0-1.6.39,4,4,0,0,0-.93.91.68.68,0,0,1-.31.26,1.1,1.1,0,0,1-.45.08h-.72a.65.65,0,0,1-.47-.2.5.5,0,0,1-.18-.45,2.29,2.29,0,0,1,.42-1.08,3.67,3.67,0,0,1,1-1,6,6,0,0,1,1.46-.7,5.38,5.38,0,0,1,1.77-.28,6.21,6.21,0,0,1,2,.31,4.49,4.49,0,0,1,1.58.91,4.21,4.21,0,0,1,1,1.49,5.38,5.38,0,0,1,.37,2v7.32a.66.66,0,0,1-.19.46.63.63,0,0,1-.46.19h-.89a.58.58,0,0,1-.45-.19.63.63,0,0,1-.2-.46v-1a2.19,2.19,0,0,1-.67.8,4.54,4.54,0,0,1-1,.59,6.73,6.73,0,0,1-2.42.48,5.48,5.48,0,0,1-1.71-.26,4.36,4.36,0,0,1-1.32-.71,3.12,3.12,0,0,1-.84-1.07A3.06,3.06,0,0,1,109.62,43.42ZM114,44.74a4.48,4.48,0,0,0,1.58-.27,3.73,3.73,0,0,0,1.24-.73,3.21,3.21,0,0,0,.79-1.12,3.7,3.7,0,0,0,.27-1.44v-.6l-2.83.46a6.84,6.84,0,0,0-2.4.77,1.57,1.57,0,0,0-.89,1.37,1.23,1.23,0,0,0,.12.52,1.51,1.51,0,0,0,.39.51,1.78,1.78,0,0,0,.68.38A3.15,3.15,0,0,0,114,44.74Z"/><path d="M125.8,41.28v4.63a.63.63,0,0,1-.2.46.6.6,0,0,1-.45.19h-.89a.65.65,0,0,1-.65-.65V30.17a.65.65,0,0,1,.65-.65h.89a.6.6,0,0,1,.45.19.63.63,0,0,1,.2.46v7.94l4.68-3.62a3.61,3.61,0,0,1,.37-.27,1.08,1.08,0,0,1,.56-.14h1.2a.58.58,0,0,1,.58.58.54.54,0,0,1,0,.22c0,.08-.1.16-.23.26l-5.78,4.51,6.38,5.88a1,1,0,0,1,.2.24.46.46,0,0,1,0,.21.56.56,0,0,1-.16.41.58.58,0,0,1-.41.17h-1.13a1.28,1.28,0,0,1-.61-.14,1.87,1.87,0,0,1-.37-.27Z"/><path d="M134.6,39.12a6.38,6.38,0,0,1,.53-2.06,5.77,5.77,0,0,1,1.13-1.68,4.88,4.88,0,0,1,1.67-1.13,5.59,5.59,0,0,1,2.17-.41,6.11,6.11,0,0,1,2.32.42,4.92,4.92,0,0,1,1.74,1.21,5.65,5.65,0,0,1,1.1,1.92,7.94,7.94,0,0,1,.38,2.52v.65a.62.62,0,0,1-.19.46.65.65,0,0,1-.45.19h-8.26v.14a3.22,3.22,0,0,0,3.36,3.39,4.1,4.1,0,0,0,2-.38,4,4,0,0,0,1.07-.82,1.4,1.4,0,0,1,.33-.27,1,1,0,0,1,.44-.07h.71a.72.72,0,0,1,.49.19.48.48,0,0,1,.16.46,2.49,2.49,0,0,1-.4.95,3.74,3.74,0,0,1-1,1,6,6,0,0,1-1.58.74,7.36,7.36,0,0,1-2.22.3,5.34,5.34,0,0,1-2.16-.42,5.14,5.14,0,0,1-1.67-1.15,5.91,5.91,0,0,1-1.14-1.73,6.91,6.91,0,0,1-.53-2.17A10.21,10.21,0,0,1,134.6,39.12Zm2.14.07h6.74v-.07a3.08,3.08,0,0,0-.92-2.34,3.46,3.46,0,0,0-2.46-.88,3.66,3.66,0,0,0-1.3.23,3.15,3.15,0,0,0-1.05.65,2.86,2.86,0,0,0-.72,1,3.36,3.36,0,0,0-.29,1.32Z"/><path d="M157.16,42.36a3.82,3.82,0,0,0,.09.85,1.6,1.6,0,0,0,.3.69,1.29,1.29,0,0,0,.61.44,2.87,2.87,0,0,0,1,.16h1.27a.62.62,0,0,1,.46.19.65.65,0,0,1,.19.45v.77a.66.66,0,0,1-.19.46.62.62,0,0,1-.46.19h-1.51a3.79,3.79,0,0,1-3-1.08,4.6,4.6,0,0,1-.94-3.12V36.14H153.2a.6.6,0,0,1-.45-.19.62.62,0,0,1-.2-.45v-.77a.63.63,0,0,1,.2-.46.6.6,0,0,1,.45-.19H155V30.17a.65.65,0,0,1,.65-.65h.88a.65.65,0,0,1,.65.65v3.91h3.05a.62.62,0,0,1,.46.19.66.66,0,0,1,.19.46v.77a.65.65,0,0,1-.19.45.62.62,0,0,1-.46.19h-3.05Z"/><path d="M168.61,33.84a6.13,6.13,0,0,1,2.3.4,5,5,0,0,1,1.73,1.09A5,5,0,0,1,173.78,37a7.19,7.19,0,0,1,.52,2.17c0,.15,0,.32,0,.52V41c0,.2,0,.36,0,.49a7.66,7.66,0,0,1-.53,2.18,4.83,4.83,0,0,1-1.13,1.68,5,5,0,0,1-1.73,1.09,6.81,6.81,0,0,1-4.6,0,5,5,0,0,1-2.87-2.77,7,7,0,0,1-.52-2.18c0-.13,0-.29,0-.49s0-.41,0-.63,0-.42,0-.62,0-.37,0-.52a7.19,7.19,0,0,1,.52-2.17,5,5,0,0,1,1.14-1.69,5,5,0,0,1,1.73-1.09A6.13,6.13,0,0,1,168.61,33.84Zm3.5,7.49a7.23,7.23,0,0,0,0-1,7.72,7.72,0,0,0,0-1A4.77,4.77,0,0,0,171.8,38a3.13,3.13,0,0,0-.67-1.08,2.93,2.93,0,0,0-1.06-.72,4.08,4.08,0,0,0-2.92,0,2.93,2.93,0,0,0-1.06.72,3.13,3.13,0,0,0-.67,1.08,4.77,4.77,0,0,0-.31,1.34,7.72,7.72,0,0,0-.05,1,7.23,7.23,0,0,0,.05,1,4.77,4.77,0,0,0,.31,1.34,3.13,3.13,0,0,0,.67,1.08,2.93,2.93,0,0,0,1.06.72,4.08,4.08,0,0,0,2.92,0,2.93,2.93,0,0,0,1.06-.72,3.13,3.13,0,0,0,.67-1.08A4.77,4.77,0,0,0,172.11,41.33Z"/><path d="M189.11,33.84a5.42,5.42,0,0,1,2.1.4,5.09,5.09,0,0,1,1.69,1.12,5.57,5.57,0,0,1,1.15,1.79,7.09,7.09,0,0,1,.5,2.38q0,.36,0,.78t0,.78a7,7,0,0,1-.5,2.37,5.51,5.51,0,0,1-1.15,1.8,4.86,4.86,0,0,1-1.69,1.14,5.42,5.42,0,0,1-2.1.4,4.87,4.87,0,0,1-2.36-.49,4.23,4.23,0,0,1-1.36-1.14v.74a.63.63,0,0,1-.2.46.6.6,0,0,1-.45.19h-.89a.62.62,0,0,1-.46-.19.66.66,0,0,1-.19-.46V30.17a.66.66,0,0,1,.19-.46.62.62,0,0,1,.46-.19h.89a.6.6,0,0,1,.45.19.63.63,0,0,1,.2.46v5.3a4.38,4.38,0,0,1,1.34-1.11A4.64,4.64,0,0,1,189.11,33.84Zm-3.72,7.51a3.7,3.7,0,0,0,1.05,2.47,3.34,3.34,0,0,0,2.43.92,3.17,3.17,0,0,0,2.48-1,4.45,4.45,0,0,0,1-2.74c0-.45,0-.89,0-1.34a4.45,4.45,0,0,0-1-2.74,3.17,3.17,0,0,0-2.48-1,3.26,3.26,0,0,0-2.43.93,4,4,0,0,0-1.05,2.63,6.09,6.09,0,0,0,0,.94A6.15,6.15,0,0,0,185.39,41.35Z"/><path d="M197.43,34.73a.63.63,0,0,1,.2-.46.6.6,0,0,1,.45-.19H199a.62.62,0,0,1,.46.19.66.66,0,0,1,.19.46v6.33a3.93,3.93,0,0,0,.83,2.76,3.56,3.56,0,0,0,4.78,0,3.84,3.84,0,0,0,.87-2.76V34.73a.65.65,0,0,1,.65-.65h.88a.65.65,0,0,1,.65.65V45.91a.65.65,0,0,1-.65.65h-.88a.65.65,0,0,1-.65-.65v-.74a4.7,4.7,0,0,1-1.3,1.11,4.33,4.33,0,0,1-2.3.52,5.56,5.56,0,0,1-2.07-.37,4.52,4.52,0,0,1-1.6-1.06,4.47,4.47,0,0,1-1-1.68,6.63,6.63,0,0,1-.36-2.27Z"/><path d="M218.22,34.08a.6.6,0,0,1,.45.19.63.63,0,0,1,.2.46v.77a.62.62,0,0,1-.2.45.6.6,0,0,1-.45.19h-1.39a2.44,2.44,0,0,0-2.76,2.76v7a.63.63,0,0,1-.2.46.6.6,0,0,1-.45.19h-.89a.62.62,0,0,1-.46-.19.66.66,0,0,1-.19-.46V34.73a.66.66,0,0,1,.19-.46.62.62,0,0,1,.46-.19h.89a.6.6,0,0,1,.45.19.63.63,0,0,1,.2.46v.74a2.94,2.94,0,0,1,1.15-1,3.84,3.84,0,0,1,1.75-.34Z"/><path d="M232,45.91a.65.65,0,0,1-.65.65h-.89a.61.61,0,0,1-.45-.19.62.62,0,0,1-.19-.46V39.58a3.8,3.8,0,0,0-.89-2.76,3.29,3.29,0,0,0-2.47-.92,3.33,3.33,0,0,0-2.44.92,3.72,3.72,0,0,0-.92,2.76v6.33a.66.66,0,0,1-.19.46.62.62,0,0,1-.46.19h-.89a.58.58,0,0,1-.45-.19.63.63,0,0,1-.2-.46V34.73a.63.63,0,0,1,.2-.46.58.58,0,0,1,.45-.19h.89a.62.62,0,0,1,.46.19.66.66,0,0,1,.19.46v.74a4.31,4.31,0,0,1,1.35-1.11,4.68,4.68,0,0,1,2.37-.52,5.71,5.71,0,0,1,2.09.37,4.78,4.78,0,0,1,1.64,1.06A4.84,4.84,0,0,1,231.66,37a6.41,6.41,0,0,1,.38,2.26Z"/><path d="M243.8,31.54a.61.61,0,0,1-.19.45.62.62,0,0,1-.46.19h-1.36a.62.62,0,0,1-.46-.19.61.61,0,0,1-.19-.45V30.17a.65.65,0,0,1,.65-.65h1.36a.65.65,0,0,1,.65.65Zm-.24,14.37a.65.65,0,0,1-.65.65H242a.65.65,0,0,1-.65-.65V34.73a.65.65,0,0,1,.65-.65h.88a.65.65,0,0,1,.65.65Z"/><path d="M250.43,42.36a3.84,3.84,0,0,0,.08.85,1.88,1.88,0,0,0,.3.69,1.34,1.34,0,0,0,.61.44,3,3,0,0,0,1,.16h1.27a.62.62,0,0,1,.46.19.61.61,0,0,1,.19.45v.77a.65.65,0,0,1-.65.65H252.2a3.79,3.79,0,0,1-3-1.08,4.6,4.6,0,0,1-.94-3.12V36.14h-1.78a.65.65,0,0,1-.64-.64v-.77a.62.62,0,0,1,.19-.46.61.61,0,0,1,.45-.19h1.78V30.17a.65.65,0,0,1,.65-.65h.89a.6.6,0,0,1,.45.19.63.63,0,0,1,.2.46v3.91h3a.65.65,0,0,1,.65.65v.77a.61.61,0,0,1-.19.45.62.62,0,0,1-.46.19h-3Z"/><path class="cls-1" d="M159.25,85.92v39.63H129.77L104.58,85.92Zm9.91-9.9h-104v59.44h104Zm5,44.58h3.72a6.19,6.19,0,0,0,6.19-6.19V97.07a6.19,6.19,0,0,0-6.19-6.19h-3.72Z"/></g></g></svg>