<svg xmlns="http://www.w3.org/2000/svg" xmlns:xlink="http://www.w3.org/1999/xlink" viewBox="0 0 262.61 138.6"><defs><style>.cls-1{font-size:24px;font-family:Rubik-Regular, Rubik;}.cls-2{letter-spacing:-0.01em;}.cls-3{letter-spacing:-0.02em;}.cls-4{letter-spacing:0em;}.cls-5{letter-spacing:-0.01em;}.cls-6{letter-spacing:-0.02em;}.cls-7{letter-spacing:-0.02em;}.cls-8{letter-spacing:-0.01em;}.cls-9{letter-spacing:-0.03em;}.cls-10{letter-spacing:-0.02em;}.cls-11{letter-spacing:0em;}.cls-12{letter-spacing:-0.03em;}.cls-13{stroke:#fff;stroke-miterlimit:10;fill:url(#linear-gradient);}</style><linearGradient id="linear-gradient" x1="158.93" y1="67.51" x2="77.2" y2="149.24" gradientUnits="userSpaceOnUse"><stop offset="0" stop-color="#87e9cd"/><stop offset="0.65" stop-color="#9079c2"/><stop offset="1" stop-color="#9540bd"/></linearGradient></defs><title>battery-half_1</title><g id="Layer_2" data-name="Layer 2"><g id="Layer_2-2" data-name="Layer 2"><text class="cls-1" transform="translate(0 20.4)">S<tspan class="cls-2" x="14.83" y="0">a</tspan><tspan class="cls-3" x="27.6" y="0">v</tspan><tspan class="cls-4" x="40.56" y="0">e 50% </tspan><tspan class="cls-5" x="114.24" y="0">o</tspan><tspan class="cls-6" x="127.89" y="0">f</tspan><tspan class="cls-7" x="136.7" y="0"> </tspan><tspan x="142.05" y="0">the ene</tspan><tspan class="cls-8" x="226.75" y="0">r</tspan><tspan x="235.53" y="0">g</tspan><tspan class="cls-9" x="249.88" y="0">y</tspan><tspan x="6.73" y="28.8">it</tspan><tspan class="cls-6" x="22.12" y="28.8"> </tspan><tspan class="cls-10" x="27.42" y="28.8">w</tspan><tspan class="cls-11" x="46.36" y="28.8">ould</tspan><tspan class="cls-7" x="94.67" y="28.8"> </tspan><tspan x="100.02" y="28.8">ta</tspan><tspan class="cls-12" x="122.72" y="28.8">k</tspan><tspan x="134.29" y="28.8">e</tspan><tspan class="cls-7" x="147.66" y="28.8"> </tspan><tspan x="153.01" y="28.8">to burn it</tspan></text><path class="cls-13" d="M160.17,88.56v39.63H130.68L105.49,88.56Zm9.9-9.9h-104V138.1h104Zm5,44.58h3.72a6.2,6.2,0,0,0,6.19-6.2V99.71a6.19,6.19,0,0,0-6.19-6.19H175Z"/></g></g></svg>