<svg xmlns="http://www.w3.org/2000/svg" xmlns:xlink="http://www.w3.org/1999/xlink" viewBox="0 0 340.84 168.12"><defs><style>.cls-1,.cls-2{stroke:#fff;stroke-miterlimit:10;}.cls-1{stroke-width:0.67px;fill:url(#linear-gradient);}.cls-2{fill:#4d66c1;stroke-width:0.03px;}.cls-3{fill:#fff;}.cls-4{font-size:24px;font-family:Rubik-Regular, Rubik;}.cls-5{letter-spacing:-0.02em;}.cls-6{letter-spacing:-0.02em;}.cls-7{letter-spacing:-0.03em;}.cls-8{letter-spacing:0em;}.cls-9{letter-spacing:-0.02em;}.cls-10{letter-spacing:0em;}.cls-11{letter-spacing:-0.02em;}.cls-12{letter-spacing:-0.01em;}.cls-13{letter-spacing:-0.02em;}.cls-14{letter-spacing:-0.01em;}.cls-15{letter-spacing:-0.02em;}.cls-16{letter-spacing:-0.03em;}.cls-17{letter-spacing:-0.02em;}.cls-18{letter-spacing:-0.02em;}</style><linearGradient id="linear-gradient" x1="242.52" y1="193.16" x2="91.62" y2="42.25" gradientUnits="userSpaceOnUse"><stop offset="0" stop-color="#87e9cd"/><stop offset="0.65" stop-color="#9079c2"/><stop offset="1" stop-color="#9540bd"/></linearGradient></defs><title>bus_transit</title><g id="Layer_2" data-name="Layer 2"><g id="Layer_2-2" data-name="Layer 2"><g id="bus"><path class="cls-1" d="M285.67,145.94c-.12,1.14-.22,2.29-.37,3.43-.19,1.52-.68,2-2.17,2.23a19,19,0,0,1-2.72.18q-12.44-.09-24.89-.22c-.18,0-.36,0-.67-.05-.52-7.1-4.18-12.36-9.62-16.6-3.68-2.86-7.89-3.72-12.44-3.64a21,21,0,0,0-14.71,5.88,21.27,21.27,0,0,0-6.78,14.38l-84.57.36c-.18-.94-.31-1.89-.54-2.82a24,24,0,0,0-13.37-16.57,15.76,15.76,0,0,0-6.81-1.15,32.77,32.77,0,0,0-5.43.22c-7.48,1.1-12.39,5.63-15.54,12.21a83.67,83.67,0,0,0-2.85,7.88H74.73c-7.29,0-14.59,0-21.88-.1a14.3,14.3,0,0,1-4-.72,4,4,0,0,1-2.7-3.13,24.66,24.66,0,0,1-.69-4.73c-.14-9.51-.19-19-.23-28.55a8.43,8.43,0,0,1,.54-2.27q4.5-15.5,9-31c.5-1.73,1-3.47,2.6-4.55a4.53,4.53,0,0,1,2.26-.94c7.23-.24,14.46-.52,21.69-.54q81-.17,162.05-.22c10.55,0,21.11,0,31.66,0h1.26c-.05,2,.29,4.08-.35,6a3,3,0,0,1-1,1.29,3.35,3.35,0,0,0-1.31,3.9c2.15,6.5,4.29,13,6.52,19.48,1.6,4.68,3.34,9.31,5,14a5.11,5.11,0,0,1,.28,1.55c.07,3,.09,6.08.14,9.11,0,.47.08.93.12,1.4ZM80.58,82.11c-4.25.12-8.26.27-12.26.32a3.11,3.11,0,0,0-3.18,2.11c-.33.85-.73,1.67-1,2.53-1.65,5.58-3.34,11.15-4.86,16.76a56,56,0,0,0-1.56,7.9c-.32,2.52.82,3.88,3.35,4.16a74.58,74.58,0,0,0,7.77.37c5.45,0,10.89-.11,16.34-.14A3.66,3.66,0,0,0,89,113.28c2.91-8.53,5.5-17.15,7.64-25.91a4.11,4.11,0,0,0-.23-2.74c-.76-1.69-2.22-2.13-3.84-2.19C88.47,82.3,84.4,82.21,80.58,82.11Zm102.91,34.27v-.1c2.51,0,5,0,7.52,0,2-.05,4-.21,6-.38a2.6,2.6,0,0,0,2.18-1.59,23.57,23.57,0,0,0,1.34-3.1c1.8-5.79,3.58-11.59,5.29-17.41a50.9,50.9,0,0,0,1.42-6.22c.45-2.8-.55-4.22-3.33-4.79a24.1,24.1,0,0,0-4.56-.49c-5.26-.07-10.52-.07-15.78,0-1.75,0-3.5.19-5.25.34a2.42,2.42,0,0,0-2.24,1.83c-1.31,4.08-2.74,8.13-3.93,12.24-1.43,4.92-2.71,9.89-4,14.86a3.44,3.44,0,0,0,2.69,4.26,11.08,11.08,0,0,0,2.22.3C176.55,116.2,180,116.28,183.49,116.38Zm-74.4,0c4.94-.11,9.13-.23,13.32-.31a3.38,3.38,0,0,0,3.53-2.73c2.5-8.59,5-17.18,7.59-25.73a3.49,3.49,0,0,0-1.5-4.28,5.31,5.31,0,0,0-2.69-.91c-4.35-.16-8.7-.23-13-.24-3.44,0-6.88.19-10.32.22a3.75,3.75,0,0,0-4,2.86,210.8,210.8,0,0,0-7,24.24,13,13,0,0,0-.21,4.08c.18,1.8.59,2.16,2.37,2.26C101.39,116.12,105.61,116.26,109.09,116.41Zm37-.1v.09c4.47-.1,8.95-.22,13.42-.31a3.35,3.35,0,0,0,3.51-2.64c2.11-7.43,4.28-14.84,6.31-22.28a27.63,27.63,0,0,0,.77-5.74,2.28,2.28,0,0,0-1.95-2.52,11.07,11.07,0,0,0-2.67-.46c-4.13-.12-8.26-.23-12.39-.23-3.37,0-6.75.18-10.13.22a3.74,3.74,0,0,0-4,2.81c-2.91,8.3-5.24,16.76-7.39,25.29a5.51,5.51,0,0,0,1.06,5.1,1.47,1.47,0,0,0,1.29.68C138,116.3,142.05,116.31,146.09,116.31Zm114.58.08v-.11c2.82,0,5.63,0,8.45,0a64.1,64.1,0,0,0,6.65-.34,3.61,3.61,0,0,0,3.18-5,268.17,268.17,0,0,0-9.67-26.22,3.41,3.41,0,0,0-3.39-2.31c-6.45,0-12.89-.08-19.34.08-3,.07-3.81,1-3.83,4.16q-.09,12.67.12,25.35c.06,3.4.7,3.93,4.12,4C251.53,116.24,256.1,116.29,260.67,116.39ZM238.59,99.08h-.29c0-2.22.06-4.44,0-6.66a51.18,51.18,0,0,0-.47-6.07c-.41-2.61-1.53-3.83-4.17-3.89-6-.13-11.94.06-17.91,0a2.64,2.64,0,0,0-2.78,2.2c-1.61,5-3.36,10-4.88,15.07-1.11,3.71-2,7.48-2.89,11.26a3.61,3.61,0,0,0,3.38,4.68c2.57.29,5.17.5,7.76.61a116.61,116.61,0,0,0,17.53-.43c2.91-.32,3.6-1,4.17-3.87a6.07,6.07,0,0,0,.12-.84Q238.38,105.13,238.59,99.08Z"/><path class="cls-2" d="M248.35,152.59a15.14,15.14,0,1,1-15.14-15.45A15.29,15.29,0,0,1,248.35,152.59Z"/><path class="cls-2" d="M89.25,152.57a15.14,15.14,0,1,1,15,15.53A15.29,15.29,0,0,1,89.25,152.57Z"/><path class="cls-3" d="M96,152.59a8.44,8.44,0,1,1,8.35,8.66A8.52,8.52,0,0,1,96,152.59Z"/><path class="cls-3" d="M224.77,152.6a8.44,8.44,0,1,1,8.35,8.65A8.54,8.54,0,0,1,224.77,152.6Z"/><rect class="cls-3" x="45.17" y="120.96" width="240.25" height="5.14"/></g><text class="cls-4" transform="translate(0 20.4)">One person<tspan class="cls-5" x="127.27" y="0"> </tspan><tspan x="132.57" y="0">who</tspan><tspan class="cls-6" x="180.29" y="0"> </tspan><tspan x="185.64" y="0">ta</tspan><tspan class="cls-7" x="208.34" y="0">k</tspan><tspan class="cls-8" x="219.91" y="0">es</tspan><tspan class="cls-9" x="245.42" y="0"> </tspan><tspan x="250.77" y="0">the bus </tspan><tspan x="3.74" y="28.8">to commute</tspan><tspan class="cls-9" x="140.23" y="28.8"> </tspan><tspan class="cls-10" x="145.58" y="28.8">to</tspan><tspan class="cls-5" x="169.03" y="28.8"> </tspan><tspan class="cls-11" x="174.33" y="28.8">w</tspan><tspan x="193.27" y="28.8">or</tspan><tspan class="cls-12" x="216.19" y="28.8">k</tspan><tspan class="cls-13" x="228.17" y="28.8"> </tspan><tspan class="cls-14" x="233.54" y="28.8">f</tspan><tspan x="242.66" y="28.8">o</tspan><tspan class="cls-15" x="256.51" y="28.8">r</tspan><tspan x="265.03" y="28.8" xml:space="preserve"> a</tspan><tspan class="cls-16" x="283.99" y="28.8"> </tspan><tspan class="cls-17" x="289.22" y="28.8">y</tspan><tspan x="302.11" y="28.8">ea</tspan><tspan class="cls-18" x="328.58" y="28.8">r</tspan></text></g></g></svg>