<?xml version="1.0" encoding="utf-8"?>
<!-- Generator: Adobe Illustrator 19.0.0, SVG Export Plug-In . SVG Version: 6.00 Build 0)  -->
<svg version="1.1" id="Layer_1" xmlns="http://www.w3.org/2000/svg" xmlns:xlink="http://www.w3.org/1999/xlink" x="0px" y="0px"
	 viewBox="0 0 239.9 93.1" style="enable-background:new 0 0 239.9 93.1;" xml:space="preserve">
<style type="text/css">
	.st0{fill:url(#SVGID_1_);stroke:#FFFFFF;stroke-width:0.6719;stroke-miterlimit:10;}
	.st1{fill:#4D66C1;stroke:#FFFFFF;stroke-width:2.554102e-002;stroke-miterlimit:10;}
	.st2{fill:#FFFFFF;}
</style>
<g id="bus_1_">
	<linearGradient id="SVGID_1_" gradientUnits="userSpaceOnUse" x1="197.3251" y1="118.1315" x2="46.4196" y2="-32.7739">
		<stop  offset="0" style="stop-color:#87E9CD"/>
		<stop  offset="0.6459" style="stop-color:#9079C2"/>
		<stop  offset="1" style="stop-color:#9540BD"/>
	</linearGradient>
	<path class="st0" d="M240.5,70.9c-0.1,1.1-0.2,2.3-0.4,3.4c-0.2,1.5-0.7,2-2.2,2.2c-0.9,0.1-1.8,0.2-2.7,0.2
		c-8.3-0.1-16.6-0.1-24.9-0.2c-0.2,0-0.4,0-0.7-0.1c-0.5-7.1-4.2-12.4-9.6-16.6c-3.7-2.9-7.9-3.7-12.4-3.6c-5.7,0.1-10.6,2-14.7,5.9
		c-4.1,3.9-6.4,8.7-6.8,14.4c-28.2,0.1-56.3,0.2-84.6,0.4C81.4,75.9,81.2,75,81,74c-1.9-7.6-6.4-13.1-13.4-16.6
		c-2.1-1-4.5-1.1-6.8-1.2c-1.8,0-3.6,0-5.4,0.2c-7.5,1.1-12.4,5.6-15.5,12.2c-1.2,2.4-1.9,5.1-2.9,7.9c-2.3,0-4.9,0-7.5,0
		c-7.3,0-14.6,0-21.9-0.1c-1.3,0-2.7-0.3-4-0.7c-1.5-0.5-2.4-1.6-2.7-3.1c-0.3-1.6-0.7-3.1-0.7-4.7C0.1,58.4,0,48.9,0,39.4
		c0-0.8,0.3-1.5,0.5-2.3c3-10.3,6-20.7,9-31c0.5-1.7,1-3.5,2.6-4.5c0.7-0.5,1.5-0.9,2.3-0.9c7.2-0.2,14.5-0.5,21.7-0.5
		c54-0.1,108-0.2,162-0.2c10.6,0,21.1,0,31.7,0c0.4,0,0.7,0,1.3,0c-0.1,2.1,0.3,4.1-0.3,6.1c-0.2,0.5-0.6,0.9-1,1.3
		c-1.3,1-1.8,2.3-1.3,3.9c2.1,6.5,4.3,13,6.5,19.5c1.6,4.7,3.3,9.3,5,14c0.2,0.5,0.3,1,0.3,1.6c0.1,3,0.1,6.1,0.1,9.1
		c0,0.5,0.1,0.9,0.1,1.4C240.5,61.4,240.5,66.1,240.5,70.9z M35.4,7.1c-4.2,0.1-8.3,0.3-12.3,0.3c-1.6,0-2.6,0.7-3.2,2.1
		c-0.3,0.8-0.7,1.7-1,2.5c-1.6,5.6-3.3,11.1-4.9,16.8c-0.7,2.6-1.2,5.2-1.6,7.9c-0.3,2.5,0.8,3.9,3.4,4.2c2.6,0.3,5.2,0.4,7.8,0.4
		c5.4,0,10.9-0.1,16.3-0.1c2,0,3.1-1,3.8-2.8c2.9-8.5,5.5-17.2,7.6-25.9c0.2-0.9,0.2-1.8-0.2-2.7c-0.8-1.7-2.2-2.1-3.8-2.2
		C43.3,7.3,39.2,7.2,35.4,7.1z M138.3,41.4c0,0,0-0.1,0-0.1c2.5,0,5,0,7.5,0c2-0.1,4-0.2,6-0.4c1-0.1,1.8-0.7,2.2-1.6
		c0.5-1,1-2,1.3-3.1c1.8-5.8,3.6-11.6,5.3-17.4c0.6-2,1.1-4.1,1.4-6.2c0.5-2.8-0.5-4.2-3.3-4.8c-1.5-0.3-3-0.5-4.6-0.5
		c-5.3-0.1-10.5-0.1-15.8,0c-1.7,0-3.5,0.2-5.2,0.3c-1.1,0.1-1.9,0.7-2.2,1.8c-1.3,4.1-2.7,8.1-3.9,12.2c-1.4,4.9-2.7,9.9-4,14.9
		c-0.5,2,0.7,3.8,2.7,4.3c0.7,0.2,1.5,0.3,2.2,0.3C131.3,41.2,134.8,41.3,138.3,41.4z M63.9,41.4c4.9-0.1,9.1-0.2,13.3-0.3
		c1.9,0,3-0.9,3.5-2.7c2.5-8.6,5-17.2,7.6-25.7c0.6-1.9-0.1-3.3-1.5-4.3c-0.7-0.5-1.8-0.9-2.7-0.9c-4.3-0.2-8.7-0.2-13-0.2
		c-3.4,0-6.9,0.2-10.3,0.2c-2,0-3.3,0.8-4,2.9c-2.8,8-5.2,16-7,24.2c-0.3,1.3-0.3,2.7-0.2,4.1c0.2,1.8,0.6,2.2,2.4,2.3
		C56.2,41.1,60.4,41.2,63.9,41.4z M100.9,41.3C100.9,41.3,100.9,41.3,100.9,41.3c4.5,0,8.9-0.1,13.4-0.2c1.8,0,3-0.9,3.5-2.6
		c2.1-7.4,4.3-14.8,6.3-22.3c0.5-1.8,0.7-3.8,0.8-5.7c0.1-1.4-0.6-2.1-2-2.5c-0.9-0.2-1.8-0.4-2.7-0.5c-4.1-0.1-8.3-0.2-12.4-0.2
		c-3.4,0-6.8,0.2-10.1,0.2c-2,0-3.2,0.8-3.9,2.8c-2.9,8.3-5.2,16.8-7.4,25.3c-0.5,1.9-0.2,3.6,1.1,5.1c0.4,0.5,0.7,0.7,1.3,0.7
		C92.8,41.3,96.9,41.3,100.9,41.3z M215.5,41.4c0,0,0-0.1,0-0.1c2.8,0,5.6,0,8.5,0c2.2,0,4.5-0.1,6.7-0.3c2.6-0.3,3.9-2.4,3.2-5
		c-2.7-8.9-6-17.6-9.7-26.2c-0.7-1.6-1.8-2.3-3.4-2.3c-6.4,0-12.9-0.1-19.3,0.1c-3,0.1-3.8,1-3.8,4.2c-0.1,8.4,0,16.9,0.1,25.3
		c0.1,3.4,0.7,3.9,4.1,4.1C206.3,41.2,210.9,41.3,215.5,41.4z M193.4,24.1c-0.1,0-0.2,0-0.3,0c0-2.2,0.1-4.4,0-6.7
		c-0.1-2-0.2-4.1-0.5-6.1c-0.4-2.6-1.5-3.8-4.2-3.9c-6-0.1-11.9,0.1-17.9,0c-1.6,0-2.3,0.8-2.8,2.2c-1.6,5-3.4,10-4.9,15.1
		c-1.1,3.7-2,7.5-2.9,11.3c-0.6,2.5,0.8,4.4,3.4,4.7c2.6,0.3,5.2,0.5,7.8,0.6c5.9,0.2,11.7,0.2,17.5-0.4c2.9-0.3,3.6-1,4.2-3.9
		c0.1-0.3,0.1-0.6,0.1-0.8C193.1,32.1,193.2,28.1,193.4,24.1z"/>
	<path class="st1" d="M203.2,77.6c0,8.5-6.7,15.5-15.1,15.5c-8.4,0-15.2-6.9-15.2-15.5c0-8.5,6.8-15.5,15.1-15.5
		C196.4,62.1,203.1,69,203.2,77.6z"/>
	<path class="st1" d="M44.1,77.5c0-8.6,6.8-15.5,15.2-15.4c8.3,0,15.1,7.1,15,15.6c-0.1,8.6-6.9,15.4-15.3,15.4
		C50.7,93,44,86,44.1,77.5z"/>
	<path class="st2" d="M50.8,77.6c0-4.8,3.8-8.6,8.5-8.6c4.6,0,8.4,3.9,8.4,8.7c0,4.8-3.8,8.6-8.5,8.6C54.5,86.2,50.7,82.3,50.8,77.6
		z"/>
	<path class="st2" d="M179.6,77.6c0-4.8,3.8-8.6,8.5-8.6c4.6,0,8.4,3.9,8.4,8.7c0,4.8-3.8,8.6-8.5,8.6
		C183.3,86.2,179.6,82.3,179.6,77.6z"/>
	<rect x="0" y="45.9" class="st2" width="240.3" height="5.1"/>
</g>
</svg>
