<svg xmlns="http://www.w3.org/2000/svg" xmlns:xlink="http://www.w3.org/1999/xlink" viewBox="0 0 335.96 164.76"><defs><style>.cls-1,.cls-2{stroke:#fff;stroke-miterlimit:10;}.cls-1{stroke-width:0.67px;fill:url(#linear-gradient);}.cls-2{fill:#4d66c1;stroke-width:0.03px;}.cls-3{fill:#fff;}</style><linearGradient id="linear-gradient" x1="241.12" y1="189.8" x2="90.21" y2="38.89" gradientUnits="userSpaceOnUse"><stop offset="0" stop-color="#87e9cd"/><stop offset="0.65" stop-color="#9079c2"/><stop offset="1" stop-color="#9540bd"/></linearGradient></defs><title>bus_transit</title><g id="Layer_2" data-name="Layer 2"><g id="Layer_2-2" data-name="Layer 2"><g id="bus"><path class="cls-1" d="M284.27,142.58c-.12,1.14-.22,2.29-.37,3.43-.19,1.52-.68,2-2.18,2.23a20.57,20.57,0,0,1-2.71.19l-24.89-.23c-.19,0-.37,0-.68,0-.51-7.09-4.18-12.36-9.62-16.6-3.67-2.86-7.88-3.72-12.43-3.64a21,21,0,0,0-14.71,5.88,21.27,21.27,0,0,0-6.78,14.38l-84.57.36c-.18-.94-.32-1.89-.54-2.82a24,24,0,0,0-13.37-16.57,15.76,15.76,0,0,0-6.81-1.15,32.93,32.93,0,0,0-5.44.22c-7.48,1.1-12.38,5.63-15.53,12.21a80.93,80.93,0,0,0-2.86,7.88H73.33c-7.3,0-14.59,0-21.89-.1a14.23,14.23,0,0,1-4-.72,4,4,0,0,1-2.7-3.13,25.48,25.48,0,0,1-.7-4.73c-.13-9.51-.19-19-.23-28.55a8.45,8.45,0,0,1,.55-2.27q4.5-15.49,9-31c.51-1.73,1-3.47,2.6-4.55a4.6,4.6,0,0,1,2.27-.94c7.23-.24,14.46-.52,21.69-.54q81-.16,162.05-.22,15.83,0,31.65,0h1.26c-.05,2,.29,4.08-.34,6a3.09,3.09,0,0,1-1,1.29,3.34,3.34,0,0,0-1.31,3.9c2.15,6.5,4.29,13,6.51,19.48,1.61,4.68,3.34,9.31,5,14a4.83,4.83,0,0,1,.29,1.55c.06,3,.08,6.08.13,9.11,0,.47.08.93.13,1.4ZM79.17,78.75c-4.25.12-8.25.27-12.26.32a3.09,3.09,0,0,0-3.17,2.11c-.33.85-.74,1.67-1,2.53-1.65,5.58-3.34,11.15-4.87,16.76a57.47,57.47,0,0,0-1.56,7.9c-.31,2.52.82,3.88,3.35,4.16a74.77,74.77,0,0,0,7.78.37c5.44,0,10.89-.11,16.33-.14a3.66,3.66,0,0,0,3.78-2.84c2.92-8.53,5.5-17.15,7.64-25.91A4.05,4.05,0,0,0,95,81.27c-.75-1.69-2.21-2.13-3.84-2.19C87.07,78.94,83,78.85,79.17,78.75ZM182.09,113v-.1c2.51,0,5,0,7.51,0,2-.05,4-.21,6-.38a2.62,2.62,0,0,0,2.19-1.59,23.52,23.52,0,0,0,1.33-3.1c1.8-5.79,3.59-11.59,5.3-17.41a52.79,52.79,0,0,0,1.41-6.22c.46-2.8-.55-4.22-3.33-4.79a24,24,0,0,0-4.56-.49c-5.26-.07-10.52-.07-15.78,0-1.75,0-3.5.19-5.24.34a2.45,2.45,0,0,0-2.25,1.83c-1.3,4.08-2.73,8.13-3.93,12.24-1.43,4.92-2.71,9.89-4,14.86a3.43,3.43,0,0,0,2.68,4.26,11.18,11.18,0,0,0,2.23.3C175.14,112.84,178.61,112.92,182.09,113Zm-74.41,0c4.94-.11,9.13-.23,13.33-.31a3.38,3.38,0,0,0,3.53-2.73c2.49-8.59,5-17.17,7.58-25.73a3.49,3.49,0,0,0-1.5-4.28,5.28,5.28,0,0,0-2.69-.91c-4.34-.16-8.69-.23-13-.24-3.44,0-6.88.19-10.33.23a3.74,3.74,0,0,0-4,2.85,212.83,212.83,0,0,0-7,24.24,13.28,13.28,0,0,0-.21,4.08c.18,1.8.59,2.16,2.38,2.27C100,112.76,104.2,112.9,107.68,113.05Zm37-.1V113c4.48-.1,8.95-.22,13.42-.3a3.35,3.35,0,0,0,3.51-2.65c2.11-7.43,4.29-14.84,6.32-22.28a28.22,28.22,0,0,0,.77-5.74,2.29,2.29,0,0,0-1.95-2.52,11.15,11.15,0,0,0-2.67-.46c-4.13-.12-8.26-.23-12.39-.23-3.38,0-6.76.18-10.14.22a3.72,3.72,0,0,0-3.94,2.81c-2.91,8.3-5.24,16.77-7.4,25.29a5.49,5.49,0,0,0,1.07,5.1,1.45,1.45,0,0,0,1.29.68C136.61,112.94,140.65,113,144.68,113Zm114.58.08v-.11c2.82,0,5.64,0,8.46,0a64.1,64.1,0,0,0,6.65-.34,3.61,3.61,0,0,0,3.17-5,266.55,266.55,0,0,0-9.67-26.22,3.39,3.39,0,0,0-3.39-2.31c-6.44,0-12.89-.08-19.33.08-3,.07-3.81,1-3.84,4.16q-.08,12.68.13,25.35c.05,3.4.69,3.93,4.12,4C250.12,112.88,254.69,112.93,259.26,113ZM237.19,95.72h-.29c0-2.22.06-4.44,0-6.66a49.16,49.16,0,0,0-.47-6.07c-.41-2.61-1.53-3.83-4.16-3.89-6-.13-11.94.06-17.91,0a2.64,2.64,0,0,0-2.78,2.2c-1.61,5-3.36,10-4.88,15.07-1.12,3.71-2.05,7.48-2.89,11.26a3.6,3.6,0,0,0,3.37,4.68c2.58.29,5.17.5,7.76.61a116.77,116.77,0,0,0,17.54-.43c2.91-.32,3.6-1,4.17-3.87a6.07,6.07,0,0,0,.12-.84Q237,101.77,237.19,95.72Z"/><path class="cls-2" d="M247,149.23a15.14,15.14,0,1,1-15.14-15.45A15.31,15.31,0,0,1,247,149.23Z"/><path class="cls-2" d="M87.85,149.21a15.14,15.14,0,1,1,15,15.53A15.29,15.29,0,0,1,87.85,149.21Z"/><path class="cls-3" d="M94.55,149.23a8.44,8.44,0,1,1,8.34,8.66A8.51,8.51,0,0,1,94.55,149.23Z"/><path class="cls-3" d="M223.37,149.24a8.44,8.44,0,1,1,8.34,8.65A8.54,8.54,0,0,1,223.37,149.24Z"/><rect class="cls-3" x="43.77" y="117.6" width="240.25" height="5.14"/></g><path d="M0,6.5A7.57,7.57,0,0,1,.5,4,5.93,5.93,0,0,1,3.85.52,7.08,7.08,0,0,1,6.66,0,7.08,7.08,0,0,1,9.47.52,5.93,5.93,0,0,1,12.82,4a7.57,7.57,0,0,1,.46,2.53c.05,1.43.05,2.85,0,4.28a7.84,7.84,0,0,1-.49,2.53,5.93,5.93,0,0,1-3.33,3.47,7.36,7.36,0,0,1-2.8.5,7.36,7.36,0,0,1-2.8-.5A5.93,5.93,0,0,1,.53,13.31,7.84,7.84,0,0,1,0,10.78C0,9.35,0,7.93,0,6.5Zm11,.12a6,6,0,0,0-.37-2,3.8,3.8,0,0,0-.9-1.4,3.71,3.71,0,0,0-1.35-.82,5,5,0,0,0-1.72-.28,5,5,0,0,0-1.72.28,3.71,3.71,0,0,0-1.35.82,3.82,3.82,0,0,0-.91,1.4,5.31,5.31,0,0,0-.36,2c0,.72,0,1.4,0,2s0,1.3,0,2a5.31,5.31,0,0,0,.36,2A3.82,3.82,0,0,0,3.59,14a3.71,3.71,0,0,0,1.35.82,5,5,0,0,0,1.72.28,5,5,0,0,0,1.72-.28A3.71,3.71,0,0,0,9.73,14a3.8,3.8,0,0,0,.9-1.4,6,6,0,0,0,.37-2c0-.72.05-1.4.05-2S11,7.34,11,6.62Z"/><path d="M27.61,16.39A.65.65,0,0,1,27,17h-.88a.65.65,0,0,1-.65-.65V10.06a3.8,3.8,0,0,0-.89-2.76,3.29,3.29,0,0,0-2.47-.92,3.33,3.33,0,0,0-2.44.92,3.72,3.72,0,0,0-.92,2.76v6.33a.66.66,0,0,1-.19.46.62.62,0,0,1-.46.19h-.89a.6.6,0,0,1-.45-.19.63.63,0,0,1-.2-.46V5.21a.63.63,0,0,1,.2-.46.6.6,0,0,1,.45-.19h.89a.62.62,0,0,1,.46.19.66.66,0,0,1,.19.46V6a4.31,4.31,0,0,1,1.35-1.11,4.68,4.68,0,0,1,2.37-.52,5.71,5.71,0,0,1,2.09.37,4.69,4.69,0,0,1,1.64,1.06,4.84,4.84,0,0,1,1.07,1.69,6.41,6.41,0,0,1,.38,2.26Z"/><path d="M30.52,9.6A6.37,6.37,0,0,1,31,7.54a6,6,0,0,1,1.13-1.68,4.88,4.88,0,0,1,1.67-1.13A5.59,5.59,0,0,1,36,4.32a6.07,6.07,0,0,1,2.32.42A4.75,4.75,0,0,1,40.07,6a5.34,5.34,0,0,1,1.1,1.92,7.67,7.67,0,0,1,.38,2.52V11a.62.62,0,0,1-.19.46.65.65,0,0,1-.45.19H32.65v.14A3.22,3.22,0,0,0,36,15.22a4.1,4.1,0,0,0,2-.38A4,4,0,0,0,39.06,14a1.63,1.63,0,0,1,.33-.27,1,1,0,0,1,.44-.07h.72a.72.72,0,0,1,.48.19.46.46,0,0,1,.16.46,2.49,2.49,0,0,1-.4.95,3.85,3.85,0,0,1-1,1,6.18,6.18,0,0,1-1.59.74,7.36,7.36,0,0,1-2.22.3,5.34,5.34,0,0,1-2.16-.42,5.14,5.14,0,0,1-1.67-1.15A5.91,5.91,0,0,1,31,14a6.9,6.9,0,0,1-.52-2.17A10.21,10.21,0,0,1,30.52,9.6Zm2.13.07h6.74V9.6a3,3,0,0,0-.92-2.34A3.46,3.46,0,0,0,36,6.38a3.7,3.7,0,0,0-1.3.23,3.15,3.15,0,0,0-1.05.65,2.86,2.86,0,0,0-.72,1,3.54,3.54,0,0,0-.29,1.32Z"/><path d="M56.22,17.28a4.69,4.69,0,0,1-2.38-.52,4.38,4.38,0,0,1-1.34-1.11V21a.65.65,0,0,1-.65.65H51a.6.6,0,0,1-.45-.19.63.63,0,0,1-.2-.46V5.21a.63.63,0,0,1,.2-.46A.6.6,0,0,1,51,4.56h.89a.65.65,0,0,1,.65.65V6a4.17,4.17,0,0,1,1.37-1.14,4.8,4.8,0,0,1,2.35-.49,5.42,5.42,0,0,1,2.1.4A4.77,4.77,0,0,1,60,5.86a5.51,5.51,0,0,1,1.15,1.8A7.23,7.23,0,0,1,61.67,10c0,.24,0,.5,0,.78s0,.54,0,.78A7.35,7.35,0,0,1,61.16,14,5.57,5.57,0,0,1,60,15.76a5,5,0,0,1-1.69,1.12A5.42,5.42,0,0,1,56.22,17.28ZM52.5,9.77c0,.24,0,.55,0,1s0,.7,0,.94a3.74,3.74,0,0,0,1,2.63,3.36,3.36,0,0,0,2.46.93,3.19,3.19,0,0,0,2.49-1,4.28,4.28,0,0,0,1-2.74c0-.45,0-.89,0-1.34a4.28,4.28,0,0,0-1-2.74,3.19,3.19,0,0,0-2.49-1,3.42,3.42,0,0,0-2.45.92A3.47,3.47,0,0,0,52.5,9.77Z"/><path d="M64.09,9.6a6.38,6.38,0,0,1,.53-2.06,5.77,5.77,0,0,1,1.13-1.68,4.88,4.88,0,0,1,1.67-1.13,5.56,5.56,0,0,1,2.17-.41,6,6,0,0,1,2.31.42A4.75,4.75,0,0,1,73.64,6a5.51,5.51,0,0,1,1.11,1.92,7.94,7.94,0,0,1,.38,2.52V11a.62.62,0,0,1-.19.46.66.66,0,0,1-.46.19H66.23v.14a3.21,3.21,0,0,0,3.36,3.39,4.1,4.1,0,0,0,2-.38A4,4,0,0,0,72.63,14a1.41,1.41,0,0,1,.34-.27,1,1,0,0,1,.43-.07h.72a.68.68,0,0,1,.48.19.47.47,0,0,1,.17.46,2.53,2.53,0,0,1-.41.95,3.69,3.69,0,0,1-1,1,6,6,0,0,1-1.58.74,7.36,7.36,0,0,1-2.22.3,5.34,5.34,0,0,1-2.16-.42,5.14,5.14,0,0,1-1.67-1.15A5.91,5.91,0,0,1,64.62,14a6.91,6.91,0,0,1-.53-2.17A10.21,10.21,0,0,1,64.09,9.6Zm2.14.07H73V9.6a3.08,3.08,0,0,0-.92-2.34,3.46,3.46,0,0,0-2.46-.88,3.66,3.66,0,0,0-1.3.23,3.15,3.15,0,0,0-1.05.65,2.86,2.86,0,0,0-.72,1,3.36,3.36,0,0,0-.29,1.32Z"/><path d="M84.37,4.56a.62.62,0,0,1,.46.19.66.66,0,0,1,.19.46V6a.65.65,0,0,1-.19.45.62.62,0,0,1-.46.19H83a2.44,2.44,0,0,0-2.76,2.76v7a.66.66,0,0,1-.19.46.62.62,0,0,1-.46.19h-.89a.6.6,0,0,1-.45-.19.63.63,0,0,1-.2-.46V5.21a.63.63,0,0,1,.2-.46.6.6,0,0,1,.45-.19h.89a.62.62,0,0,1,.46.19.66.66,0,0,1,.19.46V6a2.94,2.94,0,0,1,1.15-1,3.84,3.84,0,0,1,1.75-.34Z"/><path d="M94.21,13.58a1.11,1.11,0,0,0-.25-.75,2.07,2.07,0,0,0-.76-.52,8.85,8.85,0,0,0-1.28-.41c-.52-.12-1.13-.26-1.81-.4a4.74,4.74,0,0,1-2.73-1.36,3.49,3.49,0,0,1-.49-3.59,3.28,3.28,0,0,1,.87-1.15,4,4,0,0,1,1.45-.79,6.58,6.58,0,0,1,2.05-.29,7.35,7.35,0,0,1,2,.26,5.34,5.34,0,0,1,1.48.68,3.31,3.31,0,0,1,.91.87A1.72,1.72,0,0,1,96,7a.52.52,0,0,1-.18.46.63.63,0,0,1-.46.19H94.6a1.22,1.22,0,0,1-.35-.06.75.75,0,0,1-.38-.28A2.24,2.24,0,0,0,93,6.66a4.27,4.27,0,0,0-1.69-.28,3.49,3.49,0,0,0-1.79.41,1.27,1.27,0,0,0-.68,1.13,1.24,1.24,0,0,0,.19.73,1.43,1.43,0,0,0,.62.48,5.65,5.65,0,0,0,1.14.37c.47.12,1.06.25,1.77.41a8.25,8.25,0,0,1,1.84.61,4.38,4.38,0,0,1,1.2.84,2.75,2.75,0,0,1,.65,1,3.56,3.56,0,0,1,.19,1.18,3,3,0,0,1-.34,1.4,3.7,3.7,0,0,1-1,1.17,5.17,5.17,0,0,1-1.57.82,6.53,6.53,0,0,1-2.1.31A7,7,0,0,1,89.29,17a6.27,6.27,0,0,1-1.56-.71,3.71,3.71,0,0,1-1-.91,1.84,1.84,0,0,1-.37-.92.57.57,0,0,1,.17-.46A.65.65,0,0,1,87,13.8h.86a1.48,1.48,0,0,1,.34,0,.56.56,0,0,1,.36.27,2.51,2.51,0,0,0,1.06.82,4.49,4.49,0,0,0,1.75.29,4.55,4.55,0,0,0,1-.12,3.83,3.83,0,0,0,.92-.34,2,2,0,0,0,.63-.52A1,1,0,0,0,94.21,13.58Z"/><path d="M104.36,4.32a6.18,6.18,0,0,1,2.31.4,5,5,0,0,1,2.86,2.78,6.9,6.9,0,0,1,.52,2.17,4.1,4.1,0,0,1,0,.52v1.25a3.48,3.48,0,0,1,0,.49,7.66,7.66,0,0,1-.53,2.18,4.83,4.83,0,0,1-1.13,1.68,5,5,0,0,1-1.72,1.09,6.84,6.84,0,0,1-4.61,0,5,5,0,0,1-1.73-1.09,5,5,0,0,1-1.14-1.68,7,7,0,0,1-.52-2.18c0-.13,0-.29,0-.49s0-.41,0-.63,0-.42,0-.62,0-.37,0-.52a7.19,7.19,0,0,1,.52-2.17,5,5,0,0,1,2.87-2.78A6.13,6.13,0,0,1,104.36,4.32Zm3.51,7.49a9.53,9.53,0,0,0,0-1,10.2,10.2,0,0,0,0-1,5.15,5.15,0,0,0-.32-1.34,3.13,3.13,0,0,0-.67-1.08,3,3,0,0,0-1-.72,3.71,3.71,0,0,0-1.47-.27,3.62,3.62,0,0,0-1.46.27,2.93,2.93,0,0,0-1.06.72,3.13,3.13,0,0,0-.67,1.08,5.15,5.15,0,0,0-.31,1.34,9.93,9.93,0,0,0,0,1,9.23,9.23,0,0,0,0,1,5.15,5.15,0,0,0,.31,1.34,3.13,3.13,0,0,0,.67,1.08,2.93,2.93,0,0,0,1.06.72,3.62,3.62,0,0,0,1.46.27,3.71,3.71,0,0,0,1.47-.27,3,3,0,0,0,1-.72,3.13,3.13,0,0,0,.67-1.08A5.15,5.15,0,0,0,107.87,11.81Z"/><path d="M124.19,16.39a.63.63,0,0,1-.2.46.61.61,0,0,1-.45.19h-.89a.62.62,0,0,1-.46-.19.66.66,0,0,1-.19-.46V10.06a3.76,3.76,0,0,0-.89-2.76,3.72,3.72,0,0,0-4.9,0,3.68,3.68,0,0,0-.93,2.76v6.33a.65.65,0,0,1-.65.65h-.88a.65.65,0,0,1-.65-.65V5.21a.65.65,0,0,1,.65-.65h.88a.65.65,0,0,1,.65.65V6a4.48,4.48,0,0,1,1.36-1.11A4.64,4.64,0,0,1,119,4.32a5.71,5.71,0,0,1,2.09.37,4.61,4.61,0,0,1,2.71,2.75,6.19,6.19,0,0,1,.39,2.26Z"/><path d="M144.71,13.15l2.68-8a1.15,1.15,0,0,1,.27-.39.74.74,0,0,1,.55-.19H149a.58.58,0,0,1,.58.58.68.68,0,0,1,0,.19l-3.67,11a1.55,1.55,0,0,1-.25.48.57.57,0,0,1-.47.19h-.74a.56.56,0,0,1-.47-.2,3.07,3.07,0,0,1-.28-.47l-2.85-8-2.86,8a3,3,0,0,1-.27.47.58.58,0,0,1-.47.2h-.75a.55.55,0,0,1-.46-.19,1.57,1.57,0,0,1-.26-.48l-3.67-11a1.37,1.37,0,0,1,0-.19.53.53,0,0,1,.17-.41.54.54,0,0,1,.4-.17h.8a.74.74,0,0,1,.55.19,1.26,1.26,0,0,1,.26.39l2.69,8,2.88-8a1.33,1.33,0,0,1,.23-.39.6.6,0,0,1,.51-.19h.53a.64.64,0,0,1,.52.19,1.59,1.59,0,0,1,.23.39Z"/><path d="M163.35,16.39a.62.62,0,0,1-.19.46.61.61,0,0,1-.45.19h-.89a.65.65,0,0,1-.65-.65V10.06a3.8,3.8,0,0,0-.89-2.76,3.27,3.27,0,0,0-2.47-.92,3.33,3.33,0,0,0-2.44.92,3.72,3.72,0,0,0-.92,2.76v6.33a.65.65,0,0,1-.65.65h-.89a.61.61,0,0,1-.45-.19.62.62,0,0,1-.19-.46V.65a.62.62,0,0,1,.19-.46.61.61,0,0,1,.45-.19h.89a.62.62,0,0,1,.46.19.62.62,0,0,1,.19.46V6a4.36,4.36,0,0,1,1.36-1.11,4.64,4.64,0,0,1,2.36-.52,5.71,5.71,0,0,1,2.09.37,4.6,4.6,0,0,1,1.64,1.06A4.7,4.7,0,0,1,163,7.44a6.19,6.19,0,0,1,.38,2.26Z"/><path d="M171.94,4.32a6.15,6.15,0,0,1,2.31.4,5,5,0,0,1,2.87,2.78,6.9,6.9,0,0,1,.51,2.17,3.94,3.94,0,0,1,0,.52v1.25a3.28,3.28,0,0,1,0,.49,7.34,7.34,0,0,1-.53,2.18A4.81,4.81,0,0,1,176,15.79a5,5,0,0,1-1.73,1.09,6.84,6.84,0,0,1-4.61,0,5,5,0,0,1-1.73-1.09,5,5,0,0,1-1.14-1.68,6.77,6.77,0,0,1-.51-2.18c0-.13,0-.29,0-.49s0-.41,0-.63,0-.42,0-.62,0-.37,0-.52a6.9,6.9,0,0,1,.51-2.17,5,5,0,0,1,2.87-2.78A6.13,6.13,0,0,1,171.94,4.32Zm3.51,7.49a9.23,9.23,0,0,0,.05-1,9.93,9.93,0,0,0-.05-1,5.15,5.15,0,0,0-.31-1.34,3.15,3.15,0,0,0-.68-1.08,2.81,2.81,0,0,0-1.05-.72,4.11,4.11,0,0,0-2.93,0,2.89,2.89,0,0,0-1,.72,3.15,3.15,0,0,0-.68,1.08,5.15,5.15,0,0,0-.31,1.34,9.93,9.93,0,0,0-.05,1,9.23,9.23,0,0,0,.05,1,5.15,5.15,0,0,0,.31,1.34,3.15,3.15,0,0,0,.68,1.08,2.89,2.89,0,0,0,1,.72,4.11,4.11,0,0,0,2.93,0,2.81,2.81,0,0,0,1.05-.72,3.15,3.15,0,0,0,.68-1.08A5.15,5.15,0,0,0,175.45,11.81Z"/><path d="M189.3,12.84a4.54,4.54,0,0,0,.08.85,1.88,1.88,0,0,0,.3.69,1.4,1.4,0,0,0,.61.44,3,3,0,0,0,1,.16h1.28a.65.65,0,0,1,.64.64v.77a.62.62,0,0,1-.19.46.61.61,0,0,1-.45.19h-1.52a3.79,3.79,0,0,1-3-1.08,4.65,4.65,0,0,1-.94-3.12V6.62h-1.77a.62.62,0,0,1-.46-.19.61.61,0,0,1-.19-.45V5.21a.65.65,0,0,1,.65-.65h1.77V.65a.63.63,0,0,1,.2-.46.6.6,0,0,1,.45-.19h.89a.58.58,0,0,1,.45.19.63.63,0,0,1,.2.46V4.56h3a.61.61,0,0,1,.45.19.62.62,0,0,1,.19.46V6a.65.65,0,0,1-.64.64h-3Z"/><path d="M194.75,13.9a3.47,3.47,0,0,1,.38-1.68A3.66,3.66,0,0,1,196.19,11a5.54,5.54,0,0,1,1.57-.81,11.12,11.12,0,0,1,1.91-.48l3.38-.56V8.83a2.16,2.16,0,0,0-.8-1.83,3.23,3.23,0,0,0-2-.62,2.76,2.76,0,0,0-1.6.39,4,4,0,0,0-.92.91.73.73,0,0,1-.31.26A1.15,1.15,0,0,1,197,8h-.72a.65.65,0,0,1-.46-.2.5.5,0,0,1-.18-.45A2.29,2.29,0,0,1,196,6.29a3.63,3.63,0,0,1,1-1,6.25,6.25,0,0,1,1.47-.7,5.37,5.37,0,0,1,1.76-.28,6.23,6.23,0,0,1,2,.31,4.49,4.49,0,0,1,1.58.91,4.19,4.19,0,0,1,1,1.49,5.19,5.19,0,0,1,.37,2v7.32a.62.62,0,0,1-.19.46.61.61,0,0,1-.45.19h-.89a.65.65,0,0,1-.65-.65v-1a2.19,2.19,0,0,1-.67.8,4.84,4.84,0,0,1-1,.59,6.63,6.63,0,0,1-2.41.48A5.54,5.54,0,0,1,197.2,17a4.61,4.61,0,0,1-1.32-.71,3.25,3.25,0,0,1-.84-1.07A3.2,3.2,0,0,1,194.75,13.9Zm4.41,1.32a4.5,4.5,0,0,0,1.59-.27,3.69,3.69,0,0,0,1.23-.73,3,3,0,0,0,.79-1.12,3.52,3.52,0,0,0,.28-1.44v-.6l-2.83.46a6.84,6.84,0,0,0-2.4.77,1.55,1.55,0,0,0-.89,1.37,1.23,1.23,0,0,0,.12.52,1.62,1.62,0,0,0,.38.51,1.9,1.9,0,0,0,.69.38A3.13,3.13,0,0,0,199.16,15.22Z"/><path d="M210.92,11.76v4.63a.65.65,0,0,1-.65.65h-.89a.61.61,0,0,1-.45-.19.62.62,0,0,1-.19-.46V.65a.62.62,0,0,1,.19-.46.61.61,0,0,1,.45-.19h.89a.62.62,0,0,1,.46.19.62.62,0,0,1,.19.46V8.59L215.6,5,216,4.7a1.09,1.09,0,0,1,.57-.14h1.2a.54.54,0,0,1,.4.17.53.53,0,0,1,.17.41.78.78,0,0,1,0,.22.64.64,0,0,1-.23.26l-5.78,4.51L218.65,16a.89.89,0,0,1,.19.24.46.46,0,0,1,0,.21.58.58,0,0,1-.58.58h-1.12a1.29,1.29,0,0,1-.62-.14,1.87,1.87,0,0,1-.37-.27Z"/><path d="M219.73,9.6a6.13,6.13,0,0,1,.53-2.06,5.74,5.74,0,0,1,1.12-1.68,5.08,5.08,0,0,1,1.67-1.13,5.63,5.63,0,0,1,2.17-.41,6,6,0,0,1,2.32.42A4.75,4.75,0,0,1,229.28,6a5.34,5.34,0,0,1,1.1,1.92,7.66,7.66,0,0,1,.39,2.52V11a.65.65,0,0,1-.65.65h-8.26v.14a3.43,3.43,0,0,0,1,2.51,3.36,3.36,0,0,0,2.36.88,4.08,4.08,0,0,0,2-.38,4,4,0,0,0,1.07-.82,1.41,1.41,0,0,1,.34-.27,1,1,0,0,1,.43-.07h.72a.68.68,0,0,1,.48.19.49.49,0,0,1,.17.46,2.7,2.7,0,0,1-.41.95,3.69,3.69,0,0,1-1,1,6,6,0,0,1-1.59.74,7.36,7.36,0,0,1-2.22.3,5.37,5.37,0,0,1-2.16-.42,5.2,5.2,0,0,1-1.66-1.15A5.72,5.72,0,0,1,220.26,14a6.65,6.65,0,0,1-.53-2.17A10.21,10.21,0,0,1,219.73,9.6Zm2.13.07h6.75V9.6a3.08,3.08,0,0,0-.92-2.34,3.47,3.47,0,0,0-2.47-.88,3.65,3.65,0,0,0-1.29.23,3.29,3.29,0,0,0-1.06.65,3.14,3.14,0,0,0-.72,1,3.75,3.75,0,0,0-.29,1.32Z"/><path d="M240.78,13.58a1.12,1.12,0,0,0-.26-.75,2,2,0,0,0-.75-.52,9.46,9.46,0,0,0-1.29-.41c-.52-.12-1.12-.26-1.81-.4A4.74,4.74,0,0,1,234,10.14a3.38,3.38,0,0,1-.78-2.22,3.21,3.21,0,0,1,.29-1.37,3.37,3.37,0,0,1,.86-1.15,4,4,0,0,1,1.45-.79,6.63,6.63,0,0,1,2-.29,7.43,7.43,0,0,1,2.06.26,5.27,5.27,0,0,1,1.47.68,3.18,3.18,0,0,1,.91.87,1.83,1.83,0,0,1,.34.9.52.52,0,0,1-.18.46.66.66,0,0,1-.47.19h-.79a1.28,1.28,0,0,1-.35-.06.73.73,0,0,1-.37-.28,2.38,2.38,0,0,0-.92-.68,4.32,4.32,0,0,0-1.7-.28,3.45,3.45,0,0,0-1.78.41,1.26,1.26,0,0,0-.69,1.13,1.31,1.31,0,0,0,.19.73,1.46,1.46,0,0,0,.63.48,5.65,5.65,0,0,0,1.14.37c.47.12,1.06.25,1.76.41a8.35,8.35,0,0,1,1.85.61,4.38,4.38,0,0,1,1.2.84,2.88,2.88,0,0,1,.65,1,3.56,3.56,0,0,1,.19,1.18,3.06,3.06,0,0,1-.35,1.4,3.54,3.54,0,0,1-1,1.17A5.35,5.35,0,0,1,240,17a6.44,6.44,0,0,1-2.1.31,6.92,6.92,0,0,1-2.08-.29,6.27,6.27,0,0,1-1.56-.71,3.44,3.44,0,0,1-1-.91,1.75,1.75,0,0,1-.37-.92.54.54,0,0,1,.17-.46.62.62,0,0,1,.48-.19h.86a1.48,1.48,0,0,1,.34,0,.61.61,0,0,1,.36.27,2.42,2.42,0,0,0,1.05.82,4.53,4.53,0,0,0,1.75.29A4.63,4.63,0,0,0,239,15.1a3.75,3.75,0,0,0,.91-.34,2.09,2.09,0,0,0,.64-.52A1,1,0,0,0,240.78,13.58Z"/><path d="M254.43,12.84a3.82,3.82,0,0,0,.09.85,1.6,1.6,0,0,0,.3.69,1.29,1.29,0,0,0,.61.44,2.87,2.87,0,0,0,1,.16h1.27a.62.62,0,0,1,.46.19.65.65,0,0,1,.19.45v.77a.66.66,0,0,1-.19.46.62.62,0,0,1-.46.19h-1.51a3.79,3.79,0,0,1-3-1.08,4.6,4.6,0,0,1-.94-3.12V6.62h-1.78a.6.6,0,0,1-.45-.19.62.62,0,0,1-.2-.45V5.21a.63.63,0,0,1,.2-.46.6.6,0,0,1,.45-.19h1.78V.65a.62.62,0,0,1,.19-.46A.62.62,0,0,1,252.9,0h.88a.62.62,0,0,1,.46.19.62.62,0,0,1,.19.46V4.56h3.05a.62.62,0,0,1,.46.19.66.66,0,0,1,.19.46V6a.65.65,0,0,1-.19.45.62.62,0,0,1-.46.19h-3.05Z"/><path d="M271.85,16.39a.62.62,0,0,1-.19.46.61.61,0,0,1-.45.19h-.89a.62.62,0,0,1-.46-.19.66.66,0,0,1-.19-.46V10.06a3.76,3.76,0,0,0-.89-2.76,3.72,3.72,0,0,0-4.9,0,3.68,3.68,0,0,0-.93,2.76v6.33a.65.65,0,0,1-.65.65h-.88a.65.65,0,0,1-.65-.65V.65A.62.62,0,0,1,261,.19a.62.62,0,0,1,.46-.19h.88a.62.62,0,0,1,.46.19.62.62,0,0,1,.19.46V6a4.48,4.48,0,0,1,1.36-1.11,4.64,4.64,0,0,1,2.36-.52,5.71,5.71,0,0,1,2.09.37,4.61,4.61,0,0,1,2.71,2.75,6.19,6.19,0,0,1,.38,2.26Z"/><path d="M274.76,9.6a6.13,6.13,0,0,1,.53-2.06,5.77,5.77,0,0,1,1.13-1.68,4.94,4.94,0,0,1,1.66-1.13,5.65,5.65,0,0,1,2.18-.41,6,6,0,0,1,2.31.42A4.75,4.75,0,0,1,284.31,6a5.51,5.51,0,0,1,1.11,1.92,7.94,7.94,0,0,1,.38,2.52V11a.62.62,0,0,1-.19.46.66.66,0,0,1-.46.19H276.9v.14a3.21,3.21,0,0,0,3.36,3.39,4.1,4.1,0,0,0,2-.38A4,4,0,0,0,283.3,14a1.41,1.41,0,0,1,.34-.27,1,1,0,0,1,.43-.07h.72a.68.68,0,0,1,.48.19.47.47,0,0,1,.17.46,2.53,2.53,0,0,1-.41.95,3.69,3.69,0,0,1-1,1,6,6,0,0,1-1.58.74,7.45,7.45,0,0,1-2.22.3,5.34,5.34,0,0,1-2.16-.42,5.14,5.14,0,0,1-1.67-1.15A5.91,5.91,0,0,1,275.29,14a6.65,6.65,0,0,1-.53-2.17A10.21,10.21,0,0,1,274.76,9.6Zm2.14.07h6.74V9.6a3.08,3.08,0,0,0-.92-2.34,3.46,3.46,0,0,0-2.46-.88,3.66,3.66,0,0,0-1.3.23,3.29,3.29,0,0,0-1.06.65,3,3,0,0,0-.71,1,3.36,3.36,0,0,0-.29,1.32Z"/><path d="M300.46,4.32a5.35,5.35,0,0,1,2.1.4,5.13,5.13,0,0,1,1.7,1.12,5.57,5.57,0,0,1,1.15,1.79,7.62,7.62,0,0,1,.5,2.38q0,.36,0,.78t0,.78a7.5,7.5,0,0,1-.5,2.37,5.51,5.51,0,0,1-1.15,1.8,4.9,4.9,0,0,1-1.7,1.14,5.35,5.35,0,0,1-2.1.4,4.83,4.83,0,0,1-2.35-.49,4.27,4.27,0,0,1-1.37-1.14v.74a.62.62,0,0,1-.19.46.61.61,0,0,1-.45.19h-.89a.65.65,0,0,1-.65-.65V.65a.62.62,0,0,1,.19-.46.62.62,0,0,1,.46-.19h.89a.61.61,0,0,1,.45.19.62.62,0,0,1,.19.46V6a4.56,4.56,0,0,1,1.35-1.11A4.63,4.63,0,0,1,300.46,4.32Zm-3.72,7.51a3.71,3.71,0,0,0,1.06,2.47,3.31,3.31,0,0,0,2.42.92,3.17,3.17,0,0,0,2.49-1,4.45,4.45,0,0,0,1-2.74c0-.45,0-.89,0-1.34a4.45,4.45,0,0,0-1-2.74,3.17,3.17,0,0,0-2.49-1,3.25,3.25,0,0,0-2.42.93,4.1,4.1,0,0,0-1.06,2.63,7.69,7.69,0,0,0-.05.94A7.75,7.75,0,0,0,296.74,11.83Z"/><path d="M308.79,5.21a.65.65,0,0,1,.65-.65h.89a.6.6,0,0,1,.45.19.63.63,0,0,1,.2.46v6.33a4,4,0,0,0,.82,2.76,3.58,3.58,0,0,0,4.79,0,3.84,3.84,0,0,0,.86-2.76V5.21a.63.63,0,0,1,.2-.46.6.6,0,0,1,.45-.19H319a.65.65,0,0,1,.65.65V16.39A.65.65,0,0,1,319,17h-.89a.6.6,0,0,1-.45-.19.63.63,0,0,1-.2-.46v-.74a4.51,4.51,0,0,1-1.29,1.11,4.34,4.34,0,0,1-2.31.52,5.51,5.51,0,0,1-2.06-.37,4.66,4.66,0,0,1-1.61-1.06,4.58,4.58,0,0,1-1-1.68,6.63,6.63,0,0,1-.36-2.27Z"/><path d="M330.34,13.58a1.11,1.11,0,0,0-.25-.75,2.11,2.11,0,0,0-.75-.52,9.46,9.46,0,0,0-1.29-.41c-.52-.12-1.12-.26-1.81-.4a4.67,4.67,0,0,1-2.72-1.36,3.46,3.46,0,0,1-.5-3.59,3.28,3.28,0,0,1,.87-1.15,4,4,0,0,1,1.45-.79,6.63,6.63,0,0,1,2.05-.29,7.35,7.35,0,0,1,2.05.26,5.21,5.21,0,0,1,1.48.68,3.31,3.31,0,0,1,.91.87,1.83,1.83,0,0,1,.34.9.58.58,0,0,1-.18.46.67.67,0,0,1-.47.19h-.79a1.28,1.28,0,0,1-.35-.06.7.7,0,0,1-.37-.28,2.34,2.34,0,0,0-.93-.68,4.23,4.23,0,0,0-1.69-.28,3.49,3.49,0,0,0-1.79.41,1.27,1.27,0,0,0-.68,1.13,1.24,1.24,0,0,0,.19.73,1.49,1.49,0,0,0,.62.48,5.65,5.65,0,0,0,1.14.37l1.77.41a8.53,8.53,0,0,1,1.85.61,4.71,4.71,0,0,1,1.2.84,2.88,2.88,0,0,1,.65,1,3.84,3.84,0,0,1,.19,1.18,3.06,3.06,0,0,1-.35,1.4,3.57,3.57,0,0,1-1,1.17,5.17,5.17,0,0,1-1.57.82,6.53,6.53,0,0,1-2.1.31,7,7,0,0,1-2.09-.29,6.27,6.27,0,0,1-1.56-.71,3.52,3.52,0,0,1-1-.91,1.78,1.78,0,0,1-.38-.92.57.57,0,0,1,.17-.46.65.65,0,0,1,.48-.19H324a1.47,1.47,0,0,1,.33,0,.56.56,0,0,1,.36.27,2.51,2.51,0,0,0,1.06.82,5.07,5.07,0,0,0,2.79.17,3.83,3.83,0,0,0,.92-.34,2,2,0,0,0,.63-.52A1,1,0,0,0,330.34,13.58Z"/><path d="M7.4,41.64a3.82,3.82,0,0,0,.09.85,1.6,1.6,0,0,0,.3.69,1.34,1.34,0,0,0,.61.44,2.87,2.87,0,0,0,1,.16h1.27a.62.62,0,0,1,.46.19.65.65,0,0,1,.19.45v.77a.66.66,0,0,1-.19.46.62.62,0,0,1-.46.19H9.18a3.79,3.79,0,0,1-3-1.08,4.6,4.6,0,0,1-.94-3.12V35.42H3.44A.6.6,0,0,1,3,35.23a.61.61,0,0,1-.19-.45V34A.62.62,0,0,1,3,33.55a.6.6,0,0,1,.45-.19H5.22V29.45a.65.65,0,0,1,.65-.65h.89a.61.61,0,0,1,.45.19.62.62,0,0,1,.19.46v3.91h3a.65.65,0,0,1,.65.65v.77a.61.61,0,0,1-.19.45.62.62,0,0,1-.46.19h-3Z"/><path d="M18.85,33.12a6.18,6.18,0,0,1,2.31.4A5,5,0,0,1,24,36.3a6.9,6.9,0,0,1,.52,2.17,4.1,4.1,0,0,1,0,.52v1.25a3.48,3.48,0,0,1,0,.49A7.66,7.66,0,0,1,24,42.91a4.83,4.83,0,0,1-1.13,1.68,5,5,0,0,1-1.72,1.09,6.18,6.18,0,0,1-2.31.4,6.13,6.13,0,0,1-2.3-.4,5,5,0,0,1-2.87-2.77,7,7,0,0,1-.52-2.18c0-.13,0-.29,0-.49s0-.41,0-.63,0-.42,0-.62,0-.37,0-.52a7.19,7.19,0,0,1,.52-2.17,5,5,0,0,1,1.14-1.69,5,5,0,0,1,1.73-1.09A6.13,6.13,0,0,1,18.85,33.12Zm3.5,7.49a7.23,7.23,0,0,0,0-1,7.72,7.72,0,0,0,0-1A4.77,4.77,0,0,0,22,37.25a3.13,3.13,0,0,0-.67-1.08,3,3,0,0,0-1.05-.72,3.71,3.71,0,0,0-1.47-.27,3.62,3.62,0,0,0-1.46.27,2.93,2.93,0,0,0-1.06.72,3.13,3.13,0,0,0-.67,1.08,5.15,5.15,0,0,0-.31,1.34,9.93,9.93,0,0,0,0,1,9.23,9.23,0,0,0,0,1A5.15,5.15,0,0,0,15.66,42,3.13,3.13,0,0,0,16.33,43a2.93,2.93,0,0,0,1.06.72,3.62,3.62,0,0,0,1.46.27,3.71,3.71,0,0,0,1.47-.27A3,3,0,0,0,21.37,43,3.13,3.13,0,0,0,22,42,4.77,4.77,0,0,0,22.35,40.61Z"/><path d="M35.05,40.44a4.92,4.92,0,0,0,.42,1.63,3.75,3.75,0,0,0,.79,1.11,3.07,3.07,0,0,0,1.05.63,3.36,3.36,0,0,0,1.17.21,4.12,4.12,0,0,0,2-.44,2.8,2.8,0,0,0,1.27-1.44,1.39,1.39,0,0,1,.35-.51.73.73,0,0,1,.45-.13h.72a.63.63,0,0,1,.46.19.51.51,0,0,1,.18.45,3,3,0,0,1-.37,1.26,4.18,4.18,0,0,1-1,1.28,6.21,6.21,0,0,1-1.68,1,6.12,6.12,0,0,1-2.32.41,5.92,5.92,0,0,1-2.34-.43,5,5,0,0,1-1.72-1.18,5.28,5.28,0,0,1-1.11-1.75,6.65,6.65,0,0,1-.44-2.16c0-.26,0-.57,0-1a7.09,7.09,0,0,1,0-1,7.57,7.57,0,0,1,.49-2.16,5.4,5.4,0,0,1,1.09-1.75,5,5,0,0,1,1.71-1.18,5.79,5.79,0,0,1,2.32-.43,6.12,6.12,0,0,1,2.32.41,6.21,6.21,0,0,1,1.68,1,4.18,4.18,0,0,1,1,1.28,3,3,0,0,1,.37,1.26.51.51,0,0,1-.18.45.63.63,0,0,1-.46.19h-.72a.73.73,0,0,1-.45-.13,1.39,1.39,0,0,1-.35-.51,2.8,2.8,0,0,0-1.27-1.44,4.12,4.12,0,0,0-2-.44,3.46,3.46,0,0,0-1.18.21,2.93,2.93,0,0,0-1.06.63,3.58,3.58,0,0,0-.79,1.11,4.48,4.48,0,0,0-.4,1.63A9.42,9.42,0,0,0,35.05,40.44Z"/><path d="M51.87,33.12a6.15,6.15,0,0,1,2.31.4,5,5,0,0,1,2.87,2.78,6.9,6.9,0,0,1,.51,2.17,3.94,3.94,0,0,1,0,.52v1.25a3.28,3.28,0,0,1,0,.49A7.34,7.34,0,0,1,57,42.91a4.81,4.81,0,0,1-1.12,1.68,5,5,0,0,1-1.73,1.09,6.84,6.84,0,0,1-4.61,0,5,5,0,0,1-1.73-1.09,5,5,0,0,1-1.14-1.68,6.77,6.77,0,0,1-.51-2.18c0-.13,0-.29,0-.49s0-.41,0-.63,0-.42,0-.62,0-.37,0-.52a6.9,6.9,0,0,1,.51-2.17,5,5,0,0,1,2.87-2.78A6.13,6.13,0,0,1,51.87,33.12Zm3.51,7.49a9.23,9.23,0,0,0,0-1,9.93,9.93,0,0,0,0-1,5.15,5.15,0,0,0-.31-1.34,3.15,3.15,0,0,0-.68-1.08,2.81,2.81,0,0,0-1-.72,4.11,4.11,0,0,0-2.93,0,3,3,0,0,0-1.06.72,3.29,3.29,0,0,0-.67,1.08,5.15,5.15,0,0,0-.31,1.34,9.93,9.93,0,0,0,0,1,9.23,9.23,0,0,0,0,1A5.15,5.15,0,0,0,48.68,42,3.29,3.29,0,0,0,49.35,43a3,3,0,0,0,1.06.72,4.11,4.11,0,0,0,2.93,0,2.81,2.81,0,0,0,1-.72A3.15,3.15,0,0,0,55.07,42,5.15,5.15,0,0,0,55.38,40.61Z"/><path d="M62.79,34.75c.15-.19.32-.39.51-.59a3.09,3.09,0,0,1,.66-.52,3.38,3.38,0,0,1,.88-.38A4.46,4.46,0,0,1,66,33.12a4.94,4.94,0,0,1,2.43.54A4,4,0,0,1,70,35.21a7.4,7.4,0,0,1,.66-.82,3.81,3.81,0,0,1,.81-.67,3.88,3.88,0,0,1,1.06-.44,5.13,5.13,0,0,1,1.38-.16,4.16,4.16,0,0,1,3.53,1.45,6.45,6.45,0,0,1,1.1,4v6.65a.65.65,0,0,1-.65.65H77a.61.61,0,0,1-.45-.19.62.62,0,0,1-.19-.46V38.78a4.23,4.23,0,0,0-.72-2.72,2.6,2.6,0,0,0-2.12-.88,2.68,2.68,0,0,0-2,.84,3.72,3.72,0,0,0-.78,2.6v6.57a.65.65,0,0,1-.65.65h-.88a.65.65,0,0,1-.65-.65V38.78a4.23,4.23,0,0,0-.72-2.72,2.6,2.6,0,0,0-2.11-.88,2.7,2.7,0,0,0-2.06.84,3.72,3.72,0,0,0-.78,2.6v6.57a.62.62,0,0,1-.19.46.61.61,0,0,1-.45.19h-.89a.65.65,0,0,1-.65-.65V34a.65.65,0,0,1,.65-.65h.89a.61.61,0,0,1,.45.19.62.62,0,0,1,.19.46Z"/><path d="M84.16,34.75a6.29,6.29,0,0,1,.5-.59,3.09,3.09,0,0,1,.66-.52,3.46,3.46,0,0,1,.87-.38,4.6,4.6,0,0,1,1.18-.14,4.87,4.87,0,0,1,2.42.54,3.85,3.85,0,0,1,1.52,1.55,8.76,8.76,0,0,1,.66-.82,3.81,3.81,0,0,1,.81-.67,4,4,0,0,1,1.06-.44,5.13,5.13,0,0,1,1.38-.16,4.15,4.15,0,0,1,3.53,1.45,6.45,6.45,0,0,1,1.1,4v6.65a.65.65,0,0,1-.65.65h-.89a.61.61,0,0,1-.45-.19.62.62,0,0,1-.19-.46V38.78A4.23,4.23,0,0,0,97,36.06a2.6,2.6,0,0,0-2.11-.88,2.68,2.68,0,0,0-2.06.84,3.72,3.72,0,0,0-.78,2.6v6.57a.65.65,0,0,1-.65.65h-.88a.65.65,0,0,1-.65-.65V38.78a4.23,4.23,0,0,0-.72-2.72A2.58,2.58,0,0,0,87,35.18a2.65,2.65,0,0,0-2,.84,3.72,3.72,0,0,0-.78,2.6v6.57a.63.63,0,0,1-.2.46.6.6,0,0,1-.45.19h-.89a.65.65,0,0,1-.65-.65V34a.65.65,0,0,1,.65-.65h.89a.6.6,0,0,1,.45.19.63.63,0,0,1,.2.46Z"/><path d="M103.21,34a.65.65,0,0,1,.65-.65h.89a.6.6,0,0,1,.45.19.63.63,0,0,1,.2.46v6.33a4,4,0,0,0,.82,2.76,3.58,3.58,0,0,0,4.79,0,3.84,3.84,0,0,0,.86-2.76V34a.63.63,0,0,1,.2-.46.6.6,0,0,1,.45-.19h.89a.65.65,0,0,1,.65.65V45.19a.65.65,0,0,1-.65.65h-.89a.6.6,0,0,1-.45-.19.63.63,0,0,1-.2-.46v-.74a4.51,4.51,0,0,1-1.29,1.11,4.34,4.34,0,0,1-2.31.52,5.51,5.51,0,0,1-2.06-.37,4.66,4.66,0,0,1-1.61-1.06,4.58,4.58,0,0,1-1-1.68,6.63,6.63,0,0,1-.36-2.27Z"/><path d="M120.92,41.64a3.82,3.82,0,0,0,.09.85,1.6,1.6,0,0,0,.3.69,1.29,1.29,0,0,0,.61.44,2.87,2.87,0,0,0,1,.16h1.27a.62.62,0,0,1,.46.19.65.65,0,0,1,.19.45v.77a.66.66,0,0,1-.19.46.62.62,0,0,1-.46.19H122.7a3.79,3.79,0,0,1-3-1.08,4.6,4.6,0,0,1-.94-3.12V35.42H117a.6.6,0,0,1-.45-.19.62.62,0,0,1-.2-.45V34a.63.63,0,0,1,.2-.46.6.6,0,0,1,.45-.19h1.78V29.45a.65.65,0,0,1,.65-.65h.88a.65.65,0,0,1,.65.65v3.91h3a.62.62,0,0,1,.46.19.66.66,0,0,1,.19.46v.77a.65.65,0,0,1-.19.45.62.62,0,0,1-.46.19h-3Z"/><path d="M126.68,38.4a6.38,6.38,0,0,1,.53-2.06,5.77,5.77,0,0,1,1.13-1.68A4.88,4.88,0,0,1,130,33.53a5.59,5.59,0,0,1,2.17-.41,6.11,6.11,0,0,1,2.32.42,4.75,4.75,0,0,1,1.74,1.21,5.65,5.65,0,0,1,1.1,1.92,7.67,7.67,0,0,1,.38,2.52v.65a.62.62,0,0,1-.19.46.65.65,0,0,1-.45.19h-8.26v.14A3.22,3.22,0,0,0,132.18,44a4.1,4.1,0,0,0,2-.38,4.2,4.2,0,0,0,1.07-.82,1.4,1.4,0,0,1,.33-.27,1,1,0,0,1,.44-.07h.71a.68.68,0,0,1,.48.19.47.47,0,0,1,.17.46,2.38,2.38,0,0,1-.41.95,3.54,3.54,0,0,1-1,1,6,6,0,0,1-1.58.74,7.36,7.36,0,0,1-2.22.3,5.34,5.34,0,0,1-2.16-.42,5.14,5.14,0,0,1-1.67-1.15,5.91,5.91,0,0,1-1.14-1.73,6.91,6.91,0,0,1-.53-2.17A10.21,10.21,0,0,1,126.68,38.4Zm2.14.07h6.74V38.4a3,3,0,0,0-.92-2.34,3.46,3.46,0,0,0-2.46-.88,3.66,3.66,0,0,0-1.3.23,3.15,3.15,0,0,0-1,.65,2.86,2.86,0,0,0-.72,1,3.54,3.54,0,0,0-.29,1.32Z"/><path d="M149.24,41.64a3.82,3.82,0,0,0,.09.85,1.6,1.6,0,0,0,.3.69,1.29,1.29,0,0,0,.61.44,2.87,2.87,0,0,0,1,.16h1.27A.62.62,0,0,1,153,44a.65.65,0,0,1,.19.45v.77a.66.66,0,0,1-.19.46.62.62,0,0,1-.46.19H151a3.83,3.83,0,0,1-3-1.08,4.65,4.65,0,0,1-.93-3.12V35.42h-1.78a.58.58,0,0,1-.45-.19.62.62,0,0,1-.2-.45V34a.63.63,0,0,1,.2-.46.58.58,0,0,1,.45-.19h1.78V29.45a.65.65,0,0,1,.65-.65h.88a.65.65,0,0,1,.65.65v3.91h3a.62.62,0,0,1,.46.19.66.66,0,0,1,.19.46v.77a.65.65,0,0,1-.19.45.62.62,0,0,1-.46.19h-3Z"/><path d="M160.69,33.12a6.13,6.13,0,0,1,2.3.4,5,5,0,0,1,1.73,1.09,5,5,0,0,1,1.14,1.69,7.19,7.19,0,0,1,.52,2.17c0,.15,0,.32,0,.52v1.25c0,.2,0,.36,0,.49a7.66,7.66,0,0,1-.53,2.18,4.83,4.83,0,0,1-1.13,1.68A5,5,0,0,1,163,45.68a6.81,6.81,0,0,1-4.6,0,5,5,0,0,1-2.87-2.77,7,7,0,0,1-.52-2.18c0-.13,0-.29,0-.49s0-.41,0-.63,0-.42,0-.62,0-.37,0-.52a7.19,7.19,0,0,1,.52-2.17,5,5,0,0,1,1.14-1.69,5,5,0,0,1,1.73-1.09A6.13,6.13,0,0,1,160.69,33.12Zm3.5,7.49a7.23,7.23,0,0,0,.05-1,7.72,7.72,0,0,0-.05-1,4.77,4.77,0,0,0-.31-1.34,3.13,3.13,0,0,0-.67-1.08,2.93,2.93,0,0,0-1.06-.72,4.08,4.08,0,0,0-2.92,0,2.93,2.93,0,0,0-1.06.72,3.13,3.13,0,0,0-.67,1.08,4.77,4.77,0,0,0-.31,1.34,7.72,7.72,0,0,0-.05,1,7.23,7.23,0,0,0,.05,1A4.77,4.77,0,0,0,157.5,42a3.13,3.13,0,0,0,.67,1.08,2.93,2.93,0,0,0,1.06.72,4.08,4.08,0,0,0,2.92,0,2.93,2.93,0,0,0,1.06-.72,3.13,3.13,0,0,0,.67-1.08A4.77,4.77,0,0,0,164.19,40.61Z"/><path d="M186.47,42l2.68-8a1.15,1.15,0,0,1,.27-.39.74.74,0,0,1,.55-.19h.79a.58.58,0,0,1,.58.58.68.68,0,0,1,0,.19l-3.67,11a1.55,1.55,0,0,1-.25.48.57.57,0,0,1-.47.19h-.74a.56.56,0,0,1-.47-.2,2.43,2.43,0,0,1-.28-.47l-2.85-8-2.86,8a2.43,2.43,0,0,1-.28.47.54.54,0,0,1-.46.2h-.75a.54.54,0,0,1-.46-.19,1.57,1.57,0,0,1-.26-.48l-3.67-11a1.37,1.37,0,0,1,0-.19.53.53,0,0,1,.17-.41.54.54,0,0,1,.4-.17h.8a.74.74,0,0,1,.55.19,1.26,1.26,0,0,1,.26.39l2.69,8,2.88-8a1.33,1.33,0,0,1,.23-.39.6.6,0,0,1,.51-.19h.53a.64.64,0,0,1,.52.19,1.59,1.59,0,0,1,.23.39Z"/><path d="M198.78,33.12a6.13,6.13,0,0,1,2.3.4A5,5,0,0,1,204,36.3a6.9,6.9,0,0,1,.51,2.17,3.94,3.94,0,0,1,0,.52v1.25a3.28,3.28,0,0,1,0,.49,7.66,7.66,0,0,1-.52,2.18,4.83,4.83,0,0,1-1.13,1.68,5,5,0,0,1-1.73,1.09,6.84,6.84,0,0,1-4.61,0,5.05,5.05,0,0,1-2.87-2.77,7,7,0,0,1-.51-2.18c0-.13,0-.29,0-.49s0-.41,0-.63,0-.42,0-.62,0-.37,0-.52a7.18,7.18,0,0,1,.51-2.17,5.06,5.06,0,0,1,1.15-1.69,5,5,0,0,1,1.72-1.09A6.18,6.18,0,0,1,198.78,33.12Zm3.5,7.49a9.23,9.23,0,0,0,.05-1,9.93,9.93,0,0,0-.05-1,5.15,5.15,0,0,0-.31-1.34,3.13,3.13,0,0,0-.67-1.08,2.93,2.93,0,0,0-1.06-.72,3.62,3.62,0,0,0-1.46-.27,3.71,3.71,0,0,0-1.47.27,2.89,2.89,0,0,0-1.05.72,3.13,3.13,0,0,0-.67,1.08,5.15,5.15,0,0,0-.32,1.34,10.2,10.2,0,0,0,0,1,9.53,9.53,0,0,0,0,1,5.15,5.15,0,0,0,.32,1.34,3.13,3.13,0,0,0,.67,1.08,2.89,2.89,0,0,0,1.05.72,3.71,3.71,0,0,0,1.47.27,3.62,3.62,0,0,0,1.46-.27A2.93,2.93,0,0,0,201.3,43,3.13,3.13,0,0,0,202,42,5.15,5.15,0,0,0,202.28,40.61Z"/><path d="M213.85,33.36a.6.6,0,0,1,.45.19.63.63,0,0,1,.2.46v.77a.62.62,0,0,1-.2.45.6.6,0,0,1-.45.19h-1.39a2.44,2.44,0,0,0-2.76,2.76v7a.66.66,0,0,1-.19.46.63.63,0,0,1-.46.19h-.89a.62.62,0,0,1-.46-.19.66.66,0,0,1-.19-.46V34a.66.66,0,0,1,.19-.46.62.62,0,0,1,.46-.19h.89a.63.63,0,0,1,.46.19.66.66,0,0,1,.19.46v.74a2.94,2.94,0,0,1,1.15-1,3.84,3.84,0,0,1,1.75-.34Z"/><path d="M218.77,40.56v4.63a.66.66,0,0,1-.19.46.62.62,0,0,1-.46.19h-.89a.61.61,0,0,1-.45-.19.62.62,0,0,1-.19-.46V29.45a.62.62,0,0,1,.19-.46.61.61,0,0,1,.45-.19h.89a.62.62,0,0,1,.46.19.66.66,0,0,1,.19.46v7.94l4.68-3.62a3.61,3.61,0,0,1,.37-.27,1.08,1.08,0,0,1,.56-.14h1.21a.54.54,0,0,1,.4.17.57.57,0,0,1,.17.41.54.54,0,0,1,0,.22.6.6,0,0,1-.22.26l-5.79,4.51,6.39,5.88a.89.89,0,0,1,.19.24.46.46,0,0,1,.05.21.58.58,0,0,1-.58.58H225a1.28,1.28,0,0,1-.61-.14,1.87,1.87,0,0,1-.37-.27Z"/><path d="M237.44,33.36h3.05a.58.58,0,0,1,.45.19.63.63,0,0,1,.2.46v.77a.62.62,0,0,1-.2.45.58.58,0,0,1-.45.19h-3.05v9.77a.65.65,0,0,1-.65.65h-.89a.61.61,0,0,1-.45-.19.62.62,0,0,1-.19-.46V35.42h-2a.62.62,0,0,1-.46-.19.65.65,0,0,1-.19-.45V34a.66.66,0,0,1,.19-.46.62.62,0,0,1,.46-.19h2v-1.2a4.41,4.41,0,0,1,.93-3.06,4,4,0,0,1,3-1h1.51a.63.63,0,0,1,.46.19.66.66,0,0,1,.19.46v.77a.65.65,0,0,1-.19.45.63.63,0,0,1-.46.19h-1.27a2.87,2.87,0,0,0-1,.16,1.29,1.29,0,0,0-.61.44,1.74,1.74,0,0,0-.31.69,4.54,4.54,0,0,0-.08.85Z"/><path d="M248.17,33.12a6.13,6.13,0,0,1,2.3.4,5,5,0,0,1,2.87,2.78,7.19,7.19,0,0,1,.52,2.17c0,.15,0,.32,0,.52v1.25c0,.2,0,.36,0,.49a7.66,7.66,0,0,1-.53,2.18,4.83,4.83,0,0,1-1.13,1.68,5,5,0,0,1-1.73,1.09,6.84,6.84,0,0,1-4.61,0A5,5,0,0,1,243,42.91a6.77,6.77,0,0,1-.52-2.18c0-.13,0-.29,0-.49s0-.41,0-.63,0-.42,0-.62,0-.37,0-.52A6.9,6.9,0,0,1,243,36.3a5,5,0,0,1,2.86-2.78A6.18,6.18,0,0,1,248.17,33.12Zm3.5,7.49a9.23,9.23,0,0,0,.05-1,9.93,9.93,0,0,0-.05-1,5.15,5.15,0,0,0-.31-1.34,3.13,3.13,0,0,0-.67-1.08,2.93,2.93,0,0,0-1.06-.72,3.62,3.62,0,0,0-1.46-.27,3.71,3.71,0,0,0-1.47.27,3,3,0,0,0-1,.72,3.13,3.13,0,0,0-.67,1.08,4.77,4.77,0,0,0-.31,1.34,7.72,7.72,0,0,0,0,1,7.23,7.23,0,0,0,0,1A4.77,4.77,0,0,0,245,42a3.13,3.13,0,0,0,.67,1.08,3,3,0,0,0,1,.72,3.71,3.71,0,0,0,1.47.27,3.62,3.62,0,0,0,1.46-.27,2.93,2.93,0,0,0,1.06-.72,3.13,3.13,0,0,0,.67-1.08A5.15,5.15,0,0,0,251.67,40.61Z"/><path d="M263.24,33.36a.62.62,0,0,1,.46.19.66.66,0,0,1,.19.46v.77a.65.65,0,0,1-.19.45.62.62,0,0,1-.46.19h-1.39a2.44,2.44,0,0,0-2.76,2.76v7a.66.66,0,0,1-.19.46.62.62,0,0,1-.46.19h-.89a.6.6,0,0,1-.45-.19.63.63,0,0,1-.2-.46V34a.63.63,0,0,1,.2-.46.6.6,0,0,1,.45-.19h.89a.62.62,0,0,1,.46.19.66.66,0,0,1,.19.46v.74a2.94,2.94,0,0,1,1.15-1,3.84,3.84,0,0,1,1.75-.34Z"/><path d="M270.39,42.7a3.47,3.47,0,0,1,.39-1.68,3.63,3.63,0,0,1,1.05-1.23A5.67,5.67,0,0,1,273.4,39a11.6,11.6,0,0,1,1.91-.48l3.39-.56v-.31a2.14,2.14,0,0,0-.81-1.83,3.18,3.18,0,0,0-2-.62,2.74,2.74,0,0,0-1.6.39,3.79,3.79,0,0,0-.92.91.73.73,0,0,1-.31.26,1.19,1.19,0,0,1-.46.08h-.72a.67.67,0,0,1-.47-.2.55.55,0,0,1-.18-.45,2.4,2.4,0,0,1,.42-1.08,3.81,3.81,0,0,1,1-1,6,6,0,0,1,1.46-.7,5.47,5.47,0,0,1,1.77-.28,6.12,6.12,0,0,1,2,.31,4.44,4.44,0,0,1,1.59.91,4.19,4.19,0,0,1,1,1.49,5.19,5.19,0,0,1,.37,2v7.32a.65.65,0,0,1-.65.65h-.88a.65.65,0,0,1-.65-.65v-1a2.23,2.23,0,0,1-.68.8,4.54,4.54,0,0,1-1,.59,6.34,6.34,0,0,1-1.22.36,6.48,6.48,0,0,1-1.19.12,5.49,5.49,0,0,1-1.72-.26,4.36,4.36,0,0,1-1.32-.71,3.12,3.12,0,0,1-.84-1.07A3.06,3.06,0,0,1,270.39,42.7ZM274.81,44a4.48,4.48,0,0,0,1.58-.27,3.73,3.73,0,0,0,1.24-.73,3.08,3.08,0,0,0,.79-1.12,3.7,3.7,0,0,0,.28-1.44v-.6l-2.84.46a7,7,0,0,0-2.4.77,1.56,1.56,0,0,0-.88,1.37,1.23,1.23,0,0,0,.12.52,1.48,1.48,0,0,0,.38.51,1.82,1.82,0,0,0,.69.38A3.05,3.05,0,0,0,274.81,44Z"/><path d="M293.29,49.82a1.37,1.37,0,0,1-.24.39.58.58,0,0,1-.46.19h-1a.58.58,0,0,1-.58-.58.38.38,0,0,1,0-.16l2.3-5L288.61,34.1a.38.38,0,0,1,0-.16.58.58,0,0,1,.58-.58h1a.56.56,0,0,1,.46.19,1.37,1.37,0,0,1,.24.39l3.7,8.16,3.74-8.16a1.37,1.37,0,0,1,.24-.39.56.56,0,0,1,.46-.19h1a.58.58,0,0,1,.58.58.38.38,0,0,1,0,.16Z"/><path d="M301.93,38.4a6.13,6.13,0,0,1,.53-2.06,5.74,5.74,0,0,1,1.12-1.68,5,5,0,0,1,1.67-1.13,5.59,5.59,0,0,1,2.17-.41,6,6,0,0,1,2.32.42,4.75,4.75,0,0,1,1.74,1.21,5.34,5.34,0,0,1,1.1,1.92,7.66,7.66,0,0,1,.39,2.52v.65a.65.65,0,0,1-.65.65h-8.26v.14a3.43,3.43,0,0,0,1,2.51,3.36,3.36,0,0,0,2.36.88,4.1,4.1,0,0,0,2-.38,4,4,0,0,0,1.07-.82,1.41,1.41,0,0,1,.34-.27,1,1,0,0,1,.43-.07H312a.68.68,0,0,1,.48.19.49.49,0,0,1,.17.46,2.7,2.7,0,0,1-.41.95,3.69,3.69,0,0,1-1,1,6,6,0,0,1-1.59.74,7.36,7.36,0,0,1-2.22.3,5.34,5.34,0,0,1-2.16-.42,5.1,5.1,0,0,1-1.66-1.15,5.54,5.54,0,0,1-1.14-1.73,6.65,6.65,0,0,1-.53-2.17A10.21,10.21,0,0,1,301.93,38.4Zm2.13.07h6.75V38.4a3.05,3.05,0,0,0-.93-2.34,3.43,3.43,0,0,0-2.46-.88,3.65,3.65,0,0,0-1.29.23,3.29,3.29,0,0,0-1.06.65,3.14,3.14,0,0,0-.72,1,3.75,3.75,0,0,0-.29,1.32Z"/><path d="M315,42.7a3.47,3.47,0,0,1,.39-1.68,3.75,3.75,0,0,1,1.05-1.23A5.74,5.74,0,0,1,318,39a11.24,11.24,0,0,1,1.9-.48l3.39-.56v-.31a2.14,2.14,0,0,0-.81-1.83,3.18,3.18,0,0,0-2-.62,2.74,2.74,0,0,0-1.6.39,4,4,0,0,0-.92.91.73.73,0,0,1-.31.26,1.15,1.15,0,0,1-.46.08h-.72a.69.69,0,0,1-.47-.2.55.55,0,0,1-.18-.45,2.52,2.52,0,0,1,.42-1.08,3.81,3.81,0,0,1,1-1,6.07,6.07,0,0,1,1.47-.7,5.37,5.37,0,0,1,1.76-.28,6.12,6.12,0,0,1,2,.31,4.44,4.44,0,0,1,1.59.91,4.19,4.19,0,0,1,1,1.49,5.19,5.19,0,0,1,.37,2v7.32a.65.65,0,0,1-.65.65h-.88a.65.65,0,0,1-.65-.65v-1a2.3,2.3,0,0,1-.67.8,4.84,4.84,0,0,1-1.05.59,6.34,6.34,0,0,1-1.22.36,6.48,6.48,0,0,1-1.19.12,5.54,5.54,0,0,1-1.72-.26,4.36,4.36,0,0,1-1.32-.71,3.25,3.25,0,0,1-.84-1.07A3.06,3.06,0,0,1,315,42.7ZM319.4,44a4.44,4.44,0,0,0,1.58-.27,3.63,3.63,0,0,0,1.24-.73A3.08,3.08,0,0,0,323,41.9a3.52,3.52,0,0,0,.28-1.44v-.6l-2.83.46a6.84,6.84,0,0,0-2.4.77,1.55,1.55,0,0,0-.89,1.37,1.23,1.23,0,0,0,.12.52,1.62,1.62,0,0,0,.38.51,1.9,1.9,0,0,0,.69.38A3.09,3.09,0,0,0,319.4,44Z"/><path d="M335.31,33.36A.65.65,0,0,1,336,34v.77a.61.61,0,0,1-.19.45.62.62,0,0,1-.46.19h-1.39a2.44,2.44,0,0,0-2.76,2.76v7a.65.65,0,0,1-.65.65h-.89a.61.61,0,0,1-.45-.19.62.62,0,0,1-.19-.46V34a.62.62,0,0,1,.19-.46.61.61,0,0,1,.45-.19h.89a.65.65,0,0,1,.65.65v.74a2.94,2.94,0,0,1,1.15-1,3.84,3.84,0,0,1,1.75-.34Z"/></g></g></svg>