<svg xmlns="http://www.w3.org/2000/svg" xmlns:xlink="http://www.w3.org/1999/xlink" viewBox="0 0 272.89 245.76"><defs><style>.cls-1,.cls-10,.cls-19,.cls-4{fill:none;}.cls-2{fill:#4d66c1;stroke-width:0.04px;}.cls-10,.cls-11,.cls-2,.cls-3,.cls-5,.cls-6,.cls-9{stroke:#fff;}.cls-10,.cls-11,.cls-13,.cls-14,.cls-15,.cls-16,.cls-17,.cls-18,.cls-19,.cls-2,.cls-3,.cls-4,.cls-5,.cls-6,.cls-9{stroke-miterlimit:10;}.cls-3{fill:#27c1b2;}.cls-3,.cls-5,.cls-6{stroke-width:0.08px;}.cls-4{stroke:red;stroke-width:0.18px;}.cls-5{fill:#5ae2d1;}.cls-6{fill:#222e7d;}.cls-7{clip-path:url(#clip-path);}.cls-8{fill:#b3b3b3;}.cls-9{stroke-width:0.35px;}.cls-10{stroke-width:0.29px;}.cls-11{stroke-width:0.56px;}.cls-12,.cls-13,.cls-16{fill:#fff;}.cls-13,.cls-16{stroke:#ccc;}.cls-13{stroke-width:0.51px;}.cls-14,.cls-17{stroke:#666;}.cls-14{stroke-width:0.42px;}.cls-15,.cls-18,.cls-19{stroke:#000;}.cls-15{stroke-width:0.51px;}.cls-16{stroke-width:0.48px;}.cls-17{stroke-width:0.28px;}.cls-18,.cls-19{stroke-width:0.51px;}.cls-20{fill:#1a1a1a;}</style><clipPath id="clip-path"><path class="cls-1" d="M114,133.11c0,20.42-21.28,26-47.52,26S19,153.53,19,133.11C19,117.56,40.25,105,66.49,105S114,117.56,114,133.11Z"/></clipPath></defs><title>carbon-pollution</title><g id="Layer_2" data-name="Layer 2"><g id="Layer_2-2" data-name="Layer 2"><path d="M2.32,6.62c0,.72,0,1.4,0,2s0,1.3,0,2a4.79,4.79,0,0,0,1.21,3.22A4.21,4.21,0,0,0,6.8,15.12a5.81,5.81,0,0,0,2-.29,4.12,4.12,0,0,0,1.31-.74A3.34,3.34,0,0,0,10.85,13a6.66,6.66,0,0,0,.42-1.18.57.57,0,0,1,.24-.4.65.65,0,0,1,.38-.13H13a.53.53,0,0,1,.37.15.54.54,0,0,1,.15.38,4.94,4.94,0,0,1-.4,1.72,5.69,5.69,0,0,1-1.19,1.77,6.57,6.57,0,0,1-2.07,1.38,7.58,7.58,0,0,1-3.06.55A7.37,7.37,0,0,1,4,16.79a6.19,6.19,0,0,1-2.1-1.36,6,6,0,0,1-1.36-2A7.52,7.52,0,0,1,0,10.78C0,9.35,0,7.93,0,6.5A7.61,7.61,0,0,1,.56,3.91,6,6,0,0,1,1.92,1.85,6.19,6.19,0,0,1,4,.49,7.37,7.37,0,0,1,6.8,0,7.58,7.58,0,0,1,9.86.55a6.57,6.57,0,0,1,2.07,1.38A5.69,5.69,0,0,1,13.12,3.7a4.94,4.94,0,0,1,.4,1.72.54.54,0,0,1-.15.38A.53.53,0,0,1,13,6H11.89a.65.65,0,0,1-.38-.13.57.57,0,0,1-.24-.4,6.66,6.66,0,0,0-.42-1.18,3.34,3.34,0,0,0-.79-1.05,4.12,4.12,0,0,0-1.31-.74A5.81,5.81,0,0,0,6.8,2.16,4.21,4.21,0,0,0,3.53,3.4,4.79,4.79,0,0,0,2.32,6.62Z"/><path d="M15.52,13.9a3.47,3.47,0,0,1,.38-1.68A3.78,3.78,0,0,1,17,11a5.54,5.54,0,0,1,1.57-.81,11.12,11.12,0,0,1,1.91-.48l3.38-.56V8.83A2.16,2.16,0,0,0,23,7a3.23,3.23,0,0,0-2-.62,2.7,2.7,0,0,0-1.59.39,4,4,0,0,0-.93.91.68.68,0,0,1-.31.26,1.12,1.12,0,0,1-.46.08H17a.65.65,0,0,1-.46-.2.5.5,0,0,1-.18-.45,2.29,2.29,0,0,1,.42-1.08,3.63,3.63,0,0,1,1-1,6.25,6.25,0,0,1,1.47-.7A5.37,5.37,0,0,1,21,4.32a6.23,6.23,0,0,1,2,.31,4.49,4.49,0,0,1,1.58.91,4.19,4.19,0,0,1,1,1.49,5.19,5.19,0,0,1,.37,2v7.32a.62.62,0,0,1-.19.46.61.61,0,0,1-.45.19h-.89a.65.65,0,0,1-.65-.65v-1a2.19,2.19,0,0,1-.67.8,4.62,4.62,0,0,1-1,.59,6.63,6.63,0,0,1-2.41.48A5.48,5.48,0,0,1,18,17a4.36,4.36,0,0,1-1.32-.71,3.12,3.12,0,0,1-.84-1.07A3.06,3.06,0,0,1,15.52,13.9Zm4.41,1.32A4.5,4.5,0,0,0,21.52,15a3.59,3.59,0,0,0,1.23-.73,3,3,0,0,0,.79-1.12,3.52,3.52,0,0,0,.28-1.44v-.6L21,11.52a6.84,6.84,0,0,0-2.4.77,1.57,1.57,0,0,0-.89,1.37,1.23,1.23,0,0,0,.12.52,1.62,1.62,0,0,0,.38.51,1.9,1.9,0,0,0,.69.38A3.13,3.13,0,0,0,19.93,15.22Z"/><path d="M40.6,16.39a.63.63,0,0,1-.2.46A.61.61,0,0,1,40,17h-.89a.62.62,0,0,1-.46-.19.66.66,0,0,1-.19-.46V10.06a3.76,3.76,0,0,0-.89-2.76,3.72,3.72,0,0,0-4.9,0,3.68,3.68,0,0,0-.93,2.76v6.33A.65.65,0,0,1,31,17h-.88a.65.65,0,0,1-.65-.65V5.21a.65.65,0,0,1,.65-.65H31a.65.65,0,0,1,.65.65V6a4.48,4.48,0,0,1,1.36-1.11,4.66,4.66,0,0,1,2.36-.52,5.71,5.71,0,0,1,2.09.37,4.61,4.61,0,0,1,2.71,2.75A6.19,6.19,0,0,1,40.6,9.7Z"/><path d="M55.84,17.28a4.64,4.64,0,0,1-2.38-.52,4.38,4.38,0,0,1-1.34-1.11V21a.63.63,0,0,1-.2.46.6.6,0,0,1-.45.19h-.89a.65.65,0,0,1-.65-.65V5.21a.65.65,0,0,1,.65-.65h.89a.6.6,0,0,1,.45.19.63.63,0,0,1,.2.46V6a4.23,4.23,0,0,1,1.36-1.14,4.84,4.84,0,0,1,2.36-.49,5.42,5.42,0,0,1,2.1.4,4.86,4.86,0,0,1,1.69,1.14,5.51,5.51,0,0,1,1.15,1.8,7.23,7.23,0,0,1,.5,2.37q0,.36,0,.78t0,.78a7.35,7.35,0,0,1-.5,2.38,5.57,5.57,0,0,1-1.15,1.79,5.09,5.09,0,0,1-1.69,1.12A5.42,5.42,0,0,1,55.84,17.28ZM52.12,9.77c0,.24,0,.55,0,1s0,.7,0,.94a3.65,3.65,0,0,0,1,2.63,3.36,3.36,0,0,0,2.46.93,3.2,3.2,0,0,0,2.49-1,4.28,4.28,0,0,0,1-2.74c0-.45,0-.89,0-1.34a4.28,4.28,0,0,0-1-2.74,3.2,3.2,0,0,0-2.49-1,3.33,3.33,0,0,0-3.48,3.39Z"/><path d="M70.62,4.56a.6.6,0,0,1,.45.19.63.63,0,0,1,.2.46V6a.62.62,0,0,1-.2.45.6.6,0,0,1-.45.19H69.23a2.44,2.44,0,0,0-2.76,2.76v7a.63.63,0,0,1-.2.46.6.6,0,0,1-.45.19h-.89a.58.58,0,0,1-.45-.19.63.63,0,0,1-.2-.46V5.21a.63.63,0,0,1,.2-.46.58.58,0,0,1,.45-.19h.89a.6.6,0,0,1,.45.19.63.63,0,0,1,.2.46V6a2.94,2.94,0,0,1,1.15-1,3.84,3.84,0,0,1,1.75-.34Z"/><path d="M72.52,9.6A6.37,6.37,0,0,1,73,7.54a6,6,0,0,1,1.13-1.68,5,5,0,0,1,1.67-1.13A5.59,5.59,0,0,1,78,4.32a6,6,0,0,1,2.32.42A4.75,4.75,0,0,1,82.07,6a5.34,5.34,0,0,1,1.1,1.92,7.66,7.66,0,0,1,.39,2.52V11a.63.63,0,0,1-.2.46.65.65,0,0,1-.45.19H74.65v.14A3.22,3.22,0,0,0,78,15.22a4.1,4.1,0,0,0,2-.38A4,4,0,0,0,81.06,14a1.41,1.41,0,0,1,.34-.27,1,1,0,0,1,.43-.07h.72a.72.72,0,0,1,.48.19.49.49,0,0,1,.17.46,2.7,2.7,0,0,1-.41.95,3.85,3.85,0,0,1-1,1,6.18,6.18,0,0,1-1.59.74,7.36,7.36,0,0,1-2.22.3,5.34,5.34,0,0,1-2.16-.42,5.14,5.14,0,0,1-1.67-1.15A5.91,5.91,0,0,1,73,14a6.9,6.9,0,0,1-.52-2.17A10.21,10.21,0,0,1,72.52,9.6Zm2.13.07H81.4V9.6a3.05,3.05,0,0,0-.93-2.34A3.44,3.44,0,0,0,78,6.38a3.65,3.65,0,0,0-1.29.23,3.09,3.09,0,0,0-1.06.65,3,3,0,0,0-.72,1,3.54,3.54,0,0,0-.29,1.32Z"/><path d="M90.49,17a.59.59,0,0,1-.48-.19,1.66,1.66,0,0,1-.26-.41L85,5.3a.7.7,0,0,1,0-.16.53.53,0,0,1,.17-.41.54.54,0,0,1,.4-.17h.89a.7.7,0,0,1,.54.19,1.07,1.07,0,0,1,.25.39l3.72,8.71,3.72-8.71a1.37,1.37,0,0,1,.24-.39.59.59,0,0,1,.46-.19h1a.58.58,0,0,1,.58.58.7.7,0,0,1,0,.16L92.1,16.44a2,2,0,0,1-.25.41.57.57,0,0,1-.47.19Z"/><path d="M98.39,9.6a6.13,6.13,0,0,1,.53-2.06A5.74,5.74,0,0,1,100,5.86a5,5,0,0,1,1.67-1.13,5.59,5.59,0,0,1,2.17-.41,6,6,0,0,1,2.32.42A4.75,4.75,0,0,1,107.94,6,5.34,5.34,0,0,1,109,7.87a7.66,7.66,0,0,1,.39,2.52V11a.65.65,0,0,1-.65.65h-8.26v.14a3.43,3.43,0,0,0,1,2.51,3.36,3.36,0,0,0,2.36.88,4.1,4.1,0,0,0,2-.38,4,4,0,0,0,1.07-.82,1.41,1.41,0,0,1,.34-.27,1,1,0,0,1,.43-.07h.72a.68.68,0,0,1,.48.19.49.49,0,0,1,.17.46,2.7,2.7,0,0,1-.41.95,3.69,3.69,0,0,1-1,1,6,6,0,0,1-1.59.74,7.36,7.36,0,0,1-2.22.3,5.34,5.34,0,0,1-2.16-.42,5.1,5.1,0,0,1-1.66-1.15A5.54,5.54,0,0,1,98.92,14a6.65,6.65,0,0,1-.53-2.17A10.21,10.21,0,0,1,98.39,9.6Zm2.13.07h6.75V9.6a3.05,3.05,0,0,0-.93-2.34,3.43,3.43,0,0,0-2.46-.88,3.65,3.65,0,0,0-1.29.23,3.29,3.29,0,0,0-1.06.65,3.14,3.14,0,0,0-.72,1,3.75,3.75,0,0,0-.29,1.32Z"/><path d="M123.42,16.39a.66.66,0,0,1-.19.46.62.62,0,0,1-.46.19h-.89a.6.6,0,0,1-.45-.19.63.63,0,0,1-.2-.46V10.06a3.8,3.8,0,0,0-.88-2.76,3.74,3.74,0,0,0-4.91,0,3.68,3.68,0,0,0-.92,2.76v6.33a.63.63,0,0,1-.2.46.61.61,0,0,1-.45.19H113a.65.65,0,0,1-.65-.65V5.21a.65.65,0,0,1,.65-.65h.89a.61.61,0,0,1,.45.19.63.63,0,0,1,.2.46V6a4.31,4.31,0,0,1,1.35-1.11,4.66,4.66,0,0,1,2.36-.52,5.67,5.67,0,0,1,2.09.37A4.73,4.73,0,0,1,122,5.75,4.68,4.68,0,0,1,123,7.44a6.19,6.19,0,0,1,.39,2.26Z"/><path d="M130,12.84a3.82,3.82,0,0,0,.09.85,1.72,1.72,0,0,0,.29.69,1.37,1.37,0,0,0,.62.44,2.87,2.87,0,0,0,1,.16h1.27a.58.58,0,0,1,.45.19.62.62,0,0,1,.2.45v.77a.63.63,0,0,1-.2.46.58.58,0,0,1-.45.19h-1.51a3.82,3.82,0,0,1-3-1.08,4.65,4.65,0,0,1-.93-3.12V6.62H126a.58.58,0,0,1-.45-.19.62.62,0,0,1-.2-.45V5.21a.63.63,0,0,1,.2-.46.58.58,0,0,1,.45-.19h1.78V.65A.62.62,0,0,1,128,.19a.62.62,0,0,1,.46-.19h.88a.62.62,0,0,1,.46.19.62.62,0,0,1,.19.46V4.56H133a.63.63,0,0,1,.46.19.66.66,0,0,1,.19.46V6a.65.65,0,0,1-.19.45.63.63,0,0,1-.46.19H130Z"/><path d="M143.6,13a3.48,3.48,0,0,0,.34.77,2,2,0,0,0,.65.69,3.58,3.58,0,0,0,1.14.49,7.08,7.08,0,0,0,1.83.19,5.47,5.47,0,0,0,1.42-.18,3.35,3.35,0,0,0,1.17-.56,3,3,0,0,0,.81-1,2.87,2.87,0,0,0,.3-1.36,2.79,2.79,0,0,0-.29-1.31,2.31,2.31,0,0,0-.78-.86A3.45,3.45,0,0,0,149,9.43a7.49,7.49,0,0,0-1.47-.14h-2a.68.68,0,0,1-.46-.19.66.66,0,0,1-.19-.46V7.78a.65.65,0,0,1,.14-.4,3,3,0,0,1,.25-.32l4.32-4.66h-6.92a.61.61,0,0,1-.45-.19.62.62,0,0,1-.19-.46V.89a.62.62,0,0,1,.19-.46.61.61,0,0,1,.45-.19h9.46a.62.62,0,0,1,.46.19.66.66,0,0,1,.19.46v.86a.79.79,0,0,1-.12.42,1.88,1.88,0,0,1-.31.4l-4.25,4.58a7.17,7.17,0,0,1,2.19.37,5,5,0,0,1,1.71,1,4.35,4.35,0,0,1,1.1,1.53,4.9,4.9,0,0,1,.4,2,4.9,4.9,0,0,1-.48,2.2,4.81,4.81,0,0,1-1.29,1.63,5.72,5.72,0,0,1-1.89,1,7.37,7.37,0,0,1-2.32.36,9.11,9.11,0,0,1-2.77-.37,5.78,5.78,0,0,1-1.92-1,4.11,4.11,0,0,1-1.13-1.36,3.63,3.63,0,0,1-.39-1.55.53.53,0,0,1,.52-.53H143a.57.57,0,0,1,.42.16A.75.75,0,0,1,143.6,13Z"/><path d="M164.17,17a.62.62,0,0,1-.46-.19.66.66,0,0,1-.19-.46V13.08H156a.65.65,0,0,1-.65-.65v-.86a1.34,1.34,0,0,1,.08-.4,1.51,1.51,0,0,1,.25-.42L163.26.82a1.67,1.67,0,0,1,.42-.42.84.84,0,0,1,.51-.16h1a.62.62,0,0,1,.46.19.62.62,0,0,1,.19.46v10h2.07a.61.61,0,0,1,.45.19.62.62,0,0,1,.19.46v.86a.62.62,0,0,1-.19.46.61.61,0,0,1-.45.19H165.8v3.31a.65.65,0,0,1-.65.65Zm-.65-6.12V4.15l-5.21,6.77Z"/><path d="M183,6.62c0,.72,0,1.4,0,2s0,1.31,0,2a9.37,9.37,0,0,1-.4,2.6,5.86,5.86,0,0,1-1.11,2.1,5.14,5.14,0,0,1-1.89,1.4,7.65,7.65,0,0,1-5.44,0,5.14,5.14,0,0,1-1.89-1.4,5.86,5.86,0,0,1-1.11-2.1,9.37,9.37,0,0,1-.4-2.6c0-.72,0-1.4,0-2s0-1.31,0-2a9.49,9.49,0,0,1,.4-2.6,5.86,5.86,0,0,1,1.11-2.1,5.25,5.25,0,0,1,1.89-1.4,7.37,7.37,0,0,1,5.44,0,5.25,5.25,0,0,1,1.89,1.4A5.86,5.86,0,0,1,182.61,4,9.49,9.49,0,0,1,183,6.62Zm-10,4.06a5.06,5.06,0,0,0,1,3.36,4.27,4.27,0,0,0,5.68,0,5.06,5.06,0,0,0,1-3.36c0-.72,0-1.4,0-2s0-1.31,0-2a5.11,5.11,0,0,0-1-3.37,4.24,4.24,0,0,0-5.68,0,5.11,5.11,0,0,0-1,3.37c0,.72,0,1.4,0,2S173,10,173,10.68Z"/><path d="M198.06,17.28a4.64,4.64,0,0,1-2.38-.52,4.38,4.38,0,0,1-1.34-1.11V21a.66.66,0,0,1-.19.46.63.63,0,0,1-.46.19h-.89a.58.58,0,0,1-.45-.19.63.63,0,0,1-.2-.46V5.21a.63.63,0,0,1,.2-.46.58.58,0,0,1,.45-.19h.89a.63.63,0,0,1,.46.19.66.66,0,0,1,.19.46V6a4.23,4.23,0,0,1,1.36-1.14,4.87,4.87,0,0,1,2.36-.49,5.42,5.42,0,0,1,2.1.4,4.77,4.77,0,0,1,1.69,1.14A5.51,5.51,0,0,1,203,7.66a7.23,7.23,0,0,1,.51,2.37c0,.24,0,.5,0,.78s0,.54,0,.78A7.35,7.35,0,0,1,203,14a5.57,5.57,0,0,1-1.15,1.79,5,5,0,0,1-1.69,1.12A5.42,5.42,0,0,1,198.06,17.28Zm-3.72-7.51c0,.24,0,.55,0,1s0,.7,0,.94a3.74,3.74,0,0,0,1,2.63,3.36,3.36,0,0,0,2.46.93,3.2,3.2,0,0,0,2.49-1,4.28,4.28,0,0,0,1-2.74c0-.45,0-.89,0-1.34a4.28,4.28,0,0,0-1-2.74,3.2,3.2,0,0,0-2.49-1,3.4,3.4,0,0,0-2.45.92A3.47,3.47,0,0,0,194.34,9.77Z"/><path d="M211.62,4.32a6.13,6.13,0,0,1,2.3.4,5,5,0,0,1,2.87,2.78,7.19,7.19,0,0,1,.52,2.17c0,.15,0,.32,0,.52v1.25c0,.2,0,.36,0,.49a7.66,7.66,0,0,1-.53,2.18,4.83,4.83,0,0,1-1.13,1.68,5,5,0,0,1-1.73,1.09,6.84,6.84,0,0,1-4.61,0,5,5,0,0,1-2.86-2.77,6.77,6.77,0,0,1-.52-2.18c0-.13,0-.29,0-.49s0-.41,0-.63,0-.42,0-.62,0-.37,0-.52a6.9,6.9,0,0,1,.52-2.17,5,5,0,0,1,2.86-2.78A6.18,6.18,0,0,1,211.62,4.32Zm3.5,7.49a9.23,9.23,0,0,0,0-1,9.93,9.93,0,0,0,0-1,5.15,5.15,0,0,0-.31-1.34,3.13,3.13,0,0,0-.67-1.08,2.93,2.93,0,0,0-1.06-.72,3.62,3.62,0,0,0-1.46-.27,3.71,3.71,0,0,0-1.47.27,3,3,0,0,0-1.05.72,3.13,3.13,0,0,0-.67,1.08,5.15,5.15,0,0,0-.32,1.34,10.2,10.2,0,0,0,0,1,9.53,9.53,0,0,0,0,1,5.15,5.15,0,0,0,.32,1.34,3.13,3.13,0,0,0,.67,1.08,3,3,0,0,0,1.05.72,3.71,3.71,0,0,0,1.47.27,3.62,3.62,0,0,0,1.46-.27,2.93,2.93,0,0,0,1.06-.72,3.13,3.13,0,0,0,.67-1.08A5.15,5.15,0,0,0,215.12,11.81Z"/><path d="M220.23,5.21a.63.63,0,0,1,.2-.46.58.58,0,0,1,.45-.19h.89a.63.63,0,0,1,.46.19.66.66,0,0,1,.19.46v6.33a3.93,3.93,0,0,0,.83,2.76,3.56,3.56,0,0,0,4.78,0,3.84,3.84,0,0,0,.87-2.76V5.21a.65.65,0,0,1,.65-.65h.88a.65.65,0,0,1,.65.65V16.39a.65.65,0,0,1-.65.65h-.88a.65.65,0,0,1-.65-.65v-.74a4.7,4.7,0,0,1-1.3,1.11,4.33,4.33,0,0,1-2.3.52,5.56,5.56,0,0,1-2.07-.37,4.52,4.52,0,0,1-1.6-1.06,4.47,4.47,0,0,1-1-1.68,6.63,6.63,0,0,1-.36-2.27Z"/><path d="M245.77,16.39a.66.66,0,0,1-.19.46.62.62,0,0,1-.46.19h-.89a.6.6,0,0,1-.45-.19.63.63,0,0,1-.2-.46V10.06a3.8,3.8,0,0,0-.88-2.76,3.74,3.74,0,0,0-4.91,0,3.68,3.68,0,0,0-.93,2.76v6.33a.62.62,0,0,1-.19.46.61.61,0,0,1-.45.19h-.89a.65.65,0,0,1-.65-.65V5.21a.65.65,0,0,1,.65-.65h.89a.61.61,0,0,1,.45.19.62.62,0,0,1,.19.46V6a4.48,4.48,0,0,1,1.36-1.11,4.66,4.66,0,0,1,2.36-.52,5.67,5.67,0,0,1,2.09.37,4.73,4.73,0,0,1,1.65,1.06,4.68,4.68,0,0,1,1.06,1.69,6.19,6.19,0,0,1,.39,2.26Z"/><path d="M254.1,4.32a4.63,4.63,0,0,1,2.37.52A4.56,4.56,0,0,1,257.82,6V.65A.62.62,0,0,1,258,.19a.61.61,0,0,1,.45-.19h.89a.62.62,0,0,1,.46.19.62.62,0,0,1,.19.46V16.39a.65.65,0,0,1-.65.65h-.89a.61.61,0,0,1-.45-.19.62.62,0,0,1-.19-.46v-.74a4.27,4.27,0,0,1-1.37,1.14,4.83,4.83,0,0,1-2.35.49,5.38,5.38,0,0,1-2.1-.4,4.68,4.68,0,0,1-1.69-1.14,5.37,5.37,0,0,1-1.16-1.8,7.23,7.23,0,0,1-.5-2.37q0-.36,0-.78t0-.78a7.35,7.35,0,0,1,.5-2.38,5.43,5.43,0,0,1,1.16-1.79A4.9,4.9,0,0,1,252,4.72,5.38,5.38,0,0,1,254.1,4.32Zm3.72,7.51c0-.24,0-.55,0-.95s0-.7,0-.94a3.74,3.74,0,0,0-1-2.63,3.37,3.37,0,0,0-2.46-.93,3.21,3.21,0,0,0-2.5,1,4.33,4.33,0,0,0-1,2.74c0,.45,0,.89,0,1.34a4.33,4.33,0,0,0,1,2.74,3.21,3.21,0,0,0,2.5,1,3.38,3.38,0,0,0,2.44-.92A3.48,3.48,0,0,0,257.82,11.83Z"/><path d="M270.7,13.58a1.11,1.11,0,0,0-.25-.75,2.11,2.11,0,0,0-.75-.52,9.46,9.46,0,0,0-1.29-.41c-.52-.12-1.12-.26-1.81-.4a4.7,4.7,0,0,1-2.72-1.36,3.38,3.38,0,0,1-.78-2.22,3.36,3.36,0,0,1,.28-1.37,3.4,3.4,0,0,1,.87-1.15,4,4,0,0,1,1.45-.79,6.63,6.63,0,0,1,2.05-.29,7.3,7.3,0,0,1,2.05.26,5.21,5.21,0,0,1,1.48.68,3.31,3.31,0,0,1,.91.87,1.83,1.83,0,0,1,.34.9.58.58,0,0,1-.18.46.66.66,0,0,1-.47.19h-.79a1.28,1.28,0,0,1-.35-.06.7.7,0,0,1-.37-.28,2.34,2.34,0,0,0-.93-.68,4.23,4.23,0,0,0-1.69-.28,3.51,3.51,0,0,0-1.79.41,1.27,1.27,0,0,0-.68,1.13,1.24,1.24,0,0,0,.19.73,1.46,1.46,0,0,0,.63.48,5.25,5.25,0,0,0,1.14.37c.47.12,1.06.25,1.76.41a8.35,8.35,0,0,1,1.85.61,4.71,4.71,0,0,1,1.2.84,2.88,2.88,0,0,1,.65,1,3.84,3.84,0,0,1,.19,1.18,3.06,3.06,0,0,1-.35,1.4,3.46,3.46,0,0,1-1,1.17A5.17,5.17,0,0,1,270,17a6.44,6.44,0,0,1-2.1.31,7,7,0,0,1-2.09-.29,6.62,6.62,0,0,1-1.56-.71,3.52,3.52,0,0,1-1-.91,1.75,1.75,0,0,1-.37-.92A.56.56,0,0,1,263,14a.65.65,0,0,1,.48-.19h.87a1.4,1.4,0,0,1,.33,0,.56.56,0,0,1,.36.27,2.51,2.51,0,0,0,1.06.82,4.53,4.53,0,0,0,1.75.29,4.7,4.7,0,0,0,1.05-.12,3.91,3.91,0,0,0,.91-.34,2,2,0,0,0,.63-.52A1,1,0,0,0,270.7,13.58Z"/><path d="M40.94,33.12a6.18,6.18,0,0,1,2.31.4,4.9,4.9,0,0,1,2.86,2.78,6.9,6.9,0,0,1,.52,2.17,4.1,4.1,0,0,1,0,.52v1.25a3.48,3.48,0,0,1,0,.49,7.66,7.66,0,0,1-.53,2.18A5,5,0,0,1,45,44.59a5.14,5.14,0,0,1-1.73,1.09,6.84,6.84,0,0,1-4.61,0,5,5,0,0,1-1.73-1.09,5,5,0,0,1-1.14-1.68,7,7,0,0,1-.52-2.18c0-.13,0-.29,0-.49s0-.41,0-.63,0-.42,0-.62,0-.37,0-.52a7.19,7.19,0,0,1,.52-2.17,5,5,0,0,1,2.87-2.78A6.13,6.13,0,0,1,40.94,33.12Zm3.51,7.49a9.53,9.53,0,0,0,0-1,10.2,10.2,0,0,0,0-1,5.15,5.15,0,0,0-.32-1.34,3.09,3.09,0,0,0-1.72-1.8,3.71,3.71,0,0,0-1.47-.27,3.66,3.66,0,0,0-1.46.27,2.93,2.93,0,0,0-1.06.72,3.13,3.13,0,0,0-.67,1.08,5.15,5.15,0,0,0-.31,1.34,9.93,9.93,0,0,0,0,1,9.23,9.23,0,0,0,0,1A5.15,5.15,0,0,0,37.75,42,3.13,3.13,0,0,0,38.42,43a2.93,2.93,0,0,0,1.06.72,3.66,3.66,0,0,0,1.46.27,3.71,3.71,0,0,0,1.47-.27A3.09,3.09,0,0,0,44.13,42,5.15,5.15,0,0,0,44.45,40.61Z"/><path d="M53,33.36h3a.58.58,0,0,1,.45.19.63.63,0,0,1,.2.46v.77a.62.62,0,0,1-.2.45.58.58,0,0,1-.45.19H53v9.77a.65.65,0,0,1-.65.65h-.89a.61.61,0,0,1-.45-.19.62.62,0,0,1-.19-.46V35.42h-2a.58.58,0,0,1-.45-.19.62.62,0,0,1-.2-.45V34a.63.63,0,0,1,.2-.46.58.58,0,0,1,.45-.19h2v-1.2a4.41,4.41,0,0,1,.93-3.06,4,4,0,0,1,3-1h1.51a.6.6,0,0,1,.45.19.63.63,0,0,1,.2.46v.77a.62.62,0,0,1-.2.45.6.6,0,0,1-.45.19H55a2.87,2.87,0,0,0-1,.16,1.29,1.29,0,0,0-.61.44,1.74,1.74,0,0,0-.31.69,4.54,4.54,0,0,0-.08.85Z"/><path d="M65.76,40.44a4.69,4.69,0,0,0,.42,1.63A3.58,3.58,0,0,0,67,43.18a3,3,0,0,0,1,.63,3.46,3.46,0,0,0,1.18.21,4.15,4.15,0,0,0,2-.44,2.84,2.84,0,0,0,1.27-1.44,1.28,1.28,0,0,1,.35-.51.72.72,0,0,1,.44-.13h.72a.66.66,0,0,1,.47.19.51.51,0,0,1,.18.45,3.14,3.14,0,0,1-.37,1.26,4.34,4.34,0,0,1-1,1.28,6.05,6.05,0,0,1-4,1.4,5.92,5.92,0,0,1-2.34-.43,5.06,5.06,0,0,1-1.73-1.18A5.26,5.26,0,0,1,64,42.72a6.65,6.65,0,0,1-.45-2.16c0-.26,0-.57,0-1a7.25,7.25,0,0,1,0-1,7.58,7.58,0,0,1,.5-2.16,5.23,5.23,0,0,1,1.09-1.75,4.94,4.94,0,0,1,1.7-1.18,5.84,5.84,0,0,1,2.33-.43,6.05,6.05,0,0,1,4,1.4,4.34,4.34,0,0,1,1,1.28,3.14,3.14,0,0,1,.37,1.26.51.51,0,0,1-.18.45.66.66,0,0,1-.47.19h-.72a.72.72,0,0,1-.44-.13,1.28,1.28,0,0,1-.35-.51,2.84,2.84,0,0,0-1.27-1.44,4.15,4.15,0,0,0-2-.44,3.51,3.51,0,0,0-1.19.21A3,3,0,0,0,67,36a3.6,3.6,0,0,0-.8,1.11,4.7,4.7,0,0,0-.39,1.63A9.42,9.42,0,0,0,65.76,40.44Z"/><path d="M76.58,42.7A3.47,3.47,0,0,1,77,41a3.63,3.63,0,0,1,1-1.23A5.67,5.67,0,0,1,79.59,39a11.35,11.35,0,0,1,1.91-.48l3.39-.56v-.31a2.14,2.14,0,0,0-.81-1.83,3.18,3.18,0,0,0-2-.62,2.72,2.72,0,0,0-1.6.39,3.79,3.79,0,0,0-.92.91.73.73,0,0,1-.31.26,1.19,1.19,0,0,1-.46.08h-.72a.67.67,0,0,1-.47-.2.55.55,0,0,1-.18-.45,2.29,2.29,0,0,1,.42-1.08,3.81,3.81,0,0,1,1-1,6,6,0,0,1,1.46-.7,5.43,5.43,0,0,1,1.77-.28,6.12,6.12,0,0,1,2,.31,4.44,4.44,0,0,1,1.59.91,4.19,4.19,0,0,1,1,1.49,5.19,5.19,0,0,1,.37,2v7.32a.65.65,0,0,1-.65.65h-.89a.61.61,0,0,1-.45-.19.62.62,0,0,1-.19-.46v-1a2.23,2.23,0,0,1-.68.8,4.54,4.54,0,0,1-1,.59A6.34,6.34,0,0,1,82,46a6.48,6.48,0,0,1-1.19.12A5.49,5.49,0,0,1,79,45.82a4.36,4.36,0,0,1-1.32-.71A3.12,3.12,0,0,1,76.88,44,3.06,3.06,0,0,1,76.58,42.7ZM81,44a4.48,4.48,0,0,0,1.58-.27A3.73,3.73,0,0,0,83.82,43a3.08,3.08,0,0,0,.79-1.12,3.7,3.7,0,0,0,.28-1.44v-.6l-2.84.46a7,7,0,0,0-2.4.77,1.56,1.56,0,0,0-.88,1.37,1.23,1.23,0,0,0,.12.52,1.48,1.48,0,0,0,.38.51,1.86,1.86,0,0,0,.68.38A3.15,3.15,0,0,0,81,44Z"/><path d="M96.91,33.36a.62.62,0,0,1,.46.19.66.66,0,0,1,.19.46v.77a.65.65,0,0,1-.19.45.62.62,0,0,1-.46.19H95.52a2.44,2.44,0,0,0-2.76,2.76v7a.66.66,0,0,1-.19.46.62.62,0,0,1-.46.19h-.89a.6.6,0,0,1-.45-.19.63.63,0,0,1-.2-.46V34a.63.63,0,0,1,.2-.46.6.6,0,0,1,.45-.19h.89a.62.62,0,0,1,.46.19.66.66,0,0,1,.19.46v.74a2.94,2.94,0,0,1,1.15-1,3.84,3.84,0,0,1,1.75-.34Z"/><path d="M105.55,33.12a5.42,5.42,0,0,1,2.1.4,5,5,0,0,1,1.69,1.12,5.4,5.4,0,0,1,1.15,1.79,7.35,7.35,0,0,1,.51,2.38c0,.24,0,.5,0,.78s0,.54,0,.78a7.23,7.23,0,0,1-.51,2.37,5.35,5.35,0,0,1-1.15,1.8,4.77,4.77,0,0,1-1.69,1.14,5.42,5.42,0,0,1-2.1.4,4.8,4.8,0,0,1-2.35-.49,4.27,4.27,0,0,1-1.37-1.14v.74a.65.65,0,0,1-.65.65h-.89a.61.61,0,0,1-.45-.19.62.62,0,0,1-.19-.46V29.45a.62.62,0,0,1,.19-.46.61.61,0,0,1,.45-.19h.89a.65.65,0,0,1,.65.65v5.3a4.38,4.38,0,0,1,1.34-1.11A4.69,4.69,0,0,1,105.55,33.12Zm-3.72,7.51a3.67,3.67,0,0,0,1.06,2.47,3.31,3.31,0,0,0,2.42.92,3.15,3.15,0,0,0,2.48-1,4.45,4.45,0,0,0,1-2.74c0-.45,0-.89,0-1.34a4.45,4.45,0,0,0-1-2.74,3.15,3.15,0,0,0-2.48-1,3.22,3.22,0,0,0-2.42.93,4.1,4.1,0,0,0-1.06,2.63,9,9,0,0,0,0,1.89Z"/><path d="M119.11,33.12a6.13,6.13,0,0,1,2.3.4,5,5,0,0,1,1.73,1.09,5,5,0,0,1,1.14,1.69,7.19,7.19,0,0,1,.52,2.17c0,.15,0,.32,0,.52v1.25c0,.2,0,.36,0,.49a7.66,7.66,0,0,1-.53,2.18,4.83,4.83,0,0,1-1.13,1.68,5,5,0,0,1-1.73,1.09,6.81,6.81,0,0,1-4.6,0,5,5,0,0,1-2.87-2.77,7,7,0,0,1-.52-2.18c0-.13,0-.29,0-.49s0-.41,0-.63,0-.42,0-.62,0-.37,0-.52a7.19,7.19,0,0,1,.52-2.17,5,5,0,0,1,1.14-1.69,5,5,0,0,1,1.73-1.09A6.13,6.13,0,0,1,119.11,33.12Zm3.5,7.49a7.23,7.23,0,0,0,0-1,7.72,7.72,0,0,0,0-1,4.77,4.77,0,0,0-.31-1.34,3.13,3.13,0,0,0-.67-1.08,2.93,2.93,0,0,0-1.06-.72,4.08,4.08,0,0,0-2.92,0,2.93,2.93,0,0,0-1.06.72,3.13,3.13,0,0,0-.67,1.08,4.77,4.77,0,0,0-.31,1.34,7.72,7.72,0,0,0,0,1,7.23,7.23,0,0,0,0,1,4.77,4.77,0,0,0,.31,1.34,3.13,3.13,0,0,0,.67,1.08,2.93,2.93,0,0,0,1.06.72,4.08,4.08,0,0,0,2.92,0,2.93,2.93,0,0,0,1.06-.72A3.13,3.13,0,0,0,122.3,42,4.77,4.77,0,0,0,122.61,40.61Z"/><path d="M138.93,45.19a.62.62,0,0,1-.19.46.61.61,0,0,1-.45.19h-.89a.65.65,0,0,1-.65-.65V38.86a3.8,3.8,0,0,0-.89-2.76,3.27,3.27,0,0,0-2.47-.92,3.33,3.33,0,0,0-2.44.92,3.72,3.72,0,0,0-.92,2.76v6.33a.65.65,0,0,1-.65.65h-.89a.61.61,0,0,1-.45-.19.62.62,0,0,1-.19-.46V34a.62.62,0,0,1,.19-.46.61.61,0,0,1,.45-.19h.89A.65.65,0,0,1,130,34v.74a4.36,4.36,0,0,1,1.36-1.11,4.64,4.64,0,0,1,2.36-.52,5.71,5.71,0,0,1,2.09.37,4.6,4.6,0,0,1,1.64,1.06,4.7,4.7,0,0,1,1.07,1.69,6.19,6.19,0,0,1,.38,2.26Z"/><path d="M154.17,46.08a4.63,4.63,0,0,1-2.37-.52,4.56,4.56,0,0,1-1.35-1.11v5.3a.62.62,0,0,1-.19.46.61.61,0,0,1-.45.19h-.89a.65.65,0,0,1-.65-.65V34a.65.65,0,0,1,.65-.65h.89a.61.61,0,0,1,.45.19.62.62,0,0,1,.19.46v.74a4.27,4.27,0,0,1,1.37-1.14,4.83,4.83,0,0,1,2.35-.49,5.35,5.35,0,0,1,2.1.4,4.9,4.9,0,0,1,1.7,1.14,5.68,5.68,0,0,1,1.15,1.8,7.5,7.5,0,0,1,.5,2.37q0,.36,0,.78t0,.78a7.62,7.62,0,0,1-.5,2.38A5.74,5.74,0,0,1,158,44.56a5.13,5.13,0,0,1-1.7,1.12A5.35,5.35,0,0,1,154.17,46.08Zm-3.72-7.51c0,.24,0,.55,0,1s0,.7,0,.94a3.74,3.74,0,0,0,1,2.63,3.37,3.37,0,0,0,2.46.93,3.21,3.21,0,0,0,2.5-1,4.33,4.33,0,0,0,1-2.74c0-.45,0-.89,0-1.34a4.33,4.33,0,0,0-1-2.74,3.21,3.21,0,0,0-2.5-1,3.42,3.42,0,0,0-2.45.92A3.51,3.51,0,0,0,150.45,38.57Z"/><path d="M167.73,33.12a6.18,6.18,0,0,1,2.31.4,4.9,4.9,0,0,1,2.86,2.78,6.9,6.9,0,0,1,.52,2.17,4.1,4.1,0,0,1,0,.52v1.25a3.48,3.48,0,0,1,0,.49,7.66,7.66,0,0,1-.53,2.18,5,5,0,0,1-1.12,1.68A5.14,5.14,0,0,1,170,45.68a6.84,6.84,0,0,1-4.61,0,5,5,0,0,1-1.73-1.09,5,5,0,0,1-1.14-1.68,7,7,0,0,1-.52-2.18c0-.13,0-.29,0-.49s0-.41,0-.63,0-.42,0-.62,0-.37,0-.52a7.19,7.19,0,0,1,.52-2.17,5,5,0,0,1,2.87-2.78A6.13,6.13,0,0,1,167.73,33.12Zm3.51,7.49a9.53,9.53,0,0,0,0-1,10.2,10.2,0,0,0,0-1,5.15,5.15,0,0,0-.32-1.34,3.09,3.09,0,0,0-1.72-1.8,3.71,3.71,0,0,0-1.47-.27,3.66,3.66,0,0,0-1.46.27,2.93,2.93,0,0,0-1.06.72,3.13,3.13,0,0,0-.67,1.08,5.15,5.15,0,0,0-.31,1.34,9.93,9.93,0,0,0,0,1,9.23,9.23,0,0,0,0,1,5.15,5.15,0,0,0,.31,1.34,3.13,3.13,0,0,0,.67,1.08,2.93,2.93,0,0,0,1.06.72,3.66,3.66,0,0,0,1.46.27,3.71,3.71,0,0,0,1.47-.27,3.09,3.09,0,0,0,1.72-1.8A5.15,5.15,0,0,0,171.24,40.61Z"/><path d="M178.65,45.19a.65.65,0,0,1-.65.65h-.88a.65.65,0,0,1-.65-.65V29.45a.65.65,0,0,1,.65-.65H178a.65.65,0,0,1,.65.65Z"/><path d="M184.44,45.19a.63.63,0,0,1-.2.46.6.6,0,0,1-.45.19h-.89a.62.62,0,0,1-.46-.19.66.66,0,0,1-.19-.46V29.45a.66.66,0,0,1,.19-.46.62.62,0,0,1,.46-.19h.89a.6.6,0,0,1,.45.19.63.63,0,0,1,.2.46Z"/><path d="M187.92,34a.62.62,0,0,1,.19-.46.61.61,0,0,1,.45-.19h.89a.65.65,0,0,1,.65.65v6.33a4,4,0,0,0,.83,2.76,3.08,3.08,0,0,0,2.41.92,3.13,3.13,0,0,0,2.38-.92,3.88,3.88,0,0,0,.86-2.76V34a.66.66,0,0,1,.19-.46.62.62,0,0,1,.46-.19h.89a.61.61,0,0,1,.45.19.63.63,0,0,1,.2.46V45.19a.63.63,0,0,1-.2.46.61.61,0,0,1-.45.19h-.89a.62.62,0,0,1-.46-.19.66.66,0,0,1-.19-.46v-.74a4.56,4.56,0,0,1-1.3,1.11,4.31,4.31,0,0,1-2.3.52,5.47,5.47,0,0,1-2.06-.37,4.56,4.56,0,0,1-1.61-1.06,4.45,4.45,0,0,1-1-1.68,6.63,6.63,0,0,1-.36-2.27Z"/><path d="M205.63,41.64a4.54,4.54,0,0,0,.08.85,1.88,1.88,0,0,0,.3.69,1.4,1.4,0,0,0,.61.44,3,3,0,0,0,1,.16h1.27a.65.65,0,0,1,.64.64v.77a.62.62,0,0,1-.19.46.61.61,0,0,1-.45.19H207.4a3.81,3.81,0,0,1-3-1.08,4.65,4.65,0,0,1-.94-3.12V35.42h-1.77a.62.62,0,0,1-.46-.19.61.61,0,0,1-.19-.45V34a.65.65,0,0,1,.65-.65h1.77V29.45a.63.63,0,0,1,.2-.46.61.61,0,0,1,.45-.19H205a.62.62,0,0,1,.46.19.66.66,0,0,1,.19.46v3.91h3.05a.61.61,0,0,1,.45.19.62.62,0,0,1,.19.46v.77a.65.65,0,0,1-.64.64h-3.05Z"/><path d="M214.39,30.82a.65.65,0,0,1-.19.45.62.62,0,0,1-.46.19h-1.37a.6.6,0,0,1-.45-.19.62.62,0,0,1-.2-.45V29.45a.63.63,0,0,1,.2-.46.6.6,0,0,1,.45-.19h1.37a.62.62,0,0,1,.46.19.66.66,0,0,1,.19.46Zm-.24,14.37a.66.66,0,0,1-.19.46.62.62,0,0,1-.46.19h-.89a.6.6,0,0,1-.45-.19.63.63,0,0,1-.2-.46V34a.63.63,0,0,1,.2-.46.6.6,0,0,1,.45-.19h.89a.62.62,0,0,1,.46.19.66.66,0,0,1,.19.46Z"/><path d="M222.86,33.12a6.13,6.13,0,0,1,2.3.4,5,5,0,0,1,1.73,1.09A5,5,0,0,1,228,36.3a7.19,7.19,0,0,1,.52,2.17c0,.15,0,.32,0,.52v1.25c0,.2,0,.36,0,.49a7.66,7.66,0,0,1-.53,2.18,4.83,4.83,0,0,1-1.13,1.68,5,5,0,0,1-1.73,1.09,6.81,6.81,0,0,1-4.6,0,5,5,0,0,1-2.87-2.77,7,7,0,0,1-.52-2.18c0-.13,0-.29,0-.49s0-.41,0-.63,0-.42,0-.62,0-.37,0-.52a7.19,7.19,0,0,1,.52-2.17,5,5,0,0,1,1.14-1.69,5,5,0,0,1,1.73-1.09A6.13,6.13,0,0,1,222.86,33.12Zm3.5,7.49a7.23,7.23,0,0,0,0-1,7.72,7.72,0,0,0,0-1,4.77,4.77,0,0,0-.31-1.34,3.13,3.13,0,0,0-.67-1.08,2.93,2.93,0,0,0-1.06-.72,4.08,4.08,0,0,0-2.92,0,2.93,2.93,0,0,0-1.06.72,3.13,3.13,0,0,0-.67,1.08,4.77,4.77,0,0,0-.31,1.34,7.72,7.72,0,0,0-.05,1,7.23,7.23,0,0,0,.05,1,4.77,4.77,0,0,0,.31,1.34,3.13,3.13,0,0,0,.67,1.08,2.93,2.93,0,0,0,1.06.72,4.08,4.08,0,0,0,2.92,0,2.93,2.93,0,0,0,1.06-.72,3.13,3.13,0,0,0,.67-1.08A4.77,4.77,0,0,0,226.36,40.61Z"/><path d="M242.68,45.19a.62.62,0,0,1-.19.46.61.61,0,0,1-.45.19h-.89a.65.65,0,0,1-.65-.65V38.86a3.8,3.8,0,0,0-.89-2.76,3.27,3.27,0,0,0-2.47-.92,3.33,3.33,0,0,0-2.44.92,3.72,3.72,0,0,0-.92,2.76v6.33a.65.65,0,0,1-.65.65h-.89a.61.61,0,0,1-.45-.19.62.62,0,0,1-.19-.46V34a.62.62,0,0,1,.19-.46.61.61,0,0,1,.45-.19h.89a.65.65,0,0,1,.65.65v.74a4.36,4.36,0,0,1,1.36-1.11,4.64,4.64,0,0,1,2.36-.52,5.71,5.71,0,0,1,2.09.37,4.6,4.6,0,0,1,1.64,1.06,4.7,4.7,0,0,1,1.07,1.69,6.19,6.19,0,0,1,.38,2.26Z"/><path class="cls-2" d="M143.67,125.23a1.35,1.35,0,0,0,.09.32,9.62,9.62,0,0,1,.7,5.38c-.24,3.22-.29,6.47-.6,9.69-.48,5-.51,10-.52,15a122.43,122.43,0,0,0,.5,14.71c.18,1.51.11,3.06.23,4.58.21,2.55.49,5.09.73,7.64s.4,4.87.68,7.3c.22,1.91.55,3.8.85,5.7a26.21,26.21,0,0,0,.71,4,12.28,12.28,0,0,1,.42,3.75,9.83,9.83,0,0,1-2.89,7.22.82.82,0,0,0,0,.8,10.51,10.51,0,0,1,2.11,3.65,7.69,7.69,0,0,0,1.57,2,12.39,12.39,0,0,1,2.29,4.59c.76,2.55.36,5.13.44,7.7a6.06,6.06,0,0,0,3,5.19,7.11,7.11,0,0,0,3.76.86c2.45.08,4.92-.23,7.34.29a5.54,5.54,0,0,1,3.74,2.4,1.25,1.25,0,0,0,1.2.62c3.82,0,7.63,0,11.44.05a5.74,5.74,0,0,1,5,2.38,6.37,6.37,0,0,1,.87,4,.65.65,0,0,1-.68.66c-.22,0-.44,0-.66,0H92.76c-.48,0-1,0-1.45,0s-.85-.16-.87-.7c-.07-2.05.3-3.95,2.12-5.21a6.81,6.81,0,0,1,3.94-1.18q5.66,0,11.31,0A1.26,1.26,0,0,0,109,238a5.11,5.11,0,0,1,4.14-2.39c2.68-.19,5.38-.23,8.06-.33a6.23,6.23,0,0,0,5.66-6.13c0-1.41,0-2.81,0-4.21a11.37,11.37,0,0,1,1.14-5.4,19.4,19.4,0,0,1,2.1-3.15A8.52,8.52,0,0,0,131.5,214a10.18,10.18,0,0,1,1.54-2.4c.48-.65.4-.67-.07-1.29a18.91,18.91,0,0,1-2-3.2,11.35,11.35,0,0,1-.51-6.77c.2-1.19.65-2.34.85-3.54q.57-3.39,1-6.79c.26-2.24.43-4.48.63-6.72.28-3.23.58-6.45.83-9.68.13-1.61.11-3.24.27-4.85.64-6.19.36-12.39.37-18.59,0-2.66-.31-5.33-.45-8-.09-1.69-.11-3.38-.22-5.06-.17-2.51-.42-5-.57-7.53a6.47,6.47,0,0,1,.62-3.51.91.91,0,0,0-.3-1.34,9.49,9.49,0,0,1-3.42-4.54,3.71,3.71,0,0,0-.75-1.13,3.26,3.26,0,0,1-.85-2.2c0-.78,0-1.57,0-2.36,0-.52-.2-.75-.77-.83a81,81,0,0,0-13.58-.25c-2.28.07-4.56.46-6.84.76-1.73.22-3.45.49-5.17.81-1.3.24-2.58.59-3.87.88s-2.55.55-3.81.87c-1.52.38-3,.78-4.54,1.22-.78.23-1.54.57-2.32.82a17.53,17.53,0,0,1-2,.54c-2,.42-4,.89-6,1.2-2.48.38-5,.63-7.48.92-.81.09-1.59,1.19-1.26,1.89.64,1.36,1.35,2.69,2,4.05.48,1,.85,2.1,1.34,3.12.72,1.52,1.53,3,2.25,4.52s1.33,3.09,2,4.62c.89,1.94,1.81,3.87,2.72,5.8l3.93,8.35,2.64,5.62,3.88,8.37c1.16,2.49,2.31,5,3.47,7.47,1,2.11,2,4.22,3,6.32,1.15,2.43,2.31,4.84,3.44,7.27,1,2.23,2.07,4.48,3.11,6.71,1.19,2.57,2.4,5.13,3.6,7.69.42.91.84,1.82,1.31,2.7a1,1,0,0,0,.64.45,3.79,3.79,0,0,1,3.13,4,3.89,3.89,0,0,1-1.63,3.27,4,4,0,0,1-2.47.72,3,3,0,0,0-1.73.45A53.05,53.05,0,0,1,98.85,219c-1.69.62-3.36,1.32-5.09,1.84-2.11.63-4.26,1.12-6.4,1.66-1.22.31-2.45.61-3.69.86s-2.53.44-3.81.61-2.65.31-4,.4c-1.81.13-3.62.29-5.44.28-3.61,0-7.23,0-10.83-.2-2.13-.11-4.24-.55-6.35-.84-.33-.05-.67,0-1-.08-1.53-.3-3.07-.6-4.59-1-1.86-.45-3.72-.94-5.58-1.44-1.29-.35-2.6-.71-3.87-1.14-1.07-.36-2.1-.83-3.14-1.27-1.74-.75-3.49-1.49-5.21-2.3-1-.48-1.92-1.12-2.91-1.65a4.92,4.92,0,0,0-1.09-.33,18.58,18.58,0,0,1-2.72-.64,3.43,3.43,0,0,1-1.78-2.4,3.78,3.78,0,0,1,1.26-4.08,15.53,15.53,0,0,1,1.79-.86,1.74,1.74,0,0,0,.78-.62c1.51-3.19,3-6.4,4.48-9.61,1.24-2.68,2.46-5.38,3.72-8.06s2.53-5.32,3.79-8c.9-1.9,1.77-3.81,2.66-5.7l3-6.39q1.56-3.3,3.1-6.62c1.25-2.67,2.49-5.34,3.74-8l3.08-6.57,3.61-7.68,3.42-7.36c1.28-2.77,2.56-5.55,3.86-8.31.25-.52.12-.8-.3-1.16a5.89,5.89,0,0,1,6.31-9.82,7,7,0,0,1,1.75,1.34,1.72,1.72,0,0,0,1.56.63c1.95-.34,3.92-.62,5.86-1a42.59,42.59,0,0,0,4.62-1.12c1.64-.51,3.22-1.19,4.83-1.79,1-.38,2.05-.75,3.08-1.11,2.18-.76,4.35-1.53,6.54-2.27.91-.3,1.84-.54,2.76-.8s2-.59,2.94-.83,2.25-.47,3.37-.72c1.43-.31,2.84-.69,4.27-1s2.85-.42,4.27-.64a66.14,66.14,0,0,1,11.76-.82l.65,0c.38,0,.54-.21.53-.59,0-.64,0-1.28,0-1.91a2.41,2.41,0,0,1,.54-1.84,11.78,11.78,0,0,0,1.56-2.79,9.46,9.46,0,0,1,4.17-4.22,4.13,4.13,0,0,0,1-.83,1,1,0,0,0-.2-1.5,6.9,6.9,0,0,1-2.21-2.38,5.84,5.84,0,0,1-.64-4.87,9.29,9.29,0,0,1,2.1-3.32,11.77,11.77,0,0,0,2.72-4.35c.19-.59.29-1.21.43-1.82,0-.1,0-.24.06-.31.27-.34.51-.84.85-.92.57-.14.85.44.89.91.25,3,2.05,5.09,3.9,7.22a5.84,5.84,0,0,1,1.4,6,6.57,6.57,0,0,1-2.58,3.58,1.34,1.34,0,0,0,.12,2.28c.46.3.93.58,1.4.86a9.54,9.54,0,0,1,3.87,5,2.39,2.39,0,0,0,.52.81,2.82,2.82,0,0,1,.91,2.17c0,.59,0,1.18,0,1.77,0,.82.09.94.93,1,1.51,0,3-.06,4.53,0,2.33.17,4.65.43,7,.72,2,.26,4,.57,6,.95,1.69.33,3.35.78,5,1.17,1,.23,2.08.4,3.1.67,1.26.34,2.5.74,3.73,1.15,1.87.6,3.73,1.21,5.58,1.86,1.32.46,2.6,1,3.91,1.49,1.53.57,3.07,1.13,4.62,1.64s2.91.89,4.38,1.25,3.15.69,4.74,1a10.82,10.82,0,0,0,2.41.16,1.69,1.69,0,0,0,1-.6A5.45,5.45,0,0,1,210,112a5.88,5.88,0,0,1,6.13,3.67,6.08,6.08,0,0,1,.34,2.57,5.3,5.3,0,0,1-2.26,4.22.7.7,0,0,0-.2,1q1.35,2.72,2.66,5.48c1,2.16,2,4.33,3.06,6.5s2,4.23,3,6.34c.85,1.85,1.67,3.7,2.52,5.55,1.2,2.57,2.41,5.13,3.61,7.7,1,2.17,2.05,4.34,3.06,6.51s2,4.45,3,6.66c.86,1.83,1.76,3.64,2.64,5.46.76,1.57,1.52,3.14,2.25,4.71s1.45,3.23,2.19,4.83c1.19,2.56,2.39,5.1,3.58,7.65.94,2,1.86,4,2.82,6,1.15,2.42,2.32,4.83,3.47,7.25.25.53.41,1.11.7,1.61a1.32,1.32,0,0,0,.77.67,4.07,4.07,0,0,1,3.2,3.84,4.13,4.13,0,0,1-4.16,4.13,3.51,3.51,0,0,0-1.62.38c-1.54.77-3,1.66-4.56,2.41-1.33.65-2.71,1.2-4.09,1.74-1.66.64-3.32,1.27-5,1.82-1.45.47-2.94.83-4.42,1.23-1.19.32-2.38.67-3.6.92s-2.53.42-3.8.6c-1.79.27-3.57.58-5.37.75-2.31.2-4.63.37-6.95.39-3.39,0-6.79,0-10.18-.21-2.1-.11-4.19-.54-6.29-.82-.32,0-.66,0-1-.1-1.49-.3-3-.6-4.46-.93-1.68-.38-3.36-.76-5-1.2-1.34-.36-2.67-.78-4-1.25-1.68-.61-3.33-1.28-5-1.93a38.88,38.88,0,0,1-6.62-3.29,3.37,3.37,0,0,0-1.85-.53,4,4,0,0,1-2.32-7.43c.43-.23.95-.3,1.39-.51a1.41,1.41,0,0,0,.6-.61c.64-1.27,1.23-2.55,1.84-3.84q1.95-4.11,3.88-8.22c1.09-2.34,2.14-4.69,3.23-7s2.24-4.62,3.33-6.95c.9-1.92,1.74-3.86,2.64-5.78,1.13-2.44,2.28-4.86,3.42-7.29s2.34-4.92,3.49-7.39c1.08-2.31,2.11-4.64,3.19-7,1.15-2.49,2.33-5,3.5-7.45s2.25-4.67,3.35-7c1.4-3,2.76-6,4.16-9,.57-1.25,1.2-2.47,1.8-3.7.24-.51.49-1,.69-1.55a1.51,1.51,0,0,0-1.48-2.16c-1.3-.09-2.61-.22-3.91-.42-2.4-.36-4.79-.76-7.17-1.18a22,22,0,0,1-2.22-.58c-1-.29-2-.57-3-.88s-2.31-.79-3.49-1.09c-2-.51-3.94-.94-5.91-1.41-1.17-.28-2.32-.59-3.49-.83s-2.52-.47-3.8-.63c-2.68-.34-5.37-.78-8.07-.92-3.63-.18-7.27-.12-10.91-.12a26.48,26.48,0,0,0-3.07.26c-.79.08-.93.28-.93,1.06s.06,1.58,0,2.36a2.8,2.8,0,0,1-.49,1.59,10.37,10.37,0,0,0-1.72,3A9.73,9.73,0,0,1,144,125Zm-76.43-.15c-1,2-1.95,4-2.86,5.88s-1.84,4-2.76,6-1.74,3.71-2.6,5.56-1.75,3.91-2.66,5.84c-1.11,2.34-2.29,4.65-3.39,7-1.51,3.2-3,6.43-4.45,9.63-.69,1.48-1.44,2.94-2.13,4.41-1.46,3.11-2.88,6.22-4.33,9.33l-2.76,5.93c-.61,1.31-1.21,2.62-1.82,3.92s-1.2,2.52-1.79,3.78S34.54,194.79,34,196q-1.14,2.44-2.29,4.91l-1.23,2.59c-.34.7-.69,1.4-1,2.11-.21.49,0,.76.43.76l6.17,0H95c3.2,0,6.39,0,9.59.06.65,0,.87-.44.55-1.08-1.17-2.39-2.34-4.78-3.47-7.18s-2.21-4.8-3.33-7.18c-.85-1.8-1.75-3.57-2.59-5.37-1.12-2.38-2.19-4.79-3.3-7.18-1.25-2.67-2.53-5.32-3.77-8-1.07-2.3-2.1-4.61-3.17-6.9s-2.24-4.67-3.33-7c-.92-1.95-1.78-3.93-2.69-5.89-1.28-2.74-2.61-5.46-3.89-8.19-1.21-2.57-2.4-5.14-3.6-7.71q-2.06-4.43-4.15-8.84A4.41,4.41,0,0,0,67.24,125.08ZM210.5,125a9.61,9.61,0,0,0-.61.92c-.34.68-.63,1.38-.95,2.07-1.28,2.72-2.57,5.43-3.84,8.16-.69,1.5-1.33,3-2,4.52-1.34,2.86-2.72,5.7-4.07,8.56-.37.77-.69,1.56-1.05,2.33-1.1,2.33-2.21,4.65-3.3,7-1,2-1.88,4.09-2.84,6.12s-2,4.09-2.91,6.14c-.48,1-.89,2.08-1.37,3.1s-1.16,2.29-1.7,3.45-.91,2.09-1.39,3.11c-1.09,2.33-2.22,4.64-3.31,7-.92,2-1.81,3.93-2.73,5.89-1,2.15-2,4.3-3,6.44-.88,1.87-1.79,3.73-2.66,5.6a1.06,1.06,0,0,0-.09.84c.11.17.52.15.81.19a4.52,4.52,0,0,0,.52,0l17.88,0h45.95l9.93,0c.66,0,.79-.19.57-.8,0-.14-.13-.28-.19-.42-.84-1.75-1.68-3.5-2.5-5.25-1.1-2.37-2.18-4.76-3.29-7.12-.91-1.94-1.87-3.85-2.78-5.79-1.17-2.48-2.3-5-3.46-7.46l-4.09-8.7L229,164.56l-3.85-8.25c-.82-1.78-1.62-3.57-2.45-5.34-.92-1.93-1.88-3.85-2.78-5.78-1.14-2.43-2.22-4.87-3.35-7.3-1.41-3-2.85-6.08-4.27-9.11C211.74,127.55,211.15,126.33,210.5,125Z"/><path class="cls-3" d="M104.13,152.42h-75L36.2,204h.1c1.18,6.43,15.5,11.48,29.53,11.48,14.28,0,28.77-5.24,29.58-11.85h0Z"/><ellipse class="cls-4" cx="66.61" cy="150.05" rx="37.51" ry="9.11"/><ellipse class="cls-5" cx="66.61" cy="150.69" rx="39.65" ry="10.94"/><ellipse class="cls-6" cx="66.16" cy="150.05" rx="37.06" ry="9.11"/><g class="cls-7"><ellipse class="cls-8" cx="80.8" cy="122.62" rx="4.81" ry="4.77"/><path class="cls-8" d="M95.3,142.27c3.27-1.53,5.33-3.77,5.33-6.26,0-4.62-7.08-8.37-15.82-8.37a27,27,0,0,0-8.25,1.23,10.19,10.19,0,0,0-9.38-5.61,10.3,10.3,0,0,0-9.12,5.07,18.86,18.86,0,0,0-5.15-.69c-7.16,0-13,3.75-13,8.37a6.09,6.09,0,0,0,1.43,3.81c-6,2.72-9.73,6.44-9.73,10.53,0,8.37,15.45,15.14,34.5,15.14s34.49-6.77,34.49-15.14C100.63,147.38,98.67,144.61,95.3,142.27Z"/><ellipse class="cls-8" cx="64.53" cy="113.33" rx="1.92" ry="1.87"/><ellipse class="cls-8" cx="50.23" cy="123.33" rx="4.01" ry="3.92"/><ellipse class="cls-8" cx="61.91" cy="120.67" rx="2.11" ry="1.63"/></g><path class="cls-9" d="M61.23,196.94,56,186.54a5.6,5.6,0,0,1-.28-4.43l3.42-9.5a5.61,5.61,0,0,1,5.27-3.71h6.51a5.59,5.59,0,0,1,5.26,3.69l3.29,9a5.62,5.62,0,0,1-.17,4.26l-5,10.86A5.59,5.59,0,0,1,69.16,200H66.23A5.62,5.62,0,0,1,61.23,196.94Z"/><rect class="cls-9" x="47.63" y="187.54" width="7.35" height="14.67" transform="translate(-86.27 47.63) rotate(-28.3)"/><polygon class="cls-9" points="57.7 194.82 58.56 194.36 55.33 188.36 54.47 188.82 53.2 186.47 52.34 186.94 58.76 198.86 59.62 198.4 57.7 194.82"/><path class="cls-9" d="M43.61,190.86a18.25,18.25,0,0,0,1.54,6c1.55,3.57,3.8,6.24,5.68,7Z"/><rect class="cls-9" x="80.16" y="187.51" width="7.35" height="14.67" transform="translate(84.95 406.96) rotate(-157.02)"/><polygon class="cls-9" points="77.47 195.38 76.56 195 79.22 188.73 80.13 189.11 81.17 186.65 82.07 187.04 76.78 199.51 75.88 199.12 77.47 195.38"/><path class="cls-9" d="M91.12,190.14a18.23,18.23,0,0,1-1,6.12c-1.21,3.7-3.21,6.56-5,7.45Z"/><circle class="cls-10" cx="67.64" cy="192.2" r="5.9"/><circle class="cls-10" cx="67.64" cy="192.2" r="3.98"/><circle class="cls-10" cx="67.64" cy="192.34" r="1.92"/><line class="cls-10" x1="67.69" y1="188.07" x2="67.69" y2="192.2"/><line class="cls-10" x1="71.08" y1="194.41" x2="67.84" y2="192.05"/><line class="cls-10" x1="64.6" y1="194.7" x2="67.54" y2="192.05"/><path class="cls-11" d="M65.63,176.27a8.06,8.06,0,0,1-7.37,8.26c-2.74.39-3.54-3.45-3.54-5.9a5.52,5.52,0,0,1,5.31-5C62.79,173.62,65.63,173.83,65.63,176.27Z"/><path class="cls-12" d="M64.15,176.74a5.88,5.88,0,0,1-5.38,6c-2,.29-2.58-2.52-2.58-4.3a4,4,0,0,1,3.87-3.66C62.08,174.8,64.15,175,64.15,176.74Z"/><path class="cls-11" d="M69.17,176.27a8.05,8.05,0,0,0,7.37,8.26c2.74.39,3.53-3.45,3.53-5.9a5.51,5.51,0,0,0-5.3-5C72,173.62,69.17,173.83,69.17,176.27Z"/><path class="cls-12" d="M70.64,176.74a5.88,5.88,0,0,0,5.38,6c2,.29,2.58-2.52,2.58-4.3a4,4,0,0,0-3.87-3.66C72.71,174.8,70.64,175,70.64,176.74Z"/><path class="cls-13" d="M201.9,137.22l32-3.77s23.93,6.91,23.93,40.89c0,16.66,1.44,32.44-13.74,32.87s-56.18.35-57.25-1.12,4.47-24.66,1.06-26.23C183.24,177.72,193,137.61,201.9,137.22Z"/><path class="cls-14" d="M239.22,128.17s11.09,5.86,13.2,16.59,2.34,28.47-4,33.35-28.31,13.47-29.36,13.95-1.59-8.78,1.05-10.73,14.88-13.64,14.35-18.52S228.67,136,229.72,134,239.22,128.17,239.22,128.17Z"/><path class="cls-15" d="M207.82,110.7s-2.33-4.4-4.08-5.28-7,.88-6.42,3.52,3.62,5.36,3.62,5.36S206.66,110.7,207.82,110.7Z"/><path d="M190.15,177.06s6.9,12.86,6.9,18.22-1.1,9.11-4.79,10.57-14.78,2-14.78,2-1.58-12.68-1.58-14.64S188,177.55,190.15,177.06Z"/><path class="cls-14" d="M197,134.51c-4.75,1-11,9.79-13.72,13.67a44.12,44.12,0,0,0-7.21,18.13c-.53,3.41,9.43,23.8,10.48,25.75s6.3-7,6.3-8.58c0-4.3-3.73-9.08-4.2-12.88-.27-2.22-.43-3.45.87-5.3l19.61-27.86Z"/><path d="M231,144.52s-1.33-2.81-3.69-2.44c-4,.61-9,4.33-10.55,6.07a22.92,22.92,0,0,0-2.64,3.59s-1.95-4.75-3-5.83-2.84-1.48-5.07-1.07c-2.64.49-5.68,5-5.68,5l-2.64-15.12,10.61,4a19,19,0,0,0,12.66.29l13.14-4.31Z"/><path class="cls-16" d="M241.09,130.13s-14,10.73-24.92,10.73a34.16,34.16,0,0,1-18.94-6.06c-.94-8.6,1.91-20,5.77-23,7.45-5.79,15.33-5.13,21.14-3.16C233.21,111.76,241.09,130.13,241.09,130.13Z"/><path d="M246.33,181.33c5.14-1.05,7.32,2,9.44,8.59,1.1,3.43,1.44,17.47-9,18.29-6.47.5-18.84.69-27.33.77a8,8,0,0,1-7.92-9.06h0a8.07,8.07,0,0,1,4.63-6.44C222.69,190.5,241.09,182.4,246.33,181.33Z"/><path class="cls-17" d="M211.74,193.07s5.28-2.93,7.92-.49,1.58,11.71,0,14.64-6.34,3.41-8.45,2.92S207,195,211.74,193.07Z"/><path class="cls-17" d="M170.08,189.65s14.21-1,18.47,2.93c2.64,2.44,3.17,3.9,3.17,6.83s-1.59,6.83-6.86,7.81-14.81,1.44-15.68.3C166.48,204,162.89,191.93,170.08,189.65Z"/><path class="cls-18" d="M222.71,109.81s6.42,5,7.56,4.18,2.28-1.74,2.42-3.2-2.06-5.28-3.61-6.72c-1.19-1.11-3.11-2.38-4.73-.47C222.93,105.28,222.71,109.81,222.71,109.81Z"/><path d="M206.46,126.8h4.22s1.59.49,1.59,1-2.64,2.44-3.17,2.93-3.69-1-3.69-2A3.36,3.36,0,0,1,206.46,126.8Z"/><path class="cls-19" d="M208.57,130.71c-.53,3.9,3.87,3.54,9.5,1.95"/><path class="cls-19" d="M208.57,132.17a2.37,2.37,0,0,1-3.69,1"/><path class="cls-20" d="M214.64,120.7c0-1,2.11-3.9,4.22-2.92s2.64,2.44,3.17,4.39,1.05,2.44,1.05,3.41S221.5,128,219.92,128a3.28,3.28,0,0,1-3.17-2.44C216.22,124.12,214.64,121.19,214.64,120.7Z"/><path class="cls-20" d="M208.07,120.62c.15-1-.84-4.06-2.43-3.28s-1.64,2.18-2.29,4.06-1.62,2.32-1.77,3.29a2.64,2.64,0,0,0,1.78,2.7c1.08.14,1.95-2.19,2.53-3.6S208,121.1,208.07,120.62Z"/><ellipse cx="205.67" cy="121.19" rx="1.48" ry="1.04" transform="translate(6.64 253.01) rotate(-64.02)"/><ellipse cx="217.01" cy="121.19" rx="1.31" ry="1.47" transform="translate(-29.08 86.24) rotate(-21.1)"/></g></g></svg>