<svg xmlns="http://www.w3.org/2000/svg" xmlns:xlink="http://www.w3.org/1999/xlink" viewBox="0 0 281.2 249.12"><defs><style>.cls-1,.cls-12,.cls-18,.cls-27{fill:none;}.cls-2{font-size:24px;font-family:Rubik-Regular, Rubik;}.cls-3{letter-spacing:-0.01em;}.cls-4{letter-spacing:-0.02em;}.cls-5{letter-spacing:-0.02em;}.cls-6{letter-spacing:0em;}.cls-7{letter-spacing:-0.01em;}.cls-8{letter-spacing:0em;}.cls-9{letter-spacing:-0.02em;}.cls-10{fill:#4d66c1;stroke-width:0.04px;}.cls-10,.cls-11,.cls-13,.cls-14,.cls-17,.cls-18,.cls-19{stroke:#fff;}.cls-10,.cls-11,.cls-12,.cls-13,.cls-14,.cls-17,.cls-18,.cls-19,.cls-21,.cls-22,.cls-23,.cls-24,.cls-25,.cls-26,.cls-27{stroke-miterlimit:10;}.cls-11{fill:#27c1b2;}.cls-11,.cls-13,.cls-14{stroke-width:0.08px;}.cls-12{stroke:red;stroke-width:0.18px;}.cls-13{fill:#5ae2d1;}.cls-14{fill:#222e7d;}.cls-15{clip-path:url(#clip-path);}.cls-16{fill:#b3b3b3;}.cls-17{stroke-width:0.35px;}.cls-18{stroke-width:0.29px;}.cls-19{stroke-width:0.56px;}.cls-20,.cls-21,.cls-24{fill:#fff;}.cls-21,.cls-24{stroke:#ccc;}.cls-21{stroke-width:0.51px;}.cls-22,.cls-25{stroke:#666;}.cls-22{stroke-width:0.42px;}.cls-23,.cls-26,.cls-27{stroke:#000;}.cls-23{stroke-width:0.51px;}.cls-24{stroke-width:0.48px;}.cls-25{stroke-width:0.28px;}.cls-26,.cls-27{stroke-width:0.51px;}.cls-28{fill:#1a1a1a;}</style><clipPath id="clip-path"><path class="cls-1" d="M115.41,136.47c0,20.42-21.27,26.05-47.52,26.05s-47.52-5.63-47.52-26.05c0-15.55,21.28-28.16,47.52-28.16S115.41,120.92,115.41,136.47Z"/></clipPath></defs><title>carbon-pollution</title><g id="Layer_2" data-name="Layer 2"><g id="Layer_2-2" data-name="Layer 2"><text class="cls-2" transform="translate(0 20.4)">Can p<tspan class="cls-3" x="63.89" y="0">r</tspan><tspan class="cls-4" x="72.7" y="0">e</tspan><tspan class="cls-5" x="85.61" y="0">v</tspan><tspan class="cls-6" x="98.57" y="0">e</tspan><tspan class="cls-7" x="111.93" y="0">n</tspan><tspan class="cls-8" x="126.31" y="0">t 340 pounds </tspan><tspan class="cls-7" x="35.43" y="28.8">o</tspan><tspan class="cls-9" x="49.09" y="28.8">f</tspan><tspan x="57.9" y="28.8" xml:space="preserve"> carbon pollution</tspan></text><path class="cls-10" d="M145.07,128.59a2.07,2.07,0,0,0,.09.32,9.51,9.51,0,0,1,.7,5.37c-.24,3.23-.28,6.48-.59,9.7-.49,5-.51,10-.53,15a122.2,122.2,0,0,0,.51,14.7c.17,1.52.1,3.07.22,4.59.21,2.55.49,5.09.73,7.64s.41,4.87.69,7.3c.21,1.91.54,3.8.84,5.7a25.25,25.25,0,0,0,.72,4,12.27,12.27,0,0,1,.41,3.75A9.83,9.83,0,0,1,146,213.9a.84.84,0,0,0,0,.8,10.49,10.49,0,0,1,2.1,3.65,7.69,7.69,0,0,0,1.57,2,12.26,12.26,0,0,1,2.3,4.59c.76,2.55.36,5.13.44,7.7a6.06,6.06,0,0,0,3,5.19,7.07,7.07,0,0,0,3.76.86c2.44.08,4.91-.23,7.33.29a5.56,5.56,0,0,1,3.75,2.4,1.24,1.24,0,0,0,1.2.62c3.81,0,7.63-.05,11.44,0a5.76,5.76,0,0,1,5,2.39,6.37,6.37,0,0,1,.87,4,.64.64,0,0,1-.68.66H94.16c-.48,0-1,0-1.44,0s-.85-.16-.87-.7c-.08-2,.3-3.95,2.11-5.21a6.84,6.84,0,0,1,4-1.18q5.66,0,11.3,0a1.25,1.25,0,0,0,1.18-.66,5.12,5.12,0,0,1,4.15-2.39c2.68-.19,5.37-.23,8.06-.33a6.22,6.22,0,0,0,5.65-6.14c0-1.4,0-2.8,0-4.2a11.37,11.37,0,0,1,1.14-5.4,19.4,19.4,0,0,1,2.1-3.15,8.29,8.29,0,0,0,1.43-2.38,10,10,0,0,1,1.54-2.4c.48-.65.4-.67-.06-1.29a18.35,18.35,0,0,1-2-3.2,11.43,11.43,0,0,1-.51-6.77c.21-1.19.65-2.35.86-3.54q.57-3.39,1-6.79c.26-2.24.43-4.48.63-6.72.29-3.23.58-6.45.84-9.68.12-1.61.1-3.24.27-4.85.64-6.19.35-12.39.36-18.59,0-2.66-.3-5.33-.45-8-.09-1.68-.11-3.37-.22-5-.17-2.51-.42-5-.56-7.53a6.56,6.56,0,0,1,.61-3.51.91.91,0,0,0-.29-1.34,9.42,9.42,0,0,1-3.42-4.54,4.12,4.12,0,0,0-.75-1.13,3.34,3.34,0,0,1-.86-2.2c0-.79,0-1.57,0-2.36,0-.52-.2-.76-.76-.83a81.07,81.07,0,0,0-13.58-.25,68.45,68.45,0,0,0-6.84.76c-1.73.22-3.46.49-5.17.81-1.3.24-2.58.59-3.87.88s-2.55.55-3.82.87c-1.52.38-3,.78-4.53,1.22-.79.23-1.54.57-2.33.82a17.53,17.53,0,0,1-2,.54c-2,.42-4,.89-6,1.2-2.48.38-5,.63-7.48.91-.8.1-1.59,1.2-1.26,1.9.64,1.36,1.35,2.69,2,4,.48,1,.86,2.1,1.34,3.12.72,1.52,1.54,3,2.25,4.52s1.34,3.09,2,4.62c.88,1.94,1.8,3.87,2.71,5.8l3.93,8.35c.88,1.87,1.77,3.75,2.64,5.62q2,4.19,3.88,8.37c1.16,2.49,2.31,5,3.48,7.47q1.48,3.17,3,6.32c1.15,2.42,2.31,4.84,3.45,7.27,1,2.23,2.06,4.47,3.1,6.71l3.6,7.69c.43.91.84,1.82,1.31,2.7a1,1,0,0,0,.64.45,3.79,3.79,0,0,1,3.13,3.95,3.88,3.88,0,0,1-1.62,3.27,4,4,0,0,1-2.47.72,3.07,3.07,0,0,0-1.74.45,51.45,51.45,0,0,1-8.67,4.14c-1.69.63-3.36,1.33-5.08,1.84-2.11.64-4.26,1.13-6.4,1.67-1.23.31-2.45.61-3.69.85s-2.54.45-3.81.62-2.65.31-4,.4c-1.81.13-3.63.29-5.44.28-3.62,0-7.23,0-10.84-.2-2.12-.11-4.23-.56-6.35-.84-.32,0-.66,0-1-.08-1.53-.31-3.06-.6-4.58-1-1.87-.45-3.73-.94-5.58-1.44-1.3-.35-2.6-.71-3.88-1.14-1.06-.36-2.1-.83-3.14-1.27-1.74-.75-3.49-1.49-5.2-2.3-1-.48-1.93-1.12-2.91-1.65a5,5,0,0,0-1.1-.33,18.45,18.45,0,0,1-2.71-.64,3.41,3.41,0,0,1-1.79-2.4,3.8,3.8,0,0,1,1.27-4.08,14.09,14.09,0,0,1,1.79-.86,1.71,1.71,0,0,0,.77-.62c1.52-3.19,3-6.4,4.48-9.61,1.24-2.69,2.47-5.38,3.72-8.06s2.54-5.32,3.79-8c.9-1.9,1.77-3.81,2.67-5.7,1-2.13,2-4.26,3-6.39l3.09-6.62,3.75-8,3.07-6.57c1.21-2.56,2.42-5.12,3.61-7.68s2.28-4.91,3.42-7.36c1.29-2.77,2.56-5.55,3.87-8.31.24-.52.11-.8-.31-1.16a5.89,5.89,0,0,1,6.31-9.82,6.9,6.9,0,0,1,1.76,1.34,1.7,1.7,0,0,0,1.55.63c2-.34,3.92-.63,5.87-1a43,43,0,0,0,4.61-1.12c1.64-.51,3.23-1.19,4.84-1.79,1-.38,2-.75,3.07-1.11,2.18-.76,4.36-1.53,6.54-2.27.91-.31,1.84-.54,2.76-.8s2-.59,2.94-.83,2.25-.47,3.38-.72c1.42-.31,2.83-.69,4.27-1s2.84-.42,4.26-.64a66.14,66.14,0,0,1,11.76-.82l.66,0c.38,0,.53-.21.52-.6,0-.63,0-1.27,0-1.9a2.42,2.42,0,0,1,.55-1.84A12.15,12.15,0,0,0,132,98.64a9.38,9.38,0,0,1,4.16-4.22,4,4,0,0,0,1-.83,1,1,0,0,0-.2-1.5,7,7,0,0,1-2.21-2.38,5.84,5.84,0,0,1-.64-4.87,9.23,9.23,0,0,1,2.11-3.32,11.74,11.74,0,0,0,2.71-4.35,18.52,18.52,0,0,0,.43-1.82c0-.1,0-.24.07-.32.26-.33.5-.84.84-.91.57-.14.86.44.9.91.24,3,2,5.09,3.9,7.22a5.88,5.88,0,0,1,1.4,6,6.59,6.59,0,0,1-2.59,3.58,1.35,1.35,0,0,0,.13,2.28c.46.29.92.58,1.39.86a9.54,9.54,0,0,1,3.87,5,2.55,2.55,0,0,0,.52.81,2.81,2.81,0,0,1,.91,2.17c0,.59,0,1.18,0,1.77,0,.82.09.94.93,1,1.51,0,3-.06,4.54,0,2.32.17,4.65.43,7,.72,2,.26,4,.57,6,.95,1.68.32,3.35.78,5,1.17,1,.23,2.08.4,3.11.67,1.25.34,2.49.74,3.73,1.14,1.86.61,3.73,1.22,5.58,1.87,1.31.46,2.6,1,3.9,1.49,1.54.57,3.07,1.13,4.63,1.63s2.9.9,4.37,1.26,3.15.69,4.74,1a10.91,10.91,0,0,0,2.42.16,1.75,1.75,0,0,0,1-.6,5.41,5.41,0,0,1,3.74-1.89A5.87,5.87,0,0,1,217.5,119a5.78,5.78,0,0,1,.34,2.57,5.26,5.26,0,0,1-2.25,4.22.69.69,0,0,0-.21,1c.91,1.81,1.79,3.64,2.66,5.47q1.54,3.25,3.06,6.51c1,2.11,2,4.23,3,6.34.85,1.85,1.67,3.7,2.53,5.55,1.19,2.57,2.4,5.13,3.6,7.7,1,2.17,2.05,4.34,3.06,6.51s2,4.45,3,6.66c.86,1.83,1.77,3.64,2.64,5.46.76,1.57,1.52,3.14,2.26,4.71s1.45,3.23,2.19,4.83c1.18,2.56,2.38,5.1,3.57,7.65.94,2,1.87,4,2.82,6,1.15,2.42,2.32,4.83,3.48,7.25.25.53.41,1.11.7,1.61a1.33,1.33,0,0,0,.76.67,4.05,4.05,0,0,1,3.2,3.83,4.12,4.12,0,0,1-4.16,4.14,3.54,3.54,0,0,0-1.62.38c-1.54.76-3,1.66-4.56,2.41-1.33.65-2.71,1.2-4.09,1.74-1.66.64-3.32,1.27-5,1.82-1.45.47-2.94.83-4.41,1.22-1.2.33-2.39.68-3.6.92s-2.53.43-3.8.61c-1.79.27-3.58.58-5.38.74-2.31.21-4.63.38-6.94.4-3.4,0-6.79,0-10.18-.21-2.11-.11-4.2-.54-6.29-.82-.33,0-.66,0-1-.1-1.49-.3-3-.6-4.45-.93-1.69-.38-3.37-.76-5-1.2-1.34-.36-2.67-.79-4-1.26-1.68-.6-3.32-1.28-5-1.92a38.52,38.52,0,0,1-6.62-3.29,3.43,3.43,0,0,0-1.86-.53,4,4,0,0,1-2.31-7.43c.43-.23.94-.3,1.38-.51a1.44,1.44,0,0,0,.61-.61c.63-1.27,1.23-2.55,1.83-3.84q2-4.11,3.88-8.22c1.09-2.34,2.14-4.69,3.23-7s2.24-4.63,3.34-7c.9-1.92,1.74-3.86,2.63-5.79,1.13-2.43,2.28-4.85,3.43-7.28s2.34-4.92,3.49-7.39c1.07-2.31,2.11-4.64,3.18-7,1.15-2.49,2.33-5,3.51-7.45s2.24-4.67,3.34-7c1.4-3,2.76-6,4.16-9,.58-1.25,1.2-2.47,1.8-3.7.24-.51.49-1,.69-1.55a1.51,1.51,0,0,0-1.47-2.16c-1.31-.09-2.62-.22-3.92-.42-2.39-.36-4.78-.76-7.17-1.18a21.12,21.12,0,0,1-2.21-.58c-1-.29-2-.57-3-.88-1.17-.36-2.32-.79-3.5-1.09-2-.51-3.94-.94-5.91-1.41-1.16-.28-2.32-.59-3.49-.83s-2.52-.47-3.79-.63c-2.69-.34-5.38-.78-8.08-.92-3.63-.18-7.27-.12-10.9-.12a28.84,28.84,0,0,0-3.08.25c-.78.09-.93.29-.93,1.07a20.65,20.65,0,0,1,0,2.36,2.8,2.8,0,0,1-.49,1.59,10.86,10.86,0,0,0-1.72,3,9.54,9.54,0,0,1-3.09,3.41Zm-76.43-.15c-1,2-2,3.95-2.86,5.88s-1.83,4-2.76,6-1.74,3.71-2.59,5.56-1.75,3.91-2.67,5.84c-1.11,2.34-2.28,4.65-3.39,7-1.5,3.2-2.95,6.43-4.45,9.63-.69,1.48-1.44,2.93-2.13,4.41-1.45,3.11-2.88,6.22-4.32,9.33-.92,2-1.85,4-2.77,5.93-.61,1.31-1.21,2.62-1.82,3.92s-1.19,2.52-1.79,3.78l-1.71,3.68c-.77,1.63-1.53,3.27-2.3,4.91-.4.87-.82,1.73-1.23,2.59-.33.7-.69,1.4-1,2.11-.21.49,0,.76.43.76,2,0,4.11,0,6.17,0h59c3.19,0,6.39,0,9.58.06.66,0,.87-.44.56-1.08-1.17-2.39-2.34-4.78-3.48-7.18s-2.2-4.8-3.33-7.18c-.84-1.8-1.75-3.57-2.59-5.37-1.12-2.39-2.18-4.79-3.3-7.18-1.24-2.67-2.53-5.32-3.77-8-1.07-2.29-2.1-4.6-3.17-6.89s-2.23-4.67-3.33-7c-.91-1.95-1.77-3.93-2.69-5.89-1.28-2.74-2.6-5.46-3.89-8.19-1.21-2.57-2.39-5.15-3.59-7.71q-2.07-4.42-4.15-8.84A5,5,0,0,0,68.64,128.44Zm143.27-.12a8.27,8.27,0,0,0-.62.92c-.33.68-.63,1.38-.95,2.07-1.27,2.72-2.56,5.43-3.83,8.16-.7,1.5-1.34,3-2,4.52-1.34,2.86-2.72,5.7-4.07,8.56-.36.76-.68,1.55-1,2.32-1.09,2.34-2.21,4.66-3.3,7-.95,2-1.88,4.09-2.83,6.12s-2,4.09-2.91,6.14c-.48,1-.9,2.08-1.38,3.1s-1.15,2.29-1.7,3.45-.9,2.08-1.39,3.11c-1.09,2.33-2.22,4.64-3.31,7-.92,2-1.81,3.93-2.72,5.89-1,2.15-2,4.29-3,6.44-.89,1.87-1.8,3.73-2.67,5.6a1.06,1.06,0,0,0-.08.84c.11.17.52.15.8.19a4.52,4.52,0,0,0,.52,0l17.89,0q23,0,45.95,0c3.31,0,6.62,0,9.92,0,.66,0,.8-.19.58-.8-.06-.14-.13-.28-.2-.42-.83-1.75-1.68-3.5-2.5-5.25-1.1-2.37-2.17-4.76-3.28-7.12-.91-1.94-1.87-3.85-2.78-5.79-1.17-2.48-2.31-5-3.47-7.46-1.35-2.91-2.73-5.8-4.09-8.7-1-2.09-1.95-4.18-2.93-6.28l-3.84-8.24c-.83-1.78-1.62-3.57-2.46-5.34-.91-1.94-1.87-3.85-2.78-5.79-1.13-2.42-2.22-4.86-3.35-7.29q-2.12-4.56-4.27-9.11Z"/><path class="cls-11" d="M105.53,155.78h-75l7.09,51.58h.11c1.18,6.44,15.5,11.49,29.52,11.49,14.28,0,28.77-5.24,29.58-11.85h0Z"/><ellipse class="cls-12" cx="68.02" cy="153.41" rx="37.51" ry="9.11"/><ellipse class="cls-13" cx="68.02" cy="154.05" rx="39.65" ry="10.94"/><ellipse class="cls-14" cx="67.57" cy="153.41" rx="37.06" ry="9.11"/><g class="cls-15"><ellipse class="cls-16" cx="82.21" cy="125.98" rx="4.81" ry="4.77"/><path class="cls-16" d="M96.71,145.63c3.27-1.53,5.33-3.77,5.33-6.26C102,134.74,95,131,86.22,131A27,27,0,0,0,78,132.23a10.67,10.67,0,0,0-18.49-.54,18.88,18.88,0,0,0-5.16-.69c-7.16,0-13,3.74-13,8.37a6.1,6.1,0,0,0,1.42,3.81c-6,2.72-9.72,6.44-9.72,10.53,0,8.36,15.44,15.14,34.49,15.14s34.5-6.78,34.5-15.14C102,150.74,100.08,148,96.71,145.63Z"/><ellipse class="cls-16" cx="65.94" cy="116.69" rx="1.92" ry="1.87"/><ellipse class="cls-16" cx="51.63" cy="126.69" rx="4.01" ry="3.92"/><ellipse class="cls-16" cx="63.32" cy="124.03" rx="2.11" ry="1.63"/></g><path class="cls-17" d="M62.64,200.3l-5.28-10.4a5.64,5.64,0,0,1-.27-4.43L60.5,176a5.61,5.61,0,0,1,5.27-3.71h6.52A5.61,5.61,0,0,1,77.55,176l3.29,9a5.62,5.62,0,0,1-.18,4.26l-5,10.86a5.6,5.6,0,0,1-5.09,3.26H67.63A5.59,5.59,0,0,1,62.64,200.3Z"/><rect class="cls-17" x="49.03" y="190.9" width="7.35" height="14.67" transform="translate(-87.7 48.69) rotate(-28.3)"/><polygon class="cls-17" points="59.1 198.18 59.96 197.72 56.73 191.72 55.87 192.18 54.6 189.83 53.74 190.3 60.16 202.22 61.03 201.76 59.1 198.18"/><path class="cls-17" d="M45,194.22a18.25,18.25,0,0,0,1.54,6c1.55,3.57,3.81,6.24,5.69,7Z"/><rect class="cls-17" x="81.57" y="190.87" width="7.35" height="14.67" transform="translate(86.34 413.96) rotate(-157.02)"/><polygon class="cls-17" points="78.87 198.74 77.97 198.36 80.63 192.09 81.53 192.47 82.57 190.01 83.47 190.4 78.19 202.87 77.28 202.48 78.87 198.74"/><path class="cls-17" d="M92.53,193.49a18.28,18.28,0,0,1-1,6.13c-1.21,3.7-3.21,6.56-5,7.45Z"/><circle class="cls-18" cx="69.05" cy="195.55" r="5.9"/><circle class="cls-18" cx="69.05" cy="195.55" r="3.98"/><circle class="cls-18" cx="69.05" cy="195.7" r="1.92"/><line class="cls-18" x1="69.1" y1="191.43" x2="69.1" y2="195.55"/><line class="cls-18" x1="72.49" y1="197.77" x2="69.24" y2="195.41"/><line class="cls-18" x1="66" y1="198.06" x2="68.95" y2="195.41"/><path class="cls-19" d="M67,179.63a8.07,8.07,0,0,1-7.37,8.26c-2.74.39-3.54-3.45-3.54-5.9a5.52,5.52,0,0,1,5.31-5C64.2,177,67,177.19,67,179.63Z"/><path class="cls-20" d="M65.56,180.1a5.88,5.88,0,0,1-5.38,6c-2,.29-2.59-2.52-2.59-4.3a4,4,0,0,1,3.88-3.66C63.49,178.16,65.56,178.31,65.56,180.1Z"/><path class="cls-19" d="M70.57,179.63a8.07,8.07,0,0,0,7.37,8.26c2.74.39,3.54-3.45,3.54-5.9a5.52,5.52,0,0,0-5.31-5C73.4,177,70.57,177.19,70.57,179.63Z"/><path class="cls-20" d="M72,180.1a5.88,5.88,0,0,0,5.38,6c2,.29,2.58-2.52,2.58-4.3a4,4,0,0,0-3.87-3.66C74.11,178.16,72,178.31,72,180.1Z"/><path class="cls-21" d="M203.31,140.58l32-3.77s23.93,6.91,23.93,40.89c0,16.66,1.44,32.44-13.74,32.86s-56.17.36-57.25-1.11,4.47-24.66,1.06-26.23C184.64,181.08,194.42,141,203.31,140.58Z"/><path class="cls-22" d="M240.63,131.53s11.08,5.86,13.19,16.59,2.34,28.47-4,33.35-28.3,13.47-29.36,13.95-1.59-8.78,1.05-10.73,14.89-13.64,14.36-18.52-5.81-26.83-4.75-28.78S240.63,131.53,240.63,131.53Z"/><path class="cls-23" d="M209.23,114.06s-2.34-4.4-4.09-5.28-7,.88-6.42,3.52,3.63,5.36,3.63,5.36S208.06,114.06,209.23,114.06Z"/><path d="M191.55,180.42s6.9,12.86,6.9,18.22-1.1,9.11-4.79,10.57-14.77,1.95-14.77,1.95-1.59-12.68-1.59-14.64S189.44,180.91,191.55,180.42Z"/><path class="cls-22" d="M198.41,137.87c-4.75,1-11,9.79-13.72,13.67a44.15,44.15,0,0,0-7.21,18.12c-.52,3.42,9.43,23.81,10.49,25.76s6.29-7,6.29-8.58c0-4.3-3.73-9.08-4.19-12.88-.28-2.23-.43-3.45.87-5.3l19.61-27.86Z"/><path d="M232.45,147.88s-1.34-2.81-3.7-2.44c-4,.61-9,4.32-10.55,6.07a23.72,23.72,0,0,0-2.64,3.59s-1.95-4.75-3-5.83-2.84-1.48-5.08-1.07c-2.64.49-5.68,5-5.68,5l-2.64-15.12,10.62,4a19,19,0,0,0,12.66.29l13.13-4.31Z"/><path class="cls-24" d="M242.49,133.49s-14,10.73-24.92,10.73a34.17,34.17,0,0,1-18.94-6.07c-.93-8.59,1.92-20,5.77-23,7.46-5.79,15.33-5.13,21.15-3.16C234.61,115.12,242.49,133.49,242.49,133.49Z"/><path d="M247.73,184.69c5.14-1.05,7.33,2,9.44,8.59,1.11,3.43,1.45,17.47-9,18.29-6.47.5-18.84.69-27.33.77a8,8,0,0,1-7.92-9.06h0a8.08,8.08,0,0,1,4.64-6.44C224.09,193.86,242.49,185.76,247.73,184.69Z"/><path class="cls-25" d="M213.14,196.43s5.28-2.93,7.92-.49,1.58,11.71,0,14.64-6.33,3.41-8.44,2.92S208.4,198.38,213.14,196.43Z"/><path class="cls-25" d="M171.48,193s14.22-1,18.47,2.93c2.64,2.44,3.17,3.9,3.17,6.83s-1.58,6.83-6.86,7.81-14.8,1.44-15.67.3C167.88,207.36,164.29,195.29,171.48,193Z"/><path class="cls-26" d="M224.11,113.17s6.42,5,7.56,4.18,2.29-1.74,2.42-3.2-2.06-5.28-3.61-6.72c-1.18-1.11-3.1-2.38-4.72-.47C224.33,108.64,224.11,113.17,224.11,113.17Z"/><path d="M207.86,130.16h4.23s1.58.49,1.58,1-2.64,2.44-3.17,2.93-3.69-1-3.69-1.95A3.36,3.36,0,0,1,207.86,130.16Z"/><path class="cls-27" d="M210,134.07c-.53,3.9,3.86,3.54,9.49,2"/><path class="cls-27" d="M210,135.53c-.71,1.35-1.94,2-3.7,1"/><path class="cls-28" d="M216,124.06c0-1,2.11-3.9,4.23-2.92s2.63,2.44,3.16,4.39,1.06,2.44,1.06,3.41-1.59,2.44-3.17,2.44a3.29,3.29,0,0,1-3.17-2.44C217.63,127.48,216,124.55,216,124.06Z"/><path class="cls-28" d="M209.47,124c.15-1-.84-4.06-2.42-3.28s-1.64,2.18-2.3,4.06-1.62,2.32-1.77,3.29.71,2.56,1.79,2.7,1.94-2.19,2.52-3.6S209.4,124.46,209.47,124Z"/><ellipse cx="207.07" cy="124.55" rx="1.48" ry="1.04" transform="translate(4.41 256.16) rotate(-64.02)"/><ellipse cx="218.42" cy="124.55" rx="1.31" ry="1.47" transform="translate(-30.19 86.97) rotate(-21.1)"/></g></g></svg>