<svg xmlns="http://www.w3.org/2000/svg" xmlns:xlink="http://www.w3.org/1999/xlink" viewBox="0 0 251.08 219.97"><defs><style>.cls-1,.cls-3{fill:none;}.cls-2{fill:#3c4c99;}.cls-12,.cls-13,.cls-2,.cls-4,.cls-6,.cls-9{stroke:#fff;}.cls-12,.cls-13,.cls-2,.cls-3,.cls-4,.cls-6,.cls-9{stroke-miterlimit:10;}.cls-12,.cls-2,.cls-4,.cls-9{stroke-width:0.07px;}.cls-3{stroke:red;stroke-width:0.15px;}.cls-4{fill:#222e7d;}.cls-5{fill:#92cce0;}.cls-6{fill:#5c79e5;}.cls-13,.cls-6{stroke-width:0.17px;}.cls-7{clip-path:url(#clip-path);}.cls-8{fill:#b3b3b3;}.cls-9{fill:#2f3e75;}.cls-10{clip-path:url(#clip-path-2);}.cls-11{fill:gray;}.cls-12{fill:#4d66c1;}.cls-13{fill:#8198e2;}.cls-14{clip-path:url(#clip-path-3);}.cls-15{fill:#e6e6e6;}</style><clipPath id="clip-path"><ellipse class="cls-1" cx="97.24" cy="99.56" rx="38.72" ry="21.77"/></clipPath><clipPath id="clip-path-2"><ellipse class="cls-1" cx="148.8" cy="116.86" rx="38.72" ry="21.77"/></clipPath><clipPath id="clip-path-3"><ellipse class="cls-1" cx="121.57" cy="146.16" rx="38.72" ry="21.77"/></clipPath></defs><title>co2-pollution</title><g id="Layer_2" data-name="Layer 2"><g id="Layer_2-2" data-name="Layer 2"><path d="M6.7,1a8,8,0,0,1,2.22.3,5.44,5.44,0,0,1,1.83.92A4.5,4.5,0,0,1,12,3.77a5.18,5.18,0,0,1,.47,2.28A5.26,5.26,0,0,1,12,8.34,4.6,4.6,0,0,1,10.75,10a5.34,5.34,0,0,1-1.83,1,7.68,7.68,0,0,1-2.22.31H2.28v5.88a.62.62,0,0,1-.19.46.62.62,0,0,1-.46.19h-1a.62.62,0,0,1-.46-.19A.62.62,0,0,1,0,17.11V1.61a.62.62,0,0,1,.19-.46A.62.62,0,0,1,.65,1ZM2.28,9.07h4.3a4.26,4.26,0,0,0,2.67-.74,2.74,2.74,0,0,0,.95-2.28,2.57,2.57,0,0,0-.95-2.23,4.4,4.4,0,0,0-2.67-.7H2.28Z"/><path d="M21.43,5.28a.65.65,0,0,1,.65.65V6.7a.61.61,0,0,1-.19.45.62.62,0,0,1-.46.19H20a2.44,2.44,0,0,0-2.76,2.76v7a.65.65,0,0,1-.65.65h-.89a.61.61,0,0,1-.45-.19.62.62,0,0,1-.19-.46V5.93a.62.62,0,0,1,.19-.46.61.61,0,0,1,.45-.19h.89a.65.65,0,0,1,.65.65v.74a2.94,2.94,0,0,1,1.15-1,3.84,3.84,0,0,1,1.75-.34Z"/><path d="M23.33,10.32a6.13,6.13,0,0,1,.53-2.06A5.74,5.74,0,0,1,25,6.58a5,5,0,0,1,1.67-1.13A5.59,5.59,0,0,1,28.82,5a6,6,0,0,1,2.32.42,4.75,4.75,0,0,1,1.74,1.21A5.34,5.34,0,0,1,34,8.59a7.66,7.66,0,0,1,.39,2.52v.65a.65.65,0,0,1-.65.65H25.46v.14a3.43,3.43,0,0,0,1,2.51,3.36,3.36,0,0,0,2.36.88,4.1,4.1,0,0,0,2-.38,4,4,0,0,0,1.07-.82,1.41,1.41,0,0,1,.34-.27,1,1,0,0,1,.43-.07h.72a.68.68,0,0,1,.48.19.49.49,0,0,1,.17.46,2.7,2.7,0,0,1-.41.95,3.69,3.69,0,0,1-1,1A6,6,0,0,1,31,17.7a7.36,7.36,0,0,1-2.22.3,5.34,5.34,0,0,1-2.16-.42A5.1,5.1,0,0,1,25,16.43a5.54,5.54,0,0,1-1.14-1.73,6.65,6.65,0,0,1-.53-2.17A10.21,10.21,0,0,1,23.33,10.32Zm2.13.07h6.75v-.07A3.05,3.05,0,0,0,31.28,8a3.43,3.43,0,0,0-2.46-.88,3.65,3.65,0,0,0-1.29.23A3.29,3.29,0,0,0,26.47,8a3.14,3.14,0,0,0-.72,1,3.75,3.75,0,0,0-.29,1.32Z"/><path d="M41.3,17.76a.62.62,0,0,1-.48-.19,1.66,1.66,0,0,1-.26-.41L35.78,6a.7.7,0,0,1,0-.16.58.58,0,0,1,.58-.58h.88a.7.7,0,0,1,.54.19,1.26,1.26,0,0,1,.26.39l3.72,8.71,3.72-8.71a1,1,0,0,1,.24-.39.55.55,0,0,1,.45-.19h1a.56.56,0,0,1,.4.17.53.53,0,0,1,.17.41.7.7,0,0,1,0,.16L42.91,17.16a2,2,0,0,1-.25.41.56.56,0,0,1-.47.19Z"/><path d="M49.2,10.32a6.13,6.13,0,0,1,.53-2.06,5.77,5.77,0,0,1,1.13-1.68,4.94,4.94,0,0,1,1.66-1.13A5.65,5.65,0,0,1,54.7,5,6,6,0,0,1,57,5.46a4.75,4.75,0,0,1,1.74,1.21,5.51,5.51,0,0,1,1.11,1.92,7.94,7.94,0,0,1,.38,2.52v.65a.62.62,0,0,1-.19.46.66.66,0,0,1-.46.19H51.34v.14a3.21,3.21,0,0,0,3.36,3.39,4.1,4.1,0,0,0,2-.38,4,4,0,0,0,1.06-.82,1.41,1.41,0,0,1,.34-.27,1,1,0,0,1,.43-.07h.72a.68.68,0,0,1,.48.19.47.47,0,0,1,.17.46,2.53,2.53,0,0,1-.41.95,3.69,3.69,0,0,1-1,1,6,6,0,0,1-1.58.74,7.45,7.45,0,0,1-2.22.3,5.34,5.34,0,0,1-2.16-.42,5.14,5.14,0,0,1-1.67-1.15,5.91,5.91,0,0,1-1.14-1.73,6.65,6.65,0,0,1-.53-2.17A10.21,10.21,0,0,1,49.2,10.32Zm2.14.07h6.74v-.07A3.08,3.08,0,0,0,57.16,8,3.46,3.46,0,0,0,54.7,7.1a3.66,3.66,0,0,0-1.3.23A3.29,3.29,0,0,0,52.34,8a3.14,3.14,0,0,0-.72,1,3.54,3.54,0,0,0-.28,1.32Z"/><path d="M74.23,17.11a.65.65,0,0,1-.65.65H72.7a.65.65,0,0,1-.65-.65V10.78A3.8,3.8,0,0,0,71.16,8a3.29,3.29,0,0,0-2.47-.92A3.33,3.33,0,0,0,66.25,8a3.72,3.72,0,0,0-.92,2.76v6.33a.66.66,0,0,1-.19.46.62.62,0,0,1-.46.19h-.89a.6.6,0,0,1-.45-.19.63.63,0,0,1-.2-.46V5.93a.63.63,0,0,1,.2-.46.6.6,0,0,1,.45-.19h.89a.62.62,0,0,1,.46.19.66.66,0,0,1,.19.46v.74a4.31,4.31,0,0,1,1.35-1.11A4.68,4.68,0,0,1,69.05,5a5.71,5.71,0,0,1,2.09.37,4.61,4.61,0,0,1,2.71,2.75,6.41,6.41,0,0,1,.38,2.26Z"/><path d="M80.78,13.56a3.82,3.82,0,0,0,.09.85,1.6,1.6,0,0,0,.3.69,1.34,1.34,0,0,0,.61.44,2.87,2.87,0,0,0,1,.16h1.27a.62.62,0,0,1,.46.19.61.61,0,0,1,.19.45v.77a.65.65,0,0,1-.65.65H82.56a3.79,3.79,0,0,1-3-1.08,4.6,4.6,0,0,1-.94-3.12V7.34H76.82a.65.65,0,0,1-.64-.64V5.93a.62.62,0,0,1,.19-.46.61.61,0,0,1,.45-.19H78.6V1.37a.62.62,0,0,1,.19-.46.62.62,0,0,1,.46-.19h.89a.61.61,0,0,1,.45.19.62.62,0,0,1,.19.46V5.28h3a.65.65,0,0,1,.65.65V6.7a.61.61,0,0,1-.19.45.62.62,0,0,1-.46.19h-3Z"/><path d="M94.22,14.3a1.11,1.11,0,0,0-.25-.75,2.11,2.11,0,0,0-.75-.52,9.46,9.46,0,0,0-1.29-.41c-.52-.12-1.12-.26-1.81-.4a4.7,4.7,0,0,1-2.72-1.36,3.38,3.38,0,0,1-.78-2.22,3.36,3.36,0,0,1,.28-1.37,3.4,3.4,0,0,1,.87-1.15,4,4,0,0,1,1.45-.79,6.63,6.63,0,0,1,2-.29,7.35,7.35,0,0,1,2,.26A5.21,5.21,0,0,1,94.8,6a3.31,3.31,0,0,1,.91.87,1.83,1.83,0,0,1,.34.9.58.58,0,0,1-.18.46.66.66,0,0,1-.47.19h-.79a1.28,1.28,0,0,1-.35-.06.7.7,0,0,1-.37-.28A2.34,2.34,0,0,0,93,7.38a4.23,4.23,0,0,0-1.69-.28,3.51,3.51,0,0,0-1.79.41,1.27,1.27,0,0,0-.68,1.13,1.24,1.24,0,0,0,.19.73,1.46,1.46,0,0,0,.63.48,5.33,5.33,0,0,0,1.13.37l1.77.41a8.53,8.53,0,0,1,1.85.61,4.71,4.71,0,0,1,1.2.84,2.88,2.88,0,0,1,.65,1,3.84,3.84,0,0,1,.19,1.18,3.06,3.06,0,0,1-.35,1.4,3.46,3.46,0,0,1-1,1.17,5.17,5.17,0,0,1-1.57.82,6.49,6.49,0,0,1-2.1.31,7,7,0,0,1-2.09-.29A6.62,6.62,0,0,1,87.74,17a3.52,3.52,0,0,1-1-.91,1.75,1.75,0,0,1-.37-.92.56.56,0,0,1,.16-.46.65.65,0,0,1,.48-.19h.87a1.47,1.47,0,0,1,.33,0,.56.56,0,0,1,.36.27,2.51,2.51,0,0,0,1.06.82,4.53,4.53,0,0,0,1.75.29,4.7,4.7,0,0,0,1-.12,3.91,3.91,0,0,0,.91-.34A2,2,0,0,0,94,15,1,1,0,0,0,94.22,14.3Z"/><path d="M109.75,6.55a2.87,2.87,0,0,1,.42-.08,2.57,2.57,0,0,1,.45,0,6.71,6.71,0,0,1,2.48.45,5.9,5.9,0,0,1,2,1.22,5.57,5.57,0,0,1,1.29,1.84,5.41,5.41,0,0,1,.47,2.28,5.48,5.48,0,0,1-.47,2.28,5.63,5.63,0,0,1-1.29,1.83,6.09,6.09,0,0,1-2,1.23,7.24,7.24,0,0,1-5,0,6.2,6.2,0,0,1-2-1.23,5.6,5.6,0,0,1-1.76-4.11,4.87,4.87,0,0,1,.16-1.3,5.81,5.81,0,0,1,.4-1.13,9.05,9.05,0,0,1,.57-1c.21-.32.41-.62.62-.91l4.37-6.43a2.81,2.81,0,0,0,.26-.3.59.59,0,0,1,.48-.18h1.37a.42.42,0,0,1,.35.16.52.52,0,0,1,.13.37.5.5,0,0,1,0,.19.62.62,0,0,1-.09.12Zm-3.07,5.67a3.31,3.31,0,0,0,.28,1.36,3.49,3.49,0,0,0,.78,1.16,3.69,3.69,0,0,0,1.23.8,4.66,4.66,0,0,0,3.29,0,3.56,3.56,0,0,0,2-2,3.47,3.47,0,0,0,.27-1.36,3.52,3.52,0,0,0-.27-1.37,3.77,3.77,0,0,0-.78-1.15,3.71,3.71,0,0,0-1.24-.81,4.66,4.66,0,0,0-3.29,0,3.56,3.56,0,0,0-1.23.81,3.45,3.45,0,0,0-.78,1.15A3.36,3.36,0,0,0,106.68,12.22Z"/><path d="M131.4,7.34c0,.72,0,1.4,0,2s0,1.31,0,2A9.37,9.37,0,0,1,131,14a6,6,0,0,1-1.11,2.1A5.14,5.14,0,0,1,128,17.5a7.68,7.68,0,0,1-5.45,0,5.1,5.1,0,0,1-1.88-1.4,5.88,5.88,0,0,1-1.12-2.1,9.38,9.38,0,0,1-.39-2.6c0-.72,0-1.4,0-2s0-1.31,0-2a9.49,9.49,0,0,1,.39-2.6,5.88,5.88,0,0,1,1.12-2.1,5.21,5.21,0,0,1,1.88-1.4,7.4,7.4,0,0,1,5.45,0,5.25,5.25,0,0,1,1.89,1.4A6,6,0,0,1,131,4.74,9.49,9.49,0,0,1,131.4,7.34Zm-10,4.06a5.12,5.12,0,0,0,1,3.36,4.29,4.29,0,0,0,5.69,0,5.06,5.06,0,0,0,1-3.36c0-.72,0-1.4,0-2s0-1.31,0-2a5.11,5.11,0,0,0-1-3.37,4.26,4.26,0,0,0-5.69,0,5.16,5.16,0,0,0-1,3.37c0,.72,0,1.4,0,2S121.4,10.68,121.42,11.4Z"/><path d="M146.45,18a4.64,4.64,0,0,1-2.38-.52,4.38,4.38,0,0,1-1.34-1.11v5.3a.63.63,0,0,1-.2.46.6.6,0,0,1-.45.19h-.89a.62.62,0,0,1-.46-.19.66.66,0,0,1-.19-.46V5.93a.66.66,0,0,1,.19-.46.62.62,0,0,1,.46-.19h.89a.6.6,0,0,1,.45.19.63.63,0,0,1,.2.46v.74a4.23,4.23,0,0,1,1.36-1.14A4.87,4.87,0,0,1,146.45,5a5.42,5.42,0,0,1,2.1.4,4.86,4.86,0,0,1,1.69,1.14,5.51,5.51,0,0,1,1.15,1.8,7,7,0,0,1,.5,2.37q0,.36,0,.78t0,.78a7.09,7.09,0,0,1-.5,2.38,5.57,5.57,0,0,1-1.15,1.79,5.09,5.09,0,0,1-1.69,1.12A5.42,5.42,0,0,1,146.45,18Zm-3.72-7.51c0,.24,0,.55,0,.95s0,.7,0,.94a3.65,3.65,0,0,0,1,2.63,3.36,3.36,0,0,0,2.46.93,3.2,3.2,0,0,0,2.49-1,4.28,4.28,0,0,0,1-2.74c0-.45,0-.89,0-1.34a4.28,4.28,0,0,0-1-2.74,3.2,3.2,0,0,0-2.49-1,3.33,3.33,0,0,0-3.48,3.39Z"/><path d="M160,5a6.13,6.13,0,0,1,2.3.4,5,5,0,0,1,2.87,2.78,6.9,6.9,0,0,1,.51,2.17,3.94,3.94,0,0,1,0,.52v1.25a3.28,3.28,0,0,1,0,.49,7.66,7.66,0,0,1-.52,2.18A5,5,0,0,1,164,16.51a5,5,0,0,1-1.73,1.09,6.84,6.84,0,0,1-4.61,0A5,5,0,0,1,156,16.51a5,5,0,0,1-1.14-1.68,6.77,6.77,0,0,1-.51-2.18c0-.13,0-.29,0-.49s0-.41,0-.63,0-.42,0-.62,0-.37,0-.52a6.9,6.9,0,0,1,.51-2.17,5,5,0,0,1,2.87-2.78A6.15,6.15,0,0,1,160,5Zm3.5,7.49a9.23,9.23,0,0,0,.05-1,9.93,9.93,0,0,0-.05-1,5.15,5.15,0,0,0-.31-1.34,3.29,3.29,0,0,0-.67-1.08,2.93,2.93,0,0,0-1.06-.72A3.66,3.66,0,0,0,160,7.1a3.71,3.71,0,0,0-1.47.27,2.89,2.89,0,0,0-1,.72,3.15,3.15,0,0,0-.68,1.08,5.15,5.15,0,0,0-.31,1.34,9.93,9.93,0,0,0-.05,1,9.23,9.23,0,0,0,.05,1,5.15,5.15,0,0,0,.31,1.34,3.15,3.15,0,0,0,.68,1.08,2.89,2.89,0,0,0,1,.72,3.71,3.71,0,0,0,1.47.27,3.66,3.66,0,0,0,1.46-.27,2.93,2.93,0,0,0,1.06-.72,3.29,3.29,0,0,0,.67-1.08A5.15,5.15,0,0,0,163.51,12.53Z"/><path d="M168.62,5.93a.66.66,0,0,1,.19-.46.62.62,0,0,1,.46-.19h.89a.6.6,0,0,1,.45.19.63.63,0,0,1,.2.46v6.33a4,4,0,0,0,.82,2.76,3.58,3.58,0,0,0,4.79,0,3.84,3.84,0,0,0,.87-2.76V5.93a.62.62,0,0,1,.19-.46.61.61,0,0,1,.45-.19h.89a.65.65,0,0,1,.65.65V17.11a.65.65,0,0,1-.65.65h-.89a.61.61,0,0,1-.45-.19.62.62,0,0,1-.19-.46v-.74a4.7,4.7,0,0,1-1.3,1.11,4.33,4.33,0,0,1-2.3.52,5.53,5.53,0,0,1-2.07-.37A4.66,4.66,0,0,1,170,16.57a4.58,4.58,0,0,1-1-1.68,6.63,6.63,0,0,1-.36-2.27Z"/><path d="M194.16,17.11a.66.66,0,0,1-.19.46.62.62,0,0,1-.46.19h-.89a.6.6,0,0,1-.45-.19.63.63,0,0,1-.2-.46V10.78A3.8,3.8,0,0,0,191.09,8a3.74,3.74,0,0,0-4.91,0,3.68,3.68,0,0,0-.93,2.76v6.33a.62.62,0,0,1-.19.46.61.61,0,0,1-.45.19h-.89a.65.65,0,0,1-.65-.65V5.93a.65.65,0,0,1,.65-.65h.89a.61.61,0,0,1,.45.19.62.62,0,0,1,.19.46v.74a4.48,4.48,0,0,1,1.36-1.11A4.66,4.66,0,0,1,189,5a5.67,5.67,0,0,1,2.09.37,4.73,4.73,0,0,1,1.65,1.06,4.68,4.68,0,0,1,1.06,1.69,6.19,6.19,0,0,1,.39,2.26Z"/><path d="M202.49,5a4.63,4.63,0,0,1,2.37.52,4.56,4.56,0,0,1,1.35,1.11V1.37a.62.62,0,0,1,.19-.46.6.6,0,0,1,.45-.19h.89a.62.62,0,0,1,.46.19.62.62,0,0,1,.19.46V17.11a.65.65,0,0,1-.65.65h-.89a.6.6,0,0,1-.45-.19.62.62,0,0,1-.19-.46v-.74a4.39,4.39,0,0,1-1.37,1.14,4.83,4.83,0,0,1-2.35.49,5.43,5.43,0,0,1-2.11-.4,4.86,4.86,0,0,1-1.69-1.14,5.51,5.51,0,0,1-1.15-1.8,7,7,0,0,1-.5-2.37q0-.36,0-.78t0-.78a7.09,7.09,0,0,1,.5-2.38,5.57,5.57,0,0,1,1.15-1.79,5.09,5.09,0,0,1,1.69-1.12A5.43,5.43,0,0,1,202.49,5Zm3.72,7.51c0-.24,0-.55,0-1s0-.7,0-.94a3.7,3.7,0,0,0-1-2.63,3.36,3.36,0,0,0-2.46-.93,3.2,3.2,0,0,0-2.49,1,4.28,4.28,0,0,0-1,2.74c0,.45,0,.89,0,1.34a4.28,4.28,0,0,0,1,2.74,3.2,3.2,0,0,0,2.49,1,3.4,3.4,0,0,0,2.45-.92A3.48,3.48,0,0,0,206.21,12.55Z"/><path d="M219.09,14.3a1.11,1.11,0,0,0-.25-.75,2.11,2.11,0,0,0-.75-.52,9.46,9.46,0,0,0-1.29-.41c-.52-.12-1.12-.26-1.81-.4a4.7,4.7,0,0,1-2.72-1.36,3.38,3.38,0,0,1-.78-2.22,3.36,3.36,0,0,1,.28-1.37,3.4,3.4,0,0,1,.87-1.15,4,4,0,0,1,1.45-.79,6.63,6.63,0,0,1,2-.29,7.35,7.35,0,0,1,2.05.26,5.21,5.21,0,0,1,1.48.68,3.31,3.31,0,0,1,.91.87,1.83,1.83,0,0,1,.34.9.58.58,0,0,1-.18.46.66.66,0,0,1-.47.19h-.79a1.28,1.28,0,0,1-.35-.06.7.7,0,0,1-.37-.28,2.34,2.34,0,0,0-.93-.68,4.23,4.23,0,0,0-1.69-.28,3.51,3.51,0,0,0-1.79.41,1.27,1.27,0,0,0-.68,1.13,1.24,1.24,0,0,0,.19.73,1.46,1.46,0,0,0,.63.48,5.25,5.25,0,0,0,1.14.37c.47.12,1.06.25,1.76.41a8.35,8.35,0,0,1,1.85.61,4.71,4.71,0,0,1,1.2.84,2.88,2.88,0,0,1,.65,1,3.84,3.84,0,0,1,.19,1.18,3.06,3.06,0,0,1-.35,1.4,3.46,3.46,0,0,1-1,1.17,5.17,5.17,0,0,1-1.57.82,6.49,6.49,0,0,1-2.1.31,7,7,0,0,1-2.09-.29,6.62,6.62,0,0,1-1.56-.71,3.52,3.52,0,0,1-1-.91,1.75,1.75,0,0,1-.37-.92.56.56,0,0,1,.16-.46.65.65,0,0,1,.48-.19h.87a1.47,1.47,0,0,1,.33,0,.56.56,0,0,1,.36.27,2.51,2.51,0,0,0,1.06.82,4.53,4.53,0,0,0,1.75.29,4.7,4.7,0,0,0,1.05-.12,3.91,3.91,0,0,0,.91-.34,2,2,0,0,0,.63-.52A1,1,0,0,0,219.09,14.3Z"/><path d="M235.1,5a6.13,6.13,0,0,1,2.3.4,5,5,0,0,1,1.73,1.09,5,5,0,0,1,1.14,1.69,7.19,7.19,0,0,1,.52,2.17c0,.15,0,.32,0,.52v1.25c0,.2,0,.36,0,.49a7.66,7.66,0,0,1-.53,2.18,4.83,4.83,0,0,1-1.13,1.68,5,5,0,0,1-1.73,1.09,6.81,6.81,0,0,1-4.6,0,5,5,0,0,1-2.87-2.77,7,7,0,0,1-.52-2.18c0-.13,0-.29,0-.49s0-.41,0-.63,0-.42,0-.62,0-.37,0-.52a7.19,7.19,0,0,1,.52-2.17,5,5,0,0,1,1.14-1.69,5,5,0,0,1,1.73-1.09A6.13,6.13,0,0,1,235.1,5Zm3.5,7.49a7.23,7.23,0,0,0,.05-1,7.72,7.72,0,0,0-.05-1,4.77,4.77,0,0,0-.31-1.34,3.13,3.13,0,0,0-.67-1.08,2.93,2.93,0,0,0-1.06-.72,4.08,4.08,0,0,0-2.92,0,2.93,2.93,0,0,0-1.06.72,3.13,3.13,0,0,0-.67,1.08,4.77,4.77,0,0,0-.31,1.34,7.72,7.72,0,0,0,0,1,7.23,7.23,0,0,0,0,1,4.77,4.77,0,0,0,.31,1.34,3.13,3.13,0,0,0,.67,1.08,2.93,2.93,0,0,0,1.06.72,4.08,4.08,0,0,0,2.92,0,2.93,2.93,0,0,0,1.06-.72,3.13,3.13,0,0,0,.67-1.08A4.77,4.77,0,0,0,238.6,12.53Z"/><path d="M247.15,5.28h3a.61.61,0,0,1,.45.19.62.62,0,0,1,.19.46V6.7a.65.65,0,0,1-.64.64h-3v9.77a.66.66,0,0,1-.19.46.62.62,0,0,1-.46.19h-.89a.6.6,0,0,1-.45-.19.63.63,0,0,1-.2-.46V7.34h-2a.62.62,0,0,1-.46-.19.61.61,0,0,1-.19-.45V5.93a.65.65,0,0,1,.65-.65h2V4.08A4.41,4.41,0,0,1,245.9,1a3.92,3.92,0,0,1,3-1h1.52a.61.61,0,0,1,.45.19.62.62,0,0,1,.19.46v.77a.61.61,0,0,1-.19.45.61.61,0,0,1-.45.19h-1.27a3,3,0,0,0-1,.16,1.4,1.4,0,0,0-.61.44,1.88,1.88,0,0,0-.3.69,4.54,4.54,0,0,0-.08.85Z"/><path d="M52.68,36.14c0,.72,0,1.4,0,2s0,1.3,0,2a4.84,4.84,0,0,0,1.21,3.22,4.22,4.22,0,0,0,3.28,1.24,5.79,5.79,0,0,0,1.94-.29,4,4,0,0,0,1.31-.74,3.2,3.2,0,0,0,.79-1,6,6,0,0,0,.42-1.18.57.57,0,0,1,.24-.4.67.67,0,0,1,.38-.13h1.11a.51.51,0,0,1,.37.15.55.55,0,0,1,.16.38,5.21,5.21,0,0,1-.41,1.72,5.52,5.52,0,0,1-1.19,1.77,6.52,6.52,0,0,1-2.06,1.38,7.58,7.58,0,0,1-3.06.55,7.42,7.42,0,0,1-2.79-.49A6.39,6.39,0,0,1,52.28,45a6,6,0,0,1-1.35-2.05,7.53,7.53,0,0,1-.53-2.6c0-1.43,0-2.85,0-4.28a7.62,7.62,0,0,1,.53-2.59,6,6,0,0,1,1.35-2.06A6.39,6.39,0,0,1,54.38,30a7.42,7.42,0,0,1,2.79-.49,7.58,7.58,0,0,1,3.06.55,6.52,6.52,0,0,1,2.06,1.38,5.52,5.52,0,0,1,1.19,1.77,5.21,5.21,0,0,1,.41,1.72.55.55,0,0,1-.16.38.51.51,0,0,1-.37.15H62.25a.67.67,0,0,1-.38-.13.57.57,0,0,1-.24-.4,6,6,0,0,0-.42-1.18,3.2,3.2,0,0,0-.79-1A4,4,0,0,0,59.11,32a5.79,5.79,0,0,0-1.94-.29,4.22,4.22,0,0,0-3.28,1.24A4.84,4.84,0,0,0,52.68,36.14Z"/><path d="M66.41,36a7.33,7.33,0,0,1,.47-2.53,5.83,5.83,0,0,1,1.28-2.06A6,6,0,0,1,70.22,30a7.85,7.85,0,0,1,5.62,0,5.9,5.9,0,0,1,2.06,1.39,6,6,0,0,1,1.29,2.06A7.83,7.83,0,0,1,79.66,36c0,1.43,0,2.85,0,4.28a8.13,8.13,0,0,1-.5,2.53,5.93,5.93,0,0,1-3.33,3.47,8.09,8.09,0,0,1-5.6,0,5.93,5.93,0,0,1-3.33-3.47,7.84,7.84,0,0,1-.49-2.53C66.36,38.87,66.36,37.45,66.41,36Zm11,.12a6.26,6.26,0,0,0-.38-2A3.61,3.61,0,0,0,74.75,32a5.42,5.42,0,0,0-3.44,0,3.71,3.71,0,0,0-1.35.82,4,4,0,0,0-.91,1.4,5.31,5.31,0,0,0-.36,2c0,.72,0,1.4,0,2s0,1.3,0,2a5.31,5.31,0,0,0,.36,2,4,4,0,0,0,.91,1.4,3.71,3.71,0,0,0,1.35.82,5.42,5.42,0,0,0,3.44,0A3.61,3.61,0,0,0,77,42.14a6.26,6.26,0,0,0,.38-2c0-.72,0-1.4,0-2S77.41,36.86,77.38,36.14Z"/><path d="M89.81,37.73a4.91,4.91,0,0,0,1.08-1.32,3.7,3.7,0,0,0,.36-1.75,3.11,3.11,0,0,0-.75-2.13,3,3,0,0,0-2.35-.85,3.78,3.78,0,0,0-1.43.24,2.73,2.73,0,0,0-1,.66,3.26,3.26,0,0,0-.63,1,8.16,8.16,0,0,0-.37,1.12.75.75,0,0,1-.25.4.57.57,0,0,1-.37.15H83a.5.5,0,0,1-.37-.16.51.51,0,0,1-.15-.37,5,5,0,0,1,.4-1.8A5.49,5.49,0,0,1,84,31.22,5.94,5.94,0,0,1,85.76,30a5.67,5.67,0,0,1,2.39-.48,6.21,6.21,0,0,1,2.33.41A4.86,4.86,0,0,1,92.16,31a4.68,4.68,0,0,1,1,1.63,5.76,5.76,0,0,1,.35,2,7.42,7.42,0,0,1-.12,1.39,5.05,5.05,0,0,1-.4,1.19,5.49,5.49,0,0,1-.71,1.09,10.48,10.48,0,0,1-1,1.08l-5.36,5h7.35a.58.58,0,0,1,.45.19.63.63,0,0,1,.2.46v.86a.63.63,0,0,1-.2.46.58.58,0,0,1-.45.19H82.89a.61.61,0,0,1-.45-.19.62.62,0,0,1-.19-.46v-.86a.85.85,0,0,1,.12-.46,2.15,2.15,0,0,1,.4-.45Z"/><path d="M109.68,29.76a8,8,0,0,1,2.22.3,5.34,5.34,0,0,1,1.83.92A4.5,4.5,0,0,1,115,32.57a5,5,0,0,1,.47,2.28,5.12,5.12,0,0,1-.47,2.29,4.6,4.6,0,0,1-1.26,1.62,5.25,5.25,0,0,1-1.83,1,7.68,7.68,0,0,1-2.22.31h-4.42v5.88a.65.65,0,0,1-.65.65h-1a.62.62,0,0,1-.46-.19.66.66,0,0,1-.19-.46V30.41a.66.66,0,0,1,.19-.46.62.62,0,0,1,.46-.19Zm-4.42,8.11h4.3a4.26,4.26,0,0,0,2.67-.74,2.71,2.71,0,0,0,1-2.28,2.55,2.55,0,0,0-1-2.23,4.4,4.4,0,0,0-2.67-.7h-4.3Z"/><path d="M123,33.84a6.13,6.13,0,0,1,2.3.4A5,5,0,0,1,128.17,37a7.19,7.19,0,0,1,.52,2.17c0,.15,0,.32,0,.52V41c0,.2,0,.36,0,.49a7.66,7.66,0,0,1-.53,2.18A4.83,4.83,0,0,1,127,45.31a5,5,0,0,1-1.73,1.09,6.84,6.84,0,0,1-4.61,0,5,5,0,0,1-2.86-2.77,6.77,6.77,0,0,1-.52-2.18c0-.13,0-.29,0-.49s0-.41,0-.63,0-.42,0-.62,0-.37,0-.52a6.9,6.9,0,0,1,.52-2.17,5,5,0,0,1,2.86-2.78A6.18,6.18,0,0,1,123,33.84Zm3.5,7.49a9.23,9.23,0,0,0,0-1,9.93,9.93,0,0,0,0-1,5.15,5.15,0,0,0-.31-1.34,3.13,3.13,0,0,0-.67-1.08,2.93,2.93,0,0,0-1.06-.72A3.62,3.62,0,0,0,123,35.9a3.71,3.71,0,0,0-1.47.27,3,3,0,0,0-1,.72,3.13,3.13,0,0,0-.67,1.08,5.15,5.15,0,0,0-.32,1.34,10.2,10.2,0,0,0,0,1,9.53,9.53,0,0,0,0,1,5.15,5.15,0,0,0,.32,1.34,3.13,3.13,0,0,0,.67,1.08,3,3,0,0,0,1,.72,3.71,3.71,0,0,0,1.47.27,3.62,3.62,0,0,0,1.46-.27,2.93,2.93,0,0,0,1.06-.72,3.13,3.13,0,0,0,.67-1.08A5.15,5.15,0,0,0,126.5,41.33Z"/><path d="M133.92,45.91a.66.66,0,0,1-.19.46.62.62,0,0,1-.46.19h-.89a.6.6,0,0,1-.45-.19.63.63,0,0,1-.2-.46V30.17a.63.63,0,0,1,.2-.46.6.6,0,0,1,.45-.19h.89a.62.62,0,0,1,.46.19.66.66,0,0,1,.19.46Z"/><path d="M139.7,45.91a.65.65,0,0,1-.65.65h-.88a.65.65,0,0,1-.65-.65V30.17a.65.65,0,0,1,.65-.65h.88a.65.65,0,0,1,.65.65Z"/><path d="M143.18,34.73a.66.66,0,0,1,.19-.46.62.62,0,0,1,.46-.19h.89a.6.6,0,0,1,.45.19.63.63,0,0,1,.2.46v6.33a4,4,0,0,0,.82,2.76,3.58,3.58,0,0,0,4.79,0,3.84,3.84,0,0,0,.87-2.76V34.73a.62.62,0,0,1,.19-.46.61.61,0,0,1,.45-.19h.89a.65.65,0,0,1,.65.65V45.91a.65.65,0,0,1-.65.65h-.89a.61.61,0,0,1-.45-.19.62.62,0,0,1-.19-.46v-.74a4.7,4.7,0,0,1-1.3,1.11,4.33,4.33,0,0,1-2.3.52,5.53,5.53,0,0,1-2.07-.37,4.66,4.66,0,0,1-1.61-1.06,4.58,4.58,0,0,1-1-1.68,6.63,6.63,0,0,1-.36-2.27Z"/><path d="M160.89,42.36a3.82,3.82,0,0,0,.09.85,1.6,1.6,0,0,0,.3.69,1.34,1.34,0,0,0,.61.44,2.87,2.87,0,0,0,1,.16h1.27a.62.62,0,0,1,.46.19.65.65,0,0,1,.19.45v.77a.66.66,0,0,1-.19.46.62.62,0,0,1-.46.19h-1.51a3.79,3.79,0,0,1-3-1.08,4.6,4.6,0,0,1-.94-3.12V36.14h-1.78a.6.6,0,0,1-.45-.19.61.61,0,0,1-.19-.45v-.77a.62.62,0,0,1,.19-.46.6.6,0,0,1,.45-.19h1.78V30.17a.65.65,0,0,1,.65-.65h.89a.61.61,0,0,1,.45.19.62.62,0,0,1,.19.46v3.91h3.05a.65.65,0,0,1,.65.65v.77a.61.61,0,0,1-.19.45.62.62,0,0,1-.46.19h-3.05Z"/><path d="M169.65,31.54a.65.65,0,0,1-.64.64h-1.37a.62.62,0,0,1-.46-.19.61.61,0,0,1-.19-.45V30.17a.65.65,0,0,1,.65-.65H169a.61.61,0,0,1,.45.19.62.62,0,0,1,.19.46Zm-.24,14.37a.62.62,0,0,1-.19.46.61.61,0,0,1-.45.19h-.89a.65.65,0,0,1-.65-.65V34.73a.65.65,0,0,1,.65-.65h.89a.61.61,0,0,1,.45.19.62.62,0,0,1,.19.46Z"/><path d="M178.13,33.84a6.13,6.13,0,0,1,2.3.4A5,5,0,0,1,183.3,37a6.9,6.9,0,0,1,.51,2.17,3.94,3.94,0,0,1,0,.52V41a3.28,3.28,0,0,1,0,.49,7.66,7.66,0,0,1-.52,2.18,5,5,0,0,1-1.13,1.68,5,5,0,0,1-1.73,1.09,6.84,6.84,0,0,1-4.61,0,5,5,0,0,1-1.73-1.09A5,5,0,0,1,173,43.63a6.77,6.77,0,0,1-.51-2.18c0-.13,0-.29,0-.49s0-.41,0-.63,0-.42,0-.62,0-.37,0-.52A6.9,6.9,0,0,1,173,37a5,5,0,0,1,2.87-2.78A6.15,6.15,0,0,1,178.13,33.84Zm3.5,7.49a9.23,9.23,0,0,0,.05-1,9.93,9.93,0,0,0-.05-1,5.15,5.15,0,0,0-.31-1.34,3.29,3.29,0,0,0-.67-1.08,2.93,2.93,0,0,0-1.06-.72,3.66,3.66,0,0,0-1.46-.27,3.71,3.71,0,0,0-1.47.27,2.89,2.89,0,0,0-1,.72,3.15,3.15,0,0,0-.68,1.08,5.15,5.15,0,0,0-.31,1.34,9.93,9.93,0,0,0-.05,1,9.23,9.23,0,0,0,.05,1,5.15,5.15,0,0,0,.31,1.34,3.15,3.15,0,0,0,.68,1.08,2.89,2.89,0,0,0,1,.72,3.71,3.71,0,0,0,1.47.27,3.66,3.66,0,0,0,1.46-.27,2.93,2.93,0,0,0,1.06-.72,3.29,3.29,0,0,0,.67-1.08A5.15,5.15,0,0,0,181.63,41.33Z"/><path d="M198,45.91a.65.65,0,0,1-.65.65h-.89a.6.6,0,0,1-.45-.19.62.62,0,0,1-.19-.46V39.58a3.8,3.8,0,0,0-.89-2.76,3.74,3.74,0,0,0-4.91,0,3.68,3.68,0,0,0-.92,2.76v6.33a.63.63,0,0,1-.2.46.6.6,0,0,1-.45.19h-.89a.65.65,0,0,1-.65-.65V34.73a.65.65,0,0,1,.65-.65h.89a.6.6,0,0,1,.45.19.63.63,0,0,1,.2.46v.74a4.31,4.31,0,0,1,1.35-1.11,4.68,4.68,0,0,1,2.37-.52,5.65,5.65,0,0,1,2.08.37,4.73,4.73,0,0,1,1.65,1.06A4.84,4.84,0,0,1,197.57,37a6.41,6.41,0,0,1,.38,2.26Z"/><path class="cls-2" d="M126.24,114.21H69.34l7.52,48.36h.07c.9,6,9.63,10.76,20.26,10.76,10.83,0,19.69-4.91,20.3-11.1h0Z"/><ellipse class="cls-3" cx="97.79" cy="111.99" rx="28.45" ry="8.54"/><polygon class="cls-4" points="123.5 120.53 125.04 120.71 126.92 118.66 126.92 115.14 124.92 116.53 123.33 117.63 123.5 120.53"/><path class="cls-5" d="M126.32,117.72l3.25,1c.34.51-5.47,12.3-5.47,12.3s-4.95,8.89-17.77,16.24a8.42,8.42,0,0,1-6.15.85c-2.73-.51-32.46-6.32-32.46-6.32a3.87,3.87,0,0,1-2.57-2.56c-1.36-3.59-4.27-10.09-1-18.46C66.9,113.63,68,112,68,112l.41.43-3.59,8.37c-.07.18-.38,1.14-.42,1.33-.6,2.6-2.08,9.54,1.28,16.1.83,1.64.85,2.39,2,2.73s33.66,6.5,33.66,6.5a6.7,6.7,0,0,0,4.27-.86c13.16-7.86,17.77-16.74,17.77-16.74l5.3-10.77-2.4-.68Z"/><polygon class="cls-6" points="125.21 117.29 125.04 120.71 123.5 120.53 123.33 117.63 125.34 116.24 125.21 117.29"/><ellipse class="cls-6" cx="97.79" cy="112.59" rx="30.07" ry="10.25"/><ellipse class="cls-4" cx="97.45" cy="111.99" rx="28.11" ry="8.54"/><g class="cls-7"><ellipse class="cls-8" cx="108.3" cy="87.2" rx="5.66" ry="4.22"/><path class="cls-8" d="M119.93,105c2.53-1.34,4.12-3.3,4.12-5.49,0-4.05-5.47-7.33-12.21-7.33a18.61,18.61,0,0,0-6.37,1.07,7.79,7.79,0,0,0-14.28-.47,13,13,0,0,0-4-.6c-5.53,0-10,3.28-10,7.33a5.78,5.78,0,0,0,1.1,3.34c-4.64,2.39-7.5,5.65-7.5,9.24,0,7.33,11.91,13.27,26.62,13.27s26.62-5.94,26.62-13.27C124.05,109.48,122.53,107.05,119.93,105Z"/><ellipse class="cls-8" cx="94.87" cy="80.22" rx="2.16" ry="1.66"/><ellipse class="cls-8" cx="82.68" cy="87.82" rx="3.54" ry="3.46"/></g><path class="cls-9" d="M177.8,131.51H120.9l7.52,48.36h.08c.89,6,9.62,10.76,20.25,10.76,10.84,0,19.69-4.91,20.3-11.1h0Z"/><ellipse class="cls-3" cx="149.35" cy="129.29" rx="28.45" ry="8.54"/><polygon class="cls-4" points="175.07 137.83 176.6 138 178.48 135.96 178.48 132.44 176.48 133.83 174.9 134.93 175.07 137.83"/><path class="cls-5" d="M177.89,135l3.24,1c.34.51-5.47,12.3-5.47,12.3s-4.95,8.89-17.77,16.24a8.41,8.41,0,0,1-6.15.85c-2.73-.51-32.46-6.32-32.46-6.32a3.87,3.87,0,0,1-2.57-2.57c-1.36-3.58-4.27-10.08-1-18.45,2.78-7.16,3.87-8.8,3.87-8.8l.4.43-3.59,8.37c-.07.18-.37,1.14-.42,1.33-.6,2.6-2.08,9.54,1.28,16.1.84,1.64.85,2.39,2,2.73s33.66,6.5,33.66,6.5a6.7,6.7,0,0,0,4.27-.86C170.37,156,175,147.15,175,147.15l5.3-10.77-2.39-.68Z"/><polygon class="cls-6" points="176.78 134.59 176.6 138 175.07 137.83 174.9 134.93 176.91 133.53 176.78 134.59"/><ellipse class="cls-6" cx="149.35" cy="129.89" rx="30.07" ry="10.25"/><ellipse class="cls-4" cx="149.01" cy="129.29" rx="28.11" ry="8.54"/><g class="cls-10"><ellipse class="cls-11" cx="159.87" cy="104.49" rx="5.66" ry="4.22"/><path class="cls-11" d="M171.49,122.3c2.53-1.34,4.12-3.3,4.12-5.49,0-4-5.47-7.33-12.21-7.33a18.61,18.61,0,0,0-6.37,1.07,7.78,7.78,0,0,0-14.27-.47,13.11,13.11,0,0,0-4-.6c-5.53,0-10,3.28-10,7.33a5.8,5.8,0,0,0,1.1,3.34c-4.64,2.39-7.5,5.65-7.5,9.23,0,7.34,11.92,13.28,26.62,13.28s26.62-5.94,26.62-13.28C175.61,126.78,174.1,124.35,171.49,122.3Z"/><ellipse class="cls-11" cx="146.43" cy="97.52" rx="2.16" ry="1.66"/><ellipse class="cls-11" cx="134.25" cy="105.12" rx="3.54" ry="3.46"/></g><path class="cls-12" d="M150.56,160.82H93.66l7.52,48.35h.08c.9,6,9.62,10.77,20.26,10.77,10.83,0,19.68-4.92,20.3-11.11h0Z"/><ellipse class="cls-3" cx="122.11" cy="158.6" rx="28.45" ry="8.54"/><polygon class="cls-4" points="147.83 167.14 149.37 167.31 151.25 165.26 151.25 161.75 149.25 163.13 147.66 164.23 147.83 167.14"/><path class="cls-5" d="M150.65,164.32l3.25,1c.34.52-5.47,12.31-5.47,12.31s-5,8.88-17.77,16.23a8.33,8.33,0,0,1-6.15.85c-2.74-.51-32.47-6.32-32.47-6.32a3.87,3.87,0,0,1-2.56-2.56c-1.37-3.59-4.27-10.08-1-18.45,2.78-7.16,3.87-8.8,3.87-8.8l.41.42-3.59,8.38c-.08.17-.38,1.13-.42,1.32-.61,2.61-2.08,9.55,1.27,16.1.84,1.64.86,2.4,2.05,2.74s33.66,6.49,33.66,6.49a6.73,6.73,0,0,0,4.27-.85c13.16-7.86,17.77-16.75,17.77-16.75l5.3-10.76-2.39-.69Z"/><polygon class="cls-6" points="149.54 163.89 149.37 167.31 147.83 167.14 147.66 164.23 149.67 162.84 149.54 163.89"/><ellipse class="cls-13" cx="122.11" cy="159.19" rx="30.07" ry="10.25"/><ellipse class="cls-4" cx="121.77" cy="158.6" rx="28.11" ry="8.54"/><g class="cls-14"><ellipse class="cls-15" cx="132.63" cy="133.8" rx="5.66" ry="4.22"/><path class="cls-15" d="M144.26,151.6c2.52-1.34,4.11-3.3,4.11-5.48,0-4.06-5.46-7.34-12.21-7.34a18.69,18.69,0,0,0-6.37,1.08,7.79,7.79,0,0,0-14.27-.48,13.38,13.38,0,0,0-4-.6c-5.52,0-10,3.28-10,7.34a5.83,5.83,0,0,0,1.1,3.34c-4.65,2.39-7.51,5.64-7.51,9.23,0,7.33,11.92,13.27,26.62,13.27s26.62-5.94,26.62-13.27C148.37,156.08,146.86,153.66,144.26,151.6Z"/><ellipse class="cls-15" cx="119.19" cy="126.83" rx="2.16" ry="1.66"/><ellipse class="cls-15" cx="107.01" cy="134.42" rx="3.54" ry="3.46"/></g></g></g></svg>