<svg xmlns="http://www.w3.org/2000/svg" xmlns:xlink="http://www.w3.org/1999/xlink" viewBox="0 0 253.15 222.61"><defs><style>.cls-1,.cls-11{fill:none;}.cls-2{font-size:24px;font-family:Rubik-Regular, Rubik;}.cls-3{letter-spacing:-0.01em;}.cls-4{letter-spacing:-0.02em;}.cls-5{letter-spacing:-0.02em;}.cls-6{letter-spacing:-0.01em;}.cls-7{letter-spacing:-0.02em;}.cls-8{letter-spacing:-0.01em;}.cls-9{letter-spacing:0em;}.cls-10{fill:#3c4c99;}.cls-10,.cls-12,.cls-14,.cls-17,.cls-20,.cls-21{stroke:#fff;}.cls-10,.cls-11,.cls-12,.cls-14,.cls-17,.cls-20,.cls-21{stroke-miterlimit:10;}.cls-10,.cls-12,.cls-17,.cls-20{stroke-width:0.07px;}.cls-11{stroke:red;stroke-width:0.15px;}.cls-12{fill:#222e7d;}.cls-13{fill:#92cce0;}.cls-14{fill:#5c79e5;}.cls-14,.cls-21{stroke-width:0.17px;}.cls-15{clip-path:url(#clip-path);}.cls-16{fill:#b3b3b3;}.cls-17{fill:#2f3e75;}.cls-18{clip-path:url(#clip-path-2);}.cls-19{fill:gray;}.cls-20{fill:#4d66c1;}.cls-21{fill:#8198e2;}.cls-22{clip-path:url(#clip-path-3);}.cls-23{fill:#e6e6e6;}</style><clipPath id="clip-path"><ellipse class="cls-1" cx="99.31" cy="102.2" rx="38.72" ry="21.77"/></clipPath><clipPath id="clip-path-2"><ellipse class="cls-1" cx="150.87" cy="119.5" rx="38.72" ry="21.77"/></clipPath><clipPath id="clip-path-3"><ellipse class="cls-1" cx="123.63" cy="148.8" rx="38.72" ry="21.77"/></clipPath></defs><title>co2-pollution</title><g id="Layer_2" data-name="Layer 2"><g id="Layer_2-2" data-name="Layer 2"><text class="cls-2" transform="translate(0 20.4)">P<tspan class="cls-3" x="15.36" y="0">r</tspan><tspan class="cls-4" x="24.17" y="0">e</tspan><tspan class="cls-5" x="37.08" y="0">v</tspan><tspan x="50.04" y="0">e</tspan><tspan class="cls-6" x="63.41" y="0">n</tspan><tspan x="77.78" y="0">ts 60 pounds </tspan><tspan class="cls-6" x="230.25" y="0">o</tspan><tspan class="cls-7" x="243.91" y="0">f</tspan><tspan x="51.02" y="28.8">CO2 </tspan><tspan class="cls-8" x="102.98" y="28.8">P</tspan><tspan class="cls-9" x="118.15" y="28.8">ollution</tspan></text><path class="cls-10" d="M128.3,116.85H71.4l7.52,48.36H79c.89,6,9.62,10.76,20.25,10.76,10.84,0,19.69-4.91,20.3-11.1h0Z"/><ellipse class="cls-11" cx="99.85" cy="114.63" rx="28.45" ry="8.54"/><polygon class="cls-12" points="125.57 123.17 127.11 123.35 128.99 121.3 128.99 117.78 126.98 119.17 125.4 120.27 125.57 123.17"/><path class="cls-13" d="M128.39,120.36l3.24,1c.35.51-5.46,12.3-5.46,12.3s-5,8.89-17.77,16.24a8.44,8.44,0,0,1-6.16.85c-2.73-.51-32.46-6.32-32.46-6.32a3.85,3.85,0,0,1-2.56-2.57c-1.37-3.58-4.27-10.08-1-18.45,2.78-7.16,3.87-8.8,3.87-8.8l.4.43-3.58,8.37c-.08.18-.38,1.14-.42,1.33-.61,2.6-2.08,9.54,1.27,16.1.84,1.64.85,2.39,2,2.73s33.66,6.5,33.66,6.5a6.7,6.7,0,0,0,4.27-.86c13.16-7.86,17.77-16.74,17.77-16.74l5.3-10.77-2.39-.68Z"/><polygon class="cls-14" points="127.28 119.93 127.11 123.35 125.57 123.17 125.4 120.27 127.41 118.88 127.28 119.93"/><ellipse class="cls-14" cx="99.85" cy="115.23" rx="30.07" ry="10.25"/><ellipse class="cls-12" cx="99.51" cy="114.63" rx="28.11" ry="8.54"/><g class="cls-15"><ellipse class="cls-16" cx="110.37" cy="89.84" rx="5.66" ry="4.22"/><path class="cls-16" d="M122,107.64c2.52-1.34,4.11-3.3,4.11-5.49,0-4.05-5.46-7.33-12.21-7.33a18.69,18.69,0,0,0-6.37,1.07,7.78,7.78,0,0,0-14.27-.47,13.07,13.07,0,0,0-4-.6c-5.52,0-10,3.28-10,7.33a5.78,5.78,0,0,0,1.1,3.34c-4.64,2.39-7.5,5.65-7.5,9.24,0,7.33,11.92,13.27,26.62,13.27s26.62-5.94,26.62-13.27C126.11,112.12,124.6,109.69,122,107.64Z"/><ellipse class="cls-16" cx="96.93" cy="82.86" rx="2.16" ry="1.66"/><ellipse class="cls-16" cx="84.75" cy="90.46" rx="3.54" ry="3.46"/></g><path class="cls-17" d="M179.86,134.15H123l7.51,48.36h.08c.9,6,9.62,10.76,20.26,10.76,10.83,0,19.68-4.91,20.3-11.1h0Z"/><ellipse class="cls-11" cx="151.41" cy="131.93" rx="28.45" ry="8.54"/><polygon class="cls-12" points="177.13 140.47 178.67 140.65 180.55 138.59 180.55 135.08 178.55 136.47 176.96 137.57 177.13 140.47"/><path class="cls-13" d="M180,137.65l3.25,1c.34.51-5.47,12.3-5.47,12.3s-5,8.89-17.77,16.23a8.37,8.37,0,0,1-6.15.86c-2.74-.51-32.47-6.32-32.47-6.32a3.87,3.87,0,0,1-2.56-2.57c-1.37-3.58-4.27-10.08-1-18.45,2.78-7.16,3.87-8.8,3.87-8.8l.41.43-3.59,8.37c-.08.18-.38,1.14-.42,1.33-.61,2.6-2.08,9.54,1.27,16.1.84,1.64.86,2.39,2,2.73s33.66,6.5,33.66,6.5a6.7,6.7,0,0,0,4.27-.86c13.16-7.86,17.78-16.74,17.78-16.74L182.34,139l-2.39-.68Z"/><polygon class="cls-14" points="178.84 137.23 178.67 140.65 177.13 140.47 176.96 137.57 178.97 136.18 178.84 137.23"/><ellipse class="cls-14" cx="151.41" cy="132.53" rx="30.07" ry="10.25"/><ellipse class="cls-12" cx="151.07" cy="131.93" rx="28.11" ry="8.54"/><g class="cls-18"><ellipse class="cls-19" cx="161.93" cy="107.13" rx="5.66" ry="4.22"/><path class="cls-19" d="M173.56,124.94c2.52-1.34,4.11-3.3,4.11-5.49,0-4-5.46-7.33-12.21-7.33a18.69,18.69,0,0,0-6.37,1.07,7.78,7.78,0,0,0-14.27-.47,13.07,13.07,0,0,0-4-.6c-5.52,0-10,3.28-10,7.33a5.8,5.8,0,0,0,1.1,3.34c-4.65,2.39-7.51,5.65-7.51,9.23,0,7.33,11.92,13.28,26.62,13.28s26.62-6,26.62-13.28C177.67,129.42,176.16,127,173.56,124.94Z"/><ellipse class="cls-19" cx="148.49" cy="100.16" rx="2.16" ry="1.66"/><ellipse class="cls-19" cx="136.31" cy="107.76" rx="3.54" ry="3.46"/></g><path class="cls-20" d="M152.63,163.46H95.73l7.52,48.35h.07c.9,6,9.63,10.77,20.26,10.77,10.83,0,19.69-4.92,20.3-11.11h0Z"/><ellipse class="cls-11" cx="124.18" cy="161.24" rx="28.45" ry="8.54"/><polygon class="cls-12" points="149.9 169.78 151.43 169.95 153.31 167.9 153.31 164.39 151.31 165.77 149.72 166.87 149.9 169.78"/><path class="cls-13" d="M152.71,167l3.25,1c.34.52-5.47,12.31-5.47,12.31s-5,8.88-17.77,16.23a8.36,8.36,0,0,1-6.15.85c-2.73-.51-32.46-6.32-32.46-6.32a3.87,3.87,0,0,1-2.57-2.56c-1.36-3.59-4.27-10.08-1-18.46,2.77-7.16,3.86-8.79,3.86-8.79l.41.42L91.2,170c-.07.18-.37,1.14-.42,1.33-.6,2.6-2.08,9.55,1.28,16.1.83,1.64.85,2.4,2,2.74s33.66,6.49,33.66,6.49a6.73,6.73,0,0,0,4.27-.85c13.16-7.86,17.77-16.75,17.77-16.75l5.3-10.76-2.4-.69Z"/><polygon class="cls-14" points="151.6 166.53 151.43 169.95 149.9 169.78 149.72 166.87 151.74 165.48 151.6 166.53"/><ellipse class="cls-21" cx="124.18" cy="161.83" rx="30.07" ry="10.25"/><ellipse class="cls-12" cx="123.84" cy="161.24" rx="28.11" ry="8.54"/><g class="cls-22"><ellipse class="cls-23" cx="134.69" cy="136.44" rx="5.66" ry="4.22"/><path class="cls-23" d="M146.32,154.24c2.53-1.34,4.12-3.3,4.12-5.48,0-4.06-5.47-7.34-12.21-7.34a18.37,18.37,0,0,0-6.37,1.08,7.79,7.79,0,0,0-14.28-.48,13.31,13.31,0,0,0-4-.6c-5.53,0-10,3.28-10,7.34a5.83,5.83,0,0,0,1.1,3.34c-4.64,2.39-7.5,5.64-7.5,9.23,0,7.33,11.91,13.27,26.62,13.27s26.62-5.94,26.62-13.27C150.44,158.72,148.93,156.29,146.32,154.24Z"/><ellipse class="cls-23" cx="121.26" cy="129.47" rx="2.16" ry="1.66"/><ellipse class="cls-23" cx="109.07" cy="137.06" rx="3.54" ry="3.46"/></g></g></g></svg>