<svg xmlns="http://www.w3.org/2000/svg" xmlns:xlink="http://www.w3.org/1999/xlink" viewBox="0 0 118.5 141.4"><defs><style>.cls-1,.cls-3{fill:none;}.cls-2{fill:#3c4c99;}.cls-12,.cls-13,.cls-2,.cls-4,.cls-6,.cls-9{stroke:#fff;}.cls-12,.cls-13,.cls-2,.cls-3,.cls-4,.cls-6,.cls-9{stroke-miterlimit:10;}.cls-12,.cls-2,.cls-4,.cls-9{stroke-width:0.07px;}.cls-3{stroke:red;stroke-width:0.15px;}.cls-4{fill:#222e7d;}.cls-5{fill:#92cce0;}.cls-6{fill:#5c79e5;}.cls-13,.cls-6{stroke-width:0.17px;}.cls-7{clip-path:url(#clip-path);}.cls-8{fill:#b3b3b3;}.cls-9{fill:#2f3e75;}.cls-10{clip-path:url(#clip-path-2);}.cls-11{fill:gray;}.cls-12{fill:#4d66c1;}.cls-13{fill:#8198e2;}.cls-14{clip-path:url(#clip-path-3);}.cls-15{fill:#e6e6e6;}</style><clipPath id="clip-path" transform="translate(-4.12 -0.77)"><ellipse class="cls-1" cx="38.72" cy="21.77" rx="38.72" ry="21.77"/></clipPath><clipPath id="clip-path-2" transform="translate(-4.12 -0.77)"><ellipse class="cls-1" cx="90.28" cy="39.06" rx="38.72" ry="21.77"/></clipPath><clipPath id="clip-path-3" transform="translate(-4.12 -0.77)"><ellipse class="cls-1" cx="63.05" cy="68.37" rx="38.72" ry="21.77"/></clipPath></defs><title>co2-pollution</title><g id="Layer_2" data-name="Layer 2"><g id="Layer_2-2" data-name="Layer 2"><path class="cls-2" d="M67.72,36.42H10.82l7.51,48.35h.08c.9,6,9.62,10.77,20.26,10.77,10.83,0,19.69-4.92,20.3-11.11h0Z" transform="translate(-4.12 -0.77)"/><ellipse class="cls-3" cx="35.14" cy="33.42" rx="28.45" ry="8.54"/><polygon class="cls-4" points="60.86 41.97 62.4 42.14 64.28 40.09 64.28 36.57 62.27 37.96 60.69 39.06 60.86 41.97"/><path class="cls-5" d="M67.8,39.92l3.25,1c.34.52-5.47,12.31-5.47,12.31s-5,8.88-17.77,16.23a8.33,8.33,0,0,1-6.15.85C38.92,69.82,9.19,64,9.19,64a3.87,3.87,0,0,1-2.56-2.56C5.26,57.86,2.36,51.37,5.6,43c2.78-7.16,3.87-8.8,3.87-8.8l.41.42L6.29,43c-.08.17-.38,1.13-.42,1.32-.61,2.61-2.08,9.55,1.27,16.1.84,1.64.86,2.4,2.05,2.74s33.66,6.49,33.66,6.49a6.76,6.76,0,0,0,4.28-.85C60.28,60.94,64.9,52.05,64.9,52.05l5.29-10.76L67.8,40.6Z" transform="translate(-4.12 -0.77)"/><polygon class="cls-6" points="62.57 38.72 62.4 42.14 60.86 41.97 60.69 39.06 62.7 37.67 62.57 38.72"/><ellipse class="cls-6" cx="35.14" cy="34.02" rx="30.07" ry="10.25"/><ellipse class="cls-4" cx="34.8" cy="33.42" rx="28.11" ry="8.54"/><g class="cls-7"><ellipse class="cls-8" cx="45.66" cy="8.63" rx="5.66" ry="4.22"/><path class="cls-8" d="M61.41,27.2c2.52-1.34,4.11-3.3,4.11-5.48,0-4.06-5.46-7.34-12.2-7.34a18.7,18.7,0,0,0-6.38,1.08A7.79,7.79,0,0,0,32.67,15a13.36,13.36,0,0,0-4-.6c-5.53,0-10,3.28-10,7.34a5.8,5.8,0,0,0,1.1,3.34c-4.64,2.39-7.51,5.64-7.51,9.23,0,7.33,11.92,13.27,26.62,13.27s26.62-5.94,26.62-13.27C65.52,31.68,64,29.26,61.41,27.2Z" transform="translate(-4.12 -0.77)"/><ellipse class="cls-8" cx="32.22" cy="1.66" rx="2.16" ry="1.66"/><ellipse class="cls-8" cx="20.04" cy="9.25" rx="3.54" ry="3.46"/></g><path class="cls-9" d="M119.28,53.72H62.38l7.52,48.35H70c.9,6,9.63,10.77,20.26,10.77,10.83,0,19.69-4.92,20.3-11.11h0Z" transform="translate(-4.12 -0.77)"/><ellipse class="cls-3" cx="86.7" cy="50.72" rx="28.45" ry="8.54"/><polygon class="cls-4" points="112.42 59.27 113.96 59.44 115.84 57.39 115.84 53.87 113.84 55.26 112.25 56.36 112.42 59.27"/><path class="cls-5" d="M119.36,57.22l3.25,1c.34.52-5.47,12.31-5.47,12.31s-5,8.88-17.77,16.23a8.38,8.38,0,0,1-6.15.85c-2.73-.51-32.47-6.32-32.47-6.32a3.87,3.87,0,0,1-2.56-2.56c-1.37-3.59-4.27-10.08-1-18.46,2.77-7.16,3.86-8.8,3.86-8.8l.41.43-3.59,8.37c-.07.18-.38,1.14-.42,1.33-.61,2.6-2.08,9.55,1.27,16.1.84,1.64.86,2.4,2,2.74S94.42,87,94.42,87a6.73,6.73,0,0,0,4.27-.85c13.15-7.86,17.77-16.75,17.77-16.75l5.3-10.76-2.4-.69Z" transform="translate(-4.12 -0.77)"/><polygon class="cls-6" points="114.13 56.02 113.96 59.44 112.42 59.27 112.25 56.36 114.26 54.97 114.13 56.02"/><ellipse class="cls-6" cx="86.7" cy="51.32" rx="30.07" ry="10.25"/><ellipse class="cls-4" cx="86.36" cy="50.72" rx="28.11" ry="8.54"/><g class="cls-10"><ellipse class="cls-11" cx="97.22" cy="25.93" rx="5.66" ry="4.22"/><path class="cls-11" d="M113,44.5c2.52-1.34,4.12-3.3,4.12-5.49,0-4-5.47-7.33-12.21-7.33a18.37,18.37,0,0,0-6.37,1.08,7.79,7.79,0,0,0-14.28-.48,13.36,13.36,0,0,0-4-.6c-5.53,0-10,3.28-10,7.33a5.83,5.83,0,0,0,1.1,3.35c-4.64,2.39-7.51,5.64-7.51,9.23,0,7.33,11.92,13.27,26.63,13.27s26.62-5.94,26.62-13.27C117.09,49,115.57,46.55,113,44.5Z" transform="translate(-4.12 -0.77)"/><ellipse class="cls-11" cx="83.78" cy="18.96" rx="2.16" ry="1.66"/><ellipse class="cls-11" cx="71.6" cy="26.55" rx="3.54" ry="3.46"/></g><path class="cls-12" d="M92,83H35.14l7.52,48.36h.08c.89,6,9.62,10.76,20.25,10.76,10.84,0,19.69-4.91,20.3-11.1h0Z" transform="translate(-4.12 -0.77)"/><ellipse class="cls-3" cx="59.47" cy="80.03" rx="28.45" ry="8.54"/><polygon class="cls-4" points="85.18 88.57 86.72 88.74 88.6 86.69 88.6 83.18 86.6 84.56 85.01 85.67 85.18 88.57"/><path class="cls-5" d="M92.13,86.52l3.24,1c.35.51-5.46,12.3-5.46,12.3s-5,8.89-17.77,16.23a8.39,8.39,0,0,1-6.16.86c-2.73-.51-32.46-6.32-32.46-6.32A3.85,3.85,0,0,1,31,108.05c-1.37-3.59-4.28-10.08-1-18.45,2.78-7.16,3.87-8.8,3.87-8.8l.4.43L30.61,89.6c-.07.18-.37,1.14-.42,1.33-.6,2.6-2.07,9.54,1.28,16.1.84,1.64.85,2.39,2.05,2.73s33.66,6.49,33.66,6.49a6.66,6.66,0,0,0,4.27-.85c13.16-7.86,17.77-16.74,17.77-16.74l5.3-10.77-2.39-.68Z" transform="translate(-4.12 -0.77)"/><polygon class="cls-6" points="86.89 85.32 86.72 88.74 85.18 88.57 85.01 85.67 87.02 84.27 86.89 85.32"/><ellipse class="cls-13" cx="59.47" cy="80.63" rx="30.07" ry="10.25"/><ellipse class="cls-4" cx="59.13" cy="80.03" rx="28.11" ry="8.54"/><g class="cls-14"><ellipse class="cls-15" cx="69.98" cy="55.23" rx="5.66" ry="4.22"/><path class="cls-15" d="M85.74,73.81c2.52-1.34,4.11-3.31,4.11-5.49,0-4-5.47-7.34-12.21-7.34a18.64,18.64,0,0,0-6.37,1.08A7.78,7.78,0,0,0,57,61.59,13.07,13.07,0,0,0,53,61c-5.53,0-10,3.29-10,7.34a5.8,5.8,0,0,0,1.1,3.34c-4.64,2.39-7.5,5.64-7.5,9.23,0,7.33,11.92,13.28,26.62,13.28s26.62-6,26.62-13.28C89.85,78.29,88.34,75.86,85.74,73.81Z" transform="translate(-4.12 -0.77)"/><ellipse class="cls-15" cx="56.55" cy="48.26" rx="2.16" ry="1.66"/><ellipse class="cls-15" cx="44.36" cy="55.85" rx="3.54" ry="3.46"/></g></g></g></svg>