<svg xmlns="http://www.w3.org/2000/svg" viewBox="0 0 168.82 168.82"><defs><style>.cls-1{fill-rule:evenodd;}</style></defs><title>electricity</title><g id="Layer_2" data-name="Layer 2"><g id="Layer_2-2" data-name="Layer 2"><path class="cls-1" d="M168.82,168.82H0V154.75H7C28.11,120.25,34.78,63.41,35.17,42.2H84.41c.38,20.68,7.07,77.25,28.14,112.55H124.8l-4.52-7.69c-8.4-15.09-13.7-32-17.59-48.7a212,212,0,0,0,2.82-28h35.17c.28,15.51,5.3,57.93,21.1,84.41h7ZM40.19,126.61H54.25l-8.2,21.11,29.31-35.17H61.29L69.5,91.44Zm90.9-90.84a10.5,10.5,0,0,1,19.18,0,7.82,7.82,0,0,1,3.6-.88,8,8,0,0,1,0,16,7.82,7.82,0,0,1-3.6-.88,10.5,10.5,0,0,1-19.18,0,7.79,7.79,0,0,1-3.6.88,8,8,0,0,1,0-16A7.79,7.79,0,0,1,131.09,35.77Zm-74.82-.6C57.67,19.82,68.83,7,80.89,7A10.54,10.54,0,0,1,85.7,8.19a14.07,14.07,0,0,1,25.56,0,10.56,10.56,0,1,1,0,18.79,14,14,0,0,1-12.78,8.19c-16.5,0-26.18-20.76-35.17,0Z"/></g></g></svg>