<?xml version="1.0" encoding="utf-8"?>
<!-- Generator: Adobe Illustrator 19.0.0, SVG Export Plug-In . SVG Version: 6.00 Build 0)  -->
<svg version="1.1" id="Layer_1" xmlns="http://www.w3.org/2000/svg" xmlns:xlink="http://www.w3.org/1999/xlink" x="0px" y="0px"
	 viewBox="0 0 53.5 53.5" style="enable-background:new 0 0 53.5 53.5;" xml:space="preserve">
<style type="text/css">
	.st0{fill-rule:evenodd;clip-rule:evenodd;fill:#FFFFFF;}
</style>
<path class="st0" d="M53.5,53.5H0V13.4h11.1v20.1l15.6-13.4v8.3l-4.1,3.4l1.4,1.7l7.5-6.3l8.5-7.1v8.3l-4,3.4l1.4,1.7l10.3-8.6l0,0
	l5.7-4.8L53.5,53.5z M13.4,40.1H8.9v6.7h4.5V40.1z M35.7,40.1h-4.5v6.7h4.5V40.1z M24.5,40.1h-4.5v6.7h4.5V40.1z M46.8,40.1h-4.5
	v6.7h4.5V40.1z M6.7,11.1H4.5c0.4-4.9,4-8.9,7.8-8.9c0.5,0,1.1,0.1,1.5,0.4C14.5,1.1,16,0,17.8,0s3.3,1.1,4.1,2.6
	c0.5-0.2,1-0.4,1.5-0.4c1.8,0,3.3,1.5,3.3,3.3s-1.5,3.3-3.3,3.3c-0.5,0-1.1-0.1-1.5-0.4c-0.7,1.5-2.3,2.6-4.1,2.6
	C12.6,11.1,9.5,4.6,6.7,11.1z"/>
</svg>
