<?xml version="1.0" encoding="utf-8"?>
<!-- Generator: Adobe Illustrator 19.0.0, SVG Export Plug-In . SVG Version: 6.00 Build 0)  -->
<svg version="1.1" id="Layer_1" xmlns="http://www.w3.org/2000/svg" xmlns:xlink="http://www.w3.org/1999/xlink" x="0px" y="0px"
	 viewBox="-44.4 168.3 402.5 211.7" style="enable-background:new -44.4 168.3 402.5 211.7;" xml:space="preserve">
<style type="text/css">
	.st0{fill:url(#SVGID_1_);stroke:#FFFFFF;stroke-miterlimit:10;}
	.st1{fill:#1E8C7F;stroke:#FFFFFF;stroke-width:5.000000e-002;stroke-miterlimit:10;}
	.st2{fill:none;stroke:#FFFFFF;stroke-width:1.1;stroke-miterlimit:10;}
	.st3{fill:none;stroke:#000000;stroke-width:1.21;stroke-miterlimit:10;}
	.st4{fill:#4D66C1;stroke:#FFFFFF;stroke-width:2.000000e-002;stroke-miterlimit:10;}
	.st5{enable-background:new    ;}
</style>
<title>lamp_eletricity</title>
<linearGradient id="SVGID_1_" gradientUnits="userSpaceOnUse" x1="155.6901" y1="333.0753" x2="155.6901" y2="245.48" gradientTransform="matrix(1 0 0 -1 0 564.64)">
	<stop  offset="0" style="stop-color:#FFEB86;stop-opacity:0.96"/>
	<stop  offset="0.22" style="stop-color:#FFE681;stop-opacity:0.96"/>
	<stop  offset="0.48" style="stop-color:#FFD771;stop-opacity:0.97"/>
	<stop  offset="0.75" style="stop-color:#FFBE58;stop-opacity:0.98"/>
	<stop  offset="1" style="stop-color:#FFA23A"/>
</linearGradient>
<path class="st0" d="M188.4,264.3c0-18.1-14.7-32.8-32.7-32.8c-18.1,0-32.8,14.7-32.8,32.7c0,7.9,2.9,15.6,8.1,21.6l2.6,3.7
	c4.7,6.7,7.8,14.4,8.9,22.6l1,7h24l1.6-10.4c1-6.1,3.3-12,6.9-17l4-5.5C185.5,280.2,188.5,272.4,188.4,264.3z"/>
<path class="st1" d="M166.6,330.4h0.3c1.5,0.1,2.8-1.1,2.9-2.6c0.1-1.5-1.1-2.8-2.6-2.9c-0.1,0-0.2,0-0.3,0h-22.1
	c-1.5-0.1-2.8,1.1-2.9,2.6c-0.1,1.5,1.1,2.8,2.6,2.9c0.1,0,0.2,0,0.3,0h-0.3c-1.5,0-2.7,1.2-2.7,2.7s1.2,2.7,2.7,2.7h3.5
	c-1.3,0.8-1.6,2.5-0.8,3.8c0.5,0.8,1.3,1.2,2.3,1.2h12.7c1.5,0,2.7-1.2,2.7-2.7c0-0.9-0.5-1.8-1.2-2.3h2.9c1.5,0,2.7-1.2,2.7-2.7
	S168.1,330.4,166.6,330.4L166.6,330.4z"/>
<path class="st2" d="M141.9,267.7c-0.8,1.7-0.7,3.8,0.2,5.4c2.7,4,7.1,6,13,5.8c7.9-0.3,15.2-2.4,14.9-9.4c-0.2-3.7-3.9-6.7-7.6-2.1
	c-2,2.4-2.4,47-2.4,47h-7.9l-2.1-45.2c0-1.1-0.5-2.1-1.3-2.8C147,264.9,144.1,263.4,141.9,267.7z"/>
<line class="st3" x1="155.8" y1="340.9" x2="155.8" y2="373.6"/>
<path class="st4" d="M156.2,380h-1c-0.6,0-1.1-0.5-1.1-1.1c0-0.1,0-0.1,0-0.2l0.9-5.4h1.6l0.7,5.4c0.1,0.6-0.4,1.2-1,1.2
	C156.3,380,156.2,380,156.2,380z"/>
<g class="st5">
	<path d="M-41.9,187.7c-0.2,0-0.3-0.1-0.4-0.2s-0.2-0.3-0.2-0.4v-14.2c0-0.2,0.1-0.3,0.2-0.4c0.1-0.1,0.3-0.2,0.4-0.2h5.9
		c0.9,0,1.7,0.1,2.3,0.4c0.6,0.3,1.1,0.6,1.5,1.1c0.4,0.4,0.6,0.9,0.8,1.4c0.2,0.5,0.2,0.9,0.2,1.3c0,0.5-0.1,0.9-0.2,1.3
		c-0.1,0.4-0.3,0.7-0.5,0.9c-0.2,0.3-0.4,0.4-0.6,0.6c-0.2,0.1-0.3,0.2-0.4,0.3c0.6,0.4,1,0.9,1.5,1.5c0.4,0.6,0.6,1.4,0.6,2.2
		c0,0.6-0.1,1.1-0.3,1.6s-0.5,1-0.9,1.4c-0.4,0.4-0.9,0.8-1.5,1c-0.6,0.3-1.3,0.4-2.1,0.4H-41.9z M-40.4,174.2v4.4h4.2
		c1,0,1.7-0.2,2.2-0.6c0.5-0.4,0.7-0.9,0.7-1.7c0-0.7-0.2-1.3-0.7-1.6c-0.5-0.4-1.2-0.6-2.2-0.6H-40.4z M-40.4,180.7v5h4.5
		c0.5,0,0.9-0.1,1.3-0.2s0.7-0.3,0.9-0.5c0.3-0.2,0.4-0.5,0.6-0.8c0.1-0.3,0.2-0.6,0.2-0.9c0-0.3-0.1-0.6-0.2-0.9
		c-0.1-0.3-0.3-0.6-0.5-0.8s-0.6-0.4-0.9-0.6c-0.4-0.1-0.8-0.2-1.3-0.2H-40.4z"/>
	<path d="M-24.7,191.3c0,0.1-0.1,0.2-0.2,0.4s-0.2,0.2-0.4,0.2h-0.9c-0.1,0-0.3-0.1-0.4-0.2c-0.1-0.1-0.2-0.2-0.2-0.4
		c0-0.1,0-0.1,0-0.2l2.1-4.6l-4.4-9.7c0,0,0-0.1,0-0.2c0-0.1,0.1-0.3,0.2-0.4s0.2-0.2,0.4-0.2h0.9c0.2,0,0.3,0.1,0.4,0.2
		s0.2,0.2,0.2,0.4l3.4,7.5l3.4-7.5c0-0.1,0.1-0.2,0.2-0.4c0.1-0.1,0.2-0.2,0.4-0.2h0.9c0.1,0,0.3,0.1,0.4,0.2s0.2,0.2,0.2,0.4
		c0,0.1,0,0.1,0,0.2L-24.7,191.3z"/>
	<path d="M-5.3,176.2c0.2,0,0.3,0.1,0.4,0.2c0.1,0.1,0.2,0.3,0.2,0.4v0.7c0,0.2-0.1,0.3-0.2,0.4c-0.1,0.1-0.3,0.2-0.4,0.2h-1.3
		c-1.7,0-2.5,0.8-2.5,2.5v6.4c0,0.2-0.1,0.3-0.2,0.4c-0.1,0.1-0.3,0.2-0.4,0.2h-0.8c-0.2,0-0.3-0.1-0.4-0.2
		c-0.1-0.1-0.2-0.3-0.2-0.4v-10.3c0-0.2,0.1-0.3,0.2-0.4c0.1-0.1,0.3-0.2,0.4-0.2h0.8c0.2,0,0.3,0.1,0.4,0.2
		c0.1,0.1,0.2,0.3,0.2,0.4v0.7c0.3-0.4,0.6-0.8,1.1-1s0.9-0.3,1.6-0.3H-5.3z"/>
	<path d="M-3.5,180.8c0.1-0.7,0.2-1.3,0.5-1.9s0.6-1.1,1-1.5c0.4-0.4,0.9-0.8,1.5-1c0.6-0.2,1.3-0.4,2-0.4c0.8,0,1.5,0.1,2.1,0.4
		c0.6,0.3,1.2,0.6,1.6,1.1s0.8,1.1,1,1.8c0.2,0.7,0.4,1.5,0.4,2.3v0.6c0,0.2-0.1,0.3-0.2,0.4c-0.1,0.1-0.3,0.2-0.4,0.2h-7.6v0.1
		c0,1,0.3,1.8,0.9,2.3c0.6,0.5,1.3,0.8,2.2,0.8c0.8,0,1.4-0.1,1.8-0.3c0.4-0.2,0.7-0.5,1-0.8c0.1-0.1,0.2-0.2,0.3-0.2
		c0.1,0,0.2-0.1,0.4-0.1h0.7c0.2,0,0.3,0.1,0.4,0.2c0.1,0.1,0.2,0.3,0.2,0.4c0,0.3-0.2,0.6-0.4,0.9c-0.2,0.3-0.5,0.6-0.9,0.9
		c-0.4,0.3-0.9,0.5-1.5,0.7c-0.6,0.2-1.3,0.3-2,0.3c-0.7,0-1.4-0.1-2-0.4c-0.6-0.3-1.1-0.6-1.5-1.1s-0.8-1-1-1.6s-0.4-1.3-0.5-2
		C-3.6,182.2-3.6,181.5-3.5,180.8z M-1.6,180.9h6.2v-0.1c0-0.9-0.3-1.6-0.8-2.1c-0.6-0.5-1.3-0.8-2.3-0.8c-0.4,0-0.8,0.1-1.2,0.2
		c-0.4,0.1-0.7,0.3-1,0.6c-0.3,0.3-0.5,0.6-0.7,0.9C-1.5,180-1.6,180.4-1.6,180.9L-1.6,180.9z"/>
	<path d="M13.7,176c0.9,0,1.6,0.2,2.2,0.5c0.5,0.3,1,0.7,1.2,1v-4.9c0-0.2,0.1-0.3,0.2-0.4c0.1-0.1,0.3-0.2,0.4-0.2h0.8
		c0.2,0,0.3,0.1,0.4,0.2c0.1,0.1,0.2,0.3,0.2,0.4v14.4c0,0.2-0.1,0.3-0.2,0.4c-0.1,0.1-0.3,0.2-0.4,0.2h-0.8c-0.2,0-0.3-0.1-0.4-0.2
		c-0.1-0.1-0.2-0.3-0.2-0.4v-0.7c-0.3,0.4-0.7,0.7-1.3,1c-0.5,0.3-1.3,0.5-2.2,0.5c-0.7,0-1.3-0.1-1.9-0.4c-0.6-0.2-1.1-0.6-1.6-1
		c-0.4-0.5-0.8-1-1.1-1.6s-0.4-1.4-0.5-2.2c0-0.2,0-0.5,0-0.7c0-0.3,0-0.5,0-0.7c0-0.8,0.2-1.5,0.5-2.2s0.6-1.2,1.1-1.6s1-0.8,1.6-1
		C12.4,176.1,13,176,13.7,176z M17.1,182.9c0-0.2,0-0.5,0-0.9s0-0.6,0-0.9c0-1-0.4-1.8-0.9-2.4s-1.3-0.8-2.3-0.8
		c-1,0-1.7,0.3-2.3,0.9c-0.6,0.6-0.9,1.5-0.9,2.5c0,0.4,0,0.8,0,1.2c0.1,1.1,0.4,1.9,0.9,2.5c0.6,0.6,1.3,0.9,2.3,0.9
		c0.9,0,1.7-0.3,2.2-0.8C16.7,184.6,17.1,183.8,17.1,182.9z"/>
	<path d="M22.3,176.8c0-0.2,0.1-0.3,0.2-0.4s0.3-0.2,0.4-0.2h0.8c0.2,0,0.3,0.1,0.4,0.2c0.1,0.1,0.2,0.3,0.2,0.4v5.8
		c0,1.1,0.3,2,0.8,2.5c0.5,0.6,1.2,0.8,2.2,0.8c0.9,0,1.6-0.3,2.2-0.8s0.8-1.4,0.8-2.5v-5.8c0-0.2,0.1-0.3,0.2-0.4
		c0.1-0.1,0.3-0.2,0.4-0.2h0.8c0.2,0,0.3,0.1,0.4,0.2c0.1,0.1,0.2,0.3,0.2,0.4v10.3c0,0.2-0.1,0.3-0.2,0.4c-0.1,0.1-0.3,0.2-0.4,0.2
		h-0.8c-0.2,0-0.3-0.1-0.4-0.2c-0.1-0.1-0.2-0.3-0.2-0.4v-0.7c-0.3,0.4-0.7,0.7-1.2,1c-0.5,0.3-1.2,0.5-2.1,0.5
		c-0.7,0-1.3-0.1-1.9-0.3c-0.6-0.2-1.1-0.5-1.5-1s-0.7-0.9-0.9-1.5c-0.2-0.6-0.3-1.3-0.3-2.1V176.8z"/>
	<path d="M37,182.7c0.1,0.6,0.2,1.1,0.4,1.5c0.2,0.4,0.4,0.7,0.7,1c0.3,0.3,0.6,0.5,1,0.6c0.4,0.1,0.7,0.2,1.1,0.2
		c0.7,0,1.3-0.1,1.8-0.4c0.5-0.3,0.9-0.7,1.2-1.3c0.1-0.2,0.2-0.4,0.3-0.5c0.1-0.1,0.2-0.1,0.4-0.1h0.7c0.2,0,0.3,0.1,0.4,0.2
		c0.1,0.1,0.2,0.3,0.2,0.4c0,0.4-0.1,0.7-0.3,1.2c-0.2,0.4-0.5,0.8-0.9,1.2c-0.4,0.4-0.9,0.7-1.5,0.9c-0.6,0.3-1.3,0.4-2.1,0.4
		s-1.5-0.1-2.1-0.4c-0.6-0.3-1.2-0.6-1.6-1.1c-0.4-0.5-0.8-1-1-1.6c-0.2-0.6-0.4-1.3-0.4-2c0-0.2,0-0.5,0-0.9s0-0.6,0-0.9
		c0.1-0.7,0.2-1.4,0.5-2c0.2-0.6,0.6-1.2,1-1.6c0.4-0.5,0.9-0.8,1.6-1.1c0.6-0.3,1.3-0.4,2.1-0.4s1.5,0.1,2.1,0.4
		c0.6,0.3,1.1,0.6,1.5,0.9s0.7,0.7,0.9,1.2c0.2,0.4,0.3,0.8,0.3,1.2c0,0.2,0,0.3-0.2,0.4c-0.1,0.1-0.3,0.2-0.4,0.2h-0.7
		c-0.2,0-0.3,0-0.4-0.1c-0.1-0.1-0.2-0.2-0.3-0.5c-0.3-0.6-0.7-1.1-1.2-1.3c-0.5-0.3-1.1-0.4-1.8-0.4c-0.4,0-0.7,0.1-1.1,0.2
		c-0.4,0.1-0.7,0.3-1,0.6s-0.5,0.6-0.7,1c-0.2,0.4-0.3,0.9-0.4,1.5C37,181.7,37,182.2,37,182.7z"/>
	<path d="M50,173.9c0,0.2-0.1,0.3-0.2,0.4c-0.1,0.1-0.3,0.2-0.4,0.2h-1.3c-0.2,0-0.3-0.1-0.4-0.2c-0.1-0.1-0.2-0.3-0.2-0.4v-1.3
		c0-0.2,0.1-0.3,0.2-0.4c0.1-0.1,0.3-0.2,0.4-0.2h1.3c0.2,0,0.3,0.1,0.4,0.2c0.1,0.1,0.2,0.3,0.2,0.4V173.9z M49.8,187.1
		c0,0.2-0.1,0.3-0.2,0.4c-0.1,0.1-0.3,0.2-0.4,0.2h-0.8c-0.2,0-0.3-0.1-0.4-0.2c-0.1-0.1-0.2-0.3-0.2-0.4v-10.3
		c0-0.2,0.1-0.3,0.2-0.4c0.1-0.1,0.3-0.2,0.4-0.2h0.8c0.2,0,0.3,0.1,0.4,0.2c0.1,0.1,0.2,0.3,0.2,0.4V187.1z"/>
	<path d="M63.2,187.1c0,0.2-0.1,0.3-0.2,0.4c-0.1,0.1-0.3,0.2-0.4,0.2h-0.8c-0.2,0-0.3-0.1-0.4-0.2s-0.2-0.3-0.2-0.4v-5.8
		c0-1.1-0.3-2-0.8-2.5c-0.5-0.6-1.3-0.8-2.3-0.8c-0.9,0-1.7,0.3-2.2,0.8c-0.6,0.6-0.8,1.4-0.8,2.5v5.8c0,0.2-0.1,0.3-0.2,0.4
		c-0.1,0.1-0.3,0.2-0.4,0.2h-0.8c-0.2,0-0.3-0.1-0.4-0.2c-0.1-0.1-0.2-0.3-0.2-0.4v-10.3c0-0.2,0.1-0.3,0.2-0.4
		c0.1-0.1,0.3-0.2,0.4-0.2h0.8c0.2,0,0.3,0.1,0.4,0.2c0.1,0.1,0.2,0.3,0.2,0.4v0.7c0.3-0.4,0.7-0.7,1.2-1s1.3-0.5,2.2-0.5
		c0.7,0,1.3,0.1,1.9,0.3c0.6,0.2,1.1,0.6,1.5,1s0.7,0.9,1,1.6c0.2,0.6,0.4,1.3,0.4,2.1V187.1z"/>
	<path d="M65.9,181.2c0-0.8,0.2-1.5,0.5-2.2s0.6-1.2,1.1-1.6s1-0.8,1.6-1c0.6-0.2,1.2-0.4,1.9-0.4c0.9,0,1.6,0.2,2.2,0.5
		c0.5,0.3,1,0.7,1.2,1v-0.7c0-0.2,0.1-0.3,0.2-0.4c0.1-0.1,0.3-0.2,0.4-0.2h0.8c0.2,0,0.3,0.1,0.4,0.2c0.1,0.1,0.2,0.3,0.2,0.4v10.7
		c0,1.5-0.4,2.7-1.3,3.6c-0.9,0.9-2.2,1.4-3.9,1.4c-0.9,0-1.6-0.1-2.3-0.3c-0.6-0.2-1.1-0.5-1.5-0.8c-0.4-0.3-0.7-0.7-0.9-1
		c-0.2-0.4-0.3-0.7-0.3-1.1c0-0.2,0-0.3,0.2-0.4c0.1-0.1,0.3-0.2,0.4-0.2h0.7c0.2,0,0.3,0,0.4,0.1c0.1,0.1,0.2,0.2,0.3,0.5
		c0,0.1,0.1,0.2,0.2,0.4s0.2,0.3,0.5,0.5c0.2,0.2,0.5,0.3,0.8,0.4c0.3,0.1,0.8,0.2,1.3,0.2c0.5,0,0.9,0,1.4-0.1
		c0.4-0.1,0.8-0.3,1.1-0.5s0.5-0.5,0.7-0.9c0.2-0.4,0.3-0.8,0.3-1.3v-1.4c-0.3,0.4-0.7,0.7-1.3,1c-0.5,0.3-1.3,0.5-2.2,0.5
		c-0.7,0-1.3-0.1-1.9-0.4c-0.6-0.2-1.1-0.6-1.6-1s-0.8-1-1.1-1.6c-0.3-0.6-0.4-1.4-0.5-2.2c0-0.2,0-0.5,0-0.7
		C65.8,181.7,65.8,181.4,65.9,181.2z M74.3,181.1c0-1-0.4-1.8-0.9-2.4s-1.3-0.8-2.3-0.8c-1,0-1.7,0.3-2.3,0.9
		c-0.6,0.6-0.9,1.5-0.9,2.5c0,0.4,0,0.8,0,1.2c0.1,1.1,0.4,1.9,0.9,2.5c0.6,0.6,1.3,0.9,2.3,0.9c0.9,0,1.7-0.3,2.3-0.9
		c0.6-0.6,0.9-1.4,0.9-2.4c0-0.2,0-0.5,0-0.8C74.3,181.6,74.3,181.4,74.3,181.1z"/>
	<path d="M92,187.7c-0.2,0-0.3-0.1-0.4-0.2c-0.1-0.1-0.2-0.3-0.2-0.4v-3h-6.9c-0.2,0-0.3-0.1-0.4-0.2c-0.1-0.1-0.2-0.3-0.2-0.4v-0.8
		c0-0.1,0-0.2,0.1-0.4s0.1-0.3,0.2-0.4l7-9.1c0.1-0.2,0.2-0.3,0.4-0.4c0.1-0.1,0.3-0.1,0.5-0.1h0.9c0.2,0,0.3,0.1,0.4,0.2
		c0.1,0.1,0.2,0.3,0.2,0.4v9.2h1.9c0.2,0,0.3,0.1,0.4,0.2c0.1,0.1,0.2,0.3,0.2,0.4v0.8c0,0.2-0.1,0.3-0.2,0.4
		c-0.1,0.1-0.3,0.2-0.4,0.2h-1.9v3c0,0.2-0.1,0.3-0.2,0.4c-0.1,0.1-0.3,0.2-0.4,0.2H92z M91.4,182v-6.2l-4.8,6.2H91.4z"/>
	<path d="M109.3,178.1c0,0.7,0,1.3,0,1.9c0,0.6,0,1.2,0,1.9c0,0.9-0.1,1.6-0.4,2.4c-0.2,0.7-0.6,1.4-1,1.9c-0.5,0.5-1,1-1.7,1.3
		c-0.7,0.3-1.5,0.5-2.5,0.5c-1,0-1.8-0.2-2.5-0.5c-0.7-0.3-1.3-0.7-1.7-1.3c-0.5-0.5-0.8-1.2-1-1.9c-0.2-0.7-0.3-1.5-0.4-2.4
		c0-0.7,0-1.3,0-1.9c0-0.6,0-1.2,0-1.9c0-0.9,0.1-1.6,0.4-2.4c0.2-0.7,0.6-1.4,1-1.9c0.5-0.5,1-1,1.7-1.3c0.7-0.3,1.5-0.5,2.5-0.5
		c1,0,1.8,0.2,2.5,0.5c0.7,0.3,1.3,0.7,1.7,1.3c0.5,0.5,0.8,1.2,1,1.9C109.1,176.5,109.3,177.3,109.3,178.1z M100.1,181.8
		c0,1.4,0.3,2.4,0.9,3.1c0.6,0.7,1.5,1,2.6,1s2-0.3,2.6-1c0.6-0.7,0.9-1.7,0.9-3.1c0-0.7,0-1.3,0-1.9c0-0.6,0-1.2,0-1.9
		c0-1.4-0.3-2.4-0.9-3.1c-0.6-0.7-1.5-1-2.6-1s-2,0.3-2.6,1c-0.6,0.7-0.9,1.7-0.9,3.1c0,0.7,0,1.3,0,1.9
		C100.1,180.6,100.1,181.2,100.1,181.8z"/>
	<path d="M114.9,172.2c1,0,1.8,0.3,2.4,0.9c0.5,0.6,0.8,1.3,0.9,2.2c0,0.2,0,0.4,0,0.5s0,0.3,0,0.4s0,0.3,0,0.4c0,0.1,0,0.3,0,0.5
		c0,0.9-0.3,1.6-0.9,2.2c-0.5,0.6-1.3,0.9-2.4,0.9c-1,0-1.8-0.3-2.4-0.9c-0.5-0.6-0.8-1.3-0.9-2.2c0-0.2,0-0.4,0-0.5
		c0-0.1,0-0.3,0-0.4s0-0.3,0-0.4c0-0.1,0-0.3,0-0.5c0-0.9,0.3-1.6,0.9-2.2C113,172.4,113.8,172.2,114.9,172.2z M123.7,172.7
		c0.1-0.1,0.2-0.2,0.3-0.3c0.1-0.1,0.3-0.1,0.5-0.1h0.8c0.2,0,0.3,0,0.4,0.1c0.1,0.1,0.1,0.2,0.1,0.3c0,0,0,0.1,0,0.1
		c0,0,0,0.1-0.1,0.1l-10.9,14.3c-0.1,0.1-0.2,0.2-0.3,0.3c-0.1,0.1-0.3,0.1-0.5,0.1h-0.8c-0.2,0-0.3,0-0.4-0.1
		c-0.1-0.1-0.1-0.2-0.1-0.3c0,0,0-0.1,0-0.1s0-0.1,0.1-0.1L123.7,172.7z M116.4,175.3c0-0.4-0.2-0.8-0.4-1.1
		c-0.2-0.3-0.6-0.5-1.1-0.5c-0.5,0-0.9,0.2-1.1,0.5c-0.2,0.3-0.4,0.7-0.4,1.1c0,0.2,0,0.3,0,0.5c0,0.1,0,0.2,0,0.4
		c0,0.1,0,0.2,0,0.4s0,0.3,0,0.5c0,0.4,0.2,0.8,0.4,1.1c0.2,0.3,0.6,0.5,1.1,0.5c0.5,0,0.9-0.2,1.1-0.5c0.2-0.3,0.4-0.7,0.4-1.1
		c0-0.2,0-0.4,0-0.5s0-0.3,0-0.4c0-0.1,0-0.2,0-0.4C116.4,175.6,116.4,175.5,116.4,175.3z M124,179.9c1,0,1.8,0.3,2.4,0.9
		c0.5,0.6,0.8,1.3,0.9,2.2c0,0.2,0,0.4,0,0.5s0,0.3,0,0.4c0,0.1,0,0.3,0,0.4s0,0.3,0,0.5c0,0.9-0.3,1.6-0.9,2.2s-1.3,0.9-2.4,0.9
		c-1,0-1.8-0.3-2.4-0.9s-0.8-1.3-0.9-2.2c0-0.2,0-0.4,0-0.5s0-0.3,0-0.4c0-0.1,0-0.3,0-0.4s0-0.3,0-0.5c0-0.9,0.3-1.6,0.9-2.2
		C122.2,180.1,122.9,179.9,124,179.9z M125.5,183c0-0.4-0.2-0.8-0.4-1.1c-0.2-0.3-0.6-0.5-1.1-0.5c-0.5,0-0.9,0.2-1.1,0.5
		c-0.2,0.3-0.4,0.7-0.4,1.1c0,0.2,0,0.3,0,0.5s0,0.2,0,0.4c0,0.1,0,0.2,0,0.4s0,0.3,0,0.5c0,0.4,0.2,0.8,0.4,1.1
		c0.2,0.3,0.6,0.5,1.1,0.5c0.5,0,0.9-0.2,1.1-0.5c0.2-0.3,0.4-0.7,0.4-1.1c0-0.2,0-0.4,0-0.5s0-0.3,0-0.4c0-0.1,0-0.2,0-0.4
		S125.5,183.2,125.5,183z"/>
	<path d="M139.9,176c0.8,0,1.5,0.1,2.1,0.4c0.6,0.2,1.1,0.6,1.6,1c0.4,0.4,0.8,0.9,1,1.6c0.3,0.6,0.4,1.3,0.5,2c0,0.1,0,0.3,0,0.5
		c0,0.2,0,0.4,0,0.6s0,0.4,0,0.6s0,0.3,0,0.5c-0.1,0.7-0.2,1.4-0.5,2s-0.6,1.1-1,1.5c-0.4,0.4-1,0.8-1.6,1c-0.6,0.2-1.3,0.4-2.1,0.4
		s-1.5-0.1-2.1-0.4c-0.6-0.2-1.1-0.6-1.6-1c-0.4-0.4-0.8-0.9-1-1.5c-0.3-0.6-0.4-1.3-0.5-2c0-0.1,0-0.3,0-0.5s0-0.4,0-0.6
		s0-0.4,0-0.6c0-0.2,0-0.3,0-0.5c0.1-0.7,0.2-1.4,0.5-2c0.3-0.6,0.6-1.1,1-1.6s1-0.8,1.6-1C138.4,176.1,139.1,176,139.9,176z
		 M143.1,182.9c0-0.2,0-0.6,0-0.9s0-0.7,0-0.9c0-0.4-0.1-0.9-0.3-1.2c-0.1-0.4-0.4-0.7-0.6-1c-0.3-0.3-0.6-0.5-1-0.7
		c-0.4-0.2-0.8-0.2-1.3-0.2c-0.5,0-1,0.1-1.3,0.2c-0.4,0.2-0.7,0.4-1,0.7c-0.3,0.3-0.5,0.6-0.6,1c-0.1,0.4-0.2,0.8-0.3,1.2
		c0,0.3,0,0.6,0,0.9s0,0.7,0,0.9c0,0.4,0.1,0.9,0.3,1.2c0.1,0.4,0.4,0.7,0.6,1c0.3,0.3,0.6,0.5,1,0.7c0.4,0.2,0.8,0.2,1.3,0.2
		c0.5,0,1-0.1,1.3-0.2c0.4-0.2,0.7-0.4,1-0.7c0.3-0.3,0.5-0.6,0.6-1C143,183.7,143.1,183.3,143.1,182.9z"/>
	<path d="M150.9,176.2h2.8c0.2,0,0.3,0.1,0.4,0.2c0.1,0.1,0.2,0.3,0.2,0.4v0.7c0,0.2-0.1,0.3-0.2,0.4c-0.1,0.1-0.3,0.2-0.4,0.2h-2.8
		v9c0,0.2-0.1,0.3-0.2,0.4c-0.1,0.1-0.3,0.2-0.4,0.2h-0.8c-0.2,0-0.3-0.1-0.4-0.2c-0.1-0.1-0.2-0.3-0.2-0.4v-9h-1.8
		c-0.2,0-0.3-0.1-0.4-0.2c-0.1-0.1-0.2-0.3-0.2-0.4v-0.7c0-0.2,0.1-0.3,0.2-0.4c0.1-0.1,0.3-0.2,0.4-0.2h1.8v-1.1
		c0-1.2,0.3-2.2,0.9-2.8c0.6-0.6,1.5-0.9,2.8-0.9h1.4c0.2,0,0.3,0.1,0.4,0.2c0.1,0.1,0.2,0.3,0.2,0.4v0.7c0,0.2-0.1,0.3-0.2,0.4
		c-0.1,0.1-0.3,0.2-0.4,0.2h-1.2c-0.4,0-0.7,0-0.9,0.1c-0.2,0.1-0.4,0.2-0.6,0.4c-0.1,0.2-0.2,0.4-0.3,0.6c-0.1,0.2-0.1,0.5-0.1,0.8
		V176.2z"/>
	<path d="M160.3,184.8c0-0.6,0.1-1.1,0.4-1.5c0.2-0.4,0.6-0.8,1-1.1c0.4-0.3,0.9-0.6,1.4-0.7c0.5-0.2,1.1-0.3,1.7-0.4l3.1-0.5v-0.3
		c0-0.7-0.2-1.3-0.7-1.7s-1.1-0.6-1.8-0.6c-0.6,0-1.1,0.1-1.5,0.4s-0.6,0.5-0.8,0.8c-0.1,0.1-0.2,0.2-0.3,0.2s-0.2,0.1-0.4,0.1h-0.7
		c-0.2,0-0.3-0.1-0.4-0.2c-0.1-0.1-0.2-0.3-0.2-0.4c0-0.3,0.2-0.7,0.4-1c0.2-0.3,0.5-0.6,0.9-0.9c0.4-0.3,0.8-0.5,1.3-0.6
		c0.5-0.2,1-0.3,1.6-0.3c0.7,0,1.3,0.1,1.8,0.3s1,0.5,1.5,0.8c0.4,0.4,0.7,0.8,0.9,1.4s0.3,1.2,0.3,1.9v6.7c0,0.2-0.1,0.3-0.2,0.4
		c-0.1,0.1-0.3,0.2-0.4,0.2h-0.8c-0.2,0-0.3-0.1-0.4-0.2s-0.2-0.3-0.2-0.4v-0.9c-0.1,0.3-0.3,0.5-0.6,0.7s-0.6,0.4-1,0.5
		s-0.7,0.3-1.1,0.3c-0.4,0.1-0.8,0.1-1.1,0.1c-0.6,0-1.1-0.1-1.6-0.2c-0.5-0.2-0.9-0.4-1.2-0.6s-0.6-0.6-0.8-1
		C160.4,185.6,160.3,185.2,160.3,184.8z M164.4,186c0.5,0,1-0.1,1.5-0.2c0.4-0.2,0.8-0.4,1.1-0.7c0.3-0.3,0.6-0.6,0.7-1
		c0.2-0.4,0.3-0.8,0.3-1.3v-0.5l-2.6,0.4c-0.9,0.1-1.7,0.4-2.2,0.7c-0.5,0.3-0.8,0.7-0.8,1.3c0,0.2,0,0.3,0.1,0.5
		c0.1,0.2,0.2,0.3,0.4,0.5c0.2,0.1,0.4,0.3,0.6,0.4C163.7,185.9,164,186,164.4,186z"/>
	<path d="M177,187.7c-0.2,0-0.3-0.1-0.4-0.2s-0.2-0.2-0.2-0.4l-4.4-10.2c0,0,0-0.1,0-0.2c0-0.1,0.1-0.3,0.2-0.4s0.2-0.2,0.4-0.2h0.8
		c0.2,0,0.4,0.1,0.5,0.2c0.1,0.1,0.2,0.2,0.2,0.4l3.4,8l3.4-8c0-0.1,0.1-0.2,0.2-0.4s0.2-0.2,0.4-0.2h0.9c0.1,0,0.3,0.1,0.4,0.2
		s0.2,0.2,0.2,0.4c0,0.1,0,0.1,0,0.2l-4.4,10.2c-0.1,0.1-0.1,0.3-0.2,0.4c-0.1,0.1-0.2,0.2-0.4,0.2H177z"/>
	<path d="M184.2,180.8c0.1-0.7,0.2-1.3,0.5-1.9c0.3-0.6,0.6-1.1,1-1.5c0.4-0.4,0.9-0.8,1.5-1c0.6-0.2,1.3-0.4,2-0.4
		c0.8,0,1.5,0.1,2.1,0.4c0.6,0.3,1.2,0.6,1.6,1.1c0.4,0.5,0.8,1.1,1,1.8c0.2,0.7,0.4,1.5,0.4,2.3v0.6c0,0.2-0.1,0.3-0.2,0.4
		c-0.1,0.1-0.3,0.2-0.4,0.2h-7.6v0.1c0,1,0.3,1.8,0.9,2.3s1.3,0.8,2.2,0.8c0.8,0,1.4-0.1,1.8-0.3c0.4-0.2,0.7-0.5,1-0.8
		c0.1-0.1,0.2-0.2,0.3-0.2c0.1,0,0.2-0.1,0.4-0.1h0.7c0.2,0,0.3,0.1,0.4,0.2c0.1,0.1,0.2,0.3,0.2,0.4c0,0.3-0.2,0.6-0.4,0.9
		s-0.5,0.6-0.9,0.9c-0.4,0.3-0.9,0.5-1.5,0.7c-0.6,0.2-1.3,0.3-2,0.3c-0.7,0-1.4-0.1-2-0.4c-0.6-0.3-1.1-0.6-1.5-1.1s-0.8-1-1-1.6
		c-0.3-0.6-0.4-1.3-0.5-2C184.1,182.2,184.1,181.5,184.2,180.8z M186.2,180.9h6.2v-0.1c0-0.9-0.3-1.6-0.8-2.1s-1.3-0.8-2.3-0.8
		c-0.4,0-0.8,0.1-1.2,0.2c-0.4,0.1-0.7,0.3-1,0.6s-0.5,0.6-0.7,0.9C186.3,180,186.2,180.4,186.2,180.9L186.2,180.9z"/>
	<path d="M202.8,176.2c0.2,0,0.3,0.1,0.4,0.2s0.2,0.3,0.2,0.4v0.7c0,0.2-0.1,0.3-0.2,0.4s-0.3,0.2-0.4,0.2h-1.3
		c-1.7,0-2.5,0.8-2.5,2.5v6.4c0,0.2-0.1,0.3-0.2,0.4c-0.1,0.1-0.3,0.2-0.4,0.2h-0.8c-0.2,0-0.3-0.1-0.4-0.2s-0.2-0.3-0.2-0.4v-10.3
		c0-0.2,0.1-0.3,0.2-0.4s0.3-0.2,0.4-0.2h0.8c0.2,0,0.3,0.1,0.4,0.2c0.1,0.1,0.2,0.3,0.2,0.4v0.7c0.3-0.4,0.6-0.8,1.1-1
		c0.4-0.2,0.9-0.3,1.6-0.3H202.8z"/>
	<path d="M204.3,184.8c0-0.6,0.1-1.1,0.4-1.5c0.2-0.4,0.6-0.8,1-1.1c0.4-0.3,0.9-0.6,1.4-0.7s1.1-0.3,1.7-0.4l3.1-0.5v-0.3
		c0-0.7-0.2-1.3-0.7-1.7c-0.5-0.4-1.1-0.6-1.8-0.6c-0.6,0-1.1,0.1-1.5,0.4s-0.6,0.5-0.8,0.8c-0.1,0.1-0.2,0.2-0.3,0.2
		s-0.2,0.1-0.4,0.1h-0.7c-0.2,0-0.3-0.1-0.4-0.2c-0.1-0.1-0.2-0.3-0.2-0.4c0-0.3,0.2-0.7,0.4-1c0.2-0.3,0.5-0.6,0.9-0.9
		c0.4-0.3,0.8-0.5,1.3-0.6c0.5-0.2,1-0.3,1.6-0.3c0.7,0,1.3,0.1,1.8,0.3c0.6,0.2,1,0.5,1.5,0.8c0.4,0.4,0.7,0.8,0.9,1.4
		s0.3,1.2,0.3,1.9v6.7c0,0.2-0.1,0.3-0.2,0.4s-0.3,0.2-0.4,0.2h-0.8c-0.2,0-0.3-0.1-0.4-0.2c-0.1-0.1-0.2-0.3-0.2-0.4v-0.9
		c-0.1,0.3-0.3,0.5-0.6,0.7c-0.3,0.2-0.6,0.4-1,0.5s-0.7,0.3-1.1,0.3c-0.4,0.1-0.8,0.1-1.1,0.1c-0.6,0-1.1-0.1-1.6-0.2
		c-0.5-0.2-0.9-0.4-1.2-0.6s-0.6-0.6-0.8-1C204.4,185.6,204.3,185.2,204.3,184.8z M208.4,186c0.5,0,1-0.1,1.5-0.2
		c0.4-0.2,0.8-0.4,1.1-0.7s0.6-0.6,0.7-1c0.2-0.4,0.3-0.8,0.3-1.3v-0.5l-2.6,0.4c-0.9,0.1-1.7,0.4-2.2,0.7c-0.5,0.3-0.8,0.7-0.8,1.3
		c0,0.2,0,0.3,0.1,0.5c0.1,0.2,0.2,0.3,0.4,0.5c0.2,0.1,0.4,0.3,0.6,0.4S208,186,208.4,186z"/>
	<path d="M216.6,181.2c0-0.8,0.2-1.5,0.5-2.2c0.3-0.6,0.6-1.2,1.1-1.6c0.4-0.4,1-0.8,1.6-1s1.2-0.4,1.9-0.4c0.9,0,1.6,0.2,2.2,0.5
		s1,0.7,1.2,1v-0.7c0-0.2,0.1-0.3,0.2-0.4s0.3-0.2,0.4-0.2h0.8c0.2,0,0.3,0.1,0.4,0.2c0.1,0.1,0.2,0.3,0.2,0.4v10.7
		c0,1.5-0.4,2.7-1.3,3.6c-0.9,0.9-2.2,1.4-3.9,1.4c-0.9,0-1.6-0.1-2.3-0.3c-0.6-0.2-1.1-0.5-1.5-0.8c-0.4-0.3-0.7-0.7-0.9-1
		c-0.2-0.4-0.3-0.7-0.3-1.1c0-0.2,0-0.3,0.2-0.4c0.1-0.1,0.3-0.2,0.4-0.2h0.7c0.2,0,0.3,0,0.4,0.1c0.1,0.1,0.2,0.2,0.3,0.5
		c0,0.1,0.1,0.2,0.2,0.4c0.1,0.2,0.3,0.3,0.5,0.5c0.2,0.2,0.5,0.3,0.8,0.4c0.3,0.1,0.8,0.2,1.3,0.2c0.5,0,0.9,0,1.4-0.1
		c0.4-0.1,0.8-0.3,1.1-0.5c0.3-0.2,0.5-0.5,0.7-0.9c0.2-0.4,0.3-0.8,0.3-1.3v-1.4c-0.3,0.4-0.7,0.7-1.3,1c-0.5,0.3-1.3,0.5-2.2,0.5
		c-0.7,0-1.3-0.1-1.9-0.4c-0.6-0.2-1.1-0.6-1.6-1c-0.4-0.4-0.8-1-1.1-1.6c-0.3-0.6-0.4-1.4-0.5-2.2c0-0.2,0-0.5,0-0.7
		C216.6,181.7,216.6,181.4,216.6,181.2z M225,181.1c0-1-0.4-1.8-0.9-2.4c-0.6-0.6-1.3-0.8-2.3-0.8c-1,0-1.7,0.3-2.3,0.9
		s-0.9,1.5-0.9,2.5c0,0.4,0,0.8,0,1.2c0.1,1.1,0.4,1.9,0.9,2.5c0.6,0.6,1.3,0.9,2.3,0.9c0.9,0,1.7-0.3,2.3-0.9
		c0.6-0.6,0.9-1.4,0.9-2.4c0-0.2,0-0.5,0-0.8C225,181.6,225,181.4,225,181.1z"/>
	<path d="M235.1,180.8c0.1-0.7,0.2-1.3,0.5-1.9c0.3-0.6,0.6-1.1,1-1.5s0.9-0.8,1.5-1c0.6-0.2,1.3-0.4,2-0.4c0.8,0,1.5,0.1,2.1,0.4
		c0.6,0.3,1.2,0.6,1.6,1.1c0.4,0.5,0.8,1.1,1,1.8c0.2,0.7,0.4,1.5,0.4,2.3v0.6c0,0.2-0.1,0.3-0.2,0.4s-0.3,0.2-0.4,0.2h-7.6v0.1
		c0,1,0.3,1.8,0.9,2.3c0.6,0.5,1.3,0.8,2.2,0.8c0.8,0,1.4-0.1,1.8-0.3s0.7-0.5,1-0.8c0.1-0.1,0.2-0.2,0.3-0.2s0.2-0.1,0.4-0.1h0.7
		c0.2,0,0.3,0.1,0.4,0.2c0.1,0.1,0.2,0.3,0.2,0.4c0,0.3-0.2,0.6-0.4,0.9c-0.2,0.3-0.5,0.6-0.9,0.9c-0.4,0.3-0.9,0.5-1.5,0.7
		c-0.6,0.2-1.3,0.3-2,0.3c-0.7,0-1.4-0.1-2-0.4s-1.1-0.6-1.5-1.1s-0.8-1-1-1.6c-0.3-0.6-0.4-1.3-0.5-2
		C235.1,182.2,235.1,181.5,235.1,180.8z M237.1,180.9h6.2v-0.1c0-0.9-0.3-1.6-0.8-2.1c-0.6-0.5-1.3-0.8-2.3-0.8
		c-0.4,0-0.8,0.1-1.2,0.2c-0.4,0.1-0.7,0.3-1,0.6c-0.3,0.3-0.5,0.6-0.7,0.9C237.2,180,237.1,180.4,237.1,180.9L237.1,180.9z"/>
	<path d="M249.9,187.1c0,0.2-0.1,0.3-0.2,0.4s-0.3,0.2-0.4,0.2h-0.8c-0.2,0-0.3-0.1-0.4-0.2c-0.1-0.1-0.2-0.3-0.2-0.4v-14.4
		c0-0.2,0.1-0.3,0.2-0.4c0.1-0.1,0.3-0.2,0.4-0.2h0.8c0.2,0,0.3,0.1,0.4,0.2c0.1,0.1,0.2,0.3,0.2,0.4V187.1z"/>
	<path d="M252.7,180.8c0.1-0.7,0.2-1.3,0.5-1.9c0.3-0.6,0.6-1.1,1-1.5s0.9-0.8,1.5-1c0.6-0.2,1.3-0.4,2-0.4c0.8,0,1.5,0.1,2.1,0.4
		c0.6,0.3,1.2,0.6,1.6,1.1c0.4,0.5,0.8,1.1,1,1.8c0.2,0.7,0.4,1.5,0.4,2.3v0.6c0,0.2-0.1,0.3-0.2,0.4s-0.3,0.2-0.4,0.2h-7.6v0.1
		c0,1,0.3,1.8,0.9,2.3c0.6,0.5,1.3,0.8,2.2,0.8c0.8,0,1.4-0.1,1.8-0.3s0.7-0.5,1-0.8c0.1-0.1,0.2-0.2,0.3-0.2s0.2-0.1,0.4-0.1h0.7
		c0.2,0,0.3,0.1,0.4,0.2c0.1,0.1,0.2,0.3,0.2,0.4c0,0.3-0.2,0.6-0.4,0.9c-0.2,0.3-0.5,0.6-0.9,0.9c-0.4,0.3-0.9,0.5-1.5,0.7
		c-0.6,0.2-1.3,0.3-2,0.3c-0.7,0-1.4-0.1-2-0.4s-1.1-0.6-1.5-1.1s-0.8-1-1-1.6c-0.3-0.6-0.4-1.3-0.5-2
		C252.6,182.2,252.6,181.5,252.7,180.8z M254.7,180.9h6.2v-0.1c0-0.9-0.3-1.6-0.8-2.1c-0.6-0.5-1.3-0.8-2.3-0.8
		c-0.4,0-0.8,0.1-1.2,0.2c-0.4,0.1-0.7,0.3-1,0.6c-0.3,0.3-0.5,0.6-0.7,0.9C254.8,180,254.7,180.4,254.7,180.9L254.7,180.9z"/>
	<path d="M267,182.7c0.1,0.6,0.2,1.1,0.4,1.5c0.2,0.4,0.4,0.7,0.7,1c0.3,0.3,0.6,0.5,1,0.6c0.4,0.1,0.7,0.2,1.1,0.2
		c0.7,0,1.3-0.1,1.8-0.4c0.5-0.3,0.9-0.7,1.2-1.3c0.1-0.2,0.2-0.4,0.3-0.5c0.1-0.1,0.2-0.1,0.4-0.1h0.7c0.2,0,0.3,0.1,0.4,0.2
		c0.1,0.1,0.2,0.3,0.2,0.4c0,0.4-0.1,0.7-0.3,1.2c-0.2,0.4-0.5,0.8-0.9,1.2c-0.4,0.4-0.9,0.7-1.5,0.9c-0.6,0.3-1.3,0.4-2.1,0.4
		s-1.5-0.1-2.1-0.4c-0.6-0.3-1.2-0.6-1.6-1.1c-0.4-0.5-0.8-1-1-1.6c-0.2-0.6-0.4-1.3-0.4-2c0-0.2,0-0.5,0-0.9c0-0.3,0-0.6,0-0.9
		c0.1-0.7,0.2-1.4,0.5-2c0.2-0.6,0.6-1.2,1-1.6c0.4-0.5,0.9-0.8,1.6-1.1c0.6-0.3,1.3-0.4,2.1-0.4s1.5,0.1,2.1,0.4
		c0.6,0.3,1.1,0.6,1.5,0.9s0.7,0.7,0.9,1.2c0.2,0.4,0.3,0.8,0.3,1.2c0,0.2,0,0.3-0.2,0.4c-0.1,0.1-0.3,0.2-0.4,0.2h-0.7
		c-0.2,0-0.3,0-0.4-0.1c-0.1-0.1-0.2-0.2-0.3-0.5c-0.3-0.6-0.7-1.1-1.2-1.3c-0.5-0.3-1.1-0.4-1.8-0.4c-0.4,0-0.7,0.1-1.1,0.2
		c-0.4,0.1-0.7,0.3-1,0.6s-0.5,0.6-0.7,1c-0.2,0.4-0.3,0.9-0.4,1.5C266.9,181.7,266.9,182.2,267,182.7z"/>
	<path d="M280.7,183.8c0,0.3,0,0.5,0.1,0.8c0.1,0.2,0.1,0.5,0.3,0.6c0.1,0.2,0.3,0.3,0.6,0.4c0.2,0.1,0.6,0.1,0.9,0.1h1.2
		c0.2,0,0.3,0.1,0.4,0.2c0.1,0.1,0.2,0.3,0.2,0.4v0.7c0,0.2-0.1,0.3-0.2,0.4c-0.1,0.1-0.3,0.2-0.4,0.2h-1.4c-1.3,0-2.2-0.3-2.8-1
		c-0.6-0.7-0.9-1.6-0.9-2.9v-5.7h-1.6c-0.2,0-0.3-0.1-0.4-0.2s-0.2-0.3-0.2-0.4v-0.7c0-0.2,0.1-0.3,0.2-0.4s0.3-0.2,0.4-0.2h1.6
		v-3.6c0-0.2,0.1-0.3,0.2-0.4c0.1-0.1,0.3-0.2,0.4-0.2h0.8c0.2,0,0.3,0.1,0.4,0.2c0.1,0.1,0.2,0.3,0.2,0.4v3.6h2.8
		c0.2,0,0.3,0.1,0.4,0.2s0.2,0.3,0.2,0.4v0.7c0,0.2-0.1,0.3-0.2,0.4s-0.3,0.2-0.4,0.2h-2.8V183.8z"/>
	<path d="M292.3,176.2c0.2,0,0.3,0.1,0.4,0.2c0.1,0.1,0.2,0.3,0.2,0.4v0.7c0,0.2-0.1,0.3-0.2,0.4c-0.1,0.1-0.3,0.2-0.4,0.2H291
		c-1.7,0-2.5,0.8-2.5,2.5v6.4c0,0.2-0.1,0.3-0.2,0.4s-0.3,0.2-0.4,0.2h-0.8c-0.2,0-0.3-0.1-0.4-0.2c-0.1-0.1-0.2-0.3-0.2-0.4v-10.3
		c0-0.2,0.1-0.3,0.2-0.4c0.1-0.1,0.3-0.2,0.4-0.2h0.8c0.2,0,0.3,0.1,0.4,0.2s0.2,0.3,0.2,0.4v0.7c0.3-0.4,0.6-0.8,1.1-1
		c0.4-0.2,0.9-0.3,1.6-0.3H292.3z"/>
	<path d="M297,173.9c0,0.2-0.1,0.3-0.2,0.4c-0.1,0.1-0.3,0.2-0.4,0.2h-1.3c-0.2,0-0.3-0.1-0.4-0.2c-0.1-0.1-0.2-0.3-0.2-0.4v-1.3
		c0-0.2,0.1-0.3,0.2-0.4c0.1-0.1,0.3-0.2,0.4-0.2h1.3c0.2,0,0.3,0.1,0.4,0.2c0.1,0.1,0.2,0.3,0.2,0.4V173.9z M296.8,187.1
		c0,0.2-0.1,0.3-0.2,0.4c-0.1,0.1-0.3,0.2-0.4,0.2h-0.8c-0.2,0-0.3-0.1-0.4-0.2s-0.2-0.3-0.2-0.4v-10.3c0-0.2,0.1-0.3,0.2-0.4
		s0.3-0.2,0.4-0.2h0.8c0.2,0,0.3,0.1,0.4,0.2c0.1,0.1,0.2,0.3,0.2,0.4V187.1z"/>
	<path d="M301.6,182.7c0.1,0.6,0.2,1.1,0.4,1.5c0.2,0.4,0.4,0.7,0.7,1c0.3,0.3,0.6,0.5,1,0.6c0.4,0.1,0.7,0.2,1.1,0.2
		c0.7,0,1.3-0.1,1.8-0.4c0.5-0.3,0.9-0.7,1.2-1.3c0.1-0.2,0.2-0.4,0.3-0.5c0.1-0.1,0.2-0.1,0.4-0.1h0.7c0.2,0,0.3,0.1,0.4,0.2
		c0.1,0.1,0.2,0.3,0.2,0.4c0,0.4-0.1,0.7-0.3,1.2s-0.5,0.8-0.9,1.2c-0.4,0.4-0.9,0.7-1.5,0.9c-0.6,0.3-1.3,0.4-2.1,0.4
		s-1.5-0.1-2.1-0.4c-0.6-0.3-1.2-0.6-1.6-1.1c-0.4-0.5-0.8-1-1-1.6c-0.2-0.6-0.4-1.3-0.4-2c0-0.2,0-0.5,0-0.9c0-0.3,0-0.6,0-0.9
		c0.1-0.7,0.2-1.4,0.5-2s0.6-1.2,1-1.6c0.4-0.5,0.9-0.8,1.6-1.1c0.6-0.3,1.3-0.4,2.1-0.4s1.5,0.1,2.1,0.4c0.6,0.3,1.1,0.6,1.5,0.9
		s0.7,0.7,0.9,1.2s0.3,0.8,0.3,1.2c0,0.2,0,0.3-0.2,0.4c-0.1,0.1-0.3,0.2-0.4,0.2h-0.7c-0.2,0-0.3,0-0.4-0.1
		c-0.1-0.1-0.2-0.2-0.3-0.5c-0.3-0.6-0.7-1.1-1.2-1.3c-0.5-0.3-1.1-0.4-1.8-0.4c-0.4,0-0.7,0.1-1.1,0.2c-0.4,0.1-0.7,0.3-1,0.6
		s-0.5,0.6-0.7,1c-0.2,0.4-0.3,0.9-0.4,1.5C301.5,181.7,301.5,182.2,301.6,182.7z"/>
	<path d="M317.6,176.8c0-0.2,0.1-0.3,0.2-0.4s0.3-0.2,0.4-0.2h0.8c0.2,0,0.3,0.1,0.4,0.2c0.1,0.1,0.2,0.3,0.2,0.4v5.8
		c0,1.1,0.3,2,0.8,2.5s1.2,0.8,2.2,0.8c0.9,0,1.7-0.3,2.2-0.8c0.5-0.6,0.8-1.4,0.8-2.5v-5.8c0-0.2,0.1-0.3,0.2-0.4
		c0.1-0.1,0.3-0.2,0.4-0.2h0.8c0.2,0,0.3,0.1,0.4,0.2s0.2,0.3,0.2,0.4v10.3c0,0.2-0.1,0.3-0.2,0.4s-0.3,0.2-0.4,0.2h-0.8
		c-0.2,0-0.3-0.1-0.4-0.2c-0.1-0.1-0.2-0.3-0.2-0.4v-0.7c-0.3,0.4-0.7,0.7-1.2,1c-0.5,0.3-1.2,0.5-2.1,0.5c-0.7,0-1.3-0.1-1.9-0.3
		c-0.6-0.2-1.1-0.5-1.5-1c-0.4-0.4-0.7-0.9-0.9-1.5c-0.2-0.6-0.3-1.3-0.3-2.1V176.8z"/>
	<path d="M337.3,184.5c0-0.3-0.1-0.5-0.2-0.7c-0.2-0.2-0.4-0.3-0.7-0.5c-0.3-0.1-0.7-0.3-1.2-0.4s-1-0.2-1.7-0.4
		c-1.2-0.2-2-0.7-2.5-1.2c-0.5-0.6-0.7-1.3-0.7-2c0-0.4,0.1-0.9,0.3-1.3c0.2-0.4,0.4-0.7,0.8-1.1c0.4-0.3,0.8-0.5,1.3-0.7
		c0.5-0.2,1.2-0.3,1.9-0.3c0.7,0,1.3,0.1,1.9,0.2c0.5,0.2,1,0.4,1.4,0.6c0.4,0.2,0.6,0.5,0.8,0.8s0.3,0.6,0.3,0.8
		c0,0.2,0,0.3-0.2,0.4c-0.1,0.1-0.3,0.2-0.4,0.2h-0.7c-0.1,0-0.2,0-0.3-0.1c-0.1,0-0.2-0.1-0.3-0.3c-0.2-0.3-0.5-0.5-0.8-0.6
		c-0.4-0.2-0.9-0.3-1.6-0.3c-0.7,0-1.2,0.1-1.6,0.4c-0.4,0.2-0.6,0.6-0.6,1c0,0.3,0.1,0.5,0.2,0.7c0.1,0.2,0.3,0.3,0.6,0.4
		c0.3,0.1,0.6,0.2,1,0.3s1,0.2,1.6,0.4c0.7,0.1,1.2,0.3,1.7,0.6c0.5,0.2,0.8,0.5,1.1,0.8s0.5,0.6,0.6,0.9s0.2,0.7,0.2,1.1
		c0,0.4-0.1,0.9-0.3,1.3c-0.2,0.4-0.5,0.8-0.9,1.1c-0.4,0.3-0.9,0.6-1.4,0.7c-0.6,0.2-1.2,0.3-1.9,0.3s-1.4-0.1-1.9-0.3
		s-1-0.4-1.4-0.6c-0.4-0.3-0.7-0.5-0.9-0.8c-0.2-0.3-0.3-0.6-0.3-0.8c0-0.2,0-0.3,0.2-0.4c0.1-0.1,0.3-0.2,0.4-0.2h0.8
		c0.1,0,0.2,0,0.3,0c0.1,0,0.2,0.1,0.3,0.3c0.2,0.3,0.6,0.6,1,0.7c0.4,0.2,0.9,0.3,1.6,0.3c0.3,0,0.6,0,1-0.1
		c0.3-0.1,0.6-0.2,0.8-0.3c0.2-0.1,0.4-0.3,0.6-0.5C337.3,184.9,337.3,184.7,337.3,184.5z"/>
	<path d="M341.4,180.8c0.1-0.7,0.2-1.3,0.5-1.9c0.3-0.6,0.6-1.1,1-1.5s0.9-0.8,1.5-1c0.6-0.2,1.3-0.4,2-0.4c0.8,0,1.5,0.1,2.1,0.4
		c0.6,0.3,1.2,0.6,1.6,1.1c0.4,0.5,0.8,1.1,1,1.8c0.2,0.7,0.4,1.5,0.4,2.3v0.6c0,0.2-0.1,0.3-0.2,0.4s-0.3,0.2-0.4,0.2h-7.6v0.1
		c0,1,0.3,1.8,0.9,2.3c0.6,0.5,1.3,0.8,2.2,0.8c0.8,0,1.4-0.1,1.8-0.3s0.7-0.5,1-0.8c0.1-0.1,0.2-0.2,0.3-0.2s0.2-0.1,0.4-0.1h0.7
		c0.2,0,0.3,0.1,0.4,0.2c0.1,0.1,0.2,0.3,0.2,0.4c0,0.3-0.2,0.6-0.4,0.9c-0.2,0.3-0.5,0.6-0.9,0.9c-0.4,0.3-0.9,0.5-1.5,0.7
		c-0.6,0.2-1.3,0.3-2,0.3c-0.7,0-1.4-0.1-2-0.4s-1.1-0.6-1.5-1.1s-0.8-1-1-1.6c-0.3-0.6-0.4-1.3-0.5-2
		C341.4,182.2,341.4,181.5,341.4,180.8z M343.4,180.9h6.2v-0.1c0-0.9-0.3-1.6-0.8-2.1c-0.6-0.5-1.3-0.8-2.3-0.8
		c-0.4,0-0.8,0.1-1.2,0.2c-0.4,0.1-0.7,0.3-1,0.6c-0.3,0.3-0.5,0.6-0.7,0.9C343.5,180,343.4,180.4,343.4,180.9L343.4,180.9z"/>
	<path d="M354,185.9c0-0.2,0.1-0.4,0.3-0.6c0.2-0.2,0.4-0.3,0.7-0.3h1.3c0.1,0,0.2,0,0.3,0.1c0.1,0.1,0.1,0.2,0.1,0.3
		c0,0.1,0,0.1,0,0.2l-1.1,3c-0.1,0.1-0.2,0.3-0.3,0.5c-0.1,0.2-0.4,0.2-0.6,0.2h-0.5c-0.1,0-0.2,0-0.3-0.1s-0.1-0.2-0.1-0.3v0
		L354,185.9z"/>
	<path d="M84.4,202.4c0.8,0,1.5,0.1,2.1,0.4c0.6,0.2,1.1,0.6,1.6,1c0.4,0.4,0.8,0.9,1,1.6c0.3,0.6,0.4,1.3,0.5,2c0,0.1,0,0.3,0,0.5
		c0,0.2,0,0.4,0,0.6s0,0.4,0,0.6s0,0.3,0,0.5c-0.1,0.7-0.2,1.4-0.5,2s-0.6,1.1-1,1.5c-0.4,0.4-1,0.8-1.6,1c-0.6,0.2-1.3,0.4-2.1,0.4
		s-1.5-0.1-2.1-0.4c-0.6-0.2-1.1-0.6-1.6-1c-0.4-0.4-0.8-0.9-1-1.5c-0.3-0.6-0.4-1.3-0.5-2c0-0.1,0-0.3,0-0.5s0-0.4,0-0.6
		s0-0.4,0-0.6c0-0.2,0-0.3,0-0.5c0.1-0.7,0.2-1.4,0.5-2c0.3-0.6,0.6-1.1,1-1.6s1-0.8,1.6-1C82.9,202.5,83.6,202.4,84.4,202.4z
		 M87.6,209.3c0-0.2,0-0.6,0-0.9s0-0.7,0-0.9c0-0.4-0.1-0.9-0.3-1.2c-0.1-0.4-0.4-0.7-0.6-1c-0.3-0.3-0.6-0.5-1-0.7
		c-0.4-0.2-0.8-0.2-1.3-0.2c-0.5,0-1,0.1-1.3,0.2c-0.4,0.2-0.7,0.4-1,0.7c-0.3,0.3-0.5,0.6-0.6,1c-0.1,0.4-0.2,0.8-0.3,1.2
		c0,0.3,0,0.6,0,0.9s0,0.7,0,0.9c0,0.4,0.1,0.9,0.3,1.2c0.1,0.4,0.4,0.7,0.6,1c0.3,0.3,0.6,0.5,1,0.7c0.4,0.2,0.8,0.2,1.3,0.2
		c0.5,0,1-0.1,1.3-0.2c0.4-0.2,0.7-0.4,1-0.7c0.3-0.3,0.5-0.6,0.6-1C87.5,210.1,87.6,209.7,87.6,209.3z"/>
	<path d="M102.6,213.5c0,0.2-0.1,0.3-0.2,0.4c-0.1,0.1-0.3,0.2-0.4,0.2h-0.8c-0.2,0-0.3-0.1-0.4-0.2s-0.2-0.3-0.2-0.4v-5.8
		c0-1.1-0.3-2-0.8-2.5c-0.5-0.6-1.3-0.8-2.3-0.8c-0.9,0-1.7,0.3-2.2,0.8c-0.6,0.6-0.8,1.4-0.8,2.5v5.8c0,0.2-0.1,0.3-0.2,0.4
		c-0.1,0.1-0.3,0.2-0.4,0.2H93c-0.2,0-0.3-0.1-0.4-0.2c-0.1-0.1-0.2-0.3-0.2-0.4v-10.3c0-0.2,0.1-0.3,0.2-0.4
		c0.1-0.1,0.3-0.2,0.4-0.2h0.8c0.2,0,0.3,0.1,0.4,0.2c0.1,0.1,0.2,0.3,0.2,0.4v0.7c0.3-0.4,0.7-0.7,1.2-1s1.3-0.5,2.2-0.5
		c0.7,0,1.3,0.1,1.9,0.3c0.6,0.2,1.1,0.6,1.5,1s0.7,0.9,1,1.6c0.2,0.6,0.4,1.3,0.4,2.1V213.5z"/>
	<path d="M105.2,207.2c0.1-0.7,0.2-1.3,0.5-1.9s0.6-1.1,1-1.5c0.4-0.4,0.9-0.8,1.5-1c0.6-0.2,1.3-0.4,2-0.4c0.8,0,1.5,0.1,2.1,0.4
		c0.6,0.3,1.2,0.6,1.6,1.1s0.8,1.1,1,1.8c0.2,0.7,0.4,1.5,0.4,2.3v0.6c0,0.2-0.1,0.3-0.2,0.4c-0.1,0.1-0.3,0.2-0.4,0.2h-7.6v0.1
		c0,1,0.3,1.8,0.9,2.3c0.6,0.5,1.3,0.8,2.2,0.8c0.8,0,1.4-0.1,1.8-0.3c0.4-0.2,0.7-0.5,1-0.8c0.1-0.1,0.2-0.2,0.3-0.2
		c0.1,0,0.2-0.1,0.4-0.1h0.7c0.2,0,0.3,0.1,0.4,0.2c0.1,0.1,0.2,0.3,0.2,0.4c0,0.3-0.2,0.6-0.4,0.9c-0.2,0.3-0.5,0.6-0.9,0.9
		c-0.4,0.3-0.9,0.5-1.5,0.7c-0.6,0.2-1.3,0.3-2,0.3c-0.7,0-1.4-0.1-2-0.4c-0.6-0.3-1.1-0.6-1.5-1.1s-0.8-1-1-1.6s-0.4-1.3-0.5-2
		C105.2,208.6,105.2,207.9,105.2,207.2z M107.2,207.3h6.2v-0.1c0-0.9-0.3-1.6-0.8-2.1c-0.6-0.5-1.3-0.8-2.3-0.8
		c-0.4,0-0.8,0.1-1.2,0.2c-0.4,0.1-0.7,0.3-1,0.6c-0.3,0.3-0.5,0.6-0.7,0.9C107.3,206.4,107.2,206.8,107.2,207.3L107.2,207.3z"/>
	<path d="M128.8,214.3c-0.9,0-1.6-0.2-2.2-0.5s-1-0.7-1.2-1v4.9c0,0.2-0.1,0.3-0.2,0.4c-0.1,0.1-0.3,0.2-0.4,0.2H124
		c-0.2,0-0.3-0.1-0.4-0.2c-0.1-0.1-0.2-0.3-0.2-0.4v-14.4c0-0.2,0.1-0.3,0.2-0.4c0.1-0.1,0.3-0.2,0.4-0.2h0.8c0.2,0,0.3,0.1,0.4,0.2
		c0.1,0.1,0.2,0.3,0.2,0.4v0.7c0.3-0.4,0.7-0.7,1.3-1s1.3-0.5,2.2-0.5c0.7,0,1.3,0.1,1.9,0.4c0.6,0.2,1.1,0.6,1.6,1
		c0.4,0.5,0.8,1,1.1,1.7c0.3,0.6,0.4,1.4,0.5,2.2c0,0.2,0,0.5,0,0.7s0,0.5,0,0.7c0,0.8-0.2,1.5-0.5,2.2c-0.3,0.6-0.6,1.2-1.1,1.6
		s-1,0.8-1.6,1C130.1,214.2,129.5,214.3,128.8,214.3z M125.4,207.4c0,0.2,0,0.5,0,0.9s0,0.6,0,0.9c0,1,0.4,1.8,0.9,2.4
		c0.6,0.6,1.3,0.8,2.3,0.8c1,0,1.7-0.3,2.3-0.9c0.6-0.6,0.9-1.5,0.9-2.5c0-0.4,0-0.8,0-1.2c-0.1-1.1-0.4-1.9-0.9-2.5
		c-0.6-0.6-1.3-0.9-2.3-0.9c-0.9,0-1.7,0.3-2.2,0.8C125.7,205.7,125.4,206.4,125.4,207.4z"/>
	<path d="M136,207.2c0.1-0.7,0.2-1.3,0.5-1.9s0.6-1.1,1-1.5c0.4-0.4,0.9-0.8,1.5-1c0.6-0.2,1.3-0.4,2-0.4c0.8,0,1.5,0.1,2.1,0.4
		c0.6,0.3,1.2,0.6,1.6,1.1s0.8,1.1,1,1.8c0.2,0.7,0.4,1.5,0.4,2.3v0.6c0,0.2-0.1,0.3-0.2,0.4c-0.1,0.1-0.3,0.2-0.4,0.2H138v0.1
		c0,1,0.3,1.8,0.9,2.3c0.6,0.5,1.3,0.8,2.2,0.8c0.8,0,1.4-0.1,1.8-0.3c0.4-0.2,0.7-0.5,1-0.8c0.1-0.1,0.2-0.2,0.3-0.2
		c0.1,0,0.2-0.1,0.4-0.1h0.7c0.2,0,0.3,0.1,0.4,0.2c0.1,0.1,0.2,0.3,0.2,0.4c0,0.3-0.2,0.6-0.4,0.9c-0.2,0.3-0.5,0.6-0.9,0.9
		c-0.4,0.3-0.9,0.5-1.5,0.7c-0.6,0.2-1.3,0.3-2,0.3c-0.7,0-1.4-0.1-2-0.4c-0.6-0.3-1.1-0.6-1.5-1.1s-0.8-1-1-1.6s-0.4-1.3-0.5-2
		C135.9,208.6,135.9,207.9,136,207.2z M138,207.3h6.2v-0.1c0-0.9-0.3-1.6-0.8-2.1c-0.6-0.5-1.3-0.8-2.3-0.8c-0.4,0-0.8,0.1-1.2,0.2
		c-0.4,0.1-0.7,0.3-1,0.6c-0.3,0.3-0.5,0.6-0.7,0.9C138.1,206.4,138,206.8,138,207.3L138,207.3z"/>
	<path d="M154.6,202.6c0.2,0,0.3,0.1,0.4,0.2c0.1,0.1,0.2,0.3,0.2,0.4v0.7c0,0.2-0.1,0.3-0.2,0.4c-0.1,0.1-0.3,0.2-0.4,0.2h-1.3
		c-1.7,0-2.5,0.8-2.5,2.5v6.4c0,0.2-0.1,0.3-0.2,0.4c-0.1,0.1-0.3,0.2-0.4,0.2h-0.8c-0.2,0-0.3-0.1-0.4-0.2
		c-0.1-0.1-0.2-0.3-0.2-0.4v-10.3c0-0.2,0.1-0.3,0.2-0.4c0.1-0.1,0.3-0.2,0.4-0.2h0.8c0.2,0,0.3,0.1,0.4,0.2
		c0.1,0.1,0.2,0.3,0.2,0.4v0.7c0.3-0.4,0.6-0.8,1.1-1s0.9-0.3,1.6-0.3H154.6z"/>
	<path d="M163.6,210.9c0-0.3-0.1-0.5-0.2-0.7c-0.2-0.2-0.4-0.3-0.7-0.5c-0.3-0.1-0.7-0.3-1.2-0.4s-1-0.2-1.7-0.4
		c-1.2-0.2-2-0.7-2.5-1.2c-0.5-0.6-0.7-1.3-0.7-2c0-0.4,0.1-0.9,0.3-1.3c0.2-0.4,0.4-0.7,0.8-1.1s0.8-0.5,1.3-0.7
		c0.5-0.2,1.2-0.3,1.9-0.3c0.7,0,1.3,0.1,1.9,0.2c0.5,0.2,1,0.4,1.4,0.6c0.4,0.2,0.6,0.5,0.8,0.8s0.3,0.6,0.3,0.8
		c0,0.2,0,0.3-0.2,0.4c-0.1,0.1-0.3,0.2-0.4,0.2H164c-0.1,0-0.2,0-0.3-0.1c-0.1,0-0.2-0.1-0.3-0.3c-0.2-0.3-0.5-0.5-0.8-0.6
		c-0.4-0.2-0.9-0.3-1.6-0.3c-0.7,0-1.2,0.1-1.6,0.4c-0.4,0.2-0.6,0.6-0.6,1c0,0.3,0.1,0.5,0.2,0.7c0.1,0.2,0.3,0.3,0.6,0.4
		c0.3,0.1,0.6,0.2,1,0.3s1,0.2,1.6,0.4c0.7,0.1,1.2,0.3,1.7,0.6c0.5,0.2,0.8,0.5,1.1,0.8s0.5,0.6,0.6,0.9s0.2,0.7,0.2,1.1
		c0,0.4-0.1,0.9-0.3,1.3c-0.2,0.4-0.5,0.8-0.9,1.1c-0.4,0.3-0.9,0.6-1.4,0.7c-0.6,0.2-1.2,0.3-1.9,0.3s-1.4-0.1-1.9-0.3
		s-1-0.4-1.4-0.6c-0.4-0.3-0.7-0.5-0.9-0.8c-0.2-0.3-0.3-0.6-0.3-0.8c0-0.2,0-0.3,0.2-0.4c0.1-0.1,0.3-0.2,0.4-0.2h0.8
		c0.1,0,0.2,0,0.3,0c0.1,0,0.2,0.1,0.3,0.3c0.2,0.3,0.6,0.6,1,0.7c0.4,0.2,0.9,0.3,1.6,0.3c0.3,0,0.6,0,1-0.1
		c0.3-0.1,0.6-0.2,0.8-0.3c0.2-0.1,0.4-0.3,0.6-0.5C163.5,211.3,163.6,211.1,163.6,210.9z"/>
	<path d="M172.9,202.4c0.8,0,1.5,0.1,2.1,0.4s1.1,0.6,1.6,1s0.8,0.9,1,1.6c0.3,0.6,0.4,1.3,0.5,2c0,0.1,0,0.3,0,0.5
		c0,0.2,0,0.4,0,0.6s0,0.4,0,0.6s0,0.3,0,0.5c-0.1,0.7-0.2,1.4-0.5,2c-0.3,0.6-0.6,1.1-1,1.5c-0.4,0.4-1,0.8-1.6,1
		c-0.6,0.2-1.3,0.4-2.1,0.4s-1.5-0.1-2.1-0.4c-0.6-0.2-1.1-0.6-1.6-1c-0.4-0.4-0.8-0.9-1-1.5c-0.3-0.6-0.4-1.3-0.5-2
		c0-0.1,0-0.3,0-0.5c0-0.2,0-0.4,0-0.6s0-0.4,0-0.6c0-0.2,0-0.3,0-0.5c0.1-0.7,0.2-1.4,0.5-2c0.3-0.6,0.6-1.1,1-1.6
		c0.4-0.4,1-0.8,1.6-1C171.4,202.5,172.1,202.4,172.9,202.4z M176.1,209.3c0-0.2,0-0.6,0-0.9s0-0.7,0-0.9c0-0.4-0.1-0.9-0.3-1.2
		c-0.1-0.4-0.4-0.7-0.6-1c-0.3-0.3-0.6-0.5-1-0.7c-0.4-0.2-0.8-0.2-1.3-0.2s-1,0.1-1.3,0.2c-0.4,0.2-0.7,0.4-1,0.7
		c-0.3,0.3-0.5,0.6-0.6,1c-0.1,0.4-0.2,0.8-0.3,1.2c0,0.3,0,0.6,0,0.9s0,0.7,0,0.9c0,0.4,0.1,0.9,0.3,1.2c0.1,0.4,0.4,0.7,0.6,1
		c0.3,0.3,0.6,0.5,1,0.7c0.4,0.2,0.8,0.2,1.3,0.2s1-0.1,1.3-0.2c0.4-0.2,0.7-0.4,1-0.7c0.3-0.3,0.5-0.6,0.6-1
		C176,210.1,176.1,209.7,176.1,209.3z"/>
	<path d="M191.1,213.5c0,0.2-0.1,0.3-0.2,0.4s-0.3,0.2-0.4,0.2h-0.8c-0.2,0-0.3-0.1-0.4-0.2s-0.2-0.3-0.2-0.4v-5.8
		c0-1.1-0.3-2-0.8-2.5c-0.5-0.6-1.3-0.8-2.3-0.8c-0.9,0-1.7,0.3-2.2,0.8c-0.6,0.6-0.8,1.4-0.8,2.5v5.8c0,0.2-0.1,0.3-0.2,0.4
		s-0.3,0.2-0.4,0.2h-0.8c-0.2,0-0.3-0.1-0.4-0.2c-0.1-0.1-0.2-0.3-0.2-0.4v-10.3c0-0.2,0.1-0.3,0.2-0.4c0.1-0.1,0.3-0.2,0.4-0.2h0.8
		c0.2,0,0.3,0.1,0.4,0.2s0.2,0.3,0.2,0.4v0.7c0.3-0.4,0.7-0.7,1.2-1s1.3-0.5,2.2-0.5c0.7,0,1.3,0.1,1.9,0.3c0.6,0.2,1.1,0.6,1.5,1
		s0.7,0.9,1,1.6c0.2,0.6,0.4,1.3,0.4,2.1V213.5z"/>
	<path d="M201.1,209.1c0.1,0.6,0.2,1.1,0.4,1.5c0.2,0.4,0.4,0.7,0.7,1c0.3,0.3,0.6,0.5,1,0.6c0.4,0.1,0.7,0.2,1.1,0.2
		c0.7,0,1.3-0.1,1.8-0.4c0.5-0.3,0.9-0.7,1.2-1.3c0.1-0.2,0.2-0.4,0.3-0.5c0.1-0.1,0.2-0.1,0.4-0.1h0.7c0.2,0,0.3,0.1,0.4,0.2
		c0.1,0.1,0.2,0.3,0.2,0.4c0,0.4-0.1,0.7-0.3,1.2c-0.2,0.4-0.5,0.8-0.9,1.2c-0.4,0.4-0.9,0.7-1.5,0.9c-0.6,0.3-1.3,0.4-2.1,0.4
		s-1.5-0.1-2.1-0.4c-0.6-0.3-1.2-0.6-1.6-1.1c-0.4-0.5-0.8-1-1-1.6c-0.2-0.6-0.4-1.3-0.4-2c0-0.2,0-0.5,0-0.9c0-0.3,0-0.6,0-0.9
		c0.1-0.7,0.2-1.4,0.5-2c0.2-0.6,0.6-1.2,1-1.6c0.4-0.5,0.9-0.8,1.6-1.1c0.6-0.3,1.3-0.4,2.1-0.4s1.5,0.1,2.1,0.4
		c0.6,0.3,1.1,0.6,1.5,0.9s0.7,0.7,0.9,1.2c0.2,0.4,0.3,0.8,0.3,1.2c0,0.2,0,0.3-0.2,0.4c-0.1,0.1-0.3,0.2-0.4,0.2H208
		c-0.2,0-0.3,0-0.4-0.1c-0.1-0.1-0.2-0.2-0.3-0.5c-0.3-0.6-0.7-1.1-1.2-1.3c-0.5-0.3-1.1-0.4-1.8-0.4c-0.4,0-0.7,0.1-1.1,0.2
		c-0.4,0.1-0.7,0.3-1,0.6s-0.5,0.6-0.7,1c-0.2,0.4-0.3,0.9-0.4,1.5C201.1,208.1,201.1,208.6,201.1,209.1z"/>
	<path d="M211,211.2c0-0.6,0.1-1.1,0.4-1.5c0.2-0.4,0.6-0.8,1-1.1c0.4-0.3,0.9-0.6,1.4-0.7c0.5-0.2,1.1-0.3,1.7-0.4l3.1-0.5v-0.3
		c0-0.7-0.2-1.3-0.7-1.7s-1.1-0.6-1.8-0.6c-0.6,0-1.1,0.1-1.5,0.4s-0.6,0.5-0.8,0.8c-0.1,0.1-0.2,0.2-0.3,0.2s-0.2,0.1-0.4,0.1h-0.7
		c-0.2,0-0.3-0.1-0.4-0.2c-0.1-0.1-0.2-0.3-0.2-0.4c0-0.3,0.2-0.7,0.4-1c0.2-0.3,0.5-0.6,0.9-0.9c0.4-0.3,0.8-0.5,1.3-0.6
		c0.5-0.2,1-0.3,1.6-0.3c0.7,0,1.3,0.1,1.8,0.3s1,0.5,1.5,0.8c0.4,0.4,0.7,0.8,0.9,1.4s0.3,1.2,0.3,1.9v6.7c0,0.2-0.1,0.3-0.2,0.4
		c-0.1,0.1-0.3,0.2-0.4,0.2h-0.8c-0.2,0-0.3-0.1-0.4-0.2s-0.2-0.3-0.2-0.4v-0.9c-0.1,0.3-0.3,0.5-0.6,0.7s-0.6,0.4-1,0.5
		s-0.7,0.3-1.1,0.3c-0.4,0.1-0.8,0.1-1.1,0.1c-0.6,0-1.1-0.1-1.6-0.2c-0.5-0.2-0.9-0.4-1.2-0.6s-0.6-0.6-0.8-1
		C211.1,212,211,211.6,211,211.2z M215.1,212.4c0.5,0,1-0.1,1.5-0.2c0.4-0.2,0.8-0.4,1.1-0.7c0.3-0.3,0.6-0.6,0.7-1
		c0.2-0.4,0.3-0.8,0.3-1.3v-0.5l-2.6,0.4c-0.9,0.1-1.7,0.4-2.2,0.7c-0.5,0.3-0.8,0.7-0.8,1.3c0,0.2,0,0.3,0.1,0.5
		c0.1,0.2,0.2,0.3,0.4,0.5c0.2,0.1,0.4,0.3,0.6,0.4C214.4,212.3,214.7,212.4,215.1,212.4z"/>
	<path d="M234,213.5c0,0.2-0.1,0.3-0.2,0.4s-0.3,0.2-0.4,0.2h-0.8c-0.2,0-0.3-0.1-0.4-0.2s-0.2-0.3-0.2-0.4v-5.8
		c0-1.1-0.3-2-0.8-2.5c-0.5-0.6-1.3-0.8-2.3-0.8c-0.9,0-1.7,0.3-2.2,0.8c-0.6,0.6-0.8,1.4-0.8,2.5v5.8c0,0.2-0.1,0.3-0.2,0.4
		s-0.3,0.2-0.4,0.2h-0.8c-0.2,0-0.3-0.1-0.4-0.2c-0.1-0.1-0.2-0.3-0.2-0.4v-10.3c0-0.2,0.1-0.3,0.2-0.4c0.1-0.1,0.3-0.2,0.4-0.2h0.8
		c0.2,0,0.3,0.1,0.4,0.2s0.2,0.3,0.2,0.4v0.7c0.3-0.4,0.7-0.7,1.2-1s1.3-0.5,2.2-0.5c0.7,0,1.3,0.1,1.9,0.3c0.6,0.2,1.1,0.6,1.5,1
		s0.7,0.9,1,1.6c0.2,0.6,0.4,1.3,0.4,2.1V213.5z"/>
</g>
</svg>
