<svg xmlns="http://www.w3.org/2000/svg" xmlns:xlink="http://www.w3.org/1999/xlink" viewBox="0 0 635.63 197.68"><defs><style>.cls-1,.cls-2,.cls-3,.cls-5{stroke:#fff;}.cls-1,.cls-2,.cls-3,.cls-4,.cls-5{stroke-miterlimit:10;}.cls-1{fill:url(#linear-gradient);}.cls-2{fill:#1e8c7f;stroke-width:0.05px;}.cls-3,.cls-4{fill:none;}.cls-3{stroke-width:1.1px;}.cls-4{stroke:#000;stroke-width:1.21px;}.cls-5{fill:#4d66c1;stroke-width:0.02px;}.cls-6{font-size:24px;font-family:Rubik-Regular, Rubik;}.cls-7{letter-spacing:-0.03em;}.cls-8{letter-spacing:-0.01em;}.cls-9{letter-spacing:-0.01em;}.cls-10{letter-spacing:-0.02em;}.cls-11{letter-spacing:0em;}.cls-12{letter-spacing:-0.01em;}.cls-13{letter-spacing:-0.02em;}</style><linearGradient id="linear-gradient" x1="316.69" y1="49.23" x2="316.69" y2="136.86" gradientUnits="userSpaceOnUse"><stop offset="0" stop-color="#ffeb86" stop-opacity="0.96"/><stop offset="0.22" stop-color="#ffe681" stop-opacity="0.96"/><stop offset="0.48" stop-color="#ffd771" stop-opacity="0.97"/><stop offset="0.75" stop-color="#ffbe58" stop-opacity="0.98"/><stop offset="1" stop-color="#ffa23a"/></linearGradient></defs><title>lamp_eletricity</title><g id="Layer_2" data-name="Layer 2"><g id="Layer_2-2" data-name="Layer 2"><g id="lamp"><path class="cls-1" d="M349.44,82a32.75,32.75,0,1,0-57.38,21.58l2.59,3.69a51.7,51.7,0,0,1,8.92,22.57l1,7h24l1.59-10.36a39.72,39.72,0,0,1,6.94-17l3.95-5.54A32.6,32.6,0,0,0,349.44,82Z"/><path class="cls-2" d="M327.61,148.08h.3a2.73,2.73,0,1,0,0-5.45H305.77a2.73,2.73,0,1,0,0,5.45h-.3a2.73,2.73,0,0,0,0,5.46H309a2.73,2.73,0,0,0,1.5,5h12.74a2.73,2.73,0,0,0,1.5-5h2.9a2.73,2.73,0,0,0,0-5.46Z"/><path class="cls-3" d="M302.93,85.34a6,6,0,0,0,.18,5.43c2.66,4,7.08,6,13,5.76,7.88-.3,15.16-2.42,14.86-9.4-.16-3.65-3.94-6.67-7.58-2.12-1.95,2.44-2.43,47-2.43,47h-7.88l-2.06-45.24A3.83,3.83,0,0,0,309.72,84C308.05,82.62,305.08,81.07,302.93,85.34Z"/><line class="cls-4" x1="316.79" y1="158.55" x2="316.79" y2="191.3"/><path class="cls-5" d="M317.18,197.66h-1a1.1,1.1,0,0,1-1.09-1.29L316,191h1.56l.72,5.42A1.11,1.11,0,0,1,317.18,197.66Z"/></g><text class="cls-6" transform="translate(0 20.4)">B<tspan class="cls-7" x="16.01" y="0">y</tspan><tspan x="28.73" y="0"> </tspan><tspan class="cls-8" x="34.58" y="0">r</tspan><tspan x="43.39" y="0">educing 30% </tspan><tspan class="cls-9" x="193.8" y="0">o</tspan><tspan class="cls-10" x="207.45" y="0">f</tspan><tspan class="cls-11" x="216.26" y="0"> </tspan><tspan class="cls-12" x="222.12" y="0">a</tspan><tspan class="cls-13" x="234.88" y="0">v</tspan><tspan x="247.84" y="0">e</tspan><tspan class="cls-9" x="261.21" y="0">r</tspan><tspan x="270.09" y="0">age electric use, one person can </tspan></text></g></g></svg>