<svg xmlns="http://www.w3.org/2000/svg" xmlns:xlink="http://www.w3.org/1999/xlink" viewBox="0 0 296.66 166.3"><defs><style>.cls-1{stroke:#fff;stroke-miterlimit:10;stroke-width:0.82px;fill:url(#linear-gradient);}.cls-2{fill:url(#linear-gradient-2);}</style><linearGradient id="linear-gradient" x1="161.54" y1="38.26" x2="83.19" y2="173.97" gradientUnits="userSpaceOnUse"><stop offset="0" stop-color="#87e9cd"/><stop offset="0.12" stop-color="#88dfcc"/><stop offset="0.31" stop-color="#8ac4ca"/><stop offset="0.57" stop-color="#8e99c5"/><stop offset="0.86" stop-color="#935dc0"/><stop offset="1" stop-color="#9540bd"/></linearGradient><linearGradient id="linear-gradient-2" x1="228.57" y1="73.69" x2="228.57" y2="144.98" gradientUnits="userSpaceOnUse"><stop offset="0" stop-color="#ffeb86" stop-opacity="0.96"/><stop offset="0.1" stop-color="#ffe37d" stop-opacity="0.96"/><stop offset="0.7" stop-color="#ffb44d" stop-opacity="0.99"/><stop offset="1" stop-color="#ffa23a"/></linearGradient></defs><title>money</title><g id="Layer_2" data-name="Layer 2"><g id="Layer_2-2" data-name="Layer 2"><g id="money"><path class="cls-1" d="M121,72.11l1,2.31a21.51,21.51,0,0,1,5.67-.17l.88,3.86a15.94,15.94,0,0,0-5.15-.08l-.62.15c-3.1.82-2.11,3.78.66,4.49,4.56,1.06,10,1.39,12.14,6.17,1.72,3.86-.28,6.5-3.62,7.78l1,2.31-2.17.45-1-2.2a17,17,0,0,1-7.22-.27L122,93a19.24,19.24,0,0,0,6.27.21l1.25-.41c2.22-1.1,1.54-3.89-1.77-4.55-2.45-.55-9-.14-11.4-5.56-1.37-3.06-.35-6.25,3.58-7.71l-1.08-2.42,2.18-.45M146.53,82.9c-4.73-11-17.93-18.39-29.49-16.47S100,78.85,104.67,89.88c5,11.62,19.31,19.07,31.1,16.14C146.22,103.42,151,93.4,146.53,82.9Zm27.08-37.68,25.18,55.05c-36.33,28.24-84.61-.25-120,29.83l-25.19-55C86.63,43.1,132.3,72,173.61,45.22Zm25.45,80.34c-45.85,26.33-82.91-9.53-130.39,40L38.58,99,48,89.18l25.46,56.17,0,.06c49.79-37.39,74.86-7.86,121.09-30.5C196.45,119.24,198.26,123.8,199.06,125.56Z"/><path class="cls-2" d="M228.57,100.42c15.88,0,29.71-6,29.71-13.36s-13.83-13.37-29.71-13.37-29.7,6-29.7,13.37S212.7,100.42,228.57,100.42Zm.56-11.94c-1.78-.53-7.22-1-7.22-4,0-1.68,2-3.19,5.7-3.52V79.63h1.91v1.25a27.24,27.24,0,0,1,4.66.54l-.7,2a19.16,19.16,0,0,0-4.2-.59h-.44c-2.85.12-3.09,1.7-1.1,2.37,3.24,1,7.52,1.74,7.52,4.39,0,2.12-2.58,3.26-5.75,3.54v1.31h-1.9V93.25a19.25,19.25,0,0,1-5.72-.91l.87-2a21,21,0,0,0,4.92.75,8.32,8.32,0,0,0,1.24-.09C231.11,90.66,231.55,89.19,229.13,88.48Zm-.56,47.59c11.24,0,22.9-2.88,29.71-8.33v3.87c0,7.39-13.83,13.37-29.71,13.37s-29.7-6-29.7-13.37v-3.87C205.67,133.19,217.33,136.07,228.57,136.07Zm0-29.71c11.24,0,22.9-2.87,29.71-8.32v3.87c0,7.38-13.83,13.37-29.71,13.37s-29.7-6-29.7-13.37V98C205.67,103.49,217.33,106.36,228.57,106.36Zm0,14.86c11.24,0,22.9-2.88,29.71-8.33v3.87c0,7.38-13.83,13.37-29.71,13.37s-29.7-6-29.7-13.37v-3.87C205.67,118.34,217.33,121.22,228.57,121.22Z"/></g><path d="M7.85,15.74A1.11,1.11,0,0,0,7.6,15a2.07,2.07,0,0,0-.76-.52,8.85,8.85,0,0,0-1.28-.41c-.52-.12-1.13-.26-1.81-.4A4.74,4.74,0,0,1,1,12.3,3.49,3.49,0,0,1,.53,8.71,3.28,3.28,0,0,1,1.4,7.56a4,4,0,0,1,1.45-.79A6.58,6.58,0,0,1,4.9,6.48,7.35,7.35,0,0,1,7,6.74a5.34,5.34,0,0,1,1.48.68,3.31,3.31,0,0,1,.91.87,1.72,1.72,0,0,1,.33.9.52.52,0,0,1-.18.46A.63.63,0,0,1,9,9.84h-.8a1.22,1.22,0,0,1-.34-.06.7.7,0,0,1-.37-.28,2.34,2.34,0,0,0-.93-.68A4.27,4.27,0,0,0,4.9,8.54,3.49,3.49,0,0,0,3.11,9a1.35,1.35,0,0,0-.49,1.86,1.43,1.43,0,0,0,.62.48,5.65,5.65,0,0,0,1.14.37l1.77.41A8.25,8.25,0,0,1,8,12.68a4.38,4.38,0,0,1,1.2.84,2.75,2.75,0,0,1,.65,1A3.56,3.56,0,0,1,10,15.74a3,3,0,0,1-.34,1.4,3.7,3.7,0,0,1-1,1.17,5.29,5.29,0,0,1-1.57.82,6.53,6.53,0,0,1-2.1.31,7,7,0,0,1-2.09-.29,6.27,6.27,0,0,1-1.56-.71,3.71,3.71,0,0,1-1-.91A1.84,1.84,0,0,1,0,16.61a.57.57,0,0,1,.17-.46A.65.65,0,0,1,.65,16h.87a1.47,1.47,0,0,1,.33,0,.56.56,0,0,1,.36.27,2.51,2.51,0,0,0,1.06.82A4.49,4.49,0,0,0,5,17.38a4.55,4.55,0,0,0,1-.12A3.83,3.83,0,0,0,7,16.92a2,2,0,0,0,.63-.52A1,1,0,0,0,7.85,15.74Z"/><path d="M12,16.06a3.47,3.47,0,0,1,.39-1.68,3.63,3.63,0,0,1,1-1.23A5.67,5.67,0,0,1,15,12.34a11.35,11.35,0,0,1,1.91-.48l3.39-.56V11a2.14,2.14,0,0,0-.81-1.83,3.18,3.18,0,0,0-2-.62,2.72,2.72,0,0,0-1.6.39,3.79,3.79,0,0,0-.92.91.73.73,0,0,1-.31.26,1.19,1.19,0,0,1-.46.08h-.72A.67.67,0,0,1,13,10a.55.55,0,0,1-.18-.45,2.29,2.29,0,0,1,.42-1.08,3.81,3.81,0,0,1,1-1,6,6,0,0,1,1.46-.7,5.43,5.43,0,0,1,1.77-.28,6.12,6.12,0,0,1,2,.31,4.44,4.44,0,0,1,1.59.91,4.19,4.19,0,0,1,1,1.49,5.19,5.19,0,0,1,.37,2v7.32a.65.65,0,0,1-.65.65H21A.61.61,0,0,1,20.5,19a.62.62,0,0,1-.19-.46v-1a2.23,2.23,0,0,1-.68.8,4.54,4.54,0,0,1-1,.59,6.34,6.34,0,0,1-1.22.36,6.48,6.48,0,0,1-1.19.12,5.49,5.49,0,0,1-1.72-.26,4.36,4.36,0,0,1-1.32-.71,3.12,3.12,0,0,1-.84-1.07A3.06,3.06,0,0,1,12,16.06Zm4.42,1.32A4.48,4.48,0,0,0,18,17.11a3.73,3.73,0,0,0,1.24-.73A3.08,3.08,0,0,0,20,15.26a3.7,3.7,0,0,0,.28-1.44v-.6l-2.84.46a7,7,0,0,0-2.4.77,1.56,1.56,0,0,0-.88,1.37,1.23,1.23,0,0,0,.12.52,1.48,1.48,0,0,0,.38.51,1.86,1.86,0,0,0,.68.38A3.15,3.15,0,0,0,16.42,17.38Z"/><path d="M30.15,19.2a.59.59,0,0,1-.48-.19,2.07,2.07,0,0,1-.27-.41L24.63,7.46a.38.38,0,0,1,0-.16.58.58,0,0,1,.58-.58h.89a.7.7,0,0,1,.54.19,1.22,1.22,0,0,1,.25.39L30.58,16,34.3,7.3a1.37,1.37,0,0,1,.24-.39A.55.55,0,0,1,35,6.72h1a.58.58,0,0,1,.58.58.38.38,0,0,1,0,.16L31.76,18.6a2,2,0,0,1-.26.41.56.56,0,0,1-.47.19Z"/><path d="M38,11.76a6.38,6.38,0,0,1,.53-2.06A5.77,5.77,0,0,1,39.7,8a4.88,4.88,0,0,1,1.67-1.13,5.59,5.59,0,0,1,2.17-.41,6.11,6.11,0,0,1,2.32.42A4.92,4.92,0,0,1,47.6,8.11,5.65,5.65,0,0,1,48.7,10a7.94,7.94,0,0,1,.38,2.52v.65a.62.62,0,0,1-.19.46.65.65,0,0,1-.45.19H40.18V14a3.22,3.22,0,0,0,3.36,3.39,4.1,4.1,0,0,0,2-.38,4,4,0,0,0,1.07-.82,1.4,1.4,0,0,1,.33-.27,1,1,0,0,1,.44-.07h.71a.72.72,0,0,1,.49.19.48.48,0,0,1,.16.46,2.49,2.49,0,0,1-.4,1,3.74,3.74,0,0,1-1,1,6,6,0,0,1-1.58.74,7.36,7.36,0,0,1-2.22.3A5.34,5.34,0,0,1,41.38,19a5.14,5.14,0,0,1-1.67-1.15,5.91,5.91,0,0,1-1.14-1.73A6.91,6.91,0,0,1,38,14,10.21,10.21,0,0,1,38,11.76Zm2.14.07h6.74v-.07A3.08,3.08,0,0,0,46,9.42a3.46,3.46,0,0,0-2.46-.88,3.66,3.66,0,0,0-1.3.23,3.15,3.15,0,0,0-1.05.65,2.86,2.86,0,0,0-.72,1,3.36,3.36,0,0,0-.29,1.32Z"/><path d="M59.09,15.74a1.11,1.11,0,0,0-.25-.75,2.07,2.07,0,0,0-.76-.52,8.85,8.85,0,0,0-1.28-.41c-.52-.12-1.13-.26-1.81-.4a4.74,4.74,0,0,1-2.73-1.36,3.49,3.49,0,0,1-.49-3.59,3.28,3.28,0,0,1,.87-1.15,4,4,0,0,1,1.45-.79,6.63,6.63,0,0,1,2-.29,7.35,7.35,0,0,1,2,.26,5.21,5.21,0,0,1,1.48.68,3.31,3.31,0,0,1,.91.87,1.72,1.72,0,0,1,.33.9.52.52,0,0,1-.18.46.63.63,0,0,1-.46.19h-.79a1.22,1.22,0,0,1-.35-.06.7.7,0,0,1-.37-.28,2.34,2.34,0,0,0-.93-.68,4.27,4.27,0,0,0-1.69-.28A3.49,3.49,0,0,0,54.35,9a1.27,1.27,0,0,0-.68,1.13,1.24,1.24,0,0,0,.19.73,1.43,1.43,0,0,0,.62.48,5.65,5.65,0,0,0,1.14.37l1.77.41a8.25,8.25,0,0,1,1.84.61,4.6,4.6,0,0,1,1.21.84,2.85,2.85,0,0,1,.64,1,3.57,3.57,0,0,1,.2,1.18,3.06,3.06,0,0,1-.35,1.4,3.7,3.7,0,0,1-1,1.17,5.17,5.17,0,0,1-1.57.82,6.53,6.53,0,0,1-2.1.31,7,7,0,0,1-2.09-.29,6.27,6.27,0,0,1-1.56-.71,3.71,3.71,0,0,1-1-.91,1.84,1.84,0,0,1-.37-.92.57.57,0,0,1,.17-.46.65.65,0,0,1,.48-.19h.87a1.47,1.47,0,0,1,.33,0,.56.56,0,0,1,.36.27,2.51,2.51,0,0,0,1.06.82,4.49,4.49,0,0,0,1.75.29,4.55,4.55,0,0,0,1-.12,3.83,3.83,0,0,0,.92-.34,2,2,0,0,0,.63-.52A1,1,0,0,0,59.09,15.74Z"/><path d="M69.1,16.06a3.59,3.59,0,0,1,.38-1.68,3.78,3.78,0,0,1,1.06-1.23,5.67,5.67,0,0,1,1.57-.81A11.35,11.35,0,0,1,74,11.86l3.38-.56V11a2.16,2.16,0,0,0-.8-1.83,3.23,3.23,0,0,0-2-.62A2.7,2.7,0,0,0,73,8.93a4,4,0,0,0-.93.91.68.68,0,0,1-.31.26,1.1,1.1,0,0,1-.45.08h-.72a.65.65,0,0,1-.47-.2.5.5,0,0,1-.18-.45,2.29,2.29,0,0,1,.42-1.08,3.67,3.67,0,0,1,1-1,6,6,0,0,1,1.46-.7,5.37,5.37,0,0,1,1.76-.28,6.23,6.23,0,0,1,2,.31,4.49,4.49,0,0,1,1.58.91,4.06,4.06,0,0,1,1,1.49,5.19,5.19,0,0,1,.38,2v7.32a.63.63,0,0,1-.2.46.6.6,0,0,1-.45.19h-.89a.62.62,0,0,1-.46-.19.66.66,0,0,1-.19-.46v-1a2.19,2.19,0,0,1-.67.8,4.54,4.54,0,0,1-1,.59,6.73,6.73,0,0,1-2.42.48,5.48,5.48,0,0,1-1.71-.26,4.36,4.36,0,0,1-1.32-.71,3.12,3.12,0,0,1-.84-1.07A3.06,3.06,0,0,1,69.1,16.06Zm4.41,1.32a4.5,4.5,0,0,0,1.59-.27,3.59,3.59,0,0,0,1.23-.73,3.11,3.11,0,0,0,.8-1.12,3.7,3.7,0,0,0,.27-1.44v-.6l-2.83.46a6.84,6.84,0,0,0-2.4.77,1.57,1.57,0,0,0-.89,1.37,1.23,1.23,0,0,0,.12.52,1.51,1.51,0,0,0,.39.51,1.78,1.78,0,0,0,.68.38A3.13,3.13,0,0,0,73.51,17.38Z"/><path d="M94.18,18.55A.66.66,0,0,1,94,19a.62.62,0,0,1-.46.19h-.89a.6.6,0,0,1-.45-.19.63.63,0,0,1-.2-.46V12.22a3.8,3.8,0,0,0-.88-2.76,3.74,3.74,0,0,0-4.91,0,3.68,3.68,0,0,0-.92,2.76v6.33a.63.63,0,0,1-.2.46.61.61,0,0,1-.45.19h-.89a.65.65,0,0,1-.65-.65V7.37a.65.65,0,0,1,.65-.65h.89a.61.61,0,0,1,.45.19.63.63,0,0,1,.2.46v.74A4.31,4.31,0,0,1,86.63,7,4.66,4.66,0,0,1,89,6.48a5.67,5.67,0,0,1,2.09.37,4.73,4.73,0,0,1,1.65,1.06A4.68,4.68,0,0,1,93.79,9.6a6.19,6.19,0,0,1,.39,2.26Z"/><path d="M102.63,16.06a3.47,3.47,0,0,1,.38-1.68,3.78,3.78,0,0,1,1.06-1.23,5.54,5.54,0,0,1,1.57-.81,11.12,11.12,0,0,1,1.91-.48l3.38-.56V11a2.16,2.16,0,0,0-.8-1.83,3.23,3.23,0,0,0-2-.62,2.7,2.7,0,0,0-1.59.39,4,4,0,0,0-.93.91.68.68,0,0,1-.31.26,1.12,1.12,0,0,1-.46.08h-.72a.65.65,0,0,1-.46-.2.5.5,0,0,1-.18-.45,2.29,2.29,0,0,1,.42-1.08,3.63,3.63,0,0,1,1-1,6.25,6.25,0,0,1,1.47-.7,5.37,5.37,0,0,1,1.76-.28,6.23,6.23,0,0,1,2,.31,4.49,4.49,0,0,1,1.58.91,4.19,4.19,0,0,1,1,1.49,5.19,5.19,0,0,1,.37,2v7.32a.62.62,0,0,1-.19.46.61.61,0,0,1-.45.19h-.89a.65.65,0,0,1-.65-.65v-1a2.19,2.19,0,0,1-.67.8,4.62,4.62,0,0,1-1.05.59,6.63,6.63,0,0,1-2.41.48,5.48,5.48,0,0,1-1.71-.26,4.36,4.36,0,0,1-1.32-.71,3.12,3.12,0,0,1-.84-1.07A3.06,3.06,0,0,1,102.63,16.06ZM107,17.38a4.5,4.5,0,0,0,1.59-.27,3.59,3.59,0,0,0,1.23-.73,3,3,0,0,0,.79-1.12,3.52,3.52,0,0,0,.28-1.44v-.6l-2.83.46a6.84,6.84,0,0,0-2.4.77,1.57,1.57,0,0,0-.89,1.37,1.23,1.23,0,0,0,.12.52,1.62,1.62,0,0,0,.38.51,1.9,1.9,0,0,0,.69.38A3.13,3.13,0,0,0,107,17.38Z"/><path d="M120.77,19.2a.59.59,0,0,1-.48-.19,1.66,1.66,0,0,1-.26-.41L115.25,7.46a.39.39,0,0,1,0-.16.56.56,0,0,1,.16-.41.58.58,0,0,1,.41-.17h.89a.7.7,0,0,1,.54.19,1.22,1.22,0,0,1,.25.39L121.2,16l3.72-8.71a1.37,1.37,0,0,1,.24-.39.58.58,0,0,1,.46-.19h1a.58.58,0,0,1,.58.58.38.38,0,0,1,0,.16L122.38,18.6a2.5,2.5,0,0,1-.25.41.57.57,0,0,1-.47.19Z"/><path d="M128.67,11.76a6.37,6.37,0,0,1,.52-2.06A6,6,0,0,1,130.32,8,5,5,0,0,1,132,6.89a5.59,5.59,0,0,1,2.17-.41,6,6,0,0,1,2.32.42,4.75,4.75,0,0,1,1.74,1.21,5.34,5.34,0,0,1,1.1,1.92,7.66,7.66,0,0,1,.39,2.52v.65a.63.63,0,0,1-.2.46.64.64,0,0,1-.45.19H130.8V14a3.22,3.22,0,0,0,3.36,3.39,4.1,4.1,0,0,0,2-.38,4,4,0,0,0,1.07-.82,1.41,1.41,0,0,1,.34-.27,1,1,0,0,1,.43-.07h.72a.72.72,0,0,1,.48.19.49.49,0,0,1,.17.46,2.7,2.7,0,0,1-.41,1,3.85,3.85,0,0,1-1,1,6.18,6.18,0,0,1-1.59.74,7.36,7.36,0,0,1-2.22.3A5.34,5.34,0,0,1,132,19a5.25,5.25,0,0,1-1.67-1.15,5.91,5.91,0,0,1-1.14-1.73,6.9,6.9,0,0,1-.52-2.17A10.21,10.21,0,0,1,128.67,11.76Zm2.13.07h6.75v-.07a3.05,3.05,0,0,0-.93-2.34,3.43,3.43,0,0,0-2.46-.88,3.65,3.65,0,0,0-1.29.23,3.19,3.19,0,0,0-1.06.65,3.14,3.14,0,0,0-.72,1,3.54,3.54,0,0,0-.29,1.32Z"/><path d="M149,6.72a.61.61,0,0,1,.45.19.62.62,0,0,1,.19.46v.77a.65.65,0,0,1-.64.64h-1.4a2.44,2.44,0,0,0-2.76,2.76v7a.62.62,0,0,1-.19.46.61.61,0,0,1-.45.19h-.89a.65.65,0,0,1-.65-.65V7.37a.65.65,0,0,1,.65-.65h.89a.61.61,0,0,1,.45.19.62.62,0,0,1,.19.46v.74a3,3,0,0,1,1.16-1,3.81,3.81,0,0,1,1.75-.34Z"/><path d="M150.6,16.06a3.59,3.59,0,0,1,.38-1.68A3.78,3.78,0,0,1,152,13.15a5.67,5.67,0,0,1,1.57-.81,11.35,11.35,0,0,1,1.91-.48l3.38-.56V11a2.13,2.13,0,0,0-.8-1.83,3.18,3.18,0,0,0-2-.62,2.72,2.72,0,0,0-1.6.39,3.79,3.79,0,0,0-.92.91.73.73,0,0,1-.31.26,1.19,1.19,0,0,1-.46.08h-.72a.67.67,0,0,1-.47-.2.53.53,0,0,1-.18-.45,2.29,2.29,0,0,1,.42-1.08,3.67,3.67,0,0,1,1-1,6,6,0,0,1,1.46-.7,5.43,5.43,0,0,1,1.77-.28,6.17,6.17,0,0,1,2,.31,4.53,4.53,0,0,1,1.59.91,4.32,4.32,0,0,1,1,1.49,5.38,5.38,0,0,1,.37,2v7.32a.65.65,0,0,1-.65.65h-.89a.61.61,0,0,1-.45-.19.63.63,0,0,1-.2-.46v-1a2.1,2.1,0,0,1-.67.8,4.54,4.54,0,0,1-1,.59,6.34,6.34,0,0,1-1.22.36,6.48,6.48,0,0,1-1.19.12,5.49,5.49,0,0,1-1.72-.26,4.36,4.36,0,0,1-1.32-.71,3.12,3.12,0,0,1-.84-1.07A3.06,3.06,0,0,1,150.6,16.06ZM155,17.38a4.48,4.48,0,0,0,1.58-.27,3.73,3.73,0,0,0,1.24-.73,3.21,3.21,0,0,0,.79-1.12,3.7,3.7,0,0,0,.27-1.44v-.6l-2.83.46a7,7,0,0,0-2.4.77,1.57,1.57,0,0,0-.89,1.37,1.23,1.23,0,0,0,.12.52,1.51,1.51,0,0,0,.39.51,1.78,1.78,0,0,0,.68.38A3.15,3.15,0,0,0,155,17.38Z"/><path d="M164,12.17a7.35,7.35,0,0,1,.51-2.38A5.57,5.57,0,0,1,165.65,8a5,5,0,0,1,1.69-1.12,5.42,5.42,0,0,1,2.1-.4,4.67,4.67,0,0,1,2.38.52,4.38,4.38,0,0,1,1.34,1.11V7.37a.66.66,0,0,1,.19-.46.62.62,0,0,1,.46-.19h.89a.6.6,0,0,1,.45.19.63.63,0,0,1,.2.46V19a5.5,5.5,0,0,1-1.42,4,5.62,5.62,0,0,1-4.25,1.48,7.71,7.71,0,0,1-2.46-.35,5.52,5.52,0,0,1-1.68-.87,3.56,3.56,0,0,1-1-1.14,2.86,2.86,0,0,1-.35-1.2.51.51,0,0,1,.18-.45.66.66,0,0,1,.47-.19h.72a.72.72,0,0,1,.44.13,1.28,1.28,0,0,1,.35.51,3.17,3.17,0,0,0,.23.39,1.81,1.81,0,0,0,.5.5,3.22,3.22,0,0,0,.91.43,4.84,4.84,0,0,0,1.43.18,6.92,6.92,0,0,0,1.48-.16,3.29,3.29,0,0,0,1.19-.52,2.47,2.47,0,0,0,.78-1,3.52,3.52,0,0,0,.27-1.46V17.81A4.17,4.17,0,0,1,171.79,19a4.8,4.8,0,0,1-2.35.49,5.42,5.42,0,0,1-2.1-.4,5,5,0,0,1-1.69-1.12,5.57,5.57,0,0,1-1.15-1.79,7.35,7.35,0,0,1-.51-2.38c0-.24,0-.5,0-.79S164,12.41,164,12.17Zm9.17-.07a3.74,3.74,0,0,0-1-2.63,3.36,3.36,0,0,0-2.46-.93,3.19,3.19,0,0,0-2.49,1,4.28,4.28,0,0,0-1,2.74c0,.45,0,.89,0,1.34a4.28,4.28,0,0,0,1,2.74,3.19,3.19,0,0,0,2.49,1,3.36,3.36,0,0,0,2.46-.94,3.77,3.77,0,0,0,1-2.62c0-.24,0-.52,0-.86S173.18,12.34,173.16,12.1Z"/><path d="M178.37,11.76a6.13,6.13,0,0,1,.53-2.06A5.77,5.77,0,0,1,180,8a4.94,4.94,0,0,1,1.66-1.13,5.63,5.63,0,0,1,2.17-.41,6,6,0,0,1,2.32.42,4.75,4.75,0,0,1,1.74,1.21A5.51,5.51,0,0,1,189,10a7.94,7.94,0,0,1,.38,2.52v.65a.62.62,0,0,1-.19.46.66.66,0,0,1-.46.19h-8.25V14a3.21,3.21,0,0,0,3.35,3.39,4.18,4.18,0,0,0,2-.38,4.14,4.14,0,0,0,1.06-.82,1.41,1.41,0,0,1,.34-.27,1,1,0,0,1,.43-.07h.72a.68.68,0,0,1,.48.19.47.47,0,0,1,.17.46,2.7,2.7,0,0,1-.41,1,3.69,3.69,0,0,1-1,1,6.11,6.11,0,0,1-1.58.74,7.48,7.48,0,0,1-2.23.3A5.4,5.4,0,0,1,181.7,19,5.2,5.2,0,0,1,180,17.87a5.91,5.91,0,0,1-1.14-1.73,6.65,6.65,0,0,1-.53-2.17A10.21,10.21,0,0,1,178.37,11.76Zm2.14.07h6.74v-.07a3.05,3.05,0,0,0-.93-2.34,3.43,3.43,0,0,0-2.46-.88,3.65,3.65,0,0,0-1.29.23,3.29,3.29,0,0,0-1.06.65,3.14,3.14,0,0,0-.72,1,3.54,3.54,0,0,0-.28,1.32Z"/><path d="M203.28,6.48a6.09,6.09,0,0,1,2.3.4A5,5,0,0,1,207.31,8a5,5,0,0,1,1.14,1.69,7.19,7.19,0,0,1,.52,2.17c0,.15,0,.32,0,.52V13.6c0,.2,0,.36,0,.49a7.66,7.66,0,0,1-.53,2.18A4.83,4.83,0,0,1,207.31,18,5,5,0,0,1,205.58,19a6.81,6.81,0,0,1-4.6,0,5,5,0,0,1-2.87-2.77,7,7,0,0,1-.52-2.18c0-.13,0-.29,0-.49s0-.41,0-.63,0-.42,0-.62,0-.37,0-.52a7.19,7.19,0,0,1,.52-2.17A5,5,0,0,1,199.25,8,5,5,0,0,1,201,6.88,6.13,6.13,0,0,1,203.28,6.48Zm3.5,7.49a7.23,7.23,0,0,0,.05-1,7.72,7.72,0,0,0-.05-1,4.77,4.77,0,0,0-.31-1.34,3.13,3.13,0,0,0-.67-1.08,2.93,2.93,0,0,0-1.06-.72,4.08,4.08,0,0,0-2.92,0,2.93,2.93,0,0,0-1.06.72,3.13,3.13,0,0,0-.67,1.08,4.77,4.77,0,0,0-.31,1.34,7.72,7.72,0,0,0-.05,1,7.23,7.23,0,0,0,.05,1,4.77,4.77,0,0,0,.31,1.34,3.13,3.13,0,0,0,.67,1.08,2.93,2.93,0,0,0,1.06.72,4.08,4.08,0,0,0,2.92,0,2.93,2.93,0,0,0,1.06-.72,3.13,3.13,0,0,0,.67-1.08A4.77,4.77,0,0,0,206.78,14Z"/><path d="M215.33,6.72h3a.61.61,0,0,1,.45.19.63.63,0,0,1,.2.46v.77a.62.62,0,0,1-.2.45.61.61,0,0,1-.45.19h-3v9.77a.65.65,0,0,1-.65.65h-.89a.6.6,0,0,1-.45-.19.62.62,0,0,1-.19-.46V8.78h-2a.62.62,0,0,1-.46-.19.61.61,0,0,1-.19-.45V7.37a.65.65,0,0,1,.65-.65h2V5.52a4.41,4.41,0,0,1,.93-3.06,3.93,3.93,0,0,1,3-1h1.51a.61.61,0,0,1,.45.19.63.63,0,0,1,.2.46v.77a.62.62,0,0,1-.2.45.61.61,0,0,1-.45.19h-1.27a3,3,0,0,0-1,.16,1.4,1.4,0,0,0-.61.44,1.88,1.88,0,0,0-.3.69,4.54,4.54,0,0,0-.08.85Z"/><path d="M233,2.26A6.28,6.28,0,0,1,236.64,4a4.86,4.86,0,0,1,1,1.29A3.22,3.22,0,0,1,238,6.5a.43.43,0,0,1-.14.38.58.58,0,0,1-.39.15h-1a.82.82,0,0,1-.42-.09,1.13,1.13,0,0,1-.33-.44,4.8,4.8,0,0,0-.39-.61,3.46,3.46,0,0,0-.75-.72,4.68,4.68,0,0,0-1.14-.6,4.33,4.33,0,0,0-1.56-.25,4.93,4.93,0,0,0-1.28.16,3.69,3.69,0,0,0-1.09.46,2.49,2.49,0,0,0-.77.78,2.1,2.1,0,0,0-.29,1.1,1.87,1.87,0,0,0,.28,1,2.39,2.39,0,0,0,.89.78,7.61,7.61,0,0,0,1.54.64c.63.19,1.39.41,2.28.65a14.16,14.16,0,0,1,2.32.79,6.15,6.15,0,0,1,1.55,1,3.22,3.22,0,0,1,.87,1.25,4.21,4.21,0,0,1,.28,1.59,4.44,4.44,0,0,1-.38,1.83,4.24,4.24,0,0,1-1.1,1.46,5.77,5.77,0,0,1-1.71,1,7.75,7.75,0,0,1-2.23.53V21a.63.63,0,0,1-.2.46.6.6,0,0,1-.45.19h-1a.61.61,0,0,1-.45-.19.62.62,0,0,1-.19-.46V19.34a7.08,7.08,0,0,1-2.09-.62A6.88,6.88,0,0,1,227,17.66a4.78,4.78,0,0,1-1.07-1.3,3.19,3.19,0,0,1-.41-1.38.51.51,0,0,1,.16-.38.51.51,0,0,1,.37-.15h1a.93.93,0,0,1,.42.09.9.9,0,0,1,.33.44,3.53,3.53,0,0,0,.44.73,3.45,3.45,0,0,0,.81.74,4.78,4.78,0,0,0,1.22.59,5.41,5.41,0,0,0,1.7.24,6.38,6.38,0,0,0,1.6-.19,4.7,4.7,0,0,0,1.33-.55,2.82,2.82,0,0,0,.91-.87,1.93,1.93,0,0,0,.34-1.13,1.58,1.58,0,0,0-.38-1.06,3.55,3.55,0,0,0-1.11-.81,10.56,10.56,0,0,0-1.76-.66q-1-.3-2.37-.63a9.39,9.39,0,0,1-2-.76,5.09,5.09,0,0,1-1.36-1,3.34,3.34,0,0,1-.76-1.27,4.92,4.92,0,0,1-.23-1.51,4.44,4.44,0,0,1,.29-1.56,4.38,4.38,0,0,1,.85-1.4,4.91,4.91,0,0,1,1.43-1,6.29,6.29,0,0,1,2-.58V.65a.62.62,0,0,1,.19-.46.61.61,0,0,1,.45-.19h1a.6.6,0,0,1,.45.19.63.63,0,0,1,.2.46Z"/><path d="M245.81,8a2.87,2.87,0,0,1,.42-.08,2.47,2.47,0,0,1,.44,0,6.72,6.72,0,0,1,2.49.45,5.86,5.86,0,0,1,2,1.22,5.45,5.45,0,0,1,1.3,1.84,5.57,5.57,0,0,1,.47,2.28,5.64,5.64,0,0,1-.47,2.28,5.51,5.51,0,0,1-1.3,1.83,6,6,0,0,1-2,1.23,7.24,7.24,0,0,1-5,0,6.09,6.09,0,0,1-2-1.23,5.81,5.81,0,0,1-1.3-1.83,5.63,5.63,0,0,1-.46-2.28,5.33,5.33,0,0,1,.15-1.3,6.57,6.57,0,0,1,.41-1.13,10.91,10.91,0,0,1,.56-1c.21-.32.42-.62.63-.91l4.37-6.43c.08-.08.16-.18.26-.3a.59.59,0,0,1,.48-.18h1.37a.43.43,0,0,1,.35.16.57.57,0,0,1,.13.37.36.36,0,0,1,0,.19.36.36,0,0,1-.08.12Zm-3.07,5.67A3.47,3.47,0,0,0,243,15a3.56,3.56,0,0,0,2,2,4.28,4.28,0,0,0,1.64.3,4.33,4.33,0,0,0,1.65-.3,3.79,3.79,0,0,0,1.23-.8,3.49,3.49,0,0,0,.78-1.16,3.31,3.31,0,0,0,.28-1.36,3.36,3.36,0,0,0-.28-1.37,3.45,3.45,0,0,0-.78-1.15,3.66,3.66,0,0,0-1.23-.81,4.33,4.33,0,0,0-1.65-.3,4.28,4.28,0,0,0-1.64.3,3.71,3.71,0,0,0-1.24.81,3.77,3.77,0,0,0-.78,1.15A3.52,3.52,0,0,0,242.74,13.66Z"/><path d="M262.44,10.37a4.91,4.91,0,0,0,1.08-1.32,3.7,3.7,0,0,0,.36-1.75,3.16,3.16,0,0,0-.74-2.13,3,3,0,0,0-2.36-.85,3.73,3.73,0,0,0-1.42.24,2.77,2.77,0,0,0-1,.66,3.23,3.23,0,0,0-.62,1,7,7,0,0,0-.37,1.12.76.76,0,0,1-.26.4.57.57,0,0,1-.37.15h-1.1a.47.47,0,0,1-.37-.16.49.49,0,0,1-.16-.37,5,5,0,0,1,.41-1.8,5.28,5.28,0,0,1,1.1-1.66,5.86,5.86,0,0,1,1.77-1.22,5.62,5.62,0,0,1,2.38-.48,6.21,6.21,0,0,1,2.33.41,4.86,4.86,0,0,1,1.68,1.1,4.68,4.68,0,0,1,1,1.63,5.76,5.76,0,0,1,.35,2A7.42,7.42,0,0,1,266,8.69a4.64,4.64,0,0,1-.4,1.19,5.91,5.91,0,0,1-.7,1.09,9.68,9.68,0,0,1-1.06,1.08l-5.35,5h7.34a.65.65,0,0,1,.65.65v.86a.65.65,0,0,1-.65.65H255.53a.65.65,0,0,1-.65-.65v-.86a.85.85,0,0,1,.12-.46,2.25,2.25,0,0,1,.41-.45Z"/><path d="M281.42,8.78c0,.72,0,1.4,0,2s0,1.31,0,2a9,9,0,0,1-.39,2.6,5.88,5.88,0,0,1-1.12,2.1,5,5,0,0,1-1.88,1.4,7.68,7.68,0,0,1-5.45,0,5,5,0,0,1-1.88-1.4,5.88,5.88,0,0,1-1.12-2.1,9.37,9.37,0,0,1-.4-2.6c0-.72,0-1.4,0-2s0-1.31,0-2a9.49,9.49,0,0,1,.4-2.6,5.88,5.88,0,0,1,1.12-2.1,5.13,5.13,0,0,1,1.88-1.4,7.4,7.4,0,0,1,5.45,0,5.13,5.13,0,0,1,1.88,1.4A5.88,5.88,0,0,1,281,6.18,9.13,9.13,0,0,1,281.42,8.78Zm-10,4.06a5.06,5.06,0,0,0,1,3.36,4.29,4.29,0,0,0,5.69,0,5.06,5.06,0,0,0,1-3.36c0-.72,0-1.4,0-2s0-1.31,0-2a5.11,5.11,0,0,0-1-3.37,4.26,4.26,0,0,0-5.69,0,5.11,5.11,0,0,0-1,3.37c0,.72,0,1.4,0,2S271.42,12.12,271.44,12.84Z"/><path d="M296.64,8.78c0,.72,0,1.4,0,2s0,1.31,0,2a9.37,9.37,0,0,1-.4,2.6,5.86,5.86,0,0,1-1.11,2.1,5.14,5.14,0,0,1-1.89,1.4,7.65,7.65,0,0,1-5.44,0,5.14,5.14,0,0,1-1.89-1.4,5.86,5.86,0,0,1-1.11-2.1,9.37,9.37,0,0,1-.4-2.6c0-.72,0-1.4,0-2s0-1.31,0-2a9.49,9.49,0,0,1,.4-2.6,5.86,5.86,0,0,1,1.11-2.1,5.25,5.25,0,0,1,1.89-1.4,7.37,7.37,0,0,1,5.44,0,5.25,5.25,0,0,1,1.89,1.4,5.86,5.86,0,0,1,1.11,2.1A9.49,9.49,0,0,1,296.64,8.78Zm-10,4.06a5.06,5.06,0,0,0,1,3.36,4.27,4.27,0,0,0,5.68,0,5.06,5.06,0,0,0,1-3.36c0-.72,0-1.4,0-2s0-1.31,0-2a5.11,5.11,0,0,0-1-3.37,4.24,4.24,0,0,0-5.68,0,5.11,5.11,0,0,0-1,3.37c0,.72,0,1.4,0,2S286.64,12.12,286.66,12.84Z"/></g></g></svg>