<svg xmlns="http://www.w3.org/2000/svg" xmlns:xlink="http://www.w3.org/1999/xlink" viewBox="0 0 311.68 169.1"><defs><style>.cls-1{stroke:#fff;stroke-miterlimit:10;stroke-width:0.82px;fill:url(#linear-gradient);}.cls-2{fill:url(#linear-gradient-2);}.cls-3{font-size:24px;font-family:Rubik-Regular, Rubik;}.cls-4{letter-spacing:-0.01em;}.cls-5{letter-spacing:-0.02em;}.cls-6{letter-spacing:0em;}.cls-7{letter-spacing:0em;}.cls-8{letter-spacing:-0.02em;}</style><linearGradient id="linear-gradient" x1="169.5" y1="41.06" x2="91.15" y2="176.77" gradientUnits="userSpaceOnUse"><stop offset="0" stop-color="#87e9cd"/><stop offset="0.12" stop-color="#88dfcc"/><stop offset="0.31" stop-color="#8ac4ca"/><stop offset="0.57" stop-color="#8e99c5"/><stop offset="0.86" stop-color="#935dc0"/><stop offset="1" stop-color="#9540bd"/></linearGradient><linearGradient id="linear-gradient-2" x1="236.53" y1="76.49" x2="236.53" y2="147.79" gradientUnits="userSpaceOnUse"><stop offset="0" stop-color="#ffeb86" stop-opacity="0.96"/><stop offset="0.1" stop-color="#ffe37d" stop-opacity="0.96"/><stop offset="0.7" stop-color="#ffb44d" stop-opacity="0.99"/><stop offset="1" stop-color="#ffa23a"/></linearGradient></defs><title>money-electricity</title><g id="Layer_2" data-name="Layer 2"><g id="Layer_2-2" data-name="Layer 2"><g id="money"><path class="cls-1" d="M128.94,74.91l1,2.31a21.89,21.89,0,0,1,5.66-.17l.89,3.86a16.52,16.52,0,0,0-5.15-.08l-.62.15c-3.1.83-2.11,3.78.66,4.5,4.56,1,10,1.39,12.14,6.16,1.72,3.87-.28,6.51-3.62,7.78l1,2.31-2.18.46-1-2.2a17,17,0,0,1-7.22-.28l-.67-3.9a19.23,19.23,0,0,0,6.27.2l1.25-.4c2.22-1.11,1.54-3.89-1.77-4.56-2.45-.55-9-.14-11.4-5.55-1.37-3.07-.35-6.26,3.58-7.72l-1.08-2.41,2.18-.46M154.48,85.7c-4.72-11-17.92-18.39-29.48-16.46s-17.09,12.41-12.37,23.44c5,11.63,19.31,19.08,31.1,16.14C154.18,106.23,159,96.2,154.48,85.7ZM181.57,48l25.18,55.05c-36.33,28.23-84.62-.26-120,29.83L61.53,77.85C94.59,45.9,140.26,74.85,181.57,48ZM207,128.36c-45.86,26.34-82.91-9.52-130.39,40L46.54,101.76,55.91,92l25.46,56.18,0,.05c49.78-37.39,74.86-7.86,121.09-30.5C204.41,122,206.22,126.61,207,128.36Z"/><path class="cls-2" d="M236.53,103.23c15.88,0,29.71-6,29.71-13.37s-13.83-13.37-29.71-13.37-29.7,6-29.7,13.37S220.66,103.23,236.53,103.23Zm.56-11.94c-1.78-.54-7.22-1-7.22-4,0-1.69,2-3.19,5.7-3.53V82.43h1.91v1.26a26.19,26.19,0,0,1,4.66.53l-.7,2a19.17,19.17,0,0,0-4.2-.6h-.44c-2.85.12-3.09,1.71-1.1,2.37,3.24,1,7.52,1.74,7.52,4.4,0,2.12-2.58,3.26-5.75,3.54v1.31h-1.9V96.05a19.57,19.57,0,0,1-5.72-.9l.87-2a21,21,0,0,0,4.92.75,9.94,9.94,0,0,0,1.24-.08C239.07,93.46,239.5,92,237.09,91.29Zm-.56,47.58c11.24,0,22.9-2.87,29.71-8.32v3.87c0,7.38-13.83,13.37-29.71,13.37s-29.7-6-29.7-13.37v-3.88C213.63,136,225.29,138.87,236.53,138.87Zm0-29.7c11.24,0,22.9-2.88,29.71-8.33v3.87c0,7.38-13.83,13.37-29.71,13.37s-29.7-6-29.7-13.37v-3.87C213.63,106.29,225.29,109.17,236.53,109.17Zm0,14.85c11.24,0,22.9-2.88,29.71-8.33v3.87c0,7.39-13.83,13.37-29.71,13.37s-29.7-6-29.7-13.37v-3.87C213.63,121.14,225.29,124,236.53,124Z"/></g><text class="cls-3" transform="translate(0 20.4)">s<tspan class="cls-4" x="12.14" y="0">a</tspan><tspan class="cls-5" x="24.91" y="0">v</tspan><tspan x="37.87" y="0">e b</tspan><tspan class="cls-6" x="71.45" y="0">e</tspan><tspan class="cls-7" x="84.72" y="0">t</tspan><tspan class="cls-8" x="94.32" y="0">w</tspan><tspan x="113.25" y="0">een $600-$2000 </tspan></text></g></g></svg>