<?xml version="1.0" encoding="utf-8"?>
<!-- Generator: Adobe Illustrator 19.0.0, SVG Export Plug-In . SVG Version: 6.00 Build 0)  -->
<svg version="1.1" id="Layer_1" xmlns="http://www.w3.org/2000/svg" xmlns:xlink="http://www.w3.org/1999/xlink" x="0px" y="0px"
	 viewBox="0 0 219.7 125.4" style="enable-background:new 0 0 219.7 125.4;" xml:space="preserve">
<style type="text/css">
	.st0{fill:url(#SVGID_1_);stroke:#FFFFFF;stroke-width:0.8157;stroke-miterlimit:10;}
	.st1{fill:url(#SVGID_2_);}
</style>
<g id="money_1_">
	<linearGradient id="SVGID_1_" gradientUnits="userSpaceOnUse" x1="122.9643" y1="-1.9665" x2="44.6118" y2="133.744">
		<stop  offset="0" style="stop-color:#87E9CD"/>
		<stop  offset="0.1162" style="stop-color:#88DFCC"/>
		<stop  offset="0.3133" style="stop-color:#8AC4CA"/>
		<stop  offset="0.5671" style="stop-color:#8E99C5"/>
		<stop  offset="0.8649" style="stop-color:#935DC0"/>
		<stop  offset="1" style="stop-color:#9540BD"/>
	</linearGradient>
	<path class="st0" d="M82.4,31.9l1,2.3c1.6-0.3,3.5-0.4,5.7-0.2l0.9,3.9c-1.7-0.2-3.5-0.4-5.2-0.1L84.2,38c-3.1,0.8-2.1,3.8,0.7,4.5
		c4.6,1.1,10,1.4,12.1,6.2c1.7,3.9-0.3,6.5-3.6,7.8l1,2.3l-2.2,0.5l-1-2.2c-2.3,0.4-4.8,0.4-7.2-0.3l-0.7-3.9c2,0.3,4.4,0.6,6.3,0.2
		l1.2-0.4c2.2-1.1,1.5-3.9-1.8-4.6c-2.5-0.6-9-0.1-11.4-5.6c-1.4-3.1-0.4-6.3,3.6-7.7l-1.1-2.4L82.4,31.9 M107.9,42.7
		c-4.7-11-17.9-18.4-29.5-16.5S61.4,38.6,66.1,49.7c5,11.6,19.3,19.1,31.1,16.1C107.6,63.2,112.4,53.2,107.9,42.7z M135,5l25.2,55.1
		c-36.3,28.2-84.6-0.3-120,29.8L15,34.8C48.1,2.9,93.7,31.8,135,5z M160.5,85.3c-45.9,26.3-82.9-9.5-130.4,40L0,58.7L9.4,49
		l25.5,56.2l0,0.1c49.8-37.4,74.9-7.9,121.1-30.5C157.9,79,159.7,83.6,160.5,85.3z"/>
	<linearGradient id="SVGID_2_" gradientUnits="userSpaceOnUse" x1="189.9961" y1="33.4659" x2="189.9961" y2="104.7602">
		<stop  offset="0" style="stop-color:#FFEB86;stop-opacity:0.96"/>
		<stop  offset="0.1516" style="stop-color:#FFDE79;stop-opacity:0.9661"/>
		<stop  offset="0.7158" style="stop-color:#FFB34B;stop-opacity:0.9886"/>
		<stop  offset="1" style="stop-color:#FFA23A"/>
	</linearGradient>
	<path class="st1" d="M190,60.2c15.9,0,29.7-6,29.7-13.4S205.9,33.5,190,33.5c-15.9,0-29.7,6-29.7,13.4S174.1,60.2,190,60.2z
		 M190.6,48.3c-1.8-0.5-7.2-1-7.2-4c0-1.7,2-3.2,5.7-3.5v-1.3h1.9v1.3c1.4,0,2.9,0.2,4.7,0.5l-0.7,2c-1.3-0.3-2.8-0.6-4.2-0.6
		l-0.4,0c-2.9,0.1-3.1,1.7-1.1,2.4c3.2,1,7.5,1.7,7.5,4.4c0,2.1-2.6,3.3-5.7,3.5v1.3H189V53c-2,0-4-0.3-5.7-0.9l0.9-2
		c1.4,0.4,3.3,0.8,4.9,0.8c0.4,0,0.8,0,1.2-0.1C192.5,50.4,193,49,190.6,48.3z M190,95.8c11.2,0,22.9-2.9,29.7-8.3v3.9
		c0,7.4-13.8,13.4-29.7,13.4c-15.9,0-29.7-6-29.7-13.4v-3.9C167.1,93,178.8,95.8,190,95.8z M190,66.1c11.2,0,22.9-2.9,29.7-8.3v3.9
		c0,7.4-13.8,13.4-29.7,13.4c-15.9,0-29.7-6-29.7-13.4v-3.9C167.1,63.3,178.8,66.1,190,66.1z M190,81c11.2,0,22.9-2.9,29.7-8.3v3.9
		c0,7.4-13.8,13.4-29.7,13.4c-15.9,0-29.7-6-29.7-13.4v-3.9C167.1,78.1,178.8,81,190,81z"/>
</g>
</svg>
