<svg xmlns="http://www.w3.org/2000/svg" xmlns:xlink="http://www.w3.org/1999/xlink" viewBox="0 0 299.18 167.5"><defs><style>.cls-1{stroke:#fff;stroke-miterlimit:10;stroke-width:0.82px;fill:url(#linear-gradient);}.cls-2{fill:url(#linear-gradient-2);}.cls-3{font-size:24px;font-family:Rubik-Regular, Rubik;}.cls-4{letter-spacing:-0.01em;}.cls-5{letter-spacing:-0.02em;}.cls-6{letter-spacing:-0.02em;}.cls-7{letter-spacing:-0.01em;}.cls-8{letter-spacing:0em;}.cls-9{letter-spacing:-0.01em;}.cls-10{letter-spacing:-0.02em;}</style><linearGradient id="linear-gradient" x1="162.59" y1="39.45" x2="84.24" y2="175.16" gradientUnits="userSpaceOnUse"><stop offset="0" stop-color="#87e9cd"/><stop offset="0.12" stop-color="#88dfcc"/><stop offset="0.31" stop-color="#8ac4ca"/><stop offset="0.57" stop-color="#8e99c5"/><stop offset="0.86" stop-color="#935dc0"/><stop offset="1" stop-color="#9540bd"/></linearGradient><linearGradient id="linear-gradient-2" x1="229.62" y1="74.89" x2="229.62" y2="146.18" gradientUnits="userSpaceOnUse"><stop offset="0" stop-color="#ffeb86" stop-opacity="0.96"/><stop offset="0.1" stop-color="#ffe37d" stop-opacity="0.96"/><stop offset="0.7" stop-color="#ffb44d" stop-opacity="0.99"/><stop offset="1" stop-color="#ffa23a"/></linearGradient></defs><title>money</title><g id="Layer_2" data-name="Layer 2"><g id="Layer_2-2" data-name="Layer 2"><g id="money"><path class="cls-1" d="M122,73.31l1,2.3a21.9,21.9,0,0,1,5.66-.16l.89,3.86a16,16,0,0,0-5.16-.08l-.61.15c-3.11.82-2.12,3.78.65,4.49,4.56,1.06,10,1.39,12.14,6.17,1.72,3.86-.28,6.5-3.62,7.77l1,2.32-2.17.45-1-2.2a17.05,17.05,0,0,1-7.23-.27L123,94.2a19,19,0,0,0,6.28.2l1.24-.4c2.23-1.1,1.55-3.89-1.76-4.55-2.46-.56-9-.14-11.41-5.56-1.37-3.06-.35-6.26,3.58-7.71l-1.07-2.42,2.18-.45M147.58,84.1c-4.72-11-17.93-18.39-29.48-16.47S101,80.05,105.73,91.07c5,11.63,19.31,19.08,31.1,16.15C147.27,104.62,152.07,94.6,147.58,84.1Zm27.08-37.68,25.18,55.05c-36.33,28.24-84.61-.25-120,29.83L54.63,76.25C87.69,44.29,133.35,73.24,174.66,46.42Zm25.45,80.33c-45.85,26.34-82.91-9.52-130.39,40L39.63,100.15,49,90.38l25.46,56.17v.06c49.78-37.39,74.85-7.86,121.09-30.5C197.5,120.44,199.31,125,200.11,126.75Z"/><path class="cls-2" d="M229.62,101.62c15.88,0,29.71-6,29.71-13.37S245.5,74.89,229.62,74.89s-29.7,6-29.7,13.36S213.75,101.62,229.62,101.62Zm.56-11.94c-1.78-.53-7.21-1-7.21-4,0-1.68,2-3.19,5.69-3.52V80.83h1.91v1.25a26.17,26.17,0,0,1,4.66.54l-.69,2a19.26,19.26,0,0,0-4.21-.59h-.43c-2.86.11-3.09,1.7-1.11,2.37,3.24,1,7.52,1.74,7.52,4.39,0,2.12-2.57,3.26-5.74,3.54v1.31h-1.91V94.45a19.25,19.25,0,0,1-5.72-.91l.88-2a20.41,20.41,0,0,0,4.91.76,8.22,8.22,0,0,0,1.24-.09C232.16,91.86,232.6,90.38,230.18,89.68Zm-.56,47.59c11.24,0,22.9-2.88,29.71-8.33v3.87c0,7.39-13.83,13.37-29.71,13.37s-29.7-6-29.7-13.37v-3.87C206.73,134.39,218.39,137.27,229.62,137.27Zm0-29.71c11.24,0,22.9-2.88,29.71-8.32v3.87c0,7.38-13.83,13.37-29.71,13.37s-29.7-6-29.7-13.37V99.24C206.73,104.68,218.39,107.56,229.62,107.56Zm0,14.86c11.24,0,22.9-2.88,29.71-8.33V118c0,7.38-13.83,13.37-29.71,13.37s-29.7-6-29.7-13.37v-3.87C206.73,119.54,218.39,122.42,229.62,122.42Z"/></g><text class="cls-3" transform="translate(0 20.4)">s<tspan class="cls-4" x="12.14" y="0">a</tspan><tspan class="cls-5" x="24.91" y="0">v</tspan><tspan x="37.87" y="0">es an </tspan><tspan class="cls-4" x="102.77" y="0">a</tspan><tspan class="cls-6" x="115.54" y="0">v</tspan><tspan x="128.5" y="0">e</tspan><tspan class="cls-7" x="141.86" y="0">r</tspan><tspan class="cls-8" x="150.74" y="0">age </tspan><tspan class="cls-9" x="197.42" y="0">o</tspan><tspan class="cls-10" x="211.08" y="0">f</tspan><tspan x="219.89" y="0" xml:space="preserve"> $6200</tspan></text></g></g></svg>