<svg xmlns="http://www.w3.org/2000/svg" xmlns:xlink="http://www.w3.org/1999/xlink" viewBox="0 0 303.31 167.9"><defs><style>.cls-1{stroke:#fff;stroke-miterlimit:10;stroke-width:0.82px;fill:url(#linear-gradient);}.cls-2{fill:url(#linear-gradient-2);}</style><linearGradient id="linear-gradient" x1="168.45" y1="39.86" x2="90.09" y2="175.57" gradientUnits="userSpaceOnUse"><stop offset="0" stop-color="#87e9cd"/><stop offset="0.12" stop-color="#88dfcc"/><stop offset="0.31" stop-color="#8ac4ca"/><stop offset="0.57" stop-color="#8e99c5"/><stop offset="0.86" stop-color="#935dc0"/><stop offset="1" stop-color="#9540bd"/></linearGradient><linearGradient id="linear-gradient-2" x1="235.48" y1="75.29" x2="235.48" y2="146.59" gradientUnits="userSpaceOnUse"><stop offset="0" stop-color="#ffeb86" stop-opacity="0.96"/><stop offset="0.1" stop-color="#ffe37d" stop-opacity="0.96"/><stop offset="0.7" stop-color="#ffb44d" stop-opacity="0.99"/><stop offset="1" stop-color="#ffa23a"/></linearGradient></defs><title>money-electricity</title><g id="Layer_2" data-name="Layer 2"><g id="Layer_2-2" data-name="Layer 2"><g id="money"><path class="cls-1" d="M127.89,73.71l1,2.31a21.87,21.87,0,0,1,5.66-.17l.89,3.86a16.53,16.53,0,0,0-5.15-.08l-.62.15c-3.1.83-2.11,3.78.66,4.5,4.56,1,10,1.39,12.13,6.16,1.73,3.87-.27,6.51-3.62,7.78l1,2.31-2.17.46-1-2.2a17,17,0,0,1-7.22-.28l-.67-3.9a19.23,19.23,0,0,0,6.27.2l1.24-.4c2.23-1.1,1.55-3.89-1.76-4.56-2.46-.55-9-.14-11.4-5.55-1.37-3.06-.36-6.26,3.58-7.72l-1.08-2.41,2.18-.46m25.54,10.8C148.71,73.49,135.5,66.11,124,68s-17.1,12.41-12.37,23.44c5,11.63,19.31,19.08,31.1,16.14C153.12,105,157.93,95,153.43,84.51Zm27.08-37.68,25.18,55.05c-36.32,28.24-84.61-.26-120,29.83L60.48,76.66C93.54,44.7,139.2,73.65,180.51,46.83ZM206,127.16c-45.85,26.34-82.91-9.52-130.39,40L45.48,100.56l9.38-9.78L80.31,147v0c49.78-37.39,74.86-7.85,121.09-30.5C203.35,120.84,205.17,125.41,206,127.16Z"/><path class="cls-2" d="M235.48,102c15.88,0,29.7-6,29.7-13.37s-13.82-13.37-29.7-13.37-29.71,6-29.71,13.37S219.6,102,235.48,102ZM236,90.09c-1.77-.54-7.21-1-7.21-4,0-1.69,2-3.19,5.7-3.53V81.23h1.9v1.26a26.09,26.09,0,0,1,4.66.53l-.69,2a19.17,19.17,0,0,0-4.21-.59h-.43c-2.86.12-3.09,1.71-1.11,2.37,3.25,1,7.52,1.74,7.52,4.4,0,2.12-2.57,3.26-5.74,3.54v1.31h-1.91V94.85a19.57,19.57,0,0,1-5.72-.9l.88-2a20.92,20.92,0,0,0,4.92.75,9.94,9.94,0,0,0,1.24-.08C238,92.26,238.45,90.79,236,90.09Zm-.55,47.58c11.24,0,22.9-2.87,29.7-8.32v3.87c0,7.38-13.82,13.37-29.7,13.37s-29.71-6-29.71-13.37v-3.87C212.58,134.8,224.24,137.67,235.48,137.67Zm0-29.7c11.24,0,22.9-2.88,29.7-8.33v3.87c0,7.38-13.82,13.37-29.7,13.37s-29.71-6-29.71-13.37V99.64C212.58,105.09,224.24,108,235.48,108Zm0,14.85c11.24,0,22.9-2.88,29.7-8.32v3.87c0,7.38-13.82,13.36-29.7,13.36s-29.71-6-29.71-13.36v-3.88C212.58,119.94,224.24,122.82,235.48,122.82Z"/></g><path d="M7.85,15.74A1.11,1.11,0,0,0,7.6,15a2.07,2.07,0,0,0-.76-.52,8.85,8.85,0,0,0-1.28-.41c-.52-.12-1.13-.26-1.81-.4A4.74,4.74,0,0,1,1,12.3,3.49,3.49,0,0,1,.53,8.71,3.28,3.28,0,0,1,1.4,7.56a4,4,0,0,1,1.45-.79A6.58,6.58,0,0,1,4.9,6.48,7.35,7.35,0,0,1,7,6.74a5.34,5.34,0,0,1,1.48.68,3.31,3.31,0,0,1,.91.87,1.72,1.72,0,0,1,.33.9.52.52,0,0,1-.18.46A.63.63,0,0,1,9,9.84h-.8a1.22,1.22,0,0,1-.34-.06.7.7,0,0,1-.37-.28,2.34,2.34,0,0,0-.93-.68A4.27,4.27,0,0,0,4.9,8.54,3.49,3.49,0,0,0,3.11,9a1.35,1.35,0,0,0-.49,1.86,1.43,1.43,0,0,0,.62.48,5.65,5.65,0,0,0,1.14.37l1.77.41A8.25,8.25,0,0,1,8,12.68a4.38,4.38,0,0,1,1.2.84,2.75,2.75,0,0,1,.65,1A3.56,3.56,0,0,1,10,15.74a3,3,0,0,1-.34,1.4,3.7,3.7,0,0,1-1,1.17,5.29,5.29,0,0,1-1.57.82,6.53,6.53,0,0,1-2.1.31,7,7,0,0,1-2.09-.29,6.27,6.27,0,0,1-1.56-.71,3.71,3.71,0,0,1-1-.91A1.84,1.84,0,0,1,0,16.61a.57.57,0,0,1,.17-.46A.65.65,0,0,1,.65,16h.87a1.47,1.47,0,0,1,.33,0,.56.56,0,0,1,.36.27,2.51,2.51,0,0,0,1.06.82A4.49,4.49,0,0,0,5,17.38a4.55,4.55,0,0,0,1-.12A3.83,3.83,0,0,0,7,16.92a2,2,0,0,0,.63-.52A1,1,0,0,0,7.85,15.74Z"/><path d="M12,16.06a3.47,3.47,0,0,1,.39-1.68,3.63,3.63,0,0,1,1-1.23A5.67,5.67,0,0,1,15,12.34a11.35,11.35,0,0,1,1.91-.48l3.39-.56V11a2.14,2.14,0,0,0-.81-1.83,3.18,3.18,0,0,0-2-.62,2.72,2.72,0,0,0-1.6.39,3.79,3.79,0,0,0-.92.91.73.73,0,0,1-.31.26,1.19,1.19,0,0,1-.46.08h-.72A.67.67,0,0,1,13,10a.55.55,0,0,1-.18-.45,2.29,2.29,0,0,1,.42-1.08,3.81,3.81,0,0,1,1-1,6,6,0,0,1,1.46-.7,5.43,5.43,0,0,1,1.77-.28,6.12,6.12,0,0,1,2,.31,4.44,4.44,0,0,1,1.59.91,4.19,4.19,0,0,1,1,1.49,5.19,5.19,0,0,1,.37,2v7.32a.65.65,0,0,1-.65.65H21A.61.61,0,0,1,20.5,19a.62.62,0,0,1-.19-.46v-1a2.23,2.23,0,0,1-.68.8,4.54,4.54,0,0,1-1,.59,6.34,6.34,0,0,1-1.22.36,6.48,6.48,0,0,1-1.19.12,5.49,5.49,0,0,1-1.72-.26,4.36,4.36,0,0,1-1.32-.71,3.12,3.12,0,0,1-.84-1.07A3.06,3.06,0,0,1,12,16.06Zm4.42,1.32A4.48,4.48,0,0,0,18,17.11a3.73,3.73,0,0,0,1.24-.73A3.08,3.08,0,0,0,20,15.26a3.7,3.7,0,0,0,.28-1.44v-.6l-2.84.46a7,7,0,0,0-2.4.77,1.56,1.56,0,0,0-.88,1.37,1.23,1.23,0,0,0,.12.52,1.48,1.48,0,0,0,.38.51,1.86,1.86,0,0,0,.68.38A3.15,3.15,0,0,0,16.42,17.38Z"/><path d="M30.15,19.2a.59.59,0,0,1-.48-.19,2.07,2.07,0,0,1-.27-.41L24.63,7.46a.38.38,0,0,1,0-.16.58.58,0,0,1,.58-.58h.89a.7.7,0,0,1,.54.19,1.22,1.22,0,0,1,.25.39L30.58,16,34.3,7.3a1.37,1.37,0,0,1,.24-.39A.55.55,0,0,1,35,6.72h1a.58.58,0,0,1,.58.58.38.38,0,0,1,0,.16L31.76,18.6a2,2,0,0,1-.26.41.56.56,0,0,1-.47.19Z"/><path d="M38,11.76a6.38,6.38,0,0,1,.53-2.06A5.77,5.77,0,0,1,39.7,8a4.88,4.88,0,0,1,1.67-1.13,5.59,5.59,0,0,1,2.17-.41,6.11,6.11,0,0,1,2.32.42A4.92,4.92,0,0,1,47.6,8.11,5.65,5.65,0,0,1,48.7,10a7.94,7.94,0,0,1,.38,2.52v.65a.62.62,0,0,1-.19.46.65.65,0,0,1-.45.19H40.18V14a3.22,3.22,0,0,0,3.36,3.39,4.1,4.1,0,0,0,2-.38,4,4,0,0,0,1.07-.82,1.4,1.4,0,0,1,.33-.27,1,1,0,0,1,.44-.07h.71a.72.72,0,0,1,.49.19.48.48,0,0,1,.16.46,2.49,2.49,0,0,1-.4,1,3.74,3.74,0,0,1-1,1,6,6,0,0,1-1.58.74,7.36,7.36,0,0,1-2.22.3A5.34,5.34,0,0,1,41.38,19a5.14,5.14,0,0,1-1.67-1.15,5.91,5.91,0,0,1-1.14-1.73A6.91,6.91,0,0,1,38,14,10.21,10.21,0,0,1,38,11.76Zm2.14.07h6.74v-.07A3.08,3.08,0,0,0,46,9.42a3.46,3.46,0,0,0-2.46-.88,3.66,3.66,0,0,0-1.3.23,3.15,3.15,0,0,0-1.05.65,2.86,2.86,0,0,0-.72,1,3.36,3.36,0,0,0-.29,1.32Z"/><path d="M63.75,6.48a5.42,5.42,0,0,1,2.1.4A5.09,5.09,0,0,1,67.54,8a5.57,5.57,0,0,1,1.15,1.79,7.09,7.09,0,0,1,.5,2.38q0,.36,0,.78t0,.78a7,7,0,0,1-.5,2.37,5.51,5.51,0,0,1-1.15,1.8A4.86,4.86,0,0,1,65.85,19a5.42,5.42,0,0,1-2.1.4A4.87,4.87,0,0,1,61.39,19,4.23,4.23,0,0,1,60,17.81v.74a.63.63,0,0,1-.2.46.6.6,0,0,1-.45.19h-.89A.62.62,0,0,1,58,19a.66.66,0,0,1-.19-.46V2.81A.66.66,0,0,1,58,2.35a.62.62,0,0,1,.46-.19h.89a.6.6,0,0,1,.45.19.63.63,0,0,1,.2.46v5.3A4.38,4.38,0,0,1,61.37,7,4.64,4.64,0,0,1,63.75,6.48ZM60,14a3.7,3.7,0,0,0,1,2.47,3.34,3.34,0,0,0,2.43.92,3.17,3.17,0,0,0,2.48-1,4.45,4.45,0,0,0,1-2.74c0-.45,0-.89,0-1.34a4.45,4.45,0,0,0-1-2.74,3.17,3.17,0,0,0-2.48-1,3.26,3.26,0,0,0-2.43.93,4,4,0,0,0-1,2.63A6.09,6.09,0,0,0,60,13,6.15,6.15,0,0,0,60,14Z"/><path d="M71.62,11.76a6.13,6.13,0,0,1,.53-2.06A5.74,5.74,0,0,1,73.27,8a5,5,0,0,1,1.67-1.13,5.59,5.59,0,0,1,2.17-.41,6,6,0,0,1,2.32.42,4.75,4.75,0,0,1,1.74,1.21A5.34,5.34,0,0,1,82.27,10a7.66,7.66,0,0,1,.39,2.52v.65a.65.65,0,0,1-.65.65H73.75V14a3.43,3.43,0,0,0,1,2.51,3.36,3.36,0,0,0,2.36.88,4.1,4.1,0,0,0,2-.38,4,4,0,0,0,1.07-.82,1.41,1.41,0,0,1,.34-.27,1,1,0,0,1,.43-.07h.72a.68.68,0,0,1,.48.19.49.49,0,0,1,.17.46,2.7,2.7,0,0,1-.41,1,3.69,3.69,0,0,1-1,1,6,6,0,0,1-1.59.74,7.36,7.36,0,0,1-2.22.3A5.34,5.34,0,0,1,75,19a5.1,5.1,0,0,1-1.66-1.15,5.54,5.54,0,0,1-1.14-1.73A6.65,6.65,0,0,1,71.62,14,10.21,10.21,0,0,1,71.62,11.76Zm2.13.07H80.5v-.07a3.05,3.05,0,0,0-.93-2.34,3.43,3.43,0,0,0-2.46-.88,3.65,3.65,0,0,0-1.29.23,3.29,3.29,0,0,0-1.06.65,3.14,3.14,0,0,0-.72,1,3.75,3.75,0,0,0-.29,1.32Z"/><path d="M88.73,15a4.54,4.54,0,0,0,.08.85,1.88,1.88,0,0,0,.3.69,1.37,1.37,0,0,0,.62.44,2.87,2.87,0,0,0,1,.16H92a.6.6,0,0,1,.45.19.62.62,0,0,1,.2.45v.77a.63.63,0,0,1-.2.46.6.6,0,0,1-.45.19H90.51a3.82,3.82,0,0,1-3-1.08A4.65,4.65,0,0,1,86.55,15V8.78H84.77a.62.62,0,0,1-.46-.19.65.65,0,0,1-.19-.45V7.37a.66.66,0,0,1,.19-.46.62.62,0,0,1,.46-.19h1.78V2.81a.62.62,0,0,1,.19-.46.61.61,0,0,1,.45-.19h.89a.65.65,0,0,1,.65.65V6.72h3a.6.6,0,0,1,.45.19.63.63,0,0,1,.2.46v.77a.62.62,0,0,1-.2.45.6.6,0,0,1-.45.19h-3Z"/><path d="M106.8,15.31l2.69-8a1.26,1.26,0,0,1,.26-.39.76.76,0,0,1,.56-.19h.79a.58.58,0,0,1,.41.17.56.56,0,0,1,.16.41.65.65,0,0,1,0,.19l-3.67,11a1.8,1.8,0,0,1-.25.48.57.57,0,0,1-.47.19h-.75a.56.56,0,0,1-.46-.2,2.43,2.43,0,0,1-.28-.47l-2.86-8-2.85,8a2.43,2.43,0,0,1-.28.47.56.56,0,0,1-.47.2h-.74A.57.57,0,0,1,98.1,19a1.55,1.55,0,0,1-.25-.48l-3.67-11a.68.68,0,0,1,0-.19.58.58,0,0,1,.58-.58h.79a.72.72,0,0,1,.55.19,1.15,1.15,0,0,1,.27.39l2.69,8,2.88-8a1.29,1.29,0,0,1,.22-.39.64.64,0,0,1,.52-.19h.53a.6.6,0,0,1,.51.19,1.33,1.33,0,0,1,.23.39Z"/><path d="M113.43,11.76A6.37,6.37,0,0,1,114,9.7,6,6,0,0,1,115.08,8a5,5,0,0,1,1.67-1.13,5.59,5.59,0,0,1,2.17-.41,6,6,0,0,1,2.32.42A4.75,4.75,0,0,1,123,8.11a5.34,5.34,0,0,1,1.1,1.92,7.66,7.66,0,0,1,.39,2.52v.65a.63.63,0,0,1-.2.46.64.64,0,0,1-.45.19h-8.26V14a3.22,3.22,0,0,0,3.36,3.39,4.1,4.1,0,0,0,2-.38,4,4,0,0,0,1.07-.82,1.41,1.41,0,0,1,.34-.27,1,1,0,0,1,.43-.07h.72a.72.72,0,0,1,.48.19.49.49,0,0,1,.17.46,2.7,2.7,0,0,1-.41,1,3.85,3.85,0,0,1-1,1,6.18,6.18,0,0,1-1.59.74,7.36,7.36,0,0,1-2.22.3,5.34,5.34,0,0,1-2.16-.42,5.25,5.25,0,0,1-1.67-1.15A5.91,5.91,0,0,1,114,16.14a6.9,6.9,0,0,1-.52-2.17A10.21,10.21,0,0,1,113.43,11.76Zm2.13.07h6.75v-.07a3.05,3.05,0,0,0-.93-2.34,3.43,3.43,0,0,0-2.46-.88,3.65,3.65,0,0,0-1.29.23,3.19,3.19,0,0,0-1.06.65,3.14,3.14,0,0,0-.72,1,3.54,3.54,0,0,0-.29,1.32Z"/><path d="M126.79,11.76a6.38,6.38,0,0,1,.53-2.06A6,6,0,0,1,128.45,8a4.88,4.88,0,0,1,1.67-1.13,5.59,5.59,0,0,1,2.17-.41,6.07,6.07,0,0,1,2.32.42,4.75,4.75,0,0,1,1.74,1.21,5.49,5.49,0,0,1,1.1,1.92,7.67,7.67,0,0,1,.38,2.52v.65a.62.62,0,0,1-.19.46.65.65,0,0,1-.45.19h-8.26V14a3.22,3.22,0,0,0,3.36,3.39,4.1,4.1,0,0,0,2-.38,4,4,0,0,0,1.07-.82,1.63,1.63,0,0,1,.33-.27,1,1,0,0,1,.44-.07h.72a.72.72,0,0,1,.48.19.46.46,0,0,1,.16.46,2.49,2.49,0,0,1-.4,1,3.74,3.74,0,0,1-1,1,6,6,0,0,1-1.58.74,7.36,7.36,0,0,1-2.22.3,5.34,5.34,0,0,1-2.16-.42,5.14,5.14,0,0,1-1.67-1.15,5.91,5.91,0,0,1-1.14-1.73,6.91,6.91,0,0,1-.53-2.17A10.21,10.21,0,0,1,126.79,11.76Zm2.14.07h6.74v-.07a3,3,0,0,0-.92-2.34,3.46,3.46,0,0,0-2.46-.88,3.7,3.7,0,0,0-1.3.23,3.15,3.15,0,0,0-1.05.65,2.86,2.86,0,0,0-.72,1,3.54,3.54,0,0,0-.29,1.32Z"/><path d="M151.82,18.55a.62.62,0,0,1-.19.46.61.61,0,0,1-.45.19h-.89a.65.65,0,0,1-.65-.65V12.22a3.76,3.76,0,0,0-.89-2.76,3.72,3.72,0,0,0-4.9,0,3.68,3.68,0,0,0-.93,2.76v6.33a.65.65,0,0,1-.65.65h-.88a.65.65,0,0,1-.65-.65V7.37a.65.65,0,0,1,.65-.65h.88a.65.65,0,0,1,.65.65v.74A4.48,4.48,0,0,1,144.28,7a4.64,4.64,0,0,1,2.36-.52,5.71,5.71,0,0,1,2.09.37,4.61,4.61,0,0,1,2.71,2.75,6.19,6.19,0,0,1,.38,2.26Z"/><path d="M167.69,2.26a6.4,6.4,0,0,1,2.09.64A6.21,6.21,0,0,1,171.31,4a4.86,4.86,0,0,1,1,1.29,2.88,2.88,0,0,1,.36,1.2.43.43,0,0,1-.14.38.55.55,0,0,1-.38.15h-1a.84.84,0,0,1-.42-.09,1.12,1.12,0,0,1-.32-.44,5.09,5.09,0,0,0-.4-.61,3.39,3.39,0,0,0-.74-.72,4.88,4.88,0,0,0-1.14-.6,4.4,4.4,0,0,0-1.56-.25,5,5,0,0,0-1.29.16,3.81,3.81,0,0,0-1.09.46,2.49,2.49,0,0,0-.77.78,2.09,2.09,0,0,0-.28,1.1,2,2,0,0,0,.27,1,2.48,2.48,0,0,0,.89.78,7.72,7.72,0,0,0,1.55.64c.62.19,1.38.41,2.28.65a14.35,14.35,0,0,1,2.31.79,6.15,6.15,0,0,1,1.55,1,3.36,3.36,0,0,1,.88,1.25,4.7,4.7,0,0,1-.11,3.42,4.34,4.34,0,0,1-1.09,1.46,6,6,0,0,1-1.72,1,7.75,7.75,0,0,1-2.23.53V21a.66.66,0,0,1-.19.46.62.62,0,0,1-.46.19h-1a.65.65,0,0,1-.65-.65V19.34a7.08,7.08,0,0,1-2.09-.62,7.32,7.32,0,0,1-1.62-1.06,4.78,4.78,0,0,1-1.07-1.3,3.17,3.17,0,0,1-.4-1.38.54.54,0,0,1,.15-.38.51.51,0,0,1,.37-.15h1a.93.93,0,0,1,.42.09.84.84,0,0,1,.32.44,3.62,3.62,0,0,0,.45.73,3.21,3.21,0,0,0,.8.74A5,5,0,0,0,165,17a5.43,5.43,0,0,0,1.71.24,6.3,6.3,0,0,0,1.59-.19,4.58,4.58,0,0,0,1.33-.55,3,3,0,0,0,.92-.87,2,2,0,0,0,.33-1.13,1.58,1.58,0,0,0-.38-1.06,3.61,3.61,0,0,0-1.1-.81,10.7,10.7,0,0,0-1.77-.66c-.69-.2-1.48-.41-2.36-.63a9.39,9.39,0,0,1-2-.76,5.15,5.15,0,0,1-1.37-1,3.47,3.47,0,0,1-.76-1.27,4.92,4.92,0,0,1-.23-1.51,4.44,4.44,0,0,1,.29-1.56,4.57,4.57,0,0,1,.85-1.4,5,5,0,0,1,1.43-1,6.29,6.29,0,0,1,2-.58V.65a.62.62,0,0,1,.19-.46.62.62,0,0,1,.46-.19h1a.62.62,0,0,1,.46.19.66.66,0,0,1,.19.46Z"/><path d="M180.48,8a2.87,2.87,0,0,1,.42-.08,2.55,2.55,0,0,1,.44,0,6.72,6.72,0,0,1,2.49.45,6,6,0,0,1,2,1.22,5.64,5.64,0,0,1,1.76,4.12,5.6,5.6,0,0,1-1.76,4.11,6.2,6.2,0,0,1-2,1.23,7.24,7.24,0,0,1-5,0,6.09,6.09,0,0,1-2-1.23,5.63,5.63,0,0,1-1.29-1.83,5.48,5.48,0,0,1-.47-2.28,5.33,5.33,0,0,1,.15-1.3,6.57,6.57,0,0,1,.41-1.13,9.05,9.05,0,0,1,.57-1c.2-.32.41-.62.62-.91l4.37-6.43a2.81,2.81,0,0,0,.26-.3A.59.59,0,0,1,182,2.4h1.37a.43.43,0,0,1,.35.16.52.52,0,0,1,.13.37.36.36,0,0,1,0,.19.36.36,0,0,1-.08.12Zm-3.07,5.67a3.47,3.47,0,0,0,.27,1.36,3.56,3.56,0,0,0,2,2A4.66,4.66,0,0,0,183,17a3.69,3.69,0,0,0,1.23-.8A3.49,3.49,0,0,0,185,15a3.31,3.31,0,0,0,.28-1.36,3.36,3.36,0,0,0-.28-1.37,3.45,3.45,0,0,0-.78-1.15,3.56,3.56,0,0,0-1.23-.81,4.66,4.66,0,0,0-3.29,0,3.71,3.71,0,0,0-1.24.81,3.77,3.77,0,0,0-.78,1.15A3.52,3.52,0,0,0,177.41,13.66Z"/><path d="M202.13,8.78c0,.72,0,1.4,0,2s0,1.31,0,2a9.37,9.37,0,0,1-.4,2.6,6,6,0,0,1-1.11,2.1,5.14,5.14,0,0,1-1.89,1.4,7.68,7.68,0,0,1-5.45,0,5.18,5.18,0,0,1-1.88-1.4,5.88,5.88,0,0,1-1.12-2.1,9.38,9.38,0,0,1-.39-2.6c0-.72,0-1.4,0-2s0-1.31,0-2a9.49,9.49,0,0,1,.39-2.6,5.88,5.88,0,0,1,1.12-2.1,5.3,5.3,0,0,1,1.88-1.4,7.4,7.4,0,0,1,5.45,0,5.25,5.25,0,0,1,1.89,1.4,6,6,0,0,1,1.11,2.1A9.49,9.49,0,0,1,202.13,8.78Zm-10,4.06a5.12,5.12,0,0,0,1,3.36,4.29,4.29,0,0,0,5.69,0,5.06,5.06,0,0,0,1-3.36c0-.72,0-1.4,0-2s0-1.31,0-2a5.11,5.11,0,0,0-1-3.37,4.26,4.26,0,0,0-5.69,0,5.16,5.16,0,0,0-1,3.37c0,.72,0,1.4,0,2S192.13,12.12,192.15,12.84Z"/><path d="M217.34,8.78c0,.72,0,1.4,0,2s0,1.31,0,2a9,9,0,0,1-.39,2.6,5.88,5.88,0,0,1-1.12,2.1,5,5,0,0,1-1.88,1.4,7.68,7.68,0,0,1-5.45,0,5,5,0,0,1-1.88-1.4,5.88,5.88,0,0,1-1.12-2.1,9,9,0,0,1-.39-2.6c0-.72,0-1.4,0-2s0-1.31,0-2a9.13,9.13,0,0,1,.39-2.6,5.88,5.88,0,0,1,1.12-2.1,5.13,5.13,0,0,1,1.88-1.4,7.4,7.4,0,0,1,5.45,0,5.13,5.13,0,0,1,1.88,1.4A5.88,5.88,0,0,1,217,6.18,9.13,9.13,0,0,1,217.34,8.78Zm-10,4.06a5.06,5.06,0,0,0,1,3.36,4.29,4.29,0,0,0,5.69,0,5.06,5.06,0,0,0,1-3.36c0-.72,0-1.4,0-2s0-1.31,0-2a5.11,5.11,0,0,0-1-3.37,4.26,4.26,0,0,0-5.69,0,5.11,5.11,0,0,0-1,3.37c0,.72,0,1.4,0,2S207.34,12.12,207.36,12.84Z"/><path d="M221.11,13a.6.6,0,0,1-.45-.19.63.63,0,0,1-.2-.46v-.76a.63.63,0,0,1,.2-.46.6.6,0,0,1,.45-.19h7.08a.65.65,0,0,1,.65.65v.76a.65.65,0,0,1-.65.65Z"/><path d="M238.8,2.26a6.4,6.4,0,0,1,2.09.64A6.21,6.21,0,0,1,242.42,4a4.86,4.86,0,0,1,1,1.29,2.88,2.88,0,0,1,.36,1.2.43.43,0,0,1-.14.38.55.55,0,0,1-.38.15h-1a.87.87,0,0,1-.42-.09,1.12,1.12,0,0,1-.32-.44,4.09,4.09,0,0,0-.4-.61,3.39,3.39,0,0,0-.74-.72,4.88,4.88,0,0,0-1.14-.6,4.4,4.4,0,0,0-1.56-.25,5,5,0,0,0-1.29.16,3.81,3.81,0,0,0-1.09.46,2.49,2.49,0,0,0-.77.78,2.09,2.09,0,0,0-.28,1.1,2,2,0,0,0,.27,1,2.48,2.48,0,0,0,.89.78,7.72,7.72,0,0,0,1.55.64c.62.19,1.38.41,2.28.65a14.35,14.35,0,0,1,2.31.79,6.15,6.15,0,0,1,1.55,1A3.36,3.36,0,0,1,244,13a4.42,4.42,0,0,1,.27,1.59,4.29,4.29,0,0,1-.38,1.83,4.34,4.34,0,0,1-1.09,1.46,5.83,5.83,0,0,1-1.72,1,7.75,7.75,0,0,1-2.23.53V21a.66.66,0,0,1-.19.46.62.62,0,0,1-.46.19h-1a.65.65,0,0,1-.65-.65V19.34a7.17,7.17,0,0,1-2.09-.62,7.32,7.32,0,0,1-1.62-1.06,5,5,0,0,1-1.07-1.3,3.17,3.17,0,0,1-.4-1.38.54.54,0,0,1,.15-.38.53.53,0,0,1,.37-.15h1a.93.93,0,0,1,.42.09.84.84,0,0,1,.32.44,3.62,3.62,0,0,0,.45.73,3.21,3.21,0,0,0,.8.74,5,5,0,0,0,1.22.59,5.43,5.43,0,0,0,1.71.24,6.3,6.3,0,0,0,1.59-.19,4.58,4.58,0,0,0,1.33-.55,3,3,0,0,0,.92-.87,2,2,0,0,0,.33-1.13,1.53,1.53,0,0,0-.38-1.06,3.49,3.49,0,0,0-1.1-.81,10.36,10.36,0,0,0-1.77-.66c-.69-.2-1.48-.41-2.36-.63a9.39,9.39,0,0,1-2-.76,5.15,5.15,0,0,1-1.37-1,3.61,3.61,0,0,1-.76-1.27,4.92,4.92,0,0,1-.22-1.51,4.43,4.43,0,0,1,.28-1.56,4.57,4.57,0,0,1,.85-1.4,5,5,0,0,1,1.43-1,6.29,6.29,0,0,1,2-.58V.65a.62.62,0,0,1,.19-.46.62.62,0,0,1,.46-.19h1a.62.62,0,0,1,.46.19.66.66,0,0,1,.19.46Z"/><path d="M253.87,10.37A4.91,4.91,0,0,0,255,9.05a3.7,3.7,0,0,0,.36-1.75,3.16,3.16,0,0,0-.74-2.13,3,3,0,0,0-2.35-.85,3.78,3.78,0,0,0-1.43.24,2.87,2.87,0,0,0-1,.66,3.23,3.23,0,0,0-.62,1,7,7,0,0,0-.37,1.12.75.75,0,0,1-.25.4.59.59,0,0,1-.38.15h-1.1a.55.55,0,0,1-.53-.53,5,5,0,0,1,.41-1.8,5.46,5.46,0,0,1,1.1-1.66,5.86,5.86,0,0,1,1.77-1.22,5.63,5.63,0,0,1,2.39-.48,6.16,6.16,0,0,1,2.32.41,4.59,4.59,0,0,1,2.7,2.73,5.54,5.54,0,0,1,.35,2,7.42,7.42,0,0,1-.12,1.39,5,5,0,0,1-.39,1.19,6,6,0,0,1-.71,1.09,9.68,9.68,0,0,1-1.06,1.08L250,17h7.34a.65.65,0,0,1,.65.65v.86a.65.65,0,0,1-.65.65H247a.62.62,0,0,1-.46-.19.66.66,0,0,1-.19-.46v-.86a.85.85,0,0,1,.12-.46,2.25,2.25,0,0,1,.41-.45Z"/><path d="M272.86,8.78c0,.72,0,1.4,0,2s0,1.31,0,2a9.37,9.37,0,0,1-.4,2.6,5.88,5.88,0,0,1-1.12,2.1,5,5,0,0,1-1.88,1.4,7.68,7.68,0,0,1-5.45,0,5,5,0,0,1-1.88-1.4,5.88,5.88,0,0,1-1.12-2.1,9,9,0,0,1-.39-2.6c0-.72,0-1.4,0-2s0-1.31,0-2a9.13,9.13,0,0,1,.39-2.6,5.88,5.88,0,0,1,1.12-2.1A5.13,5.13,0,0,1,264,2.68a7.4,7.4,0,0,1,5.45,0,5.13,5.13,0,0,1,1.88,1.4,5.88,5.88,0,0,1,1.12,2.1A9.49,9.49,0,0,1,272.86,8.78Zm-10,4.06a5.06,5.06,0,0,0,1,3.36,4.29,4.29,0,0,0,5.69,0,5.06,5.06,0,0,0,1-3.36c0-.72,0-1.4,0-2s0-1.31,0-2a5.11,5.11,0,0,0-1-3.37,4.26,4.26,0,0,0-5.69,0,5.11,5.11,0,0,0-1,3.37c0,.72,0,1.4,0,2S262.86,12.12,262.87,12.84Z"/><path d="M288.07,8.78c0,.72,0,1.4,0,2s0,1.31,0,2a9.38,9.38,0,0,1-.39,2.6,5.88,5.88,0,0,1-1.12,2.1,5.1,5.1,0,0,1-1.88,1.4,7.68,7.68,0,0,1-5.45,0,5.14,5.14,0,0,1-1.89-1.4,6,6,0,0,1-1.11-2.1,9.37,9.37,0,0,1-.4-2.6c0-.72,0-1.4,0-2s0-1.31,0-2a9.49,9.49,0,0,1,.4-2.6,6,6,0,0,1,1.11-2.1,5.25,5.25,0,0,1,1.89-1.4,7.4,7.4,0,0,1,5.45,0,5.21,5.21,0,0,1,1.88,1.4,5.88,5.88,0,0,1,1.12,2.1A9.49,9.49,0,0,1,288.07,8.78Zm-10,4.06a5.06,5.06,0,0,0,1,3.36,4.29,4.29,0,0,0,5.69,0,5.17,5.17,0,0,0,1-3.36c0-.72,0-1.4,0-2s0-1.31,0-2a5.22,5.22,0,0,0-1-3.37,4.26,4.26,0,0,0-5.69,0,5.11,5.11,0,0,0-1,3.37c0,.72,0,1.4,0,2S278.07,12.12,278.09,12.84Z"/><path d="M303.29,8.78c0,.72,0,1.4,0,2s0,1.31,0,2a9.37,9.37,0,0,1-.4,2.6,5.88,5.88,0,0,1-1.12,2.1,5,5,0,0,1-1.88,1.4,7.68,7.68,0,0,1-5.45,0,5,5,0,0,1-1.88-1.4,5.88,5.88,0,0,1-1.12-2.1,9,9,0,0,1-.39-2.6c0-.72,0-1.4,0-2s0-1.31,0-2a9.13,9.13,0,0,1,.39-2.6,5.88,5.88,0,0,1,1.12-2.1,5.13,5.13,0,0,1,1.88-1.4,7.4,7.4,0,0,1,5.45,0,5.13,5.13,0,0,1,1.88,1.4,5.88,5.88,0,0,1,1.12,2.1A9.49,9.49,0,0,1,303.29,8.78Zm-10,4.06a5.06,5.06,0,0,0,1,3.36,4.29,4.29,0,0,0,5.69,0,5.06,5.06,0,0,0,1-3.36c0-.72,0-1.4,0-2s0-1.31,0-2a5.11,5.11,0,0,0-1-3.37,4.26,4.26,0,0,0-5.69,0,5.11,5.11,0,0,0-1,3.37c0,.72,0,1.4,0,2S293.29,12.12,293.3,12.84Z"/></g></g></svg>