<svg xmlns="http://www.w3.org/2000/svg" xmlns:xlink="http://www.w3.org/1999/xlink" viewBox="0 0 165.69 192.97"><defs><style>.cls-1{fill:#684389;}.cls-2{font-size:6.56px;font-family:MyriadPro-Bold, MyriadPro Bold;font-weight:700;}.cls-12,.cls-2,.cls-4{fill:#222e7d;}.cls-3{letter-spacing:-0.08em;}.cls-5{fill:#9b83ba;}.cls-11,.cls-6{fill:#e6e6e6;}.cls-10,.cls-11,.cls-6,.cls-7,.cls-8,.cls-9{stroke:#b3b3b3;}.cls-10,.cls-11,.cls-12,.cls-13,.cls-6,.cls-7,.cls-8,.cls-9{stroke-miterlimit:10;}.cls-6,.cls-7,.cls-8{stroke-width:0.57px;}.cls-10,.cls-14,.cls-7,.cls-9{fill:#fff;}.cls-8{fill:#b3b3b3;}.cls-11,.cls-9{stroke-width:0.51px;}.cls-10{stroke-width:0.48px;}.cls-12{stroke:#fff;stroke-width:0.32px;}.cls-13,.cls-16{fill:#90f0f8;}.cls-13{stroke:#2e3192;stroke-width:0.47px;}.cls-15{fill:url(#linear-gradient);}.cls-17{font-size:5.63px;font-family:Rubik-Regular, Rubik;}.cls-18{letter-spacing:-0.04em;}</style><linearGradient id="linear-gradient" x1="83.73" y1="173.28" x2="83.73" y2="154.53" gradientUnits="userSpaceOnUse"><stop offset="0" stop-color="#243082"/><stop offset="0.16" stop-color="#393484"/><stop offset="0.48" stop-color="#6f3e89"/><stop offset="0.95" stop-color="#c54f90"/><stop offset="1" stop-color="#cf5191"/></linearGradient></defs><title>papers</title><g id="Layer_2" data-name="Layer 2"><g id="Layer_2-2" data-name="Layer 2"><polygon class="cls-1" points="142.33 133.2 24.66 133.2 49.5 104.57 120.31 104.37 142.33 133.2"/><text class="cls-2" transform="translate(74.56 149.25)"><tspan class="cls-3">P</tspan><tspan x="2.94" y="0">APER</tspan></text><polygon class="cls-4" points="111.63 133.2 58.18 133.2 49.27 104.6 120.53 104.6 111.63 133.2"/><polygon class="cls-5" points="147.25 136.01 18.8 136.01 47.4 103.19 122.17 102.96 147.25 136.01"/><path class="cls-6" d="M131.8,139.58c-44.56,21.82-64.08,20-102.06.31l15-8.61c28.56,13.52,47.74,12.58,77-.61Z"/><path class="cls-7" d="M134.54,134.66c-44.56,21.82-64.08,20-102.06.31l15-8.6c28.56,13.51,47.74,12.57,77-.62Z"/><path class="cls-8" d="M129.06,128.52C84.5,150.34,65,148.49,27,128.83l15-8.61c28.56,13.51,47.74,12.57,77-.61Z"/><path class="cls-7" d="M135.91,121.45c-44.56,21.82-64.08,20-102.06.31l15-8.61c28.56,13.51,47.74,12.57,77-.61Z"/><path class="cls-6" d="M130.43,115.92c-44.56,21.82-64.08,20-102.06.31l15-8.61c28.56,13.51,47.74,12.57,77-.61Z"/><path class="cls-9" d="M123.58,111c-36,21.82-51.78,20-82.47.31l12.15-8.61c23.08,13.52,38.58,12.58,62.23-.61Z"/><path class="cls-10" d="M117.56,105.78c-31.83,21.82-45.76,20-72.88.3l10.73-8.6c20.4,13.51,34.09,12.57,55-.62Z"/><path class="cls-8" d="M132.6,111.45c-44.57,21.82-64.09,20-102.06.31l15-8.6c28.57,13.51,47.74,12.57,77-.62Z"/><path class="cls-6" d="M135.34,106.54c-44.57,21.82-64.09,20-102.06.3l15-8.6c28.56,13.51,47.74,12.57,77-.62Z"/><path class="cls-7" d="M129.86,100.39c-44.57,21.82-64.09,20-102.06.31l15-8.61c28.57,13.51,47.74,12.57,77-.61Z"/><path class="cls-8" d="M136.71,93.32c-44.57,21.82-64.09,20-102.06.31l15-8.61c28.56,13.52,47.74,12.58,77-.61Z"/><path class="cls-7" d="M131.23,87.79c-44.57,21.82-64.09,20-102.06.31l15-8.61c28.57,13.51,47.74,12.57,77-.61Z"/><path class="cls-11" d="M124.38,82.87c-36,21.82-51.79,20-82.47.31l12.14-8.6C77.14,88.09,92.63,87.15,116.28,74Z"/><path class="cls-10" d="M118.35,77.65c-31.83,21.82-45.76,20-72.88.31L56.2,69.35c20.4,13.51,34.09,12.57,55-.61Z"/><polygon class="cls-12" points="131.78 190.16 35.68 190.16 23.96 139.76 143.5 139.76 131.78 190.16"/><rect class="cls-13" x="115.38" y="187.58" width="4.69" height="5.16"/><rect class="cls-13" x="47.4" y="186.64" width="4.69" height="5.16"/><path class="cls-14" d="M68.49,140.23H99a0,0,0,0,1,0,0v24A13.32,13.32,0,0,1,85.65,177.5H81.81a13.32,13.32,0,0,1-13.32-13.32v-24a0,0,0,0,1,0,0Z"/><path class="cls-15" d="M75.62,163.42l-1.2-.77,4.22-.49,1.5,3.93L79,165.34c-1.16,1.87-2.22,4.07-1.54,6.17-2-1.66-3.06-2.94-3.06-4.48A9.1,9.1,0,0,1,75.62,163.42Zm3.17,4.39A4.4,4.4,0,0,0,78.2,171a.91.91,0,0,0,.89.73H83v-3.91Zm8.36,4.05v1.42L84.52,170l2.63-3.35V168c2.21,0,4.53-.26,6-1.94-.38,2.54-.89,4.14-2.19,5A9.32,9.32,0,0,1,87.15,171.86Zm2.09-5a4.4,4.4,0,0,0,3-1.17.91.91,0,0,0,.15-1.15l-2-3.27-3.32,2.06Zm-.73-9,1.25-.67-1.63,3.92L84,160.45l1.23-.66c-1.07-1.93-2.47-3.93-4.63-4.37a11.35,11.35,0,0,1,3.7-.89C86,154.53,87,155.52,88.51,157.81Zm-5.39.62a4.41,4.41,0,0,0-2.49-2.06.92.92,0,0,0-1.07.42l-1.88,3.37,3.41,1.91Z"/><polygon class="cls-16" points="146.32 139.76 19.74 139.76 18.8 136.01 147.25 136.01 146.32 139.76"/><text class="cls-17" transform="translate(75.62 149.08)"><tspan class="cls-18">P</tspan><tspan x="3.37" y="0">APER</tspan></text><path d="M6.46.24A8.44,8.44,0,0,1,8.68.53a5.38,5.38,0,0,1,1.83.89A4.29,4.29,0,0,1,11.77,3a5.06,5.06,0,0,1,.47,2.26,4.61,4.61,0,0,1-1,3.09A5.27,5.27,0,0,1,8.78,9.94l3.63,6.31a.54.54,0,0,1,.07.26A.55.55,0,0,1,12,17h-1a.94.94,0,0,1-.71-.24,2.21,2.21,0,0,1-.32-.41L6.41,10.27H2.28v6.12a.62.62,0,0,1-.19.46.62.62,0,0,1-.46.19h-1a.62.62,0,0,1-.46-.19A.62.62,0,0,1,0,16.39V.89A.62.62,0,0,1,.19.43.62.62,0,0,1,.65.24ZM2.28,8.11H6.34A4.54,4.54,0,0,0,9,7.43a2.57,2.57,0,0,0,1-2.22A2.41,2.41,0,0,0,9,3,4.71,4.71,0,0,0,6.34,2.4H2.28Z"/><path d="M14.62,9.6a6.37,6.37,0,0,1,.52-2.06,6,6,0,0,1,1.13-1.68,5,5,0,0,1,1.67-1.13,5.59,5.59,0,0,1,2.17-.41,6,6,0,0,1,2.32.42A4.75,4.75,0,0,1,24.17,6a5.34,5.34,0,0,1,1.1,1.92,7.66,7.66,0,0,1,.39,2.52V11a.63.63,0,0,1-.2.46.65.65,0,0,1-.45.19H16.75v.14a3.22,3.22,0,0,0,3.36,3.39,4.1,4.1,0,0,0,2-.38A4,4,0,0,0,23.16,14a1.41,1.41,0,0,1,.34-.27,1,1,0,0,1,.43-.07h.72a.72.72,0,0,1,.48.19.49.49,0,0,1,.17.46,2.7,2.7,0,0,1-.41.95,3.85,3.85,0,0,1-1,1,6.18,6.18,0,0,1-1.59.74,7.36,7.36,0,0,1-2.22.3A5.34,5.34,0,0,1,18,16.86a5.14,5.14,0,0,1-1.67-1.15A5.91,5.91,0,0,1,15.14,14a6.9,6.9,0,0,1-.52-2.17A10.21,10.21,0,0,1,14.62,9.6Zm2.13.07H23.5V9.6a3.05,3.05,0,0,0-.93-2.34,3.43,3.43,0,0,0-2.46-.88,3.65,3.65,0,0,0-1.29.23,3.19,3.19,0,0,0-1.06.65,3.14,3.14,0,0,0-.72,1,3.54,3.54,0,0,0-.29,1.32Z"/><path d="M30.17,11.64a4.69,4.69,0,0,0,.42,1.63,3.58,3.58,0,0,0,.79,1.11,3,3,0,0,0,1,.63,3.46,3.46,0,0,0,1.18.21,4.15,4.15,0,0,0,2-.44,2.84,2.84,0,0,0,1.27-1.44,1.28,1.28,0,0,1,.35-.51.72.72,0,0,1,.44-.13h.72a.66.66,0,0,1,.47.19.51.51,0,0,1,.18.45,3.14,3.14,0,0,1-.37,1.26,4.34,4.34,0,0,1-1,1.28,6.05,6.05,0,0,1-4,1.4,5.92,5.92,0,0,1-2.34-.43,5.06,5.06,0,0,1-1.73-1.18,5.26,5.26,0,0,1-1.1-1.75A6.65,6.65,0,0,1,28,11.76c0-.26,0-.57,0-.95a7.25,7.25,0,0,1,0-1,7.58,7.58,0,0,1,.5-2.16,5.23,5.23,0,0,1,1.09-1.75,4.94,4.94,0,0,1,1.7-1.18,5.84,5.84,0,0,1,2.33-.43,6.05,6.05,0,0,1,4,1.4,4.34,4.34,0,0,1,1,1.28A3.14,3.14,0,0,1,39,8.26a.51.51,0,0,1-.18.45.66.66,0,0,1-.47.19h-.72a.72.72,0,0,1-.44-.13,1.28,1.28,0,0,1-.35-.51,2.84,2.84,0,0,0-1.27-1.44,4.15,4.15,0,0,0-2-.44,3.51,3.51,0,0,0-1.19.21,3,3,0,0,0-1,.63,3.6,3.6,0,0,0-.8,1.11A4.7,4.7,0,0,0,30.17,10,9.42,9.42,0,0,0,30.17,11.64Z"/><path d="M45.17,21a1.37,1.37,0,0,1-.24.39.58.58,0,0,1-.46.19h-1a.58.58,0,0,1-.58-.58.38.38,0,0,1,0-.16l2.3-5L40.49,5.3a.38.38,0,0,1,0-.16A.58.58,0,0,1,41,4.56h1a.58.58,0,0,1,.46.19,1.37,1.37,0,0,1,.24.39l3.7,8.16,3.74-8.16a1.37,1.37,0,0,1,.24-.39.56.56,0,0,1,.46-.19h1a.58.58,0,0,1,.41.17.57.57,0,0,1,.17.41.38.38,0,0,1,0,.16Z"/><path d="M56,11.64a4.92,4.92,0,0,0,.42,1.63,3.75,3.75,0,0,0,.79,1.11,3,3,0,0,0,1,.63,3.36,3.36,0,0,0,1.17.21,4.12,4.12,0,0,0,2-.44,2.84,2.84,0,0,0,1.27-1.44,1.28,1.28,0,0,1,.35-.51.73.73,0,0,1,.45-.13h.71a.64.64,0,0,1,.47.19.51.51,0,0,1,.18.45,3,3,0,0,1-.37,1.26,4.18,4.18,0,0,1-1,1.28,6.21,6.21,0,0,1-1.68,1,6.12,6.12,0,0,1-2.32.41,5.92,5.92,0,0,1-2.34-.43,5,5,0,0,1-1.72-1.18,5.13,5.13,0,0,1-1.11-1.75,6.65,6.65,0,0,1-.44-2.16c0-.26,0-.57,0-.95a5.79,5.79,0,0,1,0-1,7.57,7.57,0,0,1,.49-2.16,5.4,5.4,0,0,1,1.09-1.75,4.94,4.94,0,0,1,1.7-1.18,5.87,5.87,0,0,1,2.33-.43,6.12,6.12,0,0,1,2.32.41,6.21,6.21,0,0,1,1.68,1,4.18,4.18,0,0,1,1,1.28,3,3,0,0,1,.37,1.26.51.51,0,0,1-.18.45.64.64,0,0,1-.47.19h-.71A.73.73,0,0,1,63,8.77a1.28,1.28,0,0,1-.35-.51,2.84,2.84,0,0,0-1.27-1.44,4.12,4.12,0,0,0-2-.44,3.46,3.46,0,0,0-1.18.21,2.93,2.93,0,0,0-1.06.63,3.58,3.58,0,0,0-.79,1.11A4.48,4.48,0,0,0,56,10,9.42,9.42,0,0,0,56,11.64Z"/><path d="M69.89,16.39a.66.66,0,0,1-.19.46.62.62,0,0,1-.46.19h-.89a.58.58,0,0,1-.45-.19.63.63,0,0,1-.2-.46V.65a.63.63,0,0,1,.2-.46A.58.58,0,0,1,68.35,0h.89a.62.62,0,0,1,.46.19.66.66,0,0,1,.19.46Z"/><path d="M75.91,2a.61.61,0,0,1-.19.45.62.62,0,0,1-.46.19H73.9a.62.62,0,0,1-.46-.19A.61.61,0,0,1,73.25,2V.65a.62.62,0,0,1,.19-.46A.62.62,0,0,1,73.9,0h1.36a.62.62,0,0,1,.46.19.62.62,0,0,1,.19.46Zm-.24,14.37A.65.65,0,0,1,75,17h-.88a.65.65,0,0,1-.65-.65V5.21a.65.65,0,0,1,.65-.65H75a.65.65,0,0,1,.65.65Z"/><path d="M90.36,16.39a.66.66,0,0,1-.19.46.62.62,0,0,1-.46.19h-.89a.6.6,0,0,1-.45-.19.63.63,0,0,1-.2-.46V10.06a3.8,3.8,0,0,0-.88-2.76,3.74,3.74,0,0,0-4.91,0,3.68,3.68,0,0,0-.92,2.76v6.33a.63.63,0,0,1-.2.46.61.61,0,0,1-.45.19h-.89a.65.65,0,0,1-.65-.65V5.21a.65.65,0,0,1,.65-.65h.89a.61.61,0,0,1,.45.19.63.63,0,0,1,.2.46V6a4.31,4.31,0,0,1,1.35-1.11,4.66,4.66,0,0,1,2.36-.52,5.67,5.67,0,0,1,2.09.37,4.73,4.73,0,0,1,1.65,1.06A4.68,4.68,0,0,1,90,7.44a6.19,6.19,0,0,1,.39,2.26Z"/><path d="M93.24,10a7.62,7.62,0,0,1,.5-2.38A5.59,5.59,0,0,1,94.9,5.84a5,5,0,0,1,1.69-1.12,5.38,5.38,0,0,1,2.1-.4,4.63,4.63,0,0,1,2.37.52A4.43,4.43,0,0,1,102.41,6V5.21a.62.62,0,0,1,.19-.46.61.61,0,0,1,.45-.19h.89a.65.65,0,0,1,.65.65V16.87a5.45,5.45,0,0,1-1.42,4,5.59,5.59,0,0,1-4.24,1.48A7.71,7.71,0,0,1,96.47,22a5.52,5.52,0,0,1-1.68-.87,3.73,3.73,0,0,1-1-1.14,2.84,2.84,0,0,1-.34-1.2.53.53,0,0,1,.17-.45.67.67,0,0,1,.47-.19h.72a.73.73,0,0,1,.45.13,1.39,1.39,0,0,1,.35.51,2.88,2.88,0,0,0,.22.39,2,2,0,0,0,.51.5,3.09,3.09,0,0,0,.91.43,4.75,4.75,0,0,0,1.43.18,6.83,6.83,0,0,0,1.47-.16,3.22,3.22,0,0,0,1.19-.52,2.31,2.31,0,0,0,.78-1,3.52,3.52,0,0,0,.28-1.46V15.65A4.27,4.27,0,0,1,101,16.79a4.83,4.83,0,0,1-2.35.49,5.38,5.38,0,0,1-2.1-.4,5,5,0,0,1-1.69-1.12A5.59,5.59,0,0,1,93.74,14a7.62,7.62,0,0,1-.5-2.38c0-.24,0-.5,0-.79S93.22,10.25,93.24,10Zm9.17-.07a3.74,3.74,0,0,0-1-2.63,3.37,3.37,0,0,0-2.46-.93,3.21,3.21,0,0,0-2.5,1,4.33,4.33,0,0,0-1,2.74c0,.45,0,.89,0,1.34a4.33,4.33,0,0,0,1,2.74,3.21,3.21,0,0,0,2.5,1,3.38,3.38,0,0,0,2.46-.94,3.77,3.77,0,0,0,1-2.62c0-.24,0-.52,0-.86S102.42,10.18,102.41,9.94Z"/><path d="M120.57,16.39a.62.62,0,0,1-.19.46.61.61,0,0,1-.45.19h-1a.6.6,0,0,1-.45-.19.63.63,0,0,1-.2-.46V3.17l-3.88,3a.52.52,0,0,1-.48.14.74.74,0,0,1-.44-.24l-.57-.74a.59.59,0,0,1-.13-.48.59.59,0,0,1,.25-.43L118.17.43a1,1,0,0,1,.39-.17l.38,0h1a.61.61,0,0,1,.45.19.62.62,0,0,1,.19.46Z"/><path d="M140,.24a.6.6,0,0,1,.45.19.63.63,0,0,1,.2.46v.86a.63.63,0,0,1-.2.46.6.6,0,0,1-.45.19h-4.49v14a.65.65,0,0,1-.65.65h-1a.65.65,0,0,1-.65-.65V2.4h-4.49a.6.6,0,0,1-.45-.19.63.63,0,0,1-.2-.46V.89a.63.63,0,0,1,.2-.46.6.6,0,0,1,.45-.19Z"/><path d="M145.87,4.32a6.13,6.13,0,0,1,2.3.4,5,5,0,0,1,1.73,1.09A5,5,0,0,1,151,7.5a7.19,7.19,0,0,1,.52,2.17c0,.15,0,.32,0,.52v1.25c0,.2,0,.36,0,.49a7.66,7.66,0,0,1-.53,2.18,4.83,4.83,0,0,1-1.13,1.68,5,5,0,0,1-1.73,1.09,6.81,6.81,0,0,1-4.6,0,5,5,0,0,1-2.87-2.77,7,7,0,0,1-.52-2.18c0-.13,0-.29,0-.49s0-.41,0-.63,0-.42,0-.62,0-.37,0-.52a7.19,7.19,0,0,1,.52-2.17,5,5,0,0,1,1.14-1.69,5,5,0,0,1,1.73-1.09A6.13,6.13,0,0,1,145.87,4.32Zm3.5,7.49a7.23,7.23,0,0,0,0-1,7.72,7.72,0,0,0,0-1,4.77,4.77,0,0,0-.31-1.34,3.13,3.13,0,0,0-.67-1.08,2.93,2.93,0,0,0-1.06-.72,4.08,4.08,0,0,0-2.92,0,2.93,2.93,0,0,0-1.06.72,3.13,3.13,0,0,0-.67,1.08,4.77,4.77,0,0,0-.31,1.34,7.72,7.72,0,0,0-.05,1,7.23,7.23,0,0,0,.05,1,4.77,4.77,0,0,0,.31,1.34,3.13,3.13,0,0,0,.67,1.08,2.93,2.93,0,0,0,1.06.72,4.08,4.08,0,0,0,2.92,0,2.93,2.93,0,0,0,1.06-.72,3.13,3.13,0,0,0,.67-1.08A4.77,4.77,0,0,0,149.37,11.81Z"/><path d="M165.69,16.39a.62.62,0,0,1-.19.46.61.61,0,0,1-.45.19h-.89a.65.65,0,0,1-.65-.65V10.06a3.8,3.8,0,0,0-.89-2.76,3.27,3.27,0,0,0-2.47-.92,3.33,3.33,0,0,0-2.44.92,3.72,3.72,0,0,0-.92,2.76v6.33a.65.65,0,0,1-.65.65h-.89a.61.61,0,0,1-.45-.19.62.62,0,0,1-.19-.46V5.21a.62.62,0,0,1,.19-.46.61.61,0,0,1,.45-.19h.89a.65.65,0,0,1,.65.65V6a4.36,4.36,0,0,1,1.36-1.11,4.64,4.64,0,0,1,2.36-.52,5.71,5.71,0,0,1,2.09.37,4.6,4.6,0,0,1,1.64,1.06,4.7,4.7,0,0,1,1.07,1.69,6.19,6.19,0,0,1,.38,2.26Z"/><path d="M8.4,33.12a6.13,6.13,0,0,1,2.3.4,5,5,0,0,1,1.73,1.09,5,5,0,0,1,1.14,1.69,7.19,7.19,0,0,1,.52,2.17c0,.15,0,.32,0,.52v1.25c0,.2,0,.36,0,.49a7.66,7.66,0,0,1-.53,2.18,4.83,4.83,0,0,1-1.13,1.68,5,5,0,0,1-1.73,1.09,6.13,6.13,0,0,1-2.3.4,6.13,6.13,0,0,1-2.3-.4,5,5,0,0,1-2.87-2.77,7,7,0,0,1-.52-2.18c0-.13,0-.29,0-.49s0-.41,0-.63,0-.42,0-.62,0-.37,0-.52a7.19,7.19,0,0,1,.52-2.17,5,5,0,0,1,1.14-1.69A5,5,0,0,1,6.1,33.52,6.13,6.13,0,0,1,8.4,33.12Zm3.5,7.49a7.23,7.23,0,0,0,0-1,7.72,7.72,0,0,0,0-1,4.77,4.77,0,0,0-.31-1.34,3.13,3.13,0,0,0-.67-1.08,2.93,2.93,0,0,0-1.06-.72,3.62,3.62,0,0,0-1.46-.27,3.62,3.62,0,0,0-1.46.27,2.93,2.93,0,0,0-1.06.72,3.13,3.13,0,0,0-.67,1.08,4.77,4.77,0,0,0-.31,1.34,7.72,7.72,0,0,0-.05,1,7.23,7.23,0,0,0,.05,1A4.77,4.77,0,0,0,5.21,42,3.13,3.13,0,0,0,5.88,43a2.93,2.93,0,0,0,1.06.72A3.62,3.62,0,0,0,8.4,44a3.62,3.62,0,0,0,1.46-.27A2.93,2.93,0,0,0,10.92,43,3.13,3.13,0,0,0,11.59,42,4.77,4.77,0,0,0,11.9,40.61Z"/><path d="M20.45,33.36H23.5a.61.61,0,0,1,.45.19.62.62,0,0,1,.19.46v.77a.65.65,0,0,1-.64.64H20.45v9.77a.66.66,0,0,1-.19.46.62.62,0,0,1-.46.19h-.89a.6.6,0,0,1-.45-.19.63.63,0,0,1-.2-.46V35.42h-2a.62.62,0,0,1-.46-.19.61.61,0,0,1-.19-.45V34a.65.65,0,0,1,.65-.65h2v-1.2a4.41,4.41,0,0,1,.94-3.06,3.92,3.92,0,0,1,3-1h1.52a.61.61,0,0,1,.45.19.62.62,0,0,1,.19.46v.77a.65.65,0,0,1-.64.64H22.46a3,3,0,0,0-1,.16,1.4,1.4,0,0,0-.61.44,1.88,1.88,0,0,0-.3.69,4.54,4.54,0,0,0-.08.85Z"/><path d="M31.25,35.3a7.57,7.57,0,0,1,.46-2.53,5.93,5.93,0,0,1,3.35-3.45,7.85,7.85,0,0,1,5.62,0,5.9,5.9,0,0,1,2.06,1.39A6,6,0,0,1,44,32.77a7.83,7.83,0,0,1,.47,2.53c0,1.43,0,2.85,0,4.28a8.13,8.13,0,0,1-.5,2.53,5.93,5.93,0,0,1-3.33,3.47,8.09,8.09,0,0,1-5.6,0,5.93,5.93,0,0,1-3.33-3.47,7.84,7.84,0,0,1-.49-2.53C31.2,38.15,31.2,36.73,31.25,35.3Zm11,.12a6,6,0,0,0-.37-2,3.61,3.61,0,0,0-2.25-2.22,5.42,5.42,0,0,0-3.44,0,3.71,3.71,0,0,0-1.35.82,4,4,0,0,0-.91,1.4,5.31,5.31,0,0,0-.36,2c0,.72-.05,1.4-.05,2s0,1.3.05,2a5.31,5.31,0,0,0,.36,2,4,4,0,0,0,.91,1.4,3.71,3.71,0,0,0,1.35.82,5.42,5.42,0,0,0,3.44,0,3.61,3.61,0,0,0,2.25-2.22,6,6,0,0,0,.37-2c0-.72,0-1.4,0-2S42.25,36.14,42.21,35.42Z"/><path d="M65,45.19a.63.63,0,0,1-.2.46.6.6,0,0,1-.45.19h-.89a.62.62,0,0,1-.46-.19.66.66,0,0,1-.19-.46V35.42H58.49v9.77a.66.66,0,0,1-.19.46.62.62,0,0,1-.46.19H57a.6.6,0,0,1-.45-.19.63.63,0,0,1-.2-.46V35.42H51.24v9.77a.65.65,0,0,1-.65.65H49.7a.61.61,0,0,1-.45-.19.62.62,0,0,1-.19-.46V35.42H47a.62.62,0,0,1-.46-.19.65.65,0,0,1-.19-.45V34a.66.66,0,0,1,.19-.46.62.62,0,0,1,.46-.19h2v-1.2A4.41,4.41,0,0,1,50,29.1a3.94,3.94,0,0,1,3-1h1.51a.6.6,0,0,1,.45.19.63.63,0,0,1,.2.46v.77A.62.62,0,0,1,55,30a.6.6,0,0,1-.45.19H53.26a2.87,2.87,0,0,0-1,.16,1.37,1.37,0,0,0-.62.44,1.88,1.88,0,0,0-.3.69,4.54,4.54,0,0,0-.08.85v1.08H56.3v-1.2a4.41,4.41,0,0,1,.94-3.06,3.92,3.92,0,0,1,3-1h4.11a.6.6,0,0,1,.45.19.63.63,0,0,1,.2.46v.77a.62.62,0,0,1-.2.45.6.6,0,0,1-.45.19H60.5a3,3,0,0,0-1,.16,1.4,1.4,0,0,0-.61.44,1.88,1.88,0,0,0-.3.69,4.54,4.54,0,0,0-.08.85v1.08h5.88a.6.6,0,0,1,.45.19A.63.63,0,0,1,65,34Z"/><path d="M70.22,40.44a5.17,5.17,0,0,0,.42,1.63,3.75,3.75,0,0,0,.79,1.11,3.07,3.07,0,0,0,1,.63,3.36,3.36,0,0,0,1.17.21,4.12,4.12,0,0,0,2-.44,2.8,2.8,0,0,0,1.27-1.44,1.39,1.39,0,0,1,.35-.51.73.73,0,0,1,.45-.13h.72a.63.63,0,0,1,.46.19.51.51,0,0,1,.18.45,3,3,0,0,1-.37,1.26,4.18,4.18,0,0,1-1,1.28,6.21,6.21,0,0,1-1.68,1,6.12,6.12,0,0,1-2.32.41,5.92,5.92,0,0,1-2.34-.43,5,5,0,0,1-1.72-1.18,5.28,5.28,0,0,1-1.11-1.75A6.65,6.65,0,0,1,68,40.56c0-.26,0-.57,0-1a7.09,7.09,0,0,1,0-1,7.57,7.57,0,0,1,.49-2.16,5.4,5.4,0,0,1,1.09-1.75,5,5,0,0,1,1.71-1.18,5.79,5.79,0,0,1,2.32-.43,6.12,6.12,0,0,1,2.32.41,6.21,6.21,0,0,1,1.68,1,4.18,4.18,0,0,1,1,1.28,3,3,0,0,1,.37,1.26.51.51,0,0,1-.18.45.63.63,0,0,1-.46.19h-.72a.73.73,0,0,1-.45-.13,1.39,1.39,0,0,1-.35-.51,2.8,2.8,0,0,0-1.27-1.44,4.12,4.12,0,0,0-2-.44,3.46,3.46,0,0,0-1.18.21,2.93,2.93,0,0,0-1.06.63,3.58,3.58,0,0,0-.79,1.11,4.48,4.48,0,0,0-.4,1.63A9.42,9.42,0,0,0,70.22,40.44Z"/><path d="M81.36,38.4a6.13,6.13,0,0,1,.53-2.06A5.74,5.74,0,0,1,83,34.66a5.08,5.08,0,0,1,1.67-1.13,5.59,5.59,0,0,1,2.17-.41,6,6,0,0,1,2.32.42,4.75,4.75,0,0,1,1.74,1.21A5.34,5.34,0,0,1,92,36.67a7.66,7.66,0,0,1,.39,2.52v.65a.65.65,0,0,1-.65.65H83.5v.14A3.21,3.21,0,0,0,86.85,44a4.1,4.1,0,0,0,2-.38,4,4,0,0,0,1.07-.82,1.41,1.41,0,0,1,.34-.27,1,1,0,0,1,.43-.07h.72a.68.68,0,0,1,.48.19.49.49,0,0,1,.17.46,2.7,2.7,0,0,1-.41.95,3.69,3.69,0,0,1-1,1,6.11,6.11,0,0,1-1.58.74,7.48,7.48,0,0,1-2.23.3,5.34,5.34,0,0,1-2.16-.42A5.1,5.1,0,0,1,83,44.51a5.54,5.54,0,0,1-1.14-1.73,6.65,6.65,0,0,1-.53-2.17A10.21,10.21,0,0,1,81.36,38.4Zm2.14.07h6.74V38.4a3.05,3.05,0,0,0-.93-2.34,3.43,3.43,0,0,0-2.46-.88,3.65,3.65,0,0,0-1.29.23,3.29,3.29,0,0,0-1.06.65,3.14,3.14,0,0,0-.72,1,3.54,3.54,0,0,0-.28,1.32Z"/><path d="M108.12,29a8,8,0,0,1,2.22.3,5.34,5.34,0,0,1,1.83.92,4.5,4.5,0,0,1,1.26,1.59,5,5,0,0,1,.47,2.28,5.12,5.12,0,0,1-.47,2.29A4.6,4.6,0,0,1,112.17,38a5.25,5.25,0,0,1-1.83,1,7.68,7.68,0,0,1-2.22.31H103.7v5.88a.65.65,0,0,1-.65.65h-1a.62.62,0,0,1-.46-.19.66.66,0,0,1-.19-.46V29.69a.66.66,0,0,1,.19-.46.62.62,0,0,1,.46-.19Zm-4.42,8.11H108a4.26,4.26,0,0,0,2.67-.74,2.71,2.71,0,0,0,1-2.28,2.55,2.55,0,0,0-1-2.23,4.4,4.4,0,0,0-2.67-.7h-4.3Z"/><path d="M115.39,42.7a3.59,3.59,0,0,1,.38-1.68,3.78,3.78,0,0,1,1.06-1.23A5.67,5.67,0,0,1,118.4,39a11.35,11.35,0,0,1,1.91-.48l3.38-.56v-.31a2.13,2.13,0,0,0-.8-1.83,3.2,3.2,0,0,0-2-.62,2.72,2.72,0,0,0-1.6.39,3.79,3.79,0,0,0-.92.91.7.7,0,0,1-.32.26,1.1,1.1,0,0,1-.45.08h-.72a.67.67,0,0,1-.47-.2.5.5,0,0,1-.18-.45,2.29,2.29,0,0,1,.42-1.08,3.67,3.67,0,0,1,1-1,6,6,0,0,1,1.46-.7,5.38,5.38,0,0,1,1.77-.28,6.17,6.17,0,0,1,2,.31,4.4,4.4,0,0,1,1.58.91,4.21,4.21,0,0,1,1,1.49,5.38,5.38,0,0,1,.37,2v7.32a.66.66,0,0,1-.19.46.62.62,0,0,1-.46.19h-.89a.6.6,0,0,1-.45-.19.63.63,0,0,1-.2-.46v-1a2.1,2.1,0,0,1-.67.8,4.54,4.54,0,0,1-1,.59,6.24,6.24,0,0,1-1.23.36,6.38,6.38,0,0,1-1.18.12,5.49,5.49,0,0,1-1.72-.26,4.36,4.36,0,0,1-1.32-.71,3.12,3.12,0,0,1-.84-1.07A3.06,3.06,0,0,1,115.39,42.7ZM119.81,44a4.48,4.48,0,0,0,1.58-.27,3.73,3.73,0,0,0,1.24-.73,3.21,3.21,0,0,0,.79-1.12,3.7,3.7,0,0,0,.27-1.44v-.6l-2.83.46a6.84,6.84,0,0,0-2.4.77,1.57,1.57,0,0,0-.89,1.37,1.23,1.23,0,0,0,.12.52,1.51,1.51,0,0,0,.39.51,1.78,1.78,0,0,0,.68.38A3.15,3.15,0,0,0,119.81,44Z"/><path d="M135.29,46.08a4.64,4.64,0,0,1-2.38-.52,4.38,4.38,0,0,1-1.34-1.11v5.3a.63.63,0,0,1-.2.46.6.6,0,0,1-.45.19H130a.62.62,0,0,1-.46-.19.66.66,0,0,1-.19-.46V34a.66.66,0,0,1,.19-.46.62.62,0,0,1,.46-.19h.89a.6.6,0,0,1,.45.19.63.63,0,0,1,.2.46v.74a4.23,4.23,0,0,1,1.36-1.14,4.87,4.87,0,0,1,2.36-.49,5.42,5.42,0,0,1,2.1.4,4.86,4.86,0,0,1,1.69,1.14,5.51,5.51,0,0,1,1.15,1.8,7,7,0,0,1,.5,2.37q0,.36,0,.78t0,.78a7.09,7.09,0,0,1-.5,2.38,5.57,5.57,0,0,1-1.15,1.79,5.09,5.09,0,0,1-1.69,1.12A5.42,5.42,0,0,1,135.29,46.08Zm-3.72-7.51c0,.24,0,.55,0,1s0,.7,0,.94a3.65,3.65,0,0,0,1,2.63,3.36,3.36,0,0,0,2.46.93,3.2,3.2,0,0,0,2.49-1,4.28,4.28,0,0,0,1-2.74c0-.45,0-.89,0-1.34a4.28,4.28,0,0,0-1-2.74,3.2,3.2,0,0,0-2.49-1,3.33,3.33,0,0,0-3.48,3.39Z"/><path d="M143.16,38.4a6.13,6.13,0,0,1,.53-2.06,5.74,5.74,0,0,1,1.12-1.68,5,5,0,0,1,1.67-1.13,5.59,5.59,0,0,1,2.17-.41,6,6,0,0,1,2.32.42,4.75,4.75,0,0,1,1.74,1.21,5.34,5.34,0,0,1,1.1,1.92,7.66,7.66,0,0,1,.39,2.52v.65a.65.65,0,0,1-.65.65h-8.26v.14a3.43,3.43,0,0,0,1,2.51,3.36,3.36,0,0,0,2.36.88,4.1,4.1,0,0,0,2-.38,4,4,0,0,0,1.07-.82,1.41,1.41,0,0,1,.34-.27,1,1,0,0,1,.43-.07h.72a.68.68,0,0,1,.48.19.49.49,0,0,1,.17.46,2.7,2.7,0,0,1-.41.95,3.69,3.69,0,0,1-1,1,6,6,0,0,1-1.59.74,7.36,7.36,0,0,1-2.22.3,5.34,5.34,0,0,1-2.16-.42,5.1,5.1,0,0,1-1.66-1.15,5.54,5.54,0,0,1-1.14-1.73,6.65,6.65,0,0,1-.53-2.17A10.21,10.21,0,0,1,143.16,38.4Zm2.13.07H152V38.4a3.05,3.05,0,0,0-.93-2.34,3.43,3.43,0,0,0-2.46-.88,3.65,3.65,0,0,0-1.29.23,3.29,3.29,0,0,0-1.06.65,3.14,3.14,0,0,0-.72,1,3.75,3.75,0,0,0-.29,1.32Z"/><path d="M163.44,33.36a.6.6,0,0,1,.45.19.63.63,0,0,1,.2.46v.77a.62.62,0,0,1-.2.45.6.6,0,0,1-.45.19h-1.39a2.44,2.44,0,0,0-2.76,2.76v7a.63.63,0,0,1-.2.46.6.6,0,0,1-.45.19h-.89a.62.62,0,0,1-.46-.19.66.66,0,0,1-.19-.46V34a.66.66,0,0,1,.19-.46.62.62,0,0,1,.46-.19h.89a.6.6,0,0,1,.45.19.63.63,0,0,1,.2.46v.74a2.94,2.94,0,0,1,1.15-1,3.84,3.84,0,0,1,1.75-.34Z"/></g></g></svg>