<svg xmlns="http://www.w3.org/2000/svg" xmlns:xlink="http://www.w3.org/1999/xlink" viewBox="0 0 169.44 196.33"><defs><style>.cls-1{fill:#684389;}.cls-2{font-size:6.56px;font-family:MyriadPro-Bold, MyriadPro Bold;font-weight:700;}.cls-12,.cls-2,.cls-4{fill:#222e7d;}.cls-3{letter-spacing:-0.08em;}.cls-5{fill:#9b83ba;}.cls-11,.cls-6{fill:#e6e6e6;}.cls-10,.cls-11,.cls-6,.cls-7,.cls-8,.cls-9{stroke:#b3b3b3;}.cls-10,.cls-11,.cls-12,.cls-13,.cls-6,.cls-7,.cls-8,.cls-9{stroke-miterlimit:10;}.cls-6,.cls-7,.cls-8{stroke-width:0.57px;}.cls-10,.cls-14,.cls-7,.cls-9{fill:#fff;}.cls-8{fill:#b3b3b3;}.cls-11,.cls-9{stroke-width:0.51px;}.cls-10{stroke-width:0.48px;}.cls-12{stroke:#fff;stroke-width:0.32px;}.cls-13,.cls-16{fill:#90f0f8;}.cls-13{stroke:#2e3192;stroke-width:0.47px;}.cls-15{fill:url(#linear-gradient);}.cls-17{font-size:5.63px;}.cls-17,.cls-19{font-family:Rubik-Regular, Rubik;}.cls-18{letter-spacing:-0.04em;}.cls-19{font-size:24px;}.cls-20{letter-spacing:-0.01em;}.cls-21{letter-spacing:-0.02em;}.cls-22{letter-spacing:-0.02em;}.cls-23{letter-spacing:0em;}.cls-24{letter-spacing:-0.03em;}.cls-25{letter-spacing:-0.09em;}.cls-26{letter-spacing:-0.01em;}.cls-27{letter-spacing:-0.02em;}.cls-28{letter-spacing:-0.01em;}.cls-29{letter-spacing:-0.02em;}</style><linearGradient id="linear-gradient" x1="85.8" y1="176.64" x2="85.8" y2="157.89" gradientUnits="userSpaceOnUse"><stop offset="0" stop-color="#243082"/><stop offset="0.16" stop-color="#393484"/><stop offset="0.48" stop-color="#6f3e89"/><stop offset="0.95" stop-color="#c54f90"/><stop offset="1" stop-color="#cf5191"/></linearGradient></defs><title>papers</title><g id="Layer_2" data-name="Layer 2"><g id="Layer_2-2" data-name="Layer 2"><polygon class="cls-1" points="144.4 136.56 26.73 136.56 51.57 107.93 122.37 107.72 144.4 136.56"/><text class="cls-2" transform="translate(76.63 152.61)"><tspan class="cls-3">P</tspan><tspan x="2.94" y="0">APER</tspan></text><polygon class="cls-4" points="113.69 136.56 60.24 136.56 51.34 107.96 122.6 107.96 113.69 136.56"/><polygon class="cls-5" points="149.32 139.37 20.86 139.37 49.46 106.55 124.24 106.32 149.32 139.37"/><path class="cls-6" d="M133.87,142.94c-44.57,21.82-64.09,20-102.06.31l15-8.61c28.57,13.51,47.74,12.58,77-.61Z"/><path class="cls-7" d="M136.61,138c-44.57,21.82-64.09,20-102.06.31l15-8.6c28.57,13.51,47.74,12.57,77-.62Z"/><path class="cls-8" d="M131.13,131.88c-44.57,21.82-64.09,20-102.06.3l15-8.6c28.57,13.51,47.74,12.57,77-.61Z"/><path class="cls-7" d="M138,124.81c-44.57,21.82-64.09,20-102.06.31l15-8.61c28.57,13.51,47.74,12.57,77-.61Z"/><path class="cls-6" d="M132.5,119.28c-44.57,21.82-64.09,20-102.06.31l15-8.61c28.57,13.51,47.74,12.57,77-.61Z"/><path class="cls-9" d="M125.65,114.36c-36,21.82-51.78,20-82.47.31l12.15-8.61c23.08,13.51,38.57,12.57,62.22-.61Z"/><path class="cls-10" d="M119.62,109.14c-31.82,21.82-45.76,20-72.88.3l10.74-8.6c20.39,13.51,34.09,12.57,55-.62Z"/><path class="cls-8" d="M134.66,114.81c-44.57,21.82-64.08,20-102.06.31l15-8.61c28.57,13.52,47.74,12.58,77-.61Z"/><path class="cls-6" d="M137.4,109.9c-44.57,21.81-64.08,20-102.06.3l15-8.6c28.57,13.51,47.74,12.57,77-.62Z"/><path class="cls-7" d="M131.92,103.75c-44.57,21.82-64.08,20-102.06.31l15-8.61c28.57,13.51,47.74,12.57,77-.61Z"/><path class="cls-8" d="M138.77,96.68c-44.57,21.82-64.08,20-102.06.31l15-8.61c28.57,13.51,47.74,12.58,77-.61Z"/><path class="cls-7" d="M133.29,91.15c-44.57,21.82-64.08,20-102.06.31l15-8.61c28.57,13.51,47.74,12.57,77-.61Z"/><path class="cls-11" d="M126.44,86.23c-36,21.82-51.78,20-82.47.31l12.15-8.61c23.08,13.52,38.57,12.58,62.22-.61Z"/><path class="cls-10" d="M120.41,81c-31.82,21.82-45.76,20-72.88.31l10.74-8.61c20.4,13.51,34.09,12.57,55-.61Z"/><polygon class="cls-12" points="133.85 193.52 37.74 193.52 26.02 143.12 145.57 143.12 133.85 193.52"/><rect class="cls-13" x="117.44" y="190.94" width="4.69" height="5.16"/><rect class="cls-13" x="49.46" y="190" width="4.69" height="5.16"/><path class="cls-14" d="M70.56,143.59H101a0,0,0,0,1,0,0v24a13.32,13.32,0,0,1-13.32,13.32H83.88a13.32,13.32,0,0,1-13.32-13.32v-24a0,0,0,0,1,0,0Z"/><path class="cls-15" d="M77.68,166.78l-1.2-.77,4.22-.49,1.5,3.93L81,168.7c-1.16,1.87-2.22,4.07-1.55,6.17-2-1.66-3-2.94-3-4.48A9.08,9.08,0,0,1,77.68,166.78Zm3.17,4.39a4.45,4.45,0,0,0-.59,3.18.91.91,0,0,0,.9.73H85v-3.91Zm8.37,4v1.43l-2.64-3.33L89.22,170v1.41c2.2,0,4.53-.26,6-1.94-.38,2.54-.88,4.14-2.19,4.95A9.11,9.11,0,0,1,89.22,175.21Zm2.08-5a4.43,4.43,0,0,0,3-1.17.92.92,0,0,0,.14-1.15l-2-3.27-3.32,2.06Zm-.73-9,1.26-.67-1.64,3.92L86,163.81l1.24-.66c-1.08-1.93-2.48-3.93-4.63-4.37a11.24,11.24,0,0,1,3.7-.89C88.09,157.89,89.1,158.88,90.57,161.17Zm-5.38.62a4.47,4.47,0,0,0-2.49-2.06.91.91,0,0,0-1.07.42l-1.88,3.37,3.41,1.91Z"/><polygon class="cls-16" points="148.38 143.12 21.8 143.12 20.86 139.37 149.32 139.37 148.38 143.12"/><text class="cls-17" transform="translate(77.68 152.44)"><tspan class="cls-18">P</tspan><tspan x="3.37" y="0">APER</tspan></text><text class="cls-19" transform="translate(0 20.4)"><tspan class="cls-20">R</tspan><tspan x="15.46" y="0">e</tspan><tspan class="cls-21" x="28.82" y="0">c</tspan><tspan class="cls-22" x="41.76" y="0">y</tspan><tspan class="cls-23" x="54.65" y="0">cling 1</tspan><tspan class="cls-24" x="124.42" y="0"> </tspan><tspan class="cls-25" x="129.65" y="0">T</tspan><tspan class="cls-23" x="141.02" y="0">on</tspan><tspan class="cls-26" x="3.55" y="28.8">o</tspan><tspan class="cls-27" x="17.21" y="28.8">f</tspan><tspan x="26.02" y="28.8" xml:space="preserve"> Office </tspan><tspan class="cls-28" x="101.42" y="28.8">P</tspan><tspan x="116.54" y="28.8">ape</tspan><tspan class="cls-29" x="157.37" y="28.8">r</tspan></text></g></g></svg>