<svg xmlns="http://www.w3.org/2000/svg" xmlns:xlink="http://www.w3.org/1999/xlink" viewBox="0 0 127.11 161.5"><defs><style>.cls-1,.cls-2{stroke:#fff;stroke-miterlimit:10;}.cls-1{stroke-width:0.86px;fill:url(#linear-gradient);}.cls-2{stroke-width:0.93px;fill:url(#linear-gradient-2);}</style><linearGradient id="linear-gradient" x1="63.37" y1="61.09" x2="63.37" y2="38.74" gradientUnits="userSpaceOnUse"><stop offset="0" stop-color="#243082"/><stop offset="0.16" stop-color="#393484"/><stop offset="0.48" stop-color="#6f3e89"/><stop offset="0.95" stop-color="#c54f90"/><stop offset="1" stop-color="#cf5191"/></linearGradient><linearGradient id="linear-gradient-2" x1="63.37" y1="161.04" x2="63.37" y2="65.58" xlink:href="#linear-gradient"/></defs><title>person</title><g id="Layer_2" data-name="Layer 2"><g id="Layer_2-2" data-name="Layer 2"><path d="M0,6.5A7.57,7.57,0,0,1,.5,4,5.93,5.93,0,0,1,3.85.52,7.08,7.08,0,0,1,6.66,0,7.08,7.08,0,0,1,9.47.52,5.93,5.93,0,0,1,12.82,4a7.57,7.57,0,0,1,.46,2.53c.05,1.43.05,2.85,0,4.28a7.84,7.84,0,0,1-.49,2.53,5.93,5.93,0,0,1-3.33,3.47,7.36,7.36,0,0,1-2.8.5,7.36,7.36,0,0,1-2.8-.5A5.93,5.93,0,0,1,.53,13.31,7.84,7.84,0,0,1,0,10.78C0,9.35,0,7.93,0,6.5Zm11,.12a6,6,0,0,0-.37-2A3.61,3.61,0,0,0,8.38,2.44a5,5,0,0,0-1.72-.28,5,5,0,0,0-1.72.28,3.71,3.71,0,0,0-1.35.82,3.82,3.82,0,0,0-.91,1.4,5.31,5.31,0,0,0-.36,2c0,.72,0,1.4,0,2s0,1.3,0,2a5.31,5.31,0,0,0,.36,2A3.82,3.82,0,0,0,3.59,14a3.71,3.71,0,0,0,1.35.82,5,5,0,0,0,1.72.28,5,5,0,0,0,1.72-.28,3.61,3.61,0,0,0,2.25-2.22,6,6,0,0,0,.37-2c0-.72.05-1.4.05-2S11,7.34,11,6.62Z"/><path d="M27.83,17a.79.79,0,0,1-.57-.23,2.63,2.63,0,0,1-.39-.49L19.07,4.58V16.39a.66.66,0,0,1-.19.46.62.62,0,0,1-.46.19h-1a.65.65,0,0,1-.65-.65V.89A.62.62,0,0,1,17,.43a.62.62,0,0,1,.46-.19h.84a.77.77,0,0,1,.56.23,3.17,3.17,0,0,1,.4.49L27,12.7V.89a.62.62,0,0,1,.19-.46.61.61,0,0,1,.45-.19h1a.6.6,0,0,1,.45.19.63.63,0,0,1,.2.46v15.5a.63.63,0,0,1-.2.46.6.6,0,0,1-.45.19Z"/><path d="M43.79,14.88a.61.61,0,0,1,.45.19.63.63,0,0,1,.2.46v.86a.63.63,0,0,1-.2.46.61.61,0,0,1-.45.19h-9.7a.6.6,0,0,1-.45-.19.63.63,0,0,1-.2-.46V.89a.63.63,0,0,1,.2-.46.6.6,0,0,1,.45-.19H43.6a.61.61,0,0,1,.45.19.62.62,0,0,1,.19.46v.86a.62.62,0,0,1-.19.46.61.61,0,0,1-.45.19H35.72V7.46h7.35a.69.69,0,0,1,.65.65V9a.62.62,0,0,1-.2.45.6.6,0,0,1-.45.19H35.72v5.26Z"/><path d="M59.15,17.28a4.67,4.67,0,0,1-2.38-.52,4.38,4.38,0,0,1-1.34-1.11V21a.66.66,0,0,1-.19.46.62.62,0,0,1-.46.19h-.89a.6.6,0,0,1-.45-.19.63.63,0,0,1-.2-.46V5.21a.63.63,0,0,1,.2-.46.6.6,0,0,1,.45-.19h.89a.62.62,0,0,1,.46.19.66.66,0,0,1,.19.46V6A4.17,4.17,0,0,1,56.8,4.81a4.8,4.8,0,0,1,2.35-.49,5.42,5.42,0,0,1,2.1.4,4.77,4.77,0,0,1,1.69,1.14,5.51,5.51,0,0,1,1.15,1.8A7.23,7.23,0,0,1,64.6,10c0,.24,0,.5,0,.78s0,.54,0,.78A7.35,7.35,0,0,1,64.09,14a5.57,5.57,0,0,1-1.15,1.79,5,5,0,0,1-1.69,1.12A5.42,5.42,0,0,1,59.15,17.28ZM55.43,9.77c0,.24,0,.55,0,1s0,.7,0,.94a3.74,3.74,0,0,0,1,2.63,3.36,3.36,0,0,0,2.46.93,3.19,3.19,0,0,0,2.49-1,4.28,4.28,0,0,0,1-2.74c0-.45,0-.89,0-1.34a4.28,4.28,0,0,0-1-2.74,3.19,3.19,0,0,0-2.49-1,3.42,3.42,0,0,0-2.45.92A3.47,3.47,0,0,0,55.43,9.77Z"/><path d="M67,9.6a6.13,6.13,0,0,1,.53-2.06,5.77,5.77,0,0,1,1.13-1.68,4.94,4.94,0,0,1,1.66-1.13,5.65,5.65,0,0,1,2.18-.41,6,6,0,0,1,2.31.42A4.75,4.75,0,0,1,76.57,6a5.51,5.51,0,0,1,1.11,1.92,7.94,7.94,0,0,1,.38,2.52V11a.62.62,0,0,1-.19.46.66.66,0,0,1-.46.19H69.16v.14a3.21,3.21,0,0,0,3.36,3.39,4.1,4.1,0,0,0,2-.38A4,4,0,0,0,75.56,14a1.41,1.41,0,0,1,.34-.27,1,1,0,0,1,.43-.07h.72a.68.68,0,0,1,.48.19.47.47,0,0,1,.17.46,2.53,2.53,0,0,1-.41.95,3.69,3.69,0,0,1-1,1,6,6,0,0,1-1.58.74,7.45,7.45,0,0,1-2.22.3,5.42,5.42,0,0,1-2.17-.42,5.2,5.2,0,0,1-1.66-1.15A5.91,5.91,0,0,1,67.55,14,6.65,6.65,0,0,1,67,11.81,10.21,10.21,0,0,1,67,9.6Zm2.14.07H75.9V9.6A3.08,3.08,0,0,0,75,7.26a3.46,3.46,0,0,0-2.46-.88,3.66,3.66,0,0,0-1.3.23,3.29,3.29,0,0,0-1.06.65,3.14,3.14,0,0,0-.72,1,3.54,3.54,0,0,0-.28,1.32Z"/><path d="M87.3,4.56a.6.6,0,0,1,.45.19.63.63,0,0,1,.2.46V6a.62.62,0,0,1-.2.45.6.6,0,0,1-.45.19H85.91a2.44,2.44,0,0,0-2.76,2.76v7a.63.63,0,0,1-.2.46.6.6,0,0,1-.45.19h-.89a.62.62,0,0,1-.46-.19.66.66,0,0,1-.19-.46V5.21a.66.66,0,0,1,.19-.46.62.62,0,0,1,.46-.19h.89a.6.6,0,0,1,.45.19.63.63,0,0,1,.2.46V6a2.94,2.94,0,0,1,1.15-1,3.84,3.84,0,0,1,1.75-.34Z"/><path d="M97.14,13.58a1.11,1.11,0,0,0-.25-.75,2.07,2.07,0,0,0-.76-.52,9.28,9.28,0,0,0-1.28-.41c-.52-.12-1.13-.26-1.82-.4a4.74,4.74,0,0,1-2.72-1.36,3.39,3.39,0,0,1,.37-4.74,4.08,4.08,0,0,1,1.46-.79,6.58,6.58,0,0,1,2-.29,7.4,7.4,0,0,1,2,.26,5.48,5.48,0,0,1,1.48.68,3.46,3.46,0,0,1,.91.87A1.81,1.81,0,0,1,99,7a.52.52,0,0,1-.18.46.64.64,0,0,1-.47.19h-.79a1.22,1.22,0,0,1-.34-.06.72.72,0,0,1-.38-.28,2.24,2.24,0,0,0-.92-.68,4.27,4.27,0,0,0-1.69-.28,3.46,3.46,0,0,0-1.79.41,1.25,1.25,0,0,0-.68,1.13,1.24,1.24,0,0,0,.19.73,1.37,1.37,0,0,0,.62.48,5.65,5.65,0,0,0,1.14.37c.47.12,1.06.25,1.77.41a8.25,8.25,0,0,1,1.84.61,4.38,4.38,0,0,1,1.2.84,2.75,2.75,0,0,1,.65,1,3.56,3.56,0,0,1,.19,1.18A3,3,0,0,1,99,15a3.7,3.7,0,0,1-1,1.17,5.29,5.29,0,0,1-1.57.82,6.53,6.53,0,0,1-2.1.31A7,7,0,0,1,92.22,17a6.27,6.27,0,0,1-1.56-.71,3.71,3.71,0,0,1-1-.91,1.84,1.84,0,0,1-.37-.92.54.54,0,0,1,.17-.46.65.65,0,0,1,.48-.19h.86a1.48,1.48,0,0,1,.34,0,.56.56,0,0,1,.36.27,2.45,2.45,0,0,0,1.06.82,4.49,4.49,0,0,0,1.75.29,4.55,4.55,0,0,0,1-.12,3.75,3.75,0,0,0,.91-.34,2,2,0,0,0,.64-.52A1,1,0,0,0,97.14,13.58Z"/><path d="M107.29,4.32a6.13,6.13,0,0,1,2.3.4,5,5,0,0,1,1.73,1.09,5,5,0,0,1,1.14,1.69A7.19,7.19,0,0,1,113,9.67c0,.15,0,.32,0,.52v1.25c0,.2,0,.36,0,.49a7.66,7.66,0,0,1-.53,2.18,4.83,4.83,0,0,1-1.13,1.68,5,5,0,0,1-1.73,1.09,6.81,6.81,0,0,1-4.6,0,5,5,0,0,1-2.87-2.77,7,7,0,0,1-.52-2.18c0-.13,0-.29,0-.49s0-.41,0-.63,0-.42,0-.62,0-.37,0-.52a7.19,7.19,0,0,1,.52-2.17,5,5,0,0,1,1.14-1.69A5,5,0,0,1,105,4.72,6.13,6.13,0,0,1,107.29,4.32Zm3.5,7.49a7.23,7.23,0,0,0,0-1,7.72,7.72,0,0,0,0-1,4.77,4.77,0,0,0-.31-1.34,3.13,3.13,0,0,0-.67-1.08,2.93,2.93,0,0,0-1.06-.72,4.08,4.08,0,0,0-2.92,0,2.93,2.93,0,0,0-1.06.72,3.13,3.13,0,0,0-.67,1.08,4.77,4.77,0,0,0-.31,1.34,7.72,7.72,0,0,0-.05,1,7.23,7.23,0,0,0,.05,1,4.77,4.77,0,0,0,.31,1.34,3.13,3.13,0,0,0,.67,1.08,2.93,2.93,0,0,0,1.06.72,4.08,4.08,0,0,0,2.92,0,2.93,2.93,0,0,0,1.06-.72,3.13,3.13,0,0,0,.67-1.08A4.77,4.77,0,0,0,110.79,11.81Z"/><path d="M127.11,16.39a.62.62,0,0,1-.19.46.61.61,0,0,1-.45.19h-.89a.65.65,0,0,1-.65-.65V10.06A3.76,3.76,0,0,0,124,7.3a3.72,3.72,0,0,0-4.9,0,3.68,3.68,0,0,0-.93,2.76v6.33a.65.65,0,0,1-.65.65h-.88a.65.65,0,0,1-.65-.65V5.21a.65.65,0,0,1,.65-.65h.88a.65.65,0,0,1,.65.65V6a4.48,4.48,0,0,1,1.36-1.11,4.64,4.64,0,0,1,2.36-.52,5.71,5.71,0,0,1,2.09.37,4.61,4.61,0,0,1,2.71,2.75,6.19,6.19,0,0,1,.38,2.26Z"/><circle class="cls-1" cx="63.37" cy="49.91" r="11.18"/><path class="cls-2" d="M75.1,65.58H51.65a8.85,8.85,0,0,0-8.82,8.83v31.38a12.21,12.21,0,0,0,9.28,11.8v36.16A7.31,7.31,0,0,0,59.4,161h7.95a7.31,7.31,0,0,0,7.29-7.29V117.59a12.21,12.21,0,0,0,9.28-11.8V74.41A8.85,8.85,0,0,0,75.1,65.58Z"/></g></g></svg>