<svg xmlns="http://www.w3.org/2000/svg" xmlns:xlink="http://www.w3.org/1999/xlink" viewBox="0 0 130.2 164.86"><defs><style>.cls-1{font-size:24px;font-family:Rubik-Regular, Rubik;}.cls-2,.cls-3{stroke:#fff;stroke-miterlimit:10;}.cls-2{stroke-width:0.86px;fill:url(#linear-gradient);}.cls-3{stroke-width:0.93px;fill:url(#linear-gradient-2);}</style><linearGradient id="linear-gradient" x1="64.78" y1="64.45" x2="64.78" y2="42.1" gradientUnits="userSpaceOnUse"><stop offset="0" stop-color="#243082"/><stop offset="0.16" stop-color="#393484"/><stop offset="0.48" stop-color="#6f3e89"/><stop offset="0.95" stop-color="#c54f90"/><stop offset="1" stop-color="#cf5191"/></linearGradient><linearGradient id="linear-gradient-2" x1="64.78" y1="164.4" x2="64.78" y2="68.94" xlink:href="#linear-gradient"/></defs><title>person_1</title><g id="Layer_2" data-name="Layer 2"><g id="Layer_2-2" data-name="Layer 2"><text class="cls-1" transform="translate(0 20.4)">ONE person</text><circle class="cls-2" cx="64.78" cy="53.27" r="11.18"/><path class="cls-3" d="M76.51,68.94H53.05a8.85,8.85,0,0,0-8.82,8.83v31.38A12.21,12.21,0,0,0,53.51,121v36.16a7.31,7.31,0,0,0,7.29,7.29h8a7.31,7.31,0,0,0,7.29-7.29V121a12.21,12.21,0,0,0,9.28-11.8V77.77A8.85,8.85,0,0,0,76.51,68.94Z"/></g></g></svg>