<?xml version="1.0" encoding="utf-8"?>
<!-- Generator: Adobe Illustrator 19.0.0, SVG Export Plug-In . SVG Version: 6.00 Build 0)  -->
<svg version="1.1" id="Layer_1" xmlns="http://www.w3.org/2000/svg" xmlns:xlink="http://www.w3.org/1999/xlink" x="0px" y="0px"
	 viewBox="-223 25 512 512" style="enable-background:new -223 25 512 512;" xml:space="preserve">
<path class="st0" d="M274.9,522.9c-18.8,18.8-49.2,18.8-68,0L122,438c-34.9,22.4-76.1,35.7-120.7,35.7
	c-123.9,0-224.4-100.5-224.4-224.4S-122.5,25,1.4,25c123.9,0,224.4,100.5,224.4,224.4c0,44.5-13.4,85.8-35.7,120.7l84.9,84.9
	C293.7,473.7,293.7,504.1,274.9,522.9z M1.4,89.1c-88.5,0-160.3,71.7-160.3,160.3S-87.1,409.7,1.4,409.7
	c88.5,0,160.3-71.7,160.3-160.3C161.7,160.9,89.9,89.1,1.4,89.1z"/>
</svg>
