<svg xmlns="http://www.w3.org/2000/svg" xmlns:xlink="http://www.w3.org/1999/xlink" viewBox="0 0 249.3 251.87"><defs><style>.cls-1{font-size:24px;font-family:Rubik-Regular, Rubik;}.cls-2{letter-spacing:-0.01em;}.cls-3{letter-spacing:-0.02em;}.cls-4{letter-spacing:-0.02em;}.cls-5{letter-spacing:0em;}.cls-6{letter-spacing:-0.01em;}.cls-7{letter-spacing:0em;}.cls-8{letter-spacing:-0.02em;}.cls-9{letter-spacing:-0.02em;}.cls-10{letter-spacing:-0.03em;}.cls-11{letter-spacing:-0.02em;}.cls-12{letter-spacing:-0.02em;}.cls-13{fill:url(#linear-gradient);}.cls-14{fill:url(#linear-gradient-2);}.cls-15{font-size:19.05px;}.cls-15,.cls-20{font-family:ProzaLibre-Bold, Proza Libre;font-weight:700;}.cls-16{letter-spacing:-0.04em;}.cls-17{fill:url(#linear-gradient-3);}.cls-18{fill:url(#linear-gradient-4);}.cls-19{fill:url(#linear-gradient-5);}.cls-20{font-size:11.84px;}.cls-21{fill:url(#linear-gradient-6);}</style><linearGradient id="linear-gradient" x1="186.78" y1="155.03" x2="186.78" y2="251.87" gradientUnits="userSpaceOnUse"><stop offset="0" stop-color="#67deff"/><stop offset="0.14" stop-color="#65d9fb"/><stop offset="0.32" stop-color="#5ec9ef"/><stop offset="0.51" stop-color="#54b0db"/><stop offset="0.72" stop-color="#468dbf"/><stop offset="0.94" stop-color="#33609c"/><stop offset="1" stop-color="#2d5191"/></linearGradient><linearGradient id="linear-gradient-2" x1="176.74" y1="150.59" x2="198.3" y2="150.59" gradientUnits="userSpaceOnUse"><stop offset="0" stop-color="#67deff"/><stop offset="0.19" stop-color="#5ec9ef"/><stop offset="0.57" stop-color="#4893c5"/><stop offset="1" stop-color="#2d5191"/></linearGradient><linearGradient id="linear-gradient-3" x1="62.52" y1="154.27" x2="62.52" y2="251.11" xlink:href="#linear-gradient"/><linearGradient id="linear-gradient-4" x1="52.47" y1="149.83" x2="74.03" y2="149.83" xlink:href="#linear-gradient-2"/><linearGradient id="linear-gradient-5" x1="124.27" y1="92.6" x2="124.27" y2="155.19" gradientUnits="userSpaceOnUse"><stop offset="0" stop-color="#67deff"/><stop offset="0.13" stop-color="#64d7fa"/><stop offset="0.32" stop-color="#5cc4eb"/><stop offset="0.54" stop-color="#50a5d3"/><stop offset="0.79" stop-color="#3e7bb1"/><stop offset="1" stop-color="#2d5191"/></linearGradient><linearGradient id="linear-gradient-6" x1="112.28" y1="87.53" x2="136.26" y2="87.53" xlink:href="#linear-gradient-2"/></defs><title>ton-electricity</title><g id="Layer_2" data-name="Layer 2"><g id="Layer_2-2" data-name="Layer 2"><text class="cls-1" transform="translate(9.18 20.4)">p<tspan class="cls-2" x="14.35" y="0">r</tspan><tspan class="cls-3" x="23.16" y="0">e</tspan><tspan class="cls-4" x="36.07" y="0">v</tspan><tspan class="cls-5" x="49.03" y="0">e</tspan><tspan class="cls-6" x="62.4" y="0">n</tspan><tspan class="cls-7" x="76.78" y="0">t </tspan><tspan class="cls-8" x="92.23" y="0">ov</tspan><tspan x="118.56" y="0">e</tspan><tspan class="cls-9" x="131.93" y="0">r</tspan><tspan x="140.45" y="0" xml:space="preserve"> 2</tspan><tspan class="cls-10" x="160.27" y="0"> </tspan><tspan class="cls-11" x="165.5" y="0">T</tspan><tspan class="cls-7" x="178.75" y="0">ONS </tspan><tspan class="cls-6" x="5.4" y="28.8">o</tspan><tspan class="cls-12" x="19.06" y="28.8">f</tspan><tspan class="cls-7" x="27.86" y="28.8" xml:space="preserve"> pollution pe</tspan><tspan class="cls-9" x="165.19" y="28.8">r</tspan><tspan class="cls-10" x="173.71" y="28.8"> </tspan><tspan class="cls-4" x="178.94" y="28.8">y</tspan><tspan x="191.83" y="28.8">ea</tspan><tspan class="cls-9" x="218.3" y="28.8">r</tspan></text><g id="over-2-ton"><g id="one-ton"><polygon class="cls-13" points="249.3 251.87 124.27 251.87 152.2 155.03 222.81 155.03 249.3 251.87"/><path class="cls-14" d="M193.73,145.5H181.55l-4.81,10.18H198.3ZM183.42,148h8.36l3.14,7h-14.8Z"/><text class="cls-15" transform="translate(182.86 200.35) rotate(0.12)">1<tspan class="cls-16" x="-17.72" y="22.87">T</tspan><tspan x="-5.51" y="22.87">ON</tspan></text></g><g id="one-ton-2" data-name="one-ton"><polygon class="cls-17" points="125.03 251.11 0 251.11 27.93 154.27 98.54 154.27 125.03 251.11"/><path class="cls-18" d="M69.46,144.74H57.28l-4.81,10.18H74Zm-10.31,2.51h8.36l3.14,7H55.85Z"/><text class="cls-15" transform="translate(58.59 199.32) rotate(0.12)">1<tspan class="cls-16" x="-17.72" y="22.87">T</tspan><tspan x="-5.51" y="22.87">ON</tspan></text></g><g id="_100-kg" data-name="100-kg"><polygon class="cls-19" points="164.68 155.19 83.86 155.19 101.92 92.6 147.55 92.6 164.68 155.19"/><text class="cls-20" transform="translate(104.35 125.08) rotate(0.12)">100 kg</text><path class="cls-21" d="M131.18,81.87H117.64l-5.36,11.32h24Zm-11.46,2.79H129l3.49,7.77H116Z"/></g></g></g></g></svg>