<svg xmlns="http://www.w3.org/2000/svg" xmlns:xlink="http://www.w3.org/1999/xlink" viewBox="0 0 249.3 248.51"><defs><style>.cls-1{fill:url(#linear-gradient);}.cls-2{fill:url(#linear-gradient-2);}.cls-3{font-size:19.05px;}.cls-3,.cls-8{font-family:ProzaLibre-Bold, Proza Libre;font-weight:700;}.cls-4{letter-spacing:-0.04em;}.cls-5{fill:url(#linear-gradient-3);}.cls-6{fill:url(#linear-gradient-4);}.cls-7{fill:url(#linear-gradient-5);}.cls-8{font-size:11.84px;}.cls-9{fill:url(#linear-gradient-6);}</style><linearGradient id="linear-gradient" x1="186.78" y1="151.67" x2="186.78" y2="248.51" gradientUnits="userSpaceOnUse"><stop offset="0" stop-color="#67deff"/><stop offset="0.14" stop-color="#65d9fb"/><stop offset="0.32" stop-color="#5ec9ef"/><stop offset="0.51" stop-color="#54b0db"/><stop offset="0.72" stop-color="#468dbf"/><stop offset="0.94" stop-color="#33609c"/><stop offset="1" stop-color="#2d5191"/></linearGradient><linearGradient id="linear-gradient-2" x1="176.74" y1="147.23" x2="198.3" y2="147.23" gradientUnits="userSpaceOnUse"><stop offset="0" stop-color="#67deff"/><stop offset="0.19" stop-color="#5ec9ef"/><stop offset="0.57" stop-color="#4893c5"/><stop offset="1" stop-color="#2d5191"/></linearGradient><linearGradient id="linear-gradient-3" x1="62.52" y1="150.91" x2="62.52" y2="247.75" xlink:href="#linear-gradient"/><linearGradient id="linear-gradient-4" x1="52.47" y1="146.47" x2="74.03" y2="146.47" xlink:href="#linear-gradient-2"/><linearGradient id="linear-gradient-5" x1="124.27" y1="89.24" x2="124.27" y2="151.83" gradientUnits="userSpaceOnUse"><stop offset="0" stop-color="#67deff"/><stop offset="0.13" stop-color="#64d7fa"/><stop offset="0.32" stop-color="#5cc4eb"/><stop offset="0.54" stop-color="#50a5d3"/><stop offset="0.79" stop-color="#3e7bb1"/><stop offset="1" stop-color="#2d5191"/></linearGradient><linearGradient id="linear-gradient-6" x1="112.28" y1="84.17" x2="136.26" y2="84.17" xlink:href="#linear-gradient-2"/></defs><title>ton-electricity</title><g id="Layer_2" data-name="Layer 2"><g id="Layer_2-2" data-name="Layer 2"><path d="M16.89,17.28a4.67,4.67,0,0,1-2.38-.52,4.38,4.38,0,0,1-1.34-1.11V21a.66.66,0,0,1-.19.46.62.62,0,0,1-.46.19h-.89a.6.6,0,0,1-.45-.19A.63.63,0,0,1,11,21V5.21a.63.63,0,0,1,.2-.46.6.6,0,0,1,.45-.19h.89a.62.62,0,0,1,.46.19.66.66,0,0,1,.19.46V6a4.17,4.17,0,0,1,1.37-1.14,4.8,4.8,0,0,1,2.35-.49,5.42,5.42,0,0,1,2.1.4,4.77,4.77,0,0,1,1.69,1.14,5.35,5.35,0,0,1,1.15,1.8A7.23,7.23,0,0,1,22.34,10c0,.24,0,.5,0,.78s0,.54,0,.78A7.35,7.35,0,0,1,21.83,14a5.4,5.4,0,0,1-1.15,1.79A5,5,0,0,1,19,16.88,5.42,5.42,0,0,1,16.89,17.28ZM13.17,9.77c0,.24,0,.55,0,1s0,.7,0,.94a3.74,3.74,0,0,0,1,2.63,3.36,3.36,0,0,0,2.46.93,3.19,3.19,0,0,0,2.49-1,4.28,4.28,0,0,0,1-2.74c0-.45,0-.89,0-1.34a4.28,4.28,0,0,0-1-2.74,3.19,3.19,0,0,0-2.49-1,3.42,3.42,0,0,0-2.45.92A3.47,3.47,0,0,0,13.17,9.77Z"/><path d="M31.67,4.56a.65.65,0,0,1,.65.65V6a.61.61,0,0,1-.19.45.62.62,0,0,1-.46.19H30.28a2.44,2.44,0,0,0-2.76,2.76v7a.65.65,0,0,1-.65.65H26a.61.61,0,0,1-.45-.19.62.62,0,0,1-.19-.46V5.21a.62.62,0,0,1,.19-.46A.61.61,0,0,1,26,4.56h.89a.65.65,0,0,1,.65.65V6a2.94,2.94,0,0,1,1.15-1,3.84,3.84,0,0,1,1.75-.34Z"/><path d="M33.57,9.6a6.13,6.13,0,0,1,.53-2.06,6,6,0,0,1,1.12-1.68,5.08,5.08,0,0,1,1.67-1.13,5.59,5.59,0,0,1,2.17-.41,6,6,0,0,1,2.32.42A4.75,4.75,0,0,1,43.12,6a5.34,5.34,0,0,1,1.1,1.92,7.66,7.66,0,0,1,.39,2.52V11a.62.62,0,0,1-.19.46.66.66,0,0,1-.46.19H35.71v.14a3.21,3.21,0,0,0,3.35,3.39,4.18,4.18,0,0,0,2-.38A4.14,4.14,0,0,0,42.11,14a1.41,1.41,0,0,1,.34-.27,1,1,0,0,1,.43-.07h.72a.68.68,0,0,1,.48.19.49.49,0,0,1,.17.46,2.7,2.7,0,0,1-.41.95,3.69,3.69,0,0,1-1,1,6.11,6.11,0,0,1-1.58.74,7.48,7.48,0,0,1-2.23.3,5.37,5.37,0,0,1-2.16-.42,5.1,5.1,0,0,1-1.66-1.15A5.72,5.72,0,0,1,34.1,14a6.65,6.65,0,0,1-.53-2.17A10.21,10.21,0,0,1,33.57,9.6Zm2.14.07h6.74V9.6a3.05,3.05,0,0,0-.93-2.34,3.43,3.43,0,0,0-2.46-.88,3.65,3.65,0,0,0-1.29.23,3.29,3.29,0,0,0-1.06.65,3.14,3.14,0,0,0-.72,1,3.54,3.54,0,0,0-.28,1.32Z"/><path d="M51.55,17a.63.63,0,0,1-.49-.19,1.66,1.66,0,0,1-.26-.41L46,5.3a.7.7,0,0,1,0-.16.58.58,0,0,1,.58-.58h.89a.7.7,0,0,1,.54.19,1.22,1.22,0,0,1,.25.39L52,13.85,55.7,5.14a1.37,1.37,0,0,1,.24-.39.55.55,0,0,1,.45-.19h1a.58.58,0,0,1,.41.17.56.56,0,0,1,.16.41.7.7,0,0,1,0,.16L53.15,16.44a1.61,1.61,0,0,1-.25.41.56.56,0,0,1-.47.19Z"/><path d="M59.44,9.6A6.38,6.38,0,0,1,60,7.54,5.77,5.77,0,0,1,61.1,5.86a4.94,4.94,0,0,1,1.66-1.13,5.65,5.65,0,0,1,2.18-.41,6,6,0,0,1,2.31.42A4.75,4.75,0,0,1,69,6,5.51,5.51,0,0,1,70.1,7.87a7.94,7.94,0,0,1,.38,2.52V11a.62.62,0,0,1-.19.46.66.66,0,0,1-.46.19H61.58v.14a3.21,3.21,0,0,0,3.36,3.39,4.1,4.1,0,0,0,2-.38A4,4,0,0,0,68,14a1.41,1.41,0,0,1,.34-.27,1,1,0,0,1,.43-.07h.72a.68.68,0,0,1,.48.19.47.47,0,0,1,.17.46,2.53,2.53,0,0,1-.41.95,3.69,3.69,0,0,1-1,1,6,6,0,0,1-1.58.74,7.41,7.41,0,0,1-2.22.3,5.34,5.34,0,0,1-2.16-.42,5.14,5.14,0,0,1-1.67-1.15A5.91,5.91,0,0,1,60,14a6.91,6.91,0,0,1-.53-2.17A10.21,10.21,0,0,1,59.44,9.6Zm2.14.07h6.74V9.6a3.08,3.08,0,0,0-.92-2.34,3.46,3.46,0,0,0-2.46-.88,3.66,3.66,0,0,0-1.3.23,3.15,3.15,0,0,0-1,.65,2.86,2.86,0,0,0-.72,1,3.36,3.36,0,0,0-.29,1.32Z"/><path d="M84.47,16.39a.65.65,0,0,1-.65.65h-.88a.65.65,0,0,1-.65-.65V10.06A3.8,3.8,0,0,0,81.4,7.3a3.29,3.29,0,0,0-2.47-.92,3.33,3.33,0,0,0-2.44.92,3.72,3.72,0,0,0-.92,2.76v6.33a.66.66,0,0,1-.19.46.62.62,0,0,1-.46.19H74a.6.6,0,0,1-.45-.19.63.63,0,0,1-.2-.46V5.21a.63.63,0,0,1,.2-.46A.6.6,0,0,1,74,4.56h.89a.62.62,0,0,1,.46.19.66.66,0,0,1,.19.46V6a4.31,4.31,0,0,1,1.35-1.11,4.68,4.68,0,0,1,2.37-.52,5.71,5.71,0,0,1,2.09.37,4.61,4.61,0,0,1,2.71,2.75,6.41,6.41,0,0,1,.38,2.26Z"/><path d="M91,12.84a3.82,3.82,0,0,0,.09.85,1.6,1.6,0,0,0,.3.69,1.34,1.34,0,0,0,.61.44A2.87,2.87,0,0,0,93,15h1.27a.62.62,0,0,1,.46.19.61.61,0,0,1,.19.45v.77a.65.65,0,0,1-.65.65H92.8a3.79,3.79,0,0,1-3-1.08,4.6,4.6,0,0,1-.94-3.12V6.62H87.06A.65.65,0,0,1,86.42,6V5.21a.62.62,0,0,1,.19-.46.61.61,0,0,1,.45-.19h1.78V.65A.62.62,0,0,1,89,.19.62.62,0,0,1,89.49,0h.89a.61.61,0,0,1,.45.19A.62.62,0,0,1,91,.65V4.56h3a.65.65,0,0,1,.65.65V6a.61.61,0,0,1-.19.45.62.62,0,0,1-.46.19H91Z"/><path d="M108.33,4.32a6.13,6.13,0,0,1,2.3.4A5,5,0,0,1,113.5,7.5,7.19,7.19,0,0,1,114,9.67c0,.15,0,.32,0,.52v1.25c0,.2,0,.36,0,.49a7.66,7.66,0,0,1-.53,2.18,4.83,4.83,0,0,1-1.13,1.68,5,5,0,0,1-1.73,1.09,6.84,6.84,0,0,1-4.61,0,5,5,0,0,1-2.86-2.77,6.77,6.77,0,0,1-.52-2.18c0-.13,0-.29,0-.49s0-.41,0-.63,0-.42,0-.62,0-.37,0-.52a6.9,6.9,0,0,1,.52-2.17A5,5,0,0,1,106,4.72,6.18,6.18,0,0,1,108.33,4.32Zm3.5,7.49a9.23,9.23,0,0,0,0-1,9.93,9.93,0,0,0,0-1,5.15,5.15,0,0,0-.31-1.34,3.13,3.13,0,0,0-.67-1.08,2.93,2.93,0,0,0-1.06-.72,3.62,3.62,0,0,0-1.46-.27,3.71,3.71,0,0,0-1.47.27,3,3,0,0,0-1,.72,3.13,3.13,0,0,0-.67,1.08,5.15,5.15,0,0,0-.32,1.34,10.2,10.2,0,0,0,0,1,9.53,9.53,0,0,0,0,1,5.15,5.15,0,0,0,.32,1.34,3.13,3.13,0,0,0,.67,1.08,3,3,0,0,0,1,.72,3.71,3.71,0,0,0,1.47.27,3.62,3.62,0,0,0,1.46-.27,2.93,2.93,0,0,0,1.06-.72,3.13,3.13,0,0,0,.67-1.08A5.15,5.15,0,0,0,111.83,11.81Z"/><path d="M121.07,17a.59.59,0,0,1-.48-.19,1.66,1.66,0,0,1-.26-.41L115.55,5.3a.7.7,0,0,1,0-.16.53.53,0,0,1,.17-.41.54.54,0,0,1,.4-.17H117a.7.7,0,0,1,.54.19,1.07,1.07,0,0,1,.25.39l3.72,8.71,3.72-8.71a1.37,1.37,0,0,1,.24-.39.59.59,0,0,1,.46-.19h1a.58.58,0,0,1,.58.58.7.7,0,0,1,0,.16l-4.78,11.14a2,2,0,0,1-.25.41A.57.57,0,0,1,122,17Z"/><path d="M129,9.6a6.13,6.13,0,0,1,.53-2.06,5.74,5.74,0,0,1,1.12-1.68,5,5,0,0,1,1.67-1.13,5.59,5.59,0,0,1,2.17-.41,6,6,0,0,1,2.32.42A4.75,4.75,0,0,1,138.52,6a5.34,5.34,0,0,1,1.1,1.92,7.66,7.66,0,0,1,.39,2.52V11a.65.65,0,0,1-.65.65H131.1v.14a3.43,3.43,0,0,0,1,2.51,3.36,3.36,0,0,0,2.36.88,4.1,4.1,0,0,0,2-.38,4,4,0,0,0,1.07-.82,1.41,1.41,0,0,1,.34-.27,1,1,0,0,1,.43-.07H139a.68.68,0,0,1,.48.19.49.49,0,0,1,.17.46,2.7,2.7,0,0,1-.41.95,3.69,3.69,0,0,1-1,1,6,6,0,0,1-1.59.74,7.36,7.36,0,0,1-2.22.3,5.34,5.34,0,0,1-2.16-.42,5.1,5.1,0,0,1-1.66-1.15A5.54,5.54,0,0,1,129.5,14a6.65,6.65,0,0,1-.53-2.17A10.21,10.21,0,0,1,129,9.6Zm2.13.07h6.75V9.6a3.05,3.05,0,0,0-.93-2.34,3.43,3.43,0,0,0-2.46-.88,3.65,3.65,0,0,0-1.29.23,3.29,3.29,0,0,0-1.06.65,3.14,3.14,0,0,0-.72,1,3.75,3.75,0,0,0-.29,1.32Z"/><path d="M149.25,4.56a.6.6,0,0,1,.45.19.63.63,0,0,1,.2.46V6a.62.62,0,0,1-.2.45.6.6,0,0,1-.45.19h-1.39a2.44,2.44,0,0,0-2.76,2.76v7a.63.63,0,0,1-.2.46.6.6,0,0,1-.45.19h-.89a.62.62,0,0,1-.46-.19.66.66,0,0,1-.19-.46V5.21a.66.66,0,0,1,.19-.46.62.62,0,0,1,.46-.19h.89a.6.6,0,0,1,.45.19.63.63,0,0,1,.2.46V6a2.94,2.94,0,0,1,1.15-1A3.84,3.84,0,0,1,148,4.56Z"/><path d="M164.2,8.21a4.91,4.91,0,0,0,1.08-1.32,3.7,3.7,0,0,0,.36-1.75A3.16,3.16,0,0,0,164.9,3a3,3,0,0,0-2.36-.85,3.73,3.73,0,0,0-1.42.24,2.77,2.77,0,0,0-1,.66,3.23,3.23,0,0,0-.62,1,7,7,0,0,0-.37,1.12.76.76,0,0,1-.26.4.57.57,0,0,1-.37.15h-1.1a.47.47,0,0,1-.37-.16.49.49,0,0,1-.16-.37,5,5,0,0,1,.41-1.8,5.28,5.28,0,0,1,1.1-1.66A5.86,5.86,0,0,1,160.16.48,5.62,5.62,0,0,1,162.54,0a6.21,6.21,0,0,1,2.33.41,4.86,4.86,0,0,1,1.68,1.1,4.68,4.68,0,0,1,1,1.63,5.76,5.76,0,0,1,.35,2,7.42,7.42,0,0,1-.12,1.39,4.64,4.64,0,0,1-.4,1.19,5.91,5.91,0,0,1-.7,1.09,9.68,9.68,0,0,1-1.06,1.08l-5.35,5h7.34a.65.65,0,0,1,.65.65v.86a.65.65,0,0,1-.65.65H157.29a.65.65,0,0,1-.65-.65v-.86a.85.85,0,0,1,.12-.46,2.25,2.25,0,0,1,.41-.45Z"/><path d="M187.14.24a.62.62,0,0,1,.46.19.62.62,0,0,1,.19.46v.86a.65.65,0,0,1-.65.65h-4.48v14a.63.63,0,0,1-.2.46A.6.6,0,0,1,182,17h-1a.61.61,0,0,1-.45-.19.62.62,0,0,1-.19-.46V2.4h-4.49a.65.65,0,0,1-.65-.65V.89a.62.62,0,0,1,.19-.46.62.62,0,0,1,.46-.19Z"/><path d="M189.38,6.5A7.57,7.57,0,0,1,189.84,4,5.93,5.93,0,0,1,193.19.52a7.85,7.85,0,0,1,5.62,0,6,6,0,0,1,2.06,1.39A5.83,5.83,0,0,1,202.15,4a7.33,7.33,0,0,1,.47,2.53c0,1.43,0,2.85,0,4.28a7.84,7.84,0,0,1-.49,2.53,6.11,6.11,0,0,1-1.28,2.07,5.93,5.93,0,0,1-2,1.4,8.09,8.09,0,0,1-5.6,0,5.84,5.84,0,0,1-2-1.4,6,6,0,0,1-1.28-2.07,7.84,7.84,0,0,1-.49-2.53C189.33,9.35,189.33,7.93,189.38,6.5Zm11,.12a6,6,0,0,0-.37-2,3.8,3.8,0,0,0-.9-1.4,3.8,3.8,0,0,0-1.35-.82,5.42,5.42,0,0,0-3.44,0,3.71,3.71,0,0,0-1.35.82,4,4,0,0,0-.92,1.4,5.75,5.75,0,0,0-.36,2c0,.72,0,1.4,0,2s0,1.3,0,2a5.75,5.75,0,0,0,.36,2,4,4,0,0,0,.92,1.4,3.71,3.71,0,0,0,1.35.82,5.42,5.42,0,0,0,3.44,0A3.61,3.61,0,0,0,200,12.62a6,6,0,0,0,.37-2c0-.72,0-1.4,0-2S200.37,7.34,200.34,6.62Z"/><path d="M217.17,17a.79.79,0,0,1-.57-.23,2.63,2.63,0,0,1-.39-.49l-7.8-11.74V16.39a.66.66,0,0,1-.19.46.62.62,0,0,1-.46.19h-1a.65.65,0,0,1-.65-.65V.89a.62.62,0,0,1,.19-.46.62.62,0,0,1,.46-.19h.84a.77.77,0,0,1,.56.23,3.17,3.17,0,0,1,.4.49l7.8,11.74V.89a.62.62,0,0,1,.19-.46A.61.61,0,0,1,217,.24h1a.6.6,0,0,1,.45.19.63.63,0,0,1,.2.46v15.5a.63.63,0,0,1-.2.46A.6.6,0,0,1,218,17Z"/><path d="M227.94,0a6.64,6.64,0,0,1,2.58.46,6.84,6.84,0,0,1,1.9,1.11A4.87,4.87,0,0,1,233.61,3,3.23,3.23,0,0,1,234,4.34a.44.44,0,0,1-.15.38.55.55,0,0,1-.38.15h-1a.82.82,0,0,1-.42-.09,1,1,0,0,1-.33-.44,4.8,4.8,0,0,0-.39-.61,3.46,3.46,0,0,0-.75-.72,4.68,4.68,0,0,0-1.14-.6,4.4,4.4,0,0,0-1.56-.25,4.88,4.88,0,0,0-1.28.16,3.69,3.69,0,0,0-1.09.46,2.49,2.49,0,0,0-.77.78,2.1,2.1,0,0,0-.29,1.1,1.87,1.87,0,0,0,.28,1,2.39,2.39,0,0,0,.89.78,7.61,7.61,0,0,0,1.54.64c.63.19,1.39.41,2.28.65a14.16,14.16,0,0,1,2.32.79,6.15,6.15,0,0,1,1.55,1,3.22,3.22,0,0,1,.87,1.25,4.51,4.51,0,0,1-.19,3.57,4.62,4.62,0,0,1-1.31,1.55,6.27,6.27,0,0,1-2,1,9.2,9.2,0,0,1-2.66.36,7.81,7.81,0,0,1-2.56-.41,7,7,0,0,1-2-1.05,5.59,5.59,0,0,1-1.33-1.44,3.18,3.18,0,0,1-.52-1.56.51.51,0,0,1,.16-.38.5.5,0,0,1,.37-.15h1a.93.93,0,0,1,.42.09.9.9,0,0,1,.33.44,3.53,3.53,0,0,0,.44.73,3.45,3.45,0,0,0,.81.74,4.78,4.78,0,0,0,1.22.59,5.41,5.41,0,0,0,1.7.24,6.43,6.43,0,0,0,1.6-.19,4.7,4.7,0,0,0,1.33-.55,2.82,2.82,0,0,0,.91-.87,1.93,1.93,0,0,0,.34-1.13,1.54,1.54,0,0,0-.39-1.06,3.38,3.38,0,0,0-1.1-.81A10.56,10.56,0,0,0,229,9.85q-1.05-.3-2.37-.63a9.39,9.39,0,0,1-2-.76,5.09,5.09,0,0,1-1.36-1,3.34,3.34,0,0,1-.76-1.27,4.92,4.92,0,0,1-.23-1.51,4.34,4.34,0,0,1,1.43-3.22,5.28,5.28,0,0,1,1.77-1A7.11,7.11,0,0,1,227.94,0Z"/><path d="M21.5,33.12a6.13,6.13,0,0,1,2.3.4,5,5,0,0,1,2.87,2.78,6.9,6.9,0,0,1,.51,2.17,3.94,3.94,0,0,1,0,.52v1.25a3.28,3.28,0,0,1,0,.49,7.66,7.66,0,0,1-.52,2.18,4.83,4.83,0,0,1-1.13,1.68,5,5,0,0,1-1.73,1.09,6.13,6.13,0,0,1-2.3.4,6.18,6.18,0,0,1-2.31-.4,5,5,0,0,1-1.72-1.09,4.86,4.86,0,0,1-1.14-1.68,6.77,6.77,0,0,1-.52-2.18c0-.13,0-.29,0-.49s0-.41,0-.63,0-.42,0-.62,0-.37,0-.52a6.9,6.9,0,0,1,.52-2.17,4.9,4.9,0,0,1,1.14-1.69,5,5,0,0,1,1.72-1.09A6.18,6.18,0,0,1,21.5,33.12ZM25,40.61a9.23,9.23,0,0,0,.05-1,9.93,9.93,0,0,0-.05-1,5.15,5.15,0,0,0-.31-1.34A3.29,3.29,0,0,0,24,36.17,2.93,2.93,0,0,0,23,35.45a3.62,3.62,0,0,0-1.46-.27,3.71,3.71,0,0,0-1.47.27,2.89,2.89,0,0,0-1.05.72,3.31,3.31,0,0,0-.68,1.08A5.15,5.15,0,0,0,18,38.59a10.2,10.2,0,0,0,0,1,9.53,9.53,0,0,0,0,1A5.15,5.15,0,0,0,18.3,42,3.31,3.31,0,0,0,19,43a2.89,2.89,0,0,0,1.05.72A3.71,3.71,0,0,0,21.5,44,3.62,3.62,0,0,0,23,43.75,2.93,2.93,0,0,0,24,43,3.29,3.29,0,0,0,24.69,42,5.15,5.15,0,0,0,25,40.61Z"/><path d="M33.55,33.36h3a.65.65,0,0,1,.65.65v.77a.61.61,0,0,1-.19.45.62.62,0,0,1-.46.19h-3v9.77a.63.63,0,0,1-.2.46.61.61,0,0,1-.45.19H32a.62.62,0,0,1-.46-.19.66.66,0,0,1-.19-.46V35.42h-2a.62.62,0,0,1-.46-.19.61.61,0,0,1-.19-.45V34a.65.65,0,0,1,.65-.65h2v-1.2a4.36,4.36,0,0,1,.94-3.06,3.92,3.92,0,0,1,3-1h1.51a.65.65,0,0,1,.65.65v.77a.61.61,0,0,1-.19.45.62.62,0,0,1-.46.19H35.56a2.91,2.91,0,0,0-1,.16,1.34,1.34,0,0,0-.61.44,1.88,1.88,0,0,0-.3.69,3.84,3.84,0,0,0-.08.85Z"/><path d="M50.61,46.08a4.69,4.69,0,0,1-2.38-.52,4.38,4.38,0,0,1-1.34-1.11v5.3a.65.65,0,0,1-.65.65h-.89a.61.61,0,0,1-.45-.19.62.62,0,0,1-.19-.46V34a.62.62,0,0,1,.19-.46.61.61,0,0,1,.45-.19h.89a.65.65,0,0,1,.65.65v.74a4.27,4.27,0,0,1,1.37-1.14,4.8,4.8,0,0,1,2.35-.49,5.42,5.42,0,0,1,2.1.4,4.77,4.77,0,0,1,1.69,1.14,5.35,5.35,0,0,1,1.15,1.8,7.23,7.23,0,0,1,.51,2.37c0,.24,0,.5,0,.78s0,.54,0,.78a7.35,7.35,0,0,1-.51,2.38,5.4,5.4,0,0,1-1.15,1.79,5,5,0,0,1-1.69,1.12A5.42,5.42,0,0,1,50.61,46.08Zm-3.72-7.51c0,.24,0,.55,0,1s0,.7,0,.94a3.74,3.74,0,0,0,1,2.63,3.36,3.36,0,0,0,2.46.93,3.21,3.21,0,0,0,2.5-1,4.33,4.33,0,0,0,1-2.74c0-.45,0-.89,0-1.34a4.33,4.33,0,0,0-1-2.74,3.21,3.21,0,0,0-2.5-1,3.42,3.42,0,0,0-2.45.92A3.47,3.47,0,0,0,46.89,38.57Z"/><path d="M64.17,33.12a6.13,6.13,0,0,1,2.3.4,5,5,0,0,1,2.87,2.78,7.19,7.19,0,0,1,.52,2.17c0,.15,0,.32,0,.52v1.25c0,.2,0,.36,0,.49a7.66,7.66,0,0,1-.53,2.18,4.83,4.83,0,0,1-1.13,1.68,5,5,0,0,1-1.73,1.09,6.81,6.81,0,0,1-4.6,0A5,5,0,0,1,59,42.91a7,7,0,0,1-.52-2.18c0-.13,0-.29,0-.49s0-.41,0-.63,0-.42,0-.62,0-.37,0-.52A7.19,7.19,0,0,1,59,36.3a5,5,0,0,1,1.14-1.69,5,5,0,0,1,1.73-1.09A6.09,6.09,0,0,1,64.17,33.12Zm3.5,7.49a7.23,7.23,0,0,0,0-1,7.72,7.72,0,0,0,0-1,4.77,4.77,0,0,0-.31-1.34,3.13,3.13,0,0,0-.67-1.08,2.93,2.93,0,0,0-1.06-.72,4.08,4.08,0,0,0-2.92,0,2.93,2.93,0,0,0-1.06.72A3.13,3.13,0,0,0,61,37.25a4.77,4.77,0,0,0-.31,1.34,7.72,7.72,0,0,0-.05,1,7.23,7.23,0,0,0,.05,1A4.77,4.77,0,0,0,61,42,3.13,3.13,0,0,0,61.65,43a2.93,2.93,0,0,0,1.06.72,4.08,4.08,0,0,0,2.92,0A2.93,2.93,0,0,0,66.69,43,3.13,3.13,0,0,0,67.36,42,4.77,4.77,0,0,0,67.67,40.61Z"/><path d="M75.09,45.19a.66.66,0,0,1-.19.46.62.62,0,0,1-.46.19h-.89a.6.6,0,0,1-.45-.19.63.63,0,0,1-.2-.46V29.45a.63.63,0,0,1,.2-.46.6.6,0,0,1,.45-.19h.89a.62.62,0,0,1,.46.19.66.66,0,0,1,.19.46Z"/><path d="M80.87,45.19a.65.65,0,0,1-.65.65h-.88a.65.65,0,0,1-.65-.65V29.45a.65.65,0,0,1,.65-.65h.88a.65.65,0,0,1,.65.65Z"/><path d="M84.35,34a.63.63,0,0,1,.2-.46.58.58,0,0,1,.45-.19h.89a.63.63,0,0,1,.46.19.66.66,0,0,1,.19.46v6.33a3.93,3.93,0,0,0,.83,2.76,3.56,3.56,0,0,0,4.78,0A3.84,3.84,0,0,0,93,40.34V34a.65.65,0,0,1,.65-.65h.88a.65.65,0,0,1,.65.65V45.19a.65.65,0,0,1-.65.65h-.88a.65.65,0,0,1-.65-.65v-.74a4.7,4.7,0,0,1-1.3,1.11,4.33,4.33,0,0,1-2.3.52,5.56,5.56,0,0,1-2.07-.37,4.52,4.52,0,0,1-1.6-1.06,4.47,4.47,0,0,1-1-1.68,6.63,6.63,0,0,1-.36-2.27Z"/><path d="M102.06,41.64a3.82,3.82,0,0,0,.09.85,1.6,1.6,0,0,0,.3.69,1.34,1.34,0,0,0,.61.44,2.87,2.87,0,0,0,1,.16h1.27a.62.62,0,0,1,.46.19.61.61,0,0,1,.19.45v.77a.65.65,0,0,1-.65.65h-1.51a3.79,3.79,0,0,1-3-1.08,4.6,4.6,0,0,1-.94-3.12V35.42H98.1a.65.65,0,0,1-.64-.64V34a.62.62,0,0,1,.19-.46.61.61,0,0,1,.45-.19h1.78V29.45a.65.65,0,0,1,.65-.65h.89a.61.61,0,0,1,.45.19.62.62,0,0,1,.19.46v3.91h3a.65.65,0,0,1,.65.65v.77a.61.61,0,0,1-.19.45.62.62,0,0,1-.46.19h-3Z"/><path d="M110.82,30.82a.65.65,0,0,1-.64.64h-1.37a.62.62,0,0,1-.46-.19.61.61,0,0,1-.19-.45V29.45a.65.65,0,0,1,.65-.65h1.37a.61.61,0,0,1,.45.19.62.62,0,0,1,.19.46Zm-.24,14.37a.62.62,0,0,1-.19.46.61.61,0,0,1-.45.19h-.89a.65.65,0,0,1-.65-.65V34a.65.65,0,0,1,.65-.65h.89a.61.61,0,0,1,.45.19.62.62,0,0,1,.19.46Z"/><path d="M119.3,33.12a6.13,6.13,0,0,1,2.3.4,5,5,0,0,1,2.87,2.78,6.9,6.9,0,0,1,.51,2.17,3.94,3.94,0,0,1,0,.52v1.25a3.28,3.28,0,0,1,0,.49,7.66,7.66,0,0,1-.52,2.18,5,5,0,0,1-1.13,1.68,5,5,0,0,1-1.73,1.09,6.84,6.84,0,0,1-4.61,0,5,5,0,0,1-1.73-1.09,5,5,0,0,1-1.14-1.68,6.77,6.77,0,0,1-.51-2.18c0-.13,0-.29,0-.49s0-.41,0-.63,0-.42,0-.62,0-.37,0-.52a6.9,6.9,0,0,1,.51-2.17A5,5,0,0,1,117,33.52,6.15,6.15,0,0,1,119.3,33.12Zm3.5,7.49a9.23,9.23,0,0,0,0-1,9.93,9.93,0,0,0,0-1,5.15,5.15,0,0,0-.31-1.34,3.29,3.29,0,0,0-.67-1.08,2.93,2.93,0,0,0-1.06-.72,3.66,3.66,0,0,0-1.46-.27,3.71,3.71,0,0,0-1.47.27,2.89,2.89,0,0,0-1,.72,3.15,3.15,0,0,0-.68,1.08,5.15,5.15,0,0,0-.31,1.34,9.93,9.93,0,0,0-.05,1,9.23,9.23,0,0,0,.05,1A5.15,5.15,0,0,0,116.1,42a3.15,3.15,0,0,0,.68,1.08,2.89,2.89,0,0,0,1,.72,3.71,3.71,0,0,0,1.47.27,3.66,3.66,0,0,0,1.46-.27,2.93,2.93,0,0,0,1.06-.72,3.29,3.29,0,0,0,.67-1.08A5.15,5.15,0,0,0,122.8,40.61Z"/><path d="M139.12,45.19a.65.65,0,0,1-.65.65h-.89a.61.61,0,0,1-.45-.19.62.62,0,0,1-.19-.46V38.86a3.8,3.8,0,0,0-.89-2.76,3.29,3.29,0,0,0-2.47-.92,3.33,3.33,0,0,0-2.44.92,3.68,3.68,0,0,0-.92,2.76v6.33a.63.63,0,0,1-.2.46.6.6,0,0,1-.45.19h-.89a.62.62,0,0,1-.46-.19.66.66,0,0,1-.19-.46V34a.66.66,0,0,1,.19-.46.62.62,0,0,1,.46-.19h.89a.6.6,0,0,1,.45.19.63.63,0,0,1,.2.46v.74a4.31,4.31,0,0,1,1.35-1.11,4.68,4.68,0,0,1,2.37-.52,5.65,5.65,0,0,1,2.08.37,4.73,4.73,0,0,1,1.65,1.06,4.84,4.84,0,0,1,1.07,1.69,6.41,6.41,0,0,1,.38,2.26Z"/><path d="M154.36,46.08a4.69,4.69,0,0,1-2.38-.52,4.38,4.38,0,0,1-1.34-1.11v5.3a.65.65,0,0,1-.65.65h-.89a.61.61,0,0,1-.45-.19.62.62,0,0,1-.19-.46V34a.62.62,0,0,1,.19-.46.61.61,0,0,1,.45-.19H150a.65.65,0,0,1,.65.65v.74A4.27,4.27,0,0,1,152,33.61a4.8,4.8,0,0,1,2.35-.49,5.42,5.42,0,0,1,2.1.4,4.77,4.77,0,0,1,1.69,1.14,5.35,5.35,0,0,1,1.15,1.8,7.23,7.23,0,0,1,.51,2.37c0,.24,0,.5,0,.78s0,.54,0,.78a7.35,7.35,0,0,1-.51,2.38,5.4,5.4,0,0,1-1.15,1.79,5,5,0,0,1-1.69,1.12A5.42,5.42,0,0,1,154.36,46.08Zm-3.72-7.51c0,.24,0,.55,0,1s0,.7,0,.94a3.74,3.74,0,0,0,1,2.63,3.36,3.36,0,0,0,2.46.93,3.21,3.21,0,0,0,2.5-1,4.33,4.33,0,0,0,1-2.74c0-.45,0-.89,0-1.34a4.33,4.33,0,0,0-1-2.74,3.21,3.21,0,0,0-2.5-1,3.42,3.42,0,0,0-2.45.92A3.47,3.47,0,0,0,150.64,38.57Z"/><path d="M162.23,38.4a6.38,6.38,0,0,1,.53-2.06,5.77,5.77,0,0,1,1.13-1.68,4.94,4.94,0,0,1,1.66-1.13,5.65,5.65,0,0,1,2.18-.41,6,6,0,0,1,2.31.42,4.75,4.75,0,0,1,1.74,1.21,5.51,5.51,0,0,1,1.11,1.92,7.94,7.94,0,0,1,.38,2.52v.65a.62.62,0,0,1-.19.46.66.66,0,0,1-.46.19h-8.25v.14A3.21,3.21,0,0,0,167.73,44a4.1,4.1,0,0,0,2-.38,4,4,0,0,0,1.06-.82,1.41,1.41,0,0,1,.34-.27,1,1,0,0,1,.43-.07h.72a.68.68,0,0,1,.48.19.47.47,0,0,1,.17.46,2.53,2.53,0,0,1-.41.95,3.69,3.69,0,0,1-1,1,6,6,0,0,1-1.58.74,7.41,7.41,0,0,1-2.22.3,5.34,5.34,0,0,1-2.16-.42,5.14,5.14,0,0,1-1.67-1.15,5.91,5.91,0,0,1-1.14-1.73,6.91,6.91,0,0,1-.53-2.17A10.21,10.21,0,0,1,162.23,38.4Zm2.14.07h6.74V38.4a3.08,3.08,0,0,0-.92-2.34,3.46,3.46,0,0,0-2.46-.88,3.66,3.66,0,0,0-1.3.23,3.15,3.15,0,0,0-1.05.65,2.86,2.86,0,0,0-.72,1,3.36,3.36,0,0,0-.29,1.32Z"/><path d="M182.51,33.36a.65.65,0,0,1,.65.65v.77a.61.61,0,0,1-.19.45.62.62,0,0,1-.46.19h-1.39a2.44,2.44,0,0,0-2.76,2.76v7a.65.65,0,0,1-.65.65h-.89a.61.61,0,0,1-.45-.19.62.62,0,0,1-.19-.46V34a.62.62,0,0,1,.19-.46.61.61,0,0,1,.45-.19h.89a.65.65,0,0,1,.65.65v.74a2.94,2.94,0,0,1,1.15-1,3.84,3.84,0,0,1,1.75-.34Z"/><path d="M193.6,49.82a1.37,1.37,0,0,1-.24.39.56.56,0,0,1-.46.19h-1a.58.58,0,0,1-.58-.58.38.38,0,0,1,0-.16l2.3-5L188.92,34.1a.38.38,0,0,1,0-.16.57.57,0,0,1,.17-.41.58.58,0,0,1,.41-.17h1a.55.55,0,0,1,.45.19,1.37,1.37,0,0,1,.24.39l3.7,8.16,3.74-8.16a1.37,1.37,0,0,1,.24-.39.58.58,0,0,1,.46-.19h1a.58.58,0,0,1,.58.58.38.38,0,0,1,0,.16Z"/><path d="M202.24,38.4a6.13,6.13,0,0,1,.53-2.06,5.74,5.74,0,0,1,1.12-1.68,5.08,5.08,0,0,1,1.67-1.13,5.59,5.59,0,0,1,2.17-.41,6,6,0,0,1,2.32.42,4.75,4.75,0,0,1,1.74,1.21,5.34,5.34,0,0,1,1.1,1.92,7.66,7.66,0,0,1,.39,2.52v.65a.62.62,0,0,1-.19.46.66.66,0,0,1-.46.19h-8.25v.14A3.21,3.21,0,0,0,207.73,44a3.62,3.62,0,0,0,3.05-1.2,1.41,1.41,0,0,1,.34-.27,1,1,0,0,1,.43-.07h.72a.68.68,0,0,1,.48.19.49.49,0,0,1,.17.46,2.7,2.7,0,0,1-.41.95,3.69,3.69,0,0,1-1,1,6.11,6.11,0,0,1-1.58.74,7.48,7.48,0,0,1-2.23.3,5.37,5.37,0,0,1-2.16-.42,5.1,5.1,0,0,1-1.66-1.15,5.54,5.54,0,0,1-1.14-1.73,6.65,6.65,0,0,1-.53-2.17A10.21,10.21,0,0,1,202.24,38.4Zm2.14.07h6.74V38.4a3.05,3.05,0,0,0-.93-2.34,3.43,3.43,0,0,0-2.46-.88,3.65,3.65,0,0,0-1.29.23,3.29,3.29,0,0,0-1.06.65,3.14,3.14,0,0,0-.72,1,3.54,3.54,0,0,0-.28,1.32Z"/><path d="M215.3,42.7a3.47,3.47,0,0,1,.38-1.68,3.75,3.75,0,0,1,1-1.23,5.74,5.74,0,0,1,1.58-.81,11.12,11.12,0,0,1,1.91-.48l3.38-.56v-.31a2.16,2.16,0,0,0-.8-1.83,3.23,3.23,0,0,0-2-.62,2.74,2.74,0,0,0-1.6.39,4.18,4.18,0,0,0-.92.91.68.68,0,0,1-.31.26,1.15,1.15,0,0,1-.46.08h-.72a.69.69,0,0,1-.47-.2.52.52,0,0,1-.17-.45,2.38,2.38,0,0,1,.41-1.08,3.81,3.81,0,0,1,1-1,6.07,6.07,0,0,1,1.47-.7,5.37,5.37,0,0,1,1.76-.28,6.23,6.23,0,0,1,2,.31,4.49,4.49,0,0,1,1.58.91,4.19,4.19,0,0,1,1,1.49,5.19,5.19,0,0,1,.37,2v7.32a.62.62,0,0,1-.19.46.61.61,0,0,1-.45.19h-.89a.65.65,0,0,1-.65-.65v-1a2.19,2.19,0,0,1-.67.8,4.84,4.84,0,0,1-1.05.59,6.34,6.34,0,0,1-1.22.36,6.48,6.48,0,0,1-1.19.12,5.43,5.43,0,0,1-1.71-.26,4.42,4.42,0,0,1-1.33-.71A3.22,3.22,0,0,1,215.6,44,2.92,2.92,0,0,1,215.3,42.7ZM219.71,44a4.54,4.54,0,0,0,1.59-.27,3.69,3.69,0,0,0,1.23-.73,3,3,0,0,0,.79-1.12,3.52,3.52,0,0,0,.28-1.44v-.6l-2.83.46a6.84,6.84,0,0,0-2.4.77,1.55,1.55,0,0,0-.89,1.37,1.23,1.23,0,0,0,.12.52,1.62,1.62,0,0,0,.38.51,1.9,1.9,0,0,0,.69.38A3.13,3.13,0,0,0,219.71,44Z"/><path d="M235.62,33.36a.65.65,0,0,1,.65.65v.77a.61.61,0,0,1-.19.45.62.62,0,0,1-.46.19h-1.39a2.44,2.44,0,0,0-2.76,2.76v7a.65.65,0,0,1-.65.65h-.89a.61.61,0,0,1-.45-.19.62.62,0,0,1-.19-.46V34a.62.62,0,0,1,.19-.46.61.61,0,0,1,.45-.19h.89a.65.65,0,0,1,.65.65v.74a2.94,2.94,0,0,1,1.15-1,3.84,3.84,0,0,1,1.75-.34Z"/><g id="over-2-ton"><g id="one-ton"><polygon class="cls-1" points="249.3 248.51 124.27 248.51 152.2 151.67 222.81 151.67 249.3 248.51"/><path class="cls-2" d="M193.73,142.14H181.55l-4.81,10.18H198.3Zm-10.31,2.51h8.36l3.14,7h-14.8Z"/><text class="cls-3" transform="translate(182.86 196.99) rotate(0.12)">1<tspan class="cls-4" x="-17.72" y="22.87">T</tspan><tspan x="-5.51" y="22.87">ON</tspan></text></g><g id="one-ton-2" data-name="one-ton"><polygon class="cls-5" points="125.03 247.75 0 247.75 27.93 150.91 98.54 150.91 125.03 247.75"/><path class="cls-6" d="M69.46,141.38H57.28l-4.81,10.18H74Zm-10.31,2.51h8.36l3.14,7H55.85Z"/><text class="cls-3" transform="translate(58.59 195.96) rotate(0.12)">1<tspan class="cls-4" x="-17.72" y="22.87">T</tspan><tspan x="-5.51" y="22.87">ON</tspan></text></g><g id="_100-kg" data-name="100-kg"><polygon class="cls-7" points="164.68 151.83 83.86 151.83 101.92 89.24 147.55 89.24 164.68 151.83"/><text class="cls-8" transform="translate(104.35 121.72) rotate(0.12)">100 kg</text><path class="cls-9" d="M131.18,78.51H117.64l-5.36,11.32h24ZM119.72,81.3H129l3.49,7.77H116Z"/></g></g></g></g></svg>