<svg xmlns="http://www.w3.org/2000/svg" xmlns:xlink="http://www.w3.org/1999/xlink" viewBox="0 0 249.3 240.31"><defs><style>.cls-1{fill:url(#linear-gradient);}.cls-2{fill:url(#linear-gradient-2);}.cls-3{font-size:19.05px;}.cls-3,.cls-8{font-family:ProzaLibre-Bold, Proza Libre;font-weight:700;}.cls-4{letter-spacing:-0.04em;}.cls-5{fill:url(#linear-gradient-3);}.cls-6{fill:url(#linear-gradient-4);}.cls-7{fill:url(#linear-gradient-5);}.cls-8{font-size:11.84px;}.cls-9{fill:url(#linear-gradient-6);}.cls-10{font-size:24px;font-family:Rubik-Regular, Rubik;}.cls-11{letter-spacing:-0.01em;}.cls-12{letter-spacing:-0.02em;}.cls-13{letter-spacing:-0.02em;}.cls-14{letter-spacing:0em;}.cls-15{letter-spacing:-0.01em;}.cls-16{letter-spacing:0em;}.cls-17{letter-spacing:-0.01em;}</style><linearGradient id="linear-gradient" x1="186.78" y1="143.47" x2="186.78" y2="240.31" gradientUnits="userSpaceOnUse"><stop offset="0" stop-color="#67deff"/><stop offset="0.14" stop-color="#65d9fb"/><stop offset="0.32" stop-color="#5ec9ef"/><stop offset="0.51" stop-color="#54b0db"/><stop offset="0.72" stop-color="#468dbf"/><stop offset="0.94" stop-color="#33609c"/><stop offset="1" stop-color="#2d5191"/></linearGradient><linearGradient id="linear-gradient-2" x1="176.74" y1="139.04" x2="198.3" y2="139.04" gradientUnits="userSpaceOnUse"><stop offset="0" stop-color="#67deff"/><stop offset="0.19" stop-color="#5ec9ef"/><stop offset="0.57" stop-color="#4893c5"/><stop offset="1" stop-color="#2d5191"/></linearGradient><linearGradient id="linear-gradient-3" x1="62.52" y1="142.71" x2="62.52" y2="239.55" xlink:href="#linear-gradient"/><linearGradient id="linear-gradient-4" x1="52.47" y1="138.27" x2="74.03" y2="138.27" xlink:href="#linear-gradient-2"/><linearGradient id="linear-gradient-5" x1="124.27" y1="81.04" x2="124.27" y2="143.63" gradientUnits="userSpaceOnUse"><stop offset="0" stop-color="#67deff"/><stop offset="0.13" stop-color="#64d7fa"/><stop offset="0.32" stop-color="#5cc4eb"/><stop offset="0.54" stop-color="#50a5d3"/><stop offset="0.79" stop-color="#3e7bb1"/><stop offset="1" stop-color="#2d5191"/></linearGradient><linearGradient id="linear-gradient-6" x1="112.28" y1="75.97" x2="136.26" y2="75.97" xlink:href="#linear-gradient-2"/></defs><title>ton</title><g id="Layer_2" data-name="Layer 2"><g id="Layer_2-2" data-name="Layer 2"><g id="over-2-ton"><g id="one-ton"><polygon class="cls-1" points="249.3 240.31 124.27 240.31 152.2 143.47 222.81 143.47 249.3 240.31"/><path class="cls-2" d="M193.73,134H181.55l-4.81,10.18H198.3Zm-10.31,2.51h8.36l3.14,7h-14.8Z"/><text class="cls-3" transform="translate(183.02 188.74)">1<tspan class="cls-4" x="-17.72" y="22.87">T</tspan><tspan x="-5.51" y="22.87">ON</tspan></text></g><g id="one-ton-2" data-name="one-ton"><polygon class="cls-5" points="125.03 239.55 0 239.55 27.93 142.71 98.54 142.71 125.03 239.55"/><path class="cls-6" d="M69.46,133.18H57.28l-4.81,10.18H74ZM59.15,135.7h8.36l3.14,7H55.85Z"/><text class="cls-3" transform="translate(58.75 187.98)">1<tspan class="cls-4" x="-17.72" y="22.87">T</tspan><tspan x="-5.51" y="22.87">ON</tspan></text></g><g id="_100-kg" data-name="100-kg"><polygon class="cls-7" points="164.68 143.63 83.86 143.63 101.92 81.04 147.55 81.04 164.68 143.63"/><text class="cls-8" transform="translate(104.36 113.64)">100 kg</text><path class="cls-9" d="M131.18,70.31H117.64l-5.36,11.32h24Zm-11.46,2.8H129l3.49,7.77H116Z"/></g></g><text class="cls-10" transform="translate(42.61 20.4)">p<tspan class="cls-11" x="14.35" y="0">r</tspan><tspan class="cls-12" x="23.16" y="0">e</tspan><tspan class="cls-13" x="36.07" y="0">v</tspan><tspan class="cls-14" x="49.03" y="0">e</tspan><tspan class="cls-15" x="62.4" y="0">n</tspan><tspan class="cls-16" x="76.78" y="0">ts 4800</tspan><tspan x="-26.06" y="28.8" xml:space="preserve"> pounds </tspan><tspan class="cls-17" x="69.24" y="28.8">o</tspan><tspan x="82.89" y="28.8">fpollution</tspan></text></g></g></svg>