<?xml version="1.0" encoding="utf-8"?>
<!-- Generator: Adobe Illustrator 19.0.0, SVG Export Plug-In . SVG Version: 6.00 Build 0)  -->
<svg version="1.1" id="Layer_1" xmlns="http://www.w3.org/2000/svg" xmlns:xlink="http://www.w3.org/1999/xlink" x="0px" y="0px"
	 viewBox="0 0 249.3 174.2" style="enable-background:new 0 0 249.3 174.2;" xml:space="preserve">
<style type="text/css">
	.st0{fill:url(#SVGID_1_);}
	.st1{fill:url(#SVGID_2_);}
	.st2{font-family:'ProzaLibre-Bold';}
	.st3{font-size:19.0549px;}
	.st4{fill:url(#SVGID_3_);}
	.st5{fill:url(#SVGID_4_);}
	.st6{fill:url(#SVGID_5_);}
	.st7{font-size:11.8433px;}
	.st8{fill:url(#SVGID_6_);}
</style>
<g id="over-2-ton">
	<g id="one-ton_1_">
		<linearGradient id="SVGID_1_" gradientUnits="userSpaceOnUse" x1="186.7846" y1="78.0812" x2="186.7846" y2="174.9218">
			<stop  offset="0" style="stop-color:#67DEFF"/>
			<stop  offset="0.1415" style="stop-color:#65D9FB"/>
			<stop  offset="0.3178" style="stop-color:#5EC9EF"/>
			<stop  offset="0.5124" style="stop-color:#54B0DB"/>
			<stop  offset="0.7204" style="stop-color:#468DBF"/>
			<stop  offset="0.9366" style="stop-color:#33609C"/>
			<stop  offset="1" style="stop-color:#2D5191"/>
		</linearGradient>
		<polygon class="st0" points="249.3,174.9 124.3,174.9 152.2,78.1 222.8,78.1 		"/>
		<linearGradient id="SVGID_2_" gradientUnits="userSpaceOnUse" x1="176.7351" y1="73.6438" x2="198.3005" y2="73.6438">
			<stop  offset="0" style="stop-color:#67DEFF"/>
			<stop  offset="0.1872" style="stop-color:#5EC9EF"/>
			<stop  offset="0.5738" style="stop-color:#4893C5"/>
			<stop  offset="1" style="stop-color:#2D5191"/>
		</linearGradient>
		<path class="st1" d="M193.7,68.6h-12.2l-4.8,10.2h21.6L193.7,68.6z M183.4,71.1h8.4l3.1,7h-14.8L183.4,71.1z"/>
		<text transform="matrix(1 0 0 1 183.0241 123.3466)"><tspan x="0" y="0" class="st2 st3">1</tspan><tspan x="-18.1" y="22.9" class="st2 st3">TON</tspan></text>
	</g>
	<g id="one-ton_2_">
		<linearGradient id="SVGID_3_" gradientUnits="userSpaceOnUse" x1="62.5156" y1="77.3188" x2="62.5156" y2="174.1594">
			<stop  offset="0" style="stop-color:#67DEFF"/>
			<stop  offset="0.1415" style="stop-color:#65D9FB"/>
			<stop  offset="0.3178" style="stop-color:#5EC9EF"/>
			<stop  offset="0.5124" style="stop-color:#54B0DB"/>
			<stop  offset="0.7204" style="stop-color:#468DBF"/>
			<stop  offset="0.9366" style="stop-color:#33609C"/>
			<stop  offset="1" style="stop-color:#2D5191"/>
		</linearGradient>
		<polygon class="st4" points="125,174.2 0,174.2 27.9,77.3 98.5,77.3 		"/>
		<linearGradient id="SVGID_4_" gradientUnits="userSpaceOnUse" x1="52.4661" y1="72.8814" x2="74.0316" y2="72.8814">
			<stop  offset="0" style="stop-color:#67DEFF"/>
			<stop  offset="0.1872" style="stop-color:#5EC9EF"/>
			<stop  offset="0.5738" style="stop-color:#4893C5"/>
			<stop  offset="1" style="stop-color:#2D5191"/>
		</linearGradient>
		<path class="st5" d="M69.5,67.8H57.3L52.5,78H74L69.5,67.8z M59.2,70.3h8.4l3.1,7H55.8L59.2,70.3z"/>
		<text transform="matrix(1 0 0 1 58.7527 122.5839)"><tspan x="0" y="0" class="st2 st3">1</tspan><tspan x="-18.1" y="22.9" class="st2 st3">TON</tspan></text>
	</g>
	<g id="_x31_00-kg_1_">
		<linearGradient id="SVGID_5_" gradientUnits="userSpaceOnUse" x1="124.2689" y1="15.6495" x2="124.2689" y2="78.2416">
			<stop  offset="0" style="stop-color:#67DEFF"/>
			<stop  offset="0.132" style="stop-color:#64D7FA"/>
			<stop  offset="0.321" style="stop-color:#5CC4EB"/>
			<stop  offset="0.5444" style="stop-color:#50A5D3"/>
			<stop  offset="0.792" style="stop-color:#3E7BB1"/>
			<stop  offset="1" style="stop-color:#2D5191"/>
		</linearGradient>
		<polygon class="st6" points="164.7,78.2 83.9,78.2 101.9,15.6 147.6,15.6 		"/>
		<text transform="matrix(1 0 0 1 104.3552 48.246)" class="st2 st7">100 kg</text>
		<linearGradient id="SVGID_6_" gradientUnits="userSpaceOnUse" x1="112.2821" y1="10.5801" x2="136.2557" y2="10.5801">
			<stop  offset="0" style="stop-color:#67DEFF"/>
			<stop  offset="0.1872" style="stop-color:#5EC9EF"/>
			<stop  offset="0.5738" style="stop-color:#4893C5"/>
			<stop  offset="1" style="stop-color:#2D5191"/>
		</linearGradient>
		<path class="st8" d="M131.2,4.9h-13.5l-5.4,11.3h24L131.2,4.9z M119.7,7.7h9.3l3.5,7.8H116L119.7,7.7z"/>
	</g>
</g>
</svg>
