<svg xmlns="http://www.w3.org/2000/svg" xmlns:xlink="http://www.w3.org/1999/xlink" viewBox="0 0 249.3 236.96"><defs><style>.cls-1{fill:url(#linear-gradient);}.cls-2{fill:url(#linear-gradient-2);}.cls-3{font-size:19.05px;}.cls-3,.cls-8{font-family:ProzaLibre-Bold, Proza Libre;font-weight:700;}.cls-4{letter-spacing:-0.04em;}.cls-5{fill:url(#linear-gradient-3);}.cls-6{fill:url(#linear-gradient-4);}.cls-7{fill:url(#linear-gradient-5);}.cls-8{font-size:11.84px;}.cls-9{fill:url(#linear-gradient-6);}</style><linearGradient id="linear-gradient" x1="186.78" y1="140.11" x2="186.78" y2="236.96" gradientUnits="userSpaceOnUse"><stop offset="0" stop-color="#67deff"/><stop offset="0.14" stop-color="#65d9fb"/><stop offset="0.32" stop-color="#5ec9ef"/><stop offset="0.51" stop-color="#54b0db"/><stop offset="0.72" stop-color="#468dbf"/><stop offset="0.94" stop-color="#33609c"/><stop offset="1" stop-color="#2d5191"/></linearGradient><linearGradient id="linear-gradient-2" x1="176.74" y1="135.68" x2="198.3" y2="135.68" gradientUnits="userSpaceOnUse"><stop offset="0" stop-color="#67deff"/><stop offset="0.19" stop-color="#5ec9ef"/><stop offset="0.57" stop-color="#4893c5"/><stop offset="1" stop-color="#2d5191"/></linearGradient><linearGradient id="linear-gradient-3" x1="62.52" y1="139.35" x2="62.52" y2="236.19" xlink:href="#linear-gradient"/><linearGradient id="linear-gradient-4" x1="52.47" y1="134.91" x2="74.03" y2="134.91" xlink:href="#linear-gradient-2"/><linearGradient id="linear-gradient-5" x1="124.27" y1="77.68" x2="124.27" y2="140.27" gradientUnits="userSpaceOnUse"><stop offset="0" stop-color="#67deff"/><stop offset="0.13" stop-color="#64d7fa"/><stop offset="0.32" stop-color="#5cc4eb"/><stop offset="0.54" stop-color="#50a5d3"/><stop offset="0.79" stop-color="#3e7bb1"/><stop offset="1" stop-color="#2d5191"/></linearGradient><linearGradient id="linear-gradient-6" x1="112.28" y1="72.61" x2="136.26" y2="72.61" xlink:href="#linear-gradient-2"/></defs><title>ton</title><g id="Layer_2" data-name="Layer 2"><g id="Layer_2-2" data-name="Layer 2"><g id="over-2-ton"><g id="one-ton"><polygon class="cls-1" points="249.3 236.96 124.27 236.96 152.2 140.12 222.81 140.12 249.3 236.96"/><path class="cls-2" d="M193.73,130.59H181.55l-4.81,10.18H198.3Zm-10.31,2.51h8.36l3.14,7h-14.8Z"/><text class="cls-3" transform="translate(183.02 185.38)">1<tspan class="cls-4" x="-17.72" y="22.87">T</tspan><tspan x="-5.51" y="22.87">ON</tspan></text></g><g id="one-ton-2" data-name="one-ton"><polygon class="cls-5" points="125.03 236.19 0 236.19 27.93 139.35 98.54 139.35 125.03 236.19"/><path class="cls-6" d="M69.46,129.82H57.28L52.47,140H74Zm-10.31,2.52h8.36l3.14,7H55.85Z"/><text class="cls-3" transform="translate(58.75 184.62)">1<tspan class="cls-4" x="-17.72" y="22.87">T</tspan><tspan x="-5.51" y="22.87">ON</tspan></text></g><g id="_100-kg" data-name="100-kg"><polygon class="cls-7" points="164.68 140.28 83.86 140.28 101.92 77.68 147.55 77.68 164.68 140.28"/><text class="cls-8" transform="translate(104.36 110.28)">100 kg</text><path class="cls-9" d="M131.18,67H117.64l-5.36,11.31h24Zm-11.46,2.79H129l3.49,7.77H116Z"/></g></g><path d="M50.31,17.28a4.69,4.69,0,0,1-2.38-.52,4.51,4.51,0,0,1-1.34-1.11V21a.65.65,0,0,1-.65.65h-.88a.65.65,0,0,1-.65-.65V5.21a.65.65,0,0,1,.65-.65h.88a.65.65,0,0,1,.65.65V6A4.27,4.27,0,0,1,48,4.81a4.83,4.83,0,0,1,2.35-.49,5.42,5.42,0,0,1,2.1.4A4.77,4.77,0,0,1,54.1,5.86a5.53,5.53,0,0,1,1.16,1.8,7.5,7.5,0,0,1,.5,2.37c0,.24,0,.5,0,.78s0,.54,0,.78a7.62,7.62,0,0,1-.5,2.38,5.59,5.59,0,0,1-1.16,1.79,5,5,0,0,1-1.69,1.12A5.42,5.42,0,0,1,50.31,17.28ZM46.59,9.77c0,.24,0,.55,0,1s0,.7,0,.94a3.74,3.74,0,0,0,1,2.63,3.36,3.36,0,0,0,2.46.93,3.21,3.21,0,0,0,2.5-1,4.33,4.33,0,0,0,1-2.74c0-.45,0-.89,0-1.34a4.33,4.33,0,0,0-1-2.74,3.21,3.21,0,0,0-2.5-1,3.42,3.42,0,0,0-2.45.92A3.47,3.47,0,0,0,46.59,9.77Z"/><path d="M65.1,4.56a.61.61,0,0,1,.45.19.62.62,0,0,1,.19.46V6a.65.65,0,0,1-.64.64H63.7a2.44,2.44,0,0,0-2.76,2.76v7a.65.65,0,0,1-.65.65h-.88a.65.65,0,0,1-.65-.65V5.21a.65.65,0,0,1,.65-.65h.88a.65.65,0,0,1,.65.65V6a3,3,0,0,1,1.16-1,3.81,3.81,0,0,1,1.75-.34Z"/><path d="M67,9.6a6.38,6.38,0,0,1,.53-2.06,5.77,5.77,0,0,1,1.13-1.68,4.88,4.88,0,0,1,1.67-1.13,5.56,5.56,0,0,1,2.17-.41,6,6,0,0,1,2.31.42A4.75,4.75,0,0,1,76.54,6a5.51,5.51,0,0,1,1.11,1.92A7.94,7.94,0,0,1,78,10.39V11a.62.62,0,0,1-.19.46.66.66,0,0,1-.46.19H69.13v.14a3.21,3.21,0,0,0,3.36,3.39,4.1,4.1,0,0,0,2-.38A4,4,0,0,0,75.53,14a1.41,1.41,0,0,1,.34-.27,1,1,0,0,1,.43-.07H77a.68.68,0,0,1,.48.19.47.47,0,0,1,.17.46,2.53,2.53,0,0,1-.41.95,3.69,3.69,0,0,1-1,1,6,6,0,0,1-1.58.74,7.36,7.36,0,0,1-2.22.3,5.34,5.34,0,0,1-2.16-.42,5.14,5.14,0,0,1-1.67-1.15A5.91,5.91,0,0,1,67.52,14,6.91,6.91,0,0,1,67,11.81,10.21,10.21,0,0,1,67,9.6Zm2.14.07h6.74V9.6A3.08,3.08,0,0,0,75,7.26a3.46,3.46,0,0,0-2.46-.88,3.66,3.66,0,0,0-1.3.23,3.15,3.15,0,0,0-1,.65,2.86,2.86,0,0,0-.72,1,3.36,3.36,0,0,0-.29,1.32Z"/><path d="M85,17a.59.59,0,0,1-.48-.19,2.07,2.07,0,0,1-.27-.41L79.45,5.3a.38.38,0,0,1,0-.16A.58.58,0,0,1,80,4.56h.89a.7.7,0,0,1,.54.19,1.22,1.22,0,0,1,.25.39l3.72,8.71,3.72-8.71a1.37,1.37,0,0,1,.24-.39.56.56,0,0,1,.46-.19h1a.58.58,0,0,1,.58.58.38.38,0,0,1,0,.16L86.58,16.44a2,2,0,0,1-.26.41.56.56,0,0,1-.47.19Z"/><path d="M92.86,9.6a6.38,6.38,0,0,1,.53-2.06,6,6,0,0,1,1.13-1.68,4.88,4.88,0,0,1,1.67-1.13,5.59,5.59,0,0,1,2.17-.41,6.07,6.07,0,0,1,2.32.42A4.92,4.92,0,0,1,102.42,6a5.49,5.49,0,0,1,1.1,1.92,7.94,7.94,0,0,1,.38,2.52V11a.62.62,0,0,1-.19.46.65.65,0,0,1-.45.19H95v.14a3.22,3.22,0,0,0,3.36,3.39,4.1,4.1,0,0,0,2-.38,4,4,0,0,0,1.07-.82,1.4,1.4,0,0,1,.33-.27,1,1,0,0,1,.44-.07h.72a.72.72,0,0,1,.48.19.46.46,0,0,1,.16.46,2.49,2.49,0,0,1-.4.95,3.74,3.74,0,0,1-1,1,6,6,0,0,1-1.58.74,7.36,7.36,0,0,1-2.22.3,5.34,5.34,0,0,1-2.16-.42,5.14,5.14,0,0,1-1.67-1.15A5.91,5.91,0,0,1,93.39,14a6.91,6.91,0,0,1-.53-2.17A10.21,10.21,0,0,1,92.86,9.6ZM95,9.67h6.74V9.6a3.08,3.08,0,0,0-.92-2.34,3.46,3.46,0,0,0-2.46-.88,3.7,3.7,0,0,0-1.3.23,3.15,3.15,0,0,0-1,.65,2.86,2.86,0,0,0-.72,1A3.36,3.36,0,0,0,95,9.6Z"/><path d="M117.89,16.39a.62.62,0,0,1-.19.46.61.61,0,0,1-.45.19h-.89a.65.65,0,0,1-.65-.65V10.06a3.76,3.76,0,0,0-.89-2.76,3.72,3.72,0,0,0-4.9,0,3.68,3.68,0,0,0-.93,2.76v6.33a.65.65,0,0,1-.65.65h-.89a.61.61,0,0,1-.45-.19.62.62,0,0,1-.19-.46V5.21a.62.62,0,0,1,.19-.46.61.61,0,0,1,.45-.19h.89a.65.65,0,0,1,.65.65V6a4.36,4.36,0,0,1,1.36-1.11,4.64,4.64,0,0,1,2.36-.52,5.71,5.71,0,0,1,2.09.37,4.61,4.61,0,0,1,2.71,2.75,6.19,6.19,0,0,1,.38,2.26Z"/><path d="M124.45,12.84a3.84,3.84,0,0,0,.08.85,1.88,1.88,0,0,0,.3.69,1.34,1.34,0,0,0,.61.44,3,3,0,0,0,1,.16h1.27a.62.62,0,0,1,.46.19.61.61,0,0,1,.19.45v.77a.65.65,0,0,1-.65.65h-1.51a3.79,3.79,0,0,1-3-1.08,4.65,4.65,0,0,1-.94-3.12V6.62h-1.77a.62.62,0,0,1-.46-.19.61.61,0,0,1-.19-.45V5.21a.65.65,0,0,1,.65-.65h1.77V.65a.66.66,0,0,1,.19-.46.62.62,0,0,1,.46-.19h.89a.63.63,0,0,1,.46.19.66.66,0,0,1,.19.46V4.56h3a.61.61,0,0,1,.45.19.62.62,0,0,1,.19.46V6a.65.65,0,0,1-.64.64h-3Z"/><path d="M137.89,13.58a1.17,1.17,0,0,0-.25-.75,2.07,2.07,0,0,0-.76-.52,9.74,9.74,0,0,0-1.28-.41c-.52-.12-1.13-.26-1.82-.4a4.74,4.74,0,0,1-2.72-1.36,3.38,3.38,0,0,1-.78-2.22,3.21,3.21,0,0,1,.29-1.37,3.37,3.37,0,0,1,.86-1.15,4.12,4.12,0,0,1,1.45-.79,6.67,6.67,0,0,1,2.05-.29,7.43,7.43,0,0,1,2.06.26,5.27,5.27,0,0,1,1.47.68,3.18,3.18,0,0,1,.91.87,1.83,1.83,0,0,1,.34.9.52.52,0,0,1-.18.46.64.64,0,0,1-.47.19h-.79a1.34,1.34,0,0,1-.35-.06.73.73,0,0,1-.37-.28,2.38,2.38,0,0,0-.92-.68,4.29,4.29,0,0,0-1.7-.28,3.45,3.45,0,0,0-1.78.41,1.26,1.26,0,0,0-.69,1.13,1.24,1.24,0,0,0,.2.73,1.37,1.37,0,0,0,.62.48,5.65,5.65,0,0,0,1.14.37c.47.12,1.06.25,1.76.41a8.35,8.35,0,0,1,1.85.61,4.38,4.38,0,0,1,1.2.84,2.88,2.88,0,0,1,.65,1,3.56,3.56,0,0,1,.19,1.18,3.06,3.06,0,0,1-.35,1.4,3.54,3.54,0,0,1-1,1.17,5.42,5.42,0,0,1-1.57.82,6.53,6.53,0,0,1-2.1.31A7,7,0,0,1,133,17a6.27,6.27,0,0,1-1.56-.71,3.57,3.57,0,0,1-1-.91,1.75,1.75,0,0,1-.37-.92.54.54,0,0,1,.17-.46.65.65,0,0,1,.48-.19h.86a1.48,1.48,0,0,1,.34,0,.59.59,0,0,1,.36.27,2.42,2.42,0,0,0,1.05.82,5.11,5.11,0,0,0,2.8.17,3.75,3.75,0,0,0,.91-.34,2.09,2.09,0,0,0,.64-.52A1,1,0,0,0,137.89,13.58Z"/><path d="M156.51,17a.62.62,0,0,1-.46-.19.66.66,0,0,1-.19-.46V13.08h-7.53a.65.65,0,0,1-.65-.65v-.86a1.34,1.34,0,0,1,.08-.4,1.51,1.51,0,0,1,.25-.42L155.6.82A1.67,1.67,0,0,1,156,.4a.84.84,0,0,1,.51-.16h1a.62.62,0,0,1,.46.19.62.62,0,0,1,.19.46v10h2.07a.61.61,0,0,1,.45.19.62.62,0,0,1,.19.46v.86a.62.62,0,0,1-.19.46.61.61,0,0,1-.45.19h-2.07v3.31a.65.65,0,0,1-.65.65Zm-.65-6.12V4.15l-5.21,6.77Z"/><path d="M162.92,12.26a4.36,4.36,0,0,1,.61-2.26,5,5,0,0,1,1.72-1.74,4.64,4.64,0,0,1-1.38-1.56,4.2,4.2,0,0,1-.08-3.82A4.49,4.49,0,0,1,165,1.38a5.71,5.71,0,0,1,1.76-1,6.84,6.84,0,0,1,4.44,0,6.06,6.06,0,0,1,1.78,1,4.49,4.49,0,0,1,1.17,1.5,4.12,4.12,0,0,1,.42,1.82,4,4,0,0,1-.51,2,5.39,5.39,0,0,1-1.38,1.56,5.14,5.14,0,0,1,1.7,1.74,4.28,4.28,0,0,1,.63,2.26,4.36,4.36,0,0,1-.45,2,4.67,4.67,0,0,1-1.25,1.59,5.89,5.89,0,0,1-1.9,1.08,7,7,0,0,1-2.43.4,6.94,6.94,0,0,1-2.42-.4,5.94,5.94,0,0,1-1.91-1.08,4.8,4.8,0,0,1-1.25-1.59A4.49,4.49,0,0,1,162.92,12.26Zm2.28,0a2.38,2.38,0,0,0,.27,1.12,3,3,0,0,0,.77.9,3.76,3.76,0,0,0,1.18.61,5.1,5.1,0,0,0,3,0,3.71,3.71,0,0,0,1.19-.61,2.85,2.85,0,0,0,.77-.9,2.38,2.38,0,0,0,.28-1.12,2.34,2.34,0,0,0-.28-1.11,2.65,2.65,0,0,0-.77-.9,3.71,3.71,0,0,0-1.19-.61,5.1,5.1,0,0,0-3,0,3.76,3.76,0,0,0-1.18.61,2.76,2.76,0,0,0-.77.9A2.34,2.34,0,0,0,165.2,12.26Zm.45-7.56a2,2,0,0,0,.26,1,2.4,2.4,0,0,0,.69.8,3.47,3.47,0,0,0,1.05.54,3.88,3.88,0,0,0,1.29.21A4,4,0,0,0,170.25,7a3.42,3.42,0,0,0,1.06-.54,2.51,2.51,0,0,0,.69-.8,2.11,2.11,0,0,0,0-2,2.66,2.66,0,0,0-.69-.81,3.91,3.91,0,0,0-1.06-.54,4.28,4.28,0,0,0-1.31-.2,4.15,4.15,0,0,0-1.29.2,4,4,0,0,0-1.05.54,2.53,2.53,0,0,0-.69.81A2,2,0,0,0,165.65,4.7Z"/><path d="M190,6.62c0,.72,0,1.4,0,2s0,1.31,0,2a9.37,9.37,0,0,1-.4,2.6,5.86,5.86,0,0,1-1.11,2.1,5.14,5.14,0,0,1-1.89,1.4,7.65,7.65,0,0,1-5.44,0,5.14,5.14,0,0,1-1.89-1.4,5.71,5.71,0,0,1-1.11-2.1,9,9,0,0,1-.4-2.6c0-.72,0-1.4,0-2s0-1.31,0-2a9.13,9.13,0,0,1,.4-2.6,5.71,5.71,0,0,1,1.11-2.1,5.25,5.25,0,0,1,1.89-1.4,7.37,7.37,0,0,1,5.44,0,5.25,5.25,0,0,1,1.89,1.4A5.86,5.86,0,0,1,189.59,4,9.49,9.49,0,0,1,190,6.62Zm-10,4.06A5.12,5.12,0,0,0,181,14a3.64,3.64,0,0,0,2.85,1.08A3.61,3.61,0,0,0,186.71,14a5.06,5.06,0,0,0,1-3.36c0-.72,0-1.4,0-2s0-1.31,0-2a5.11,5.11,0,0,0-1-3.37,3.58,3.58,0,0,0-2.84-1.09A3.61,3.61,0,0,0,181,3.25a5.16,5.16,0,0,0-1,3.37c0,.72,0,1.4,0,2S180,10,180,10.68Z"/><path d="M205.2,6.62c0,.72,0,1.4,0,2s0,1.31,0,2a9,9,0,0,1-.39,2.6,5.88,5.88,0,0,1-1.12,2.1,5,5,0,0,1-1.88,1.4,7.68,7.68,0,0,1-5.45,0,5,5,0,0,1-1.88-1.4,5.88,5.88,0,0,1-1.12-2.1,9,9,0,0,1-.39-2.6c0-.72,0-1.4,0-2s0-1.31,0-2a9.13,9.13,0,0,1,.39-2.6,5.88,5.88,0,0,1,1.12-2.1,5.13,5.13,0,0,1,1.88-1.4,7.4,7.4,0,0,1,5.45,0,5.13,5.13,0,0,1,1.88,1.4A5.88,5.88,0,0,1,204.81,4,9.13,9.13,0,0,1,205.2,6.62Zm-10,4.06a5.06,5.06,0,0,0,1,3.36,4.29,4.29,0,0,0,5.69,0,5.06,5.06,0,0,0,1-3.36c0-.72,0-1.4,0-2s0-1.31,0-2a5.11,5.11,0,0,0-1-3.37,4.26,4.26,0,0,0-5.69,0,5.11,5.11,0,0,0-1,3.37c0,.72,0,1.4,0,2S195.2,10,195.22,10.68Z"/><path d="M30.1,46.08a4.63,4.63,0,0,1-2.37-.52,4.56,4.56,0,0,1-1.35-1.11v5.3a.62.62,0,0,1-.19.46.61.61,0,0,1-.45.19h-.89a.65.65,0,0,1-.65-.65V34a.65.65,0,0,1,.65-.65h.89a.61.61,0,0,1,.45.19.62.62,0,0,1,.19.46v.74a4.27,4.27,0,0,1,1.37-1.14,4.83,4.83,0,0,1,2.35-.49,5.38,5.38,0,0,1,2.1.4,4.81,4.81,0,0,1,1.7,1.14,5.68,5.68,0,0,1,1.15,1.8,7.23,7.23,0,0,1,.5,2.37q0,.36,0,.78t0,.78a7.35,7.35,0,0,1-.5,2.38,5.74,5.74,0,0,1-1.15,1.79,5,5,0,0,1-1.7,1.12A5.38,5.38,0,0,1,30.1,46.08Zm-3.72-7.51c0,.24,0,.55,0,1s0,.7,0,.94a3.74,3.74,0,0,0,1,2.63,3.36,3.36,0,0,0,2.46.93,3.21,3.21,0,0,0,2.5-1,4.33,4.33,0,0,0,1-2.74c0-.45,0-.89,0-1.34a4.33,4.33,0,0,0-1-2.74,3.21,3.21,0,0,0-2.5-1,3.38,3.38,0,0,0-2.44.92A3.44,3.44,0,0,0,26.38,38.57Z"/><path d="M43.66,33.12a6.15,6.15,0,0,1,2.31.4,5,5,0,0,1,2.87,2.78,7.18,7.18,0,0,1,.51,2.17,3.94,3.94,0,0,1,0,.52v1.25a3.28,3.28,0,0,1,0,.49,7.34,7.34,0,0,1-.53,2.18,4.81,4.81,0,0,1-1.12,1.68A5,5,0,0,1,46,45.68a6.84,6.84,0,0,1-4.61,0,5,5,0,0,1-1.73-1.09,5,5,0,0,1-1.14-1.68A6.77,6.77,0,0,1,38,40.73c0-.13,0-.29,0-.49s0-.41,0-.63,0-.42,0-.62,0-.37,0-.52a6.9,6.9,0,0,1,.51-2.17,5,5,0,0,1,2.87-2.78A6.13,6.13,0,0,1,43.66,33.12Zm3.51,7.49a9.23,9.23,0,0,0,0-1,9.93,9.93,0,0,0,0-1,5.15,5.15,0,0,0-.32-1.34,3,3,0,0,0-.67-1.08,2.89,2.89,0,0,0-1-.72,3.71,3.71,0,0,0-1.47-.27,3.66,3.66,0,0,0-1.46.27,2.93,2.93,0,0,0-1.06.72,3.13,3.13,0,0,0-.67,1.08,5.15,5.15,0,0,0-.31,1.34,9.93,9.93,0,0,0,0,1,9.23,9.23,0,0,0,0,1A5.15,5.15,0,0,0,40.47,42,3.13,3.13,0,0,0,41.14,43a2.93,2.93,0,0,0,1.06.72,3.66,3.66,0,0,0,1.46.27,3.71,3.71,0,0,0,1.47-.27,2.89,2.89,0,0,0,1-.72A3,3,0,0,0,46.85,42,5.15,5.15,0,0,0,47.17,40.61Z"/><path d="M52.28,34a.65.65,0,0,1,.65-.65h.89a.61.61,0,0,1,.45.19.62.62,0,0,1,.19.46v6.33a4,4,0,0,0,.83,2.76A3.09,3.09,0,0,0,57.7,44a3.13,3.13,0,0,0,2.38-.92,3.84,3.84,0,0,0,.86-2.76V34a.63.63,0,0,1,.2-.46.6.6,0,0,1,.45-.19h.89a.58.58,0,0,1,.45.19.63.63,0,0,1,.2.46V45.19a.63.63,0,0,1-.2.46.58.58,0,0,1-.45.19h-.89a.6.6,0,0,1-.45-.19.63.63,0,0,1-.2-.46v-.74a4.51,4.51,0,0,1-1.29,1.11,4.34,4.34,0,0,1-2.31.52,5.47,5.47,0,0,1-2.06-.37,4.66,4.66,0,0,1-1.61-1.06,4.45,4.45,0,0,1-1-1.68,6.63,6.63,0,0,1-.36-2.27Z"/><path d="M77.81,45.19a.62.62,0,0,1-.19.46.61.61,0,0,1-.45.19h-.89a.65.65,0,0,1-.65-.65V38.86a3.76,3.76,0,0,0-.89-2.76,3.72,3.72,0,0,0-4.9,0,3.68,3.68,0,0,0-.93,2.76v6.33a.65.65,0,0,1-.65.65h-.89a.61.61,0,0,1-.45-.19.62.62,0,0,1-.19-.46V34a.62.62,0,0,1,.19-.46.61.61,0,0,1,.45-.19h.89a.65.65,0,0,1,.65.65v.74a4.36,4.36,0,0,1,1.36-1.11,4.64,4.64,0,0,1,2.36-.52,5.71,5.71,0,0,1,2.09.37,4.61,4.61,0,0,1,2.71,2.75,6.19,6.19,0,0,1,.38,2.26Z"/><path d="M86.14,33.12a4.67,4.67,0,0,1,2.38.52,4.38,4.38,0,0,1,1.34,1.11v-5.3a.66.66,0,0,1,.19-.46.63.63,0,0,1,.46-.19h.89a.58.58,0,0,1,.45.19.63.63,0,0,1,.2.46V45.19a.63.63,0,0,1-.2.46.58.58,0,0,1-.45.19h-.89a.63.63,0,0,1-.46-.19.66.66,0,0,1-.19-.46v-.74a4.23,4.23,0,0,1-1.36,1.14,4.87,4.87,0,0,1-2.36.49,5.42,5.42,0,0,1-2.1-.4,4.86,4.86,0,0,1-1.69-1.14,5.51,5.51,0,0,1-1.15-1.8,7.23,7.23,0,0,1-.51-2.37c0-.24,0-.5,0-.78s0-.54,0-.78a7.35,7.35,0,0,1,.51-2.38,5.57,5.57,0,0,1,1.15-1.79A5.09,5.09,0,0,1,84,33.52,5.42,5.42,0,0,1,86.14,33.12Zm3.72,7.51c0-.24,0-.55,0-1s0-.7,0-.94a3.7,3.7,0,0,0-1-2.63,3.36,3.36,0,0,0-2.46-.93,3.2,3.2,0,0,0-2.49,1,4.28,4.28,0,0,0-1,2.74c0,.45,0,.89,0,1.34a4.28,4.28,0,0,0,1,2.74,3.2,3.2,0,0,0,2.49,1,3.33,3.33,0,0,0,3.48-3.39Z"/><path d="M102.75,42.38a1.11,1.11,0,0,0-.25-.75,2.07,2.07,0,0,0-.76-.52,8.85,8.85,0,0,0-1.28-.41c-.52-.12-1.13-.26-1.81-.4a4.74,4.74,0,0,1-2.73-1.36,3.39,3.39,0,0,1,.37-4.74,4.08,4.08,0,0,1,1.46-.79,6.58,6.58,0,0,1,2-.29,7.35,7.35,0,0,1,2,.26,5.34,5.34,0,0,1,1.48.68,3.31,3.31,0,0,1,.91.87,1.72,1.72,0,0,1,.33.9.52.52,0,0,1-.18.46.63.63,0,0,1-.46.19h-.8a1.22,1.22,0,0,1-.34-.06.7.7,0,0,1-.37-.28,2.34,2.34,0,0,0-.93-.68,4.27,4.27,0,0,0-1.69-.28,3.49,3.49,0,0,0-1.79.41,1.35,1.35,0,0,0-.49,1.86,1.43,1.43,0,0,0,.62.48,5.65,5.65,0,0,0,1.14.37l1.77.41a8.25,8.25,0,0,1,1.84.61,4.6,4.6,0,0,1,1.21.84,2.85,2.85,0,0,1,.64,1,3.56,3.56,0,0,1,.19,1.18,3,3,0,0,1-.34,1.4,3.7,3.7,0,0,1-1,1.17,5.29,5.29,0,0,1-1.57.82,6.53,6.53,0,0,1-2.1.31,7,7,0,0,1-2.09-.29,6.27,6.27,0,0,1-1.56-.71,3.71,3.71,0,0,1-1-.91,1.84,1.84,0,0,1-.37-.92.57.57,0,0,1,.17-.46.65.65,0,0,1,.48-.19h.87a1.47,1.47,0,0,1,.33,0,.56.56,0,0,1,.36.27,2.51,2.51,0,0,0,1.06.82,4.49,4.49,0,0,0,1.75.29,4.55,4.55,0,0,0,1-.12,3.59,3.59,0,0,0,.91-.34,2,2,0,0,0,.64-.52A1,1,0,0,0,102.75,42.38Z"/><path d="M118.76,33.12a6.13,6.13,0,0,1,2.3.4,5,5,0,0,1,2.87,2.78,7.19,7.19,0,0,1,.52,2.17c0,.15,0,.32,0,.52v1.25c0,.2,0,.36,0,.49a7.66,7.66,0,0,1-.53,2.18,4.83,4.83,0,0,1-1.13,1.68,5,5,0,0,1-1.73,1.09,6.84,6.84,0,0,1-4.61,0,5,5,0,0,1-2.86-2.77,6.77,6.77,0,0,1-.52-2.18c0-.13,0-.29,0-.49s0-.41,0-.63,0-.42,0-.62,0-.37,0-.52a6.9,6.9,0,0,1,.52-2.17,5,5,0,0,1,2.86-2.78A6.18,6.18,0,0,1,118.76,33.12Zm3.5,7.49a9.23,9.23,0,0,0,0-1,9.93,9.93,0,0,0,0-1,5.15,5.15,0,0,0-.31-1.34,3.13,3.13,0,0,0-.67-1.08,2.93,2.93,0,0,0-1.06-.72,3.62,3.62,0,0,0-1.46-.27,3.71,3.71,0,0,0-1.47.27,3,3,0,0,0-1.05.72,3.13,3.13,0,0,0-.67,1.08,4.77,4.77,0,0,0-.31,1.34,7.72,7.72,0,0,0-.05,1,7.23,7.23,0,0,0,.05,1,4.77,4.77,0,0,0,.31,1.34,3.13,3.13,0,0,0,.67,1.08,3,3,0,0,0,1.05.72,3.71,3.71,0,0,0,1.47.27,3.62,3.62,0,0,0,1.46-.27,2.93,2.93,0,0,0,1.06-.72A3.13,3.13,0,0,0,122,42,5.15,5.15,0,0,0,122.26,40.61Z"/><path d="M130.81,33.36h3a.65.65,0,0,1,.65.65v.77a.61.61,0,0,1-.19.45.62.62,0,0,1-.46.19h-3v9.77a.63.63,0,0,1-.2.46.6.6,0,0,1-.45.19h-.89a.65.65,0,0,1-.65-.65V35.42h-2a.65.65,0,0,1-.64-.64V34a.62.62,0,0,1,.19-.46.61.61,0,0,1,.45-.19h2v-1.2a4.36,4.36,0,0,1,.94-3.06,3.92,3.92,0,0,1,3-1h1.51a.65.65,0,0,1,.65.65v.77a.61.61,0,0,1-.19.45.62.62,0,0,1-.46.19h-1.27a3,3,0,0,0-1,.16,1.34,1.34,0,0,0-.61.44,1.88,1.88,0,0,0-.3.69,3.84,3.84,0,0,0-.08.85Z"/><path d="M142.57,46.08a4.64,4.64,0,0,1-2.38-.52,4.38,4.38,0,0,1-1.34-1.11v5.3a.63.63,0,0,1-.2.46.6.6,0,0,1-.45.19h-.89a.62.62,0,0,1-.46-.19.66.66,0,0,1-.19-.46V34a.66.66,0,0,1,.19-.46.62.62,0,0,1,.46-.19h.89a.6.6,0,0,1,.45.19.63.63,0,0,1,.2.46v.74a4.23,4.23,0,0,1,1.36-1.14,4.87,4.87,0,0,1,2.36-.49,5.42,5.42,0,0,1,2.1.4,4.86,4.86,0,0,1,1.69,1.14,5.51,5.51,0,0,1,1.15,1.8,7,7,0,0,1,.5,2.37q0,.36,0,.78t0,.78a7.09,7.09,0,0,1-.5,2.38,5.57,5.57,0,0,1-1.15,1.79,5.09,5.09,0,0,1-1.69,1.12A5.42,5.42,0,0,1,142.57,46.08Zm-3.72-7.51c0,.24,0,.55,0,1s0,.7,0,.94a3.65,3.65,0,0,0,1,2.63,3.36,3.36,0,0,0,2.46.93,3.2,3.2,0,0,0,2.49-1,4.28,4.28,0,0,0,1-2.74c0-.45,0-.89,0-1.34a4.28,4.28,0,0,0-1-2.74,3.2,3.2,0,0,0-2.49-1,3.33,3.33,0,0,0-3.48,3.39Z"/><path d="M156.13,33.12a6.13,6.13,0,0,1,2.3.4,5,5,0,0,1,2.87,2.78,6.9,6.9,0,0,1,.51,2.17,3.94,3.94,0,0,1,0,.52v1.25a3.28,3.28,0,0,1,0,.49,7.66,7.66,0,0,1-.52,2.18,5,5,0,0,1-1.13,1.68,5,5,0,0,1-1.73,1.09,6.84,6.84,0,0,1-4.61,0,5,5,0,0,1-1.73-1.09A5,5,0,0,1,151,42.91a6.77,6.77,0,0,1-.51-2.18c0-.13,0-.29,0-.49s0-.41,0-.63,0-.42,0-.62,0-.37,0-.52A6.9,6.9,0,0,1,151,36.3a5,5,0,0,1,2.87-2.78A6.15,6.15,0,0,1,156.13,33.12Zm3.5,7.49a9.23,9.23,0,0,0,.05-1,9.93,9.93,0,0,0-.05-1,5.15,5.15,0,0,0-.31-1.34,3.29,3.29,0,0,0-.67-1.08,2.93,2.93,0,0,0-1.06-.72,4.11,4.11,0,0,0-2.93,0,3,3,0,0,0-1.06.72,3.29,3.29,0,0,0-.67,1.08,5.15,5.15,0,0,0-.31,1.34,9.93,9.93,0,0,0-.05,1,9.23,9.23,0,0,0,.05,1,5.15,5.15,0,0,0,.31,1.34A3.29,3.29,0,0,0,153.6,43a3,3,0,0,0,1.06.72,4.11,4.11,0,0,0,2.93,0,2.93,2.93,0,0,0,1.06-.72,3.29,3.29,0,0,0,.67-1.08A5.15,5.15,0,0,0,159.63,40.61Z"/><path d="M167.05,45.19a.63.63,0,0,1-.2.46.6.6,0,0,1-.45.19h-.89a.62.62,0,0,1-.46-.19.66.66,0,0,1-.19-.46V29.45a.66.66,0,0,1,.19-.46.62.62,0,0,1,.46-.19h.89a.6.6,0,0,1,.45.19.63.63,0,0,1,.2.46Z"/><path d="M172.83,45.19a.66.66,0,0,1-.19.46.62.62,0,0,1-.46.19h-.89a.61.61,0,0,1-.45-.19.62.62,0,0,1-.19-.46V29.45a.62.62,0,0,1,.19-.46.61.61,0,0,1,.45-.19h.89a.62.62,0,0,1,.46.19.66.66,0,0,1,.19.46Z"/><path d="M176.31,34a.65.65,0,0,1,.65-.65h.89a.61.61,0,0,1,.45.19.62.62,0,0,1,.19.46v6.33a4,4,0,0,0,.83,2.76,3.09,3.09,0,0,0,2.41.92,3.13,3.13,0,0,0,2.38-.92,3.88,3.88,0,0,0,.86-2.76V34a.63.63,0,0,1,.2-.46.58.58,0,0,1,.45-.19h.89a.63.63,0,0,1,.46.19.66.66,0,0,1,.19.46V45.19a.66.66,0,0,1-.19.46.63.63,0,0,1-.46.19h-.89a.58.58,0,0,1-.45-.19.63.63,0,0,1-.2-.46v-.74a4.51,4.51,0,0,1-1.29,1.11,4.34,4.34,0,0,1-2.31.52,5.47,5.47,0,0,1-2.06-.37,4.56,4.56,0,0,1-1.61-1.06,4.45,4.45,0,0,1-1-1.68,6.63,6.63,0,0,1-.36-2.27Z"/><path d="M194,41.64a4.54,4.54,0,0,0,.08.85,1.74,1.74,0,0,0,.31.69,1.29,1.29,0,0,0,.61.44,2.87,2.87,0,0,0,1,.16h1.27a.58.58,0,0,1,.45.19.62.62,0,0,1,.2.45v.77a.63.63,0,0,1-.2.46.58.58,0,0,1-.45.19H195.8a3.83,3.83,0,0,1-3-1.08,4.65,4.65,0,0,1-.93-3.12V35.42h-1.78a.62.62,0,0,1-.46-.19.65.65,0,0,1-.19-.45V34a.66.66,0,0,1,.19-.46.62.62,0,0,1,.46-.19h1.78V29.45a.65.65,0,0,1,.65-.65h.88a.65.65,0,0,1,.65.65v3.91h3a.58.58,0,0,1,.45.19.63.63,0,0,1,.2.46v.77a.62.62,0,0,1-.2.45.58.58,0,0,1-.45.19h-3Z"/><path d="M202.78,30.82a.61.61,0,0,1-.19.45.62.62,0,0,1-.46.19h-1.37a.65.65,0,0,1-.64-.64V29.45a.62.62,0,0,1,.19-.46.61.61,0,0,1,.45-.19h1.37a.65.65,0,0,1,.65.65Zm-.24,14.37a.65.65,0,0,1-.65.65H201a.65.65,0,0,1-.65-.65V34a.65.65,0,0,1,.65-.65h.88a.65.65,0,0,1,.65.65Z"/><path d="M211.25,33.12a6.15,6.15,0,0,1,2.31.4,5,5,0,0,1,1.73,1.09,5.19,5.19,0,0,1,1.14,1.69,7.18,7.18,0,0,1,.51,2.17,3.94,3.94,0,0,1,0,.52v1.25a3.28,3.28,0,0,1,0,.49,7.66,7.66,0,0,1-.53,2.18,5,5,0,0,1-1.12,1.68,5,5,0,0,1-1.73,1.09,6.84,6.84,0,0,1-4.61,0,5,5,0,0,1-1.73-1.09,5,5,0,0,1-1.14-1.68,6.77,6.77,0,0,1-.51-2.18c0-.13,0-.29,0-.49s0-.41,0-.63,0-.42,0-.62,0-.37,0-.52a6.9,6.9,0,0,1,.51-2.17A5,5,0,0,1,209,33.52,6.13,6.13,0,0,1,211.25,33.12Zm3.51,7.49a9.23,9.23,0,0,0,.05-1,9.93,9.93,0,0,0-.05-1,5.15,5.15,0,0,0-.32-1.34,3,3,0,0,0-.67-1.08,2.89,2.89,0,0,0-1.05-.72,3.71,3.71,0,0,0-1.47-.27,3.66,3.66,0,0,0-1.46.27,2.93,2.93,0,0,0-1.06.72,3.13,3.13,0,0,0-.67,1.08,5.15,5.15,0,0,0-.31,1.34,9.93,9.93,0,0,0-.05,1,9.23,9.23,0,0,0,.05,1,5.15,5.15,0,0,0,.31,1.34,3.13,3.13,0,0,0,.67,1.08,2.93,2.93,0,0,0,1.06.72,3.66,3.66,0,0,0,1.46.27,3.71,3.71,0,0,0,1.47-.27,2.89,2.89,0,0,0,1.05-.72,3,3,0,0,0,.67-1.08A5.15,5.15,0,0,0,214.76,40.61Z"/><path d="M231.08,45.19a.66.66,0,0,1-.19.46.63.63,0,0,1-.46.19h-.89a.58.58,0,0,1-.45-.19.63.63,0,0,1-.2-.46V38.86A3.8,3.8,0,0,0,228,36.1a3.74,3.74,0,0,0-4.91,0,3.68,3.68,0,0,0-.93,2.76v6.33a.65.65,0,0,1-.65.65h-.88a.65.65,0,0,1-.65-.65V34a.65.65,0,0,1,.65-.65h.88a.65.65,0,0,1,.65.65v.74a4.48,4.48,0,0,1,1.36-1.11,4.66,4.66,0,0,1,2.36-.52,5.67,5.67,0,0,1,2.09.37,4.61,4.61,0,0,1,2.71,2.75,6.19,6.19,0,0,1,.39,2.26Z"/></g></g></svg>