<svg xmlns="http://www.w3.org/2000/svg" xmlns:xlink="http://www.w3.org/1999/xlink" viewBox="0 0 127 117.99">
  <defs>
    <style>
      .cls-1 {
        fill: url(#linear-gradient);
      }

      .cls-2 {
        fill: url(#linear-gradient-2);
      }

      .cls-3 {
        fill: #fff;
      }

      .cls-4 {
        fill: url(#linear-gradient-3);
      }

      .cls-5 {
        fill: url(#linear-gradient-4);
      }

      .cls-6 {
        fill: url(#linear-gradient-5);
      }
    </style>
    <linearGradient id="linear-gradient" y1="83.6" x2="127" y2="83.6" gradientUnits="userSpaceOnUse">
      <stop offset="0" stop-color="#243082"/>
      <stop offset="0.16" stop-color="#393484"/>
      <stop offset="0.48" stop-color="#6f3e89"/>
      <stop offset="0.95" stop-color="#c54f90"/>
      <stop offset="1" stop-color="#cf5191"/>
    </linearGradient>
    <linearGradient id="linear-gradient-2" x1="14.89" y1="22.03" x2="72.74" y2="22.03" xlink:href="#linear-gradient"/>
    <linearGradient id="linear-gradient-3" x1="9.99" y1="44.06" x2="19.79" y2="44.06" xlink:href="#linear-gradient"/>
    <linearGradient id="linear-gradient-4" x1="2.87" y1="55.67" x2="10.21" y2="55.67" xlink:href="#linear-gradient"/>
    <linearGradient id="linear-gradient-5" x1="0.2" y1="66.1" x2="5.1" y2="66.1" xlink:href="#linear-gradient"/>
  </defs>
  <title>transit-colour</title>
  <g id="Layer_2" data-name="Layer 2">
    <g id="Iconography_Board" data-name="Iconography Board">
      <g id="transit-colour">
        <path class="cls-1" d="M115,75.24c-7.13-2.06-10-2.84-18.8-4.87,0,0-12.59-12.48-15-14.9-3-3-5.52-6.27-15.6-6.27H23.88c-2.71,0-3.9,2.9-.37,5.29a159.71,159.71,0,0,0-12,10.73C4,72.92,0,77.84,0,87.74c0,9.31,5.51,19.67,16.8,19.67h.05a15.78,15.78,0,0,0,29.8,0H80.34a15.79,15.79,0,0,0,29.81,0h3.62c10.55,0,13.23-9.4,13.23-16.75C127,79.86,121.06,77,115,75.24ZM31.75,108.47a6.35,6.35,0,1,1,6.35-6.35A6.36,6.36,0,0,1,31.75,108.47ZM50.67,75.66c-5.66,0-18.52-.56-27.61-4,3.05-4,5.28-6.46,6.72-8.13A11.08,11.08,0,0,1,38,59.79H50.67ZM56,59.79h9.71c4.67,0,7.56,2.61,10.7,5.84,2.4,2.47,9.17,10,9.17,10H56V59.79Zm39.29,48.68a6.35,6.35,0,1,1,6.35-6.35A6.36,6.36,0,0,1,95.25,108.47Z"/>
        <g>
          <path class="cls-2" d="M60.69,36.16c-1.54,10.2-15.22,9.78-18.4,3-4.15,7.71-16.71,5.65-17.73-3.25a12.05,12.05,0,0,1,0-23.63l0-.24A12,12,0,0,1,47.47,7c5.46-5.31,14.8-2.06,15.35,5.31a12,12,0,0,1-2.13,23.89Z"/>
          <path class="cls-3" d="M32.2,23.09a3.61,3.61,0,0,1,3.83-4,5.9,5.9,0,0,1,2.28.44l.56-2.15a7.13,7.13,0,0,0-3-.54c-3.63,0-6.56,2.28-6.56,6.38,0,3.42,2.14,6,6.29,6a7.71,7.71,0,0,0,3.08-.52l-.41-2.12a6.58,6.58,0,0,1-2.26.4A3.59,3.59,0,0,1,32.2,23.09Z"/>
          <path class="cls-3" d="M46.16,19.05c2.37,0,3.21,2.42,3.21,4.49,0,1.11-.24,4.73-3.39,4.73-2.33,0-3.16-2.43-3.16-4.52,0-2.34,1-4.7,3.34-4.7m0-1.78c-3.11,0-5.13,2.78-5.13,6.48,0,3.53,1.83,6.31,4.95,6.31s5.18-2.46,5.18-6.52c0-3.42-1.77-6.27-5-6.27Z"/>
          <path class="cls-3" d="M58.28,29.77H55.22s2.91-2.13,2.91-4.15c0-1.47-1-2.55-2.85-2.55a4.5,4.5,0,0,0-2.66.84l.54,1.36a3,3,0,0,1,1.74-.68c.94,0,1.33.53,1.33,1.19,0,1.19-1.39,2.31-3.71,4.4v1.15h5.76V29.77Z"/>
          <circle class="cls-4" cx="14.89" cy="44.06" r="4.9"/>
          <circle class="cls-5" cx="6.54" cy="55.67" r="3.67"/>
          <circle class="cls-6" cx="2.65" cy="66.1" r="2.45"/>
        </g>
      </g>
    </g>
  </g>
</svg>
