<svg xmlns="http://www.w3.org/2000/svg" xmlns:xlink="http://www.w3.org/1999/xlink" viewBox="0 0 205.6 151.57"><defs><style>.cls-1,.cls-10,.cls-11,.cls-12,.cls-13,.cls-2,.cls-3,.cls-4,.cls-5,.cls-6,.cls-7,.cls-8,.cls-9{fill-rule:evenodd;}.cls-1{fill:url(#linear-gradient);}.cls-2{fill:#4d5291;}.cls-3{fill:url(#linear-gradient-2);}.cls-4{fill:url(#linear-gradient-3);}.cls-5{fill:url(#linear-gradient-4);}.cls-6{fill:url(#linear-gradient-5);}.cls-7{fill:url(#linear-gradient-6);}.cls-8{fill:url(#linear-gradient-7);}.cls-9{fill:url(#linear-gradient-8);}.cls-10{fill:url(#linear-gradient-9);}.cls-11{fill:url(#linear-gradient-10);}.cls-12{fill:url(#linear-gradient-11);}.cls-13{fill:url(#linear-gradient-12);}</style><linearGradient id="linear-gradient" x1="129.51" y1="49.19" x2="129.51" y2="88.01" gradientUnits="userSpaceOnUse"><stop offset="0" stop-color="#ff7f86" stop-opacity="0.96"/><stop offset="0.68" stop-color="#764ebc" stop-opacity="0.99"/><stop offset="1" stop-color="#3a38d4"/></linearGradient><linearGradient id="linear-gradient-2" x1="66.77" y1="83.56" x2="66.77" y2="129.82" gradientUnits="userSpaceOnUse"><stop offset="0" stop-color="#54bfb1"/><stop offset="0.14" stop-color="#52b6b3"/><stop offset="0.35" stop-color="#4e9fb9"/><stop offset="0.63" stop-color="#4678c3"/><stop offset="0.94" stop-color="#3c43d1"/><stop offset="1" stop-color="#3a38d4"/></linearGradient><linearGradient id="linear-gradient-3" x1="181.96" y1="25.82" x2="181.96" y2="64.64" xlink:href="#linear-gradient"/><linearGradient id="linear-gradient-4" x1="129.2" y1="82.84" x2="129.2" y2="129.1" xlink:href="#linear-gradient-2"/><linearGradient id="linear-gradient-5" x1="155.81" y1="93.33" x2="155.81" y2="132.16" xlink:href="#linear-gradient"/><linearGradient id="linear-gradient-6" x1="153.81" y1="40.08" x2="153.81" y2="86.34" xlink:href="#linear-gradient-2"/><linearGradient id="linear-gradient-7" x1="104.58" y1="0.99" x2="104.58" y2="39.82" xlink:href="#linear-gradient"/><linearGradient id="linear-gradient-8" x1="15.42" y1="54.38" x2="15.42" y2="100.64" xlink:href="#linear-gradient-2"/><linearGradient id="linear-gradient-9" x1="110.72" y1="81.96" x2="110.72" y2="120.79" gradientTransform="matrix(1, 0, 0, 1, -0.14, 0.2)" xlink:href="#linear-gradient"/><linearGradient id="linear-gradient-10" x1="43.04" y1="32.82" x2="43.04" y2="71.64" xlink:href="#linear-gradient"/><linearGradient id="linear-gradient-11" x1="190.18" y1="81.66" x2="190.18" y2="127.92" xlink:href="#linear-gradient-2"/><linearGradient id="linear-gradient-12" x1="69.84" y1="26.14" x2="69.84" y2="72.4" xlink:href="#linear-gradient-2"/></defs><title>tree-forest</title><g id="Layer_2" data-name="Layer 2"><g id="Layer_2-2" data-name="Layer 2"><path class="cls-1" d="M131.13,88H127.9V72.13L119.46,66v0h0l-.95,1.31,7.78,5.66v6.7a15.6,15.6,0,0,1-12.94-15.06c0-8.48,7.25-15.37,16.17-15.37s16.18,6.89,16.18,15.37a15.6,15.6,0,0,1-12.94,15.06v-6.7l7.78-5.66-1-1.31h0v0l-8.45,6.16Zm0-22.66v4.79L132.75,69V66.13l4.88-3.55-1-1.3h0Zm-3.23,0-4.74-3.49-.79-.57-1,1.3,4.88,3.55V69l1.61,1.18Zm3.23-6.15v4.15l1.61-1.19V60l2-1.39-.93-1.32h0Zm-3.23,0-2.64-1.88-.93,1.32,2,1.39v2.13l1.62,1.19Z"/><path class="cls-2" d="M52.48,108.48H48.35V97.9a8.35,8.35,0,0,1-4.21-2.63A10.32,10.32,0,0,1,33,78.3a7.22,7.22,0,0,1,5.76-11.11,12.4,12.4,0,0,1,23.37,0A7.22,7.22,0,0,1,67.86,78.3a10.33,10.33,0,0,1-11.17,17,8.35,8.35,0,0,1-4.21,2.63Z"/><path class="cls-3" d="M68.7,129.82H64.85v-9.64H51.35l7.71-11.56H53.28L61,97.05H57.14l9.63-13.49,9.64,13.49H72.56l7.71,11.57H74.48l7.71,11.56H68.7Z"/><path class="cls-4" d="M183.57,64.64h-3.23V48.76L171.9,42.6h0l-1,1.31,7.78,5.66v6.69a15.6,15.6,0,0,1-12.94-15.06c0-8.48,7.25-15.36,16.18-15.36s16.17,6.88,16.17,15.36A15.59,15.59,0,0,1,185.2,56.24l0-6.69L193,43.89l-1-1.31h0l0,0-8.46,6.17Zm0-22.66v4.78l1.61-1.17V42.76l4.88-3.55-.95-1.31h0Zm-3.23,0-4.74-3.49-.79-.58-.95,1.31,4.87,3.55v2.82l1.62,1.17Zm3.23-6.15V40l1.61-1.19V36.64l2-1.39-.93-1.32h0Zm-3.23,0-2.64-1.88-.93,1.32,2,1.39v2.13L180.34,40Z"/><path class="cls-2" d="M102.63,151.57H98.5V141a8.35,8.35,0,0,1-4.21-2.63,10.32,10.32,0,0,1-11.17-17,7.24,7.24,0,0,1,5.76-11.11,12.4,12.4,0,0,1,23.37,0A7.24,7.24,0,0,1,118,121.39a10.33,10.33,0,0,1-11.18,17,8.27,8.27,0,0,1-4.21,2.63Z"/><path class="cls-5" d="M131.12,129.1h-3.85v-9.64H113.78l7.71-11.57H115.7l7.71-11.56h-3.85l9.64-13.49,9.63,13.49H135l7.71,11.56H136.9l7.71,11.57H131.12Z"/><path class="cls-2" d="M101,91.3H96.9V80.71a8.2,8.2,0,0,1-4.21-2.63,10.32,10.32,0,0,1-11.18-17A7.24,7.24,0,0,1,87.28,50a12.39,12.39,0,0,1,23.37,0,7.24,7.24,0,0,1,5.76,11.11,10.32,10.32,0,0,1-11.17,17A8.29,8.29,0,0,1,101,80.71Z"/><path class="cls-6" d="M157.43,132.16h-3.24V116.27l-8.44-6.15,0,0h0l-1,1.31,7.79,5.66,0,6.7a15.6,15.6,0,0,1-12.94-15.06c0-8.48,7.25-15.37,16.18-15.37S172,100.22,172,108.7a15.6,15.6,0,0,1-12.94,15.06l0-6.7,7.79-5.66-1-1.31h0l0,0-8.45,6.16Zm0-22.67v4.79l1.62-1.18,0-2.83,4.88-3.55-.95-1.3h0Zm-3.24,0L149.46,106l-.8-.58-.95,1.3,4.88,3.55v2.82l1.61,1.18Zm3.24-6.15v4.15l1.61-1.19v-2.14l2-1.39-.94-1.32h0Zm-3.24,0-2.63-1.88-.94,1.32,2,1.39v2.13l1.61,1.19Z"/><path class="cls-2" d="M64.16,52.92H60V42.28a8.22,8.22,0,0,1-4.21-2.64,10.37,10.37,0,0,1-11.18-17,7.28,7.28,0,0,1,5.77-11.16,12.36,12.36,0,0,1,23.36,0,7.28,7.28,0,0,1,5.77,11.16A10.36,10.36,0,0,1,68.37,39.64a8.22,8.22,0,0,1-4.21,2.64Z"/><path class="cls-7" d="M155.74,86.34h-3.86V76.7H138.39l7.71-11.56h-5.78L148,53.57h-3.86l9.64-13.49,9.64,13.49h-3.86l7.71,11.57h-5.78l7.71,11.56H155.74Z"/><path class="cls-8" d="M106.2,39.82H103V23.94l-8.44-6.16v0h0l-1,1.31,7.79,5.66,0,6.69A15.6,15.6,0,0,1,88.4,16.36C88.4,7.88,95.65,1,104.58,1s16.18,6.89,16.18,15.37a15.6,15.6,0,0,1-12.94,15.06l0-6.69,7.78-5.66-1-1.31h0l0,0L106.19,24Zm0-22.67v4.79l1.61-1.18V17.94l4.88-3.55-1-1.31h0Zm-3.23,0-4.74-3.48-.79-.58-1,1.31,4.87,3.55v2.82L103,21.93ZM106.19,11v4.14L107.81,14V11.82l2-1.39-.94-1.32h0ZM103,11l-2.63-1.88-.94,1.32,2,1.39V14L103,15.14Z"/><path class="cls-2" d="M146.08,49.55H142V39a8.29,8.29,0,0,1-4.21-2.63,10.32,10.32,0,0,1-11.17-17,7.15,7.15,0,0,1-1.14-3.88,7.23,7.23,0,0,1,6.9-7.22,12.39,12.39,0,0,1,23.37,0,7.23,7.23,0,0,1,6.9,7.22,7.15,7.15,0,0,1-1.14,3.88,10.32,10.32,0,0,1-11.17,17A8.2,8.2,0,0,1,146.08,39Z"/><path class="cls-9" d="M17.35,100.64H13.49V91H0L7.71,79.43H1.93L9.64,67.87H5.78l9.64-13.49,9.64,13.49H21.2l7.71,11.56H23.13L30.84,91H17.35Z"/><path class="cls-10" d="M112.42,120.78h-3.23l0-15.88-8.45-6.14h0l-.95,1.31,7.79,5.64v6.7a15.61,15.61,0,0,1-13-15c0-8.49,7.22-15.39,16.15-15.4s16.19,6.85,16.21,15.33A15.62,15.62,0,0,1,114,112.38l0-6.7,7.77-5.67-1-1.31h0l0,0-8.44,6.18Zm0-22.67v4.79l1.61-1.18V98.89l4.87-3.55-1-1.31h0Zm-3.24,0-4.74-3.48-.8-.57-.95,1.31,4.89,3.54v2.81l1.62,1.18ZM112.36,92l0,4.14L114,94.91V92.77l2-1.39L115,90.06h0Zm-3.23,0-2.64-1.87-.93,1.32,2,1.39v2.13l1.62,1.18Z"/><path class="cls-2" d="M183,99.09h-4.13V88.5a8.29,8.29,0,0,1-4.21-2.63,10.32,10.32,0,0,1-11.17-17,7.22,7.22,0,0,1,5.76-11.11,12.39,12.39,0,0,1,23.37,0,7.22,7.22,0,0,1,5.76,11.11,10.32,10.32,0,0,1-11.17,17A8.2,8.2,0,0,1,183,88.5Z"/><path class="cls-11" d="M44.66,71.64H41.42V55.76L33,49.61l0,0h0l-1,1.31,7.78,5.66,0,6.69A15.61,15.61,0,0,1,26.86,48.18c0-8.48,7.25-15.36,16.18-15.36S59.22,39.7,59.22,48.18A15.6,15.6,0,0,1,46.28,63.24V56.55l7.78-5.66-.95-1.31h0l0,0-8.45,6.16Zm0-22.66v4.78l1.62-1.17V49.76l4.87-3.55-1-1.31h0Zm-3.24,0-4.73-3.49-.8-.58-1,1.31,4.88,3.55v2.82l1.61,1.17Zm3.24-6.15V47l1.62-1.19V43.64l2-1.39-.94-1.32h0Zm-3.24,0-2.63-1.88-.94,1.32,2,1.39v2.13L41.42,47Z"/><path class="cls-12" d="M192.11,127.92h-3.85v-9.64h-13.5l7.71-11.57h-5.78l7.71-11.56h-3.86l9.64-13.49,9.64,13.49H196l7.71,11.56h-5.78l7.71,11.57H192.11Z"/><path class="cls-13" d="M71.77,72.4H67.92V62.76H54.42L62.13,51.2H56.35l7.71-11.57H60.21l9.64-13.49,9.63,13.49H75.63L83.34,51.2H77.55l7.71,11.56H71.77Z"/></g></g></svg>