<svg xmlns="http://www.w3.org/2000/svg" xmlns:xlink="http://www.w3.org/1999/xlink" viewBox="0 0 205.6 195.74"><defs><style>.cls-1,.cls-10,.cls-11,.cls-12,.cls-13,.cls-2,.cls-3,.cls-4,.cls-5,.cls-6,.cls-7,.cls-8,.cls-9{fill-rule:evenodd;}.cls-1{fill:url(#linear-gradient);}.cls-2{fill:#4d5291;}.cls-3{fill:url(#linear-gradient-2);}.cls-4{fill:url(#linear-gradient-3);}.cls-5{fill:url(#linear-gradient-4);}.cls-6{fill:url(#linear-gradient-5);}.cls-7{fill:url(#linear-gradient-6);}.cls-8{fill:url(#linear-gradient-7);}.cls-9{fill:url(#linear-gradient-8);}.cls-10{fill:url(#linear-gradient-9);}.cls-11{fill:url(#linear-gradient-10);}.cls-12{fill:url(#linear-gradient-11);}.cls-13{fill:url(#linear-gradient-12);}</style><linearGradient id="linear-gradient" x1="129.51" y1="93.36" x2="129.51" y2="132.18" gradientUnits="userSpaceOnUse"><stop offset="0" stop-color="#ff7f86" stop-opacity="0.96"/><stop offset="0.68" stop-color="#764ebc" stop-opacity="0.99"/><stop offset="1" stop-color="#3a38d4"/></linearGradient><linearGradient id="linear-gradient-2" x1="66.77" y1="127.73" x2="66.77" y2="173.99" gradientUnits="userSpaceOnUse"><stop offset="0" stop-color="#54bfb1"/><stop offset="0.14" stop-color="#52b6b3"/><stop offset="0.35" stop-color="#4e9fb9"/><stop offset="0.63" stop-color="#4678c3"/><stop offset="0.94" stop-color="#3c43d1"/><stop offset="1" stop-color="#3a38d4"/></linearGradient><linearGradient id="linear-gradient-3" x1="181.96" y1="69.98" x2="181.96" y2="108.81" xlink:href="#linear-gradient"/><linearGradient id="linear-gradient-4" x1="129.2" y1="127" x2="129.2" y2="173.26" xlink:href="#linear-gradient-2"/><linearGradient id="linear-gradient-5" x1="155.81" y1="137.5" x2="155.81" y2="176.32" xlink:href="#linear-gradient"/><linearGradient id="linear-gradient-6" x1="153.81" y1="84.25" x2="153.81" y2="130.51" xlink:href="#linear-gradient-2"/><linearGradient id="linear-gradient-7" x1="104.58" y1="45.16" x2="104.58" y2="83.98" xlink:href="#linear-gradient"/><linearGradient id="linear-gradient-8" x1="15.42" y1="98.54" x2="15.42" y2="144.8" xlink:href="#linear-gradient-2"/><linearGradient id="linear-gradient-9" x1="110.61" y1="126.14" x2="110.61" y2="164.96" gradientTransform="matrix(1, 0, 0, 1, -0.11, 0.19)" xlink:href="#linear-gradient"/><linearGradient id="linear-gradient-10" x1="43.04" y1="76.98" x2="43.04" y2="115.81" xlink:href="#linear-gradient"/><linearGradient id="linear-gradient-11" x1="190.18" y1="125.82" x2="190.18" y2="172.08" xlink:href="#linear-gradient-2"/><linearGradient id="linear-gradient-12" x1="69.84" y1="70.3" x2="69.84" y2="116.56" xlink:href="#linear-gradient-2"/></defs><title>tree-forest</title><g id="Layer_2" data-name="Layer 2"><g id="Layer_2-2" data-name="Layer 2"><path class="cls-1" d="M131.13,132.18H127.9V116.3l-8.44-6.16h0l-.95,1.31,7.78,5.66v6.69a15.6,15.6,0,0,1-12.94-15.06c0-8.48,7.25-15.36,16.17-15.36s16.18,6.88,16.18,15.36a15.6,15.6,0,0,1-12.94,15.06v-6.69l7.78-5.66-1-1.31h0v0l-8.45,6.17Zm0-22.66v4.78l1.61-1.17V110.3l4.88-3.55-1-1.31h0Zm-3.23,0L123.16,106l-.79-.58-1,1.31,4.88,3.55v2.82l1.61,1.17Zm3.23-6.15v4.15l1.61-1.19v-2.14l2-1.39-.93-1.32h0Zm-3.23,0-2.64-1.88-.93,1.32,2,1.39v2.13l1.62,1.19Z"/><path class="cls-2" d="M52.48,152.65H48.35V142.06a8.29,8.29,0,0,1-4.21-2.63,10.32,10.32,0,0,1-11.17-17,7.22,7.22,0,0,1,5.76-11.11,12.39,12.39,0,0,1,23.37,0,7.22,7.22,0,0,1,5.76,11.11,10.32,10.32,0,0,1-11.17,17,8.29,8.29,0,0,1-4.21,2.63Z"/><path class="cls-3" d="M68.7,174H64.85v-9.64H51.35l7.71-11.57H53.28L61,141.22H57.14l9.63-13.49,9.64,13.49H72.56l7.71,11.56H74.48l7.71,11.57H68.7Z"/><path class="cls-4" d="M183.57,108.81h-3.23V92.92l-8.44-6.15v0h0l-1,1.3,7.78,5.66v6.7a15.6,15.6,0,0,1-12.94-15.06C165.78,76.87,173,70,182,70s16.17,6.89,16.17,15.37a15.59,15.59,0,0,1-12.93,15.06l0-6.7L193,88.05l-1-1.3h0l0,0-8.46,6.16Zm0-22.67v4.79l1.61-1.18V86.92l4.88-3.54-.95-1.31h0Zm-3.23,0-4.74-3.48-.79-.58-.95,1.31,4.87,3.54v2.82l1.62,1.18ZM183.57,80v4.14l1.61-1.19V80.81l2-1.39-.93-1.32h0Zm-3.23,0L177.7,78.1l-.93,1.32,2,1.39v2.12l1.62,1.19Z"/><path class="cls-2" d="M102.63,195.74H98.5V185.15a8.29,8.29,0,0,1-4.21-2.63,10.32,10.32,0,0,1-11.17-17,7.24,7.24,0,0,1,5.76-11.11,12.39,12.39,0,0,1,23.37,0A7.24,7.24,0,0,1,118,165.56a10.32,10.32,0,0,1-11.18,17,8.2,8.2,0,0,1-4.21,2.63Z"/><path class="cls-5" d="M131.12,173.26h-3.85v-9.63H113.78l7.71-11.57H115.7l7.71-11.56h-3.85L129.2,127l9.63,13.5H135l7.71,11.56H136.9l7.71,11.57H131.12Z"/><path class="cls-2" d="M101,135.46H96.9V124.88a8.2,8.2,0,0,1-4.21-2.63,10.33,10.33,0,0,1-11.18-17,7.23,7.23,0,0,1,5.77-11.1,12.39,12.39,0,0,1,23.37,0,7.23,7.23,0,0,1,6.89,7.22,7.14,7.14,0,0,1-1.13,3.88,10.32,10.32,0,0,1-11.17,17,8.29,8.29,0,0,1-4.21,2.63Z"/><path class="cls-6" d="M157.43,176.32h-3.24V160.44l-8.44-6.16h0l-1,1.31,7.79,5.66,0,6.69a15.6,15.6,0,0,1-12.94-15.06c0-8.48,7.25-15.36,16.18-15.36S172,144.38,172,152.86a15.6,15.6,0,0,1-12.94,15.06l0-6.69,7.79-5.66-1-1.31h0l0,0-8.45,6.17Zm0-22.66v4.78l1.62-1.17,0-2.83,4.88-3.55-.95-1.31h0Zm-3.24,0-4.73-3.49-.8-.58-.95,1.31,4.88,3.55v2.82l1.61,1.17Zm3.24-6.15v4.15l1.61-1.19v-2.14l2-1.39-.94-1.32h0Zm-3.24,0-2.63-1.88-.94,1.32,2,1.39v2.13l1.61,1.19Z"/><path class="cls-2" d="M64.16,97.08H60V86.45a8.17,8.17,0,0,1-4.21-2.65,10.19,10.19,0,0,1-4,.83,10.38,10.38,0,0,1-7.13-17.88,7.18,7.18,0,0,1-1.13-3.9,7.26,7.26,0,0,1,6.9-7.26,12.37,12.37,0,0,1,23.36,0,7.26,7.26,0,0,1,6.9,7.26,7.18,7.18,0,0,1-1.13,3.9,10.38,10.38,0,0,1-7.13,17.88,10.19,10.19,0,0,1-4-.83,8.17,8.17,0,0,1-4.21,2.65Z"/><path class="cls-7" d="M155.74,130.51h-3.86v-9.64H138.39l7.71-11.57h-5.78L148,97.74h-3.86l9.64-13.49,9.64,13.49h-3.86l7.71,11.56h-5.78l7.71,11.57H155.74Z"/><path class="cls-8" d="M106.2,84H103V68.1L94.52,62v0h0l-1,1.31,7.79,5.66,0,6.7A15.6,15.6,0,0,1,88.4,60.53c0-8.48,7.25-15.37,16.18-15.37s16.18,6.89,16.18,15.37a15.6,15.6,0,0,1-12.94,15.06l0-6.7,7.78-5.66-1-1.31h0l0,0-8.46,6.16Zm0-22.66v4.79l1.61-1.18V62.1l4.88-3.55-1-1.3h0Zm-3.23,0-4.74-3.49-.79-.57-1,1.3,4.87,3.55v2.82L103,66.1Zm3.23-6.15v4.15l1.61-1.19V56l2-1.39-.94-1.32h0Zm-3.23,0-2.63-1.88-.94,1.32,2,1.39v2.13L103,59.3Z"/><path class="cls-2" d="M146.08,93.72H142V83.14a8.35,8.35,0,0,1-4.21-2.63,10.32,10.32,0,0,1-11.17-17,7.22,7.22,0,0,1,5.76-11.11,12.4,12.4,0,0,1,23.37,0,7.22,7.22,0,0,1,5.76,11.11,10.33,10.33,0,0,1-11.17,17,8.27,8.27,0,0,1-4.21,2.63Z"/><path class="cls-9" d="M17.35,144.8H13.49v-9.64H0L7.71,123.6H1.93L9.64,112H5.78l9.64-13.49L25.06,112H21.2l7.71,11.57H23.13l7.71,11.56H17.35Z"/><path class="cls-10" d="M112.42,164.94h-3.23l0-15.88-8.45-6.14,0,0h0l-.95,1.31,7.79,5.64v6.7a15.61,15.61,0,0,1-13-15c0-8.48,7.22-15.38,16.15-15.4s16.19,6.86,16.21,15.34A15.61,15.61,0,0,1,114,156.54l0-6.69,7.77-5.67-1-1.31h0l0,0-8.44,6.18Zm0-22.66v4.79l1.61-1.18v-2.83l4.87-3.56-1-1.3h0Zm-3.24,0-4.74-3.48-.8-.58-.95,1.31,4.89,3.54v2.82l1.62,1.17Zm3.22-6.16,0,4.15,1.61-1.19v-2.14l2-1.39-.94-1.32h0Zm-3.23,0-2.64-1.87-.93,1.32,2,1.38v2.13l1.62,1.19Z"/><path class="cls-2" d="M183,143.25h-4.13V132.67a8.35,8.35,0,0,1-4.21-2.63,10.32,10.32,0,0,1-11.17-17,7.21,7.21,0,0,1,5.76-11.1,12.39,12.39,0,0,1,23.37,0,7.21,7.21,0,0,1,5.76,11.1,10.33,10.33,0,0,1-11.17,17,8.27,8.27,0,0,1-4.21,2.63Z"/><path class="cls-11" d="M44.66,115.81H41.42V99.93L33,93.77l0,0h0l-1,1.31,7.78,5.65,0,6.7A15.61,15.61,0,0,1,26.86,92.35C26.86,83.87,34.11,77,43,77s16.18,6.89,16.18,15.37a15.6,15.6,0,0,1-12.94,15.06v-6.7l7.78-5.65-.95-1.31h0l0,0-8.45,6.16Zm0-22.67v4.79l1.62-1.18V93.92l4.87-3.54-1-1.31h0Zm-3.24,0-4.73-3.48-.8-.58-1,1.31,4.88,3.54v2.82l1.61,1.18ZM44.66,87v4.14l1.62-1.19V87.81l2-1.39-.94-1.32h0Zm-3.24,0L38.79,85.1l-.94,1.32,2,1.39v2.13l1.61,1.18Z"/><path class="cls-12" d="M192.11,172.08h-3.85v-9.63h-13.5l7.71-11.57h-5.78l7.71-11.56h-3.86l9.64-13.5,9.64,13.5H196l7.71,11.56h-5.78l7.71,11.57H192.11Z"/><path class="cls-13" d="M71.77,116.56H67.92v-9.63H54.42l7.71-11.57H56.35L64.06,83.8H60.21l9.64-13.5,9.63,13.5H75.63l7.71,11.56H77.55l7.71,11.57H71.77Z"/><path d="M37.42,0A6.71,6.71,0,0,1,40,.46a6.93,6.93,0,0,1,1.89,1.11A4.87,4.87,0,0,1,43.08,3a3.09,3.09,0,0,1,.43,1.35.43.43,0,0,1-.14.38.56.56,0,0,1-.39.15H42a.82.82,0,0,1-.42-.09,1.12,1.12,0,0,1-.32-.44,5.09,5.09,0,0,0-.4-.61A3.39,3.39,0,0,0,40.12,3,4.88,4.88,0,0,0,39,2.41a4.4,4.4,0,0,0-1.56-.25,5,5,0,0,0-1.29.16A3.69,3.69,0,0,0,35,2.78a2.6,2.6,0,0,0-.77.78A2.1,2.1,0,0,0,34,4.66a2,2,0,0,0,.28,1,2.39,2.39,0,0,0,.89.78,7.72,7.72,0,0,0,1.55.64c.62.19,1.38.41,2.28.65a14.35,14.35,0,0,1,2.31.79,6.15,6.15,0,0,1,1.55,1,3.36,3.36,0,0,1,.88,1.25A4.42,4.42,0,0,1,44,12.38a4.13,4.13,0,0,1-.47,2,4.59,4.59,0,0,1-1.3,1.55,6.33,6.33,0,0,1-2,1,9.13,9.13,0,0,1-2.65.36A7.83,7.83,0,0,1,35,16.87a7,7,0,0,1-2-1.05,5.77,5.77,0,0,1-1.33-1.44,3.18,3.18,0,0,1-.52-1.56.55.55,0,0,1,.16-.38.51.51,0,0,1,.37-.15h1a.93.93,0,0,1,.42.09.89.89,0,0,1,.32.44,3.62,3.62,0,0,0,.45.73,3.21,3.21,0,0,0,.8.74,4.78,4.78,0,0,0,1.22.59,5.43,5.43,0,0,0,1.71.24,6.3,6.3,0,0,0,1.59-.19,4.77,4.77,0,0,0,1.34-.55,3,3,0,0,0,.91-.87,2,2,0,0,0,.33-1.13,1.58,1.58,0,0,0-.38-1.06,3.55,3.55,0,0,0-1.11-.81,10.23,10.23,0,0,0-1.76-.66c-.7-.2-1.48-.41-2.36-.63a9.39,9.39,0,0,1-2-.76,5.15,5.15,0,0,1-1.37-1,3.47,3.47,0,0,1-.76-1.27,4.92,4.92,0,0,1-.23-1.51,4.33,4.33,0,0,1,.36-1.73,4.45,4.45,0,0,1,1.07-1.49,5.33,5.33,0,0,1,1.78-1A7.07,7.07,0,0,1,37.42,0Z"/><path d="M45.94,13.9a3.47,3.47,0,0,1,.38-1.68A3.78,3.78,0,0,1,47.38,11,5.54,5.54,0,0,1,49,10.18a11.12,11.12,0,0,1,1.91-.48l3.38-.56V8.83A2.16,2.16,0,0,0,53.44,7a3.23,3.23,0,0,0-2-.62,2.7,2.7,0,0,0-1.59.39,4,4,0,0,0-.93.91.68.68,0,0,1-.31.26,1.12,1.12,0,0,1-.46.08h-.71a.65.65,0,0,1-.47-.2.5.5,0,0,1-.18-.45,2.29,2.29,0,0,1,.42-1.08,3.63,3.63,0,0,1,1-1,6.25,6.25,0,0,1,1.47-.7,5.37,5.37,0,0,1,1.76-.28,6.23,6.23,0,0,1,2,.31A4.49,4.49,0,0,1,55,5.54a4.19,4.19,0,0,1,1,1.49,5.19,5.19,0,0,1,.38,2v7.32a.63.63,0,0,1-.2.46.61.61,0,0,1-.45.19h-.89a.65.65,0,0,1-.65-.65v-1a2.19,2.19,0,0,1-.67.8,4.62,4.62,0,0,1-1,.59,6.63,6.63,0,0,1-2.41.48A5.48,5.48,0,0,1,48.4,17a4.36,4.36,0,0,1-1.32-.71,3.12,3.12,0,0,1-.84-1.07A3.06,3.06,0,0,1,45.94,13.9Zm4.41,1.32A4.5,4.5,0,0,0,51.94,15a3.59,3.59,0,0,0,1.23-.73A3.11,3.11,0,0,0,54,13.1a3.7,3.7,0,0,0,.27-1.44v-.6l-2.83.46a6.84,6.84,0,0,0-2.4.77,1.57,1.57,0,0,0-.89,1.37,1.23,1.23,0,0,0,.12.52,1.62,1.62,0,0,0,.38.51,1.9,1.9,0,0,0,.69.38A3.13,3.13,0,0,0,50.35,15.22Z"/><path d="M64.08,17a.59.59,0,0,1-.48-.19,1.66,1.66,0,0,1-.26-.41L58.56,5.3a.39.39,0,0,1,0-.16.56.56,0,0,1,.16-.41.58.58,0,0,1,.41-.17H60a.7.7,0,0,1,.54.19,1.22,1.22,0,0,1,.25.39l3.72,8.71,3.72-8.71a1.37,1.37,0,0,1,.24-.39.58.58,0,0,1,.46-.19h1a.58.58,0,0,1,.58.58.38.38,0,0,1,0,.16L65.69,16.44a2.5,2.5,0,0,1-.25.41A.57.57,0,0,1,65,17Z"/><path d="M72,9.6a6.13,6.13,0,0,1,.53-2.06,5.74,5.74,0,0,1,1.12-1.68A5,5,0,0,1,75.3,4.73a5.59,5.59,0,0,1,2.17-.41,6,6,0,0,1,2.32.42A4.75,4.75,0,0,1,81.53,6a5.34,5.34,0,0,1,1.1,1.92A7.66,7.66,0,0,1,83,10.39V11a.65.65,0,0,1-.65.65H74.11v.14a3.22,3.22,0,0,0,3.36,3.39,4.1,4.1,0,0,0,2-.38A4,4,0,0,0,80.52,14a1.41,1.41,0,0,1,.34-.27,1,1,0,0,1,.43-.07H82a.7.7,0,0,1,.48.19.49.49,0,0,1,.17.46,2.7,2.7,0,0,1-.41.95,3.85,3.85,0,0,1-1,1,6,6,0,0,1-1.59.74,7.36,7.36,0,0,1-2.22.3,5.34,5.34,0,0,1-2.16-.42,5.25,5.25,0,0,1-1.67-1.15A5.69,5.69,0,0,1,72.51,14,6.65,6.65,0,0,1,72,11.81,10.21,10.21,0,0,1,72,9.6Zm2.13.07h6.75V9.6a3.05,3.05,0,0,0-.93-2.34,3.43,3.43,0,0,0-2.46-.88,3.65,3.65,0,0,0-1.29.23,3.29,3.29,0,0,0-1.06.65,3.14,3.14,0,0,0-.72,1,3.54,3.54,0,0,0-.29,1.32Z"/><path d="M93,13.58a1.11,1.11,0,0,0-.25-.75,2.11,2.11,0,0,0-.75-.52,9.46,9.46,0,0,0-1.29-.41c-.52-.12-1.12-.26-1.81-.4a4.7,4.7,0,0,1-2.72-1.36,3.38,3.38,0,0,1-.78-2.22,3.36,3.36,0,0,1,.28-1.37,3.4,3.4,0,0,1,.87-1.15A4,4,0,0,1,88,4.61a6.63,6.63,0,0,1,2-.29,7.3,7.3,0,0,1,2.05.26,5.21,5.21,0,0,1,1.48.68,3.31,3.31,0,0,1,.91.87,1.83,1.83,0,0,1,.34.9.58.58,0,0,1-.18.46.66.66,0,0,1-.47.19h-.79a1.28,1.28,0,0,1-.35-.06.7.7,0,0,1-.37-.28,2.34,2.34,0,0,0-.93-.68,4.23,4.23,0,0,0-1.69-.28,3.51,3.51,0,0,0-1.79.41,1.27,1.27,0,0,0-.68,1.13,1.24,1.24,0,0,0,.19.73,1.46,1.46,0,0,0,.63.48,5.25,5.25,0,0,0,1.14.37c.47.12,1.06.25,1.76.41a8.35,8.35,0,0,1,1.85.61,4.71,4.71,0,0,1,1.2.84,2.88,2.88,0,0,1,.65,1,3.84,3.84,0,0,1,.19,1.18,3.06,3.06,0,0,1-.35,1.4,3.46,3.46,0,0,1-1,1.17,5.17,5.17,0,0,1-1.57.82,6.44,6.44,0,0,1-2.1.31A7,7,0,0,1,88.1,17a6.62,6.62,0,0,1-1.56-.71,3.52,3.52,0,0,1-1-.91,1.75,1.75,0,0,1-.37-.92.56.56,0,0,1,.16-.46.65.65,0,0,1,.48-.19h.87a1.4,1.4,0,0,1,.33,0,.56.56,0,0,1,.36.27,2.51,2.51,0,0,0,1.06.82,4.53,4.53,0,0,0,1.75.29,4.7,4.7,0,0,0,1-.12,3.91,3.91,0,0,0,.91-.34,2,2,0,0,0,.63-.52A1,1,0,0,0,93,13.58Z"/><path d="M110.45,16.39a.66.66,0,0,1-.19.46.62.62,0,0,1-.46.19h-1a.65.65,0,0,1-.65-.65V3.17l-3.89,3a.51.51,0,0,1-.48.14.69.69,0,0,1-.43-.24l-.58-.74a.63.63,0,0,1-.13-.48.62.62,0,0,1,.25-.43L108.05.43a.91.91,0,0,1,.38-.17l.39,0h1a.62.62,0,0,1,.46.19.66.66,0,0,1,.19.46Z"/><path d="M123.29.24a.6.6,0,0,1,.45.19.63.63,0,0,1,.2.46v.86a1.54,1.54,0,0,1-.08.46,2.82,2.82,0,0,1-.19.5l-5.33,13.75a1.28,1.28,0,0,1-.25.4.54.54,0,0,1-.44.18h-1.11a.54.54,0,0,1-.4-.17.53.53,0,0,1-.17-.41.38.38,0,0,1,0-.1,1.84,1.84,0,0,1,.06-.18L121.39,2.4h-7.87a.62.62,0,0,1-.46-.19.66.66,0,0,1-.19-.46V.89a.66.66,0,0,1,.19-.46.62.62,0,0,1,.46-.19Z"/><path d="M142.27.24a.62.62,0,0,1,.46.19.62.62,0,0,1,.19.46v.86a.65.65,0,0,1-.65.65h-4.49v14a.62.62,0,0,1-.19.46.61.61,0,0,1-.45.19h-1a.6.6,0,0,1-.45-.19.63.63,0,0,1-.2-.46V2.4H131a.65.65,0,0,1-.65-.65V.89a.62.62,0,0,1,.19-.46A.62.62,0,0,1,131,.24Z"/><path d="M149.59,4.56a.65.65,0,0,1,.65.65V6a.61.61,0,0,1-.19.45.62.62,0,0,1-.46.19H148.2a2.44,2.44,0,0,0-2.76,2.76v7a.65.65,0,0,1-.65.65h-.89a.61.61,0,0,1-.45-.19.62.62,0,0,1-.19-.46V5.21a.62.62,0,0,1,.19-.46.61.61,0,0,1,.45-.19h.89a.65.65,0,0,1,.65.65V6a2.94,2.94,0,0,1,1.15-1,3.84,3.84,0,0,1,1.75-.34Z"/><path d="M151.49,9.6A6.13,6.13,0,0,1,152,7.54a5.74,5.74,0,0,1,1.12-1.68,5,5,0,0,1,1.67-1.13A5.59,5.59,0,0,1,157,4.32a6,6,0,0,1,2.32.42A4.75,4.75,0,0,1,161,6a5.34,5.34,0,0,1,1.1,1.92,7.66,7.66,0,0,1,.39,2.52V11a.65.65,0,0,1-.65.65h-8.26v.14a3.43,3.43,0,0,0,1,2.51,3.36,3.36,0,0,0,2.36.88,4.1,4.1,0,0,0,2-.38A4,4,0,0,0,160,14a1.41,1.41,0,0,1,.34-.27,1,1,0,0,1,.43-.07h.72a.68.68,0,0,1,.48.19.49.49,0,0,1,.17.46,2.7,2.7,0,0,1-.41.95,3.69,3.69,0,0,1-1,1,6,6,0,0,1-1.59.74,7.36,7.36,0,0,1-2.22.3,5.34,5.34,0,0,1-2.16-.42,5.1,5.1,0,0,1-1.66-1.15A5.54,5.54,0,0,1,152,14a6.65,6.65,0,0,1-.53-2.17A10.21,10.21,0,0,1,151.49,9.6Zm2.13.07h6.75V9.6a3.05,3.05,0,0,0-.93-2.34A3.43,3.43,0,0,0,157,6.38a3.65,3.65,0,0,0-1.29.23,3.29,3.29,0,0,0-1.06.65,3.14,3.14,0,0,0-.72,1,3.75,3.75,0,0,0-.29,1.32Z"/><path d="M164.85,9.6a6.65,6.65,0,0,1,.53-2.06,6,6,0,0,1,1.13-1.68,4.88,4.88,0,0,1,1.67-1.13,5.59,5.59,0,0,1,2.17-.41,6,6,0,0,1,2.32.42A4.75,4.75,0,0,1,174.41,6a5.34,5.34,0,0,1,1.1,1.92,7.67,7.67,0,0,1,.38,2.52V11a.62.62,0,0,1-.19.46.65.65,0,0,1-.45.19H167v.14a3.22,3.22,0,0,0,3.36,3.39,4.1,4.1,0,0,0,2-.38A4,4,0,0,0,173.4,14a1.63,1.63,0,0,1,.33-.27,1,1,0,0,1,.44-.07h.72a.72.72,0,0,1,.48.19.49.49,0,0,1,.17.46,2.7,2.7,0,0,1-.41.95,3.85,3.85,0,0,1-1,1,6.18,6.18,0,0,1-1.59.74,7.36,7.36,0,0,1-2.22.3,5.34,5.34,0,0,1-2.16-.42,5.14,5.14,0,0,1-1.67-1.15A5.91,5.91,0,0,1,165.38,14a7.19,7.19,0,0,1-.53-2.17A10.21,10.21,0,0,1,164.85,9.6Zm2.14.07h6.74V9.6a3,3,0,0,0-.92-2.34,3.44,3.44,0,0,0-2.46-.88,3.65,3.65,0,0,0-1.29.23,3.09,3.09,0,0,0-1.06.65,3,3,0,0,0-.72,1A3.54,3.54,0,0,0,167,9.6Z"/><path d="M185.9,13.58a1.11,1.11,0,0,0-.25-.75,2.11,2.11,0,0,0-.75-.52,9.46,9.46,0,0,0-1.29-.41c-.52-.12-1.12-.26-1.81-.4a4.7,4.7,0,0,1-2.72-1.36,3.38,3.38,0,0,1-.78-2.22,3.36,3.36,0,0,1,.28-1.37,3.4,3.4,0,0,1,.87-1.15,4,4,0,0,1,1.45-.79,6.63,6.63,0,0,1,2-.29,7.35,7.35,0,0,1,2.05.26,5.21,5.21,0,0,1,1.48.68,3.31,3.31,0,0,1,.91.87,1.83,1.83,0,0,1,.34.9.58.58,0,0,1-.18.46.66.66,0,0,1-.47.19h-.79a1.28,1.28,0,0,1-.35-.06.7.7,0,0,1-.37-.28,2.34,2.34,0,0,0-.93-.68A4.23,4.23,0,0,0,183,6.38a3.51,3.51,0,0,0-1.79.41,1.27,1.27,0,0,0-.68,1.13,1.24,1.24,0,0,0,.19.73,1.46,1.46,0,0,0,.63.48,5.33,5.33,0,0,0,1.13.37l1.77.41a8.53,8.53,0,0,1,1.85.61,4.71,4.71,0,0,1,1.2.84,2.88,2.88,0,0,1,.65,1,3.84,3.84,0,0,1,.19,1.18,3.06,3.06,0,0,1-.35,1.4,3.46,3.46,0,0,1-1,1.17,5.17,5.17,0,0,1-1.57.82,6.49,6.49,0,0,1-2.1.31A7,7,0,0,1,181,17a6.62,6.62,0,0,1-1.56-.71,3.52,3.52,0,0,1-1-.91,1.75,1.75,0,0,1-.37-.92.56.56,0,0,1,.16-.46.65.65,0,0,1,.48-.19h.87a1.47,1.47,0,0,1,.33,0,.56.56,0,0,1,.36.27,2.51,2.51,0,0,0,1.06.82,4.53,4.53,0,0,0,1.75.29,4.7,4.7,0,0,0,1.05-.12,3.91,3.91,0,0,0,.91-.34,2,2,0,0,0,.63-.52A1,1,0,0,0,185.9,13.58Z"/></g></g></svg>