<svg xmlns="http://www.w3.org/2000/svg" xmlns:xlink="http://www.w3.org/1999/xlink" viewBox="0 0 205.6 199.1"><defs><style>.cls-1,.cls-10,.cls-11,.cls-12,.cls-13,.cls-2,.cls-3,.cls-4,.cls-5,.cls-6,.cls-7,.cls-8,.cls-9{fill-rule:evenodd;}.cls-1{fill:url(#linear-gradient);}.cls-2{fill:#4d5291;}.cls-3{fill:url(#linear-gradient-2);}.cls-4{fill:url(#linear-gradient-3);}.cls-5{fill:url(#linear-gradient-4);}.cls-6{fill:url(#linear-gradient-5);}.cls-7{fill:url(#linear-gradient-6);}.cls-8{fill:url(#linear-gradient-7);}.cls-9{fill:url(#linear-gradient-8);}.cls-10{fill:url(#linear-gradient-9);}.cls-11{fill:url(#linear-gradient-10);}.cls-12{fill:url(#linear-gradient-11);}.cls-13{fill:url(#linear-gradient-12);}.cls-14{font-size:24px;font-family:Rubik-Regular, Rubik;}.cls-15{letter-spacing:-0.01em;}.cls-16{letter-spacing:-0.02em;}.cls-17{letter-spacing:0em;}.cls-18{letter-spacing:-0.03em;}.cls-19{letter-spacing:-0.08em;}.cls-20{letter-spacing:-0.01em;}</style><linearGradient id="linear-gradient" x1="129.51" y1="96.71" x2="129.51" y2="135.54" gradientUnits="userSpaceOnUse"><stop offset="0" stop-color="#ff7f86" stop-opacity="0.96"/><stop offset="0.68" stop-color="#764ebc" stop-opacity="0.99"/><stop offset="1" stop-color="#3a38d4"/></linearGradient><linearGradient id="linear-gradient-2" x1="66.77" y1="131.09" x2="66.77" y2="177.34" gradientUnits="userSpaceOnUse"><stop offset="0" stop-color="#54bfb1"/><stop offset="0.14" stop-color="#52b6b3"/><stop offset="0.35" stop-color="#4e9fb9"/><stop offset="0.63" stop-color="#4678c3"/><stop offset="0.94" stop-color="#3c43d1"/><stop offset="1" stop-color="#3a38d4"/></linearGradient><linearGradient id="linear-gradient-3" x1="181.96" y1="73.34" x2="181.96" y2="112.17" xlink:href="#linear-gradient"/><linearGradient id="linear-gradient-4" x1="129.2" y1="130.36" x2="129.2" y2="176.62" xlink:href="#linear-gradient-2"/><linearGradient id="linear-gradient-5" x1="155.81" y1="140.86" x2="155.81" y2="179.68" xlink:href="#linear-gradient"/><linearGradient id="linear-gradient-6" x1="153.81" y1="87.6" x2="153.81" y2="133.86" xlink:href="#linear-gradient-2"/><linearGradient id="linear-gradient-7" x1="104.58" y1="48.52" x2="104.58" y2="87.34" xlink:href="#linear-gradient"/><linearGradient id="linear-gradient-8" x1="15.42" y1="101.9" x2="15.42" y2="148.16" xlink:href="#linear-gradient-2"/><linearGradient id="linear-gradient-9" x1="110.61" y1="129.49" x2="110.61" y2="168.32" gradientTransform="matrix(1, 0, 0, 1, -0.12, 0.19)" xlink:href="#linear-gradient"/><linearGradient id="linear-gradient-10" x1="43.04" y1="80.34" x2="43.04" y2="119.17" xlink:href="#linear-gradient"/><linearGradient id="linear-gradient-11" x1="190.18" y1="129.18" x2="190.18" y2="175.44" xlink:href="#linear-gradient-2"/><linearGradient id="linear-gradient-12" x1="69.84" y1="73.66" x2="69.84" y2="119.92" xlink:href="#linear-gradient-2"/></defs><title>tree-forest</title><g id="Layer_2" data-name="Layer 2"><g id="Layer_2-2" data-name="Layer 2"><path class="cls-1" d="M131.13,135.54H127.9V119.66l-8.44-6.16h0l-.95,1.31,7.78,5.66v6.69a15.6,15.6,0,0,1-12.94-15.06c0-8.48,7.25-15.37,16.17-15.37s16.18,6.89,16.18,15.37a15.6,15.6,0,0,1-12.94,15.06v-6.69l7.78-5.66-1-1.31h0v0l-8.45,6.17Zm0-22.66v4.78l1.61-1.17v-2.83l4.88-3.55-1-1.31h0Zm-3.23,0-4.74-3.49-.79-.58-1,1.31,4.88,3.55v2.82l1.61,1.17Zm3.23-6.15v4.15l1.61-1.19v-2.14l2-1.39-.93-1.32h0Zm-3.23,0-2.64-1.88-.93,1.32,2,1.39v2.13l1.62,1.19Z"/><path class="cls-2" d="M52.48,156H48.35V145.42a8.29,8.29,0,0,1-4.21-2.63,10.32,10.32,0,0,1-11.17-17,7.22,7.22,0,0,1,5.76-11.11,12.39,12.39,0,0,1,23.37,0,7.22,7.22,0,0,1,5.76,11.11,10.32,10.32,0,0,1-11.17,17,8.29,8.29,0,0,1-4.21,2.63Z"/><path class="cls-3" d="M68.7,177.34H64.85v-9.63H51.35l7.71-11.57H53.28L61,144.58H57.14l9.63-13.49,9.64,13.49H72.56l7.71,11.56H74.48l7.71,11.57H68.7Z"/><path class="cls-4" d="M183.57,112.17h-3.23V96.28l-8.44-6.15v0h0l-1,1.31,7.78,5.66v6.7a15.6,15.6,0,0,1-12.94-15.06c0-8.48,7.25-15.37,16.18-15.37s16.17,6.89,16.17,15.37a15.59,15.59,0,0,1-12.93,15.06l0-6.7L193,91.41l-1-1.31h0l0,0-8.46,6.16Zm0-22.67v4.79l1.61-1.18V90.28l4.88-3.54-.95-1.31h0Zm-3.23,0L175.6,86l-.79-.58-.95,1.31,4.87,3.54V93.1l1.62,1.18Zm3.23-6.15v4.15l1.61-1.19V84.16l2-1.39-.93-1.32h0Zm-3.23,0-2.64-1.88-.93,1.32,2,1.39v2.13l1.62,1.19Z"/><path class="cls-2" d="M102.63,199.1H98.5V188.51a8.29,8.29,0,0,1-4.21-2.63,10.32,10.32,0,0,1-11.17-17,7.24,7.24,0,0,1,5.76-11.11,12.39,12.39,0,0,1,23.37,0A7.24,7.24,0,0,1,118,168.92a10.32,10.32,0,0,1-11.18,17,8.2,8.2,0,0,1-4.21,2.63Z"/><path class="cls-5" d="M131.12,176.62h-3.85V167H113.78l7.71-11.56H115.7l7.71-11.57h-3.85l9.64-13.49,9.63,13.49H135l7.71,11.57H136.9L144.61,167H131.12Z"/><path class="cls-2" d="M101,138.82H96.9V128.24a8.27,8.27,0,0,1-4.21-2.63,10.33,10.33,0,0,1-11.18-17,7.23,7.23,0,0,1,5.77-11.1,12.39,12.39,0,0,1,23.37,0,7.22,7.22,0,0,1,6.89,7.21,7.15,7.15,0,0,1-1.13,3.89,10.33,10.33,0,0,1-11.17,17,8.35,8.35,0,0,1-4.21,2.63Z"/><path class="cls-6" d="M157.43,179.68h-3.24V163.8l-8.44-6.16h0l-1,1.31,7.79,5.66,0,6.69a15.6,15.6,0,0,1-12.94-15.06c0-8.48,7.25-15.36,16.18-15.36S172,147.74,172,156.22a15.6,15.6,0,0,1-12.94,15.06l0-6.69,7.79-5.66-1-1.31h0l0,0-8.45,6.17Zm0-22.66v4.78l1.62-1.17,0-2.83,4.88-3.55-.95-1.31h0Zm-3.24,0-4.73-3.49-.8-.58-.95,1.31,4.88,3.55v2.82l1.61,1.17Zm3.24-6.15V155l1.61-1.19v-2.14l2-1.39-.94-1.32h0Zm-3.24,0L151.56,149l-.94,1.32,2,1.39v2.13l1.61,1.19Z"/><path class="cls-2" d="M64.16,100.44H60V89.81a8.17,8.17,0,0,1-4.21-2.65,10.19,10.19,0,0,1-4,.83,10.38,10.38,0,0,1-7.13-17.88A7.28,7.28,0,0,1,50.42,59a12.36,12.36,0,0,1,23.36,0,7.28,7.28,0,0,1,5.77,11.16A10.38,10.38,0,0,1,72.42,88a10.19,10.19,0,0,1-4-.83,8.17,8.17,0,0,1-4.21,2.65Z"/><path class="cls-7" d="M155.74,133.86h-3.86v-9.63H138.39l7.71-11.57h-5.78L148,101.1h-3.86l9.64-13.5,9.64,13.5h-3.86l7.71,11.56h-5.78l7.71,11.57H155.74Z"/><path class="cls-8" d="M106.2,87.34H103V71.46l-8.44-6.15v0h0l-1,1.31,7.79,5.66,0,6.7A15.6,15.6,0,0,1,88.4,63.89c0-8.48,7.25-15.37,16.18-15.37s16.18,6.89,16.18,15.37A15.6,15.6,0,0,1,107.82,79l0-6.7,7.78-5.66-1-1.31h0l0,0-8.46,6.16Zm0-22.66v4.78l1.61-1.17V65.46l4.88-3.55-1-1.3h0Zm-3.23,0-4.74-3.49-.79-.57-1,1.3,4.87,3.55v2.82L103,69.46Zm3.23-6.15v4.15l1.61-1.19V59.34l2-1.39-.94-1.32h0Zm-3.23,0-2.63-1.88L99.39,58l2,1.39v2.13L103,62.66Z"/><path class="cls-2" d="M146.08,97.08H142V86.5a8.35,8.35,0,0,1-4.21-2.63,10.32,10.32,0,0,1-11.17-17,7.22,7.22,0,0,1,5.76-11.11,12.4,12.4,0,0,1,23.37,0,7.22,7.22,0,0,1,5.76,11.11,10.33,10.33,0,0,1-11.17,17,8.27,8.27,0,0,1-4.21,2.63Z"/><path class="cls-9" d="M17.35,148.16H13.49v-9.64H0L7.71,127H1.93l7.71-11.57H5.78l9.64-13.49,9.64,13.49H21.2L28.91,127H23.13l7.71,11.56H17.35Z"/><path class="cls-10" d="M112.42,168.3h-3.23l0-15.88-8.45-6.14,0,0h0l-.95,1.31,7.79,5.64v6.7a15.62,15.62,0,0,1-13-15c0-8.48,7.22-15.38,16.15-15.4s16.19,6.86,16.21,15.34A15.61,15.61,0,0,1,114,159.9l0-6.69,7.77-5.68-1-1.3h0l0,0-8.44,6.18Zm0-22.66v4.79l1.61-1.18v-2.83l4.87-3.56-1-1.3h0Zm-3.24,0-4.74-3.48-.8-.58-.95,1.31,4.89,3.54v2.82l1.62,1.17Zm3.22-6.16,0,4.15,1.61-1.19V140.3l2-1.39-.94-1.32h0Zm-3.23,0-2.64-1.88-.93,1.33,2,1.38v2.13l1.62,1.19Z"/><path class="cls-2" d="M183,146.61h-4.13V136a8.35,8.35,0,0,1-4.21-2.63,10.32,10.32,0,0,1-11.17-17,7.22,7.22,0,0,1,5.76-11.11,12.4,12.4,0,0,1,23.37,0,7.22,7.22,0,0,1,5.76,11.11,10.33,10.33,0,0,1-11.17,17A8.27,8.27,0,0,1,183,136Z"/><path class="cls-11" d="M44.66,119.17H41.42V103.28L33,97.13l0,0h0l-1,1.31,7.78,5.65,0,6.7c-7.37-1.43-12.94-7.63-12.94-15.06,0-8.48,7.25-15.37,16.18-15.37s16.18,6.89,16.18,15.37a15.6,15.6,0,0,1-12.94,15.06v-6.7l7.78-5.65-.95-1.31h0l0,0-8.45,6.16Zm0-22.67v4.79l1.62-1.18V97.28l4.87-3.54-1-1.31h0Zm-3.24,0L36.69,93l-.8-.58-1,1.31,4.88,3.54v2.82l1.61,1.18Zm3.24-6.14v4.14l1.62-1.19V91.17l2-1.39-.94-1.32h0Zm-3.24,0-2.63-1.88-.94,1.32,2,1.39V93.3l1.61,1.18Z"/><path class="cls-12" d="M192.11,175.44h-3.85V165.8h-13.5l7.71-11.56h-5.78l7.71-11.57h-3.86l9.64-13.49,9.64,13.49H196l7.71,11.57h-5.78l7.71,11.56H192.11Z"/><path class="cls-13" d="M71.77,119.92H67.92v-9.63H54.42l7.71-11.57H56.35l7.71-11.56H60.21l9.64-13.5,9.63,13.5H75.63l7.71,11.56H77.55l7.71,11.57H71.77Z"/><text class="cls-14" transform="translate(30.19 20.4)">S<tspan class="cls-15" x="14.83" y="0">a</tspan><tspan class="cls-16" x="27.6" y="0">v</tspan><tspan class="cls-17" x="40.56" y="0">es 17</tspan><tspan class="cls-18" x="94.39" y="0"> </tspan><tspan class="cls-19" x="99.62" y="0">T</tspan><tspan class="cls-20" x="111.26" y="0">r</tspan><tspan class="cls-17" x="120.07" y="0">ees</tspan></text></g></g></svg>