<svg xmlns="http://www.w3.org/2000/svg" xmlns:xlink="http://www.w3.org/1999/xlink" viewBox="0 0 313.75 232.37"><defs><style>.cls-1{fill:#3d2051;}.cls-11,.cls-2,.cls-3,.cls-9{stroke:#fff;}.cls-11,.cls-2,.cls-3,.cls-7,.cls-9{stroke-miterlimit:10;}.cls-11,.cls-2,.cls-7,.cls-9{stroke-width:0.43px;}.cls-2{fill:url(#linear-gradient);}.cls-3,.cls-5{fill:#4d66c1;}.cls-3{stroke-width:0.03px;}.cls-4{fill:#92cce0;}.cls-6,.cls-7{fill:#fff;}.cls-7{stroke:#000;}.cls-8{fill:url(#linear-gradient-2);}.cls-9{fill:url(#linear-gradient-3);}.cls-10{fill:url(#linear-gradient-4);}.cls-11{fill:url(#linear-gradient-5);}.cls-12{fill:url(#linear-gradient-6);}</style><linearGradient id="linear-gradient" x1="140.55" y1="45.41" x2="140.55" y2="87.38" gradientUnits="userSpaceOnUse"><stop offset="0" stop-color="#243082"/><stop offset="0.16" stop-color="#393484"/><stop offset="0.48" stop-color="#6f3e89"/><stop offset="0.95" stop-color="#c54f90"/><stop offset="1" stop-color="#cf5191"/></linearGradient><linearGradient id="linear-gradient-2" x1="140.77" y1="51.62" x2="140.77" y2="86.31" gradientUnits="userSpaceOnUse"><stop offset="0" stop-color="#67deff"/><stop offset="0.19" stop-color="#5ec9ef"/><stop offset="0.57" stop-color="#4893c5"/><stop offset="1" stop-color="#2d5191"/></linearGradient><linearGradient id="linear-gradient-3" x1="160.28" y1="109.73" x2="160.28" y2="151.71" xlink:href="#linear-gradient"/><linearGradient id="linear-gradient-4" x1="160.5" y1="115.94" x2="160.5" y2="150.64" xlink:href="#linear-gradient-2"/><linearGradient id="linear-gradient-5" x1="186.8" y1="174.06" x2="186.8" y2="216.04" xlink:href="#linear-gradient"/><linearGradient id="linear-gradient-6" x1="187.01" y1="191.8" x2="187.01" y2="213.97" xlink:href="#linear-gradient-2"/></defs><title>trucks</title><g id="Layer_2" data-name="Layer 2"><g id="Layer_2-2" data-name="Layer 2"><path d="M6.31.72a6.64,6.64,0,0,1,2.58.46,6.84,6.84,0,0,1,1.9,1.11A5,5,0,0,1,12,3.71a3.23,3.23,0,0,1,.43,1.35.44.44,0,0,1-.15.38.55.55,0,0,1-.38.15h-1a.82.82,0,0,1-.42-.09,1,1,0,0,1-.33-.44,4.8,4.8,0,0,0-.39-.61A3.7,3.7,0,0,0,9,3.73a4.68,4.68,0,0,0-1.14-.6,4.4,4.4,0,0,0-1.56-.25A4.88,4.88,0,0,0,5,3a3.69,3.69,0,0,0-1.09.46,2.49,2.49,0,0,0-.77.78,2.1,2.1,0,0,0-.29,1.1,1.87,1.87,0,0,0,.28,1A2.44,2.44,0,0,0,4,7.21a8,8,0,0,0,1.55.64C6.22,8,7,8.26,7.87,8.5a14.49,14.49,0,0,1,2.32.79,6.15,6.15,0,0,1,1.55,1,3.22,3.22,0,0,1,.87,1.25,4.51,4.51,0,0,1-.19,3.57,4.62,4.62,0,0,1-1.31,1.55,6.23,6.23,0,0,1-2,1A9.08,9.08,0,0,1,6.43,18a7.87,7.87,0,0,1-2.57-.41,7.07,7.07,0,0,1-2-1.05A5.59,5.59,0,0,1,.52,15.1,3.18,3.18,0,0,1,0,13.54a.51.51,0,0,1,.16-.38A.5.5,0,0,1,.53,13h1a.93.93,0,0,1,.42.09.9.9,0,0,1,.33.44,3.53,3.53,0,0,0,.44.73,3.6,3.6,0,0,0,.8.74,5,5,0,0,0,1.23.59,5.41,5.41,0,0,0,1.7.24A6.43,6.43,0,0,0,8,15.65a4.7,4.7,0,0,0,1.33-.55,2.92,2.92,0,0,0,.91-.87,1.93,1.93,0,0,0,.34-1.13A1.54,1.54,0,0,0,10.22,12a3.38,3.38,0,0,0-1.1-.81,10.56,10.56,0,0,0-1.76-.66q-1-.3-2.37-.63a9.39,9.39,0,0,1-2-.76,5.32,5.32,0,0,1-1.37-1A3.45,3.45,0,0,1,.83,6.89,4.92,4.92,0,0,1,.6,5.38,4.34,4.34,0,0,1,2,2.16a5.28,5.28,0,0,1,1.77-1A7.11,7.11,0,0,1,6.31.72Z"/><path d="M14.83,14.62a3.47,3.47,0,0,1,.39-1.68,3.63,3.63,0,0,1,1-1.23,5.67,5.67,0,0,1,1.57-.81,11.35,11.35,0,0,1,1.91-.48l3.39-.56V9.55a2.14,2.14,0,0,0-.81-1.83,3.18,3.18,0,0,0-2-.62,2.72,2.72,0,0,0-1.6.39,3.79,3.79,0,0,0-.92.91.73.73,0,0,1-.31.26,1.19,1.19,0,0,1-.46.08h-.72a.67.67,0,0,1-.47-.2.55.55,0,0,1-.18-.45A2.29,2.29,0,0,1,16.09,7a3.81,3.81,0,0,1,1-1,6,6,0,0,1,1.46-.7A5.43,5.43,0,0,1,20.33,5a6.12,6.12,0,0,1,2,.31,4.44,4.44,0,0,1,1.59.91,4.19,4.19,0,0,1,1,1.49,5.19,5.19,0,0,1,.37,2v7.32a.65.65,0,0,1-.65.65h-.89a.61.61,0,0,1-.45-.19.62.62,0,0,1-.19-.46v-1a2.23,2.23,0,0,1-.68.8,4.54,4.54,0,0,1-1,.59,6.34,6.34,0,0,1-1.22.36A6.48,6.48,0,0,1,19,18a5.49,5.49,0,0,1-1.72-.26A4.36,4.36,0,0,1,16,17,3.12,3.12,0,0,1,15.13,16,3.06,3.06,0,0,1,14.83,14.62Zm4.42,1.32a4.48,4.48,0,0,0,1.58-.27,3.73,3.73,0,0,0,1.24-.73,3.08,3.08,0,0,0,.79-1.12,3.7,3.7,0,0,0,.28-1.44v-.6l-2.84.46a7,7,0,0,0-2.4.77A1.56,1.56,0,0,0,17,14.38a1.23,1.23,0,0,0,.12.52,1.48,1.48,0,0,0,.38.51,1.86,1.86,0,0,0,.68.38A3.15,3.15,0,0,0,19.25,15.94Z"/><path d="M33,17.76a.59.59,0,0,1-.48-.19,1.45,1.45,0,0,1-.27-.41L27.46,6a.38.38,0,0,1,0-.16A.58.58,0,0,1,28,5.28h.89a.7.7,0,0,1,.54.19,1.22,1.22,0,0,1,.25.39l3.72,8.71,3.72-8.71a1.37,1.37,0,0,1,.24-.39.55.55,0,0,1,.45-.19h1a.58.58,0,0,1,.41.17.56.56,0,0,1,.16.41.39.39,0,0,1,0,.16L34.58,17.16a1.61,1.61,0,0,1-.25.41.56.56,0,0,1-.47.19Z"/><path d="M40.87,10.32a6.38,6.38,0,0,1,.53-2.06,5.77,5.77,0,0,1,1.13-1.68A4.88,4.88,0,0,1,44.2,5.45,5.56,5.56,0,0,1,46.37,5a6,6,0,0,1,2.31.42,4.75,4.75,0,0,1,1.74,1.21,5.51,5.51,0,0,1,1.11,1.92,7.94,7.94,0,0,1,.38,2.52v.65a.62.62,0,0,1-.19.46.66.66,0,0,1-.46.19H43v.14a3.21,3.21,0,0,0,3.36,3.39,4.1,4.1,0,0,0,2-.38,4.2,4.2,0,0,0,1.07-.82,1.4,1.4,0,0,1,.33-.27,1,1,0,0,1,.43-.07h.72a.68.68,0,0,1,.48.19.47.47,0,0,1,.17.46,2.53,2.53,0,0,1-.41.95,3.54,3.54,0,0,1-1,1,6,6,0,0,1-1.58.74,7.36,7.36,0,0,1-2.22.3,5.34,5.34,0,0,1-2.16-.42,5.14,5.14,0,0,1-1.67-1.15A5.91,5.91,0,0,1,41.4,14.7a6.91,6.91,0,0,1-.53-2.17A10.21,10.21,0,0,1,40.87,10.32Zm2.14.07h6.74v-.07A3.08,3.08,0,0,0,48.83,8a3.46,3.46,0,0,0-2.46-.88,3.66,3.66,0,0,0-1.3.23A3.15,3.15,0,0,0,44,8a2.86,2.86,0,0,0-.72,1A3.36,3.36,0,0,0,43,10.32Z"/><path d="M61.92,14.3a1.11,1.11,0,0,0-.25-.75,2.07,2.07,0,0,0-.76-.52,8.85,8.85,0,0,0-1.28-.41c-.52-.12-1.13-.26-1.81-.4a4.74,4.74,0,0,1-2.73-1.36,3.39,3.39,0,0,1,.37-4.74,4.08,4.08,0,0,1,1.46-.79A6.58,6.58,0,0,1,59,5,7.35,7.35,0,0,1,61,5.3,5.34,5.34,0,0,1,62.5,6a3.31,3.31,0,0,1,.91.87,1.72,1.72,0,0,1,.33.9.52.52,0,0,1-.18.46.63.63,0,0,1-.46.19h-.8A1.22,1.22,0,0,1,62,8.34a.75.75,0,0,1-.38-.28,2.24,2.24,0,0,0-.92-.68A4.27,4.27,0,0,0,59,7.1a3.49,3.49,0,0,0-1.79.41,1.25,1.25,0,0,0-.68,1.13,1.24,1.24,0,0,0,.19.73,1.43,1.43,0,0,0,.62.48,5.65,5.65,0,0,0,1.14.37c.47.12,1.06.25,1.77.41a8.25,8.25,0,0,1,1.84.61,4.38,4.38,0,0,1,1.2.84,2.75,2.75,0,0,1,.65,1,3.56,3.56,0,0,1,.19,1.18,3,3,0,0,1-.34,1.4,3.7,3.7,0,0,1-1,1.17,5.29,5.29,0,0,1-1.57.82,6.53,6.53,0,0,1-2.1.31A7,7,0,0,1,57,17.71,6.27,6.27,0,0,1,55.44,17a3.71,3.71,0,0,1-1-.91,1.84,1.84,0,0,1-.37-.92.57.57,0,0,1,.17-.46.65.65,0,0,1,.48-.19h.86a1.48,1.48,0,0,1,.34,0,.56.56,0,0,1,.36.27,2.51,2.51,0,0,0,1.06.82,4.49,4.49,0,0,0,1.75.29,4.55,4.55,0,0,0,1-.12,3.59,3.59,0,0,0,.91-.34,2,2,0,0,0,.64-.52A1,1,0,0,0,61.92,14.3Z"/><path d="M82.08,1a.62.62,0,0,1,.46.19.66.66,0,0,1,.19.46v.86a1.9,1.9,0,0,1-.07.46,4,4,0,0,1-.2.5L77.14,17.18a1.53,1.53,0,0,1-.26.4.54.54,0,0,1-.44.18h-1.1a.58.58,0,0,1-.58-.58.38.38,0,0,1,0-.1l.06-.18L80.18,3.12H72.31a.6.6,0,0,1-.45-.19.63.63,0,0,1-.2-.46V1.61a.63.63,0,0,1,.2-.46A.6.6,0,0,1,72.31,1Z"/><path d="M97.1,7.34c0,.72,0,1.4,0,2s0,1.31,0,2a9,9,0,0,1-.39,2.6,5.88,5.88,0,0,1-1.12,2.1,5.1,5.1,0,0,1-1.88,1.4,7.68,7.68,0,0,1-5.45,0,5,5,0,0,1-1.88-1.4A5.88,5.88,0,0,1,85.26,14a9.37,9.37,0,0,1-.4-2.6c0-.72,0-1.4,0-2s0-1.31,0-2a9.49,9.49,0,0,1,.4-2.6,5.88,5.88,0,0,1,1.12-2.1,5.13,5.13,0,0,1,1.88-1.4,7.4,7.4,0,0,1,5.45,0,5.21,5.21,0,0,1,1.88,1.4,5.88,5.88,0,0,1,1.12,2.1A9.13,9.13,0,0,1,97.1,7.34Zm-10,4.06a5.06,5.06,0,0,0,1,3.36,4.29,4.29,0,0,0,5.69,0,5.17,5.17,0,0,0,1-3.36c0-.72,0-1.4,0-2s0-1.31,0-2a5.22,5.22,0,0,0-1-3.37,4.26,4.26,0,0,0-5.69,0,5.11,5.11,0,0,0-1,3.37c0,.72,0,1.4,0,2S87.1,10.68,87.12,11.4Z"/><path d="M112.32,7.34c0,.72,0,1.4,0,2s0,1.31,0,2a9.37,9.37,0,0,1-.4,2.6,6,6,0,0,1-1.11,2.1,5.14,5.14,0,0,1-1.89,1.4,7.68,7.68,0,0,1-5.45,0,5.1,5.1,0,0,1-1.88-1.4,5.88,5.88,0,0,1-1.12-2.1,9.38,9.38,0,0,1-.39-2.6c0-.72,0-1.4,0-2s0-1.31,0-2a9.49,9.49,0,0,1,.39-2.6,5.88,5.88,0,0,1,1.12-2.1,5.21,5.21,0,0,1,1.88-1.4,7.4,7.4,0,0,1,5.45,0,5.25,5.25,0,0,1,1.89,1.4,6,6,0,0,1,1.11,2.1A9.49,9.49,0,0,1,112.32,7.34Zm-10,4.06a5.17,5.17,0,0,0,1,3.36,4.29,4.29,0,0,0,5.69,0,5.06,5.06,0,0,0,1-3.36c0-.72,0-1.4,0-2s0-1.31,0-2A5.11,5.11,0,0,0,109,4a4.26,4.26,0,0,0-5.69,0,5.22,5.22,0,0,0-1,3.37c0,.72,0,1.4,0,2S102.32,10.68,102.33,11.4Z"/><path d="M127.53,7.34c0,.72,0,1.4,0,2s0,1.31,0,2a9,9,0,0,1-.39,2.6A5.88,5.88,0,0,1,126,16.1a5,5,0,0,1-1.88,1.4,7.68,7.68,0,0,1-5.45,0,5,5,0,0,1-1.88-1.4,5.88,5.88,0,0,1-1.12-2.1,9.37,9.37,0,0,1-.4-2.6c0-.72,0-1.4,0-2s0-1.31,0-2a9.49,9.49,0,0,1,.4-2.6,5.88,5.88,0,0,1,1.12-2.1,5.13,5.13,0,0,1,1.88-1.4,7.4,7.4,0,0,1,5.45,0A5.13,5.13,0,0,1,126,2.64a5.88,5.88,0,0,1,1.12,2.1A9.13,9.13,0,0,1,127.53,7.34Zm-10,4.06a5.06,5.06,0,0,0,1,3.36,4.29,4.29,0,0,0,5.69,0,5.06,5.06,0,0,0,1-3.36c0-.72,0-1.4,0-2s0-1.31,0-2a5.11,5.11,0,0,0-1-3.37,4.26,4.26,0,0,0-5.69,0,5.11,5.11,0,0,0-1,3.37c0,.72,0,1.4,0,2S117.53,10.68,117.55,11.4Z"/><path d="M136.32,7.18a8.21,8.21,0,0,1,.47-2.5,5.7,5.7,0,0,1,1.27-2.06,5.86,5.86,0,0,1,2.12-1.4,8.27,8.27,0,0,1,3-.5,7.88,7.88,0,0,1,2.87.48,7.15,7.15,0,0,1,2.06,1.19,5,5,0,0,1,1.25,1.51,3.57,3.57,0,0,1,.45,1.45.43.43,0,0,1-.15.37.52.52,0,0,1-.38.16h-1c-.38,0-.61-.09-.69-.26a6.49,6.49,0,0,0-.66-1.08,3.82,3.82,0,0,0-.88-.87,4,4,0,0,0-1.21-.57,6.2,6.2,0,0,0-3.48.06,4,4,0,0,0-1.43.82,4.06,4.06,0,0,0-1,1.38,5,5,0,0,0-.38,1.94c0,.72,0,1.38,0,2s0,1.27,0,2a5.43,5.43,0,0,0,.38,2,4,4,0,0,0,1,1.42,3.74,3.74,0,0,0,1.43.84,5.54,5.54,0,0,0,1.81.28,6.53,6.53,0,0,0,1.8-.24,3.85,3.85,0,0,0,1.47-.78,3.66,3.66,0,0,0,1-1.4,5.73,5.73,0,0,0,.35-2.12v-.67h-3.46a.62.62,0,0,1-.46-.19.66.66,0,0,1-.19-.46V9.12a.65.65,0,0,1,.65-.65h5.09a.64.64,0,0,1,.45.19.63.63,0,0,1,.2.46V11.4a7.56,7.56,0,0,1-.46,2.65,5.75,5.75,0,0,1-1.33,2.09,6.29,6.29,0,0,1-2.16,1.37,8.09,8.09,0,0,1-2.92.49,7.85,7.85,0,0,1-3-.52,5.86,5.86,0,0,1-2.11-1.4A5.93,5.93,0,0,1,136.8,14a8.33,8.33,0,0,1-.48-2.59C136.27,10,136.27,8.58,136.32,7.18Z"/><path d="M152.21,14.62a3.47,3.47,0,0,1,.38-1.68,3.78,3.78,0,0,1,1.06-1.23,5.54,5.54,0,0,1,1.57-.81,11.12,11.12,0,0,1,1.91-.48l3.38-.56V9.55a2.16,2.16,0,0,0-.8-1.83,3.23,3.23,0,0,0-2-.62,2.7,2.7,0,0,0-1.59.39,4,4,0,0,0-.93.91.68.68,0,0,1-.31.26,1.12,1.12,0,0,1-.46.08h-.72a.65.65,0,0,1-.46-.2.5.5,0,0,1-.18-.45A2.29,2.29,0,0,1,153.47,7a3.63,3.63,0,0,1,1-1,6.25,6.25,0,0,1,1.47-.7A5.37,5.37,0,0,1,157.7,5a6.23,6.23,0,0,1,2,.31,4.49,4.49,0,0,1,1.58.91,4.19,4.19,0,0,1,1,1.49,5.19,5.19,0,0,1,.37,2v7.32a.62.62,0,0,1-.19.46.61.61,0,0,1-.45.19h-.89a.65.65,0,0,1-.65-.65v-1a2.19,2.19,0,0,1-.67.8,4.62,4.62,0,0,1-1.05.59,6.63,6.63,0,0,1-2.41.48,5.48,5.48,0,0,1-1.71-.26,4.36,4.36,0,0,1-1.32-.71,3.12,3.12,0,0,1-.84-1.07A3.06,3.06,0,0,1,152.21,14.62Zm4.41,1.32a4.5,4.5,0,0,0,1.59-.27,3.59,3.59,0,0,0,1.23-.73,3,3,0,0,0,.79-1.12,3.52,3.52,0,0,0,.28-1.44v-.6l-2.83.46a6.84,6.84,0,0,0-2.4.77,1.57,1.57,0,0,0-.89,1.37,1.23,1.23,0,0,0,.12.52,1.62,1.62,0,0,0,.38.51,1.9,1.9,0,0,0,.69.38A3.13,3.13,0,0,0,156.62,15.94Z"/><path d="M168.38,17.11a.65.65,0,0,1-.65.65h-.88a.65.65,0,0,1-.65-.65V1.37a.62.62,0,0,1,.19-.46.62.62,0,0,1,.46-.19h.88a.62.62,0,0,1,.46.19.62.62,0,0,1,.19.46Z"/><path d="M174.17,17.11a.63.63,0,0,1-.2.46.6.6,0,0,1-.45.19h-.89a.65.65,0,0,1-.65-.65V1.37a.62.62,0,0,1,.19-.46.62.62,0,0,1,.46-.19h.89a.6.6,0,0,1,.45.19.63.63,0,0,1,.2.46Z"/><path d="M182.88,5a6.13,6.13,0,0,1,2.3.4,5,5,0,0,1,2.87,2.78,7.19,7.19,0,0,1,.52,2.17c0,.15,0,.32,0,.52v1.25c0,.2,0,.36,0,.49a7.66,7.66,0,0,1-.53,2.18,4.83,4.83,0,0,1-1.13,1.68,5,5,0,0,1-1.73,1.09,6.84,6.84,0,0,1-4.61,0,5,5,0,0,1-2.86-2.77,6.77,6.77,0,0,1-.52-2.18c0-.13,0-.29,0-.49s0-.41,0-.63,0-.42,0-.62,0-.37,0-.52a6.9,6.9,0,0,1,.52-2.17,5,5,0,0,1,2.86-2.78A6.18,6.18,0,0,1,182.88,5Zm3.5,7.49a9.23,9.23,0,0,0,.05-1,9.93,9.93,0,0,0-.05-1,5.15,5.15,0,0,0-.31-1.34,3.13,3.13,0,0,0-.67-1.08,2.93,2.93,0,0,0-1.06-.72,3.62,3.62,0,0,0-1.46-.27,3.71,3.71,0,0,0-1.47.27,3,3,0,0,0-1,.72,3.13,3.13,0,0,0-.67,1.08,5.15,5.15,0,0,0-.32,1.34,10.2,10.2,0,0,0,0,1,9.53,9.53,0,0,0,0,1,5.15,5.15,0,0,0,.32,1.34,3.13,3.13,0,0,0,.67,1.08,3,3,0,0,0,1,.72,3.71,3.71,0,0,0,1.47.27,3.62,3.62,0,0,0,1.46-.27A2.93,2.93,0,0,0,185.4,15a3.13,3.13,0,0,0,.67-1.08A5.15,5.15,0,0,0,186.38,12.53Z"/><path d="M202.7,17.11a.65.65,0,0,1-.65.65h-.88a.65.65,0,0,1-.65-.65V10.78A3.8,3.8,0,0,0,199.63,8a3.29,3.29,0,0,0-2.47-.92,3.33,3.33,0,0,0-2.44.92,3.72,3.72,0,0,0-.92,2.76v6.33a.66.66,0,0,1-.19.46.62.62,0,0,1-.46.19h-.89a.58.58,0,0,1-.45-.19.63.63,0,0,1-.2-.46V5.93a.63.63,0,0,1,.2-.46.58.58,0,0,1,.45-.19h.89a.62.62,0,0,1,.46.19.66.66,0,0,1,.19.46v.74a4.31,4.31,0,0,1,1.35-1.11A4.68,4.68,0,0,1,197.52,5a5.71,5.71,0,0,1,2.09.37,4.61,4.61,0,0,1,2.71,2.75,6.41,6.41,0,0,1,.38,2.26Z"/><path d="M213.29,14.3a1.12,1.12,0,0,0-.26-.75,2,2,0,0,0-.75-.52,9.46,9.46,0,0,0-1.29-.41c-.52-.12-1.12-.26-1.81-.4a4.7,4.7,0,0,1-2.72-1.36,3.38,3.38,0,0,1-.78-2.22A3.36,3.36,0,0,1,206,7.27a3.54,3.54,0,0,1,.87-1.15,4,4,0,0,1,1.45-.79A6.63,6.63,0,0,1,210.33,5a7.3,7.3,0,0,1,2,.26,5.21,5.21,0,0,1,1.48.68,3.31,3.31,0,0,1,.91.87,1.83,1.83,0,0,1,.34.9.54.54,0,0,1-.18.46.66.66,0,0,1-.47.19h-.79a1.28,1.28,0,0,1-.35-.06.7.7,0,0,1-.37-.28,2.34,2.34,0,0,0-.93-.68,4.23,4.23,0,0,0-1.69-.28,3.51,3.51,0,0,0-1.79.41,1.27,1.27,0,0,0-.68,1.13,1.24,1.24,0,0,0,.19.73,1.46,1.46,0,0,0,.63.48,5.25,5.25,0,0,0,1.14.37c.47.12,1.06.25,1.76.41a8.35,8.35,0,0,1,1.85.61,4.54,4.54,0,0,1,1.2.84,2.88,2.88,0,0,1,.65,1,3.84,3.84,0,0,1,.19,1.18,3.06,3.06,0,0,1-.35,1.4,3.54,3.54,0,0,1-1,1.17,5.35,5.35,0,0,1-1.58.82,6.44,6.44,0,0,1-2.1.31,6.92,6.92,0,0,1-2.08-.29A6.52,6.52,0,0,1,206.8,17a3.52,3.52,0,0,1-1-.91,1.75,1.75,0,0,1-.37-.92.56.56,0,0,1,.16-.46.65.65,0,0,1,.48-.19H207a1.55,1.55,0,0,1,.34,0,.57.57,0,0,1,.35.27,2.51,2.51,0,0,0,1.06.82,4.53,4.53,0,0,0,1.75.29,4.7,4.7,0,0,0,1.05-.12,3.91,3.91,0,0,0,.91-.34A2,2,0,0,0,213,15,1,1,0,0,0,213.29,14.3Z"/><path d="M229.29,5a6.18,6.18,0,0,1,2.31.4,4.9,4.9,0,0,1,2.86,2.78,6.9,6.9,0,0,1,.52,2.17,4.1,4.1,0,0,1,0,.52v1.25a3.48,3.48,0,0,1,0,.49,7.66,7.66,0,0,1-.53,2.18,5,5,0,0,1-1.12,1.68,5.14,5.14,0,0,1-1.73,1.09,6.84,6.84,0,0,1-4.61,0,5,5,0,0,1-1.73-1.09,5,5,0,0,1-1.14-1.68,7,7,0,0,1-.52-2.18c0-.13,0-.29,0-.49s0-.41,0-.63,0-.42,0-.62,0-.37,0-.52a7.19,7.19,0,0,1,.52-2.17A5,5,0,0,1,227,5.44,6.13,6.13,0,0,1,229.29,5Zm3.51,7.49a9.53,9.53,0,0,0,0-1,10.2,10.2,0,0,0,0-1,5.15,5.15,0,0,0-.32-1.34,3.09,3.09,0,0,0-1.72-1.8,3.71,3.71,0,0,0-1.47-.27,3.66,3.66,0,0,0-1.46.27,2.93,2.93,0,0,0-1.06.72,3.13,3.13,0,0,0-.67,1.08,5.15,5.15,0,0,0-.31,1.34,9.93,9.93,0,0,0,0,1,9.23,9.23,0,0,0,0,1,5.15,5.15,0,0,0,.31,1.34,3.13,3.13,0,0,0,.67,1.08,2.93,2.93,0,0,0,1.06.72,3.66,3.66,0,0,0,1.46.27,3.71,3.71,0,0,0,1.47-.27,3.09,3.09,0,0,0,1.72-1.8A5.15,5.15,0,0,0,232.8,12.53Z"/><path d="M241.34,5.28h3a.58.58,0,0,1,.45.19.63.63,0,0,1,.2.46V6.7a.62.62,0,0,1-.2.45.58.58,0,0,1-.45.19h-3v9.77a.65.65,0,0,1-.65.65h-.89a.61.61,0,0,1-.45-.19.62.62,0,0,1-.19-.46V7.34h-2a.58.58,0,0,1-.45-.19.62.62,0,0,1-.2-.45V5.93a.63.63,0,0,1,.2-.46.58.58,0,0,1,.45-.19h2V4.08A4.41,4.41,0,0,1,240.09,1a4,4,0,0,1,3-1h1.51a.6.6,0,0,1,.45.19.63.63,0,0,1,.2.46v.77a.62.62,0,0,1-.2.45.6.6,0,0,1-.45.19h-1.27a2.87,2.87,0,0,0-1,.16,1.29,1.29,0,0,0-.61.44,1.74,1.74,0,0,0-.31.69,4.54,4.54,0,0,0-.08.85Z"/><path d="M263.68,13.87l2.69-8a1.15,1.15,0,0,1,.27-.39.72.72,0,0,1,.55-.19H268a.58.58,0,0,1,.58.58.68.68,0,0,1,0,.19l-3.67,11a1.55,1.55,0,0,1-.25.48.57.57,0,0,1-.47.19h-.74a.56.56,0,0,1-.47-.2,2.43,2.43,0,0,1-.28-.47l-2.85-8-2.86,8a2.43,2.43,0,0,1-.28.47.56.56,0,0,1-.46.2h-.75a.57.57,0,0,1-.47-.19,1.8,1.8,0,0,1-.25-.48l-3.67-11a.65.65,0,0,1,0-.19.56.56,0,0,1,.16-.41.58.58,0,0,1,.41-.17h.79a.76.76,0,0,1,.56.19,1.26,1.26,0,0,1,.26.39l2.69,8,2.88-8a1.33,1.33,0,0,1,.23-.39.6.6,0,0,1,.51-.19h.53a.64.64,0,0,1,.52.19,1.29,1.29,0,0,1,.22.39Z"/><path d="M270,14.62a3.59,3.59,0,0,1,.38-1.68,3.78,3.78,0,0,1,1.06-1.23A5.67,5.67,0,0,1,273,10.9a11.35,11.35,0,0,1,1.91-.48l3.38-.56V9.55a2.13,2.13,0,0,0-.8-1.83,3.2,3.2,0,0,0-2-.62,2.72,2.72,0,0,0-1.6.39,4,4,0,0,0-.93.91.68.68,0,0,1-.31.26,1.1,1.1,0,0,1-.45.08h-.72a.65.65,0,0,1-.47-.2.5.5,0,0,1-.18-.45A2.29,2.29,0,0,1,271.21,7a3.67,3.67,0,0,1,1-1,6,6,0,0,1,1.46-.7A5.38,5.38,0,0,1,275.45,5a6.17,6.17,0,0,1,2,.31,4.49,4.49,0,0,1,1.58.91,4.21,4.21,0,0,1,1,1.49,5.38,5.38,0,0,1,.37,2v7.32a.66.66,0,0,1-.19.46.63.63,0,0,1-.46.19h-.89a.58.58,0,0,1-.45-.19.63.63,0,0,1-.2-.46v-1a2.19,2.19,0,0,1-.67.8,4.54,4.54,0,0,1-1,.59,6.74,6.74,0,0,1-2.41.48,5.49,5.49,0,0,1-1.72-.26,4.36,4.36,0,0,1-1.32-.71,3.12,3.12,0,0,1-.84-1.07A3.06,3.06,0,0,1,270,14.62Zm4.42,1.32a4.48,4.48,0,0,0,1.58-.27,3.73,3.73,0,0,0,1.24-.73,3.21,3.21,0,0,0,.79-1.12,3.7,3.7,0,0,0,.27-1.44v-.6l-2.83.46A6.84,6.84,0,0,0,273,13a1.57,1.57,0,0,0-.89,1.37,1.23,1.23,0,0,0,.12.52,1.51,1.51,0,0,0,.39.51,1.78,1.78,0,0,0,.68.38A3.15,3.15,0,0,0,274.37,15.94Z"/><path d="M287.06,13.56a4.54,4.54,0,0,0,.08.85,1.88,1.88,0,0,0,.3.69,1.37,1.37,0,0,0,.62.44,2.87,2.87,0,0,0,1,.16h1.27a.6.6,0,0,1,.45.19.62.62,0,0,1,.2.45v.77a.63.63,0,0,1-.2.46.6.6,0,0,1-.45.19h-1.51a3.82,3.82,0,0,1-3-1.08,4.65,4.65,0,0,1-.93-3.12V7.34H283.1a.62.62,0,0,1-.46-.19.65.65,0,0,1-.19-.45V5.93a.66.66,0,0,1,.19-.46.62.62,0,0,1,.46-.19h1.78V1.37a.62.62,0,0,1,.19-.46.61.61,0,0,1,.45-.19h.89a.62.62,0,0,1,.46.19.62.62,0,0,1,.19.46V5.28h3.05a.6.6,0,0,1,.45.19.63.63,0,0,1,.2.46V6.7a.62.62,0,0,1-.2.45.6.6,0,0,1-.45.19h-3.05Z"/><path d="M292.82,10.32a6.13,6.13,0,0,1,.53-2.06,5.77,5.77,0,0,1,1.13-1.68,4.94,4.94,0,0,1,1.66-1.13A5.65,5.65,0,0,1,298.32,5a6,6,0,0,1,2.31.42,4.75,4.75,0,0,1,1.74,1.21,5.51,5.51,0,0,1,1.11,1.92,7.94,7.94,0,0,1,.38,2.52v.65a.62.62,0,0,1-.19.46.66.66,0,0,1-.46.19H295v.14a3.21,3.21,0,0,0,3.36,3.39,4.1,4.1,0,0,0,2-.38,4,4,0,0,0,1.06-.82,1.41,1.41,0,0,1,.34-.27,1,1,0,0,1,.43-.07h.72a.68.68,0,0,1,.48.19.47.47,0,0,1,.17.46,2.53,2.53,0,0,1-.41.95,3.69,3.69,0,0,1-1,1,6,6,0,0,1-1.58.74,7.41,7.41,0,0,1-2.22.3,5.34,5.34,0,0,1-2.16-.42,5.14,5.14,0,0,1-1.67-1.15,5.91,5.91,0,0,1-1.14-1.73,6.65,6.65,0,0,1-.53-2.17A10.21,10.21,0,0,1,292.82,10.32Zm2.14.07h6.74v-.07A3.08,3.08,0,0,0,300.78,8a3.46,3.46,0,0,0-2.46-.88,3.66,3.66,0,0,0-1.3.23A3.29,3.29,0,0,0,296,8a3,3,0,0,0-.71,1,3.36,3.36,0,0,0-.29,1.32Z"/><path d="M313.1,5.28a.62.62,0,0,1,.46.19.66.66,0,0,1,.19.46V6.7a.65.65,0,0,1-.19.45.62.62,0,0,1-.46.19h-1.39A2.44,2.44,0,0,0,309,10.1v7a.66.66,0,0,1-.19.46.62.62,0,0,1-.46.19h-.89a.6.6,0,0,1-.45-.19.63.63,0,0,1-.2-.46V5.93a.63.63,0,0,1,.2-.46.6.6,0,0,1,.45-.19h.89a.62.62,0,0,1,.46.19.66.66,0,0,1,.19.46v.74a2.94,2.94,0,0,1,1.15-1,3.84,3.84,0,0,1,1.75-.34Z"/><polygon class="cls-1" points="86.16 92.95 94.72 93.38 97.29 89.95 98.58 91.66 119.14 91.66 120.85 89.52 126.84 89.95 128.56 92.09 165.82 89.09 162.4 79.67 94.29 78.39 87.87 72.39 79.3 78.39 86.16 92.95"/><rect class="cls-2" x="90.44" y="45.41" width="100.23" height="41.97"/><path class="cls-3" d="M66.88,90.17A16.71,16.71,0,0,1,82.3,79.59a16.1,16.1,0,0,1,6.83,1.51c-.08-4.93-.41-24.32-.41-26.62,0-2.65-1.71-2.21-3.42-2.65s-15.85.88-19.7.88-10.28,22-10.28,22l1.28,11.9,2.57-.44v4Z"/><path class="cls-4" d="M62.17,71.53V66.39s2.57-9,6-11.13c1.31-.82,16.7-.86,16.7-.86V65.54S76.73,70.68,62.17,71.53Z"/><circle class="cls-5" cx="79.3" cy="93.38" r="9.88"/><path class="cls-6" d="M79.3,84a9.43,9.43,0,1,1-9.42,9.43A9.42,9.42,0,0,1,79.3,84m0-.9A10.33,10.33,0,1,0,89.63,93.38,10.34,10.34,0,0,0,79.3,83.05Z"/><circle class="cls-7" cx="79.3" cy="93.38" r="4.71"/><circle class="cls-5" cx="159.83" cy="93.38" r="9.88"/><path class="cls-6" d="M159.83,84a9.43,9.43,0,1,1-9.43,9.43A9.43,9.43,0,0,1,159.83,84m0-.9a10.33,10.33,0,1,0,10.33,10.33,10.35,10.35,0,0,0-10.33-10.33Z"/><circle class="cls-7" cx="159.83" cy="93.38" r="4.71"/><path class="cls-6" d="M188.85,47.12H92.26V85.67h59.56a10.38,10.38,0,0,1,15.79,0h21.24Z"/><path class="cls-7" d="M81.44,74.53h5.14V73.2a.8.8,0,0,0-.8-.81H83.2a1.53,1.53,0,0,0-.86.26l-.56.37a.77.77,0,0,0-.34.64Z"/><path class="cls-8" d="M177.52,53.58c-.4-.09-.81-.15-1.21-.2s-.75-.31-1.12-.43-.76-.23-1.14-.32a22.33,22.33,0,0,0-4.82-.7,23.36,23.36,0,0,0-6.26.62,12.16,12.16,0,0,1-6.11-.11,23.41,23.41,0,0,0-11.62-.17,13.41,13.41,0,0,1-6.36,0,23.3,23.3,0,0,0-5.48-.65,22.59,22.59,0,0,0-7.63,1.3,12.21,12.21,0,0,1-1.55.41h-3.84A9.58,9.58,0,0,1,119.1,53a22.31,22.31,0,0,0-7.29-1.09c-.44,0-.88,0-1.31.06s-.86.07-1.28.13c-5.61,1.43-10.9,2.29-16.63,1.43a49.56,49.56,0,0,1-.22,5.81v27h58.95a10.38,10.38,0,0,1,16.8,0h20.82V59.09a39.64,39.64,0,0,0,.22-5.12C185.2,54.4,181.23,55.26,177.52,53.58Z"/><polygon class="cls-1" points="105.89 157.28 114.45 157.71 117.02 154.28 118.31 155.99 138.87 155.99 140.58 153.85 146.58 154.28 148.29 156.42 185.55 153.42 182.13 144 114.03 142.71 107.6 136.72 99.03 142.71 105.89 157.28"/><rect class="cls-9" x="110.17" y="109.73" width="100.23" height="41.97"/><path class="cls-3" d="M86.61,154.49A16.7,16.7,0,0,1,102,143.92a16.33,16.33,0,0,1,6.84,1.5c-.09-4.93-.41-24.31-.41-26.62,0-2.64-1.72-2.2-3.43-2.64s-15.85.88-19.7.88-10.28,22-10.28,22L76.33,151l2.57-.44v4Z"/><path class="cls-4" d="M81.9,135.86v-5.14s2.57-9,6-11.13c1.31-.82,16.7-.86,16.7-.86v11.13S96.46,135,81.9,135.86Z"/><circle class="cls-5" cx="99.03" cy="157.71" r="9.88"/><path class="cls-6" d="M99,148.28a9.43,9.43,0,1,1-9.42,9.43A9.43,9.43,0,0,1,99,148.28m0-.91a10.34,10.34,0,1,0,10.34,10.34A10.35,10.35,0,0,0,99,147.37Z"/><circle class="cls-7" cx="99.03" cy="157.71" r="4.71"/><circle class="cls-5" cx="179.56" cy="157.71" r="9.88"/><path class="cls-6" d="M179.56,148.28a9.43,9.43,0,1,1-9.43,9.43,9.43,9.43,0,0,1,9.43-9.43m0-.91a10.34,10.34,0,1,0,10.33,10.34,10.35,10.35,0,0,0-10.33-10.34Z"/><circle class="cls-7" cx="179.56" cy="157.71" r="4.71"/><path class="cls-6" d="M208.58,111.45H112V150h59.57a10.35,10.35,0,0,1,15.78,0h21.24Z"/><path class="cls-7" d="M101.18,138.86h5.14v-1.33a.81.81,0,0,0-.81-.81h-2.58a1.53,1.53,0,0,0-.86.26l-.55.37a.74.74,0,0,0-.34.63Z"/><path class="cls-10" d="M197.26,117.91a10.68,10.68,0,0,0-1.22-.2,9.55,9.55,0,0,0-1.12-.43q-.55-.18-1.14-.33a23.19,23.19,0,0,0-11.07-.07,12.31,12.31,0,0,1-6.12-.11,23.24,23.24,0,0,0-6.15-.83,22.7,22.7,0,0,0-5.47.66,13.67,13.67,0,0,1-6.36,0,23.06,23.06,0,0,0-13.11.64,10.44,10.44,0,0,1-1.55.42h-3.84a9.58,9.58,0,0,1-1.28-.32,22.26,22.26,0,0,0-7.29-1.09c-.44,0-.88,0-1.31,0s-.86.08-1.28.13c-5.61,1.44-10.9,2.3-16.63,1.44a49.65,49.65,0,0,1-.22,5.81v27h59a10.37,10.37,0,0,1,16.8,0h20.83V123.41a39.48,39.48,0,0,0,.22-5.11C204.93,118.73,201,119.59,197.26,117.91Z"/><polygon class="cls-1" points="132.4 221.6 140.97 222.03 143.54 218.61 144.82 220.32 165.38 220.32 167.1 218.18 173.09 218.61 174.81 220.75 212.07 217.75 208.64 208.33 140.54 207.04 134.12 201.05 125.55 207.04 132.4 221.6"/><rect class="cls-11" x="136.69" y="174.06" width="100.23" height="41.97"/><path class="cls-3" d="M113.13,218.82a16.69,16.69,0,0,1,15.42-10.57,16.28,16.28,0,0,1,6.83,1.5c-.08-4.93-.41-24.31-.41-26.62,0-2.64-1.71-2.2-3.42-2.64s-15.85.88-19.71.88-10.28,22-10.28,22l1.29,11.9,2.57-.44v4Z"/><path class="cls-4" d="M108.42,200.19v-5.14s2.57-9,6-11.14c1.31-.82,16.71-.85,16.71-.85v11.13S123,199.33,108.42,200.19Z"/><path class="cls-5" d="M125.55,231.91a9.88,9.88,0,1,1,9.88-9.88A9.89,9.89,0,0,1,125.55,231.91Z"/><path class="cls-6" d="M125.55,212.61a9.43,9.43,0,1,1-9.42,9.42,9.42,9.42,0,0,1,9.42-9.42m0-.91A10.34,10.34,0,1,0,135.88,222a10.34,10.34,0,0,0-10.33-10.33Z"/><circle class="cls-7" cx="125.55" cy="222.03" r="4.71"/><circle class="cls-5" cx="206.07" cy="222.03" r="9.88"/><path class="cls-6" d="M206.07,212.61a9.43,9.43,0,1,1-9.42,9.42,9.43,9.43,0,0,1,9.42-9.42m0-.91A10.34,10.34,0,1,0,216.41,222a10.35,10.35,0,0,0-10.34-10.33Z"/><circle class="cls-7" cx="206.07" cy="222.03" r="4.71"/><path class="cls-6" d="M235.09,175.78H138.5v38.54h59.57a10.38,10.38,0,0,1,15.79,0h21.23Z"/><path class="cls-7" d="M127.69,203.19h5.14v-1.34a.8.8,0,0,0-.81-.8h-2.57a1.53,1.53,0,0,0-.86.26l-.56.37a.77.77,0,0,0-.34.63Z"/><path class="cls-12" d="M223.77,193.06c-.41-.06-.81-.1-1.21-.13s-.75-.2-1.12-.28l-1.14-.21a35.92,35.92,0,0,0-11.08,0,19,19,0,0,1-6.11-.07,35.89,35.89,0,0,0-11.62-.11,21.19,21.19,0,0,1-6.36,0,35.82,35.82,0,0,0-5.48-.42,34.87,34.87,0,0,0-7.64.83,15.46,15.46,0,0,1-1.54.26h-3.84c-.44,0-.87-.11-1.29-.2a34.5,34.5,0,0,0-7.29-.7l-1.3,0-1.29.08a63,63,0,0,1-16.63.92,21.3,21.3,0,0,1-.21,3.71c0,.19,0,.39,0,.59V214h58.95a14.31,14.31,0,0,1,8.76-3.51,12.34,12.34,0,0,1,8.05,3.51h20.82v-17.4a16.25,16.25,0,0,0,.22-3.27C231.44,193.58,227.48,194.13,223.77,193.06Z"/></g></g></svg>