<svg xmlns="http://www.w3.org/2000/svg" xmlns:xlink="http://www.w3.org/1999/xlink" viewBox="0 0 320.25 235.01"><defs><style>.cls-1{font-size:24px;font-family:Rubik-Regular, Rubik;}.cls-2{letter-spacing:-0.01em;}.cls-3{letter-spacing:-0.02em;}.cls-4{letter-spacing:0em;}.cls-5{letter-spacing:-0.01em;}.cls-6{letter-spacing:-0.02em;}.cls-7{letter-spacing:-0.02em;}.cls-8{letter-spacing:-0.01em;}.cls-9{letter-spacing:0em;}.cls-10{letter-spacing:-0.02em;}.cls-11{fill:#3d2051;}.cls-12,.cls-13,.cls-19,.cls-21{stroke:#fff;}.cls-12,.cls-13,.cls-17,.cls-19,.cls-21{stroke-miterlimit:10;}.cls-12,.cls-17,.cls-19,.cls-21{stroke-width:0.43px;}.cls-12{fill:url(#linear-gradient);}.cls-13,.cls-15{fill:#4d66c1;}.cls-13{stroke-width:0.03px;}.cls-14{fill:#92cce0;}.cls-16,.cls-17{fill:#fff;}.cls-17{stroke:#000;}.cls-18{fill:url(#linear-gradient-2);}.cls-19{fill:url(#linear-gradient-3);}.cls-20{fill:url(#linear-gradient-4);}.cls-21{fill:url(#linear-gradient-5);}.cls-22{fill:url(#linear-gradient-6);}</style><linearGradient id="linear-gradient" x1="141.46" y1="48.05" x2="141.46" y2="90.02" gradientUnits="userSpaceOnUse"><stop offset="0" stop-color="#243082"/><stop offset="0.16" stop-color="#393484"/><stop offset="0.48" stop-color="#6f3e89"/><stop offset="0.95" stop-color="#c54f90"/><stop offset="1" stop-color="#cf5191"/></linearGradient><linearGradient id="linear-gradient-2" x1="141.68" y1="54.26" x2="141.68" y2="88.95" gradientUnits="userSpaceOnUse"><stop offset="0" stop-color="#67deff"/><stop offset="0.19" stop-color="#5ec9ef"/><stop offset="0.57" stop-color="#4893c5"/><stop offset="1" stop-color="#2d5191"/></linearGradient><linearGradient id="linear-gradient-3" x1="161.2" y1="112.37" x2="161.2" y2="154.35" xlink:href="#linear-gradient"/><linearGradient id="linear-gradient-4" x1="161.41" y1="118.58" x2="161.41" y2="153.28" xlink:href="#linear-gradient-2"/><linearGradient id="linear-gradient-5" x1="187.71" y1="176.7" x2="187.71" y2="218.68" xlink:href="#linear-gradient"/><linearGradient id="linear-gradient-6" x1="187.93" y1="194.44" x2="187.93" y2="216.61" xlink:href="#linear-gradient-2"/></defs><title>trucks</title><g id="Layer_2" data-name="Layer 2"><g id="Layer_2-2" data-name="Layer 2"><text class="cls-1" transform="translate(0 20.4)">S<tspan class="cls-2" x="14.83" y="0">a</tspan><tspan class="cls-3" x="27.6" y="0">v</tspan><tspan class="cls-4" x="40.56" y="0">es 7000 Gallons </tspan><tspan class="cls-5" x="223.29" y="0">o</tspan><tspan class="cls-6" x="236.95" y="0">f </tspan><tspan class="cls-7" x="251.06" y="0">w</tspan><tspan class="cls-8" x="269.95" y="0">a</tspan><tspan class="cls-9" x="282.91" y="0">te</tspan><tspan class="cls-10" x="305.88" y="0">r</tspan><tspan x="314.4" y="0"> </tspan></text><polygon class="cls-11" points="87.07 95.59 95.63 96.02 98.2 92.59 99.49 94.3 120.05 94.3 121.76 92.16 127.76 92.59 129.47 94.73 166.73 91.73 163.31 82.31 95.2 81.03 88.78 75.03 80.21 81.03 87.07 95.59"/><rect class="cls-12" x="91.35" y="48.05" width="100.23" height="41.97"/><path class="cls-13" d="M67.79,92.8A16.72,16.72,0,0,1,83.21,82.23a16.18,16.18,0,0,1,6.84,1.51c-.09-4.93-.41-24.32-.41-26.62,0-2.65-1.72-2.21-3.43-2.65s-15.85.88-19.7.88-10.28,22-10.28,22l1.28,11.9,2.57-.44v4Z"/><path class="cls-14" d="M63.08,74.17V69s2.57-9,6-11.13c1.31-.82,16.7-.86,16.7-.86V68.18S77.64,73.32,63.08,74.17Z"/><circle class="cls-15" cx="80.21" cy="96.02" r="9.88"/><path class="cls-16" d="M80.21,86.59A9.43,9.43,0,1,1,70.79,96a9.43,9.43,0,0,1,9.42-9.43m0-.91A10.34,10.34,0,1,0,90.55,96,10.35,10.35,0,0,0,80.21,85.68Z"/><circle class="cls-17" cx="80.21" cy="96.02" r="4.71"/><circle class="cls-15" cx="160.74" cy="96.02" r="9.88"/><path class="cls-16" d="M160.74,86.59A9.43,9.43,0,1,1,151.31,96a9.43,9.43,0,0,1,9.43-9.43m0-.91A10.34,10.34,0,1,0,171.07,96a10.35,10.35,0,0,0-10.33-10.34Z"/><circle class="cls-17" cx="160.74" cy="96.02" r="4.71"/><path class="cls-16" d="M189.76,49.76H93.17V88.31h59.57a10.37,10.37,0,0,1,15.78,0h21.24Z"/><path class="cls-17" d="M82.36,77.17H87.5V75.84a.81.81,0,0,0-.81-.81H84.11a1.53,1.53,0,0,0-.86.26l-.55.37a.74.74,0,0,0-.34.63Z"/><path class="cls-18" d="M178.44,56.22c-.41-.09-.82-.15-1.22-.2a11.73,11.73,0,0,0-1.12-.43q-.56-.18-1.14-.33a22.87,22.87,0,0,0-4.82-.69,23.29,23.29,0,0,0-6.25.62,12.31,12.31,0,0,1-6.12-.11,23.24,23.24,0,0,0-6.15-.82,22.7,22.7,0,0,0-5.47.65,13.41,13.41,0,0,1-6.36,0,23.3,23.3,0,0,0-13.11.64,10.44,10.44,0,0,1-1.55.42h-3.84a9.58,9.58,0,0,1-1.28-.32,22.26,22.26,0,0,0-7.29-1.09c-.44,0-.88,0-1.31.06s-.86.07-1.28.13c-5.61,1.43-10.9,2.29-16.63,1.43A49.56,49.56,0,0,1,93.28,62V89h58.95A10.38,10.38,0,0,1,169,89h20.83V61.73a39.64,39.64,0,0,0,.22-5.12C186.11,57,182.14,57.9,178.44,56.22Z"/><polygon class="cls-11" points="106.8 159.92 115.36 160.34 117.94 156.92 119.22 158.63 139.78 158.63 141.49 156.49 147.49 156.92 149.2 159.06 186.47 156.06 183.04 146.64 114.94 145.35 108.51 139.36 99.95 145.35 106.8 159.92"/><rect class="cls-19" x="111.08" y="112.37" width="100.23" height="41.97"/><path class="cls-13" d="M87.52,157.13a16.72,16.72,0,0,1,15.42-10.57,16.33,16.33,0,0,1,6.84,1.5c-.09-4.93-.41-24.31-.41-26.62,0-2.64-1.71-2.2-3.43-2.64s-15.85.88-19.7.88-10.28,22-10.28,22l1.29,11.9,2.57-.44v4Z"/><path class="cls-14" d="M82.81,138.5v-5.14s2.57-9,6-11.14c1.31-.81,16.7-.85,16.7-.85V132.5S97.38,137.64,82.81,138.5Z"/><circle class="cls-15" cx="99.95" cy="160.34" r="9.88"/><path class="cls-16" d="M100,150.92a9.43,9.43,0,1,1-9.43,9.42,9.42,9.42,0,0,1,9.43-9.42m0-.91a10.34,10.34,0,1,0,10.33,10.33A10.35,10.35,0,0,0,100,150Z"/><circle class="cls-17" cx="99.95" cy="160.34" r="4.71"/><circle class="cls-15" cx="180.47" cy="160.34" r="9.88"/><path class="cls-16" d="M180.47,150.92a9.43,9.43,0,1,1-9.42,9.42,9.42,9.42,0,0,1,9.42-9.42m0-.91a10.34,10.34,0,1,0,10.33,10.33A10.34,10.34,0,0,0,180.47,150Z"/><circle class="cls-17" cx="180.47" cy="160.34" r="4.71"/><path class="cls-16" d="M209.49,114.09H112.9v38.55h59.57a10.36,10.36,0,0,1,15.79,0h21.23Z"/><path class="cls-17" d="M102.09,141.5h5.14v-1.33a.81.81,0,0,0-.81-.81h-2.58a1.58,1.58,0,0,0-.86.26l-.55.37a.77.77,0,0,0-.34.63Z"/><path class="cls-20" d="M198.17,120.55a10.33,10.33,0,0,0-1.22-.2,9.55,9.55,0,0,0-1.12-.43q-.56-.18-1.14-.33a23.17,23.17,0,0,0-11.07-.07,12.32,12.32,0,0,1-6.12-.11,23.24,23.24,0,0,0-6.15-.83,22.76,22.76,0,0,0-5.47.66,13.67,13.67,0,0,1-6.36,0,22.7,22.7,0,0,0-5.47-.66,22.94,22.94,0,0,0-7.64,1.3,10.12,10.12,0,0,1-1.55.42H141a9.58,9.58,0,0,1-1.28-.32,22.22,22.22,0,0,0-7.29-1.09c-.44,0-.87,0-1.31,0s-.86.08-1.28.13c-5.6,1.44-10.9,2.3-16.63,1.44a49.65,49.65,0,0,1-.22,5.81v27h59a10.37,10.37,0,0,1,16.8,0h20.83V126.05a39.48,39.48,0,0,0,.22-5.11C205.84,121.37,201.87,122.22,198.17,120.55Z"/><polygon class="cls-11" points="133.31 224.24 141.88 224.67 144.45 221.25 145.74 222.96 166.3 222.96 168.01 220.82 174 221.25 175.72 223.39 212.98 220.39 209.56 210.97 141.45 209.68 135.03 203.69 126.46 209.68 133.31 224.24"/><rect class="cls-21" x="137.6" y="176.7" width="100.23" height="41.97"/><path class="cls-13" d="M114,221.46a16.7,16.7,0,0,1,15.42-10.57,16.25,16.25,0,0,1,6.83,1.5c-.08-4.93-.4-24.31-.4-26.62,0-2.64-1.72-2.2-3.43-2.64s-15.85.88-19.7.88-10.28,22-10.28,22l1.28,11.9,2.57-.44v4Z"/><path class="cls-14" d="M109.33,202.83v-5.14s2.57-9,6-11.14c1.31-.82,16.7-.85,16.7-.85v11.13S123.89,202,109.33,202.83Z"/><path class="cls-15" d="M126.46,234.55a9.88,9.88,0,1,1,9.88-9.88A9.89,9.89,0,0,1,126.46,234.55Z"/><path class="cls-16" d="M126.46,215.25a9.43,9.43,0,1,1-9.42,9.42,9.43,9.43,0,0,1,9.42-9.42m0-.91a10.34,10.34,0,1,0,10.33,10.33,10.35,10.35,0,0,0-10.33-10.33Z"/><circle class="cls-17" cx="126.46" cy="224.67" r="4.71"/><circle class="cls-15" cx="206.99" cy="224.67" r="9.88"/><path class="cls-16" d="M207,215.25a9.43,9.43,0,1,1-9.43,9.42,9.42,9.42,0,0,1,9.43-9.42m0-.91a10.34,10.34,0,1,0,10.33,10.33A10.35,10.35,0,0,0,207,214.34Z"/><circle class="cls-17" cx="206.99" cy="224.67" r="4.71"/><path class="cls-16" d="M236,178.41H139.42V217H199a10.38,10.38,0,0,1,15.79,0H236Z"/><path class="cls-17" d="M128.6,205.83h5.14v-1.34a.8.8,0,0,0-.8-.8h-2.58a1.53,1.53,0,0,0-.86.26l-.56.37a.77.77,0,0,0-.34.63Z"/><path class="cls-22" d="M224.68,195.7c-.4-.06-.81-.1-1.21-.14s-.75-.19-1.12-.27l-1.14-.21a35.92,35.92,0,0,0-11.08,0A19.26,19.26,0,0,1,204,195a35.89,35.89,0,0,0-11.62-.11,21.19,21.19,0,0,1-6.36,0,35.72,35.72,0,0,0-5.48-.42,34.71,34.71,0,0,0-7.63.83c-.51.11-1,.2-1.55.26h-3.84c-.43-.05-.86-.11-1.28-.2a34.63,34.63,0,0,0-7.29-.7l-1.31,0-1.28.08a63,63,0,0,1-16.63.92,20.34,20.34,0,0,1-.22,3.71v17.23h58.95a14.26,14.26,0,0,1,8.75-3.51,12.34,12.34,0,0,1,8.05,3.51H236.1v-17.4a15.56,15.56,0,0,0,.23-3.27C232.36,196.22,228.39,196.77,224.68,195.7Z"/></g></g></svg>