<?xml version="1.0" encoding="utf-8"?>
<!-- Generator: Adobe Illustrator 19.0.0, SVG Export Plug-In . SVG Version: 6.00 Build 0)  -->
<svg version="1.1" id="Layer_1" xmlns="http://www.w3.org/2000/svg" xmlns:xlink="http://www.w3.org/1999/xlink" x="0px" y="0px"
	 viewBox="0 0 52.4 52.4" style="enable-background:new 0 0 52.4 52.4;" xml:space="preserve">
<style type="text/css">
	.st0{fill:#FFFFFF;}
</style>
<path class="st0" d="M38.2,4.4c1.8,0,3.3,1.5,3.3,3.3v16.4c0,3.4,1.1,5,3.1,6.7c2.2,1.9,3.5,4.6,3.5,7.5c0,5.4-4.4,9.8-9.8,9.8
	s-9.8-4.4-9.8-9.8c0-2.9,1.3-5.6,3.5-7.5c2-1.7,3.1-3.2,3.1-6.7V7.6C34.9,5.8,36.4,4.4,38.2,4.4z M38.2,0c-4.2,0-7.6,3.4-7.6,7.6
	v16.4c0,1.3-0.6,2.5-1.5,3.3c-3.1,2.6-5,6.5-5,10.8c0,7.8,6.3,14.2,14.2,14.2S52.4,46,52.4,38.2c0-4.3-1.9-8.2-5-10.8
	c-1-0.8-1.5-2-1.5-3.3V7.6C45.8,3.4,42.4,0,38.2,0z M42.8,32.1c-2.2-1.9-3.5-3.8-3.5-7V10.9h-2.2v14.2c0,3.2-1.3,5.1-3.5,7
	c-1.7,1.5-3,3.6-3,6.1c0,4.2,3.4,7.6,7.6,7.6s7.6-3.4,7.6-7.6C45.8,35.7,44.5,33.6,42.8,32.1z M21.8,18.5c0,4.2-3.4,7.6-7.6,7.6
	s-7.6-3.4-7.6-7.6s3.4-7.6,7.6-7.6S21.8,14.3,21.8,18.5z M4.4,18.5c0-0.4,0.1-0.7,0.1-1.1H0v2.2h4.5C4.4,19.3,4.4,18.9,4.4,18.5z
	 M8.1,10.9L4.9,7.7L3.4,9.3l3.2,3.2C7,11.9,7.5,11.4,8.1,10.9z M21.8,12.4L25,9.3l-1.5-1.5l-3.2,3.2C20.9,11.4,21.4,11.9,21.8,12.4z
	 M14.2,8.7c0.4,0,0.7,0.1,1.1,0.1V4.4h-2.2v4.5C13.5,8.8,13.8,8.7,14.2,8.7z M14.2,28.4c-0.4,0-0.7-0.1-1.1-0.1v4.5h2.2v-4.5
	C14.9,28.3,14.6,28.4,14.2,28.4z M23.9,17.5c0,0.4,0.1,0.7,0.1,1.1l-0.1,1.1h4.5v-2.2H23.9z M6.5,24.6l-3.2,3.2l1.5,1.5l3.2-3.2
	C7.5,25.7,7,25.2,6.5,24.6z M20.3,26.2l3.2,3.2l1.5-1.5l-3.2-3.2C21.4,25.2,20.9,25.7,20.3,26.2z"/>
</svg>
