<svg xmlns="http://www.w3.org/2000/svg" xmlns:xlink="http://www.w3.org/1999/xlink" viewBox="0 0 117.14 83.04">
  <defs>
    <style>
      .cls-1 {
        fill: url(#linear-gradient);
      }

      .cls-2 {
        fill: url(#linear-gradient-2);
      }

      .cls-3 {
        fill: url(#linear-gradient-3);
      }

      .cls-4 {
        fill: url(#linear-gradient-4);
      }

      .cls-5 {
        fill: url(#linear-gradient-5);
      }

      .cls-6 {
        fill: url(#linear-gradient-6);
      }
    </style>
    <linearGradient id="linear-gradient" x1="36.74" y1="37.66" x2="36.74" y2="79.79" gradientUnits="userSpaceOnUse">
      <stop offset="0" stop-color="#8747d1"/>
      <stop offset="0.11" stop-color="#7a43c3"/>
      <stop offset="1" stop-color="#182057"/>
    </linearGradient>
    <linearGradient id="linear-gradient-2" x1="74.97" y1="37.66" x2="74.97" y2="79.79" xlink:href="#linear-gradient"/>
    <linearGradient id="linear-gradient-3" x1="58.57" y1="0" x2="58.57" y2="83.04" xlink:href="#linear-gradient"/>
    <linearGradient id="linear-gradient-4" x1="51.65" y1="38.3" x2="29.24" y2="77.11" gradientUnits="userSpaceOnUse">
      <stop offset="0" stop-color="#ff6759"/>
      <stop offset="0.1" stop-color="#e55d50" stop-opacity="0.81"/>
      <stop offset="0.24" stop-color="#c85146" stop-opacity="0.6"/>
      <stop offset="0.37" stop-color="#ae473e" stop-opacity="0.42"/>
      <stop offset="0.5" stop-color="#9a3f36" stop-opacity="0.27"/>
      <stop offset="0.63" stop-color="#8a3831" stop-opacity="0.15"/>
      <stop offset="0.76" stop-color="#7e342d" stop-opacity="0.07"/>
      <stop offset="0.88" stop-color="#77312b" stop-opacity="0.02"/>
      <stop offset="1" stop-color="#75302a" stop-opacity="0"/>
    </linearGradient>
    <linearGradient id="linear-gradient-5" x1="90.27" y1="38.68" x2="67.57" y2="77.99" xlink:href="#linear-gradient-4"/>
    <linearGradient id="linear-gradient-6" x1="79.76" y1="0.52" x2="30.18" y2="86.4" xlink:href="#linear-gradient-4"/>
  </defs>
  <title>logo-color</title>
  <g id="Layer_2" data-name="Layer 2">
    <g id="Layer_1-2" data-name="Layer 1">
      <g id="logo-color">
        <g>
          <g>
            <path class="cls-1" d="M52.52,75.51a14.45,14.45,0,0,1-2.72,1.81,19.93,19.93,0,0,1-3.28,1.34,26,26,0,0,1-3.61.84,24.29,24.29,0,0,1-3.67.29,19.31,19.31,0,0,1-7.43-1.4,17.05,17.05,0,0,1-5.93-4A18.59,18.59,0,0,1,22,68.15,22.65,22.65,0,0,1,20.56,60a24.31,24.31,0,0,1,.87-6.65,21.15,21.15,0,0,1,2.4-5.54,20.34,20.34,0,0,1,3.65-4.37,21.62,21.62,0,0,1,4.58-3.16,22.54,22.54,0,0,1,5.22-1.93,23.58,23.58,0,0,1,5.54-.66c.59,0,1.3,0,2.11.07s1.66.12,2.56.24,1.81.25,2.75.43,1.82.39,2.68.63L51.4,46.2l-.52.22a17.58,17.58,0,0,0-8-2.07,11.07,11.07,0,0,0-4.66,1,10.24,10.24,0,0,0-3.58,2.75,12.39,12.39,0,0,0-2.3,4.34,20.89,20.89,0,0,0,.07,11.76A12.72,12.72,0,0,0,35,68.69a11.34,11.34,0,0,0,4.11,2.87,14.16,14.16,0,0,0,5.48,1,16.29,16.29,0,0,0,2.39-.17A15.69,15.69,0,0,0,49,72a15.42,15.42,0,0,0,1.85-.63c.57-.23,1.12-.47,1.64-.71Z"/>
            <path class="cls-2" d="M92.2,76.88a44.54,44.54,0,0,1-7.28,2.2,35.57,35.57,0,0,1-7,.71,25.86,25.86,0,0,1-9-1.4,16.61,16.61,0,0,1-6.27-3.93,15.64,15.64,0,0,1-3.66-6.08,24.59,24.59,0,0,1-1.19-7.85,26.74,26.74,0,0,1,.86-7A22.39,22.39,0,0,1,61,47.82a19.41,19.41,0,0,1,3.67-4.45,21.78,21.78,0,0,1,4.65-3.18,22.61,22.61,0,0,1,5.32-1.9,26,26,0,0,1,5.72-.63c.62,0,1.36,0,2.22.07s1.75.12,2.69.24,1.9.25,2.87.43,1.88.39,2.73.63l-1.49,7.19-.52.23a19.15,19.15,0,0,0-2.29-1,19.52,19.52,0,0,0-2.27-.64c-.73-.16-1.43-.27-2.11-.35a18.4,18.4,0,0,0-1.86-.11,12,12,0,0,0-4.85.94A9.85,9.85,0,0,0,71.8,48a12.54,12.54,0,0,0-2.33,4.45,20.68,20.68,0,0,0-.81,6,21.77,21.77,0,0,0,.75,5.89A14.56,14.56,0,0,0,71.53,69a9.74,9.74,0,0,0,3.33,3,9,9,0,0,0,4.42,1.08l.87,0c.33,0,.66,0,1-.08s.67-.08,1-.14a3.88,3.88,0,0,0,.76-.2V58.4H92.2Z"/>
          </g>
          <path class="cls-3" d="M72,25.86a223,223,0,0,1,23.94,2.35,199.92,199.92,0,0,1,20.26,5.14l1,.38C108.16,19.45,92,4.83,76.25,0c-.09,3-.12,6-.22,9a76.54,76.54,0,0,0-14.9-.74C28.36,9.74,1,24.13,0,47.26-.57,61.6,9.13,74.75,24.41,83,14.58,76.25,8.76,67.54,9.14,58.28,10,38.75,29,23.8,72,25.86Z"/>
        </g>
        <g>
          <g>
            <path class="cls-4" d="M52.52,75.51a14.45,14.45,0,0,1-2.72,1.81,19.93,19.93,0,0,1-3.28,1.34,26,26,0,0,1-3.61.84,24.29,24.29,0,0,1-3.67.29,19.31,19.31,0,0,1-7.43-1.4,17.05,17.05,0,0,1-5.93-4A18.59,18.59,0,0,1,22,68.15,22.65,22.65,0,0,1,20.56,60a24.31,24.31,0,0,1,.87-6.65,21.15,21.15,0,0,1,2.4-5.54,20.34,20.34,0,0,1,3.65-4.37,21.62,21.62,0,0,1,4.58-3.16,22.54,22.54,0,0,1,5.22-1.93,23.58,23.58,0,0,1,5.54-.66c.59,0,1.3,0,2.11.07s1.66.12,2.56.24,1.81.25,2.75.43,1.82.39,2.68.63L51.4,46.2l-.52.22a17.58,17.58,0,0,0-8-2.07,11.07,11.07,0,0,0-4.66,1,10.24,10.24,0,0,0-3.58,2.75,12.39,12.39,0,0,0-2.3,4.34,20.89,20.89,0,0,0,.07,11.76A12.72,12.72,0,0,0,35,68.69a11.34,11.34,0,0,0,4.11,2.87,14.16,14.16,0,0,0,5.48,1,16.29,16.29,0,0,0,2.39-.17A15.69,15.69,0,0,0,49,72a15.42,15.42,0,0,0,1.85-.63c.57-.23,1.12-.47,1.64-.71Z"/>
            <path class="cls-5" d="M92.2,76.88a44.54,44.54,0,0,1-7.28,2.2,35.57,35.57,0,0,1-7,.71,25.86,25.86,0,0,1-9-1.4,16.61,16.61,0,0,1-6.27-3.93,15.64,15.64,0,0,1-3.66-6.08,24.59,24.59,0,0,1-1.19-7.85,26.74,26.74,0,0,1,.86-7A22.39,22.39,0,0,1,61,47.82a19.41,19.41,0,0,1,3.67-4.45,21.78,21.78,0,0,1,4.65-3.18,22.61,22.61,0,0,1,5.32-1.9,26,26,0,0,1,5.72-.63c.62,0,1.36,0,2.22.07s1.75.12,2.69.24,1.9.25,2.87.43,1.88.39,2.73.63l-1.49,7.19-.52.23a19.15,19.15,0,0,0-2.29-1,19.52,19.52,0,0,0-2.27-.64c-.73-.16-1.43-.27-2.11-.35a18.4,18.4,0,0,0-1.86-.11,12,12,0,0,0-4.85.94A9.85,9.85,0,0,0,71.8,48a12.54,12.54,0,0,0-2.33,4.45,20.68,20.68,0,0,0-.81,6,21.77,21.77,0,0,0,.75,5.89A14.56,14.56,0,0,0,71.53,69a9.74,9.74,0,0,0,3.33,3,9,9,0,0,0,4.42,1.08l.87,0c.33,0,.66,0,1-.08s.67-.08,1-.14a3.88,3.88,0,0,0,.76-.2V58.4H92.2Z"/>
          </g>
          <path class="cls-6" d="M72,25.86a223,223,0,0,1,23.94,2.35,199.92,199.92,0,0,1,20.26,5.14l1,.38C108.16,19.45,92,4.83,76.25,0c-.09,3-.12,6-.22,9a76.54,76.54,0,0,0-14.9-.74C28.36,9.74,1,24.13,0,47.26-.57,61.6,9.13,74.75,24.41,83,14.58,76.25,8.76,67.54,9.14,58.28,10,38.75,29,23.8,72,25.86Z"/>
        </g>
      </g>
    </g>
  </g>
</svg>
